<?xml version="1.0" standalone="no"?><!DOCTYPE svg PUBLIC "-//W3C//DTD SVG 1.1//EN" "http://www.w3.org/Graphics/SVG/1.1/DTD/svg11.dtd"><svg height="1024" node-id="1" sillyvg="true" template-height="1024" template-width="1024" version="1.1" viewBox="0 0 1024 1024" width="1024" xmlns="http://www.w3.org/2000/svg" xmlns:xlink="http://www.w3.org/1999/xlink"><defs node-id="33"></defs><path d="M 137.15 814.61 C 135.46 806.03 135.47 796.36 135.50 787.62 C 135.66 742.62 146.79 694.15 170.10 655.38 C 174.02 648.86 178.41 642.43 183.51 636.76 C 184.53 635.64 190.09 631.30 190.25 630.70 C 190.59 629.39 187.30 622.15 186.74 620.39 C 185.12 615.28 184.38 609.35 183.57 604.04 C 179.87 579.83 178.35 555.30 176.24 530.92 C 172.33 485.78 165.56 446.00 179.25 401.33 C 188.80 370.14 208.49 341.36 237.76 325.88 C 270.65 308.51 313.16 301.47 349.08 312.65 C 376.71 321.25 395.80 337.67 409.21 363.12 C 427.98 362.06 446.96 362.31 465.76 362.20 L 558.18 361.93 L 663.67 361.38 C 675.27 361.33 686.89 360.83 698.49 361.04 L 706.41 360.94 C 709.46 352.29 713.31 344.90 722.08 340.76 C 728.73 337.62 737.06 337.55 743.92 340.11 C 751.45 342.92 757.12 348.80 760.33 356.06 C 761.55 358.84 762.81 362.05 763.12 365.09 C 766.44 365.69 769.49 367.04 771.90 369.47 C 774.54 372.12 775.38 375.35 775.76 378.97 C 777.15 392.33 776.63 406.30 777.05 419.75 L 779.56 508.75 L 782.79 614.00 C 783.27 628.80 784.25 643.70 784.30 658.51 C 784.32 664.25 782.94 668.81 778.69 672.90 C 776.35 675.15 773.56 676.41 770.35 676.81 C 765.82 677.38 761.09 677.14 756.52 677.11 C 745.32 677.04 734.14 676.34 722.95 676.22 L 599.38 674.52 C 602.88 682.43 607.87 689.91 612.37 697.30 C 614.38 700.60 616.73 703.91 618.14 707.50 C 635.91 707.49 653.80 707.40 671.55 708.22 C 677.06 708.47 682.45 709.59 686.92 713.03 C 693.93 718.43 702.63 735.58 709.85 743.28 L 710.35 743.80 C 709.97 747.87 710.01 752.01 709.93 756.10 C 689.52 754.20 668.69 755.01 648.21 754.55 L 500.09 751.81 C 481.17 751.43 462.04 752.25 443.17 751.10 C 443.33 747.37 443.46 743.64 443.57 739.90 C 449.07 733.25 454.32 726.46 459.56 719.61 C 462.77 715.41 465.90 710.57 469.70 706.93 C 475.20 705.27 507.52 706.49 515.44 706.51 C 540.75 706.55 566.16 706.15 591.46 706.83 C 599.38 707.04 607.40 706.71 615.28 707.46 C 608.03 696.87 601.76 686.10 595.91 674.68 C 576.88 673.73 557.52 675.59 538.58 674.03 C 538.27 674.88 537.94 675.71 537.59 676.54 C 535.84 680.73 524.71 704.10 521.47 705.43 L 521.10 704.63 C 522.08 697.62 531.82 681.15 535.63 674.20 C 519.72 673.16 503.62 673.38 487.68 673.17 L 431.69 672.23 L 405.77 672.27 C 400.96 672.28 395.71 672.59 390.95 671.84 C 387.45 671.29 384.51 669.74 381.99 667.23 C 379.77 665.02 378.20 662.45 377.47 659.40 C 375.67 651.81 376.55 642.57 376.54 634.76 L 376.53 597.14 C 368.07 598.56 358.95 599.55 351.24 603.52 C 335.73 611.52 331.44 626.09 326.48 641.59 C 364.50 680.92 385.43 733.98 392.49 787.63 C 393.75 797.19 394.09 806.97 394.66 816.60 C 410.09 816.35 425.50 816.87 440.92 817.07 L 513.52 817.93 L 686.31 819.57 L 804.59 820.09 C 814.96 820.19 825.33 820.24 835.70 820.21 C 841.73 820.17 848.14 819.60 854.12 820.22 C 855.94 820.41 858.02 820.64 859.24 822.13 C 857.43 823.24 853.94 822.92 851.75 822.97 C 808.07 823.96 764.22 822.38 720.54 822.19 L 402.87 819.15 L 240.34 816.27 C 205.97 815.73 171.50 815.98 137.15 814.61 Z M 747.91 392.06 C 742.24 394.96 734.68 395.64 728.53 394.37 C 721.47 392.91 714.83 388.59 710.90 382.57 C 707.05 384.47 702.50 384.68 698.27 384.87 C 685.79 385.43 673.14 384.99 660.64 384.95 L 594.90 384.68 L 415.81 384.50 C 416.93 393.20 418.23 401.97 418.72 410.72 C 419.92 432.14 417.76 453.83 415.32 475.10 C 413.80 488.35 411.31 501.63 410.74 514.98 C 409.94 533.57 414.13 552.58 411.81 570.96 C 411.73 571.58 411.63 572.20 411.51 572.81 C 411.38 573.42 411.24 574.03 411.07 574.63 C 410.91 575.24 410.73 575.83 410.52 576.42 C 410.32 577.01 410.09 577.60 409.85 578.17 C 409.60 578.75 409.34 579.32 409.06 579.87 C 408.77 580.43 408.47 580.98 408.15 581.52 C 407.83 582.05 407.50 582.58 407.14 583.10 C 406.79 583.61 406.42 584.11 406.03 584.60 C 404.97 585.92 403.79 587.12 402.57 588.28 L 402.64 588.90 C 403.63 599.60 401.18 641.84 403.73 647.49 C 413.39 648.88 424.08 648.12 433.87 648.19 L 488.54 648.82 L 675.32 650.86 L 726.38 651.45 C 736.76 651.51 747.28 651.17 757.63 651.70 C 755.97 638.62 757.11 624.68 756.82 611.46 L 754.42 528.13 L 750.73 424.99 C 750.25 414.02 747.92 402.96 747.91 392.06 Z M 139.73 811.87 L 247.62 813.53 L 354.99 815.54 C 366.44 815.71 377.89 816.17 389.34 816.16 C 386.28 764.82 374.36 714.49 343.56 672.29 C 337.19 663.56 330.26 654.92 322.15 647.75 C 306.42 633.83 290.89 626.75 271.13 620.30 C 258.15 633.87 241.65 644.88 222.32 645.28 C 212.06 645.50 202.59 642.64 195.13 635.37 C 194.32 634.58 193.57 633.73 192.84 632.87 C 155.35 673.29 137.06 743.79 139.06 797.92 C 139.23 802.52 139.88 807.30 139.73 811.87 Z M 471.31 709.02 C 463.39 719.58 455.39 730.05 446.76 740.04 C 489.73 740.82 532.70 741.31 575.67 741.53 C 610.64 741.83 645.66 742.57 680.62 742.50 C 688.80 742.57 697.08 742.91 705.24 742.39 C 700.89 735.79 690.23 718.66 684.39 714.33 C 682.48 712.91 680.05 712.25 677.75 711.77 C 672.52 710.68 666.82 711.05 661.49 710.95 L 633.92 710.48 C 598.74 709.90 563.55 709.58 528.36 709.53 C 515.34 709.59 502.32 709.57 489.30 709.47 C 483.46 709.42 477.07 709.83 471.31 709.02 Z M 748.96 391.46 C 754.41 404.89 754.17 451.83 754.85 468.60 C 757.39 530.59 759.12 592.61 760.06 654.65 C 747.74 654.87 735.39 654.28 723.07 654.23 C 684.67 654.11 646.27 653.75 607.88 653.12 C 538.95 652.86 470.02 651.95 401.11 650.38 C 399.68 643.60 399.18 596.98 400.39 589.65 C 393.65 593.10 386.58 595.02 379.26 596.82 C 379.17 598.13 379.12 599.44 379.10 600.75 C 378.95 611.00 379.06 621.27 379.04 631.52 C 379.02 639.18 378.44 647.87 379.83 655.40 C 380.46 658.77 381.84 662.84 384.39 665.27 C 386.57 667.33 389.80 668.62 392.76 668.89 C 406.84 670.20 424.70 669.44 439.14 669.58 L 528.15 670.76 L 646.50 672.50 C 688.04 673.36 729.80 674.63 771.34 673.94 C 774.79 671.94 778.25 669.43 779.77 665.60 C 781.09 662.30 781.16 658.46 781.18 654.95 C 781.26 638.01 780.34 620.89 779.76 603.94 L 777.50 529.96 L 773.96 415.46 C 773.54 404.30 773.73 393.04 773.04 381.90 C 772.89 379.35 772.72 376.33 771.64 374.01 C 770.14 370.79 767.10 369.12 763.93 367.92 L 763.70 368.46 C 762.71 370.81 762.30 373.12 761.53 375.52 C 759.24 382.62 754.55 386.93 748.96 391.46 Z M 410.30 365.24 C 412.78 370.58 413.72 375.89 414.30 381.73 C 431.58 381.51 448.86 381.87 466.14 381.84 L 618.56 381.86 L 674.21 381.95 C 686.11 381.97 698.14 382.35 710.00 381.43 C 708.85 378.39 707.09 374.79 706.51 371.62 C 706.01 368.89 706.49 366.05 705.75 363.36 L 704.06 362.90 C 688.50 364.68 672.74 364.28 657.10 364.23 L 600.02 364.20 C 536.78 364.97 473.54 365.31 410.30 365.24 Z M 298.39 623.01 C 307.70 627.62 316.13 632.77 323.82 639.79 C 323.20 630.17 329.68 617.48 335.93 610.42 C 356.66 587.06 400.16 602.25 408.13 573.28 C 410.12 566.05 409.47 557.72 409.09 550.28 C 408.37 536.42 407.35 522.86 408.22 508.94 C 409.00 496.63 411.03 484.44 412.61 472.22 C 416.04 445.59 418.24 417.87 413.46 391.30 C 413.21 389.91 412.59 383.14 411.94 382.54 C 401.72 389.86 392.50 404.82 383.12 414.48 C 360.90 437.33 334.93 455.50 307.75 471.84 C 306.15 487.10 305.19 502.22 304.38 517.54 C 302.46 553.54 300.66 586.51 275.86 615.15 C 283.49 617.62 291.01 619.81 298.39 623.01 Z M 706.98 751.51 C 706.96 749.72 707.22 747.36 706.39 745.74 C 699.00 745.18 691.39 745.65 683.96 745.63 L 638.77 745.45 L 509.73 744.06 C 494.83 743.98 479.94 743.81 465.05 743.54 C 459.15 743.44 451.89 744.09 446.16 743.06 C 446.01 744.64 445.62 746.48 446.20 747.99 C 448.85 749.00 501.23 749.30 508.80 749.45 C 554.62 750.58 600.45 751.38 646.28 751.83 C 665.64 752.11 685.09 752.86 704.44 752.70 C 705.27 752.69 705.89 752.55 706.66 752.24 L 706.98 751.51 Z M 732.77 366.38 C 729.66 366.20 726.56 366.06 723.45 365.96 C 726.66 369.54 731.42 377.11 734.92 379.66 L 735.93 379.13 C 740.24 375.44 742.46 370.19 746.36 366.17 C 742.98 366.12 739.33 366.32 736.02 365.62 C 734.16 362.16 738.92 352.83 734.52 351.08 C 734.01 350.88 732.98 350.89 732.48 350.85 C 732.42 355.98 732.09 361.29 732.77 366.38 Z" fill="#070507" fill-rule="nonzero" node-id="35" stroke="none" target-height="522.494" target-width="723.77893" target-x="135.461" target-y="301.47"></path><path d="M 465.30 443.66 C 477.45 442.49 491.25 443.58 503.48 443.99 C 519.29 444.51 535.21 444.77 551.03 444.90 L 640.15 445.90 L 675.60 445.97 C 682.81 445.98 690.19 445.73 697.37 446.37 C 701.48 446.74 705.66 447.86 708.84 450.61 C 713.01 454.21 714.25 459.24 714.58 464.50 C 715.09 472.81 716.88 489.47 715.45 497.24 C 714.85 500.51 713.46 503.53 711.18 505.98 C 707.99 509.42 703.25 511.24 698.62 511.50 C 688.35 511.54 678.04 511.00 667.75 511.01 C 618.67 511.12 569.59 510.86 520.51 510.22 C 508.08 509.95 495.60 510.13 483.15 510.10 C 476.97 510.08 470.66 510.31 464.50 509.75 C 460.59 509.40 457.23 508.55 454.01 506.18 C 449.94 503.20 448.17 499.19 447.43 494.31 C 446.13 485.83 445.88 464.55 447.72 456.15 C 448.24 453.75 449.19 451.45 450.72 449.51 C 454.50 444.73 459.68 444.28 465.30 443.66 Z M 699.49 508.74 C 703.75 507.85 707.72 506.52 710.27 502.76 C 711.61 500.80 712.28 498.52 712.60 496.20 C 713.22 491.71 712.53 464.21 711.53 460.01 C 710.71 456.57 708.88 453.56 705.77 451.77 C 701.73 449.45 696.28 449.39 691.74 449.15 C 672.41 448.13 652.80 448.69 633.44 448.61 L 553.42 447.88 C 523.24 447.73 492.82 445.57 462.67 446.67 C 458.50 447.48 455.10 448.51 452.56 452.23 C 451.13 454.32 450.44 456.73 450.00 459.20 C 448.81 466.07 448.91 487.92 450.33 494.75 C 451.06 498.26 452.71 502.46 455.98 504.36 C 459.46 506.40 464.23 507.05 468.22 507.25 C 480.14 507.84 492.30 507.36 504.25 507.40 L 577.80 507.81 L 659.66 508.53 C 672.90 508.62 686.26 509.46 699.49 508.74 Z" fill="#070507" fill-rule="nonzero" node-id="37" stroke="none" target-height="69.04703" target-width="271.00003" target-x="445.88498" target-y="442.491"></path><path d="M 493.42 463.02 C 494.54 463.05 495.67 463.15 496.79 463.22 C 498.17 464.62 507.41 486.20 507.61 488.18 L 506.51 488.73 C 502.80 487.54 503.83 482.27 500.02 480.51 L 490.40 480.77 C 489.40 483.58 488.45 487.36 485.67 488.90 C 484.74 480.98 490.90 471.27 493.21 463.73 L 493.42 463.02 Z M 495.98 477.98 C 497.14 477.96 498.68 478.13 499.78 477.85 L 499.06 477.80 C 499.37 477.29 499.74 477.01 499.61 476.40 C 499.02 473.63 496.88 469.31 495.50 466.72 L 492.51 473.04 C 491.86 474.39 491.70 475.24 491.70 476.74 L 492.23 477.71 C 493.54 478.06 494.64 478.03 495.98 477.98 Z" fill="#070507" fill-rule="nonzero" node-id="39" stroke="none" target-height="25.876953" target-width="22.866974" target-x="484.743" target-y="463.022"></path><path d="M 543.03 462.63 L 544.54 462.98 C 546.52 464.79 553.64 481.53 554.81 484.91 C 555.25 486.18 555.27 486.84 554.69 488.02 L 553.46 488.29 C 551.50 487.33 551.07 483.85 549.84 482.16 C 548.88 480.84 547.88 481.13 546.42 481.06 L 538.72 481.47 C 538.07 483.24 537.21 487.16 535.81 488.24 C 534.64 488.06 534.42 488.28 533.62 487.34 C 534.79 481.78 540.08 467.32 543.03 462.63 Z M 539.84 478.49 L 546.12 478.50 L 547.89 478.27 C 548.29 475.86 545.49 470.35 544.06 468.42 C 543.88 468.18 543.67 467.97 543.48 467.75 C 542.25 471.31 540.87 474.88 539.84 478.49 Z" fill="#070507" fill-rule="nonzero" node-id="41" stroke="none" target-height="25.65802" target-width="21.64801" target-x="533.62" target-y="462.632"></path><path d="M 632.78 470.57 C 632.91 470.56 633.04 470.55 633.17 470.54 C 635.29 470.44 637.54 470.54 639.16 472.09 C 642.83 475.61 642.57 483.94 642.64 488.70 C 639.36 489.69 640.68 488.26 638.48 487.30 C 637.54 487.50 636.73 487.67 635.85 488.06 C 635.62 488.16 635.39 488.27 635.16 488.37 C 632.76 489.40 631.38 488.73 629.05 487.79 C 628.82 487.40 628.59 487.00 628.38 486.60 C 627.44 484.79 627.06 483.44 627.69 481.45 C 629.84 478.62 632.98 478.92 636.11 478.05 C 637.45 477.68 637.98 477.51 638.64 476.28 C 638.48 475.77 638.34 475.26 638.07 474.79 C 636.07 471.39 630.82 474.56 627.98 473.70 L 627.89 472.89 C 629.18 471.33 630.90 471.08 632.78 470.57 Z M 636.73 486.06 C 637.90 485.21 638.56 484.85 639.06 483.43 C 638.87 482.18 638.75 481.89 637.63 481.12 C 636.32 480.21 634.36 480.49 632.85 480.56 C 631.50 481.56 631.04 481.77 630.36 483.35 C 630.71 484.47 631.10 485.05 632.23 485.54 C 633.73 486.20 635.13 486.14 636.73 486.06 Z" fill="#070507" fill-rule="nonzero" node-id="43" stroke="none" target-height="19.242004" target-width="15.771973" target-x="627.062" target-y="470.444"></path><path d="M 647.33 470.49 C 647.98 470.73 648.37 470.93 648.91 471.38 C 649.20 471.63 650.25 472.68 650.58 472.75 C 652.80 473.19 656.13 470.11 658.92 470.81 C 659.88 471.06 660.45 471.46 661.03 472.23 C 663.28 475.22 663.35 484.57 662.79 488.21 C 661.97 489.23 661.97 489.16 660.67 489.38 L 660.01 488.82 C 659.13 486.34 659.68 483.56 659.66 480.95 C 659.57 479.13 659.58 477.19 658.54 475.62 C 657.71 474.37 656.77 473.74 655.30 473.39 C 654.15 473.60 653.47 473.81 652.54 474.55 C 648.76 477.54 650.81 484.52 650.32 488.90 L 649.72 489.37 L 648.78 488.75 C 646.56 484.18 647.29 475.62 647.33 470.49 Z" fill="#070507" fill-rule="nonzero" node-id="45" stroke="none" target-height="19.272003" target-width="16.79004" target-x="646.563" target-y="470.108"></path><path d="M 601.95 470.57 C 604.26 470.37 607.38 470.05 609.56 471.07 C 610.58 471.55 610.45 471.97 610.75 472.94 C 608.61 474.10 605.35 473.26 602.93 473.71 C 601.79 473.93 601.65 473.91 600.97 474.88 C 601.01 475.02 601.04 475.16 601.10 475.29 C 602.20 477.86 606.42 478.39 608.77 479.36 C 610.37 480.02 611.38 480.74 612.06 482.39 C 612.08 483.12 612.06 483.71 611.72 484.38 C 610.58 486.62 609.36 487.67 607.01 488.52 C 604.80 488.64 601.79 488.90 599.98 487.32 C 598.95 486.42 598.90 485.94 598.97 484.72 L 599.96 484.41 C 601.42 485.03 603.11 485.84 604.74 485.77 C 606.47 485.70 607.03 485.35 608.22 484.15 C 608.27 481.19 600.32 479.65 598.14 477.15 C 597.95 476.44 597.61 475.79 597.83 475.05 C 598.42 473.06 600.30 471.67 601.95 470.57 Z" fill="#070507" fill-rule="nonzero" node-id="47" stroke="none" target-height="18.850006" target-width="14.470032" target-x="597.605" target-y="470.052"></path><path d="M 581.69 470.13 C 581.94 470.16 582.19 470.17 582.44 470.22 C 584.09 470.57 585.27 471.75 586.11 473.16 L 585.92 473.58 C 585.08 474.04 584.65 474.01 583.71 474.06 C 582.47 473.46 581.35 472.97 580.01 472.60 C 578.72 472.96 578.24 473.25 577.34 474.25 C 577.42 477.22 585.27 479.05 587.24 482.36 C 587.31 483.77 587.35 484.16 586.49 485.37 C 584.62 488.00 581.96 488.32 579.03 488.74 C 577.11 488.09 575.57 487.61 574.12 486.13 L 574.16 485.26 C 575.83 484.45 579.68 485.48 581.72 485.42 C 582.70 484.64 583.37 484.25 583.74 483.00 C 582.42 480.30 578.17 480.64 575.82 479.44 C 574.88 478.95 573.94 477.63 573.79 476.56 C 573.62 475.25 573.92 474.26 574.74 473.24 C 576.51 471.05 579.05 470.46 581.69 470.13 Z" fill="#070507" fill-rule="nonzero" node-id="49" stroke="none" target-height="18.616974" target-width="13.732971" target-x="573.619" target-y="470.126"></path><path d="M 563.68 469.96 C 564.00 469.98 564.33 470.02 564.65 470.05 C 566.89 470.28 569.41 470.53 570.91 472.40 C 568.06 473.94 564.07 472.18 561.46 474.68 C 562.45 477.93 568.56 477.40 570.90 480.45 C 571.35 482.04 571.17 483.05 570.43 484.48 C 569.04 487.19 567.59 487.72 564.83 488.67 C 563.80 488.63 562.73 488.61 561.74 488.31 C 560.18 487.85 559.06 486.77 558.41 485.30 L 558.89 484.29 C 560.74 483.98 561.45 484.83 563.18 485.38 C 564.34 485.74 565.48 485.79 566.53 485.05 C 567.69 484.23 567.75 483.73 567.90 482.45 C 566.32 478.97 562.01 480.08 559.26 477.98 C 558.58 476.65 558.30 475.94 558.86 474.42 C 559.78 471.95 561.36 470.99 563.68 469.96 Z" fill="#070507" fill-rule="nonzero" node-id="51" stroke="none" target-height="18.710022" target-width="13.044983" target-x="558.301" target-y="469.964"></path><path d="M 669.30 466.22 L 670.39 466.56 C 671.43 468.01 671.35 468.86 671.54 470.61 C 672.84 471.50 674.39 470.94 675.92 471.37 C 676.69 471.57 676.62 471.82 676.99 472.46 C 675.90 473.55 673.76 473.64 672.26 473.91 C 672.22 474.04 672.16 474.16 672.12 474.29 C 671.33 477.12 671.44 482.16 672.97 484.69 C 674.10 485.63 675.10 485.52 676.49 485.54 C 677.29 485.55 677.29 485.70 677.92 486.16 L 678.05 488.31 C 676.83 488.58 675.58 488.90 674.34 488.98 C 672.83 489.07 671.27 488.73 670.26 487.50 C 667.99 484.74 668.93 477.44 668.95 474.04 C 666.35 473.92 663.98 473.43 661.45 472.85 C 663.59 472.05 665.82 471.75 667.91 470.90 C 668.78 469.56 668.45 468.33 669.01 466.89 C 669.09 466.66 669.20 466.45 669.30 466.22 Z" fill="#070507" fill-rule="nonzero" node-id="53" stroke="none" target-height="22.847992" target-width="16.592041" target-x="661.454" target-y="466.224"></path><path d="M 616.22 465.12 L 618.24 465.60 C 619.29 466.91 619.04 468.33 619.15 469.98 C 620.46 471.22 622.19 470.97 623.95 471.12 L 624.46 471.78 L 624.19 472.77 C 622.64 473.08 621.36 473.22 620.13 474.30 C 618.96 476.41 618.81 480.36 619.28 482.72 C 619.83 485.52 622.92 484.71 624.71 486.07 C 624.90 486.21 625.07 486.38 625.25 486.54 C 624.89 487.32 624.55 487.85 623.99 488.49 C 622.67 488.90 621.62 489.22 620.22 488.81 C 614.37 487.07 617.75 477.76 615.63 473.46 C 614.47 473.23 613.45 473.13 612.56 472.29 C 613.05 471.33 614.86 470.69 615.85 470.14 C 615.89 468.45 616.03 466.80 616.22 465.12 Z" fill="#070507" fill-rule="nonzero" node-id="55" stroke="none" target-height="24.108002" target-width="12.687988" target-x="612.558" target-y="465.116"></path><path d="M 590.42 462.26 C 590.86 462.39 591.52 462.55 591.91 462.77 C 593.21 463.48 593.27 463.97 593.61 465.30 C 590.72 471.78 595.52 480.33 594.25 487.20 C 594.00 488.60 593.26 488.68 592.11 489.34 C 591.99 489.22 591.86 489.10 591.76 488.97 C 590.51 487.41 589.77 474.89 590.21 472.51 C 590.52 470.79 591.57 469.89 591.70 468.05 C 591.24 467.35 590.88 466.92 590.23 466.37 C 590.03 466.19 589.82 466.03 589.61 465.86 C 589.28 464.49 589.89 463.49 590.42 462.26 Z" fill="#070507" fill-rule="nonzero" node-id="57" stroke="none" target-height="27.07898" target-width="6.2440186" target-x="589.281" target-y="462.264"></path><path d="M 513.22 468.38 C 513.63 468.83 514.04 469.28 514.40 469.77 C 516.86 473.09 515.88 484.75 515.20 488.88 C 514.07 488.57 513.95 488.54 513.20 487.66 C 512.30 482.38 511.55 473.42 513.22 468.38 Z" fill="#070507" fill-rule="nonzero" node-id="59" stroke="none" target-height="20.509003" target-width="5.3059387" target-x="511.55203" target-y="468.37503"></path><path d="M 535.30 555.68 C 552.35 555.10 569.48 555.94 586.54 555.99 C 599.57 556.02 616.28 555.16 628.86 556.16 C 631.21 556.35 634.28 556.52 636.10 558.17 C 642.91 564.34 641.21 577.04 641.39 585.51 C 641.49 589.90 641.91 595.64 638.47 598.97 C 636.01 601.35 633.39 601.17 630.21 601.13 C 597.05 600.74 563.83 601.18 530.68 600.47 C 528.31 599.09 525.48 597.18 524.32 594.60 C 522.25 589.99 522.70 570.67 523.60 565.24 C 523.91 563.35 524.63 561.59 525.36 559.84 C 528.58 557.26 531.21 556.19 535.30 555.68 Z M 582.96 587.55 C 583.09 587.51 583.22 587.46 583.35 587.41 C 583.47 587.36 583.60 587.31 583.72 587.25 C 583.84 587.19 583.96 587.13 584.09 587.07 C 584.21 587.01 584.32 586.94 584.44 586.87 C 584.56 586.81 584.67 586.73 584.79 586.66 C 584.90 586.59 585.01 586.51 585.12 586.43 C 585.23 586.35 585.34 586.27 585.45 586.18 C 585.55 586.09 585.66 586.01 585.76 585.92 C 585.86 585.83 585.96 585.73 586.05 585.64 C 586.15 585.54 586.25 585.45 586.34 585.35 C 586.43 585.25 586.52 585.14 586.61 585.04 C 586.69 584.94 586.78 584.83 586.86 584.72 C 586.94 584.61 587.02 584.50 587.10 584.39 C 587.17 584.28 587.25 584.16 587.32 584.05 C 587.39 583.93 587.46 583.81 587.52 583.70 C 587.59 583.58 587.65 583.45 587.71 583.33 C 587.77 583.21 587.82 583.09 587.88 582.96 C 587.93 582.84 587.98 582.71 588.03 582.58 C 588.07 582.45 588.12 582.33 588.16 582.20 C 588.20 582.07 588.24 581.94 588.27 581.80 C 588.30 581.67 588.33 581.54 588.36 581.41 C 588.39 581.28 588.41 581.14 588.43 581.01 C 588.45 580.87 588.47 580.74 588.49 580.60 C 588.50 580.47 588.51 580.33 588.52 580.20 C 588.53 580.06 588.53 579.93 588.53 579.79 C 588.53 579.65 588.53 579.52 588.52 579.38 C 588.52 579.25 588.51 579.11 588.50 578.98 C 588.48 578.84 588.47 578.71 588.45 578.57 C 588.43 578.44 588.41 578.30 588.38 578.17 C 588.36 578.04 588.33 577.90 588.29 577.77 C 588.26 577.64 588.23 577.51 588.19 577.38 C 588.15 577.25 588.11 577.12 588.06 576.99 C 588.02 576.86 587.97 576.74 587.92 576.61 C 587.87 576.48 587.81 576.36 587.75 576.24 C 587.70 576.11 587.64 575.99 587.57 575.87 C 587.51 575.75 587.44 575.63 587.38 575.52 C 587.31 575.40 587.23 575.28 587.16 575.17 C 587.08 575.06 587.01 574.95 586.92 574.84 C 586.84 574.73 586.76 574.62 586.68 574.51 C 586.59 574.41 586.50 574.31 586.41 574.21 C 586.32 574.10 586.23 574.01 586.13 573.91 C 586.04 573.81 585.94 573.72 585.84 573.63 C 585.74 573.54 585.63 573.45 585.53 573.36 C 585.42 573.27 585.32 573.19 585.21 573.11 C 585.10 573.03 584.99 572.95 584.88 572.87 C 584.76 572.80 584.65 572.72 584.53 572.65 C 584.42 572.58 584.30 572.52 584.18 572.45 C 584.06 572.39 583.94 572.33 583.82 572.27 C 583.69 572.21 583.57 572.15 583.44 572.10 C 583.32 572.05 583.19 572.00 583.06 571.95 C 582.94 571.91 582.81 571.87 582.68 571.83 C 582.55 571.79 582.42 571.75 582.28 571.72 C 582.15 571.68 582.02 571.65 581.89 571.63 C 581.75 571.60 581.62 571.58 581.49 571.56 C 581.35 571.54 581.22 571.52 581.08 571.50 C 580.95 571.49 580.81 571.48 580.68 571.48 C 580.54 571.47 580.40 571.47 580.27 571.47 C 580.13 571.46 580.00 571.47 579.86 571.47 C 579.73 571.48 579.59 571.49 579.46 571.50 C 579.32 571.52 579.18 571.53 579.05 571.55 C 578.92 571.57 578.78 571.60 578.65 571.62 C 578.52 571.65 578.38 571.68 578.25 571.71 C 578.12 571.75 577.99 571.78 577.86 571.82 C 577.73 571.86 577.60 571.90 577.47 571.95 C 577.34 571.99 577.22 572.04 577.09 572.10 C 576.97 572.15 576.85 572.20 576.73 572.26 C 576.60 572.32 576.48 572.38 576.36 572.44 C 576.24 572.50 576.13 572.57 576.01 572.64 C 575.90 572.71 575.78 572.78 575.67 572.86 C 575.56 572.93 575.45 573.01 575.34 573.09 C 575.23 573.17 575.12 573.25 575.02 573.34 C 574.92 573.42 574.81 573.51 574.71 573.60 C 574.61 573.69 574.51 573.78 574.42 573.88 C 574.32 573.98 574.23 574.07 574.14 574.17 C 574.05 574.27 573.96 574.37 573.88 574.48 C 573.79 574.58 573.71 574.69 573.63 574.80 C 573.55 574.90 573.47 575.01 573.39 575.13 C 573.32 575.24 573.24 575.35 573.17 575.47 C 573.11 575.58 573.04 575.70 572.98 575.82 C 572.91 575.94 572.85 576.06 572.79 576.18 C 572.73 576.30 572.68 576.43 572.63 576.55 C 572.57 576.67 572.53 576.80 572.48 576.93 C 572.43 577.05 572.39 577.18 572.35 577.31 C 572.31 577.44 572.28 577.57 572.24 577.70 C 572.21 577.83 572.18 577.96 572.15 578.10 C 572.13 578.23 572.10 578.36 572.08 578.49 C 572.06 578.63 572.05 578.76 572.03 578.89 C 572.02 579.03 572.01 579.16 572.00 579.30 C 571.99 579.43 571.99 579.57 571.99 579.70 C 571.99 579.84 571.99 579.97 572.00 580.11 C 572.00 580.24 572.01 580.38 572.02 580.51 C 572.04 580.64 572.05 580.78 572.07 580.91 C 572.09 581.05 572.11 581.18 572.14 581.31 C 572.17 581.44 572.20 581.58 572.23 581.71 C 572.26 581.84 572.29 581.97 572.33 582.10 C 572.37 582.23 572.41 582.35 572.46 582.48 C 572.50 582.61 572.55 582.74 572.60 582.86 C 572.65 582.99 572.71 583.11 572.76 583.23 C 572.82 583.35 572.88 583.47 572.94 583.59 C 573.01 583.71 573.07 583.83 573.14 583.95 C 573.21 584.06 573.28 584.18 573.36 584.29 C 573.43 584.40 573.51 584.51 573.59 584.62 C 573.67 584.73 573.75 584.84 573.83 584.94 C 573.92 585.05 574.00 585.15 574.10 585.25 C 574.19 585.35 574.28 585.45 574.37 585.54 C 574.47 585.64 574.56 585.73 574.66 585.83 C 574.76 585.92 574.86 586.01 574.97 586.09 C 575.07 586.18 575.18 586.26 575.28 586.34 C 575.39 586.43 575.50 586.50 575.61 586.58 C 575.73 586.65 575.84 586.73 575.95 586.80 C 576.07 586.87 576.19 586.94 576.30 587.00 C 576.42 587.06 576.54 587.13 576.66 587.18 C 576.79 587.24 576.91 587.30 577.03 587.35 C 577.16 587.40 577.28 587.45 577.41 587.50 C 577.54 587.55 577.66 587.59 577.79 587.63 C 577.92 587.67 578.05 587.71 578.18 587.74 C 578.31 587.78 578.44 587.81 578.58 587.83 C 578.71 587.86 578.84 587.89 578.97 587.91 C 579.11 587.93 579.24 587.95 579.37 587.96 C 579.51 587.97 579.64 587.99 579.78 587.99 C 579.91 588.00 580.05 588.01 580.18 588.01 C 580.32 588.01 580.45 588.01 580.59 588.00 C 580.72 588.00 580.86 587.99 580.99 587.98 C 581.12 587.96 581.26 587.95 581.39 587.93 C 581.53 587.91 581.66 587.89 581.79 587.87 C 581.92 587.84 582.06 587.81 582.19 587.78 C 582.32 587.75 582.45 587.71 582.58 587.68 C 582.71 587.64 582.84 587.60 582.96 587.55 Z" fill="#070507" fill-rule="nonzero" node-id="61" stroke="none" target-height="46.25598" target-width="120.660034" target-x="522.253" target-y="555.096"></path><path d="M 577.91 574.98 C 578.18 574.97 578.45 574.96 578.71 574.95 C 580.83 574.90 582.62 575.38 584.12 576.95 C 585.23 578.12 585.63 579.34 585.52 580.93 C 585.38 582.99 583.97 584.28 582.47 585.48 C 581.78 585.51 581.10 585.49 580.42 585.44 C 578.67 585.31 577.14 584.32 576.10 582.92 C 575.24 581.75 574.97 580.43 575.18 579.02 C 575.47 577.06 576.38 576.15 577.91 574.98 Z" fill="#070507" fill-rule="nonzero" node-id="63" stroke="none" target-height="10.60498" target-width="10.659973" target-x="574.966" target-y="574.903"></path><path d="M 698.93 576.16 C 705.27 575.77 711.05 576.75 716.34 580.51 C 722.53 584.91 726.35 591.83 727.57 599.23 C 728.85 606.92 727.72 615.60 722.95 621.97 C 718.49 627.93 712.72 630.28 705.62 631.36 C 699.47 632.01 693.55 630.96 688.36 627.47 C 682.59 623.60 678.42 617.64 677.19 610.78 C 675.68 602.43 677.71 593.13 682.61 586.21 C 686.65 580.51 692.07 577.26 698.93 576.16 Z M 706.25 628.02 C 712.48 626.75 717.33 624.49 721.01 619.04 C 724.91 613.24 725.90 606.27 724.55 599.50 C 723.21 592.79 719.38 586.15 713.55 582.42 C 709.34 579.73 704.28 578.74 699.33 579.14 C 692.91 580.54 687.92 584.17 684.39 589.73 C 680.62 595.66 678.56 603.62 680.10 610.55 C 681.40 616.40 685.18 621.37 690.25 624.50 C 695.24 627.59 700.50 628.34 706.25 628.02 Z" fill="#070507" fill-rule="nonzero" node-id="65" stroke="none" target-height="56.234985" target-width="53.164" target-x="675.683" target-y="575.775"></path><path d="M 692.30 605.16 C 694.46 605.53 696.53 608.02 698.46 609.16 C 704.04 612.47 707.29 608.02 712.44 606.74 C 713.36 607.59 713.27 607.59 713.38 608.85 L 713.06 609.20 C 710.30 612.24 707.44 613.24 703.32 613.36 C 700.03 613.46 696.32 612.80 693.96 610.30 C 692.41 608.66 692.16 607.37 692.30 605.16 Z" fill="#070507" fill-rule="nonzero" node-id="67" stroke="none" target-height="8.2960205" target-width="21.210938" target-x="692.16406" target-y="605.16"></path><path d="M 712.68 590.18 C 712.74 590.21 712.79 590.23 712.84 590.26 C 713.61 590.58 714.76 590.90 715.39 591.42 C 716.45 592.29 716.46 592.89 716.58 594.14 C 715.99 595.68 715.19 596.39 713.99 597.45 C 713.58 597.38 712.77 597.04 712.45 596.83 C 711.43 596.17 710.85 595.42 710.74 594.19 C 710.60 592.50 711.68 591.37 712.68 590.18 Z" fill="#070507" fill-rule="nonzero" node-id="69" stroke="none" target-height="7.265991" target-width="5.9890137" target-x="710.595" target-y="590.18"></path><path d="M 691.69 589.68 C 691.98 589.75 692.27 589.82 692.56 589.89 C 693.87 590.25 694.88 591.02 695.41 592.31 C 696.14 594.07 695.51 595.54 694.71 597.09 C 693.62 597.04 692.82 596.77 691.80 596.40 C 690.87 595.50 690.36 594.91 690.25 593.57 C 690.13 592.03 690.79 590.85 691.69 589.68 Z" fill="#070507" fill-rule="nonzero" node-id="71" stroke="none" target-height="7.4069824" target-width="6.0150146" target-x="690.126" target-y="589.681"></path><path d="M 465.75 621.35 C 465.82 621.27 465.90 621.20 465.98 621.13 C 466.07 621.07 466.15 621.01 466.24 620.95 C 466.33 620.90 466.43 620.85 466.52 620.81 C 466.62 620.76 466.72 620.73 466.82 620.70 C 466.93 620.67 467.03 620.65 467.13 620.63 C 467.24 620.62 467.35 620.61 467.45 620.61 C 467.56 620.61 467.66 620.61 467.77 620.62 C 467.88 620.64 467.98 620.66 468.08 620.68 C 468.18 620.71 468.29 620.74 468.38 620.78 C 468.48 620.82 468.58 620.87 468.67 620.92 C 468.76 620.98 468.85 621.04 468.93 621.10 C 469.02 621.17 469.10 621.24 469.17 621.31 C 469.25 621.39 469.32 621.47 469.38 621.55 C 469.45 621.63 469.50 621.72 469.56 621.82 C 469.61 621.91 469.65 622.00 469.69 622.10 C 469.73 622.20 469.77 622.30 469.79 622.40 C 469.82 622.51 469.84 622.61 469.85 622.72 C 469.86 622.82 469.87 622.93 469.87 623.03 C 469.86 623.14 469.86 623.25 469.84 623.35 C 469.82 623.46 469.80 623.56 469.77 623.66 C 469.74 623.76 469.71 623.86 469.66 623.96 C 469.62 624.06 469.57 624.15 469.52 624.24 C 469.46 624.33 469.40 624.42 469.33 624.50 C 469.27 624.58 469.19 624.66 469.12 624.73 C 469.06 624.79 469.00 624.84 468.94 624.88 C 468.88 624.93 468.82 624.97 468.75 625.01 C 468.69 625.05 468.62 625.09 468.55 625.13 C 468.48 625.16 468.41 625.19 468.34 625.22 C 468.27 625.25 468.20 625.27 468.12 625.29 C 468.05 625.31 467.97 625.33 467.90 625.34 C 467.82 625.36 467.75 625.37 467.67 625.37 C 467.59 625.38 467.52 625.38 467.44 625.38 C 467.36 625.38 467.29 625.37 467.21 625.37 C 467.14 625.36 467.06 625.34 466.99 625.33 C 466.91 625.31 466.84 625.29 466.76 625.27 C 466.69 625.25 466.62 625.22 466.55 625.19 C 466.48 625.16 466.41 625.13 466.34 625.09 C 466.27 625.05 466.21 625.01 466.14 624.97 C 466.08 624.93 466.02 624.88 465.96 624.83 C 465.90 624.78 465.84 624.73 465.79 624.68 C 465.73 624.62 465.68 624.57 465.63 624.51 C 465.59 624.45 465.54 624.39 465.50 624.32 C 465.46 624.26 465.42 624.19 465.38 624.13 C 465.34 624.06 465.31 623.99 465.28 623.92 C 465.25 623.85 465.22 623.78 465.20 623.70 C 465.18 623.63 465.16 623.55 465.14 623.48 C 465.13 623.40 465.12 623.33 465.11 623.25 C 465.10 623.18 465.09 623.10 465.09 623.02 C 465.09 622.95 465.10 622.87 465.10 622.79 C 465.11 622.72 465.12 622.64 465.13 622.57 C 465.15 622.49 465.16 622.41 465.19 622.34 C 465.21 622.27 465.23 622.19 465.26 622.12 C 465.29 622.05 465.32 621.98 465.35 621.91 C 465.39 621.84 465.43 621.78 465.47 621.71 C 465.51 621.65 465.55 621.59 465.60 621.52 C 465.65 621.47 465.70 621.41 465.75 621.35 Z" fill="#070507" fill-rule="nonzero" node-id="73" stroke="none" target-height="4.7766724" target-width="4.7756653" target-x="465.09265" target-y="620.60565"></path><path d="M 456.65 621.32 C 456.70 621.27 456.75 621.22 456.81 621.17 C 456.86 621.13 456.92 621.09 456.97 621.05 C 457.03 621.01 457.09 620.97 457.15 620.93 C 457.21 620.90 457.27 620.87 457.34 620.84 C 457.40 620.81 457.47 620.78 457.53 620.76 C 457.60 620.74 457.67 620.72 457.74 620.70 C 457.80 620.69 457.87 620.67 457.94 620.66 C 458.01 620.65 458.08 620.65 458.15 620.64 C 458.22 620.64 458.29 620.64 458.36 620.64 C 458.43 620.65 458.50 620.65 458.57 620.66 C 458.64 620.67 458.71 620.69 458.78 620.70 C 458.85 620.72 458.91 620.74 458.98 620.76 C 459.05 620.78 459.11 620.81 459.17 620.84 C 459.24 620.87 459.30 620.90 459.36 620.93 C 459.42 620.97 459.48 621.00 459.54 621.04 C 459.60 621.09 459.65 621.13 459.71 621.17 C 459.76 621.22 459.81 621.27 459.86 621.32 C 459.91 621.37 459.95 621.42 460.00 621.47 C 460.04 621.53 460.08 621.59 460.12 621.64 C 460.16 621.70 460.20 621.76 460.23 621.82 C 460.26 621.89 460.29 621.95 460.32 622.01 C 460.35 622.08 460.37 622.14 460.39 622.21 C 460.41 622.28 460.43 622.35 460.45 622.41 C 460.46 622.48 460.47 622.55 460.48 622.62 C 460.49 622.69 460.49 622.76 460.49 622.83 C 460.50 622.90 460.49 622.97 460.49 623.04 C 460.48 623.11 460.47 623.18 460.46 623.25 C 460.45 623.32 460.44 623.39 460.42 623.46 C 460.40 623.52 460.38 623.59 460.35 623.66 C 460.33 623.72 460.30 623.79 460.27 623.85 C 460.24 623.91 460.21 623.98 460.17 624.03 C 460.13 624.09 460.10 624.15 460.05 624.21 C 459.99 624.29 459.93 624.37 459.86 624.44 C 459.78 624.51 459.71 624.58 459.63 624.64 C 459.55 624.71 459.46 624.76 459.38 624.81 C 459.29 624.86 459.20 624.91 459.10 624.95 C 459.01 624.99 458.91 625.02 458.81 625.04 C 458.71 625.07 458.61 625.09 458.51 625.10 C 458.41 625.11 458.31 625.12 458.21 625.11 C 458.11 625.11 458.00 625.10 457.90 625.09 C 457.80 625.07 457.70 625.05 457.61 625.02 C 457.51 624.99 457.41 624.95 457.32 624.91 C 457.23 624.87 457.14 624.82 457.05 624.76 C 456.97 624.71 456.89 624.65 456.81 624.58 C 456.73 624.51 456.66 624.44 456.59 624.37 C 456.52 624.29 456.46 624.21 456.40 624.13 C 456.35 624.04 456.30 623.95 456.25 623.86 C 456.21 623.77 456.17 623.68 456.13 623.58 C 456.10 623.48 456.08 623.39 456.06 623.29 C 456.04 623.19 456.03 623.08 456.02 622.98 C 456.02 622.88 456.02 622.78 456.03 622.68 C 456.04 622.58 456.06 622.48 456.08 622.38 C 456.10 622.28 456.13 622.18 456.17 622.09 C 456.20 621.99 456.24 621.90 456.29 621.81 C 456.34 621.72 456.40 621.63 456.46 621.55 C 456.52 621.47 456.58 621.39 456.65 621.32 Z" fill="#070507" fill-rule="nonzero" node-id="75" stroke="none" target-height="4.475342" target-width="4.476013" target-x="456.01932" target-y="620.63965"></path><path d="M 474.47 621.38 C 474.68 621.38 474.88 621.36 475.09 621.36 C 476.65 621.37 477.61 621.50 478.74 622.62 C 478.87 624.09 478.73 624.22 477.99 625.53 C 476.82 625.37 476.06 624.98 475.02 624.42 C 474.27 623.08 474.32 622.92 474.47 621.38 Z" fill="#070507" fill-rule="nonzero" node-id="77" stroke="none" target-height="4.1660156" target-width="4.595001" target-x="474.275" target-y="621.362"></path><path d="M 397.43 528.28 C 399.28 528.06 402.03 527.60 403.77 528.32 C 404.80 528.74 405.54 530.11 405.96 531.13 C 407.91 535.85 406.78 542.74 404.92 547.41 C 402.63 553.14 398.20 557.94 392.39 560.16 C 386.05 562.59 379.21 561.84 373.12 559.14 C 368.45 556.30 364.13 552.45 362.25 547.15 C 361.17 544.09 359.80 535.69 361.77 532.97 C 364.08 529.79 392.12 528.67 397.43 528.28 Z M 363.79 534.05 C 365.59 538.21 367.09 541.01 371.51 542.81 C 378.40 544.72 390.91 543.29 397.24 539.83 C 401.31 537.60 402.46 535.33 403.85 531.09 L 397.36 531.28 C 386.24 532.56 374.82 532.38 363.79 534.05 Z" fill="#070507" fill-rule="nonzero" node-id="79" stroke="none" target-height="34.984985" target-width="48.110962" target-x="359.79904" target-y="527.604"></path><path d="M 371.30 444.68 C 376.81 444.10 383.45 444.55 387.84 448.29 C 389.53 449.72 390.49 451.19 390.65 453.43 C 390.12 454.75 389.99 455.19 388.75 455.99 C 385.95 457.80 381.97 456.81 378.93 456.29 L 378.45 456.27 C 378.19 456.25 377.92 456.25 377.65 456.23 C 372.75 455.99 366.42 457.91 361.88 456.44 C 360.36 455.95 359.81 455.16 359.11 453.79 C 359.07 452.03 359.38 450.87 360.47 449.49 C 363.32 445.85 367.01 445.28 371.30 444.68 Z" fill="#070507" fill-rule="nonzero" node-id="81" stroke="none" target-height="13.809998" target-width="31.578949" target-x="359.07004" target-y="444.101"></path><path d="M 369.80 474.96 C 370.86 475.05 371.90 475.22 372.90 475.60 C 374.83 476.33 376.08 478.24 376.87 480.07 C 378.54 483.95 378.52 489.23 376.92 493.13 C 375.84 495.75 374.54 496.62 371.98 497.68 C 371.84 497.67 371.69 497.67 371.55 497.66 C 371.31 497.64 371.08 497.62 370.84 497.60 C 369.66 497.50 368.63 497.41 367.60 496.77 C 364.98 495.13 363.51 491.88 362.97 488.94 C 362.30 485.30 362.51 480.78 364.77 477.68 C 366.16 475.78 367.56 475.35 369.80 474.96 Z" fill="#070507" fill-rule="nonzero" node-id="83" stroke="none" target-height="22.723022" target-width="16.23996" target-x="362.30002" target-y="474.95798"></path><path d="M 484.07 718.58 C 499.30 719.25 514.67 719.04 529.92 719.10 L 575.60 719.55 L 670.69 720.51 C 672.72 723.46 674.38 726.79 675.80 730.07 C 676.30 731.22 676.87 732.33 676.37 733.51 C 674.50 732.95 672.62 732.46 670.71 732.03 C 650.21 731.98 478.33 730.48 475.38 728.85 C 474.81 728.54 474.88 727.87 474.76 727.29 C 476.00 723.58 480.75 720.40 484.07 718.58 Z" fill="#070507" fill-rule="nonzero" node-id="85" stroke="none" target-height="14.930054" target-width="202.10703" target-x="474.76096" target-y="718.581"></path><path d="M 495.23 267.23 C 498.46 267.11 501.80 266.96 505.00 267.46 C 509.26 268.13 513.66 270.06 516.25 273.63 C 517.90 275.89 519.00 278.47 519.74 281.16 C 521.63 288.06 523.68 312.61 522.50 319.50 C 521.39 326.05 518.21 330.45 512.02 333.01 C 506.70 335.20 499.98 334.88 494.29 335.18 L 462.08 337.11 C 455.05 337.55 447.32 337.27 440.54 339.12 C 436.98 340.10 434.48 341.80 431.55 343.94 C 429.22 345.59 426.71 347.62 424.13 348.83 C 422.86 349.42 422.17 349.58 420.86 349.14 C 419.51 346.19 422.30 339.74 423.27 336.59 C 416.55 330.18 414.16 324.20 413.20 315.18 C 412.78 311.20 412.62 307.19 412.27 303.20 C 411.53 294.74 409.44 284.57 415.48 277.50 C 417.59 275.04 420.45 273.06 423.57 272.14 C 430.22 270.17 438.24 270.41 445.16 269.98 C 461.83 268.94 478.59 268.58 495.23 267.23 Z M 423.12 346.21 C 425.80 344.64 428.25 342.97 430.71 341.08 C 432.78 339.60 435.26 337.43 437.68 336.66 C 441.77 335.34 446.82 335.43 451.13 335.10 C 464.52 334.08 477.94 333.54 491.35 332.70 C 496.36 332.38 501.83 332.57 506.74 331.67 C 509.29 331.20 511.86 330.41 514.06 329.01 C 517.36 326.92 518.97 322.90 519.64 319.19 C 520.84 312.56 518.93 289.59 517.32 282.50 C 516.73 279.93 515.83 277.34 514.30 275.17 C 512.08 272.04 508.09 270.36 504.41 269.80 C 501.17 269.31 497.81 269.58 494.55 269.74 L 493.76 269.84 C 487.49 270.68 481.08 270.67 474.75 271.03 L 440.95 273.22 C 435.51 273.59 429.52 273.17 424.29 274.79 C 421.49 275.66 418.80 277.93 417.06 280.24 C 411.77 287.30 414.86 309.30 416.37 317.88 C 416.82 320.43 417.26 323.67 418.41 326.00 C 419.98 329.17 426.05 333.75 426.00 336.95 C 425.95 339.63 424.00 343.58 423.12 346.21 Z" fill="#070507" fill-rule="nonzero" node-id="87" stroke="none" target-height="82.61798" target-width="114.24304" target-x="409.438" target-y="266.963"></path><path d="M 466.84 278.33 C 467.39 278.49 467.70 278.55 468.22 278.82 C 470.65 280.05 470.49 282.39 471.36 284.61 C 471.86 285.88 472.66 286.15 473.83 286.69 C 475.92 286.59 477.17 285.36 478.97 284.51 C 480.03 284.01 481.17 283.88 482.25 284.42 C 483.46 285.04 484.02 286.16 484.57 287.31 C 484.77 290.31 482.59 291.17 481.59 293.61 C 481.08 294.84 481.44 295.46 481.85 296.62 C 483.57 298.21 485.55 298.01 487.58 298.86 C 488.69 299.32 489.46 300.11 489.77 301.29 C 491.79 308.82 481.76 305.94 479.14 309.93 C 479.60 312.85 483.04 313.55 483.80 316.35 C 482.23 318.00 480.54 319.34 478.63 320.58 C 476.29 322.10 473.28 323.67 470.41 323.05 C 468.99 322.06 468.79 320.63 468.34 319.05 C 460.87 318.43 462.58 323.74 457.51 324.02 C 456.16 324.09 455.48 323.63 454.49 322.81 C 453.77 320.60 454.66 318.31 454.76 316.01 C 453.64 315.06 452.46 315.33 451.01 315.29 C 450.12 315.26 448.94 315.35 448.08 315.12 C 446.71 314.73 446.64 314.42 446.11 313.24 C 446.28 310.24 448.44 307.62 450.11 305.25 C 448.64 304.61 446.48 303.92 445.30 302.81 C 444.32 301.90 444.22 301.29 444.05 300.06 C 445.22 297.16 448.29 296.33 450.94 295.17 C 450.26 292.89 448.81 289.58 449.24 287.21 C 449.49 285.82 449.87 285.51 450.88 284.65 C 454.41 283.85 457.25 285.77 460.31 287.31 C 462.12 283.61 463.42 280.84 466.84 278.33 Z M 454.31 296.54 C 452.12 297.17 447.93 297.97 446.62 299.82 L 446.89 300.34 C 448.76 300.50 450.55 300.37 452.42 300.24 L 452.54 300.56 C 451.32 301.09 449.09 300.58 448.42 301.45 C 449.08 301.87 449.58 302.07 450.32 302.36 C 451.46 302.82 451.85 303.31 452.66 304.19 C 452.98 305.52 453.03 305.63 452.29 306.86 C 451.28 308.55 449.14 310.13 448.84 312.06 C 451.62 313.94 454.79 310.99 457.39 314.53 C 457.77 316.97 455.99 319.06 456.43 321.57 L 457.18 321.89 C 460.19 320.63 460.49 316.73 464.13 316.26 C 466.49 316.26 468.85 316.22 471.21 316.14 C 471.84 317.66 471.28 319.30 472.51 320.36 C 475.38 319.22 478.14 317.84 480.92 316.50 C 479.15 314.88 477.01 313.43 476.92 310.82 C 476.87 309.27 477.56 308.08 478.74 307.12 C 480.01 306.09 486.92 303.55 487.11 302.56 C 482.30 298.34 483.04 304.46 478.63 295.81 C 479.18 294.15 482.07 288.41 481.52 287.07 C 477.90 287.56 473.67 290.88 470.18 288.39 C 467.68 286.62 469.21 282.85 466.57 280.71 C 465.44 283.22 464.42 286.58 462.38 288.41 C 458.83 289.65 455.08 286.85 452.07 287.95 C 451.71 289.64 453.68 294.56 454.31 296.54 Z" fill="#070507" fill-rule="nonzero" node-id="89" stroke="none" target-height="45.75699" target-width="47.737976" target-x="444.053" target-y="278.333"></path><path d="M 464.55 292.19 C 468.85 292.49 471.07 293.44 474.16 296.50 L 475.65 301.61 C 475.15 303.42 474.61 305.12 473.62 306.74 C 471.61 310.07 468.85 310.91 465.29 311.74 L 465.25 312.00 C 463.58 311.01 461.56 311.06 459.81 309.94 C 457.57 308.52 456.21 306.14 455.79 303.56 C 455.31 300.71 455.97 297.69 457.75 295.39 C 459.56 293.08 461.75 292.47 464.55 292.19 Z M 466.20 309.43 C 469.22 307.77 471.27 306.35 472.17 302.87 C 472.64 301.02 472.57 299.03 471.43 297.43 C 470.27 295.78 468.19 294.81 466.23 294.60 C 465.59 294.53 464.94 294.51 464.29 294.50 C 461.75 295.66 459.87 296.51 458.77 299.21 C 457.97 301.19 457.89 303.53 458.88 305.46 C 459.69 307.06 461.45 308.65 463.24 309.06 C 464.20 309.29 465.22 309.35 466.20 309.43 Z" fill="#070507" fill-rule="nonzero" node-id="91" stroke="none" target-height="19.820007" target-width="20.339996" target-x="455.31" target-y="292.185"></path><path d="M 614.82 262.22 C 620.98 262.13 626.92 262.96 632.07 266.66 C 637.96 270.90 640.80 277.08 641.93 284.05 C 644.10 283.50 646.34 283.02 648.57 282.91 C 651.22 282.77 654.10 283.66 656.06 285.48 C 658.32 287.58 659.39 290.57 659.43 293.61 C 659.43 294.09 659.41 294.56 659.37 295.03 C 659.32 295.51 659.25 295.97 659.16 296.44 C 659.07 296.91 658.96 297.37 658.82 297.82 C 658.68 298.28 658.52 298.72 658.34 299.16 C 658.15 299.60 657.95 300.03 657.72 300.45 C 657.50 300.86 657.25 301.27 656.99 301.66 C 656.72 302.06 656.43 302.44 656.13 302.80 C 655.83 303.17 655.51 303.52 655.17 303.85 C 647.98 310.96 634.48 308.67 625.12 308.54 C 614.99 308.48 600.48 309.67 590.89 308.41 C 586.88 307.88 583.66 306.29 581.20 302.99 C 578.61 299.51 577.50 294.83 578.25 290.55 C 578.71 287.92 579.93 285.44 582.18 283.90 C 585.53 281.61 589.01 282.43 592.72 283.10 C 593.54 278.38 595.13 273.90 598.21 270.17 C 602.55 264.90 608.27 262.99 614.82 262.22 Z M 588.26 305.35 C 596.42 307.22 615.02 305.81 624.41 305.89 C 632.75 305.98 646.45 307.89 652.86 301.85 C 655.39 299.47 656.46 295.96 656.38 292.55 C 656.33 290.22 655.40 288.09 653.59 286.57 C 652.27 285.46 650.65 285.14 648.97 285.38 C 645.84 285.81 643.02 288.08 640.02 286.38 C 638.50 284.04 638.17 280.97 637.34 278.33 C 635.06 271.07 628.73 266.44 621.47 265.01 C 618.67 264.45 616.13 264.44 613.30 264.60 C 607.45 266.45 601.37 269.26 598.51 275.07 C 596.92 278.28 597.15 283.95 593.98 285.84 C 590.57 286.00 585.83 283.65 583.11 286.43 C 581.29 288.29 580.72 290.96 580.90 293.50 C 581.22 297.70 583.23 301.33 586.47 303.96 C 587.06 304.44 587.66 304.90 588.26 305.35 Z" fill="#070507" fill-rule="nonzero" node-id="93" stroke="none" target-height="48.830994" target-width="81.93164" target-x="577.502" target-y="262.133"></path></svg>