<?xml version="1.0" standalone="no"?><!DOCTYPE svg PUBLIC "-//W3C//DTD SVG 1.1//EN" "http://www.w3.org/Graphics/SVG/1.1/DTD/svg11.dtd"><svg height="1024" node-id="1" sillyvg="true" template-height="1024" template-width="1024" version="1.1" viewBox="0 0 1024 1024" width="1024" xmlns="http://www.w3.org/2000/svg" xmlns:xlink="http://www.w3.org/1999/xlink"><defs node-id="23"></defs><path d="M 507.31 148.21 C 522.13 147.19 534.06 151.59 545.58 160.78 C 547.63 162.41 549.51 165.64 551.68 166.78 C 559.67 170.97 568.52 173.73 576.65 177.71 C 595.40 186.86 611.67 199.92 627.32 213.53 L 646.06 212.98 C 647.56 209.43 649.21 206.02 651.01 202.61 C 659.94 205.72 673.51 213.00 682.03 214.37 C 691.03 215.82 702.02 215.12 711.21 215.28 C 730.78 215.51 750.34 215.87 769.90 216.35 C 779.02 216.52 789.37 215.84 798.26 217.98 C 802.46 218.99 805.97 220.90 809.19 223.77 C 823.07 236.15 818.54 253.40 819.23 269.69 C 831.53 274.64 843.88 279.45 856.27 284.13 C 862.84 286.66 869.80 288.88 876.01 292.20 C 873.55 304.23 865.53 323.32 861.10 335.62 L 829.18 423.67 C 825.79 433.04 818.45 449.84 816.89 459.04 C 816.03 464.11 816.43 469.58 816.44 474.70 C 816.44 484.11 816.51 493.52 816.22 502.94 C 830.74 512.53 847.45 519.85 861.19 530.59 C 851.74 549.54 839.34 569.21 828.74 587.75 C 825.37 593.64 819.56 601.34 817.98 607.72 C 816.31 614.41 817.53 633.82 817.52 641.79 L 817.41 743.49 L 817.51 774.49 C 817.54 782.00 817.97 789.81 816.80 797.25 C 815.47 805.67 812.62 813.18 807.20 819.85 C 784.92 847.25 745.79 834.91 715.52 838.44 C 715.31 838.47 715.09 838.50 714.88 838.52 C 707.55 851.35 700.51 864.80 692.53 877.21 C 685.78 874.31 679.37 869.83 673.09 866.00 C 663.58 860.27 654.11 854.48 644.68 848.63 C 639.64 845.46 632.84 839.83 627.16 838.50 C 620.78 837.02 609.58 838.01 602.78 838.02 L 555.25 838.00 L 355.16 838.02 C 319.90 838.01 284.56 838.46 249.32 837.14 C 241.23 836.84 233.07 836.81 225.00 836.22 C 216.19 835.57 206.56 835.00 198.48 831.12 C 188.67 826.41 183.32 816.66 180.26 806.64 C 172.50 781.24 174.98 746.97 175.01 720.29 L 174.96 641.40 C 174.93 631.64 176.06 616.95 174.84 607.83 C 173.66 599.15 168.99 589.47 165.95 581.20 C 159.92 565.09 153.99 548.94 148.15 532.76 C 157.37 529.15 166.64 525.65 175.95 522.28 C 175.43 515.92 175.88 509.38 175.99 503.00 C 176.14 492.09 176.39 481.18 176.72 470.27 C 177.41 446.17 177.59 421.94 177.89 397.82 C 178.25 359.55 178.86 321.29 179.74 283.02 C 180.09 269.68 178.83 255.60 180.69 242.41 C 179.57 240.45 178.37 238.55 177.23 236.60 C 176.34 235.08 175.28 233.41 175.75 231.59 C 177.81 229.33 180.91 228.71 183.16 226.75 C 186.73 223.66 188.69 219.09 192.83 216.48 C 197.87 213.30 204.43 213.79 209.80 211.15 C 224.31 204.01 238.72 194.48 252.83 186.41 C 258.04 183.43 263.25 180.20 268.75 177.81 C 272.59 180.90 275.56 184.75 278.68 188.53 C 279.03 188.06 279.38 187.60 279.74 187.13 C 286.52 178.31 297.80 171.78 308.82 170.37 C 320.71 168.84 332.55 172.43 341.93 179.81 C 352.45 188.07 356.70 198.53 358.22 211.50 C 371.09 212.07 383.93 211.57 396.81 211.47 C 411.80 196.35 431.55 183.96 450.68 174.82 C 456.50 172.04 462.78 170.06 468.51 167.17 C 470.83 166.01 472.67 162.75 474.69 161.01 C 483.92 153.03 495.29 149.19 507.31 148.21 Z M 322.22 255.41 C 328.79 264.97 336.32 274.74 341.61 285.04 C 316.17 294.89 291.25 305.83 266.23 316.67 C 256.39 320.93 239.88 329.40 229.99 331.71 L 203.29 283.45 C 198.54 274.97 193.15 266.46 188.96 257.70 C 188.86 318.80 188.04 379.88 186.51 440.95 L 185.74 494.19 C 185.58 502.36 186.00 511.02 185.00 519.13 C 205.12 511.10 225.63 503.86 245.96 496.38 C 255.15 492.99 266.30 487.96 275.46 485.37 C 294.57 541.14 313.98 596.81 333.68 652.38 L 359.50 725.33 C 364.70 740.03 370.36 754.74 374.93 769.64 C 366.14 775.16 343.54 782.17 332.64 786.26 C 306.30 796.14 280.01 807.20 253.16 815.60 C 249.28 808.56 246.58 800.61 243.79 793.08 L 232.93 763.46 L 202.96 682.76 C 196.76 665.91 191.20 648.40 184.01 631.98 C 184.84 644.64 184.15 657.55 184.10 670.25 L 184.04 741.45 C 184.08 756.49 183.74 772.05 185.82 786.96 C 187.21 796.96 189.57 811.55 197.45 818.80 C 202.22 823.19 209.14 824.65 215.37 825.41 C 226.80 826.80 238.46 826.37 249.95 826.75 C 278.86 827.68 307.77 828.06 336.69 827.91 L 564.38 827.05 C 569.57 827.04 609.68 826.81 611.30 827.36 C 611.39 827.39 611.34 827.53 611.35 827.62 L 611.69 827.19 C 607.30 823.05 596.32 816.42 590.73 813.82 C 600.39 788.02 611.61 762.62 622.17 737.17 C 625.42 729.33 632.02 709.91 636.49 703.98 C 636.97 703.86 637.48 703.68 637.98 703.64 C 641.08 701.32 653.89 675.96 657.22 670.49 C 670.54 647.78 682.89 624.34 695.47 601.20 L 734.55 529.93 L 753.82 494.52 C 757.40 487.93 760.79 479.93 765.61 474.20 C 771.96 478.17 778.74 481.54 785.31 485.14 C 792.09 488.86 798.74 492.82 805.47 496.64 L 805.51 483.47 C 796.10 479.97 787.04 475.63 777.77 471.80 L 730.98 452.93 C 720.33 448.61 709.73 443.96 698.96 439.97 C 686.83 455.32 675.13 470.97 662.20 485.67 C 652.69 496.48 642.09 506.41 632.73 517.29 C 631.06 533.54 626.01 545.25 613.15 555.75 C 606.72 561.00 600.03 564.20 592.02 566.23 C 593.49 572.36 595.66 578.27 597.57 584.28 C 601.21 595.79 604.95 607.61 607.60 619.40 C 571.03 620.24 534.35 619.07 497.77 619.09 L 444.35 619.14 C 436.64 619.14 428.53 619.74 420.86 619.28 C 421.59 611.45 423.79 603.54 425.51 595.86 C 427.87 585.27 430.10 574.63 432.65 564.10 C 418.71 558.06 411.69 551.53 406.11 537.43 C 403.24 530.16 400.63 522.67 397.21 515.64 C 388.08 513.64 381.00 510.57 373.77 504.55 C 359.48 492.67 347.82 473.09 337.05 457.96 C 325.63 441.91 313.88 426.07 303.26 409.47 C 294.66 396.02 292.29 383.39 295.73 367.75 C 296.41 364.64 297.28 361.58 298.32 358.58 C 299.37 355.57 300.59 352.64 301.98 349.77 C 309.26 335.11 319.18 321.14 327.88 307.25 C 337.89 291.27 347.84 275.39 358.31 259.69 C 367.24 246.31 376.06 233.25 387.19 221.55 C 377.39 221.55 367.57 221.44 357.76 221.57 C 352.90 235.03 344.72 245.85 331.56 252.10 C 328.57 253.53 325.39 254.48 322.22 255.41 Z M 317.24 683.06 C 305.71 686.86 294.35 691.21 282.88 695.22 C 267.04 700.75 251.08 706.00 235.37 711.92 C 230.39 714.02 225.17 715.93 220.41 718.47 C 224.14 727.91 227.35 737.64 230.93 747.15 L 254.94 811.06 C 259.78 809.63 264.52 807.48 269.26 805.74 C 281.39 801.34 293.48 796.81 305.51 792.17 C 327.13 784.07 349.32 776.83 370.42 767.46 C 359.38 737.53 349.14 707.28 338.44 677.22 C 331.46 679.46 324.20 680.76 317.24 683.06 Z M 180.05 233.56 C 184.43 242.39 189.76 250.84 194.66 259.40 C 206.88 280.77 219.75 302.48 230.57 324.59 C 236.47 322.09 241.76 318.11 247.43 315.12 C 270.27 303.05 292.80 290.11 316.01 278.78 C 309.86 267.88 304.51 256.59 298.68 245.53 L 273.96 199.08 C 271.62 194.62 269.63 187.32 266.37 183.72 C 257.08 187.50 246.98 194.62 238.09 199.71 C 218.65 210.83 199.00 221.62 180.05 233.56 Z M 733.60 743.59 C 731.10 749.44 729.35 755.87 727.41 761.94 C 735.28 766.30 743.70 770.37 751.12 775.47 C 748.76 781.36 744.74 787.15 741.56 792.64 C 735.05 804.01 728.41 815.31 721.65 826.53 C 735.67 826.63 758.55 827.82 771.75 825.86 C 782.87 824.21 793.48 817.79 800.18 808.76 C 803.51 804.27 806.14 798.46 807.01 792.92 C 807.58 789.33 807.45 785.46 807.60 781.82 C 808.07 770.21 807.94 758.58 807.95 746.96 C 808.20 717.48 808.07 688.00 807.58 658.52 C 807.43 648.32 808.86 635.05 807.44 625.36 C 802.37 632.41 798.55 642.04 794.29 649.77 C 781.09 673.75 768.54 698.25 754.87 721.96 C 754.20 723.12 752.58 726.38 751.23 726.58 C 748.46 727.00 744.03 723.38 741.63 721.89 C 738.84 729.08 736.49 736.44 733.60 743.59 Z M 281.10 192.03 C 285.27 198.48 289.34 204.98 293.32 211.55 C 302.19 212.10 311.02 211.84 319.89 211.59 L 354.33 211.40 C 352.22 199.02 347.85 188.61 337.26 181.15 C 330.87 176.64 322.73 173.92 314.91 173.69 C 302.58 174.78 291.63 178.96 283.56 188.76 C 282.68 189.81 281.87 190.90 281.10 192.03 Z M 334.90 282.77 C 330.79 275.96 326.75 269.05 322.32 262.44 C 314.40 250.65 305.80 239.28 298.02 227.41 C 293.32 220.23 277.47 190.89 272.77 187.33 C 284.92 212.01 298.49 236.01 310.89 260.59 C 314.24 267.23 318.79 273.46 321.41 280.42 L 321.50 280.66 C 314.56 284.80 307.17 288.31 299.99 292.03 C 288.99 297.73 278.04 303.51 267.13 309.38 C 261.28 312.50 254.41 315.33 249.12 319.24 L 249.41 319.24 L 249.53 318.82 L 250.22 319.00 C 252.73 317.99 255.20 316.97 257.63 315.78 C 283.27 304.50 309.03 293.50 334.90 282.77 Z M 400.87 514.78 C 404.14 521.48 406.95 528.37 409.84 535.24 C 415.98 549.82 420.98 555.75 436.52 561.07 C 440.02 562.26 447.70 564.79 451.17 563.42 C 451.81 563.16 451.60 563.08 451.85 562.25 C 450.39 558.58 444.30 554.66 441.19 552.10 C 431.65 544.38 423.47 535.18 421.87 522.49 C 421.53 519.85 421.40 517.20 423.08 514.99 C 424.19 514.27 425.05 514.14 426.34 514.38 C 432.97 515.60 447.13 528.22 453.53 526.05 C 453.34 522.77 429.10 500.37 424.81 496.58 C 423.94 495.80 423.15 495.16 422.10 494.62 C 417.78 505.05 411.01 510.33 400.87 514.78 Z M 445.17 510.52 C 449.85 514.62 457.00 519.97 457.63 526.60 C 457.76 527.99 457.53 528.77 456.63 529.82 C 454.09 531.16 450.91 530.75 448.22 529.98 C 445.97 529.34 443.73 528.18 441.60 527.20 C 441.50 531.13 438.34 541.32 439.46 544.14 C 439.79 544.96 440.61 545.83 441.21 546.46 C 444.81 550.24 455.78 556.81 455.70 562.33 C 455.68 563.88 455.08 565.46 453.80 566.42 C 451.08 568.47 446.32 567.65 443.25 566.91 C 440.87 566.33 438.51 565.64 436.16 564.97 C 434.34 571.81 433.10 578.84 431.64 585.76 C 429.49 595.66 427.39 605.58 425.34 615.50 C 448.07 616.29 471.05 615.45 493.82 615.42 L 602.12 615.48 C 600.06 607.24 598.02 599.01 595.54 590.89 C 592.98 581.86 590.18 572.91 587.14 564.03 C 582.48 566.03 575.62 568.83 570.59 566.80 C 569.42 566.32 568.37 565.43 567.97 564.19 C 567.25 561.91 568.60 559.25 569.87 557.44 C 571.60 554.98 574.30 552.88 576.54 550.89 C 570.06 537.90 564.30 525.03 561.91 510.59 C 557.86 505.55 559.55 501.09 557.71 495.46 C 556.95 493.15 556.06 489.98 557.42 487.68 C 558.21 486.35 559.28 485.44 560.82 485.10 C 562.61 484.70 564.52 485.16 566.00 486.23 C 567.30 487.18 568.33 488.51 569.11 489.91 C 570.86 493.03 571.99 496.54 573.56 499.77 C 577.08 506.85 580.76 513.83 584.63 520.73 C 591.89 505.92 598.85 490.95 606.20 476.20 C 605.66 472.62 605.29 468.87 604.19 465.41 C 598.42 464.67 592.42 464.95 586.61 464.95 C 577.39 464.97 568.18 464.92 558.97 464.80 C 524.47 464.12 489.97 463.69 455.47 463.52 C 451.70 479.11 448.27 494.78 445.17 510.52 Z M 353.31 221.52 C 338.30 220.22 322.55 221.22 307.44 221.22 L 299.28 221.56 C 305.69 232.26 313.75 241.87 320.34 252.41 C 326.85 249.98 332.60 247.45 338.08 243.08 C 345.70 237.00 350.16 230.74 353.31 221.52 Z" fill="#000000" fill-rule="nonzero" node-id="25" stroke="none" target-height="730.022" target-width="727.859" target-x="148.15" target-y="147.185"></path><path d="M 515.84 682.01 C 526.95 687.86 537.30 696.25 547.64 703.42 C 561.37 712.77 575.22 721.95 589.19 730.93 C 584.04 739.24 578.00 746.91 572.34 754.86 C 561.61 770.12 550.69 785.26 539.59 800.25 C 539.46 800.33 539.33 800.42 539.19 800.47 C 538.14 800.85 537.65 800.57 536.68 800.10 C 530.20 796.88 523.98 791.74 518.00 787.62 L 488.82 767.53 C 482.00 762.74 475.34 757.65 468.26 753.26 C 472.98 744.37 479.57 735.77 485.18 727.37 C 495.31 712.21 505.33 696.91 515.84 682.01 Z" fill="#000000" fill-rule="nonzero" node-id="27" stroke="none" target-height="118.83801" target-width="120.929016" target-x="468.258" target-y="682.008"></path><path d="M 516.63 687.27 C 526.30 692.06 535.42 699.43 544.29 705.62 C 557.43 714.72 570.67 723.69 583.99 732.53 C 577.22 740.50 571.38 749.49 565.33 758.02 C 556.68 770.16 547.94 782.23 539.09 794.23 C 538.38 795.12 538.30 795.43 537.21 795.87 C 527.37 790.32 517.81 783.09 508.57 776.56 C 496.93 768.41 485.34 760.18 473.79 751.89 C 488.42 730.59 502.70 709.05 516.63 687.27 Z" fill="#fefefe" fill-rule="nonzero" node-id="29" stroke="none" target-height="108.596985" target-width="110.19501" target-x="473.792" target-y="687.274"></path><path d="M 429.55 311.49 C 437.33 319.94 446.60 330.20 457.92 333.58 C 464.60 345.08 472.99 353.80 484.89 359.98 C 485.75 360.43 486.62 360.85 487.51 361.25 C 488.39 361.65 489.28 362.03 490.18 362.39 C 491.08 362.75 491.99 363.08 492.91 363.39 C 493.83 363.71 494.75 364.00 495.68 364.26 C 496.62 364.53 497.55 364.78 498.50 365.00 C 499.44 365.22 500.39 365.41 501.35 365.59 C 502.30 365.76 503.26 365.91 504.22 366.04 C 505.18 366.16 506.14 366.27 507.11 366.35 C 508.08 366.42 509.04 366.48 510.01 366.51 C 510.98 366.54 511.95 366.55 512.92 366.53 C 513.89 366.51 514.86 366.47 515.83 366.41 C 516.79 366.34 517.76 366.25 518.72 366.14 C 519.68 366.03 520.64 365.89 521.60 365.73 C 522.56 365.57 523.51 365.39 524.46 365.18 C 525.40 364.98 526.34 364.75 527.28 364.49 C 528.22 364.24 529.14 363.96 530.07 363.66 C 546.07 358.51 558.07 347.30 565.58 332.48 C 576.06 328.69 583.58 322.60 590.87 314.32 C 593.77 317.11 596.69 319.83 599.18 322.99 C 594.22 332.34 590.98 342.70 586.91 352.48 C 582.19 363.85 575.27 375.83 572.74 387.86 C 573.49 390.27 574.41 392.29 575.61 394.49 C 581.63 398.02 588.78 400.24 595.27 402.79 C 608.64 408.04 621.94 413.20 635.50 417.95 C 629.42 428.28 621.49 437.29 616.32 448.20 C 614.80 451.39 609.82 466.69 608.73 467.87 L 607.99 464.63 C 607.83 463.47 607.56 462.79 606.97 461.78 C 604.96 460.59 575.07 461.23 570.74 461.19 L 482.68 459.99 C 474.69 459.91 460.25 458.33 453.10 460.14 C 450.20 462.98 443.07 500.25 441.67 506.87 C 435.75 501.48 430.07 495.81 424.34 490.22 C 422.95 484.07 421.80 477.94 419.58 472.02 C 414.31 457.98 405.71 445.42 397.68 432.87 C 392.32 424.48 387.12 415.99 381.68 407.65 C 377.44 401.13 372.37 394.88 368.86 387.94 C 382.66 371.16 396.26 354.22 409.63 337.11 C 416.35 328.60 423.27 320.33 429.55 311.49 Z" fill="#fefefe" fill-rule="nonzero" node-id="31" stroke="none" target-height="195.38501" target-width="266.646" target-x="368.859" target-y="311.486"></path><path d="M 153.21 535.27 C 178.22 525.29 203.60 516.35 228.86 507.03 C 243.40 501.67 258.05 495.15 272.94 491.01 C 275.38 499.25 278.93 507.35 281.74 515.49 C 288.20 534.60 294.80 553.66 301.53 572.68 L 324.49 638.08 C 329.07 651.13 333.35 664.38 338.44 677.22 C 331.46 679.46 324.20 680.76 317.24 683.06 C 305.71 686.86 294.35 691.21 282.88 695.22 C 267.04 700.75 251.08 706.00 235.37 711.92 C 230.39 714.02 225.17 715.93 220.41 718.47 C 218.28 711.65 215.48 704.91 213.00 698.20 L 198.19 658.07 L 153.21 535.27 Z" fill="#fefefe" fill-rule="nonzero" node-id="33" stroke="none" target-height="227.45901" target-width="185.23701" target-x="153.208" target-y="491.014"></path><path d="M 235.37 711.92 C 235.14 711.63 234.80 711.23 234.67 710.88 C 234.25 709.78 234.42 709.40 234.95 708.48 C 240.34 705.29 308.92 681.20 314.46 680.44 C 316.03 680.99 316.28 681.73 317.24 683.06 C 305.71 686.86 294.35 691.21 282.88 695.22 C 267.04 700.75 251.08 706.00 235.37 711.92 Z" fill="#000000" fill-rule="nonzero" node-id="35" stroke="none" target-height="31.485046" target-width="82.99199" target-x="234.248" target-y="680.436"></path><path d="M 281.12 585.03 C 281.34 585.02 281.55 585.00 281.77 585.01 C 283.17 585.09 283.34 585.20 284.27 586.16 L 283.99 587.02 C 278.41 591.88 217.46 611.23 206.16 615.48 L 204.24 615.50 C 203.13 614.80 203.23 614.71 202.86 613.42 C 203.40 612.44 204.22 612.09 205.21 611.64 C 213.88 607.74 223.67 605.07 232.68 601.90 C 248.79 596.24 264.87 590.27 281.12 585.03 Z" fill="#000000" fill-rule="nonzero" node-id="37" stroke="none" target-height="30.50299" target-width="81.407" target-x="202.864" target-y="584.999"></path><path d="M 463.50 173.51 C 464.19 174.75 462.78 177.25 462.26 178.66 C 459.96 184.95 458.85 190.34 459.07 197.03 C 459.67 215.02 472.01 233.16 489.31 238.97 C 492.15 239.92 498.72 240.08 500.48 241.73 L 500.53 244.99 C 500.36 245.29 500.31 245.72 500.01 245.89 C 498.19 246.88 490.18 247.81 487.12 248.85 C 473.08 253.63 462.09 264.35 455.65 277.57 C 447.68 293.96 449.58 311.98 455.28 328.67 C 448.28 324.63 441.75 319.31 436.66 313.03 C 434.74 310.67 433.10 307.46 430.66 305.65 C 429.35 305.92 428.74 306.36 427.85 307.38 C 424.93 310.71 422.35 314.47 419.61 317.95 C 413.47 325.70 407.37 333.49 401.31 341.30 C 389.06 356.86 376.63 372.29 364.04 387.58 C 377.78 410.48 392.91 432.57 406.76 455.44 C 403.37 460.30 399.67 464.66 395.48 468.84 C 394.89 469.40 394.29 469.95 393.67 470.48 C 393.05 471.02 392.43 471.53 391.79 472.04 C 391.15 472.54 390.49 473.03 389.83 473.51 C 389.17 473.98 388.50 474.44 387.81 474.89 C 387.13 475.33 386.44 475.76 385.73 476.17 C 385.03 476.59 384.32 476.98 383.60 477.36 C 382.88 477.74 382.15 478.11 381.41 478.46 C 380.68 478.80 379.93 479.13 379.18 479.45 C 378.43 479.76 377.67 480.06 376.90 480.34 C 376.14 480.62 375.37 480.88 374.59 481.13 C 373.81 481.37 373.03 481.60 372.24 481.81 C 371.45 482.02 370.66 482.21 369.87 482.38 C 369.07 482.56 368.27 482.71 367.47 482.85 C 366.66 482.99 365.86 483.11 365.05 483.21 C 364.24 483.31 363.43 483.39 362.62 483.46 C 361.80 483.52 360.99 483.57 360.18 483.60 C 355.77 476.58 350.36 469.88 345.51 463.16 C 335.86 449.91 326.40 436.53 317.13 423.02 C 311.85 415.32 305.84 407.52 302.03 398.97 C 295.75 384.84 297.96 370.27 303.40 356.25 C 306.47 348.37 311.40 341.25 315.81 334.07 C 322.74 322.80 329.80 311.60 336.98 300.49 C 376.30 239.68 394.68 203.76 463.50 173.51 Z" fill="#fefefe" fill-rule="nonzero" node-id="39" stroke="none" target-height="310.08704" target-width="204.78201" target-x="295.75" target-y="173.508"></path><path d="M 766.61 479.46 C 782.97 487.87 798.69 497.42 814.54 506.73 C 828.45 514.90 842.79 522.78 856.11 531.86 C 849.13 543.57 842.68 555.64 835.95 567.50 C 826.05 584.94 815.72 602.17 806.03 619.73 C 787.34 653.62 769.57 688.05 750.57 721.78 L 749.81 722.22 C 743.63 719.53 734.38 713.15 728.16 709.53 C 706.03 696.65 683.73 683.51 662.30 669.50 C 667.58 660.79 672.18 651.62 677.12 642.72 L 710.25 582.41 C 724.22 557.31 738.02 532.11 751.65 506.83 C 756.61 497.69 761.85 488.71 766.61 479.46 Z" fill="#fefefe" fill-rule="nonzero" node-id="41" stroke="none" target-height="242.75397" target-width="193.81097" target-x="662.299" target-y="479.463"></path><path d="M 726.71 589.20 C 733.95 591.69 744.93 598.99 752.06 603.02 C 763.07 609.25 776.69 615.91 786.77 623.07 C 787.44 624.59 787.04 625.09 786.62 626.66 C 778.26 623.51 768.42 616.61 760.39 612.05 C 750.05 606.18 735.81 599.35 726.49 592.55 C 725.98 591.17 726.34 590.59 726.71 589.20 Z" fill="#000000" fill-rule="nonzero" node-id="43" stroke="none" target-height="37.461" target-width="61.466003" target-x="725.975" target-y="589.196"></path><path d="M 555.89 172.89 C 558.35 173.82 560.79 174.79 563.21 175.82 C 565.63 176.84 568.03 177.91 570.41 179.03 C 572.78 180.15 575.14 181.32 577.47 182.54 C 579.80 183.75 582.11 185.01 584.39 186.32 C 586.67 187.63 588.92 188.98 591.15 190.38 C 593.37 191.78 595.57 193.22 597.74 194.71 C 599.90 196.19 602.04 197.72 604.15 199.29 C 606.25 200.87 608.33 202.48 610.37 204.14 C 622.02 213.41 632.75 224.63 642.84 235.56 C 654.73 248.63 666.21 262.07 677.26 275.87 C 688.31 289.67 698.92 303.80 709.09 318.26 C 716.50 328.58 725.13 339.25 730.66 350.72 C 731.20 351.84 731.68 352.98 732.12 354.14 C 732.56 355.29 732.95 356.47 733.28 357.66 C 733.62 358.85 733.91 360.06 734.14 361.27 C 734.38 362.49 734.56 363.71 734.70 364.94 C 735.63 374.09 733.69 382.48 729.77 390.73 C 723.46 404.01 713.20 414.75 704.26 426.25 C 691.76 442.32 679.46 458.42 666.66 474.27 C 662.55 473.41 658.61 472.45 654.63 471.10 C 641.48 466.01 630.27 455.90 623.34 443.65 C 636.82 423.60 650.57 403.71 663.80 383.50 C 639.68 358.33 614.83 333.79 591.07 308.29 C 581.46 317.04 580.21 320.43 568.01 327.39 C 571.86 314.53 572.14 303.53 569.17 290.47 C 575.41 285.66 580.91 279.82 584.63 272.82 C 584.99 272.15 585.34 271.46 585.66 270.77 C 585.99 270.07 586.30 269.37 586.60 268.67 C 586.89 267.96 587.16 267.24 587.42 266.52 C 587.68 265.79 587.92 265.07 588.14 264.33 C 588.36 263.60 588.56 262.86 588.74 262.11 C 588.92 261.37 589.09 260.62 589.23 259.86 C 589.38 259.11 589.50 258.35 589.61 257.59 C 589.72 256.83 589.80 256.07 589.87 255.31 C 589.94 254.54 589.99 253.78 590.02 253.01 C 590.05 252.25 590.06 251.48 590.05 250.71 C 590.04 249.95 590.01 249.18 589.97 248.41 C 589.92 247.65 589.85 246.88 589.76 246.12 C 589.68 245.36 589.57 244.60 589.45 243.84 C 589.33 243.09 589.18 242.33 589.02 241.58 C 588.86 240.83 588.68 240.09 588.48 239.35 C 588.28 238.61 588.06 237.87 587.82 237.14 C 583.30 222.94 573.40 213.93 560.54 207.19 C 563.27 195.27 560.77 183.86 555.89 172.89 Z" fill="#fefefe" fill-rule="nonzero" node-id="45" stroke="none" target-height="301.375" target-width="179.73999" target-x="555.888" target-y="172.893"></path><path d="M 638.63 708.72 C 648.32 711.62 658.09 716.46 667.48 720.28 C 688.02 728.62 708.52 737.07 728.96 745.65 C 726.60 753.89 691.57 848.38 690.41 849.79 C 690.17 850.09 689.81 850.25 689.51 850.48 L 687.84 850.00 C 657.64 836.50 627.40 823.18 596.22 812.05 C 601.83 794.79 610.21 776.87 617.17 759.94 C 624.05 743.20 630.60 724.84 638.63 708.72 Z" fill="#fefefe" fill-rule="nonzero" node-id="47" stroke="none" target-height="141.76703" target-width="132.74097" target-x="596.218" target-y="708.717"></path><path d="M 652.15 207.28 C 663.49 211.62 674.48 216.73 685.74 221.23 L 786.85 261.37 L 841.12 282.66 C 851.03 286.50 861.54 289.80 871.04 294.52 C 869.39 302.62 865.94 310.69 863.14 318.46 L 848.97 357.48 L 819.63 438.44 C 814.66 451.75 809.89 465.16 804.21 478.19 C 792.07 473.77 780.18 468.46 768.22 463.57 L 710.82 440.52 L 701.45 436.74 C 704.01 433.44 706.63 430.26 709.43 427.17 C 724.40 432.78 739.30 438.58 754.13 444.55 C 763.34 448.21 773.49 453.43 783.20 455.14 C 787.02 455.82 790.90 455.53 794.51 454.05 C 799.60 451.97 802.77 447.78 804.84 442.83 C 812.93 423.40 819.27 401.69 826.70 381.78 C 832.46 366.33 838.43 350.97 844.06 335.47 C 846.52 328.70 849.71 321.55 851.20 314.52 C 851.97 310.91 851.70 307.38 850.18 303.98 C 848.39 299.95 844.54 296.17 840.74 293.97 C 831.16 288.42 814.79 284.00 803.93 279.52 C 773.16 267.00 742.27 254.81 711.24 242.96 C 698.67 238.10 686.21 232.74 673.58 228.12 C 668.63 226.31 663.43 225.28 658.47 227.73 C 654.19 229.85 652.02 233.50 650.46 237.80 L 643.41 229.82 C 647.06 222.74 649.46 214.78 652.15 207.28 Z" fill="#fefefe" fill-rule="nonzero" node-id="49" stroke="none" target-height="270.91406" target-width="227.633" target-x="643.408" target-y="207.27599"></path><path d="M 508.28 151.69 C 510.44 151.51 512.52 151.55 514.68 151.73 C 527.47 152.75 538.80 158.13 547.04 168.02 C 556.62 179.52 558.52 191.70 557.14 206.24 C 549.07 204.24 540.83 204.03 532.75 206.16 C 520.30 209.45 511.67 217.16 505.30 228.09 C 503.78 231.11 502.76 234.45 501.62 237.64 C 493.32 236.81 486.36 234.68 479.74 229.47 C 479.16 229.01 478.60 228.55 478.05 228.06 C 477.50 227.58 476.96 227.08 476.43 226.57 C 475.90 226.07 475.39 225.54 474.89 225.01 C 474.39 224.47 473.90 223.93 473.42 223.37 C 472.95 222.81 472.49 222.24 472.04 221.65 C 471.60 221.07 471.17 220.48 470.75 219.88 C 470.34 219.27 469.93 218.66 469.55 218.03 C 469.16 217.41 468.79 216.78 468.44 216.14 C 468.09 215.50 467.75 214.84 467.43 214.19 C 467.10 213.53 466.80 212.86 466.51 212.19 C 466.22 211.51 465.95 210.83 465.69 210.14 C 465.44 209.46 465.20 208.76 464.98 208.06 C 464.76 207.36 464.56 206.66 464.37 205.95 C 464.19 205.24 464.02 204.53 463.87 203.81 C 463.72 203.09 463.59 202.37 463.48 201.65 C 463.36 200.92 463.26 200.20 463.19 199.47 C 463.11 198.80 463.06 198.14 463.02 197.47 C 462.98 196.81 462.95 196.14 462.94 195.47 C 462.94 194.80 462.95 194.14 462.97 193.47 C 463.00 192.80 463.04 192.14 463.10 191.47 C 463.16 190.81 463.24 190.14 463.33 189.48 C 463.42 188.82 463.53 188.16 463.66 187.51 C 463.78 186.85 463.92 186.20 464.08 185.55 C 464.24 184.90 464.41 184.26 464.61 183.62 C 464.80 182.98 465.00 182.35 465.22 181.72 C 465.45 181.09 465.68 180.46 465.94 179.85 C 466.19 179.23 466.46 178.62 466.74 178.01 C 467.03 177.41 467.33 176.81 467.64 176.22 C 467.95 175.63 468.28 175.05 468.62 174.48 C 468.97 173.91 469.32 173.34 469.69 172.79 C 470.07 172.24 470.45 171.69 470.85 171.15 C 471.25 170.62 471.66 170.09 472.08 169.58 C 481.60 157.88 493.61 153.28 508.28 151.69 Z" fill="#fefefe" fill-rule="nonzero" node-id="51" stroke="none" target-height="86.129" target-width="95.5813" target-x="462.9367" target-y="151.509"></path><path d="M 657.22 670.49 C 665.97 677.38 676.43 682.81 685.99 688.57 L 741.63 721.89 C 738.84 729.08 736.49 736.44 733.60 743.59 C 726.97 740.05 719.49 737.66 712.53 734.82 L 664.54 715.23 C 655.72 711.59 646.32 708.23 637.98 703.64 C 641.08 701.32 653.89 675.96 657.22 670.49 Z" fill="#fefefe" fill-rule="nonzero" node-id="53" stroke="none" target-height="73.104004" target-width="103.64905" target-x="637.976" target-y="670.486"></path><path d="M 726.20 765.63 C 733.01 769.10 739.51 773.43 746.03 777.41 C 726.83 808.48 709.42 840.72 690.98 872.25 C 671.80 860.38 652.14 849.30 633.29 836.88 C 625.62 831.93 618.07 826.83 610.31 822.02 C 631.17 828.52 651.33 838.15 671.34 846.88 C 677.03 849.37 682.81 852.51 688.59 854.63 C 689.82 855.08 690.79 855.30 692.11 855.06 C 693.18 854.03 693.66 852.96 694.24 851.59 C 696.21 846.88 697.43 841.80 699.23 837.00 L 726.20 765.63 Z" fill="#fefefe" fill-rule="nonzero" node-id="55" stroke="none" target-height="106.61902" target-width="135.71893" target-x="610.314" target-y="765.626"></path><path d="M 608.22 480.83 C 609.78 482.32 610.81 485.16 612.04 487.01 C 618.91 497.37 629.34 500.10 640.80 502.25 C 637.12 507.44 632.01 511.64 628.49 516.95 C 624.56 522.89 622.80 530.31 619.60 536.68 C 613.34 549.16 603.51 558.03 590.31 562.43 C 593.60 559.98 597.03 557.73 600.34 555.30 C 607.90 549.73 616.03 539.11 617.23 529.56 C 617.37 528.42 617.42 528.34 616.71 527.38 C 616.47 527.40 616.22 527.39 615.99 527.46 C 613.34 528.18 610.41 537.17 609.15 539.75 C 608.51 540.79 607.83 541.80 607.12 542.79 C 606.41 543.79 605.66 544.75 604.88 545.69 C 604.09 546.63 603.28 547.54 602.43 548.42 C 601.58 549.30 600.71 550.14 599.80 550.96 C 598.89 551.78 597.95 552.56 596.99 553.31 C 596.03 554.06 595.04 554.77 594.02 555.45 C 593.00 556.13 591.97 556.77 590.90 557.38 C 589.84 557.98 588.76 558.55 587.66 559.07 C 583.51 561.04 576.69 564.62 572.05 562.99 L 571.85 562.29 C 573.92 558.20 577.61 555.62 581.00 552.70 C 589.08 545.75 595.03 535.72 599.32 526.07 C 599.97 524.62 601.12 522.86 601.12 521.26 C 601.13 520.34 601.16 520.69 600.44 519.87 L 599.04 519.98 C 597.93 520.66 596.99 521.30 596.29 522.43 C 595.27 524.09 594.73 526.21 593.90 527.99 C 592.45 531.09 590.76 534.11 589.16 537.13 C 587.96 534.49 587.00 531.74 585.98 529.02 C 593.47 512.97 600.45 496.78 608.22 480.83 Z" fill="#fefefe" fill-rule="nonzero" node-id="57" stroke="none" target-height="83.780975" target-width="68.95404" target-x="571.85" target-y="480.834"></path><path d="M 708.65 225.90 C 726.42 225.62 744.43 226.52 762.21 226.90 C 771.58 227.11 785.17 226.37 794.11 228.10 C 797.16 228.69 800.15 230.20 802.53 232.19 C 811.28 239.53 808.60 255.38 809.48 265.69 C 796.84 261.03 784.40 255.81 771.82 250.98 C 750.69 242.87 729.40 234.96 708.65 225.90 Z" fill="#fefefe" fill-rule="nonzero" node-id="59" stroke="none" target-height="40.075012" target-width="102.622986" target-x="708.65393" target-y="225.616"></path><path d="M 601.95 325.92 C 605.10 328.80 608.19 331.76 611.30 334.68 C 607.89 341.42 605.13 348.74 602.16 355.71 C 598.72 363.78 593.35 373.23 597.15 382.08 C 598.47 385.15 600.70 387.61 603.43 389.50 C 610.80 394.61 634.03 402.40 643.69 406.15 C 642.12 408.51 640.07 412.41 637.76 414.02 C 636.93 414.60 636.47 414.21 635.54 414.01 C 626.28 410.48 583.40 394.98 577.67 390.69 C 576.84 388.74 577.77 385.84 578.36 383.88 C 580.73 376.08 584.55 368.41 587.73 360.89 C 592.65 349.30 597.38 337.65 601.95 325.92 Z" fill="#fefefe" fill-rule="nonzero" node-id="61" stroke="none" target-height="88.67798" target-width="66.85797" target-x="576.836" target-y="325.919"></path><path d="M 426.17 519.25 C 429.82 519.58 434.39 522.95 437.59 524.83 C 437.55 528.02 437.22 530.99 436.69 534.13 L 435.93 534.24 C 432.94 529.72 427.59 524.46 426.17 519.25 Z" fill="#fefefe" fill-rule="nonzero" node-id="63" stroke="none" target-height="14.9869995" target-width="11.414001" target-x="426.172" target-y="519.25"></path></svg>