<?xml version="1.0" standalone="no"?><!DOCTYPE svg PUBLIC "-//W3C//DTD SVG 1.1//EN" "http://www.w3.org/Graphics/SVG/1.1/DTD/svg11.dtd"><svg height="1024" node-id="1" sillyvg="true" template-height="1024" template-width="1024" version="1.1" viewBox="0 0 1024 1024" width="1024" xmlns="http://www.w3.org/2000/svg" xmlns:xlink="http://www.w3.org/1999/xlink"><defs node-id="71"></defs><path d="M 390.29 366.85 C 397.16 361.46 402.17 354.62 408.02 348.23 C 412.13 343.73 416.74 339.56 421.20 335.42 C 447.10 311.38 489.26 298.31 524.26 302.49 C 542.59 304.68 563.69 312.32 578.49 323.46 C 585.96 329.09 592.11 335.69 597.84 343.05 C 601.47 347.73 604.53 352.85 608.24 357.47 L 613.38 359.03 C 619.60 367.04 617.68 376.92 621.25 385.89 C 623.65 391.90 626.88 397.63 629.76 403.43 C 631.74 407.41 633.45 411.57 635.66 415.42 C 637.75 419.08 640.46 422.43 642.32 426.20 C 645.38 432.41 646.73 439.28 649.68 445.46 C 657.36 461.54 666.83 477.17 675.50 492.74 C 688.96 516.46 701.86 540.48 714.20 564.80 C 727.48 590.75 740.48 616.90 748.36 645.10 C 752.36 659.42 754.63 674.46 756.43 689.19 C 767.07 688.50 777.86 689.22 788.50 689.60 C 819.55 690.72 850.22 693.68 881.09 696.99 C 889.83 697.92 905.73 698.13 913.12 701.76 C 913.76 702.79 913.42 703.55 913.15 704.72 C 911.74 710.76 909.55 716.78 907.79 722.74 C 906.76 726.22 906.11 729.77 905.10 733.24 C 904.19 736.36 901.84 741.31 901.91 744.34 C 901.96 746.31 903.07 748.89 903.65 750.82 C 904.51 753.69 906.16 757.06 903.39 759.28 C 898.10 760.25 892.39 760.26 887.01 760.57 C 887.47 772.03 887.48 783.99 886.80 795.43 C 880.70 795.64 874.64 795.62 868.54 795.54 C 869.23 801.32 868.90 807.12 869.32 812.91 C 869.91 820.83 871.37 828.94 871.08 836.89 C 871.03 838.05 870.74 838.83 870.04 839.79 C 869.58 840.42 868.99 841.00 868.44 841.56 C 868.70 848.57 868.51 855.61 869.00 862.60 C 884.17 863.67 899.85 862.88 915.08 863.15 C 918.63 863.22 923.21 862.59 926.59 863.29 C 927.68 863.51 928.50 864.12 929.31 864.84 L 929.46 865.46 C 927.90 866.65 922.75 866.11 920.68 866.13 L 317.26 865.42 C 279.44 865.17 241.63 865.26 203.81 865.69 C 195.01 865.87 186.28 866.64 177.50 866.91 C 172.03 867.08 166.53 866.79 161.06 867.00 C 155.85 867.20 150.69 868.24 145.47 868.47 C 136.95 868.85 128.38 868.50 119.88 869.13 C 110.61 869.82 102.21 871.47 92.80 870.76 C 91.87 870.07 91.86 870.12 91.62 868.99 C 92.80 867.79 94.67 867.84 96.25 867.81 C 106.54 867.61 116.85 866.07 127.15 865.52 C 141.35 864.76 155.53 864.81 169.73 863.73 C 168.96 858.53 169.30 853.32 168.85 848.10 C 167.04 848.03 165.13 848.14 163.50 847.25 C 161.15 843.79 161.97 828.25 162.04 823.48 C 159.84 823.10 157.84 822.65 155.75 821.85 C 154.31 812.33 155.04 803.15 154.13 793.71 C 150.87 793.66 147.71 794.13 145.09 791.86 C 141.11 783.77 138.40 774.12 134.64 765.65 C 155.74 763.48 177.34 763.01 198.54 762.01 L 287.24 757.59 C 299.99 756.91 312.75 756.34 325.51 755.87 C 331.19 755.65 337.32 754.72 342.95 755.58 C 344.37 737.05 345.05 715.09 343.93 696.54 C 325.57 705.68 293.58 715.76 273.81 709.26 C 266.18 706.75 259.21 701.15 255.58 693.91 C 246.05 674.91 253.98 645.89 260.49 626.85 C 267.68 605.81 278.10 585.41 288.22 565.64 C 303.34 536.08 319.91 507.48 336.63 478.80 C 342.29 469.10 347.67 459.22 353.38 449.56 C 359.15 439.81 364.99 430.15 370.40 420.19 C 372.47 416.40 373.99 412.34 376.13 408.60 C 379.47 402.77 384.42 396.90 386.83 390.69 C 389.74 383.20 387.80 374.68 390.29 366.85 Z" fill="#000000" fill-rule="nonzero" node-id="73" stroke="none" target-height="573.156" target-width="837.8376" target-x="91.622505" target-y="298.313"></path><path d="M 343.93 696.54 C 349.88 692.09 359.59 688.92 366.44 684.22 C 369.97 720.24 371.98 756.40 374.98 792.46 L 379.05 842.10 C 379.53 848.58 380.54 855.30 380.58 861.77 C 371.67 861.97 362.39 862.51 353.52 861.76 C 351.83 855.23 352.61 847.33 351.04 842.06 C 349.53 836.97 343.31 828.67 343.47 823.84 C 343.73 823.77 343.98 823.71 344.24 823.64 C 345.01 823.44 345.72 823.20 346.47 822.91 C 348.26 818.86 342.96 800.40 343.15 794.09 C 343.19 792.83 344.87 793.07 345.57 792.34 C 346.99 790.86 343.99 786.12 344.60 785.07 C 345.61 783.31 347.69 784.83 347.56 781.64 C 347.26 773.77 344.53 763.48 342.95 755.58 C 344.37 737.05 345.05 715.09 343.93 696.54 Z" fill="#fefefe" fill-rule="nonzero" node-id="75" stroke="none" target-height="178.29901" target-width="37.626038" target-x="342.951" target-y="684.216"></path><path d="M 364.98 437.25 C 374.84 442.39 386.06 445.56 396.29 450.09 C 407.00 454.84 417.00 460.95 427.54 465.96 C 426.01 469.72 425.06 473.75 423.75 477.59 C 422.05 482.60 420.03 487.53 418.05 492.43 C 403.71 527.91 387.96 563.11 371.92 597.85 C 365.48 611.80 358.16 625.50 351.13 639.17 C 349.26 642.82 346.11 646.57 344.67 650.25 C 344.91 651.69 344.80 651.66 345.96 652.52 C 352.05 650.39 379.61 587.85 384.41 579.09 L 384.71 578.55 C 403.33 569.74 423.63 563.13 443.39 557.26 C 446.11 567.93 450.02 578.54 453.24 589.09 C 457.37 602.65 461.05 616.59 465.64 629.98 C 466.04 631.15 466.47 631.91 467.28 632.84 C 467.61 632.91 467.97 633.22 468.27 633.07 C 471.71 631.41 497.13 577.66 501.21 575.98 C 503.77 578.95 505.22 582.90 507.45 586.17 C 513.27 594.72 519.68 602.93 525.62 611.41 C 528.59 615.65 530.98 620.38 534.13 624.46 C 535.12 625.74 535.95 626.73 537.37 627.51 L 538.21 627.24 C 538.62 626.68 539.02 626.17 539.27 625.51 C 541.44 619.95 542.62 612.83 544.40 606.99 C 549.36 590.73 554.57 574.52 559.10 558.14 C 577.58 565.15 595.60 573.77 614.41 579.89 C 616.79 585.25 618.18 591.17 620.23 596.69 C 626.99 614.96 633.50 633.35 640.44 651.55 C 641.61 654.65 642.73 660.31 644.63 662.80 C 645.50 663.94 645.80 663.93 647.12 664.14 L 647.93 663.43 C 648.17 661.76 647.87 660.47 647.30 658.90 C 645.66 654.29 643.55 649.82 641.82 645.23 C 634.98 627.10 628.01 608.87 621.59 590.59 C 619.70 585.21 618.27 579.67 616.48 574.26 L 597.22 514.99 L 588.76 488.56 C 586.40 481.35 583.33 473.59 582.26 466.06 C 602.19 456.11 622.87 448.43 644.22 442.17 C 647.76 449.77 651.99 457.04 655.98 464.41 L 679.11 506.71 C 689.90 526.56 700.71 546.27 711.02 566.38 C 726.90 597.32 741.27 627.96 748.65 662.15 C 750.26 669.63 752.15 677.87 752.38 685.50 C 752.41 686.81 752.58 687.82 751.63 688.79 C 743.62 689.97 734.74 689.19 726.66 689.03 C 722.88 696.68 723.55 705.27 720.41 712.97 C 715.66 715.40 672.40 703.38 666.27 700.79 C 660.86 698.51 647.39 690.18 643.20 689.44 C 640.60 697.90 639.85 718.66 638.97 728.36 L 631.21 813.92 C 630.45 822.42 629.74 830.93 629.07 839.44 C 628.50 846.93 628.18 854.51 626.72 861.89 L 481.77 861.56 L 421.77 861.68 C 409.31 861.72 396.79 862.03 384.34 861.52 C 384.71 856.37 383.72 850.95 383.20 845.82 C 382.40 837.91 381.67 829.98 381.03 822.05 L 373.76 730.87 C 373.26 724.66 370.84 683.32 369.37 681.34 C 367.37 680.72 365.88 681.22 364.01 682.01 C 359.49 683.91 355.25 686.90 350.85 689.14 C 336.79 696.30 321.72 702.68 306.21 705.78 C 293.64 708.29 279.18 710.14 267.94 702.55 C 260.67 697.64 256.90 690.61 255.27 682.15 C 248.47 647.00 281.31 586.92 297.32 556.26 C 312.52 527.19 328.60 498.62 345.57 470.54 C 352.18 459.55 357.84 447.92 364.98 437.25 Z" fill="#fefefe" fill-rule="nonzero" node-id="77" stroke="none" target-height="424.77905" target-width="504.1" target-x="248.475" target-y="437.25397"></path><path d="M 498.40 636.42 C 500.55 636.41 502.41 636.59 504.21 637.89 C 505.30 638.69 506.03 639.81 506.10 641.19 C 506.20 643.31 504.81 644.93 503.55 646.46 C 501.55 646.76 499.20 646.80 497.44 645.65 C 496.39 644.96 495.57 643.88 495.44 642.60 C 495.14 639.96 496.68 638.19 498.40 636.42 Z" fill="#000000" fill-rule="nonzero" node-id="79" stroke="none" target-height="10.393982" target-width="11.05304" target-x="495.145" target-y="636.411"></path><path d="M 498.81 671.78 C 499.01 671.68 499.22 671.59 499.44 671.51 C 499.65 671.44 499.87 671.38 500.10 671.33 C 500.32 671.29 500.55 671.26 500.77 671.24 C 501.00 671.22 501.23 671.22 501.45 671.24 C 501.68 671.25 501.91 671.28 502.13 671.33 C 502.36 671.37 502.58 671.43 502.79 671.50 C 503.01 671.57 503.22 671.66 503.42 671.76 C 503.63 671.87 503.82 671.98 504.01 672.11 C 504.20 672.23 504.38 672.37 504.55 672.53 C 504.72 672.68 504.88 672.84 505.03 673.01 C 505.18 673.18 505.32 673.37 505.44 673.56 C 505.56 673.75 505.68 673.95 505.77 674.15 C 505.87 674.36 505.96 674.57 506.03 674.79 C 506.10 675.00 506.15 675.22 506.19 675.45 C 506.24 675.67 506.26 675.90 506.27 676.13 C 506.28 676.35 506.28 676.58 506.26 676.81 C 506.24 677.04 506.21 677.26 506.16 677.48 C 506.11 677.71 506.04 677.92 505.96 678.14 C 505.89 678.35 505.79 678.56 505.69 678.76 C 505.58 678.96 505.46 679.16 505.33 679.34 C 505.20 679.53 505.06 679.71 504.90 679.87 C 504.75 680.04 504.58 680.20 504.40 680.34 C 504.23 680.49 504.04 680.62 503.85 680.74 C 503.66 680.86 503.46 680.97 503.25 681.06 C 503.17 681.09 503.10 681.13 503.02 681.16 C 502.94 681.19 502.86 681.22 502.79 681.24 C 502.71 681.27 502.63 681.30 502.55 681.32 C 502.47 681.34 502.39 681.36 502.31 681.38 C 502.23 681.40 502.14 681.42 502.06 681.43 C 501.98 681.45 501.90 681.46 501.82 681.47 C 501.73 681.48 501.65 681.49 501.57 681.50 C 501.49 681.50 501.40 681.51 501.32 681.51 C 501.24 681.52 501.15 681.52 501.07 681.52 C 500.99 681.51 500.91 681.51 500.82 681.51 C 500.74 681.50 500.66 681.49 500.57 681.49 C 500.49 681.48 500.41 681.47 500.33 681.45 C 500.25 681.44 500.16 681.42 500.08 681.41 C 500.00 681.39 499.92 681.37 499.84 681.35 C 499.76 681.33 499.68 681.31 499.60 681.28 C 499.52 681.26 499.44 681.23 499.37 681.20 C 499.29 681.17 499.21 681.14 499.13 681.11 C 499.06 681.08 498.98 681.05 498.91 681.01 C 498.83 680.97 498.76 680.94 498.69 680.90 C 498.61 680.86 498.54 680.82 498.47 680.77 C 498.40 680.73 498.33 680.68 498.26 680.64 C 498.19 680.59 498.12 680.54 498.06 680.50 C 497.99 680.45 497.92 680.39 497.86 680.34 C 497.80 680.29 497.73 680.23 497.67 680.18 C 497.61 680.12 497.55 680.07 497.49 680.01 C 497.43 679.95 497.38 679.89 497.32 679.83 C 497.27 679.76 497.21 679.70 497.16 679.64 C 497.11 679.57 497.05 679.51 497.00 679.44 C 496.95 679.38 496.91 679.31 496.86 679.24 C 496.81 679.17 496.77 679.10 496.73 679.03 C 496.68 678.96 496.64 678.89 496.60 678.81 C 496.56 678.74 496.53 678.66 496.49 678.59 C 496.45 678.52 496.42 678.44 496.39 678.36 C 496.36 678.29 496.33 678.21 496.30 678.13 C 496.27 678.05 496.24 677.97 496.22 677.89 C 496.19 677.82 496.17 677.74 496.15 677.66 C 496.13 677.58 496.11 677.49 496.10 677.41 C 496.08 677.33 496.06 677.25 496.05 677.17 C 496.04 677.09 496.03 677.00 496.02 676.92 C 496.01 676.84 496.00 676.76 496.00 676.67 C 495.99 676.59 495.99 676.51 495.99 676.42 C 495.99 676.34 495.99 676.26 495.99 676.18 C 496.00 676.09 496.00 676.01 496.01 675.93 C 496.01 675.84 496.02 675.76 496.04 675.68 C 496.05 675.60 496.06 675.52 496.07 675.43 C 496.09 675.35 496.11 675.27 496.13 675.19 C 496.14 675.11 496.17 675.03 496.19 674.95 C 496.21 674.87 496.24 674.79 496.26 674.71 C 496.29 674.63 496.32 674.56 496.35 674.48 C 496.38 674.40 496.41 674.33 496.45 674.25 C 496.48 674.17 496.52 674.10 496.55 674.03 C 496.59 673.95 496.63 673.88 496.67 673.81 C 496.71 673.74 496.76 673.66 496.80 673.59 C 496.85 673.52 496.89 673.46 496.94 673.39 C 496.99 673.32 497.04 673.25 497.09 673.19 C 497.14 673.12 497.20 673.06 497.25 673.00 C 497.30 672.93 497.36 672.87 497.42 672.81 C 497.48 672.75 497.53 672.69 497.59 672.64 C 497.65 672.58 497.72 672.52 497.78 672.47 C 497.84 672.42 497.91 672.36 497.97 672.31 C 498.04 672.26 498.10 672.21 498.17 672.16 C 498.24 672.12 498.31 672.07 498.38 672.03 C 498.45 671.98 498.52 671.94 498.59 671.90 C 498.66 671.86 498.74 671.82 498.81 671.78 Z" fill="#000000" fill-rule="nonzero" node-id="81" stroke="none" target-height="10.29364" target-width="10.295288" target-x="495.98737" target-y="671.223"></path><path d="M 501.06 706.59 C 501.14 706.58 501.22 706.57 501.30 706.57 C 501.38 706.56 501.46 706.56 501.54 706.56 C 501.62 706.56 501.69 706.56 501.77 706.56 C 501.85 706.56 501.93 706.57 502.01 706.57 C 502.09 706.58 502.17 706.59 502.25 706.60 C 502.33 706.61 502.41 706.62 502.49 706.63 C 502.56 706.65 502.64 706.66 502.72 706.68 C 502.80 706.69 502.87 706.71 502.95 706.74 C 503.03 706.76 503.10 706.78 503.18 706.80 C 503.25 706.83 503.33 706.85 503.40 706.88 C 503.48 706.91 503.55 706.94 503.62 706.97 C 503.70 707.00 503.77 707.04 503.84 707.07 C 503.91 707.10 503.98 707.14 504.05 707.18 C 504.12 707.22 504.19 707.26 504.26 707.30 C 504.33 707.34 504.39 707.38 504.46 707.43 C 504.53 707.47 504.59 707.52 504.65 707.57 C 504.72 707.62 504.78 707.66 504.84 707.71 C 504.90 707.76 504.96 707.82 505.02 707.87 C 505.08 707.92 505.14 707.98 505.19 708.03 C 505.25 708.09 505.30 708.15 505.36 708.21 C 505.41 708.27 505.46 708.33 505.51 708.39 C 505.56 708.45 505.61 708.51 505.66 708.58 C 505.71 708.64 505.76 708.70 505.80 708.77 C 505.84 708.83 505.89 708.90 505.93 708.97 C 505.97 709.04 506.01 709.11 506.05 709.17 C 506.09 709.24 506.12 709.32 506.16 709.39 C 506.19 709.46 506.23 709.53 506.26 709.60 C 506.29 709.68 506.32 709.75 506.35 709.82 C 506.38 709.90 506.40 709.97 506.43 710.05 C 506.45 710.12 506.47 710.20 506.49 710.28 C 506.51 710.35 506.53 710.43 506.55 710.51 C 506.57 710.59 506.58 710.67 506.60 710.74 C 506.61 710.82 506.62 710.90 506.63 710.98 C 506.64 711.06 506.65 711.14 506.66 711.22 C 506.66 711.30 506.67 711.37 506.67 711.45 C 506.67 711.53 506.67 711.61 506.67 711.69 C 506.67 711.77 506.67 711.85 506.66 711.93 C 506.65 712.01 506.65 712.09 506.64 712.17 C 506.63 712.25 506.62 712.33 506.61 712.40 C 506.59 712.48 506.58 712.56 506.56 712.64 C 506.55 712.72 506.53 712.79 506.51 712.87 C 506.49 712.95 506.47 713.02 506.44 713.10 C 506.42 713.18 506.39 713.25 506.37 713.33 C 506.34 713.40 506.31 713.47 506.28 713.55 C 506.25 713.62 506.22 713.69 506.18 713.76 C 506.15 713.84 506.11 713.91 506.08 713.98 C 506.04 714.05 506.00 714.12 505.96 714.19 C 505.92 714.25 505.88 714.32 505.83 714.39 C 505.79 714.45 505.74 714.52 505.70 714.58 C 505.65 714.65 505.60 714.71 505.55 714.77 C 505.50 714.83 505.45 714.89 505.40 714.95 C 505.34 715.01 505.29 715.07 505.23 715.13 C 505.18 715.18 505.12 715.24 505.06 715.29 C 505.00 715.35 504.95 715.40 504.88 715.45 C 504.82 715.50 504.76 715.55 504.70 715.60 C 504.64 715.65 504.57 715.70 504.51 715.74 C 504.44 715.79 504.38 715.83 504.31 715.87 C 504.24 715.92 504.17 715.96 504.10 716.00 C 504.03 716.04 503.96 716.07 503.89 716.11 C 503.82 716.14 503.75 716.18 503.68 716.21 C 503.61 716.24 503.53 716.27 503.46 716.30 C 503.38 716.33 503.31 716.36 503.23 716.38 C 503.16 716.41 503.08 716.43 503.01 716.45 C 502.93 716.48 502.85 716.50 502.77 716.51 C 502.55 716.57 502.33 716.60 502.10 716.62 C 501.87 716.65 501.64 716.65 501.42 716.64 C 501.19 716.63 500.96 716.61 500.74 716.57 C 500.51 716.53 500.29 716.47 500.07 716.40 C 499.85 716.33 499.64 716.25 499.44 716.15 C 499.23 716.05 499.03 715.93 498.84 715.81 C 498.65 715.68 498.47 715.54 498.30 715.39 C 498.13 715.24 497.97 715.08 497.82 714.91 C 497.67 714.73 497.53 714.55 497.40 714.36 C 497.28 714.17 497.17 713.97 497.07 713.76 C 496.97 713.56 496.89 713.34 496.82 713.13 C 496.75 712.91 496.70 712.69 496.66 712.46 C 496.62 712.24 496.59 712.01 496.59 711.78 C 496.58 711.55 496.59 711.32 496.61 711.10 C 496.63 710.87 496.67 710.64 496.72 710.42 C 496.78 710.20 496.84 709.98 496.93 709.77 C 497.01 709.56 497.11 709.35 497.22 709.15 C 497.33 708.95 497.45 708.76 497.59 708.58 C 497.73 708.39 497.88 708.22 498.04 708.06 C 498.20 707.89 498.37 707.74 498.55 707.60 C 498.73 707.46 498.92 707.34 499.12 707.22 C 499.32 707.11 499.52 707.01 499.74 706.93 C 499.95 706.84 500.16 706.77 500.39 706.71 C 500.61 706.66 500.83 706.62 501.06 706.59 Z" fill="#000000" fill-rule="nonzero" node-id="83" stroke="none" target-height="10.093689" target-width="10.093323" target-x="496.578" target-y="706.5576"></path><path d="M 501.05 592.98 C 501.40 593.07 501.75 593.16 502.09 593.27 C 503.58 593.75 504.73 594.54 505.35 596.05 C 506.00 597.63 505.93 598.90 505.29 600.45 C 504.45 602.45 503.20 602.95 501.31 603.73 C 499.66 603.08 498.31 602.44 497.39 600.86 C 496.56 599.45 496.26 597.90 496.89 596.34 C 497.71 594.31 499.16 593.70 501.05 592.98 Z" fill="#000000" fill-rule="nonzero" node-id="85" stroke="none" target-height="10.757019" target-width="9.73999" target-x="496.256" target-y="592.975"></path><path d="M 518.33 355.99 C 521.60 359.33 530.32 375.31 533.62 380.48 C 537.37 386.35 541.76 391.88 545.95 397.44 C 541.28 395.59 536.64 391.70 531.71 390.87 C 530.51 391.45 530.15 391.42 529.60 392.62 C 529.77 393.17 529.75 393.21 530.14 393.75 C 532.58 397.10 545.49 402.23 549.54 402.43 C 555.30 407.77 561.23 412.05 567.63 416.54 C 567.82 426.36 569.60 435.40 571.34 445.02 C 570.90 445.46 570.32 445.98 569.96 446.51 C 569.16 447.69 569.08 448.83 569.30 450.19 C 570.29 456.18 573.63 463.78 578.66 467.27 C 578.28 468.94 577.90 470.60 577.43 472.24 C 572.11 490.84 558.66 508.09 543.01 519.18 C 538.59 522.32 533.72 524.85 528.98 527.46 C 528.81 536.43 528.69 545.40 528.62 554.37 C 520.93 561.38 511.29 566.78 503.00 573.15 C 502.36 573.85 501.79 574.33 500.98 574.83 C 492.66 568.42 483.39 562.90 475.55 555.93 C 474.64 544.84 474.55 533.58 474.48 522.45 C 456.53 514.68 442.08 502.20 433.08 484.61 C 430.11 478.81 428.29 473.45 430.38 467.00 C 430.53 466.90 430.69 466.81 430.83 466.72 C 431.06 466.57 431.29 466.42 431.52 466.27 C 437.52 462.35 439.70 452.84 441.66 446.33 C 438.29 444.12 434.61 442.12 431.07 440.20 C 432.49 429.51 435.90 422.66 435.46 411.11 C 463.57 406.36 499.90 377.54 518.33 355.99 Z" fill="#fefefe" fill-rule="nonzero" node-id="87" stroke="none" target-height="218.83801" target-width="150.36996" target-x="428.29" target-y="355.992"></path><path d="M 533.20 418.30 C 533.39 418.24 533.57 418.19 533.76 418.14 C 533.96 418.10 534.15 418.06 534.34 418.02 C 534.54 417.99 534.73 417.97 534.93 417.95 C 535.12 417.93 535.32 417.91 535.51 417.90 C 535.71 417.90 535.91 417.90 536.10 417.90 C 536.30 417.91 536.50 417.92 536.69 417.94 C 536.89 417.96 537.08 417.99 537.27 418.02 C 537.47 418.05 537.66 418.09 537.85 418.13 C 538.04 418.18 538.23 418.23 538.42 418.29 C 538.61 418.34 538.80 418.41 538.98 418.48 C 539.16 418.55 539.34 418.62 539.52 418.70 C 539.70 418.78 539.88 418.87 540.05 418.96 C 540.22 419.06 540.39 419.15 540.56 419.26 C 540.73 419.36 540.89 419.47 541.05 419.59 C 541.21 419.70 541.36 419.82 541.51 419.95 C 541.67 420.07 541.81 420.20 541.96 420.34 C 542.10 420.47 542.24 420.61 542.37 420.76 C 542.50 420.90 542.63 421.05 542.76 421.20 C 542.88 421.36 543.00 421.51 543.11 421.67 C 543.23 421.83 543.33 422.00 543.44 422.16 C 543.54 422.33 543.64 422.50 543.73 422.68 C 543.82 422.85 543.90 423.03 543.98 423.21 C 544.06 423.39 544.14 423.57 544.20 423.75 C 544.27 423.94 544.33 424.12 544.39 424.31 C 544.44 424.50 544.49 424.69 544.53 424.88 C 544.58 425.07 544.61 425.27 544.64 425.46 C 544.67 425.66 544.70 425.85 544.71 426.05 C 544.73 426.24 544.74 426.44 544.75 426.63 C 544.75 426.83 544.75 427.03 544.74 427.22 C 544.73 427.42 544.71 427.62 544.69 427.81 C 544.67 428.01 544.64 428.20 544.61 428.39 C 544.57 428.59 544.53 428.78 544.49 428.97 C 544.44 429.16 544.38 429.35 544.32 429.54 C 544.26 429.72 544.20 429.91 544.13 430.09 C 544.05 430.27 543.98 430.45 543.89 430.63 C 543.81 430.81 543.72 430.98 543.62 431.16 C 543.53 431.33 543.43 431.50 543.32 431.66 C 543.21 431.83 543.10 431.99 542.99 432.14 C 542.87 432.30 542.75 432.46 542.62 432.61 C 542.49 432.76 542.36 432.90 542.22 433.04 C 542.09 433.18 541.94 433.32 541.80 433.45 C 541.65 433.58 541.50 433.71 541.35 433.83 C 541.19 433.95 541.03 434.07 540.87 434.18 C 540.71 434.29 540.55 434.40 540.38 434.50 C 540.21 434.60 540.04 434.69 539.86 434.78 C 539.69 434.87 539.51 434.95 539.33 435.03 C 539.15 435.11 538.96 435.18 538.78 435.24 C 538.59 435.31 538.41 435.37 538.22 435.42 C 537.89 435.51 537.56 435.58 537.22 435.63 C 536.89 435.69 536.55 435.72 536.21 435.74 C 535.88 435.75 535.54 435.75 535.20 435.72 C 534.86 435.70 534.52 435.65 534.19 435.59 C 533.86 435.53 533.53 435.45 533.21 435.35 C 532.88 435.25 532.56 435.13 532.25 435.00 C 531.94 434.86 531.64 434.71 531.35 434.54 C 531.05 434.37 530.77 434.18 530.50 433.98 C 530.23 433.78 529.97 433.56 529.72 433.33 C 529.47 433.10 529.24 432.85 529.02 432.59 C 528.80 432.33 528.60 432.06 528.41 431.78 C 528.22 431.50 528.05 431.21 527.89 430.91 C 527.74 430.60 527.60 430.30 527.48 429.98 C 527.36 429.66 527.26 429.34 527.18 429.01 C 527.09 428.68 527.03 428.35 526.98 428.01 C 526.94 427.68 526.91 427.34 526.91 427.00 C 526.90 426.76 526.91 426.52 526.92 426.28 C 526.94 426.04 526.96 425.80 526.99 425.57 C 527.03 425.33 527.07 425.09 527.12 424.86 C 527.18 424.62 527.24 424.39 527.31 424.16 C 527.38 423.93 527.46 423.71 527.55 423.48 C 527.64 423.26 527.74 423.04 527.85 422.83 C 527.96 422.61 528.07 422.40 528.20 422.20 C 528.32 421.99 528.45 421.79 528.60 421.60 C 528.74 421.40 528.88 421.21 529.04 421.03 C 529.20 420.85 529.36 420.67 529.53 420.50 C 529.70 420.33 529.88 420.17 530.06 420.01 C 530.24 419.86 530.43 419.71 530.63 419.57 C 530.82 419.43 531.02 419.30 531.23 419.18 C 531.44 419.05 531.65 418.94 531.86 418.83 C 532.08 418.72 532.29 418.62 532.52 418.54 C 532.74 418.45 532.97 418.37 533.20 418.30 Z" fill="#000000" fill-rule="nonzero" node-id="89" stroke="none" target-height="17.852356" target-width="17.848694" target-x="526.9013" target-y="417.89798"></path><path d="M 533.19 423.27 C 534.65 423.33 535.59 423.34 536.84 424.20 C 537.51 425.56 537.10 426.84 536.84 428.26 C 535.64 428.09 534.98 427.58 533.99 426.94 C 533.11 425.60 533.13 424.79 533.19 423.27 Z" fill="#fefefe" fill-rule="nonzero" node-id="91" stroke="none" target-height="4.9939575" target-width="4.403015" target-x="533.112" target-y="423.26804"></path><path d="M 466.41 418.12 C 467.36 418.07 468.33 418.00 469.28 418.05 C 472.45 418.22 474.06 420.26 475.98 422.50 C 476.43 424.73 476.97 427.44 476.33 429.66 C 475.29 433.32 471.96 434.87 468.90 436.59 C 468.68 436.51 468.47 436.42 468.24 436.36 C 467.58 436.19 466.92 436.10 466.27 435.88 C 463.66 435.02 461.71 433.21 460.48 430.76 C 460.35 430.50 460.24 430.24 460.13 429.97 C 460.03 429.70 459.94 429.43 459.87 429.15 C 459.79 428.87 459.73 428.59 459.69 428.30 C 459.64 428.02 459.61 427.73 459.60 427.44 C 459.58 427.16 459.58 426.87 459.60 426.58 C 459.61 426.29 459.64 426.01 459.69 425.72 C 459.73 425.44 459.79 425.16 459.87 424.88 C 459.94 424.60 460.03 424.33 460.13 424.06 C 461.31 421.07 463.59 419.41 466.41 418.12 Z" fill="#000000" fill-rule="nonzero" node-id="93" stroke="none" target-height="18.587952" target-width="17.385681" target-x="459.5813" target-y="418.002"></path><path d="M 509.30 459.19 C 510.52 458.89 511.92 458.95 513.18 458.96 C 519.68 459.04 526.26 462.02 530.68 466.79 C 532.38 468.63 533.94 470.86 533.79 473.45 L 533.02 474.00 C 529.78 473.24 527.82 469.83 525.55 467.65 C 520.78 463.06 514.57 462.80 508.36 462.91 C 504.03 463.96 499.89 465.18 496.04 467.47 C 492.67 469.48 488.80 473.91 485.02 474.77 C 484.17 474.97 484.15 474.75 483.44 474.35 C 483.27 473.29 483.26 472.62 483.96 471.72 C 489.38 464.81 500.80 460.28 509.30 459.19 Z" fill="#000000" fill-rule="nonzero" node-id="95" stroke="none" target-height="16.078003" target-width="50.677002" target-x="483.25897" target-y="458.891"></path><path d="M 501.95 409.26 C 502.99 409.37 503.80 409.39 504.73 409.92 C 506.61 411.00 501.20 429.97 501.20 433.69 C 501.19 444.62 512.02 444.26 513.31 448.46 L 512.34 450.10 C 511.49 450.00 510.63 449.89 509.79 449.72 C 505.65 448.88 501.27 445.63 499.12 442.02 C 493.75 433.00 499.74 418.82 501.95 409.26 Z" fill="#000000" fill-rule="nonzero" node-id="97" stroke="none" target-height="40.843994" target-width="19.560028" target-x="493.746" target-y="409.259"></path><path d="M 645.26 694.53 C 652.02 697.50 658.44 701.12 665.32 703.87 C 682.77 710.84 700.96 713.75 719.37 716.97 C 718.58 721.78 717.60 726.41 716.39 731.13 C 723.24 735.18 731.28 734.53 739.01 734.85 C 739.06 742.36 738.90 749.86 738.51 757.36 L 701.31 755.36 C 700.45 758.08 699.82 760.94 699.22 763.73 C 698.38 767.61 695.79 777.23 698.01 780.65 C 700.60 781.68 705.92 781.02 708.85 781.12 L 708.05 799.50 C 714.79 801.08 723.41 799.56 730.35 799.63 C 751.39 799.83 772.28 798.99 793.29 798.57 C 817.46 798.09 841.78 797.93 865.96 797.97 C 865.94 811.33 868.61 824.56 867.74 837.87 C 852.76 837.34 837.78 837.12 822.79 837.20 C 794.27 837.65 765.76 838.33 737.26 839.23 C 720.54 839.78 703.69 840.82 686.96 840.68 C 685.25 840.67 682.57 840.77 681.09 839.93 C 680.43 839.55 680.46 838.22 680.34 837.50 C 680.19 827.10 677.72 816.60 677.68 806.24 L 679.47 805.97 L 679.74 806.56 L 680.07 805.93 C 690.74 805.18 701.68 805.68 712.39 805.69 L 790.19 806.41 C 801.71 806.42 815.72 807.61 826.86 805.46 C 824.95 803.66 778.29 804.27 771.74 804.36 C 768.30 804.40 764.14 805.13 760.77 804.74 C 760.13 804.67 759.45 804.12 758.93 803.79 C 758.71 803.64 758.48 803.49 758.26 803.34 C 749.60 803.14 677.70 800.20 674.51 803.04 C 673.25 809.90 677.08 836.45 678.40 844.22 C 682.29 844.66 685.55 843.86 689.27 845.60 C 689.58 846.01 689.98 846.37 690.19 846.83 C 690.75 848.06 689.47 859.66 689.43 861.96 L 631.51 861.84 C 631.30 851.32 632.67 840.46 633.54 829.97 L 638.49 774.58 C 640.91 747.96 641.42 721.01 645.26 694.53 Z" fill="#fefefe" fill-rule="nonzero" node-id="99" stroke="none" target-height="167.42798" target-width="237.31299" target-x="631.3" target-y="694.531"></path><path d="M 800.10 817.70 C 810.27 816.66 824.34 816.80 834.48 817.96 L 834.38 818.39 C 827.60 820.86 809.07 819.87 801.19 820.11 C 791.74 820.39 782.36 821.05 772.88 821.13 C 772.43 821.17 771.98 821.21 771.53 821.24 C 767.48 821.51 740.19 822.82 738.70 821.53 C 740.83 819.56 793.41 818.23 800.10 817.70 Z" fill="#000000" fill-rule="nonzero" node-id="101" stroke="none" target-height="6.1550903" target-width="95.78198" target-x="738.7" target-y="816.6619"></path><path d="M 740.71 757.19 C 740.73 757.12 740.74 757.05 740.76 756.99 C 742.66 750.60 741.64 743.81 743.16 737.39 C 752.82 734.12 868.71 743.87 887.22 746.16 C 891.01 746.63 894.71 747.38 898.43 748.22 C 899.08 751.18 899.92 753.09 901.62 755.63 C 894.70 757.08 887.38 757.00 880.33 757.17 C 858.69 757.72 837.17 756.20 815.56 755.27 C 818.92 756.80 836.35 758.04 840.99 758.20 C 844.00 758.31 848.27 757.63 851.08 758.61 C 851.03 758.63 850.98 758.65 850.93 758.67 C 849.18 759.61 840.62 759.48 837.97 759.93 L 838.39 760.46 L 837.40 760.52 L 837.04 760.17 L 836.67 760.31 C 837.20 760.71 837.63 760.56 838.26 760.48 C 844.88 759.71 851.17 760.75 857.78 760.76 C 859.28 760.77 860.66 760.33 862.15 760.25 C 866.26 760.02 882.28 760.31 885.56 760.98 L 885.60 761.35 C 882.23 766.70 883.74 785.72 883.31 792.83 C 871.03 791.70 858.52 792.00 846.20 791.44 C 809.18 789.74 771.92 788.52 734.88 790.26 C 736.83 791.08 739.40 791.22 741.50 791.30 C 753.35 791.75 765.48 791.09 777.38 791.15 C 788.94 791.20 800.55 792.00 812.12 792.43 C 824.99 792.32 837.88 793.56 850.74 794.24 L 850.90 794.57 L 850.45 794.68 L 850.74 794.93 L 850.68 794.16 L 849.98 794.75 C 840.79 795.40 831.32 794.92 822.11 794.74 C 818.58 794.66 814.63 794.21 811.15 794.67 C 803.09 796.21 787.76 795.37 778.80 795.60 C 763.69 795.97 748.61 796.87 733.48 797.05 C 726.52 797.14 718.97 797.59 712.10 796.40 C 711.07 791.92 711.99 785.65 712.10 780.95 C 725.67 780.92 739.37 782.05 752.96 782.29 C 768.91 782.57 784.90 782.12 800.87 782.33 C 815.58 782.51 830.30 783.32 845.00 783.78 C 854.06 784.06 863.08 782.47 872.03 782.93 L 872.91 782.98 L 872.81 782.59 L 873.42 782.87 C 873.03 782.81 872.64 782.76 872.25 782.69 C 861.85 780.60 850.17 781.64 839.50 781.03 C 818.14 779.65 796.76 778.92 775.35 778.84 C 768.24 778.76 761.13 779.07 754.00 778.96 C 745.05 778.81 736.18 778.11 727.25 777.79 C 718.25 777.47 709.24 777.52 700.25 777.29 C 701.15 771.05 702.06 764.94 703.74 758.85 C 711.17 758.50 718.72 759.42 726.12 760.01 C 736.26 760.81 746.41 761.55 756.56 762.24 C 768.33 762.98 780.13 763.84 791.92 764.19 C 801.88 764.49 811.85 764.35 821.80 764.72 C 826.85 764.90 831.95 765.13 836.97 765.66 C 839.86 765.96 842.75 766.71 845.64 766.83 C 853.82 767.16 862.31 766.58 870.50 766.49 L 870.03 765.85 L 871.10 766.00 L 871.51 766.49 C 871.91 766.09 871.81 766.32 871.88 765.84 C 869.28 765.17 866.18 765.39 863.48 765.16 L 846.26 763.74 C 839.38 763.18 832.56 761.97 825.66 761.65 C 813.09 761.07 800.52 761.30 787.95 760.97 C 773.04 760.58 755.41 759.28 740.71 757.19 Z" fill="#fefefe" fill-rule="nonzero" node-id="103" stroke="none" target-height="63.465027" target-width="201.37793" target-x="700.24506" target-y="734.12"></path><path d="M 770.73 742.69 C 778.58 744.49 787.69 743.89 795.76 744.56 C 811.69 745.87 827.56 747.67 843.50 748.87 C 856.91 749.89 870.84 750.08 884.09 752.36 L 883.41 752.48 C 876.43 753.63 868.70 752.50 861.65 752.08 C 841.96 750.89 822.57 748.82 802.96 746.87 C 793.17 745.90 782.58 745.78 772.97 743.78 C 772.04 743.59 771.48 743.24 770.73 742.69 Z" fill="#000000" fill-rule="nonzero" node-id="105" stroke="none" target-height="10.940063" target-width="113.36499" target-x="770.7261" target-y="742.692"></path><path d="M 793.23 772.26 C 801.13 771.61 877.05 773.52 880.70 774.92 L 880.32 775.47 C 862.80 775.84 845.38 774.67 827.88 774.18 C 817.67 773.89 802.16 774.31 792.68 772.75 L 793.23 772.26 Z" fill="#000000" fill-rule="nonzero" node-id="107" stroke="none" target-height="4.2280273" target-width="88.02295" target-x="792.6791" target-y="771.61"></path><path d="M 752.09 691.72 C 753.22 691.61 754.36 691.55 755.49 691.54 C 768.43 691.41 781.49 692.45 794.42 693.09 C 827.51 694.57 860.48 697.42 893.33 701.66 C 896.55 702.09 906.97 702.60 908.98 704.61 C 906.89 711.91 904.86 719.23 902.89 726.57 C 901.46 732.11 900.57 738.00 898.15 743.22 C 892.55 744.56 885.58 742.40 879.84 741.90 C 866.40 740.20 852.72 739.36 839.21 738.35 C 817.45 736.71 795.79 735.25 774.00 734.05 C 761.09 733.34 748.38 732.91 735.50 731.68 C 730.97 731.25 726.18 731.15 721.76 730.08 C 720.02 727.04 727.43 698.33 728.31 692.12 C 736.31 692.43 744.11 692.34 752.09 691.72 Z" fill="#fefefe" fill-rule="nonzero" node-id="109" stroke="none" target-height="53.154053" target-width="188.96698" target-x="720.017" target-y="691.41"></path><path d="M 772.11 711.21 C 779.06 710.30 786.93 711.12 793.91 711.40 C 812.81 712.16 831.49 713.81 850.34 715.17 C 855.29 715.53 866.72 715.17 870.74 716.75 L 871.41 718.45 L 870.68 718.48 C 853.99 719.12 836.60 716.50 819.92 715.40 L 789.36 713.45 C 784.42 713.14 779.13 713.15 774.27 712.34 C 773.26 712.18 772.84 711.89 772.11 711.21 Z" fill="#000000" fill-rule="nonzero" node-id="111" stroke="none" target-height="8.827942" target-width="99.301025" target-x="772.113" target-y="710.296"></path><path d="M 335.03 759.23 C 336.56 759.16 338.13 759.26 339.66 759.29 C 341.04 766.39 343.03 773.47 343.87 780.66 C 342.53 781.50 341.37 782.15 339.76 782.35 C 332.61 783.21 324.86 782.81 317.63 782.93 L 272.68 783.49 C 267.50 783.50 256.75 782.42 252.40 784.33 C 254.42 785.84 325.65 784.99 334.79 784.64 C 336.71 784.57 339.74 784.15 341.27 785.56 C 341.84 786.89 341.93 787.17 341.79 788.60 C 341.45 788.81 341.16 789.12 340.77 789.23 C 338.01 790.04 327.97 789.54 324.33 789.61 C 297.97 789.96 271.61 790.11 245.25 790.06 L 182.86 790.10 C 171.30 790.11 159.19 790.84 147.72 789.61 L 139.89 768.77 C 154.12 767.22 168.56 766.77 182.86 765.98 C 209.42 764.52 235.91 763.33 262.50 762.39 C 286.68 761.54 310.84 759.82 335.03 759.23 Z" fill="#fefefe" fill-rule="nonzero" node-id="113" stroke="none" target-height="31.677002" target-width="203.98302" target-x="139.89" target-y="759.162"></path><path d="M 239.45 774.68 C 245.71 774.50 290.69 773.65 293.12 775.06 L 292.85 775.51 C 289.06 776.31 241.45 776.74 239.84 775.92 L 239.45 774.68 Z" fill="#000000" fill-rule="nonzero" node-id="115" stroke="none" target-height="3.0899048" target-width="53.67198" target-x="239.447" target-y="773.655"></path><path d="M 326.88 792.78 C 331.06 792.44 335.22 792.50 339.41 792.56 C 339.62 801.76 341.80 811.34 343.24 820.44 C 319.15 821.11 294.84 821.01 270.75 820.55 C 266.25 820.46 261.77 820.03 257.27 819.97 C 229.31 819.46 201.34 819.34 173.38 819.59 C 168.40 819.62 163.42 819.55 158.44 819.53 C 156.88 811.24 157.66 802.36 157.31 793.93 C 168.71 793.49 180.19 793.66 191.60 793.58 C 236.65 793.24 281.87 794.50 326.88 792.78 Z" fill="#fefefe" fill-rule="nonzero" node-id="117" stroke="none" target-height="28.669006" target-width="186.35399" target-x="156.882" target-y="792.44"></path><path d="M 200.52 805.68 C 216.21 804.38 232.55 805.90 248.27 806.15 C 261.16 806.36 274.07 805.59 286.94 805.87 C 288.54 805.90 290.05 805.90 291.56 806.50 L 291.38 807.06 L 290.07 807.44 C 282.55 807.57 275.07 808.38 267.52 808.44 C 251.37 808.56 235.36 807.79 219.23 807.57 C 213.12 807.49 206.85 808.00 200.78 807.74 L 200.21 807.01 L 200.52 805.68 Z" fill="#000000" fill-rule="nonzero" node-id="119" stroke="none" target-height="4.182068" target-width="91.353" target-x="200.211" target-y="804.38196"></path><path d="M 169.71 823.27 C 186.30 822.47 203.37 822.49 219.98 822.88 C 225.93 823.02 231.87 823.55 237.83 823.58 C 271.13 823.72 304.44 823.13 337.74 823.76 C 338.69 824.82 339.71 825.89 340.44 827.11 C 341.38 828.67 343.01 832.05 342.60 833.83 C 337.22 834.52 331.40 834.11 325.96 834.12 C 317.31 834.14 308.66 834.26 300.01 834.46 C 295.85 834.54 291.44 834.33 287.36 835.09 L 287.62 835.61 C 293.74 837.74 300.18 836.81 306.48 836.20 C 310.58 836.36 314.65 835.96 318.75 835.93 C 326.93 835.87 335.11 836.03 343.29 836.41 C 344.90 838.81 346.63 841.14 348.30 843.49 C 339.35 843.99 330.28 843.78 321.30 843.83 C 301.32 843.86 281.35 843.77 261.37 843.58 C 229.49 843.70 197.61 844.06 165.73 844.67 C 166.29 837.81 164.64 830.74 165.92 823.94 C 167.14 823.18 168.31 823.33 169.71 823.27 Z" fill="#fefefe" fill-rule="nonzero" node-id="121" stroke="none" target-height="22.203003" target-width="183.66098" target-x="164.643" target-y="822.466"></path><path d="M 199.85 831.74 C 200.20 831.72 200.70 831.66 201.03 831.73 C 202.21 831.98 202.31 832.39 202.75 833.37 L 202.20 834.27 C 197.28 836.30 185.61 835.07 179.88 834.98 L 177.99 834.78 C 177.23 833.97 176.92 833.96 176.82 832.81 C 179.19 831.12 196.17 831.80 199.85 831.74 Z" fill="#000000" fill-rule="nonzero" node-id="123" stroke="none" target-height="5.1759033" target-width="25.932007" target-x="176.818" target-y="831.122"></path><path d="M 809.92 840.79 C 828.27 839.35 847.29 840.97 865.70 841.17 C 866.09 848.17 866.19 855.17 866.27 862.17 C 854.91 862.63 843.51 862.39 832.14 862.43 C 805.17 862.44 778.19 862.31 751.22 862.03 C 732.08 861.90 712.95 861.92 693.81 862.10 C 693.36 857.50 692.23 847.46 695.10 843.82 C 698.45 843.25 702.17 843.56 705.58 843.53 C 712.37 843.47 719.17 843.36 725.96 843.19 L 809.92 840.79 Z" fill="#fefefe" fill-rule="nonzero" node-id="125" stroke="none" target-height="23.281006" target-width="174.05005" target-x="692.225" target-y="839.347"></path><path d="M 789.84 848.73 L 826.55 848.47 C 835.07 848.43 844.77 847.47 853.09 849.37 L 853.07 849.85 C 849.72 850.44 845.46 851.14 842.10 850.77 C 841.77 850.74 841.44 850.69 841.11 850.65 C 832.09 851.03 782.63 852.46 777.26 849.90 C 778.97 848.18 787.23 848.77 789.84 848.73 Z" fill="#000000" fill-rule="nonzero" node-id="127" stroke="none" target-height="4.984009" target-width="75.82898" target-x="777.265" target-y="847.471"></path><path d="M 570.29 341.27 C 581.76 344.53 598.65 364.52 603.51 375.25 C 604.88 378.27 605.19 384.09 607.08 386.28 C 607.57 386.85 608.00 386.70 608.68 386.76 C 612.32 384.27 606.84 376.97 607.99 373.38 C 608.45 371.94 608.66 371.12 608.34 369.60 C 608.13 368.64 607.94 367.75 607.90 366.76 C 607.85 365.11 608.13 363.23 609.48 362.10 C 609.85 361.80 610.90 362.24 611.33 362.35 C 617.49 368.66 617.66 413.02 620.05 424.65 C 620.09 424.85 620.14 425.05 620.18 425.24 C 613.31 427.50 606.49 429.66 599.82 432.48 C 594.66 434.66 589.08 437.86 583.77 439.45 C 582.52 439.82 581.84 439.82 580.73 439.02 C 573.83 434.09 573.42 412.65 572.57 404.95 C 571.98 399.54 571.09 394.17 570.21 388.80 L 558.75 377.62 C 555.35 374.01 550.11 369.29 548.74 364.42 C 548.29 362.84 548.55 361.88 549.32 360.49 C 549.90 360.09 550.41 359.77 551.12 359.67 C 559.93 358.37 572.76 373.63 576.67 380.51 C 578.69 384.07 579.83 392.09 582.97 394.18 L 584.01 393.95 C 585.21 391.74 584.40 389.38 583.72 387.06 C 581.67 380.10 577.10 373.45 572.32 368.09 C 568.91 364.28 557.96 356.10 556.99 351.45 C 557.59 350.86 557.79 350.50 558.65 350.27 C 561.12 349.60 563.67 351.09 565.70 352.35 C 574.83 357.98 585.34 369.06 590.00 378.75 C 591.59 382.04 592.42 385.58 593.28 389.11 L 594.06 389.57 C 595.33 389.21 595.56 389.46 596.24 388.25 C 594.80 373.52 582.70 360.41 571.98 351.00 C 569.78 349.07 567.63 347.15 567.43 344.08 C 568.16 342.52 568.88 342.23 570.29 341.27 Z" fill="#fefefe" fill-rule="nonzero" node-id="129" stroke="none" target-height="98.550995" target-width="71.888" target-x="548.291" target-y="341.273"></path><path d="M 329.09 846.76 C 334.64 845.55 340.92 847.30 346.64 846.45 C 348.25 851.37 348.69 856.62 349.36 861.73 C 330.59 862.51 311.62 861.70 292.82 861.65 C 258.76 861.56 224.70 861.87 190.64 862.59 C 186.61 862.80 176.93 864.78 173.68 862.71 C 171.49 859.88 172.09 851.77 171.74 848.09 C 181.68 846.85 197.31 847.59 207.74 847.51 C 226.42 847.28 245.10 847.19 263.78 847.25 C 269.52 847.23 275.28 846.86 281.01 846.92 L 311.39 847.04 C 317.27 847.03 323.23 847.27 329.09 846.76 Z" fill="#fefefe" fill-rule="nonzero" node-id="131" stroke="none" target-height="19.222046" target-width="177.869" target-x="171.494" target-y="845.555"></path><path d="M 193.09 851.77 C 198.41 851.96 219.81 850.27 222.97 852.73 L 222.73 853.23 C 219.14 855.87 213.34 855.03 209.12 854.96 C 199.52 854.91 189.61 855.92 180.06 855.35 C 179.00 855.29 179.12 855.48 178.38 854.64 L 178.45 853.49 C 181.22 850.91 188.66 852.53 192.57 851.87 C 192.74 851.84 192.91 851.80 193.09 851.77 Z" fill="#000000" fill-rule="nonzero" node-id="133" stroke="none" target-height="5.652954" target-width="44.596024" target-x="178.37698" target-y="850.27203"></path><path d="M 432.80 340.45 C 433.60 340.40 433.18 340.39 434.25 340.58 C 435.40 340.79 435.12 340.74 435.72 341.59 C 434.47 345.71 427.00 350.00 423.83 353.14 C 416.18 360.75 407.03 371.43 402.54 381.21 C 400.42 385.83 398.89 391.57 397.70 396.53 C 397.36 397.99 397.13 399.60 397.93 400.93 C 400.76 401.01 404.62 386.24 406.27 382.94 C 412.50 370.50 426.31 354.30 438.45 347.52 C 440.17 346.56 441.64 345.93 443.60 346.47 C 444.44 347.44 444.58 347.54 444.73 348.80 C 442.51 353.23 436.43 356.90 432.63 360.04 C 420.74 369.82 416.57 375.48 413.20 390.65 C 412.60 393.34 411.20 397.32 411.34 399.98 C 411.40 401.31 411.75 401.61 412.56 402.57 L 413.16 402.39 C 415.98 395.82 416.93 388.27 419.48 381.46 C 420.48 379.16 421.62 376.98 423.19 375.01 C 427.01 370.23 440.08 358.20 446.14 358.08 C 447.63 358.06 448.28 358.38 449.39 359.31 L 449.61 359.97 C 450.28 362.03 448.25 364.82 447.10 366.41 C 442.09 373.29 435.38 379.03 430.05 385.67 C 422.48 395.10 424.00 420.53 424.05 432.40 C 423.23 433.27 422.47 434.20 421.69 435.11 C 415.97 432.66 410.24 430.02 404.38 427.91 C 399.44 426.12 394.36 424.79 389.46 422.86 C 389.79 417.85 391.11 412.66 391.99 407.72 C 393.74 397.86 395.13 388.30 398.28 378.74 C 401.75 368.20 410.86 355.49 419.47 348.53 C 423.58 345.21 428.11 342.83 432.80 340.45 Z" fill="#fefefe" fill-rule="nonzero" node-id="135" stroke="none" target-height="94.72" target-width="60.823975" target-x="389.46002" target-y="340.388"></path><path d="M 413.77 510.26 C 414.41 510.69 414.17 510.47 414.70 511.04 C 417.71 514.28 420.96 518.02 424.62 520.51 C 432.93 526.15 442.48 530.31 452.03 533.34 C 455.77 534.53 470.19 536.42 472.13 538.48 L 471.75 542.87 C 463.90 545.13 456.43 548.72 448.84 551.68 C 443.31 553.85 437.53 555.45 431.85 557.18 C 417.07 562.69 401.46 566.72 387.06 573.17 C 395.76 552.13 405.68 531.55 413.77 510.26 Z" fill="#fefefe" fill-rule="nonzero" node-id="137" stroke="none" target-height="62.906036" target-width="85.06497" target-x="387.06104" target-y="510.262"></path><path d="M 592.65 514.32 C 595.38 517.82 602.50 543.26 604.56 549.49 C 607.49 558.30 610.72 567.00 613.63 575.82 C 598.54 571.43 583.38 564.21 568.75 558.38 C 562.13 555.47 555.45 552.60 548.95 549.43 C 545.72 547.85 541.67 545.03 538.27 544.10 C 536.72 543.67 534.71 544.33 533.06 544.20 C 532.38 543.00 532.43 542.28 532.44 540.95 C 533.77 539.56 543.65 540.03 546.36 539.56 C 562.58 536.75 582.91 528.28 592.65 514.32 Z" fill="#fefefe" fill-rule="nonzero" node-id="139" stroke="none" target-height="61.50299" target-width="81.25098" target-x="532.379" target-y="514.318"></path><path d="M 469.54 546.91 C 470.36 547.04 470.51 547.18 471.14 547.67 C 471.73 549.19 472.41 550.77 471.80 552.40 C 471.48 553.22 470.52 553.62 469.74 553.95 C 469.60 554.01 469.46 554.06 469.32 554.11 L 469.24 554.90 C 473.11 559.45 490.57 571.29 496.58 575.19 C 494.37 580.28 491.24 585.13 488.52 589.97 C 482.89 599.83 477.43 609.77 472.13 619.80 L 468.33 626.53 L 452.29 574.87 C 450.47 568.83 447.60 562.54 446.82 556.29 C 452.19 554.08 457.25 551.09 462.85 549.44 C 465.16 548.76 467.33 547.84 469.54 546.91 Z" fill="#fefefe" fill-rule="nonzero" node-id="141" stroke="none" target-height="79.62402" target-width="49.755005" target-x="446.822" target-y="546.909"></path><path d="M 532.75 546.14 C 540.64 548.77 548.97 552.72 556.35 556.54 C 553.54 566.37 550.25 576.06 547.26 585.84 C 543.67 597.60 540.37 609.46 536.58 621.16 C 534.59 618.70 532.86 616.02 531.07 613.41 C 523.15 600.48 513.35 587.80 503.93 575.91 C 509.58 572.10 533.64 556.16 536.32 551.88 C 535.60 550.64 533.72 551.59 532.27 550.76 C 532.17 549.18 532.49 547.68 532.75 546.14 Z" fill="#fefefe" fill-rule="nonzero" node-id="143" stroke="none" target-height="75.025024" target-width="52.420013" target-x="503.933" target-y="546.139"></path><path d="M 374.15 420.90 C 391.97 424.69 421.51 438.50 438.19 447.47 C 436.11 453.15 434.27 458.16 430.91 463.22 C 429.07 463.66 425.94 461.36 424.23 460.40 C 412.53 454.03 400.53 448.27 388.25 443.12 C 381.27 440.26 374.06 437.91 367.24 434.68 C 369.44 430.00 371.48 425.34 374.15 420.90 Z" fill="#fefefe" fill-rule="nonzero" node-id="145" stroke="none" target-height="42.761993" target-width="70.94702" target-x="367.242" target-y="420.89502"></path><path d="M 634.61 424.07 C 635.55 424.09 636.48 424.16 637.43 424.24 C 641.19 427.31 642.63 434.09 644.10 438.57 C 637.35 441.18 630.17 442.84 623.32 445.19 C 616.02 447.70 608.82 450.46 601.72 453.48 C 594.62 456.50 587.63 459.76 580.76 463.28 C 579.73 463.56 579.13 463.73 578.08 463.46 C 574.74 460.25 573.19 453.23 571.58 448.90 C 584.51 443.52 596.84 436.85 609.99 431.88 C 617.82 428.91 627.29 427.89 634.61 424.07 Z" fill="#fefefe" fill-rule="nonzero" node-id="147" stroke="none" target-height="39.65399" target-width="72.51099" target-x="571.584" target-y="424.071"></path><path d="M 395.03 367.23 C 395.75 367.58 396.35 367.98 397.00 368.44 C 397.83 372.41 393.89 379.94 392.49 383.78 L 392.01 384.59 C 391.91 384.37 391.76 384.16 391.70 383.93 C 391.14 381.87 392.23 373.17 392.97 371.02 C 393.43 369.67 394.26 368.43 395.03 367.23 Z" fill="#fefefe" fill-rule="nonzero" node-id="149" stroke="none" target-height="17.358032" target-width="6.6879883" target-x="391.139" target-y="367.22998"></path><path d="M 258.78 242.89 C 260.03 242.79 261.28 242.72 262.54 242.68 C 263.79 242.64 265.04 242.64 266.29 242.66 C 267.55 242.68 268.80 242.74 270.05 242.82 C 271.30 242.91 272.55 243.03 273.79 243.17 C 275.04 243.32 276.28 243.50 277.51 243.70 C 278.75 243.91 279.98 244.15 281.20 244.42 C 282.43 244.68 283.65 244.98 284.86 245.31 C 286.07 245.64 287.27 246.00 288.46 246.38 C 289.65 246.77 290.83 247.19 292.00 247.63 C 293.18 248.07 294.34 248.55 295.49 249.05 C 296.63 249.55 297.77 250.08 298.89 250.64 C 300.01 251.20 301.12 251.78 302.22 252.39 C 303.31 253.01 304.39 253.64 305.45 254.31 C 306.51 254.98 307.56 255.67 308.59 256.38 C 309.61 257.10 310.62 257.84 311.62 258.61 C 312.61 259.37 313.58 260.16 314.53 260.98 C 315.49 261.79 316.42 262.63 317.33 263.49 C 318.24 264.35 319.13 265.23 320.00 266.13 C 320.87 267.04 321.72 267.96 322.54 268.90 C 323.37 269.85 324.16 270.81 324.94 271.80 C 325.72 272.78 326.47 273.79 327.19 274.81 C 327.92 275.83 328.62 276.87 329.30 277.92 C 329.97 278.98 330.62 280.05 331.25 281.14 C 331.87 282.22 332.46 283.33 333.03 284.44 C 333.60 285.56 334.14 286.69 334.66 287.83 C 335.17 288.98 335.65 290.13 336.11 291.30 C 336.57 292.47 337.00 293.64 337.39 294.83 C 337.79 296.02 338.16 297.22 338.50 298.43 C 338.84 299.63 339.15 300.85 339.43 302.07 C 339.71 303.29 339.96 304.52 340.18 305.75 C 340.40 306.98 340.59 308.22 340.75 309.47 C 340.91 310.71 341.04 311.96 341.13 313.21 C 341.23 314.46 341.30 315.71 341.34 316.96 C 341.37 318.21 341.38 319.47 341.35 320.72 C 341.33 321.97 341.27 323.22 341.18 324.47 C 341.10 325.72 340.98 326.97 340.83 328.22 C 340.68 329.46 340.51 330.70 340.30 331.94 C 340.09 333.17 339.85 334.40 339.58 335.63 C 339.31 336.85 339.01 338.07 338.68 339.28 C 338.35 340.49 337.99 341.69 337.60 342.88 C 337.22 344.07 336.80 345.25 336.35 346.42 C 335.91 347.59 335.43 348.75 334.93 349.90 C 334.43 351.05 333.89 352.18 333.33 353.31 C 332.78 354.43 332.19 355.54 331.58 356.63 C 330.96 357.72 330.32 358.80 329.66 359.86 C 328.99 360.92 328.30 361.97 327.58 362.99 C 326.86 364.02 326.12 365.03 325.35 366.02 C 324.59 367.01 323.79 367.98 322.98 368.94 C 322.16 369.89 321.33 370.82 320.47 371.73 C 319.61 372.64 318.72 373.53 317.82 374.40 C 316.91 375.27 315.99 376.11 315.04 376.93 C 314.10 377.76 313.13 378.55 312.15 379.33 C 311.16 380.10 310.16 380.85 309.13 381.58 C 308.11 382.31 307.07 383.01 306.02 383.68 C 304.96 384.35 303.89 385.00 302.80 385.62 C 301.71 386.25 300.61 386.84 299.49 387.41 C 298.37 387.98 297.24 388.52 296.10 389.03 C 294.95 389.54 293.80 390.02 292.63 390.48 C 291.46 390.93 290.28 391.36 289.10 391.76 C 287.91 392.15 286.71 392.52 285.50 392.86 C 284.30 393.20 283.08 393.51 281.86 393.79 C 280.64 394.06 279.41 394.31 278.18 394.53 C 276.94 394.75 275.70 394.94 274.46 395.09 C 273.22 395.25 271.97 395.38 270.72 395.48 C 269.47 395.57 268.22 395.64 266.97 395.67 C 265.72 395.71 264.47 395.71 263.22 395.68 C 261.97 395.66 260.72 395.60 259.47 395.51 C 258.22 395.42 256.97 395.31 255.73 395.16 C 254.49 395.01 253.25 394.83 252.02 394.62 C 250.78 394.41 249.56 394.17 248.33 393.90 C 247.11 393.63 245.90 393.33 244.69 393.00 C 243.48 392.67 242.28 392.31 241.09 391.92 C 239.90 391.54 238.73 391.12 237.56 390.67 C 236.39 390.23 235.23 389.75 234.08 389.25 C 232.94 388.74 231.80 388.21 230.69 387.65 C 229.56 387.10 228.46 386.51 227.37 385.90 C 226.28 385.29 225.20 384.65 224.14 383.98 C 223.08 383.31 222.04 382.62 221.01 381.91 C 219.99 381.19 218.98 380.45 217.99 379.68 C 217.00 378.92 216.03 378.13 215.08 377.31 C 214.13 376.50 213.20 375.66 212.29 374.80 C 211.38 373.94 210.49 373.06 209.62 372.16 C 208.76 371.26 207.91 370.33 207.09 369.39 C 206.27 368.44 205.47 367.48 204.70 366.50 C 203.93 365.51 203.18 364.51 202.45 363.49 C 201.73 362.47 201.03 361.43 200.35 360.38 C 199.68 359.32 199.03 358.25 198.41 357.17 C 197.79 356.08 197.20 354.98 196.63 353.87 C 196.06 352.75 195.52 351.62 195.01 350.48 C 194.50 349.34 194.02 348.18 193.56 347.02 C 193.10 345.85 192.68 344.67 192.28 343.49 C 191.88 342.30 191.51 341.11 191.18 339.90 C 190.84 338.70 190.53 337.48 190.25 336.26 C 189.97 335.05 189.72 333.82 189.50 332.59 C 189.28 331.35 189.09 330.12 188.93 328.88 C 188.77 327.64 188.65 326.39 188.55 325.14 C 188.45 323.90 188.38 322.65 188.35 321.39 C 188.31 320.14 188.31 318.89 188.33 317.64 C 188.36 316.39 188.41 315.14 188.50 313.89 C 188.58 312.64 188.70 311.40 188.85 310.15 C 189.00 308.91 189.17 307.67 189.38 306.44 C 189.59 305.21 189.83 303.98 190.10 302.76 C 190.37 301.53 190.66 300.32 190.99 299.11 C 191.32 297.90 191.68 296.70 192.06 295.51 C 192.45 294.32 192.87 293.14 193.31 291.97 C 193.76 290.80 194.23 289.65 194.73 288.50 C 195.23 287.35 195.76 286.22 196.32 285.10 C 196.88 283.98 197.46 282.87 198.07 281.78 C 198.68 280.69 199.32 279.61 199.99 278.55 C 200.65 277.49 201.34 276.45 202.06 275.42 C 202.77 274.39 203.51 273.38 204.28 272.39 C 205.04 271.40 205.83 270.43 206.64 269.48 C 207.46 268.53 208.29 267.60 209.15 266.69 C 210.01 265.78 210.89 264.89 211.79 264.02 C 212.69 263.15 213.61 262.31 214.56 261.49 C 215.50 260.66 216.46 259.86 217.45 259.09 C 218.43 258.31 219.43 257.56 220.45 256.84 C 221.47 256.11 222.51 255.41 223.56 254.74 C 224.61 254.06 225.68 253.41 226.77 252.79 C 227.86 252.17 228.96 251.57 230.07 251.00 C 231.18 250.43 232.31 249.89 233.45 249.38 C 234.60 248.87 235.75 248.38 236.91 247.93 C 238.08 247.47 239.25 247.04 240.44 246.64 C 241.63 246.24 242.82 245.87 244.03 245.53 C 245.23 245.19 246.44 244.88 247.66 244.60 C 248.88 244.32 250.11 244.07 251.34 243.85 C 252.57 243.63 253.81 243.44 255.05 243.28 C 256.29 243.12 257.53 242.99 258.78 242.89 Z" fill="#000000" fill-rule="nonzero" node-id="151" stroke="none" target-height="153.07364" target-width="153.07233" target-x="188.30533" target-y="242.637"></path><path d="M 256.50 247.66 C 257.67 247.52 258.85 247.42 260.03 247.34 C 261.20 247.26 262.38 247.21 263.56 247.19 C 264.74 247.17 265.92 247.18 267.10 247.22 C 268.28 247.26 269.46 247.33 270.64 247.43 C 271.82 247.52 272.99 247.65 274.16 247.80 C 275.33 247.96 276.50 248.14 277.66 248.35 C 278.82 248.56 279.97 248.80 281.12 249.07 C 282.27 249.34 283.42 249.64 284.55 249.96 C 285.69 250.29 286.81 250.64 287.93 251.02 C 289.05 251.40 290.15 251.81 291.25 252.24 C 292.35 252.67 293.44 253.14 294.51 253.62 C 295.59 254.11 296.65 254.63 297.70 255.16 C 298.75 255.71 299.79 256.27 300.81 256.86 C 301.83 257.45 302.84 258.07 303.83 258.71 C 304.82 259.35 305.79 260.01 306.75 260.70 C 307.71 261.39 308.65 262.10 309.58 262.83 C 310.50 263.57 311.41 264.33 312.30 265.11 C 313.18 265.88 314.05 266.69 314.90 267.51 C 315.74 268.33 316.57 269.17 317.38 270.03 C 318.18 270.90 318.97 271.78 319.73 272.68 C 320.50 273.58 321.24 274.50 321.95 275.43 C 322.67 276.37 323.37 277.33 324.04 278.30 C 324.71 279.27 325.35 280.26 325.98 281.26 C 326.60 282.26 327.20 283.28 327.77 284.31 C 328.34 285.34 328.89 286.39 329.41 287.45 C 329.93 288.51 330.42 289.58 330.89 290.66 C 331.36 291.75 331.80 292.84 332.22 293.95 C 332.63 295.05 333.02 296.17 333.38 297.29 C 333.74 298.42 334.07 299.55 334.38 300.69 C 334.68 301.83 334.95 302.98 335.20 304.13 C 335.45 305.29 335.67 306.45 335.86 307.61 C 336.05 308.78 336.21 309.95 336.35 311.12 C 336.48 312.29 336.58 313.47 336.66 314.64 C 336.74 315.82 336.78 317.00 336.80 318.18 C 336.82 319.36 336.81 320.54 336.77 321.72 C 336.73 322.90 336.66 324.08 336.56 325.26 C 336.46 326.43 336.33 327.61 336.18 328.78 C 336.02 329.95 335.84 331.11 335.62 332.27 C 335.41 333.44 335.17 334.59 334.90 335.74 C 334.63 336.89 334.33 338.03 334.01 339.17 C 333.68 340.30 333.33 341.43 332.94 342.54 C 332.56 343.66 332.15 344.77 331.72 345.86 C 331.28 346.96 330.82 348.05 330.33 349.12 C 329.84 350.20 329.33 351.26 328.79 352.31 C 328.24 353.36 327.68 354.39 327.09 355.41 C 326.49 356.43 325.88 357.44 325.24 358.43 C 324.59 359.42 323.93 360.40 323.24 361.36 C 322.55 362.31 321.84 363.25 321.10 364.18 C 320.37 365.10 319.61 366.01 318.83 366.89 C 318.05 367.78 317.25 368.64 316.42 369.49 C 315.60 370.34 314.76 371.16 313.89 371.97 C 313.03 372.77 312.15 373.56 311.25 374.32 C 310.35 375.08 309.43 375.82 308.49 376.54 C 307.55 377.25 306.59 377.95 305.62 378.62 C 304.65 379.29 303.66 379.93 302.66 380.55 C 301.65 381.17 300.63 381.77 299.60 382.34 C 298.57 382.91 297.52 383.46 296.46 383.98 C 295.40 384.50 294.33 384.99 293.25 385.46 C 292.16 385.92 291.07 386.36 289.96 386.78 C 288.85 387.19 287.74 387.58 286.61 387.94 C 285.49 388.29 284.36 388.62 283.22 388.93 C 282.07 389.23 280.93 389.50 279.77 389.75 C 278.62 390.00 277.46 390.21 276.29 390.40 C 275.13 390.59 273.96 390.75 272.79 390.89 C 271.61 391.02 270.44 391.12 269.26 391.19 C 268.09 391.27 266.91 391.31 265.73 391.33 C 264.55 391.35 263.38 391.33 262.20 391.29 C 261.02 391.25 259.84 391.18 258.67 391.08 C 257.49 390.98 256.32 390.85 255.15 390.70 C 253.99 390.54 252.82 390.36 251.66 390.14 C 250.50 389.93 249.35 389.69 248.20 389.42 C 247.06 389.15 245.92 388.85 244.78 388.52 C 243.65 388.20 242.53 387.84 241.41 387.46 C 240.30 387.08 239.19 386.67 238.10 386.24 C 237.00 385.80 235.92 385.34 234.84 384.85 C 233.77 384.36 232.71 383.85 231.66 383.31 C 230.62 382.76 229.58 382.20 228.57 381.61 C 227.55 381.01 226.54 380.40 225.55 379.76 C 224.56 379.12 223.59 378.45 222.63 377.76 C 221.68 377.08 220.74 376.36 219.81 375.63 C 218.89 374.90 217.99 374.14 217.10 373.36 C 216.22 372.58 215.36 371.78 214.51 370.96 C 213.66 370.14 212.84 369.30 212.04 368.44 C 211.23 367.57 210.45 366.69 209.69 365.79 C 208.93 364.89 208.19 363.97 207.47 363.04 C 206.76 362.10 206.06 361.15 205.40 360.18 C 204.73 359.21 204.08 358.22 203.46 357.22 C 202.84 356.22 202.24 355.20 201.67 354.17 C 201.10 353.14 200.56 352.09 200.04 351.04 C 199.52 349.98 199.02 348.91 198.56 347.83 C 198.09 346.74 197.65 345.65 197.24 344.55 C 196.82 343.44 196.44 342.33 196.08 341.21 C 195.72 340.08 195.39 338.95 195.09 337.81 C 194.78 336.68 194.51 335.53 194.26 334.38 C 194.01 333.23 193.79 332.07 193.60 330.90 C 193.41 329.74 193.25 328.57 193.12 327.40 C 192.98 326.23 192.88 325.06 192.80 323.88 C 192.73 322.71 192.68 321.53 192.66 320.35 C 192.65 319.17 192.66 317.99 192.70 316.81 C 192.74 315.64 192.81 314.46 192.90 313.29 C 193.00 312.11 193.13 310.94 193.28 309.77 C 193.44 308.60 193.62 307.44 193.83 306.28 C 194.05 305.12 194.29 303.97 194.56 302.82 C 194.82 301.67 195.12 300.53 195.45 299.40 C 195.77 298.27 196.12 297.14 196.50 296.03 C 196.88 294.91 197.29 293.80 197.72 292.71 C 198.16 291.61 198.62 290.53 199.11 289.45 C 199.59 288.38 200.11 287.32 200.65 286.27 C 201.19 285.23 201.75 284.19 202.34 283.17 C 202.93 282.15 203.55 281.15 204.19 280.16 C 204.83 279.17 205.49 278.19 206.18 277.23 C 206.86 276.28 207.57 275.34 208.31 274.41 C 209.04 273.49 209.80 272.59 210.57 271.70 C 211.35 270.82 212.15 269.95 212.97 269.10 C 213.79 268.26 214.63 267.43 215.49 266.63 C 216.35 265.82 217.23 265.04 218.13 264.27 C 219.03 263.51 219.95 262.77 220.88 262.06 C 221.82 261.34 222.77 260.65 223.74 259.98 C 224.71 259.31 225.70 258.66 226.70 258.04 C 227.70 257.41 228.71 256.82 229.74 256.25 C 230.77 255.67 231.82 255.13 232.88 254.61 C 233.93 254.09 235.00 253.59 236.08 253.12 C 237.17 252.65 238.26 252.21 239.36 251.80 C 240.46 251.38 241.58 250.99 242.70 250.63 C 243.82 250.27 244.95 249.94 246.09 249.64 C 247.23 249.33 248.37 249.05 249.53 248.81 C 250.68 248.56 251.84 248.34 253.00 248.15 C 254.16 247.95 255.33 247.79 256.50 247.66 Z" fill="#fefefe" fill-rule="nonzero" node-id="153" stroke="none" target-height="144.17201" target-width="144.172" target-x="192.646" target-y="247.17467"></path><path d="M 258.91 251.76 C 260.02 251.67 261.13 251.60 262.24 251.57 C 263.35 251.53 264.46 251.52 265.57 251.54 C 266.68 251.56 267.79 251.60 268.90 251.67 C 270.01 251.74 271.12 251.84 272.22 251.97 C 273.32 252.09 274.42 252.25 275.52 252.43 C 276.62 252.61 277.71 252.81 278.79 253.05 C 279.88 253.28 280.96 253.54 282.03 253.82 C 283.11 254.11 284.17 254.42 285.23 254.76 C 286.29 255.10 287.34 255.46 288.38 255.85 C 289.42 256.24 290.45 256.66 291.47 257.10 C 292.49 257.54 293.50 258.00 294.50 258.49 C 295.49 258.98 296.48 259.49 297.45 260.03 C 298.42 260.57 299.38 261.13 300.32 261.71 C 301.27 262.30 302.20 262.90 303.12 263.54 C 304.03 264.17 304.93 264.82 305.81 265.49 C 306.70 266.17 307.56 266.86 308.41 267.58 C 309.26 268.29 310.09 269.03 310.90 269.79 C 311.72 270.54 312.51 271.32 313.29 272.12 C 314.06 272.91 314.82 273.73 315.55 274.56 C 316.29 275.39 317.00 276.24 317.69 277.11 C 318.39 277.98 319.06 278.86 319.71 279.76 C 320.36 280.66 320.99 281.58 321.59 282.51 C 322.20 283.44 322.78 284.39 323.34 285.35 C 323.90 286.31 324.44 287.28 324.95 288.27 C 325.46 289.25 325.95 290.25 326.41 291.26 C 326.87 292.27 327.31 293.29 327.72 294.32 C 328.13 295.35 328.52 296.40 328.88 297.45 C 329.25 298.50 329.58 299.55 329.89 300.62 C 330.20 301.69 330.48 302.76 330.74 303.84 C 331.00 304.92 331.23 306.01 331.44 307.10 C 331.64 308.19 331.82 309.29 331.97 310.39 C 332.12 311.49 332.24 312.60 332.34 313.70 C 332.43 314.81 332.50 315.92 332.55 317.03 C 332.59 318.14 332.60 319.25 332.59 320.36 C 332.58 321.47 332.54 322.58 332.47 323.69 C 332.41 324.80 332.31 325.90 332.19 327.01 C 332.07 328.11 331.93 329.21 331.75 330.31 C 331.58 331.41 331.38 332.50 331.15 333.59 C 330.92 334.67 330.67 335.76 330.38 336.83 C 330.10 337.91 329.80 338.97 329.46 340.03 C 329.13 341.09 328.77 342.14 328.39 343.19 C 328.00 344.23 327.59 345.26 327.16 346.28 C 326.72 347.31 326.26 348.32 325.78 349.32 C 325.30 350.32 324.79 351.30 324.25 352.28 C 323.72 353.25 323.16 354.21 322.58 355.16 C 322.01 356.11 321.40 357.04 320.78 357.96 C 320.15 358.88 319.50 359.78 318.83 360.67 C 318.16 361.55 317.47 362.42 316.76 363.27 C 316.05 364.13 315.32 364.96 314.56 365.78 C 313.81 366.60 313.04 367.39 312.25 368.17 C 311.45 368.95 310.64 369.71 309.81 370.45 C 308.98 371.19 308.14 371.91 307.27 372.61 C 306.41 373.30 305.53 373.98 304.63 374.63 C 303.73 375.29 302.82 375.92 301.89 376.53 C 300.96 377.14 300.02 377.73 299.06 378.29 C 298.11 378.86 297.14 379.40 296.15 379.91 C 295.17 380.43 294.17 380.92 293.17 381.39 C 292.16 381.86 291.14 382.30 290.11 382.72 C 289.08 383.13 288.04 383.53 286.99 383.89 C 285.94 384.26 284.89 384.60 283.82 384.92 C 282.76 385.23 281.68 385.52 280.60 385.78 C 279.52 386.05 278.44 386.28 277.35 386.49 C 276.26 386.70 275.16 386.88 274.06 387.04 C 272.96 387.20 271.86 387.32 270.75 387.43 C 269.64 387.53 268.52 387.60 267.41 387.65 C 266.29 387.70 265.17 387.72 264.06 387.71 C 262.94 387.71 261.82 387.67 260.70 387.61 C 259.59 387.55 258.48 387.46 257.36 387.34 C 256.25 387.22 255.14 387.08 254.04 386.91 C 252.93 386.73 251.83 386.54 250.74 386.31 C 249.65 386.08 248.56 385.83 247.48 385.55 C 246.39 385.27 245.32 384.97 244.25 384.63 C 243.18 384.30 242.12 383.94 241.07 383.56 C 240.03 383.17 238.99 382.76 237.96 382.33 C 236.93 381.89 235.91 381.43 234.90 380.94 C 233.90 380.46 232.90 379.95 231.92 379.41 C 230.94 378.88 229.97 378.32 229.02 377.74 C 228.06 377.15 227.12 376.55 226.20 375.92 C 225.27 375.29 224.37 374.64 223.48 373.96 C 222.58 373.29 221.71 372.60 220.85 371.88 C 219.99 371.16 219.15 370.43 218.33 369.67 C 217.51 368.91 216.71 368.13 215.92 367.33 C 215.14 366.54 214.38 365.72 213.63 364.89 C 212.89 364.05 212.17 363.20 211.47 362.33 C 210.77 361.46 210.09 360.57 209.43 359.67 C 208.77 358.76 208.14 357.84 207.53 356.91 C 206.91 355.97 206.33 355.02 205.76 354.06 C 205.19 353.09 204.65 352.11 204.14 351.12 C 203.62 350.13 203.13 349.13 202.66 348.11 C 202.19 347.10 201.75 346.07 201.33 345.04 C 200.91 344.00 200.52 342.95 200.16 341.89 C 199.79 340.84 199.45 339.77 199.14 338.70 C 198.83 337.63 198.54 336.55 198.28 335.46 C 198.02 334.37 197.79 333.28 197.58 332.18 C 197.37 331.08 197.19 329.98 197.04 328.87 C 196.89 327.77 196.77 326.65 196.67 325.54 C 196.57 324.43 196.50 323.31 196.46 322.19 C 196.42 321.08 196.40 319.96 196.42 318.84 C 196.43 317.72 196.47 316.61 196.54 315.49 C 196.60 314.38 196.70 313.26 196.82 312.15 C 196.94 311.04 197.09 309.93 197.27 308.83 C 197.45 307.73 197.65 306.63 197.88 305.53 C 198.12 304.44 198.37 303.35 198.66 302.27 C 198.94 301.19 199.25 300.12 199.59 299.05 C 199.93 297.99 200.29 296.93 200.68 295.88 C 201.07 294.83 201.49 293.80 201.93 292.77 C 202.37 291.74 202.84 290.73 203.33 289.72 C 203.82 288.72 204.33 287.73 204.87 286.75 C 205.41 285.77 205.98 284.80 206.56 283.85 C 207.15 282.90 207.76 281.97 208.39 281.04 C 209.03 280.12 209.68 279.22 210.36 278.33 C 211.04 277.44 211.74 276.57 212.46 275.71 C 213.18 274.86 213.92 274.02 214.68 273.21 C 215.44 272.39 216.23 271.59 217.03 270.81 C 217.83 270.03 218.65 269.27 219.49 268.53 C 220.33 267.79 221.18 267.08 222.06 266.38 C 222.93 265.68 223.82 265.01 224.73 264.35 C 225.64 263.70 226.56 263.07 227.50 262.46 C 228.43 261.86 229.39 261.27 230.36 260.71 C 231.32 260.15 232.30 259.61 233.30 259.10 C 234.29 258.59 235.29 258.10 236.31 257.64 C 237.33 257.18 238.36 256.74 239.40 256.33 C 240.44 255.91 241.48 255.53 242.54 255.17 C 243.60 254.81 244.67 254.47 245.74 254.16 C 246.82 253.86 247.90 253.58 248.99 253.32 C 250.08 253.07 251.17 252.84 252.27 252.64 C 253.37 252.44 254.47 252.26 255.58 252.12 C 256.69 251.97 257.80 251.85 258.91 251.76 Z" fill="#000000" fill-rule="nonzero" node-id="155" stroke="none" target-height="136.20032" target-width="136.20068" target-x="196.40332" target-y="251.52002"></path><path d="M 272.09 256.38 C 273.12 256.50 274.14 256.65 275.17 256.82 C 276.19 257.00 277.20 257.19 278.21 257.42 C 279.23 257.64 280.23 257.89 281.23 258.16 C 282.23 258.43 283.23 258.73 284.21 259.05 C 285.20 259.37 286.17 259.72 287.14 260.09 C 288.11 260.45 289.07 260.85 290.02 261.26 C 290.97 261.68 291.91 262.12 292.84 262.58 C 293.76 263.04 294.68 263.52 295.58 264.03 C 296.49 264.53 297.38 265.06 298.26 265.61 C 299.14 266.16 300.00 266.73 300.86 267.32 C 301.71 267.91 302.54 268.52 303.36 269.15 C 304.18 269.79 304.99 270.44 305.78 271.11 C 306.57 271.78 307.34 272.47 308.10 273.18 C 308.85 273.89 309.59 274.62 310.31 275.36 C 311.03 276.11 311.73 276.87 312.42 277.65 C 313.10 278.43 313.76 279.22 314.41 280.04 C 315.05 280.85 315.68 281.67 316.28 282.52 C 316.88 283.36 317.47 284.21 318.03 285.08 C 318.59 285.96 319.13 286.84 319.65 287.74 C 320.17 288.63 320.67 289.54 321.14 290.46 C 321.62 291.38 322.07 292.32 322.50 293.26 C 322.93 294.20 323.34 295.16 323.72 296.12 C 324.10 297.08 324.46 298.05 324.80 299.04 C 325.13 300.02 325.44 301.00 325.73 302.00 C 326.02 302.99 326.28 304.00 326.52 305.00 C 326.76 306.01 326.97 307.03 327.16 308.05 C 327.35 309.07 327.52 310.09 327.66 311.12 C 327.80 312.14 327.91 313.17 328.00 314.20 C 328.09 315.24 328.15 316.27 328.19 317.31 C 328.23 318.34 328.24 319.38 328.23 320.42 C 328.22 321.45 328.18 322.49 328.12 323.52 C 328.06 324.56 327.97 325.59 327.86 326.62 C 327.74 327.65 327.61 328.68 327.44 329.70 C 327.28 330.72 327.09 331.74 326.88 332.75 C 326.67 333.77 326.43 334.78 326.17 335.78 C 325.91 336.78 325.62 337.78 325.31 338.77 C 325.00 339.76 324.67 340.74 324.31 341.71 C 323.95 342.68 323.57 343.65 323.17 344.60 C 322.76 345.56 322.33 346.50 321.88 347.43 C 321.43 348.36 320.96 349.29 320.46 350.20 C 319.97 351.11 319.45 352.00 318.91 352.89 C 318.37 353.77 317.81 354.64 317.23 355.50 C 316.64 356.36 316.04 357.20 315.42 358.03 C 314.80 358.86 314.15 359.67 313.49 360.47 C 312.83 361.26 312.15 362.04 311.44 362.81 C 310.74 363.57 310.03 364.32 309.29 365.05 C 308.55 365.77 307.80 366.48 307.02 367.18 C 306.25 367.87 305.46 368.54 304.66 369.19 C 303.86 369.85 303.04 370.48 302.20 371.09 C 301.36 371.71 300.51 372.30 299.65 372.87 C 298.79 373.44 297.91 373.99 297.02 374.52 C 296.13 375.05 295.22 375.56 294.31 376.04 C 293.39 376.53 292.46 376.99 291.52 377.43 C 290.59 377.87 289.64 378.29 288.68 378.68 C 287.72 379.07 286.75 379.44 285.78 379.79 C 284.80 380.14 283.81 380.46 282.82 380.76 C 281.83 381.06 280.83 381.33 279.82 381.58 C 278.82 381.83 277.81 382.05 276.79 382.25 C 275.77 382.45 274.75 382.63 273.73 382.78 C 272.70 382.93 271.67 383.06 270.64 383.16 C 269.61 383.26 268.58 383.33 267.54 383.38 C 266.51 383.43 265.47 383.46 264.44 383.46 C 263.40 383.46 262.36 383.43 261.33 383.38 C 260.29 383.33 259.26 383.25 258.23 383.15 C 257.53 383.08 256.83 383.00 256.14 382.91 C 255.45 382.82 254.75 382.72 254.06 382.60 C 253.37 382.49 252.68 382.36 252.00 382.23 C 251.31 382.09 250.62 381.94 249.94 381.78 C 249.26 381.62 248.58 381.45 247.90 381.27 C 247.23 381.09 246.55 380.89 245.88 380.69 C 245.21 380.48 244.55 380.27 243.88 380.04 C 243.22 379.82 242.56 379.58 241.91 379.33 C 241.25 379.08 240.60 378.83 239.95 378.56 C 239.31 378.29 238.66 378.01 238.03 377.72 C 237.39 377.43 236.76 377.13 236.13 376.81 C 235.50 376.50 234.88 376.18 234.26 375.85 C 233.65 375.52 233.03 375.18 232.43 374.82 C 231.82 374.47 231.22 374.11 230.63 373.74 C 230.04 373.37 229.45 372.99 228.87 372.60 C 228.29 372.20 227.71 371.80 227.14 371.39 C 226.58 370.98 226.01 370.56 225.46 370.13 C 224.91 369.71 224.36 369.27 223.82 368.82 C 223.28 368.38 222.75 367.92 222.22 367.46 C 221.70 366.99 221.18 366.52 220.67 366.04 C 220.16 365.56 219.66 365.07 219.17 364.57 C 218.67 364.07 218.19 363.57 217.71 363.05 C 217.24 362.54 216.77 362.02 216.31 361.49 C 215.85 360.96 215.40 360.43 214.96 359.88 C 214.52 359.34 214.08 358.79 213.66 358.23 C 213.24 357.67 212.82 357.11 212.42 356.53 C 212.01 355.96 211.62 355.38 211.23 354.80 C 210.85 354.21 210.47 353.62 210.10 353.03 C 209.74 352.43 209.38 351.83 209.04 351.22 C 208.69 350.61 208.35 349.99 208.03 349.37 C 207.70 348.75 207.39 348.13 207.08 347.50 C 206.77 346.87 206.48 346.23 206.20 345.59 C 205.91 344.95 205.64 344.31 205.37 343.66 C 205.11 343.01 204.86 342.36 204.62 341.70 C 204.37 341.04 204.14 340.38 203.92 339.71 C 203.70 339.05 203.49 338.38 203.30 337.71 C 203.10 337.04 202.91 336.36 202.74 335.68 C 202.56 335.01 202.40 334.32 202.24 333.64 C 202.09 332.96 201.95 332.27 201.82 331.58 C 201.69 330.90 201.57 330.20 201.46 329.51 C 201.35 328.82 201.25 328.13 201.17 327.43 C 201.08 326.74 201.01 326.04 200.95 325.34 C 200.88 324.64 200.83 323.95 200.80 323.25 C 200.76 322.55 200.73 321.85 200.71 321.15 C 200.70 320.45 200.69 319.75 200.70 319.05 C 200.71 318.35 200.72 317.64 200.75 316.94 C 200.78 316.24 200.83 315.55 200.88 314.85 C 200.93 314.15 201.00 313.45 201.07 312.75 C 201.15 312.06 201.24 311.36 201.34 310.67 C 201.44 309.98 201.55 309.29 201.67 308.60 C 201.79 307.91 201.92 307.22 202.07 306.53 C 202.21 305.85 202.37 305.16 202.53 304.48 C 202.70 303.80 202.88 303.13 203.07 302.45 C 203.26 301.78 203.46 301.11 203.67 300.44 C 203.88 299.77 204.10 299.11 204.34 298.45 C 204.57 297.79 204.82 297.13 205.07 296.48 C 205.32 295.82 205.59 295.18 205.87 294.53 C 206.14 293.89 206.43 293.25 206.73 292.62 C 207.03 291.98 207.33 291.35 207.65 290.73 C 207.97 290.10 208.30 289.48 208.64 288.87 C 208.97 288.26 209.32 287.65 209.68 287.05 C 210.04 286.45 210.41 285.85 210.79 285.26 C 211.16 284.67 211.55 284.09 211.95 283.51 C 212.35 282.93 212.75 282.36 213.17 281.80 C 213.59 281.24 214.01 280.68 214.45 280.13 C 214.88 279.58 215.32 279.04 215.78 278.50 C 216.23 277.97 216.69 277.44 217.16 276.92 C 217.63 276.40 218.11 275.89 218.59 275.39 C 219.08 274.88 219.58 274.39 220.08 273.90 C 220.58 273.41 221.09 272.93 221.61 272.46 C 222.13 271.99 222.66 271.53 223.19 271.08 C 223.72 270.62 224.27 270.18 224.81 269.74 C 225.36 269.31 225.92 268.88 226.48 268.46 C 227.04 268.05 227.61 267.64 228.19 267.24 C 228.77 266.84 229.35 266.45 229.94 266.07 C 230.53 265.69 231.12 265.33 231.72 264.97 C 232.32 264.61 232.93 264.26 233.54 263.92 C 234.16 263.58 234.77 263.25 235.40 262.93 C 236.02 262.61 236.65 262.30 237.28 262.00 C 237.92 261.70 238.55 261.41 239.20 261.14 C 239.84 260.86 240.49 260.59 241.14 260.34 C 241.79 260.08 242.45 259.83 243.11 259.60 C 243.77 259.37 244.43 259.14 245.10 258.93 C 245.77 258.72 246.44 258.51 247.11 258.32 C 247.79 258.13 248.46 257.95 249.14 257.79 C 249.82 257.62 250.51 257.46 251.19 257.31 C 251.88 257.17 252.56 257.03 253.25 256.91 C 253.94 256.79 254.63 256.68 255.33 256.58 C 256.02 256.48 256.72 256.39 257.41 256.31 C 258.11 256.23 258.81 256.17 259.50 256.11 C 260.20 256.06 260.90 256.01 261.60 255.98 C 262.30 255.95 263.00 255.93 263.70 255.92 C 264.40 255.91 265.10 255.92 265.80 255.93 C 266.50 255.95 267.20 255.97 267.90 256.01 C 268.60 256.05 269.30 256.10 270.00 256.16 C 270.70 256.22 271.39 256.29 272.09 256.38 Z" fill="#fefefe" fill-rule="nonzero" node-id="157" stroke="none" target-height="127.54266" target-width="127.55" target-x="200.69234" target-y="255.914"></path><path d="M 259.77 267.38 L 262.01 268.14 C 262.26 268.44 262.62 268.68 262.76 269.04 C 263.19 270.18 266.67 317.51 266.62 322.30 C 270.62 321.86 280.10 318.53 283.10 320.45 C 283.26 321.18 283.49 321.36 283.06 322.06 C 281.66 324.28 278.73 324.37 276.38 324.79 C 271.80 326.06 267.04 327.51 262.30 327.96 C 260.45 328.13 258.89 328.19 257.42 326.99 L 257.48 325.90 C 259.02 324.44 261.10 323.92 263.06 323.21 C 262.90 308.71 256.75 280.02 259.77 267.38 Z" fill="#000000" fill-rule="nonzero" node-id="159" stroke="none" target-height="60.806976" target-width="26.742004" target-x="256.748" target-y="267.385"></path><path d="M 316.06 305.62 C 317.24 305.90 317.94 306.07 318.85 306.89 L 318.48 308.02 C 316.43 310.06 313.90 310.53 311.16 311.01 C 309.84 310.81 308.95 310.57 307.97 309.65 C 308.07 308.98 307.96 308.99 308.40 308.50 C 310.30 306.37 313.41 306.05 316.06 305.62 Z" fill="#000000" fill-rule="nonzero" node-id="161" stroke="none" target-height="5.383026" target-width="10.891998" target-x="307.959" target-y="305.623"></path><path d="M 266.13 359.24 C 267.01 359.29 267.81 359.44 268.67 359.63 C 270.65 361.89 270.08 366.42 270.18 369.33 C 269.97 369.32 269.75 369.34 269.54 369.31 C 268.08 369.12 267.44 368.92 266.52 367.74 C 265.03 365.82 265.72 361.46 266.13 359.24 Z" fill="#000000" fill-rule="nonzero" node-id="163" stroke="none" target-height="10.094025" target-width="5.621002" target-x="265.033" target-y="359.241"></path><path d="M 213.01 318.59 C 214.35 318.81 215.08 319.14 215.94 320.14 L 215.60 321.20 C 214.12 322.74 212.34 323.01 210.35 323.51 C 209.14 323.34 208.52 322.94 207.77 322.07 L 208.16 320.80 C 209.75 319.34 210.92 319.03 213.01 318.59 Z" fill="#000000" fill-rule="nonzero" node-id="165" stroke="none" target-height="4.914978" target-width="8.172974" target-x="207.76602" target-y="318.592"></path><path d="M 480.07 180.86 C 481.46 180.91 483.15 180.92 483.86 182.31 C 485.35 185.20 485.03 190.36 485.50 193.62 C 487.09 204.79 493.26 220.22 502.33 227.44 C 510.26 233.75 519.10 229.46 527.86 228.47 C 529.01 228.93 529.48 228.82 530.07 229.96 C 528.38 231.86 526.02 233.32 523.99 234.87 C 519.89 237.99 515.99 241.67 513.35 246.14 C 508.67 254.07 506.52 268.15 507.50 277.22 C 507.93 281.11 509.87 285.05 509.33 288.99 C 508.42 290.08 508.35 290.20 506.99 290.59 C 504.02 289.08 502.40 282.69 500.92 279.61 C 480.38 244.40 448.81 269.54 442.01 266.60 L 441.79 265.83 C 443.71 261.72 448.68 258.16 451.71 254.76 C 457.64 248.09 463.41 239.55 467.00 231.42 C 471.62 220.99 476.31 209.69 478.13 198.38 C 478.79 194.29 477.90 185.73 478.87 182.60 C 479.02 182.12 479.76 181.31 480.07 180.86 Z M 452.99 260.09 C 464.96 256.91 478.39 254.89 489.62 261.48 C 491.27 262.43 492.85 263.48 494.36 264.63 C 497.32 267.30 499.85 270.17 502.38 273.24 C 503.05 260.75 504.98 245.54 514.97 236.70 C 515.36 236.36 515.75 236.03 516.14 235.70 L 515.91 235.20 C 515.76 235.22 515.61 235.25 515.46 235.26 C 509.49 235.89 502.37 233.53 497.86 229.67 C 492.83 225.37 488.66 218.12 486.16 212.05 C 485.04 209.32 483.80 203.18 481.88 201.30 C 478.59 216.70 472.99 233.18 463.94 246.21 C 460.57 251.08 456.43 255.31 452.99 260.09 Z" fill="#000000" fill-rule="nonzero" node-id="167" stroke="none" target-height="109.731995" target-width="88.28" target-x="441.79398" target-y="180.862"></path><path d="M 673.15 338.43 C 673.51 335.02 673.77 331.67 673.68 328.24 C 673.53 322.73 671.74 315.32 673.84 310.13 C 674.58 309.92 674.44 309.81 675.11 310.15 C 678.93 312.12 681.52 327.75 683.13 332.26 L 683.37 332.91 C 686.66 340.59 690.86 348.39 699.08 351.72 C 711.04 356.58 721.80 346.69 726.49 350.81 C 726.45 351.94 726.47 351.98 725.67 352.72 C 723.03 355.18 718.66 356.18 715.57 358.06 C 705.45 364.19 702.59 376.84 701.67 387.71 C 701.47 390.12 701.23 392.61 701.25 395.03 C 701.29 399.37 703.43 405.77 701.48 409.72 C 700.46 410.30 699.99 410.38 698.82 410.30 C 695.47 406.87 694.72 402.14 692.99 397.82 C 688.32 386.20 678.88 376.42 665.70 376.31 C 660.72 376.26 652.93 378.00 648.48 375.82 L 648.18 374.91 C 651.22 372.16 655.08 370.19 658.43 367.80 C 668.93 360.30 671.41 350.63 673.15 338.43 Z M 696.94 393.95 C 696.90 391.90 696.90 389.84 696.93 387.78 C 697.16 377.92 699.92 365.28 707.43 358.29 C 708.11 357.66 708.45 357.43 708.88 356.60 C 704.84 357.33 701.55 356.90 697.69 355.54 C 688.61 352.35 683.01 344.33 679.06 335.98 L 678.81 333.74 L 678.39 333.72 C 678.00 336.16 677.86 338.49 677.80 340.95 C 676.66 353.58 670.58 363.36 661.04 371.44 L 661.32 371.65 C 662.41 371.36 662.87 371.23 663.99 371.52 C 666.90 372.26 669.92 372.40 672.86 373.01 C 684.24 375.39 690.93 384.88 696.94 393.95 Z" fill="#000000" fill-rule="nonzero" node-id="169" stroke="none" target-height="100.571014" target-width="78.31207" target-x="648.18" target-y="309.81"></path><path d="M 559.55 143.42 L 562.58 144.09 C 564.02 146.96 563.42 153.47 563.80 156.93 C 564.89 166.86 570.30 178.37 580.94 180.79 C 584.05 181.50 589.62 180.87 592.08 182.83 C 591.91 183.80 592.14 183.67 591.47 184.14 C 586.81 187.41 581.39 187.32 575.71 192.27 C 568.24 198.77 567.04 208.50 566.40 217.77 C 565.62 219.20 565.55 219.49 564.13 220.24 C 560.42 218.67 561.20 203.59 556.06 198.86 C 548.92 192.27 546.00 192.30 537.13 189.62 C 536.95 189.32 536.54 189.07 536.59 188.72 C 536.71 187.85 546.90 179.23 548.64 177.19 C 555.08 169.59 556.59 158.75 557.57 149.20 C 557.81 146.76 558.23 145.52 559.55 143.42 Z M 545.24 186.99 C 555.33 192.17 558.29 192.76 563.74 203.60 C 567.23 195.36 570.18 189.42 578.50 185.11 C 572.47 183.43 568.36 180.10 565.31 174.60 C 563.87 172.01 561.87 164.81 560.05 163.23 C 556.91 172.36 553.03 180.88 545.24 186.99 Z" fill="#000000" fill-rule="nonzero" node-id="171" stroke="none" target-height="76.819" target-width="55.606995" target-x="536.538" target-y="143.417"></path><path d="M 322.27 169.11 C 322.93 169.28 323.46 169.49 324.04 169.85 C 328.47 172.63 332.19 176.66 335.92 180.30 C 338.87 183.17 341.75 186.11 344.57 189.11 C 347.38 192.12 350.13 195.18 352.80 198.31 C 355.47 201.45 358.07 204.64 360.60 207.89 C 363.13 211.14 365.58 214.45 367.95 217.81 C 370.33 221.17 372.62 224.59 374.84 228.06 C 377.06 231.53 379.19 235.05 381.25 238.62 C 383.30 242.19 385.28 245.80 387.16 249.46 C 389.05 253.12 390.86 256.82 392.57 260.56 C 395.40 266.73 398.62 273.44 399.89 280.13 C 400.26 282.04 399.98 282.58 398.91 284.18 C 397.77 283.58 397.14 283.29 396.42 282.18 C 394.28 278.86 393.32 273.56 391.81 269.80 C 388.24 260.93 384.02 251.85 379.26 243.54 C 363.84 216.59 344.59 192.33 320.83 172.22 C 320.66 170.84 321.49 170.22 322.27 169.11 Z" fill="#000000" fill-rule="nonzero" node-id="173" stroke="none" target-height="115.070984" target-width="79.60098" target-x="320.656" target-y="169.113"></path><path d="M 682.27 219.25 C 682.50 219.30 682.75 219.33 682.97 219.42 C 684.26 219.90 684.56 220.09 685.11 221.26 C 684.08 224.15 677.13 228.99 674.70 231.23 C 665.68 239.58 657.16 247.86 649.57 257.56 C 644.57 264.03 639.92 270.75 635.63 277.72 C 631.34 284.68 627.42 291.85 623.89 299.23 C 621.10 305.11 619.07 311.81 615.90 317.41 C 615.83 317.54 615.75 317.66 615.68 317.78 C 615.30 317.75 614.83 317.72 614.47 317.61 C 613.15 317.17 613.09 316.88 612.61 315.68 C 613.49 310.63 616.75 304.49 618.88 299.79 C 633.18 268.17 655.50 241.07 682.27 219.25 Z" fill="#000000" fill-rule="nonzero" node-id="175" stroke="none" target-height="98.53401" target-width="72.492004" target-x="612.613" target-y="219.247"></path><path d="M 293.54 471.27 C 293.82 471.34 294.11 471.38 294.38 471.47 C 295.56 471.85 295.69 471.99 296.14 473.05 C 295.66 475.83 286.03 489.79 283.64 493.77 C 272.53 512.24 261.87 530.86 252.84 550.46 C 252.54 550.37 252.23 550.30 251.94 550.18 C 250.70 549.67 250.50 549.42 250.06 548.25 C 254.16 536.12 261.75 524.13 268.09 512.99 C 276.05 498.99 284.02 484.27 293.54 471.27 Z" fill="#000000" fill-rule="nonzero" node-id="177" stroke="none" target-height="79.18497" target-width="46.07898" target-x="250.057" target-y="471.27402"></path><path d="M 354.24 183.68 C 354.82 183.76 355.53 183.82 356.06 184.07 C 362.49 187.09 401.01 241.95 402.16 249.24 C 402.38 250.63 401.60 251.04 400.74 252.00 C 400.53 251.93 400.32 251.87 400.12 251.78 C 397.23 250.50 391.10 237.89 389.35 234.82 C 384.65 226.59 379.56 218.79 373.82 211.25 C 371.84 208.65 353.26 186.71 353.15 186.28 C 352.98 185.56 353.89 184.34 354.24 183.68 Z" fill="#000000" fill-rule="nonzero" node-id="179" stroke="none" target-height="68.321" target-width="49.40204" target-x="352.978" target-y="183.682"></path><path d="M 652.86 227.41 C 653.26 227.38 653.85 227.32 654.25 227.40 C 655.36 227.64 655.72 228.05 656.30 228.92 C 655.38 231.12 651.77 233.70 650.06 235.58 C 645.16 240.96 640.45 246.71 636.04 252.50 C 629.68 260.86 623.71 269.91 618.77 279.18 C 616.68 283.10 613.98 290.28 611.76 293.37 C 610.97 293.16 610.42 292.87 609.71 292.48 C 609.26 291.68 609.01 291.49 609.05 290.53 C 609.22 286.76 612.40 282.33 614.23 279.04 C 624.61 260.37 637.19 242.09 652.86 227.41 Z" fill="#000000" fill-rule="nonzero" node-id="181" stroke="none" target-height="66.055984" target-width="47.291016" target-x="609.009" target-y="227.317"></path><path d="M 711.63 463.71 C 713.56 464.10 714.07 464.93 715.15 466.51 C 718.55 471.49 742.90 511.07 743.23 514.30 C 743.30 514.98 742.98 515.63 742.86 516.30 C 741.99 516.19 741.17 516.00 740.32 515.79 C 739.92 515.35 711.91 468.54 711.15 466.56 C 710.66 465.29 711.11 464.90 711.63 463.71 Z" fill="#000000" fill-rule="nonzero" node-id="183" stroke="none" target-height="52.593994" target-width="32.640015" target-x="710.662" target-y="463.708"></path><path d="M 764.74 250.99 L 765.38 250.92 C 767.67 252.34 768.30 256.51 769.01 259.04 C 764.17 262.90 757.87 265.31 752.18 267.55 C 751.89 267.54 751.61 267.55 751.34 267.50 C 750.09 267.29 749.11 265.51 748.58 264.49 C 747.72 262.85 747.35 260.90 748.08 259.13 C 749.51 255.71 761.15 252.21 764.74 250.99 Z" fill="#000000" fill-rule="nonzero" node-id="185" stroke="none" target-height="16.636002" target-width="21.656921" target-x="747.34906" target-y="250.91798"></path><path d="M 205.82 213.92 C 209.79 214.16 214.58 216.90 217.33 219.78 C 218.58 221.09 219.78 223.07 219.48 224.98 C 219.06 227.72 216.87 229.41 214.79 230.98 C 214.12 231.04 213.70 231.10 213.00 231.08 C 210.35 231.00 205.46 227.20 203.73 225.25 C 202.31 223.66 200.93 221.47 201.32 219.24 C 201.75 216.81 203.90 215.20 205.82 213.92 Z" fill="#000000" fill-rule="nonzero" node-id="187" stroke="none" target-height="17.172989" target-width="18.848007" target-x="200.93" target-y="213.92401"></path><path d="M 419.94 140.96 C 420.94 140.93 422.01 141.14 422.88 141.65 C 424.09 142.35 424.85 143.97 425.22 145.27 C 425.65 146.81 425.31 148.44 424.46 149.77 C 422.12 153.40 415.19 156.54 411.13 157.57 C 410.04 157.49 409.44 157.58 408.58 156.83 C 407.17 155.61 405.84 153.59 405.74 151.70 C 407.18 146.31 415.55 143.83 419.94 140.96 Z" fill="#000000" fill-rule="nonzero" node-id="189" stroke="none" target-height="16.645996" target-width="19.913055" target-x="405.73697" target-y="140.934"></path><path d="M 746.74 530.36 C 747.10 530.33 747.65 530.27 748.01 530.33 C 749.93 530.61 750.93 532.74 751.77 534.28 C 754.60 539.44 762.34 554.92 763.38 559.99 C 763.56 560.87 763.28 561.69 763.04 562.53 C 762.48 562.41 761.90 562.17 761.35 561.98 C 760.44 560.91 747.89 535.74 747.04 533.00 C 746.79 532.15 746.74 531.24 746.74 530.36 Z" fill="#000000" fill-rule="nonzero" node-id="191" stroke="none" target-height="32.25299" target-width="16.825989" target-x="746.736" target-y="530.273"></path><path d="M 242.21 567.66 C 243.41 568.35 243.79 568.43 244.41 569.64 C 243.74 572.28 236.84 587.84 235.33 590.17 C 234.01 589.70 233.70 589.87 232.95 588.62 C 232.93 582.92 238.60 572.14 242.21 567.66 Z" fill="#000000" fill-rule="nonzero" node-id="193" stroke="none" target-height="22.505005" target-width="11.481995" target-x="232.931" target-y="567.665"></path><path d="M 694.94 270.81 C 695.10 270.76 695.25 270.72 695.41 270.70 C 695.57 270.67 695.72 270.65 695.88 270.64 C 696.04 270.64 696.20 270.64 696.36 270.66 C 696.52 270.67 696.68 270.70 696.84 270.73 C 696.99 270.77 697.14 270.82 697.29 270.87 C 697.44 270.93 697.59 271.00 697.73 271.07 C 697.87 271.15 698.00 271.24 698.13 271.33 C 698.26 271.43 698.38 271.53 698.50 271.64 C 698.61 271.75 698.72 271.87 698.82 272.00 C 698.92 272.12 699.01 272.25 699.09 272.39 C 699.17 272.53 699.24 272.67 699.30 272.82 C 699.36 272.97 699.41 273.12 699.46 273.27 C 699.50 273.43 699.53 273.59 699.55 273.74 C 699.57 273.90 699.58 274.06 699.57 274.22 C 699.57 274.38 699.56 274.54 699.54 274.70 C 699.51 274.86 699.48 275.01 699.43 275.17 C 699.39 275.32 699.33 275.47 699.27 275.62 C 699.21 275.76 699.13 275.90 699.05 276.04 C 698.96 276.18 698.87 276.31 698.77 276.43 C 698.67 276.55 698.56 276.67 698.44 276.78 C 698.32 276.89 698.20 276.99 698.07 277.08 C 697.94 277.17 697.80 277.25 697.66 277.33 C 697.52 277.40 697.37 277.46 697.22 277.52 C 697.07 277.57 696.91 277.62 696.76 277.65 C 696.65 277.67 696.54 277.69 696.43 277.70 C 696.31 277.71 696.20 277.72 696.09 277.72 C 695.98 277.72 695.87 277.72 695.76 277.71 C 695.64 277.70 695.53 277.69 695.42 277.67 C 695.31 277.65 695.20 277.63 695.10 277.60 C 694.99 277.57 694.88 277.53 694.78 277.49 C 694.67 277.45 694.57 277.41 694.47 277.36 C 694.37 277.31 694.27 277.25 694.17 277.20 C 694.08 277.14 693.99 277.07 693.90 277.01 C 693.81 276.94 693.72 276.87 693.64 276.79 C 693.56 276.71 693.48 276.64 693.40 276.55 C 693.33 276.47 693.26 276.38 693.19 276.29 C 693.12 276.20 693.06 276.11 693.00 276.01 C 692.94 275.92 692.89 275.82 692.84 275.72 C 692.80 275.62 692.75 275.52 692.71 275.41 C 692.67 275.30 692.64 275.20 692.61 275.09 C 692.58 274.98 692.56 274.87 692.54 274.76 C 692.52 274.65 692.51 274.54 692.50 274.43 C 692.49 274.32 692.49 274.20 692.49 274.09 C 692.50 273.98 692.50 273.87 692.52 273.76 C 692.53 273.65 692.55 273.54 692.57 273.43 C 692.60 273.32 692.63 273.21 692.66 273.10 C 692.70 273.00 692.73 272.89 692.78 272.79 C 692.82 272.68 692.87 272.58 692.92 272.49 C 692.98 272.39 693.04 272.29 693.10 272.20 C 693.16 272.11 693.23 272.02 693.30 271.93 C 693.37 271.84 693.45 271.76 693.53 271.68 C 693.60 271.60 693.69 271.53 693.77 271.45 C 693.86 271.38 693.95 271.32 694.04 271.25 C 694.13 271.19 694.23 271.13 694.33 271.08 C 694.43 271.02 694.53 270.97 694.63 270.93 C 694.73 270.89 694.84 270.85 694.94 270.81 Z" fill="#000000" fill-rule="nonzero" node-id="195" stroke="none" target-height="7.08667" target-width="7.084656" target-x="692.49066" target-y="270.63733"></path><path d="M 329.11 217.88 C 331.14 218.64 334.88 220.31 335.94 222.33 C 336.69 223.75 335.95 224.65 335.41 225.98 C 332.74 224.75 329.75 223.77 328.13 221.19 C 328.00 219.54 328.31 219.28 329.11 217.88 Z" fill="#000000" fill-rule="nonzero" node-id="197" stroke="none" target-height="8.102997" target-width="8.687012" target-x="328.003" target-y="217.88"></path><path d="M 219.73 147.04 C 221.89 146.90 224.25 146.45 226.07 147.85 C 226.49 149.45 226.20 150.09 225.81 151.67 C 224.73 151.91 223.59 152.22 222.49 152.31 C 221.07 152.43 220.43 152.10 219.37 151.23 C 218.90 149.56 219.19 148.67 219.73 147.04 Z" fill="#000000" fill-rule="nonzero" node-id="199" stroke="none" target-height="5.9769897" target-width="7.5820007" target-x="218.903" target-y="146.449"></path><path d="M 654.96 179.39 C 656.08 179.60 656.88 179.87 657.89 180.41 C 658.25 181.08 658.68 181.54 658.62 182.33 C 658.48 184.41 656.99 185.71 655.48 186.94 C 654.71 186.74 653.74 186.45 653.20 185.81 C 652.42 184.91 652.08 183.84 652.30 182.66 C 652.61 181.04 653.69 180.26 654.96 179.39 Z" fill="#000000" fill-rule="nonzero" node-id="201" stroke="none" target-height="7.544983" target-width="6.6019897" target-x="652.077" target-y="179.39401"></path><path d="M 423.48 190.25 C 423.55 190.23 423.62 190.20 423.69 190.19 C 423.77 190.17 423.84 190.15 423.92 190.14 C 423.99 190.13 424.07 190.12 424.15 190.11 C 424.22 190.11 424.30 190.11 424.37 190.11 C 424.45 190.11 424.53 190.12 424.60 190.13 C 424.68 190.13 424.75 190.15 424.83 190.16 C 424.90 190.18 424.97 190.20 425.05 190.22 C 425.12 190.25 425.19 190.27 425.26 190.30 C 425.33 190.33 425.40 190.36 425.47 190.40 C 425.53 190.44 425.60 190.47 425.66 190.52 C 425.73 190.56 425.79 190.60 425.85 190.65 C 425.91 190.70 425.96 190.75 426.02 190.80 C 426.07 190.86 426.13 190.91 426.18 190.97 C 426.22 191.03 426.27 191.09 426.31 191.15 C 426.36 191.21 426.40 191.28 426.44 191.34 C 426.48 191.41 426.51 191.48 426.54 191.54 C 426.57 191.61 426.60 191.68 426.63 191.76 C 426.65 191.83 426.67 191.90 426.69 191.98 C 426.71 192.05 426.73 192.12 426.74 192.20 C 426.75 192.28 426.76 192.35 426.76 192.43 C 426.76 192.50 426.77 192.58 426.76 192.66 C 426.76 192.73 426.75 192.81 426.74 192.88 C 426.73 192.96 426.72 193.03 426.70 193.11 C 426.69 193.18 426.67 193.25 426.64 193.33 C 426.62 193.40 426.59 193.47 426.56 193.54 C 426.53 193.61 426.50 193.68 426.46 193.75 C 426.43 193.81 426.39 193.88 426.34 193.94 C 426.30 194.00 426.25 194.07 426.21 194.12 C 426.16 194.18 426.11 194.24 426.05 194.29 C 426.00 194.35 425.94 194.40 425.89 194.45 C 425.83 194.50 425.77 194.54 425.70 194.59 C 425.64 194.63 425.58 194.67 425.51 194.71 C 425.41 194.76 425.31 194.81 425.20 194.85 C 425.10 194.89 424.99 194.93 424.88 194.96 C 424.77 194.98 424.66 195.00 424.55 195.01 C 424.44 195.02 424.32 195.03 424.21 195.02 C 424.10 195.02 423.98 195.00 423.87 194.99 C 423.76 194.97 423.65 194.94 423.54 194.90 C 423.44 194.87 423.33 194.82 423.23 194.78 C 423.13 194.73 423.03 194.67 422.94 194.61 C 422.84 194.54 422.75 194.47 422.67 194.40 C 422.59 194.32 422.51 194.24 422.43 194.16 C 422.36 194.07 422.29 193.98 422.23 193.88 C 422.17 193.79 422.12 193.69 422.07 193.59 C 422.02 193.48 421.98 193.38 421.95 193.27 C 421.92 193.16 421.90 193.05 421.88 192.94 C 421.86 192.83 421.85 192.71 421.85 192.60 C 421.85 192.49 421.85 192.38 421.87 192.26 C 421.88 192.15 421.90 192.04 421.93 191.93 C 421.96 191.82 422.00 191.71 422.04 191.61 C 422.09 191.51 422.14 191.41 422.19 191.31 C 422.25 191.21 422.32 191.12 422.39 191.03 C 422.46 190.94 422.54 190.86 422.62 190.78 C 422.70 190.70 422.79 190.63 422.88 190.56 C 422.97 190.50 423.07 190.44 423.17 190.39 C 423.27 190.34 423.37 190.29 423.48 190.25 Z" fill="#000000" fill-rule="nonzero" node-id="203" stroke="none" target-height="4.918686" target-width="4.917328" target-x="421.848" target-y="190.107"></path><path d="M 257.86 214.33 C 257.95 214.27 258.05 214.21 258.15 214.16 C 258.25 214.11 258.35 214.06 258.46 214.03 C 258.57 213.99 258.67 213.96 258.79 213.94 C 258.90 213.92 259.01 213.91 259.12 213.90 C 259.23 213.90 259.35 213.90 259.46 213.91 C 259.57 213.92 259.68 213.94 259.79 213.96 C 259.90 213.99 260.01 214.02 260.12 214.06 C 260.22 214.10 260.32 214.15 260.42 214.21 C 260.52 214.26 260.61 214.32 260.70 214.39 C 260.79 214.46 260.88 214.54 260.96 214.62 C 261.04 214.70 261.11 214.78 261.18 214.87 C 261.25 214.96 261.31 215.06 261.36 215.16 C 261.42 215.26 261.46 215.36 261.50 215.46 C 261.54 215.57 261.57 215.68 261.60 215.79 C 261.62 215.90 261.64 216.01 261.65 216.12 C 261.66 216.23 261.66 216.35 261.65 216.46 C 261.65 216.57 261.63 216.68 261.61 216.79 C 261.59 216.90 261.56 217.01 261.52 217.12 C 261.49 217.23 261.44 217.33 261.39 217.43 C 261.34 217.53 261.28 217.63 261.21 217.72 C 261.15 217.81 261.08 217.90 261.00 217.98 C 260.92 218.06 260.84 218.14 260.75 218.21 C 260.66 218.28 260.57 218.35 260.48 218.40 C 260.38 218.46 260.28 218.51 260.17 218.56 C 260.11 218.58 260.04 218.61 259.97 218.63 C 259.90 218.65 259.82 218.67 259.75 218.69 C 259.68 218.71 259.61 218.72 259.53 218.73 C 259.46 218.74 259.38 218.74 259.31 218.74 C 259.24 218.75 259.16 218.74 259.09 218.74 C 259.02 218.74 258.94 218.73 258.87 218.72 C 258.79 218.71 258.72 218.69 258.65 218.67 C 258.58 218.65 258.51 218.63 258.44 218.61 C 258.37 218.59 258.30 218.56 258.23 218.53 C 258.16 218.50 258.10 218.46 258.03 218.43 C 257.97 218.39 257.91 218.35 257.85 218.31 C 257.79 218.26 257.73 218.22 257.67 218.17 C 257.61 218.12 257.56 218.07 257.51 218.02 C 257.45 217.97 257.41 217.91 257.36 217.85 C 257.31 217.80 257.27 217.74 257.23 217.68 C 257.19 217.62 257.15 217.55 257.11 217.49 C 257.08 217.42 257.04 217.36 257.01 217.29 C 256.98 217.22 256.96 217.15 256.93 217.08 C 256.91 217.01 256.89 216.94 256.88 216.87 C 256.86 216.79 256.85 216.72 256.83 216.65 C 256.82 216.57 256.82 216.50 256.81 216.43 C 256.81 216.35 256.81 216.28 256.82 216.21 C 256.82 216.13 256.83 216.06 256.84 215.98 C 256.85 215.91 256.86 215.84 256.88 215.76 C 256.89 215.69 256.91 215.62 256.94 215.55 C 256.96 215.48 256.99 215.41 257.02 215.34 C 257.05 215.28 257.08 215.21 257.12 215.15 C 257.15 215.08 257.19 215.02 257.23 214.96 C 257.28 214.90 257.32 214.84 257.37 214.78 C 257.41 214.72 257.46 214.67 257.52 214.62 C 257.57 214.56 257.62 214.51 257.68 214.47 C 257.74 214.42 257.80 214.37 257.86 214.33 Z" fill="#000000" fill-rule="nonzero" node-id="205" stroke="none" target-height="4.850357" target-width="4.8499756" target-x="256.81168" target-y="213.89566"></path><path d="M 483.25 147.81 C 483.31 147.79 483.36 147.78 483.42 147.76 C 483.48 147.75 483.54 147.74 483.60 147.73 C 483.66 147.72 483.72 147.71 483.78 147.71 C 483.84 147.70 483.90 147.70 483.96 147.71 C 484.02 147.71 484.08 147.71 484.14 147.72 C 484.20 147.73 484.26 147.74 484.32 147.75 C 484.37 147.76 484.43 147.78 484.49 147.80 C 484.55 147.81 484.60 147.83 484.66 147.86 C 484.71 147.88 484.77 147.91 484.82 147.94 C 484.88 147.96 484.93 147.99 484.98 148.03 C 485.03 148.06 485.08 148.10 485.12 148.13 C 485.17 148.17 485.22 148.21 485.26 148.25 C 485.30 148.29 485.34 148.34 485.38 148.38 C 485.42 148.43 485.46 148.48 485.50 148.53 C 485.53 148.57 485.56 148.62 485.59 148.68 C 485.62 148.73 485.65 148.78 485.68 148.84 C 485.70 148.89 485.73 148.95 485.75 149.00 C 485.77 149.06 485.78 149.12 485.80 149.18 C 485.81 149.23 485.83 149.29 485.84 149.35 C 485.85 149.41 485.85 149.47 485.86 149.53 C 485.86 149.59 485.86 149.65 485.86 149.71 C 485.86 149.77 485.86 149.83 485.85 149.89 C 485.84 149.95 485.83 150.01 485.82 150.07 C 485.81 150.13 485.80 150.19 485.78 150.24 C 485.76 150.30 485.74 150.36 485.72 150.41 C 485.69 150.47 485.67 150.52 485.64 150.58 C 485.61 150.63 485.58 150.68 485.55 150.73 C 485.52 150.78 485.48 150.83 485.45 150.88 C 485.41 150.93 485.37 150.97 485.33 151.02 C 485.29 151.06 485.24 151.10 485.20 151.14 C 485.15 151.18 485.11 151.22 485.06 151.25 C 485.01 151.29 484.96 151.32 484.91 151.35 C 484.83 151.40 484.75 151.44 484.67 151.48 C 484.58 151.51 484.49 151.54 484.41 151.57 C 484.32 151.59 484.23 151.61 484.14 151.62 C 484.05 151.63 483.96 151.64 483.86 151.63 C 483.77 151.63 483.68 151.62 483.59 151.61 C 483.50 151.60 483.41 151.58 483.32 151.55 C 483.24 151.52 483.15 151.49 483.07 151.45 C 482.99 151.41 482.91 151.37 482.83 151.32 C 482.75 151.27 482.68 151.21 482.61 151.16 C 482.54 151.09 482.48 151.03 482.42 150.96 C 482.36 150.89 482.30 150.82 482.25 150.74 C 482.20 150.67 482.16 150.59 482.12 150.50 C 482.08 150.42 482.05 150.34 482.02 150.25 C 481.99 150.16 481.97 150.07 481.96 149.98 C 481.94 149.89 481.93 149.80 481.93 149.71 C 481.93 149.62 481.94 149.53 481.95 149.44 C 481.96 149.35 481.97 149.26 482.00 149.17 C 482.02 149.08 482.05 148.99 482.09 148.91 C 482.12 148.82 482.16 148.74 482.21 148.66 C 482.26 148.59 482.31 148.51 482.37 148.44 C 482.42 148.37 482.49 148.30 482.55 148.24 C 482.62 148.18 482.69 148.12 482.76 148.06 C 482.84 148.01 482.92 147.97 483.00 147.92 C 483.08 147.88 483.16 147.84 483.25 147.81 Z" fill="#000000" fill-rule="nonzero" node-id="207" stroke="none" target-height="3.9323425" target-width="3.93161" target-x="481.9317" target-y="147.704"></path></svg>