<?xml version="1.0" standalone="no"?><!DOCTYPE svg PUBLIC "-//W3C//DTD SVG 1.1//EN" "http://www.w3.org/Graphics/SVG/1.1/DTD/svg11.dtd"><svg height="1024" node-id="1" sillyvg="true" template-height="1024" template-width="1024" version="1.1" viewBox="0 0 1024 1024" width="1024" xmlns="http://www.w3.org/2000/svg" xmlns:xlink="http://www.w3.org/1999/xlink"><defs node-id="16"></defs><path d="M 787.79 188.71 C 800.21 186.82 818.77 190.12 830.92 192.84 C 832.92 193.29 834.91 193.78 836.89 194.31 C 838.87 194.84 840.84 195.40 842.80 196.01 C 844.75 196.62 846.70 197.27 848.63 197.95 C 850.56 198.64 852.48 199.37 854.38 200.13 C 856.28 200.90 858.16 201.70 860.03 202.54 C 861.90 203.38 863.75 204.26 865.59 205.18 C 867.42 206.10 869.23 207.05 871.03 208.04 C 872.82 209.04 874.59 210.06 876.34 211.13 C 878.10 212.19 879.83 213.29 881.53 214.42 C 883.24 215.55 884.93 216.72 886.59 217.93 C 888.25 219.13 889.88 220.36 891.49 221.63 C 893.10 222.90 894.68 224.20 896.24 225.53 C 897.80 226.87 899.33 228.23 900.83 229.63 C 902.33 231.02 903.80 232.45 905.24 233.90 C 906.69 235.36 908.10 236.84 909.48 238.36 C 910.86 239.87 912.22 241.41 913.54 242.98 C 918.92 249.46 923.50 256.57 928.01 263.68 C 929.56 255.96 931.53 248.25 935.73 241.50 C 940.45 233.88 949.97 225.62 958.95 223.78 C 960.49 223.47 962.09 223.28 963.48 224.15 L 963.57 225.11 C 960.84 229.33 954.44 230.74 950.41 233.59 C 938.90 241.72 933.80 255.83 931.58 269.24 C 940.76 286.89 949.06 304.22 956.57 322.65 C 958.81 328.15 961.72 333.98 963.07 339.74 C 963.45 341.36 963.57 342.35 962.73 343.79 L 961.66 343.87 C 960.17 342.75 959.38 341.38 958.57 339.73 C 953.70 329.83 949.85 319.22 945.42 309.09 C 939.51 295.55 932.63 282.14 925.24 269.35 C 918.10 256.99 909.58 245.28 899.24 235.41 C 871.37 208.80 831.75 193.22 793.15 194.23 C 762.47 195.04 730.86 204.04 709.28 226.96 C 693.47 243.74 683.15 269.88 684.17 293.05 C 684.25 294.75 684.49 296.35 685.03 297.97 C 686.55 302.54 689.26 306.83 691.10 311.31 C 695.34 321.62 699.12 332.16 703.16 342.56 C 716.64 377.28 729.74 412.05 744.00 446.48 C 768.96 506.04 795.74 564.78 824.34 622.69 C 834.49 643.63 845.22 664.28 856.51 684.63 C 863.25 696.72 870.11 708.99 878.36 720.12 C 888.34 733.59 900.16 743.84 915.87 750.16 C 919.30 751.54 925.14 752.68 927.81 755.13 L 927.84 755.93 C 927.55 756.10 927.29 756.30 926.99 756.43 C 924.54 757.52 919.07 755.36 916.64 754.58 C 879.63 742.72 861.24 704.94 844.31 672.97 C 841.37 667.41 838.13 662.01 835.26 656.41 C 828.19 642.61 821.63 628.54 814.53 614.74 C 793.05 617.82 771.73 622.06 750.42 626.13 C 712.62 633.43 674.89 641.05 637.22 648.97 C 599.72 656.64 562.29 664.67 524.94 673.05 C 509.86 676.30 494.54 678.68 479.57 682.34 C 478.90 683.08 478.22 683.83 477.48 684.49 C 472.34 689.07 466.20 689.92 459.62 689.43 C 451.89 693.73 445.33 694.63 436.79 692.72 C 436.24 693.50 435.68 694.28 435.06 695.02 C 431.92 698.73 427.56 701.16 422.68 701.54 C 416.32 702.03 411.86 699.03 407.27 695.10 C 395.05 699.93 380.96 701.00 367.98 702.65 C 373.76 718.95 379.66 735.20 385.69 751.41 C 390.45 764.51 394.92 777.71 399.74 790.80 C 404.16 802.81 409.43 814.85 413.36 827.00 C 413.86 828.56 414.19 829.84 414.15 831.48 L 413.46 831.50 C 410.15 828.21 407.30 822.43 405.68 818.12 C 404.30 814.41 402.45 810.88 401.05 807.16 C 384.13 762.42 367.91 717.43 352.38 672.19 C 334.35 618.60 318.82 564.22 301.38 510.44 C 291.54 479.78 282.21 449.04 271.26 418.74 C 263.86 398.29 256.09 378.05 245.64 358.93 C 232.96 335.74 213.85 309.51 187.37 301.89 C 172.14 297.51 154.85 301.25 141.24 308.83 C 114.48 323.72 95.85 350.56 87.64 379.69 C 80.86 403.77 79.41 428.24 81.91 453.08 C 86.83 501.82 103.21 549.55 118.79 595.74 C 128.40 625.08 139.02 654.06 150.65 682.66 C 164.22 716.76 179.21 751.12 198.56 782.39 C 206.63 795.42 215.47 807.53 227.32 817.42 C 230.42 820.02 233.62 822.48 236.92 824.82 C 239.99 826.95 246.72 829.51 248.52 832.73 L 247.86 833.42 C 245.91 833.53 244.22 833.04 242.38 832.43 C 217.24 824.15 193.49 785.89 181.79 762.92 C 157.28 768.64 136.28 768.24 112.97 757.69 C 91.06 747.78 74.75 729.77 66.41 707.27 C 59.32 688.12 60.97 666.83 69.44 648.41 C 78.96 627.73 96.61 615.35 117.43 607.65 C 115.16 600.47 112.46 593.42 110.11 586.26 C 96.14 543.72 80.79 496.72 76.76 452.01 C 75.65 439.67 75.92 427.27 76.03 414.89 C 73.18 410.99 62.18 400.34 61.21 397.19 C 61.47 395.87 61.36 395.82 62.41 395.02 C 66.93 395.23 73.53 403.70 76.60 406.97 C 78.87 395.34 81.07 383.54 84.71 372.25 C 91.55 351.06 104.98 330.32 121.90 315.81 C 137.42 302.50 157.19 293.27 178.01 295.00 C 201.08 296.93 217.79 312.22 232.14 329.00 C 236.66 313.25 244.24 299.74 255.72 287.98 C 277.37 265.80 309.72 252.71 340.64 252.48 C 372.06 252.25 390.68 261.46 412.79 283.29 C 413.69 279.03 414.67 274.92 416.28 270.88 C 425.88 246.78 452.58 231.02 475.38 221.26 C 514.94 204.34 565.61 197.84 606.22 214.25 C 632.10 224.70 652.08 243.44 667.57 266.28 C 672.11 272.98 676.44 279.93 679.63 287.39 C 679.24 266.56 688.06 243.60 701.29 227.69 C 722.86 201.73 755.34 191.71 787.79 188.71 Z M 415.98 287.31 C 429.52 305.79 437.44 324.53 443.24 346.50 C 444.26 350.39 446.38 355.72 445.87 359.69 C 445.81 360.18 445.73 360.37 445.60 360.87 L 444.89 361.18 C 441.57 358.21 436.39 338.87 434.51 333.53 C 419.04 289.72 388.83 255.02 338.89 257.65 C 307.50 259.31 276.82 271.99 255.70 295.65 C 245.59 306.98 241.22 318.89 234.47 332.02 C 252.18 356.07 264.05 383.37 274.01 411.40 C 276.31 417.71 278.66 424.00 281.04 430.28 C 330.94 416.28 381.17 403.62 431.75 392.31 C 482.32 381.00 533.15 371.04 584.26 362.44 C 622.54 355.81 661.02 350.57 699.68 346.72 C 680.79 298.02 659.23 243.62 608.02 221.04 C 588.51 212.44 565.31 208.40 543.99 210.70 C 504.31 214.08 455.81 227.75 429.20 259.38 C 422.51 267.33 418.07 277.16 415.98 287.31 Z M 282.63 435.32 C 285.38 443.96 288.62 452.56 291.09 461.26 L 296.61 459.59 C 341.55 448.85 386.65 438.84 431.92 429.57 C 461.40 423.27 490.97 417.45 520.63 412.10 C 571.54 403.24 622.69 395.90 673.55 386.77 C 686.53 384.43 699.55 382.32 712.47 379.63 C 708.88 370.44 705.63 361.09 701.84 351.99 L 696.42 352.18 C 668.60 355.35 640.84 359.01 613.15 363.15 C 585.45 367.29 557.84 371.91 530.30 377.00 C 502.77 382.10 475.33 387.67 447.99 393.72 C 420.65 399.76 393.42 406.28 366.30 413.27 C 347.79 417.82 329.32 422.53 310.89 427.39 C 301.53 429.85 291.70 431.94 282.63 435.32 Z M 122.04 743.04 C 139.84 747.21 154.00 746.29 171.78 743.31 C 157.79 715.03 145.59 685.41 134.59 655.85 C 131.01 646.04 127.52 636.19 124.11 626.32 C 122.52 621.76 121.12 616.33 118.91 612.06 C 98.08 621.11 80.80 632.32 72.12 654.16 C 65.95 669.71 64.35 689.33 71.31 704.91 C 78.87 721.84 97.50 734.31 114.33 740.56 C 116.87 741.48 119.44 742.31 122.04 743.04 Z M 380.30 669.50 C 373.40 671.71 366.14 674.29 358.97 675.37 C 361.42 683.04 364.62 690.51 366.73 698.27 C 368.14 697.95 369.55 697.61 370.95 697.26 C 377.99 696.27 385.02 695.24 392.04 694.15 C 387.89 688.51 387.52 684.23 388.58 677.37 C 388.74 676.33 388.94 675.32 389.21 674.30 C 387.05 672.93 382.78 669.43 380.30 669.50 Z M 798.26 582.57 C 745.23 595.24 691.47 609.22 638.11 620.02 C 603.00 627.13 567.85 634.07 532.67 640.82 C 516.52 643.98 499.30 646.48 483.43 650.40 C 485.84 660.85 486.08 668.11 481.53 678.00 C 484.87 677.06 488.19 676.08 491.59 675.39 C 567.39 657.86 643.46 641.62 719.80 626.65 L 776.73 615.97 C 788.42 613.80 800.28 611.18 812.09 609.79 C 807.96 600.84 804.04 591.24 799.09 582.72 L 798.26 582.57 Z" fill="#000101" fill-rule="nonzero" node-id="18" stroke="none" target-height="646.7041" target-width="904.24963" target-x="59.3224" target-y="186.824"></path><path d="M 470.57 446.96 C 477.71 450.62 484.13 457.10 490.90 461.63 C 506.27 471.92 523.27 479.70 540.50 486.31 C 538.67 487.19 536.70 488.04 535.07 489.25 C 533.07 490.73 530.34 493.34 530.10 495.98 C 529.99 497.18 530.41 498.16 531.29 499.00 C 531.83 499.52 532.89 500.21 533.66 500.31 C 539.41 501.07 553.41 493.26 560.49 493.70 C 566.34 494.06 572.61 496.20 578.38 497.36 C 590.20 499.75 602.78 501.63 614.84 502.06 C 619.97 495.20 626.88 488.98 635.03 486.02 C 640.86 483.90 646.88 484.01 652.48 486.78 C 660.92 490.96 666.73 499.76 669.63 508.49 C 669.84 509.12 670.04 509.75 670.22 510.39 C 670.40 511.03 670.56 511.67 670.71 512.32 C 670.86 512.97 670.99 513.62 671.11 514.27 C 671.23 514.92 671.33 515.58 671.41 516.24 C 671.50 516.90 671.57 517.56 671.62 518.22 C 671.67 518.88 671.71 519.54 671.73 520.21 C 671.74 520.87 671.75 521.53 671.73 522.20 C 671.72 522.86 671.69 523.52 671.64 524.19 C 671.60 524.85 671.54 525.51 671.46 526.17 C 671.38 526.83 671.28 527.48 671.17 528.14 C 671.06 528.79 670.94 529.44 670.79 530.09 C 670.65 530.74 670.49 531.38 670.32 532.02 C 670.14 532.66 669.95 533.30 669.74 533.93 C 669.54 534.56 669.32 535.19 669.08 535.81 C 668.84 536.43 668.59 537.04 668.32 537.65 C 668.05 538.26 667.77 538.86 667.48 539.45 C 658.78 556.55 642.08 561.82 625.20 567.42 C 624.78 569.58 624.57 571.75 624.34 573.94 C 622.22 589.17 618.62 604.38 614.32 619.13 C 581.87 626.31 549.31 632.67 516.73 639.20 C 515.33 638.69 514.00 638.08 512.68 637.38 C 486.95 623.77 471.73 598.47 463.45 571.51 C 451.10 531.31 450.51 484.80 470.57 446.96 Z" fill="#fefefe" fill-rule="nonzero" node-id="20" stroke="none" target-height="192.233" target-width="221.23727" target-x="450.51004" target-y="446.965"></path><path d="M 486.40 520.50 C 486.79 520.49 487.18 520.49 487.57 520.49 C 491.21 520.54 493.63 522.28 496.03 524.91 C 502.08 531.55 506.61 544.25 506.08 553.24 C 505.84 557.15 504.81 559.80 501.91 562.43 C 501.00 562.53 500.09 562.64 499.18 562.58 C 496.57 562.43 494.75 560.86 493.06 558.99 C 486.78 552.05 481.92 538.04 482.57 528.65 C 482.82 525.02 483.72 522.92 486.40 520.50 Z" fill="#000101" fill-rule="nonzero" node-id="22" stroke="none" target-height="42.151978" target-width="24.687958" target-x="481.92" target-y="520.486"></path><path d="M 546.47 505.53 C 547.33 505.46 548.20 505.40 549.07 505.43 C 551.54 505.50 553.34 506.68 555.01 508.43 C 561.06 514.77 564.87 528.73 564.51 537.38 C 564.35 541.11 563.41 543.98 560.66 546.56 C 557.91 546.82 556.03 546.32 553.86 544.57 C 547.37 539.34 543.17 526.86 542.64 518.73 C 542.31 513.66 543.08 509.42 546.47 505.53 Z" fill="#000101" fill-rule="nonzero" node-id="24" stroke="none" target-height="41.414" target-width="22.553955" target-x="542.314" target-y="505.404"></path><path d="M 510.79 521.14 C 511.49 521.26 512.13 521.47 512.81 521.68 C 515.51 525.01 518.97 546.59 520.27 552.04 C 521.61 557.60 523.09 563.49 525.24 568.80 C 526.34 571.52 528.03 574.83 531.04 575.79 C 532.67 576.31 534.36 575.93 535.85 575.22 C 544.35 571.22 541.71 566.38 544.51 559.73 C 544.99 558.58 545.48 558.12 546.58 557.62 C 546.85 557.81 547.14 557.98 547.38 558.20 C 548.57 559.26 548.62 561.59 548.66 563.04 C 547.76 568.09 545.77 573.14 541.93 576.69 C 539.44 579.00 536.12 580.86 532.62 580.67 C 529.50 580.50 526.75 578.80 524.73 576.49 C 518.76 569.66 509.88 531.17 510.79 521.14 Z" fill="#000101" fill-rule="nonzero" node-id="26" stroke="none" target-height="59.71698" target-width="38.779022" target-x="509.882" target-y="521.141"></path><path d="M 481.62 499.59 C 483.54 499.42 485.58 499.37 487.45 499.88 C 489.26 500.37 491.96 502.10 492.65 503.94 C 493.10 505.13 493.16 506.08 492.55 507.23 C 490.09 511.88 478.81 514.00 474.06 515.39 C 471.28 515.83 467.98 516.42 465.29 515.21 C 464.02 514.63 463.68 514.10 463.19 512.83 C 463.36 511.50 463.64 510.56 464.37 509.42 C 468.15 503.49 475.09 500.97 481.62 499.59 Z" fill="#000101" fill-rule="nonzero" node-id="28" stroke="none" target-height="17.048035" target-width="29.96402" target-x="463.193" target-y="499.373"></path><path d="M 650.35 498.38 C 651.54 498.57 651.59 498.63 652.46 499.49 C 652.51 500.10 652.69 500.61 652.36 501.17 C 651.23 503.12 647.66 504.96 645.88 506.60 C 637.76 514.08 634.25 523.62 630.98 533.87 C 630.07 533.91 630.07 533.78 629.32 533.33 C 628.52 530.66 629.78 526.74 630.65 524.12 C 634.26 513.29 639.85 503.60 650.35 498.38 Z" fill="#000101" fill-rule="nonzero" node-id="30" stroke="none" target-height="35.531036" target-width="24.174988" target-x="628.517" target-y="498.37796"></path><path d="M 433.07 626.71 C 443.19 626.31 454.82 627.79 463.76 632.82 C 471.87 637.39 477.36 645.47 479.83 654.34 C 481.92 661.84 481.38 670.80 477.34 677.58 C 474.02 683.17 469.29 685.06 463.29 686.50 C 467.92 677.01 469.27 667.53 467.08 657.12 C 465.94 651.74 461.18 637.91 455.94 635.45 C 454.75 634.89 454.17 635.10 453.03 635.49 C 452.76 636.56 452.76 636.72 453.20 637.70 C 454.10 639.74 455.85 641.56 457.01 643.49 C 458.59 646.10 459.74 649.25 460.76 652.12 C 461.23 653.43 461.65 654.76 462.00 656.12 C 462.36 657.47 462.65 658.83 462.88 660.21 C 463.11 661.59 463.27 662.97 463.38 664.37 C 463.48 665.76 463.52 667.15 463.50 668.55 C 463.34 674.33 461.65 681.28 457.24 685.26 C 452.11 689.88 445.27 689.59 438.84 689.26 C 442.52 679.14 443.97 670.81 442.51 660.03 C 441.48 652.34 437.96 638.57 431.26 633.86 C 430.20 633.11 429.11 632.48 427.78 632.70 L 427.51 633.55 C 428.41 636.59 430.24 639.23 431.88 641.93 C 433.26 644.72 434.51 647.55 435.49 650.52 C 439.33 662.25 439.76 677.05 433.95 688.24 C 431.94 692.11 429.19 695.43 424.83 696.64 C 419.18 698.21 414.34 695.74 409.58 693.00 C 415.23 686.20 418.01 678.96 419.54 670.30 C 420.46 665.12 421.85 654.87 418.72 650.42 C 417.50 649.75 417.33 649.72 415.94 649.79 C 415.69 650.08 415.29 650.29 415.17 650.66 C 414.49 652.78 415.50 661.89 415.12 665.49 C 414.61 670.30 413.63 675.18 411.97 679.73 C 410.21 684.53 406.78 690.44 401.83 692.47 C 400.28 693.11 398.69 693.00 397.20 692.27 C 386.61 687.12 397.87 667.70 395.51 659.95 L 394.72 659.76 C 391.52 662.05 390.92 665.76 389.78 669.34 C 386.88 667.76 383.85 666.41 380.86 665.01 C 382.57 657.86 385.36 651.91 390.25 646.36 C 401.88 633.13 415.87 627.84 433.07 626.71 Z" fill="#fefefe" fill-rule="nonzero" node-id="32" stroke="none" target-height="71.89691" target-width="101.05701" target-x="380.858" target-y="626.309"></path><path d="M 452.45 549.07 C 454.03 550.07 456.52 565.15 457.18 568.01 C 456.62 567.82 456.07 567.64 455.50 567.49 C 453.59 566.96 449.09 565.61 447.32 567.01 C 446.24 567.87 446.13 568.47 445.85 569.73 C 446.98 571.78 454.78 572.13 457.50 573.20 C 457.70 573.28 457.90 573.37 458.10 573.45 C 461.75 580.29 463.77 588.10 467.06 595.15 C 469.03 599.39 473.30 604.90 474.57 608.73 C 473.48 609.56 472.30 609.46 470.96 609.63 C 465.94 609.49 460.77 607.98 456.30 605.72 C 455.74 605.43 455.18 605.13 454.63 604.82 C 454.09 604.50 453.55 604.17 453.01 603.83 C 452.48 603.49 451.96 603.13 451.45 602.77 C 450.93 602.40 450.43 602.02 449.93 601.62 C 449.44 601.23 448.95 600.83 448.48 600.41 C 448.00 599.99 447.54 599.56 447.08 599.12 C 446.63 598.69 446.19 598.23 445.76 597.77 C 445.32 597.31 444.90 596.84 444.50 596.36 C 444.09 595.87 443.69 595.38 443.31 594.88 C 442.92 594.37 442.55 593.86 442.20 593.34 C 441.84 592.82 441.49 592.29 441.16 591.75 C 440.83 591.22 440.51 590.67 440.21 590.12 C 439.90 589.56 439.61 589.00 439.33 588.43 C 439.06 587.86 438.79 587.29 438.55 586.71 C 438.30 586.13 438.06 585.54 437.84 584.95 C 437.62 584.35 437.42 583.76 437.23 583.15 C 434.78 575.32 434.63 566.07 438.71 558.73 C 441.88 553.01 446.44 550.74 452.45 549.07 Z" fill="#fefefe" fill-rule="nonzero" node-id="34" stroke="none" target-height="60.557983" target-width="39.93698" target-x="434.63202" target-y="549.068"></path><path d="M 450.12 432.36 C 451.07 432.46 451.98 432.63 452.92 432.81 C 453.10 433.07 453.39 433.29 453.45 433.60 C 453.56 434.25 445.12 446.91 444.32 448.18 C 423.25 481.69 405.17 527.34 403.46 567.27 C 402.67 585.71 408.85 600.88 424.72 610.95 C 427.36 612.62 432.65 614.45 434.45 616.72 C 434.99 617.41 434.70 617.81 434.57 618.60 L 433.22 619.06 C 428.70 618.52 422.82 614.34 419.08 611.82 C 409.15 605.14 402.94 596.72 400.66 584.87 C 398.47 573.48 399.65 561.61 401.24 550.21 C 407.32 506.62 425.62 468.41 450.12 432.36 Z" fill="#fefefe" fill-rule="nonzero" node-id="36" stroke="none" target-height="186.69702" target-width="55.086" target-x="398.47302" target-y="432.36"></path><path d="M 646.28 563.62 C 646.92 563.91 647.20 563.84 647.46 564.57 C 648.58 567.80 648.74 578.64 649.76 583.45 C 651.20 590.16 655.07 596.35 658.94 601.97 C 660.44 604.16 662.31 606.30 663.30 608.77 L 662.65 609.93 C 660.83 609.56 659.80 609.05 658.41 607.81 C 649.62 599.93 644.67 584.22 644.28 572.72 C 644.17 569.46 643.95 566.13 646.28 563.62 Z" fill="#fefefe" fill-rule="nonzero" node-id="38" stroke="none" target-height="46.310974" target-width="19.350952" target-x="643.952" target-y="563.616"></path><path d="M 179.41 432.77 C 181.66 436.54 189.43 470.63 191.35 477.99 C 197.24 500.19 203.31 522.35 209.56 544.46 L 240.52 651.85 C 250.89 688.35 260.69 724.94 272.47 761.02 C 277.81 777.37 284.36 793.13 290.02 809.32 C 289.24 809.09 289.10 809.14 288.50 808.52 C 272.99 792.30 178.90 459.26 179.41 432.77 Z" fill="#000101" fill-rule="nonzero" node-id="40" stroke="none" target-height="376.54205" target-width="111.121994" target-x="178.895" target-y="432.773"></path><path d="M 795.27 340.25 C 798.99 342.17 808.22 359.63 810.75 363.90 C 828.88 394.46 845.95 425.61 861.95 457.34 C 874.97 483.83 887.55 510.53 899.69 537.44 C 914.45 569.63 929.35 601.98 942.69 634.77 C 941.27 634.13 940.46 632.53 939.74 631.23 C 928.36 610.43 919.22 588.34 909.31 566.81 C 893.32 532.23 876.96 497.83 860.21 463.61 C 854.02 451.34 847.70 439.14 841.23 427.02 C 835.50 416.06 830.00 405.04 824.04 394.21 C 814.29 376.51 803.40 358.74 795.27 340.25 Z" fill="#000101" fill-rule="nonzero" node-id="42" stroke="none" target-height="294.519" target-width="147.41895" target-x="795.27" target-y="340.251"></path></svg>