<?xml version="1.0" standalone="no"?><!DOCTYPE svg PUBLIC "-//W3C//DTD SVG 1.1//EN" "http://www.w3.org/Graphics/SVG/1.1/DTD/svg11.dtd"><svg height="1024" node-id="1" sillyvg="true" template-height="1024" template-width="1024" version="1.1" viewBox="0 0 1024 1024" width="1024" xmlns="http://www.w3.org/2000/svg" xmlns:xlink="http://www.w3.org/1999/xlink"><defs node-id="31"><linearGradient gradientUnits="objectBoundingBox" id="gradient_0" node-id="4" spreadMethod="pad" x1="519.592" x2="482.18112" y1="632.5948" y2="574.0502"><stop offset="0" stop-color="#010101"></stop><stop offset="1" stop-color="#232123"></stop></linearGradient></defs><path d="M 507.30 211.65 C 520.31 210.52 533.83 213.11 544.40 221.20 C 553.41 228.10 556.39 236.12 557.78 247.18 C 563.01 242.24 567.86 238.56 574.92 236.77 C 585.74 234.03 597.37 235.23 606.99 241.01 C 607.58 241.36 608.16 241.73 608.73 242.11 C 609.30 242.50 609.86 242.90 610.40 243.31 C 610.95 243.72 611.49 244.14 612.02 244.58 C 612.55 245.02 613.07 245.47 613.57 245.93 C 614.08 246.39 614.57 246.87 615.06 247.36 C 615.54 247.84 616.01 248.34 616.47 248.85 C 616.93 249.36 617.37 249.89 617.81 250.42 C 618.24 250.95 618.66 251.49 619.07 252.05 C 619.47 252.60 619.87 253.16 620.24 253.73 C 620.62 254.31 620.99 254.89 621.34 255.48 C 621.69 256.07 622.02 256.67 622.34 257.27 C 622.66 257.88 622.97 258.49 623.26 259.12 C 623.55 259.74 623.83 260.37 624.09 261.00 C 624.35 261.64 624.59 262.28 624.82 262.92 C 625.05 263.57 625.26 264.22 625.46 264.88 C 625.65 265.54 625.83 266.20 626.00 266.87 C 629.61 281.35 626.25 294.10 618.80 306.66 C 626.15 310.28 633.44 313.35 639.13 319.46 C 648.27 329.27 651.59 341.64 651.04 354.84 C 650.57 366.20 646.18 378.44 637.55 386.17 C 629.13 393.71 620.30 394.60 609.36 393.92 C 608.63 398.77 607.73 403.54 606.72 408.33 C 611.61 412.18 616.88 415.54 621.69 419.50 C 623.69 421.18 625.65 422.89 627.58 424.65 C 629.51 426.41 631.39 428.21 633.24 430.05 C 635.08 431.89 636.89 433.78 638.65 435.70 C 640.41 437.62 642.13 439.58 643.81 441.58 C 645.48 443.58 647.11 445.61 648.70 447.69 C 650.28 449.76 651.82 451.86 653.31 454.00 C 654.80 456.14 656.25 458.31 657.64 460.51 C 659.04 462.72 660.39 464.95 661.68 467.21 C 664.15 463.08 666.28 458.79 668.89 454.72 C 670.02 452.97 671.20 451.24 672.43 449.55 C 673.66 447.86 674.94 446.20 676.26 444.58 C 677.59 442.96 678.95 441.37 680.37 439.83 C 681.78 438.28 683.23 436.78 684.73 435.31 C 686.22 433.85 687.76 432.43 689.33 431.05 C 690.91 429.68 692.52 428.34 694.17 427.05 C 695.82 425.77 697.50 424.53 699.22 423.33 C 700.94 422.14 702.69 420.99 704.47 419.90 C 708.84 404.51 715.22 386.36 721.29 371.54 C 719.67 368.24 718.04 364.99 716.79 361.54 C 714.14 354.23 713.07 345.37 716.70 338.19 C 719.10 333.43 723.52 329.95 728.59 328.41 C 740.17 324.90 754.68 330.77 764.76 336.19 C 781.12 344.99 799.24 360.23 804.63 378.72 C 808.62 392.40 804.86 405.75 798.12 417.84 L 807.51 421.97 C 810.35 414.87 823.37 380.93 826.95 377.53 C 829.42 376.89 832.04 377.41 834.48 377.98 C 841.33 379.56 848.16 382.13 854.82 384.35 C 869.09 389.10 883.23 394.21 897.24 399.69 C 904.05 402.33 911.61 404.66 917.96 408.24 C 916.73 413.18 914.60 418.11 912.80 422.87 C 909.14 432.49 905.39 442.08 901.55 451.63 C 888.59 484.12 874.96 516.32 860.65 548.24 C 855.79 559.00 848.62 576.51 842.43 585.64 C 853.39 596.75 866.21 615.83 867.54 631.74 C 867.68 633.35 867.54 634.24 866.46 635.44 L 865.36 635.43 C 862.10 632.83 861.92 625.07 860.51 621.08 C 857.08 611.39 851.56 602.81 844.95 594.98 C 811.14 554.98 754.17 537.75 704.44 529.57 C 695.10 528.03 685.63 526.12 676.19 525.34 C 675.90 527.40 675.51 529.45 675.02 531.48 C 674.53 533.50 673.95 535.50 673.27 537.48 C 672.59 539.45 671.82 541.39 670.96 543.29 C 670.10 545.19 669.15 547.04 668.11 548.85 C 658.76 564.85 645.13 573.01 627.51 577.53 C 627.92 601.75 628.48 625.97 629.19 650.18 C 629.38 657.95 631.06 682.06 629.29 687.86 C 628.03 688.66 626.72 688.75 625.25 688.81 C 607.83 689.59 590.20 688.95 572.75 689.11 L 475.08 690.32 C 465.04 690.87 386.52 692.15 383.40 690.73 C 382.75 689.16 382.58 687.70 382.50 686.02 C 381.71 669.38 382.52 652.00 382.73 635.31 C 382.99 610.10 383.05 584.89 382.94 559.68 C 374.93 549.68 370.68 536.26 370.42 523.47 C 351.15 526.19 332.19 528.46 313.09 532.48 C 269.51 541.65 210.19 561.96 177.79 593.78 C 171.49 599.96 165.51 606.51 160.89 614.08 C 159.14 616.95 157.43 619.96 156.07 623.03 C 154.52 626.51 153.49 633.56 150.46 635.78 C 149.78 636.28 149.45 635.97 148.70 635.80 C 148.20 635.00 147.96 634.82 147.90 633.83 C 147.29 624.36 161.81 604.26 168.37 597.36 C 162.29 585.20 157.22 569.17 152.69 556.21 C 140.27 520.63 129.77 484.70 119.19 448.54 C 116.87 440.61 109.48 418.89 108.95 412.10 C 109.65 410.94 110.54 410.43 111.72 409.83 C 119.58 405.85 131.68 403.20 140.31 400.50 C 152.52 396.70 164.68 392.81 176.97 389.27 C 182.17 387.77 187.49 385.95 192.79 384.94 C 194.49 384.61 196.11 384.35 197.78 384.91 C 204.08 389.77 213.72 427.74 216.69 438.05 C 220.57 436.54 224.70 435.58 228.67 434.30 C 220.41 424.55 215.10 414.17 213.22 401.42 C 213.05 400.33 212.92 399.24 212.80 398.15 C 212.69 397.05 212.61 395.96 212.55 394.86 C 212.49 393.76 212.46 392.67 212.46 391.57 C 212.46 390.47 212.48 389.37 212.53 388.27 C 212.59 387.18 212.67 386.08 212.77 384.99 C 212.88 383.89 213.01 382.80 213.17 381.71 C 213.33 380.63 213.52 379.55 213.74 378.47 C 213.95 377.39 214.19 376.32 214.46 375.25 C 214.73 374.19 215.02 373.13 215.34 372.08 C 215.66 371.03 216.01 369.99 216.38 368.95 C 216.76 367.92 217.15 366.89 217.58 365.88 C 218.00 364.87 218.45 363.86 218.92 362.87 C 219.40 361.88 219.90 360.90 220.42 359.94 C 220.94 358.97 221.49 358.02 222.06 357.08 C 222.63 356.14 223.22 355.21 223.84 354.30 C 224.45 353.39 225.09 352.50 225.75 351.62 C 238.93 333.89 259.90 321.79 281.72 318.75 C 294.19 317.00 312.31 317.30 322.73 325.44 C 327.04 328.81 329.86 333.50 330.50 338.95 C 332.29 353.99 320.55 368.04 311.90 379.02 C 311.96 389.84 311.89 400.66 311.68 411.47 C 317.98 412.93 324.13 415.73 329.90 418.59 C 353.09 430.08 368.39 446.96 382.82 467.98 C 394.12 446.56 410.39 426.54 429.69 411.85 C 428.13 404.60 427.69 396.71 427.35 389.30 C 422.64 388.97 418.12 388.47 413.62 386.97 C 404.45 383.92 396.30 377.26 391.96 368.57 C 387.60 359.83 387.47 350.15 390.62 341.00 C 395.38 327.18 405.53 318.78 418.28 312.47 C 411.66 305.65 405.09 297.90 403.58 288.16 C 401.90 277.35 404.24 266.59 410.86 257.79 C 417.62 248.79 428.74 242.89 439.82 241.41 C 445.65 240.64 456.66 240.64 461.39 244.49 C 464.44 246.96 462.16 251.89 462.72 255.41 C 462.91 256.55 463.06 256.71 463.93 257.37 C 465.21 256.89 465.29 256.93 465.67 255.50 C 466.23 253.44 466.20 250.95 466.54 248.80 C 467.53 242.48 470.21 236.52 473.83 231.27 C 481.88 219.57 493.68 214.10 507.30 211.65 Z M 509.11 685.84 C 532.32 686.12 555.63 685.19 578.85 685.02 L 608.73 684.89 C 614.45 684.87 620.34 685.12 626.03 684.57 C 626.08 651.33 624.88 617.96 623.90 584.73 C 623.25 562.75 622.48 540.60 622.97 518.61 C 610.03 517.55 596.70 518.09 583.71 517.94 C 555.98 517.60 528.25 517.54 500.52 517.75 C 480.25 517.80 459.99 518.02 439.73 518.41 C 422.06 518.89 404.31 519.97 386.62 519.99 C 387.68 575.73 386.27 631.51 386.80 687.26 L 509.11 685.84 Z M 627.53 573.44 C 643.04 568.59 655.55 561.97 664.13 547.54 C 673.55 531.68 673.03 513.65 668.52 496.32 C 659.15 460.36 630.97 428.08 599.50 409.07 C 592.98 405.13 586.30 401.33 579.48 397.94 C 573.66 395.06 567.45 392.52 561.88 389.21 L 561.44 388.94 C 558.96 391.24 556.37 393.16 553.58 395.07 C 553.73 396.37 553.87 397.69 553.92 399.00 C 554.34 409.87 549.65 421.54 542.33 429.49 C 536.66 435.64 528.99 439.79 520.50 439.95 C 513.31 440.08 507.15 437.16 502.00 432.36 C 500.03 430.46 498.19 428.44 496.66 426.16 C 491.18 418.01 487.54 407.22 489.45 397.36 C 484.93 395.10 480.51 391.92 476.69 388.61 C 469.48 390.77 462.46 394.73 455.98 398.53 C 428.81 414.49 403.51 438.35 388.47 466.36 C 376.71 488.27 369.93 514.96 377.37 539.44 C 378.70 543.80 380.45 548.21 382.83 552.11 C 383.05 544.99 383.09 537.86 382.95 530.74 C 382.92 527.39 382.51 523.78 382.84 520.46 C 382.95 519.28 383.27 517.99 384.14 517.14 C 386.55 514.80 412.90 515.07 417.63 514.92 C 419.42 514.87 422.28 515.22 423.90 514.64 C 424.98 514.25 425.05 513.90 425.25 512.81 C 425.30 512.58 425.31 512.34 425.34 512.10 C 425.09 511.18 425.06 510.38 425.13 509.44 C 425.73 500.67 431.99 489.47 438.64 483.88 C 439.92 483.65 439.85 483.78 440.94 484.53 C 441.93 486.79 440.19 487.91 438.81 489.69 C 433.62 496.38 430.72 502.25 428.95 510.54 C 428.68 511.90 428.51 512.86 428.83 514.24 C 432.26 515.03 459.26 514.08 465.34 514.05 C 484.22 513.94 620.63 512.47 625.85 515.34 C 627.93 520.09 627.18 564.25 627.53 573.44 Z M 307.10 443.68 C 304.76 453.50 301.98 462.88 292.66 468.38 C 286.83 471.82 280.11 472.54 273.62 470.68 C 265.55 468.37 258.38 462.11 254.48 454.73 C 253.70 453.25 253.04 451.75 252.45 450.19 C 248.21 450.63 244.01 451.12 239.74 450.95 C 239.85 446.87 239.98 442.80 239.90 438.72 C 229.31 437.34 218.38 440.69 209.92 447.20 C 189.62 462.84 180.85 493.95 177.85 518.28 C 174.99 541.40 177.89 560.18 183.98 582.44 C 188.14 579.31 192.39 576.33 196.74 573.48 C 201.09 570.64 205.53 567.93 210.05 565.37 C 214.57 562.82 219.18 560.41 223.86 558.14 C 228.54 555.88 233.28 553.78 238.10 551.82 C 234.94 547.85 231.95 543.94 229.56 539.44 C 224.22 529.38 219.72 511.85 221.14 500.41 C 221.25 499.46 221.52 498.83 222.09 498.05 C 223.16 497.59 223.20 497.60 224.34 497.87 C 226.42 500.76 225.47 512.85 226.57 517.40 C 229.74 531.93 233.39 538.07 241.97 550.02 C 272.17 536.91 318.22 524.28 350.97 521.88 C 347.28 506.56 343.00 492.21 334.70 478.62 C 332.12 474.39 328.56 470.61 326.11 466.43 C 325.36 465.15 325.59 464.57 326.05 463.25 L 326.96 462.76 C 331.25 464.09 339.64 478.91 341.83 483.09 C 348.19 495.19 352.43 508.06 355.19 521.41 C 360.28 520.76 365.35 520.01 370.49 520.01 C 370.36 502.82 373.78 488.25 380.68 472.50 C 362.52 443.73 344.18 427.08 311.63 415.60 C 311.62 421.37 312.84 438.25 310.21 442.44 C 309.17 443.00 308.23 443.35 307.10 443.68 Z M 771.96 434.28 C 771.16 436.88 770.77 439.88 768.28 441.33 C 766.46 441.34 765.64 441.32 764.35 442.68 C 761.85 445.32 760.10 448.62 757.79 451.43 C 753.25 456.96 745.33 460.35 738.25 460.75 C 731.92 461.12 725.43 459.41 720.71 455.03 C 715.58 450.27 713.28 443.13 713.22 436.27 C 713.20 433.10 713.79 430.18 714.61 427.14 C 712.01 425.59 709.32 424.09 706.82 422.40 C 702.89 427.22 696.73 430.46 692.04 434.60 C 680.31 444.95 671.73 457.74 663.91 471.14 C 669.89 485.20 674.21 498.13 675.41 513.53 C 676.40 507.64 677.48 501.77 679.08 496.02 C 681.36 487.84 690.00 463.97 696.24 458.97 C 696.74 458.57 696.88 458.61 697.55 458.39 C 698.20 458.83 698.16 458.61 698.26 459.43 C 698.42 460.71 698.13 462.02 697.67 463.22 C 696.71 465.69 695.02 468.17 693.80 470.54 C 691.71 474.61 689.91 478.88 688.26 483.15 C 685.88 489.34 683.78 495.62 681.96 502.00 C 680.14 508.37 678.61 514.82 677.36 521.33 C 685.55 522.38 693.72 523.54 701.88 524.84 C 725.12 528.89 747.57 533.64 769.89 541.39 C 780.02 532.91 784.17 522.15 785.41 509.24 C 785.71 506.06 785.15 501.26 788.70 500.06 C 789.56 500.61 789.70 500.68 789.91 501.74 C 791.21 508.24 787.27 524.04 784.34 530.17 C 783.20 532.57 781.38 534.98 779.83 537.14 C 778.25 539.34 776.39 541.35 774.53 543.32 C 793.39 550.05 810.10 560.40 826.44 571.77 C 841.40 535.96 851.59 497.31 835.93 459.52 C 827.14 438.33 815.92 430.61 795.75 421.44 C 789.45 429.10 781.65 432.75 771.96 434.28 Z M 708.51 419.30 C 725.91 427.78 742.63 436.46 762.37 437.79 C 763.83 437.89 765.17 438.16 766.48 437.37 C 768.83 433.30 769.88 427.30 771.23 422.76 C 774.01 413.50 776.71 404.21 779.32 394.90 C 766.72 384.32 743.65 370.68 727.50 368.33 C 720.68 384.85 713.64 402.14 708.51 419.30 Z M 550.08 397.43 C 535.36 404.01 520.52 406.75 504.52 403.16 C 500.68 402.30 496.88 400.78 493.10 399.66 C 492.57 410.59 496.79 420.67 504.03 428.76 C 504.23 428.98 504.43 429.19 504.62 429.40 C 508.40 432.48 512.44 434.89 517.37 435.58 C 523.92 436.51 530.39 434.23 535.51 430.20 C 546.23 421.76 548.61 410.23 550.08 397.43 Z M 265.16 461.88 C 270.61 465.79 276.68 468.04 283.50 467.02 C 283.85 466.97 284.21 466.91 284.56 466.84 C 284.91 466.77 285.26 466.69 285.61 466.60 C 285.96 466.51 286.30 466.42 286.65 466.31 C 286.99 466.21 287.33 466.09 287.67 465.97 C 288.00 465.84 288.34 465.71 288.67 465.57 C 289.00 465.43 289.32 465.28 289.65 465.12 C 289.97 464.97 290.29 464.80 290.60 464.62 C 290.91 464.45 291.22 464.27 291.53 464.08 C 291.83 463.89 292.13 463.69 292.42 463.48 C 292.72 463.27 293.01 463.06 293.29 462.84 C 293.57 462.62 293.85 462.39 294.12 462.15 C 294.39 461.92 294.65 461.67 294.91 461.42 C 295.17 461.17 295.42 460.92 295.66 460.65 C 295.91 460.39 296.14 460.12 296.38 459.85 C 296.61 459.57 296.83 459.29 297.04 459.00 C 297.26 458.72 297.47 458.42 297.67 458.13 C 300.24 454.31 301.19 450.10 302.09 445.67 L 301.71 444.64 C 300.78 444.48 300.16 444.50 299.24 444.68 C 285.05 446.47 270.63 448.71 256.37 449.70 C 258.43 454.79 261.06 458.23 265.16 461.88 Z M 753.64 449.89 C 756.32 447.56 758.45 444.68 760.23 441.62 C 744.91 439.92 732.35 435.09 718.30 429.20 C 716.93 435.81 717.11 442.94 720.99 448.74 C 723.73 452.83 728.11 455.41 732.93 456.22 C 739.58 457.34 746.68 455.22 752.01 451.21 C 752.58 450.79 753.12 450.35 753.64 449.89 Z M 465.04 361.20 C 469.89 376.04 478.42 387.19 492.60 394.27 C 495.71 395.82 498.93 396.98 502.21 398.09 C 518.16 402.15 534.12 401.66 548.63 393.14 C 562.30 385.12 569.04 373.37 573.55 358.56 C 577.81 359.91 582.14 361.18 586.40 358.91 C 589.53 357.24 591.18 353.92 592.00 350.60 C 593.07 346.29 592.51 341.87 590.20 338.06 C 588.80 335.78 587.06 333.77 584.34 333.23 C 580.86 332.52 577.05 333.49 573.49 332.99 C 562.59 331.46 551.82 319.93 545.76 311.47 C 543.28 308.00 540.64 303.14 537.44 300.39 C 516.60 319.43 501.55 331.51 472.32 335.36 C 466.51 336.13 459.50 335.09 454.22 337.91 C 449.20 340.60 445.48 346.06 445.16 351.78 C 444.98 355.15 445.92 359.19 448.32 361.69 C 450.21 363.67 452.79 364.44 455.48 364.40 C 458.98 364.34 462.02 362.85 465.04 361.20 Z M 473.10 385.06 C 471.86 383.36 470.57 381.07 468.79 379.92 L 468.29 379.91 C 465.29 381.09 462.26 382.16 459.19 383.14 C 456.13 384.12 453.03 385.01 449.91 385.79 C 446.78 386.57 443.64 387.26 440.47 387.84 C 437.30 388.42 434.12 388.90 430.92 389.28 C 431.36 393.00 431.53 405.44 433.28 408.06 C 433.80 407.85 434.28 407.70 434.72 407.34 C 447.14 398.82 459.27 391.11 473.10 385.06 Z M 307.68 438.89 C 308.67 418.93 307.90 398.56 307.94 378.56 C 303.28 378.35 298.63 378.39 293.98 378.69 C 276.90 380.08 259.03 381.75 242.99 388.15 C 243.16 407.85 243.74 427.61 243.62 447.30 C 248.06 446.35 252.60 445.92 257.10 445.39 C 273.80 443.33 291.19 442.12 307.68 438.89 Z M 784.50 396.35 C 782.50 399.18 779.71 404.04 780.34 407.60 C 780.52 408.63 780.79 408.83 781.39 409.62 C 783.52 410.68 785.61 409.96 787.78 409.35 C 789.96 407.98 791.74 406.40 792.29 403.76 C 792.62 402.19 792.23 400.61 791.30 399.31 C 789.86 397.31 787.92 396.77 785.58 396.46 C 785.22 396.41 784.86 396.38 784.50 396.35 Z M 602.24 405.62 L 602.93 405.70 C 604.57 401.97 604.91 397.23 605.90 393.25 C 602.69 392.71 599.51 392.03 596.36 391.22 C 593.21 390.40 590.11 389.45 587.04 388.36 C 583.97 387.27 580.96 386.06 578.00 384.71 C 575.04 383.36 572.14 381.88 569.31 380.27 C 567.60 382.11 565.88 383.90 564.41 385.94 C 577.36 392.09 589.93 398.25 602.24 405.62 Z M 233.66 390.52 C 230.38 392.36 228.44 394.68 227.42 398.35 C 226.51 401.64 226.86 405.23 228.56 408.21 C 229.85 410.46 231.59 411.80 233.88 412.89 C 235.41 413.31 237.22 414.06 238.78 413.62 C 239.78 410.05 239.38 395.13 238.64 391.17 C 237.10 390.29 235.37 390.51 233.66 390.52 Z M 829.23 381.30 C 823.34 395.45 817.67 410.16 811.01 423.95 C 827.48 433.05 837.76 448.93 842.93 466.72 C 852.59 499.95 846.09 543.83 829.91 574.45 C 833.09 577.12 836.51 579.70 839.45 582.62 C 843.47 574.33 847.97 566.00 851.49 557.50 C 865.68 526.96 879.08 496.08 891.67 464.85 L 913.10 410.62 C 891.20 401.65 869.01 393.48 846.52 386.12 C 841.17 384.39 834.79 381.59 829.23 381.30 Z M 604.94 316.25 C 603.79 316.75 603.61 316.79 602.93 317.82 C 603.20 318.96 602.89 318.63 603.75 319.18 C 606.95 321.26 613.87 321.98 617.99 324.01 C 618.77 323.36 619.18 323.05 619.44 322.04 C 618.84 320.45 616.82 319.49 615.36 318.80 C 611.95 317.19 608.72 316.26 604.94 316.25 Z M 195.93 388.07 C 176.67 393.61 157.50 399.43 138.41 405.53 C 130.11 408.11 121.56 410.41 113.38 413.33 C 127.78 466.13 144.03 518.36 162.14 570.02 L 171.29 593.88 C 174.36 590.95 177.38 587.94 180.63 585.22 C 177.27 574.79 174.56 564.33 173.34 553.41 C 170.23 525.52 175.51 492.91 188.40 467.87 C 194.12 456.77 201.33 446.76 212.47 440.65 C 210.57 433.24 199.97 391.58 195.93 388.07 Z M 436.72 323.34 C 438.98 323.14 442.99 323.39 444.83 322.34 C 445.07 321.08 445.18 321.07 444.52 319.99 C 442.75 319.14 440.24 319.42 438.30 319.62 C 435.11 320.11 432.87 320.21 430.51 322.67 L 430.37 323.67 C 431.80 324.50 432.65 324.55 434.26 324.11 C 435.08 323.88 435.90 323.61 436.72 323.34 Z" fill="#1e1e1e" fill-rule="nonzero" node-id="40" stroke="none" target-height="481.62994" target-width="809.015" target-x="108.948" target-y="210.523"></path><path d="M 475.53 577.09 C 484.50 577.07 521.62 575.74 527.54 578.33 C 528.57 581.47 528.48 626.88 527.54 628.69 C 527.07 629.59 526.31 629.51 525.39 629.79 C 517.04 629.72 481.10 631.05 475.68 629.25 C 474.60 628.20 474.36 626.32 474.20 624.88 C 473.45 618.13 474.25 610.73 474.25 603.91 C 474.26 596.01 473.37 587.67 474.20 579.83 C 474.33 578.62 474.77 578.01 475.53 577.09 Z M 478.27 626.03 C 493.39 625.96 508.79 626.54 523.88 625.78 C 524.73 620.12 524.27 613.80 524.24 608.06 C 524.19 599.07 524.24 590.05 524.01 581.06 C 508.75 580.85 493.49 580.85 478.23 581.07 C 477.57 595.88 477.79 611.21 478.27 626.03 Z" fill="url(#gradient_0)" fill-rule="nonzero" node-id="42" stroke="none" target-height="55.310974" target-width="55.201996" target-x="473.366" target-y="575.741"></path><path d="M 596.78 478.77 L 597.17 478.92 C 597.53 479.06 597.92 479.18 598.26 479.40 C 603.38 482.65 609.51 495.74 611.26 501.48 C 612.18 504.52 613.07 507.71 611.49 510.64 C 608.44 509.06 608.39 506.16 607.51 503.15 C 605.85 497.50 602.80 492.76 599.58 487.90 C 598.49 486.25 596.68 484.08 596.10 482.23 C 595.65 480.81 596.24 480.03 596.78 478.77 Z" fill="#1e1e1e" fill-rule="nonzero" node-id="44" stroke="none" target-height="31.875946" target-width="17.418945" target-x="595.65" target-y="478.76904"></path><path d="M 521.75 333.42 C 523.05 333.63 524.05 333.79 525.12 334.65 C 527.18 336.32 528.10 340.17 528.42 342.65 C 529.07 347.65 528.80 354.18 525.48 358.22 C 523.88 360.16 522.30 360.54 519.88 360.86 C 517.12 359.97 515.26 358.66 513.90 356.05 C 511.90 352.18 512.13 347.04 513.50 343.01 C 514.94 338.78 517.69 335.34 521.75 333.42 Z" fill="#1e1e1e" fill-rule="nonzero" node-id="46" stroke="none" target-height="27.445984" target-width="17.163025" target-x="511.904" target-y="333.416"></path><path d="M 455.02 344.54 C 456.09 344.47 457.20 344.38 458.27 344.45 C 460.12 344.56 462.03 345.58 463.18 347.03 C 464.21 348.33 464.60 349.92 464.36 351.56 C 463.91 354.71 461.75 356.59 459.31 358.35 C 458.25 358.64 457.07 359.01 455.97 358.92 C 454.42 358.78 452.99 357.92 452.04 356.70 C 450.61 354.85 450.38 352.34 450.80 350.10 C 451.32 347.28 452.72 346.07 455.02 344.54 Z M 458.25 354.93 C 458.36 354.90 458.47 354.87 458.57 354.83 C 458.67 354.79 458.78 354.74 458.88 354.69 C 458.98 354.64 459.08 354.58 459.17 354.52 C 459.27 354.46 459.36 354.40 459.45 354.33 C 459.54 354.26 459.62 354.19 459.70 354.11 C 459.78 354.04 459.86 353.96 459.94 353.87 C 460.01 353.79 460.08 353.70 460.15 353.61 C 460.21 353.52 460.27 353.42 460.33 353.33 C 460.38 353.23 460.44 353.13 460.48 353.03 C 460.53 352.92 460.57 352.82 460.61 352.71 C 460.64 352.61 460.68 352.50 460.70 352.39 C 460.73 352.28 460.75 352.17 460.77 352.06 C 460.78 351.95 460.79 351.84 460.80 351.73 C 460.80 351.62 460.80 351.50 460.80 351.39 C 460.79 351.28 460.78 351.17 460.76 351.06 C 460.74 350.94 460.72 350.83 460.69 350.73 C 460.67 350.62 460.64 350.51 460.60 350.40 C 460.56 350.30 460.52 350.19 460.47 350.09 C 460.42 349.99 460.37 349.89 460.31 349.80 C 460.25 349.70 460.19 349.61 460.13 349.51 C 460.06 349.42 459.99 349.34 459.92 349.25 C 459.84 349.17 459.76 349.09 459.68 349.01 C 459.60 348.94 459.51 348.87 459.42 348.80 C 459.33 348.73 459.24 348.67 459.14 348.61 C 459.05 348.55 458.95 348.49 458.85 348.44 C 458.75 348.39 458.65 348.35 458.54 348.31 C 458.44 348.27 458.33 348.24 458.22 348.21 C 458.11 348.18 458.00 348.15 457.89 348.14 C 457.78 348.12 457.67 348.10 457.56 348.10 C 457.45 348.09 457.33 348.09 457.22 348.09 C 457.11 348.09 457.00 348.10 456.89 348.11 C 456.78 348.13 456.66 348.15 456.56 348.17 C 456.40 348.20 456.26 348.25 456.11 348.30 C 455.96 348.36 455.82 348.42 455.69 348.49 C 455.55 348.56 455.42 348.64 455.29 348.73 C 455.17 348.82 455.05 348.92 454.93 349.03 C 454.82 349.13 454.71 349.25 454.62 349.37 C 454.52 349.49 454.43 349.61 454.35 349.74 C 454.27 349.88 454.19 350.01 454.13 350.15 C 454.07 350.29 454.01 350.44 453.97 350.59 C 453.93 350.74 453.89 350.89 453.87 351.04 C 453.84 351.19 453.83 351.35 453.83 351.50 C 453.83 351.66 453.83 351.81 453.85 351.97 C 453.87 352.12 453.89 352.27 453.93 352.42 C 453.97 352.57 454.02 352.72 454.07 352.86 C 454.13 353.01 454.20 353.15 454.27 353.28 C 454.35 353.42 454.43 353.55 454.53 353.67 C 454.62 353.79 454.72 353.91 454.83 354.02 C 454.94 354.13 455.06 354.23 455.18 354.33 C 455.30 354.42 455.43 354.51 455.56 354.59 C 455.70 354.67 455.83 354.73 455.98 354.79 C 456.12 354.85 456.27 354.90 456.42 354.94 C 456.57 354.98 456.72 355.01 456.87 355.03 C 457.03 355.05 457.18 355.06 457.33 355.06 C 457.49 355.06 457.64 355.05 457.80 355.03 C 457.95 355.00 458.10 354.97 458.25 354.93 Z" fill="#1e1e1e" fill-rule="nonzero" node-id="48" stroke="none" target-height="14.628967" target-width="14.212982" target-x="450.38303" target-y="344.38104"></path><path d="M 580.21 339.04 C 581.92 339.11 583.34 339.13 584.74 340.28 C 586.44 341.67 587.23 344.30 587.23 346.41 C 587.24 348.61 586.45 350.90 584.75 352.37 C 583.27 353.65 581.24 354.13 579.31 353.92 C 578.00 353.77 577.27 353.63 576.45 352.59 C 576.44 350.75 578.09 348.69 579.02 347.14 C 580.92 347.19 580.63 349.37 581.58 350.35 C 582.02 349.97 582.42 349.67 582.80 349.20 C 583.64 348.14 584.16 346.63 583.92 345.27 C 583.67 343.89 583.55 343.67 582.48 342.92 C 580.57 342.88 579.06 344.14 577.29 344.70 C 576.17 345.06 576.14 345.04 575.15 344.50 C 574.98 343.63 574.71 343.25 575.14 342.41 C 576.23 340.29 578.10 339.78 580.21 339.04 Z" fill="#1e1e1e" fill-rule="nonzero" node-id="50" stroke="none" target-height="15.087982" target-width="12.528992" target-x="574.706" target-y="339.041"></path><path d="M 539.37 334.44 C 540.63 334.71 542.06 334.90 543.01 335.86 C 543.83 336.68 544.25 337.89 544.14 339.03 C 543.96 341.06 542.74 342.60 541.34 343.95 C 540.07 343.89 538.86 343.61 537.97 342.67 C 536.96 341.60 536.68 340.49 536.76 339.03 C 536.88 336.97 537.93 335.75 539.37 334.44 Z" fill="#1e1e1e" fill-rule="nonzero" node-id="52" stroke="none" target-height="9.505005" target-width="7.564026" target-x="536.683" target-y="334.445"></path><path d="M 500.36 334.86 C 500.55 334.91 500.74 334.95 500.93 335.00 C 502.35 335.42 503.07 335.87 503.76 337.19 C 504.49 338.57 504.47 340.00 504.01 341.45 C 503.44 343.28 502.58 343.89 501.01 344.77 C 499.98 344.33 498.95 343.93 498.28 342.97 C 497.52 341.88 497.16 340.31 497.37 339.00 C 497.70 336.96 498.71 335.96 500.36 334.86 Z" fill="#1e1e1e" fill-rule="nonzero" node-id="54" stroke="none" target-height="9.916016" target-width="7.328003" target-x="497.159" target-y="334.857"></path><path d="M 515.20 364.75 C 517.72 366.57 518.46 367.20 521.60 366.77 C 522.68 366.63 523.58 366.48 524.68 366.61 C 525.31 367.90 525.09 367.99 524.66 369.39 C 522.49 370.46 520.18 371.10 517.76 370.48 C 516.59 370.18 515.60 369.65 515.05 368.52 C 514.38 367.12 514.76 366.10 515.20 364.75 Z" fill="#1e1e1e" fill-rule="nonzero" node-id="56" stroke="none" target-height="6.352997" target-width="10.92804" target-x="514.381" target-y="364.75"></path><path d="M 489.45 397.36 C 489.94 398.54 490.38 399.63 491.15 400.65 C 492.36 400.44 492.25 400.39 493.10 399.66 C 492.57 410.59 496.79 420.67 504.03 428.76 C 504.23 428.98 504.43 429.19 504.62 429.40 C 504.47 429.56 504.32 429.73 504.16 429.88 C 503.55 430.47 503.08 430.72 502.31 431.05 L 502.00 432.36 C 500.03 430.46 498.19 428.44 496.66 426.16 C 491.18 418.01 487.54 407.22 489.45 397.36 Z" fill="#1e1e1e" fill-rule="nonzero" node-id="58" stroke="none" target-height="35" target-width="17.082" target-x="487.54" target-y="397.364"></path><path d="M 785.15 400.69 C 786.71 400.94 787.34 401.07 788.28 402.31 C 788.28 403.84 787.61 404.69 786.79 405.91 C 786.05 406.08 785.42 406.11 784.67 406.14 L 783.91 405.32 C 783.81 403.62 784.52 402.23 785.15 400.69 Z" fill="#1e1e1e" fill-rule="nonzero" node-id="60" stroke="none" target-height="5.450012" target-width="4.4779053" target-x="783.806" target-y="400.69"></path><path d="M 749.90 575.54 C 749.95 575.53 750.00 575.51 750.05 575.51 C 751.43 575.49 751.72 575.50 752.66 576.60 C 754.12 578.32 786.17 681.00 788.84 691.02 C 789.12 692.05 789.24 692.89 789.14 693.96 C 787.96 695.00 786.74 695.53 785.28 696.10 C 778.10 698.94 770.30 700.70 762.96 703.14 L 701.59 723.00 C 700.23 722.33 699.75 721.41 699.17 720.03 C 694.25 708.40 690.35 693.54 686.38 681.37 C 678.37 656.20 670.05 631.13 661.41 606.16 C 668.96 602.92 677.21 600.47 684.97 597.68 C 706.55 590.10 728.19 582.72 749.90 575.54 Z M 666.66 608.41 C 673.26 630.38 681.21 652.08 688.44 673.86 C 693.29 688.50 697.32 703.86 702.93 718.19 C 712.44 715.46 721.77 711.96 731.18 708.87 C 749.06 702.94 767.00 697.19 785.01 691.64 C 780.04 677.94 751.66 582.20 749.29 580.06 C 749.27 580.04 749.24 580.04 749.21 580.03 C 735.46 585.71 721.10 589.87 707.01 594.64 C 693.58 599.18 680.26 604.42 666.66 608.41 Z" fill="#1e1e1e" fill-rule="nonzero" node-id="62" stroke="none" target-height="147.51105" target-width="127.82501" target-x="661.414" target-y="575.488"></path><path d="M 733.04 604.01 C 733.96 603.89 734.60 603.75 735.49 604.09 C 736.23 604.37 736.23 604.78 736.57 605.43 L 736.05 606.67 C 733.72 608.78 698.88 620.07 693.50 621.43 C 692.56 621.52 692.26 621.47 691.37 621.05 C 690.36 620.59 690.58 620.57 690.25 619.63 C 690.80 618.56 691.31 618.05 692.42 617.53 C 696.17 615.78 700.73 614.69 704.68 613.38 C 714.15 610.31 723.60 607.19 733.04 604.01 Z" fill="#1e1e1e" fill-rule="nonzero" node-id="64" stroke="none" target-height="17.77301" target-width="46.31604" target-x="690.25397" target-y="603.752"></path><path d="M 736.26 622.49 C 737.10 622.46 737.72 622.58 738.54 622.74 C 739.30 623.70 739.41 623.67 739.37 624.88 C 736.00 628.01 705.26 637.09 698.61 639.17 C 698.52 639.21 698.44 639.27 698.35 639.29 C 697.24 639.54 696.84 639.69 695.86 639.10 C 695.50 637.76 695.58 637.74 696.16 636.46 C 697.47 635.38 698.68 634.61 700.26 633.97 C 703.44 632.68 707.13 632.12 710.44 631.06 C 719.06 628.26 727.67 625.40 736.26 622.49 Z" fill="#1e1e1e" fill-rule="nonzero" node-id="66" stroke="none" target-height="17.22998" target-width="43.901" target-x="695.505" target-y="622.458"></path><path d="M 747.29 678.51 L 749.50 678.55 C 750.53 679.27 750.58 679.03 750.91 680.35 C 748.09 684.05 728.70 689.38 723.34 691.22 L 721.24 691.49 C 720.10 691.00 720.12 690.98 719.55 689.87 L 719.89 688.84 C 724.05 684.96 740.80 680.90 747.29 678.51 Z" fill="#1e1e1e" fill-rule="nonzero" node-id="68" stroke="none" target-height="12.977905" target-width="31.360046" target-x="719.549" target-y="678.515"></path><path d="M 269.43 589.88 C 283.39 592.75 297.33 596.55 311.21 599.82 C 327.40 603.63 343.97 606.99 359.82 612.00 C 358.66 619.81 332.21 730.97 331.41 731.89 C 330.94 732.45 330.54 732.27 329.88 732.29 L 270.75 718.11 C 259.99 715.49 248.89 713.29 238.34 709.95 C 238.84 703.12 241.15 696.20 242.87 689.59 L 250.63 659.75 C 254.83 642.99 259.13 626.24 263.53 609.53 C 265.22 603.26 266.50 595.66 269.43 589.88 Z M 242.87 706.89 C 270.97 713.56 299.22 719.97 327.12 727.45 L 328.34 727.38 C 330.21 721.42 331.44 715.14 332.88 709.06 L 340.79 675.86 L 350.20 635.93 C 351.84 628.93 353.85 621.92 355.08 614.85 C 338.81 610.32 322.12 606.98 305.69 603.08 C 294.60 600.45 283.12 596.80 271.87 595.18 C 269.54 605.65 266.38 616.03 263.61 626.40 C 259.37 642.51 255.23 658.64 251.18 674.79 C 248.40 685.49 245.29 696.11 242.87 706.89 Z" fill="#1e1e1e" fill-rule="nonzero" node-id="70" stroke="none" target-height="142.57196" target-width="121.474" target-x="238.344" target-y="589.879"></path><path d="M 284.59 615.88 C 290.28 616.18 329.72 625.41 332.31 627.80 C 332.64 629.08 332.54 629.73 332.20 630.99 C 323.42 629.82 291.88 622.50 284.23 619.32 C 283.88 617.95 284.23 617.23 284.59 615.88 Z" fill="#1e1e1e" fill-rule="nonzero" node-id="72" stroke="none" target-height="15.115967" target-width="48.763" target-x="283.881" target-y="615.877"></path><path d="M 287.15 635.30 C 291.56 635.69 321.07 642.57 324.51 644.13 C 325.21 645.48 325.03 646.09 324.94 647.59 C 317.49 647.32 294.27 642.05 287.61 638.76 C 286.83 637.47 287.07 636.79 287.15 635.30 Z" fill="#1e1e1e" fill-rule="nonzero" node-id="74" stroke="none" target-height="12.287964" target-width="38.386993" target-x="286.828" target-y="635.304"></path><path d="M 275.31 690.78 C 280.68 692.08 306.01 697.41 308.65 699.69 C 308.97 701.06 308.59 701.44 308.04 702.70 C 303.98 702.49 276.87 696.48 274.55 694.27 C 274.18 692.72 274.68 692.21 275.31 690.78 Z" fill="#1e1e1e" fill-rule="nonzero" node-id="76" stroke="none" target-height="11.915955" target-width="34.789978" target-x="274.178" target-y="690.783"></path><path d="M 100.97 417.78 C 101.92 418.06 102.48 418.42 103.26 419.03 C 105.10 423.62 105.69 428.82 106.98 433.61 C 110.43 446.60 113.94 459.57 117.53 472.53 C 125.14 499.26 133.25 525.84 141.86 552.27 C 145.66 563.35 149.55 574.40 153.54 585.42 C 155.30 590.38 157.75 595.74 158.87 600.85 C 159.09 601.86 158.97 602.68 158.77 603.69 C 157.87 603.49 156.57 603.31 155.85 602.70 C 152.76 600.11 150.95 590.97 149.49 586.93 C 135.42 547.75 122.93 508.08 112.02 467.90 C 108.16 453.86 103.99 439.78 100.73 425.59 C 100.08 422.77 99.34 420.39 100.97 417.78 Z" fill="#1e1e1e" fill-rule="nonzero" node-id="78" stroke="none" target-height="185.90701" target-width="59.747505" target-x="99.3395" target-y="417.77896"></path><path d="M 921.94 415.74 C 922.59 416.00 923.46 416.26 924.03 416.66 C 924.77 417.19 924.99 417.51 925.18 418.38 C 925.88 421.45 921.45 431.26 920.23 434.82 C 907.05 473.31 891.83 510.73 875.65 548.04 C 870.14 560.74 862.36 580.92 855.02 592.25 C 853.71 591.94 853.29 591.52 852.41 590.52 C 852.13 589.58 852.20 589.01 852.51 588.11 C 854.27 583.05 857.28 577.95 859.62 573.10 C 863.82 564.30 867.87 555.42 871.76 546.48 C 890.24 503.41 907.61 460.39 921.94 415.74 Z" fill="#1e1e1e" fill-rule="nonzero" node-id="80" stroke="none" target-height="176.50797" target-width="73.75409" target-x="852.1259" target-y="415.743"></path><path d="M 597.71 803.30 C 600.16 802.94 603.17 802.40 605.42 803.68 L 605.55 804.48 L 604.67 805.70 C 600.21 807.68 588.67 808.19 583.28 808.74 C 571.60 809.98 559.89 810.94 548.16 811.63 C 536.43 812.32 524.70 812.74 512.95 812.87 C 501.20 813.01 489.45 812.87 477.71 812.46 C 465.97 812.04 454.24 811.35 442.53 810.38 C 441.32 810.27 440.13 810.05 438.93 809.85 C 438.01 808.93 437.91 808.96 437.81 807.68 C 438.71 806.86 439.36 806.62 440.59 806.62 C 444.02 806.62 447.63 807.30 451.07 807.57 C 457.44 808.05 463.83 808.24 470.20 808.49 C 480.84 808.90 491.49 809.10 502.13 809.09 C 512.78 809.08 523.42 808.86 534.06 808.42 C 544.70 807.99 555.33 807.35 565.94 806.49 C 576.55 805.64 587.14 804.57 597.71 803.30 Z" fill="#1e1e1e" fill-rule="nonzero" node-id="82" stroke="none" target-height="10.608398" target-width="167.74197" target-x="437.806" target-y="802.402"></path><path d="M 767.72 768.52 C 768.51 768.41 769.13 768.30 769.92 768.48 C 770.66 768.65 770.77 769.15 771.17 769.74 L 770.96 770.71 C 768.15 773.44 758.58 776.41 754.56 777.83 C 718.49 790.58 687.34 796.99 649.48 801.56 C 648.06 801.60 646.75 801.72 645.39 801.23 C 644.79 800.01 644.85 799.40 645.04 798.06 C 650.30 796.04 658.10 796.30 663.77 795.56 C 672.66 794.40 681.51 792.99 690.33 791.34 C 716.88 786.29 742.45 778.00 767.72 768.52 Z" fill="#1e1e1e" fill-rule="nonzero" node-id="84" stroke="none" target-height="33.42096" target-width="126.380005" target-x="644.788" target-y="768.299"></path><path d="M 278.78 774.04 C 286.29 775.39 293.95 778.36 301.29 780.52 C 312.37 783.72 323.51 786.68 334.72 789.38 C 345.38 792.09 356.09 794.57 366.86 796.83 C 373.21 798.12 383.65 799.12 389.35 801.42 C 390.14 802.72 389.95 803.27 389.91 804.76 C 379.32 804.60 285.68 783.06 278.94 777.58 C 278.25 776.04 278.48 775.66 278.78 774.04 Z" fill="#1e1e1e" fill-rule="nonzero" node-id="86" stroke="none" target-height="30.715027" target-width="111.882996" target-x="278.254" target-y="774.04395"></path></svg>