<?xml version="1.0" standalone="no"?><!DOCTYPE svg PUBLIC "-//W3C//DTD SVG 1.1//EN" "http://www.w3.org/Graphics/SVG/1.1/DTD/svg11.dtd"><svg height="1024" node-id="1" sillyvg="true" template-height="1024" template-width="1024" version="1.1" viewBox="0 0 1024 1024" width="1024" xmlns="http://www.w3.org/2000/svg" xmlns:xlink="http://www.w3.org/1999/xlink"><defs node-id="25"></defs><path d="M 513.62 299.43 C 513.28 295.40 511.66 286.42 514.12 283.14 C 517.17 279.07 537.76 279.13 543.23 279.32 C 545.80 279.41 548.81 279.75 550.87 281.42 C 553.52 286.87 552.58 295.41 552.66 301.48 C 545.04 301.41 522.10 305.96 515.24 308.81 C 512.91 309.78 511.07 311.12 509.29 312.88 C 500.19 321.89 497.22 337.99 497.40 350.29 C 497.56 361.35 501.23 374.58 509.36 382.45 C 512.17 385.17 515.17 387.25 518.52 389.25 C 522.71 389.93 527.05 391.88 531.30 392.80 C 542.87 395.31 557.56 394.94 568.83 391.33 C 576.58 388.84 582.69 384.64 586.42 377.16 C 593.43 363.11 593.16 345.31 588.11 330.69 C 585.10 321.97 579.43 313.60 570.88 309.57 C 560.40 304.63 546.44 305.87 535.82 309.68 C 535.25 309.88 534.70 310.10 534.14 310.33 C 533.59 310.56 533.05 310.80 532.51 311.06 C 531.97 311.31 531.43 311.58 530.91 311.87 C 530.38 312.15 529.86 312.44 529.35 312.75 C 528.84 313.06 528.34 313.38 527.84 313.71 C 527.34 314.05 526.85 314.39 526.38 314.75 C 525.90 315.10 525.43 315.47 524.97 315.85 C 524.50 316.23 524.05 316.62 523.61 317.02 C 523.17 317.43 522.74 317.84 522.32 318.26 C 521.89 318.68 521.48 319.12 521.08 319.56 C 520.68 320.00 520.29 320.46 519.91 320.92 C 519.54 321.38 519.17 321.85 518.81 322.33 C 518.46 322.82 518.12 323.30 517.78 323.80 C 517.45 324.30 517.14 324.80 516.83 325.32 C 516.52 325.83 516.23 326.35 515.95 326.88 C 515.67 327.41 515.40 327.94 515.15 328.48 C 510.30 338.89 511.18 351.72 515.02 362.31 C 517.89 370.21 522.75 376.35 530.56 379.89 C 539.95 384.14 551.49 385.22 561.23 381.53 C 568.34 378.83 573.57 373.48 576.58 366.56 C 581.01 356.40 579.77 346.26 575.90 336.18 C 574.50 337.96 573.35 339.75 572.24 341.73 C 572.86 344.85 573.38 348.13 573.48 351.31 C 573.74 359.31 571.10 367.91 565.38 373.68 C 561.62 377.47 556.44 379.92 551.05 379.88 C 539.94 379.81 538.79 369.65 531.62 364.01 C 528.56 361.61 523.69 361.26 521.13 358.44 C 519.26 356.38 519.13 353.48 519.27 350.83 C 519.79 340.66 523.57 331.39 531.36 324.62 C 537.65 319.15 546.69 315.99 555.02 316.79 C 562.80 317.53 570.36 321.54 575.12 327.75 C 581.38 335.91 584.15 347.90 582.66 358.01 C 581.38 366.72 577.24 375.41 570.03 380.71 C 561.84 386.73 549.26 387.54 539.48 386.06 C 530.38 384.68 522.39 380.77 516.88 373.20 C 509.68 363.33 506.99 348.70 508.96 336.76 C 510.63 326.61 516.92 317.22 525.31 311.34 C 536.20 303.71 552.57 301.77 565.42 303.93 L 564.02 300.32 C 565.13 299.22 566.43 298.39 567.54 297.30 C 572.59 296.48 599.43 295.45 603.14 298.11 C 606.60 300.59 607.58 305.78 608.09 309.73 C 608.85 315.61 609.13 321.61 609.52 327.53 C 616.12 331.66 618.69 339.64 620.39 346.89 C 622.18 354.48 623.15 363.00 621.91 370.75 C 646.56 408.18 689.79 483.53 680.64 529.14 C 679.00 537.36 674.90 545.27 667.75 550.00 C 660.51 554.78 652.11 555.43 643.83 553.56 C 613.78 546.77 577.71 501.38 560.44 477.25 L 554.09 478.31 C 556.28 499.83 556.88 521.48 557.64 543.10 C 558.73 569.18 559.15 595.28 558.89 621.38 C 558.35 669.93 555.71 718.36 553.80 766.86 L 551.15 830.62 L 550.27 853.99 C 550.13 857.49 550.31 861.48 549.76 864.92 C 549.51 872.58 549.53 880.16 550.08 887.81 C 556.18 891.25 562.30 895.16 568.64 898.11 C 574.88 901.03 580.82 904.53 587.02 907.50 C 598.25 912.86 610.77 917.73 621.10 924.65 C 623.11 926.00 625.34 927.77 626.38 930.02 C 626.80 930.91 626.96 932.03 626.57 932.96 C 626.07 934.14 625.30 934.92 624.10 935.36 C 612.74 939.54 569.13 937.73 554.21 937.98 C 547.56 938.09 541.21 940.02 534.60 940.18 C 518.57 940.58 502.45 939.56 486.40 939.52 C 460.13 939.44 432.48 940.05 406.33 938.51 C 404.27 938.39 401.02 938.34 399.30 937.17 C 396.35 935.16 395.55 930.92 395.10 927.62 C 394.38 922.40 394.32 916.99 394.08 911.72 C 393.43 897.43 393.48 883.13 392.70 868.84 C 389.76 815.81 387.33 762.74 385.42 709.66 C 385.13 699.76 384.97 689.86 384.94 679.97 C 384.93 674.02 385.42 667.60 384.69 661.73 L 382.62 661.26 C 376.63 660.92 343.51 659.43 340.82 656.19 C 339.17 654.20 338.76 650.56 338.47 648.03 C 337.36 638.40 337.81 628.16 337.62 618.45 C 337.12 599.20 337.03 579.95 337.36 560.69 C 336.96 560.37 336.56 560.05 336.18 559.70 C 330.85 554.92 326.65 549.16 324.15 542.43 C 317.74 525.18 321.12 496.04 324.01 477.79 C 324.82 472.65 327.49 463.47 327.27 458.82 C 327.06 458.78 326.86 458.74 326.65 458.70 C 325.01 458.33 324.39 458.30 323.49 456.89 C 323.22 452.23 327.73 442.80 329.71 438.37 C 345.99 402.01 381.69 361.18 419.51 346.76 C 414.14 341.55 410.33 335.97 407.36 329.13 C 400.55 328.47 394.45 327.38 388.63 323.59 C 383.00 319.92 378.60 314.47 377.37 307.74 C 376.60 303.53 376.96 299.06 379.62 295.55 C 383.00 291.10 388.20 289.81 393.45 289.22 L 394.20 291.97 C 389.46 292.88 384.64 294.73 381.89 298.96 C 380.19 301.56 379.88 304.63 380.60 307.61 C 381.99 313.45 386.61 318.19 391.70 321.08 C 397.65 324.47 403.08 324.76 409.70 325.52 C 412.90 333.95 416.61 339.14 423.57 344.89 C 430.79 349.86 436.26 351.98 444.79 353.90 C 446.16 344.55 446.44 338.82 454.56 332.74 C 453.99 324.47 451.99 308.01 457.34 301.37 C 458.83 299.53 460.87 298.39 463.12 297.75 C 471.49 295.36 487.61 296.63 497.20 295.39 L 497.69 294.65 C 498.81 295.03 499.79 295.23 500.95 295.36 C 500.66 296.82 500.31 297.24 501.08 298.55 C 505.07 299.94 509.44 299.36 513.62 299.43 Z M 327.44 454.61 C 348.60 452.31 370.76 452.34 391.51 457.57 C 395.62 451.71 403.49 442.71 406.01 436.60 C 408.41 430.78 407.88 411.91 414.98 409.65 L 415.81 409.90 C 416.04 412.49 411.00 426.95 410.04 431.44 C 414.63 424.32 419.15 417.16 423.59 409.94 C 425.63 406.71 427.63 402.74 430.19 399.95 C 430.53 398.79 430.66 397.99 430.37 396.78 C 429.56 393.32 428.01 389.80 426.93 386.39 C 424.72 379.42 422.70 372.11 421.18 364.95 C 420.19 360.31 420.90 355.11 419.51 350.63 C 381.05 367.08 346.02 406.94 330.57 445.56 C 329.39 448.52 328.24 451.52 327.44 454.61 Z M 478.16 891.91 C 489.42 897.57 501.17 906.21 512.07 912.92 C 522.92 919.59 534.65 925.49 545.19 932.57 C 547.85 922.10 551.95 913.72 559.21 905.65 C 561.02 903.64 563.42 901.97 565.07 899.89 C 559.62 897.86 554.17 892.51 548.53 891.41 C 543.72 890.48 538.43 895.73 533.82 894.49 L 533.26 893.32 L 533.69 892.13 C 536.79 889.33 542.46 888.60 546.48 887.60 C 545.88 882.08 546.12 876.33 546.17 870.78 L 546.07 860.72 C 536.50 860.96 526.96 862.41 517.40 863.05 C 504.47 863.91 491.49 863.98 478.53 864.08 C 477.97 873.35 477.85 882.62 478.16 891.91 Z M 588.12 322.62 C 593.88 321.48 600.47 321.51 605.73 324.34 C 605.24 319.37 604.67 314.39 604.42 309.40 C 600.94 308.21 581.95 308.98 576.32 308.77 C 582.12 311.89 585.16 316.97 588.12 322.62 Z M 565.07 342.95 C 569.04 340.45 571.36 336.69 573.95 332.89 C 571.14 327.31 566.00 323.35 560.12 321.34 C 556.84 320.22 553.75 319.89 550.32 320.11 C 547.48 320.67 545.29 321.20 543.68 323.81 C 542.43 325.85 542.47 328.36 543.12 330.60 C 544.52 335.44 548.69 340.15 553.14 342.45 C 557.01 344.44 560.56 344.47 564.66 343.11 C 564.80 343.06 564.93 343.00 565.07 342.95 Z M 435.00 655.70 C 450.58 656.88 466.32 656.96 481.93 657.11 C 506.55 657.33 530.64 658.04 554.72 651.91 C 555.09 639.50 555.25 627.08 555.20 614.65 C 555.69 563.84 553.92 513.11 549.88 462.45 C 549.29 454.98 544.29 417.61 545.52 415.06 L 546.44 414.88 C 550.41 418.81 553.68 467.39 554.09 475.96 C 562.75 472.76 571.64 470.21 580.31 467.00 C 587.69 464.27 594.76 460.90 602.00 457.83 C 595.16 434.94 586.59 413.66 575.25 392.65 C 557.07 399.46 534.16 399.82 516.30 391.54 C 516.11 391.45 515.91 391.35 515.72 391.25 C 514.61 401.35 512.00 411.56 509.58 421.43 C 507.43 430.16 505.38 438.98 502.81 447.60 C 497.64 465.00 491.33 482.18 485.37 499.32 C 475.28 528.49 465.52 557.77 456.07 587.16 C 451.27 601.59 446.72 616.10 442.43 630.69 C 439.90 638.97 437.03 647.29 435.00 655.70 Z M 389.71 460.78 C 374.22 456.69 347.25 456.27 331.49 458.10 C 325.78 482.36 317.42 525.80 330.91 547.84 C 334.93 554.39 340.41 559.08 347.62 561.75 C 359.75 565.23 369.24 564.40 380.35 558.26 C 404.38 545.00 450.43 466.38 466.34 438.67 C 471.80 428.97 477.47 419.40 483.35 409.96 C 486.28 405.15 489.06 399.74 492.85 395.57 C 496.57 391.48 501.94 388.36 506.50 385.24 C 503.23 384.12 501.44 382.89 499.07 380.43 C 495.16 380.50 491.04 381.71 487.23 381.30 L 486.63 380.14 C 486.97 379.07 486.97 378.84 488.04 378.30 C 491.19 376.68 497.13 376.99 500.69 376.84 C 498.78 372.34 496.76 367.58 495.65 362.81 C 492.87 363.17 490.07 363.54 487.34 364.17 C 483.85 364.97 474.22 368.51 471.09 368.19 C 470.67 368.14 470.33 367.84 469.94 367.66 C 469.84 366.79 469.64 366.86 470.17 366.31 C 473.46 362.89 490.09 359.97 494.85 359.34 C 494.08 354.28 493.47 348.98 493.95 343.87 C 488.52 344.92 483.22 346.13 477.93 347.78 C 473.55 349.15 467.03 352.84 462.61 352.96 L 462.20 352.31 C 463.36 349.91 465.67 348.11 468.17 347.24 C 476.74 344.21 485.49 341.88 494.43 340.25 C 495.01 336.62 495.42 332.83 496.39 329.29 C 493.77 329.13 491.18 328.88 488.56 329.22 C 479.14 329.87 459.66 331.25 453.22 338.65 C 447.05 345.74 448.25 370.97 443.73 381.82 C 439.31 392.43 428.55 409.06 422.17 419.09 C 409.76 438.59 396.28 457.35 383.10 476.32 C 376.18 486.27 368.52 498.86 360.87 507.92 C 359.88 509.09 358.83 509.97 357.37 510.50 L 356.57 510.08 C 356.53 508.73 356.92 507.76 357.57 506.60 C 360.23 501.83 364.09 497.20 367.23 492.69 L 389.71 460.78 Z M 595.07 351.72 C 598.80 353.26 605.63 356.60 607.16 360.59 C 607.22 360.75 607.26 360.91 607.30 361.07 L 607.10 360.29 L 606.58 361.25 C 602.16 360.31 598.95 357.45 595.06 355.38 C 594.95 358.69 594.55 361.78 593.93 365.03 C 597.07 365.16 600.43 364.90 603.15 366.67 L 603.11 367.45 C 600.18 369.24 596.48 368.77 593.19 368.70 C 590.06 378.00 586.71 385.76 578.24 391.36 C 585.41 403.07 590.72 415.59 595.82 428.31 C 599.86 438.37 623.60 508.62 622.24 514.62 C 622.09 515.31 622.04 515.32 621.75 515.84 L 620.83 516.06 C 619.62 515.30 619.36 514.85 618.91 513.49 C 613.22 496.05 609.64 478.00 603.02 460.79 C 590.47 467.50 577.25 471.79 563.85 476.37 C 568.94 482.32 573.72 488.50 578.53 494.67 C 594.52 514.35 622.50 548.08 648.98 550.73 C 655.54 551.38 662.18 549.95 667.39 545.75 C 674.38 540.11 677.31 530.81 678.07 522.17 C 678.77 514.29 677.78 506.20 676.48 498.42 C 670.55 462.97 653.77 430.95 636.03 400.16 C 631.99 393.15 625.96 381.26 620.91 375.34 C 618.27 372.26 615.12 370.57 612.72 367.15 C 613.85 361.82 614.29 356.33 611.29 351.47 C 607.97 346.10 601.71 343.31 595.75 342.02 C 595.25 341.91 594.75 341.81 594.24 341.71 C 594.50 345.04 594.67 348.41 595.07 351.72 Z M 481.30 434.31 C 484.38 435.86 487.46 437.46 490.59 438.91 C 492.48 431.95 502.48 396.59 501.27 392.94 C 491.26 400.71 481.07 420.05 475.03 431.47 L 481.30 434.31 Z M 457.97 313.63 C 457.40 319.39 457.81 325.23 458.01 331.01 C 462.19 329.71 466.43 328.89 470.62 327.70 L 480.97 326.22 C 480.06 321.64 479.95 317.01 480.04 312.35 C 474.78 312.36 469.46 312.32 464.22 312.67 L 457.97 313.63 Z M 521.91 289.62 C 521.98 292.97 521.97 296.30 522.50 299.61 L 529.88 299.51 L 548.47 299.52 C 548.45 296.18 548.41 292.93 547.98 289.61 L 542.15 289.21 C 535.42 289.43 528.62 289.25 521.91 289.62 Z M 593.39 338.42 C 600.77 339.51 609.09 342.39 613.71 348.61 C 618.55 355.14 615.55 365.64 617.16 367.81 C 617.51 368.28 618.52 368.84 619.01 369.21 C 619.11 357.17 617.70 342.44 610.73 332.18 C 604.66 328.70 598.07 327.52 591.15 327.35 C 591.89 331.04 592.56 334.76 593.39 338.42 Z M 433.43 354.79 C 434.80 360.49 437.83 375.81 440.77 379.94 C 441.45 378.68 441.77 377.48 442.11 376.10 C 443.43 369.69 444.33 363.21 444.81 356.68 C 441.02 356.35 437.09 355.84 433.43 354.79 Z M 482.83 312.02 C 483.22 316.66 483.30 321.59 484.48 326.10 C 488.65 326.04 492.83 325.91 497.00 325.98 C 497.98 325.35 503.75 314.28 506.00 311.54 L 493.22 311.73 C 489.76 311.84 486.30 312.00 482.83 312.02 Z M 396.47 866.91 L 397.05 894.53 C 397.28 907.50 396.50 922.46 400.55 934.90 C 414.64 935.80 428.95 935.72 443.07 935.51 C 448.61 935.60 454.29 935.95 459.81 935.70 C 464.88 921.64 476.78 910.10 489.55 902.80 C 484.57 899.93 479.64 896.97 474.76 893.94 L 473.97 894.16 C 468.58 895.68 461.75 900.48 456.33 900.33 L 455.54 899.88 C 455.53 899.19 455.35 898.75 455.83 898.20 C 459.00 894.55 469.85 891.73 474.62 890.91 C 475.13 882.03 475.04 873.10 475.12 864.20 C 473.22 864.20 471.30 864.12 469.42 864.20 C 444.97 866.09 421.00 867.28 396.47 866.91 Z M 467.08 445.51 C 459.31 456.95 452.46 469.16 445.18 480.91 C 438.06 492.39 430.40 503.56 422.85 514.76 C 417.15 523.19 411.45 532.43 404.56 539.93 L 422.73 540.00 C 433.16 539.81 443.65 539.45 454.08 539.50 L 472.27 490.32 C 475.97 480.37 480.03 470.44 483.36 460.37 C 477.97 455.40 472.64 450.30 467.08 445.51 Z M 446.13 543.49 C 431.46 543.52 416.74 543.30 402.07 543.67 L 401.76 543.94 C 398.71 546.65 396.08 549.83 393.10 552.62 C 383.67 561.45 372.08 568.16 358.77 567.41 C 356.05 567.24 353.35 566.89 350.67 566.36 C 353.56 580.83 356.10 595.34 359.67 609.67 C 361.97 618.90 365.35 628.08 367.37 637.31 C 367.70 638.83 367.64 639.32 366.89 640.68 L 365.86 641.18 C 360.12 636.83 348.75 574.98 347.43 566.27 C 347.37 565.88 347.33 565.48 347.29 565.08 L 340.57 562.73 C 340.48 578.26 340.58 593.80 340.86 609.33 C 340.96 620.60 339.84 643.00 343.04 653.04 C 348.73 657.99 416.63 658.85 429.86 659.23 L 433.46 648.26 C 439.82 626.77 446.41 605.35 453.21 584.00 C 456.93 572.32 461.12 560.67 464.56 548.92 C 464.39 548.85 464.22 548.78 464.05 548.72 C 460.35 547.18 455.30 542.21 451.20 543.56 C 447.12 544.91 413.64 627.03 407.74 637.12 C 407.16 638.13 406.65 638.78 405.59 639.32 L 404.79 638.87 C 404.32 637.11 404.59 635.59 405.17 633.88 C 407.71 626.33 412.11 618.77 415.30 611.40 C 425.14 588.65 435.14 565.71 446.13 543.49 Z" fill="#171617" fill-rule="nonzero" node-id="27" stroke="none" target-height="661.51" target-width="372.379" target-x="317.415" target-y="279.067"></path><path d="M 572.24 341.73 C 572.86 344.85 573.38 348.13 573.48 351.31 C 573.74 359.31 571.10 367.91 565.38 373.68 C 561.62 377.47 556.44 379.92 551.05 379.88 C 539.94 379.81 538.79 369.65 531.62 364.01 C 528.56 361.61 523.69 361.26 521.13 358.44 C 519.26 356.38 519.13 353.48 519.27 350.83 C 519.79 340.66 523.57 331.39 531.36 324.62 C 537.65 319.15 546.69 315.99 555.02 316.79 C 562.80 317.53 570.36 321.54 575.12 327.75 C 581.38 335.91 584.15 347.90 582.66 358.01 C 581.38 366.72 577.24 375.41 570.03 380.71 C 561.84 386.73 549.26 387.54 539.48 386.06 C 530.38 384.68 522.39 380.77 516.88 373.20 C 509.68 363.33 506.99 348.70 508.96 336.76 C 510.63 326.61 516.92 317.22 525.31 311.34 C 536.20 303.71 552.57 301.77 565.42 303.93 C 567.51 305.91 573.41 308.84 576.32 308.77 C 582.12 311.89 585.16 316.97 588.12 322.62 C 593.88 321.48 600.47 321.51 605.73 324.34 C 605.24 319.37 604.67 314.39 604.42 309.40 C 605.86 311.47 606.90 320.02 606.39 322.57 C 606.14 323.86 605.47 324.31 604.41 324.91 C 603.06 324.55 603.24 324.15 602.21 323.47 C 600.47 322.33 590.57 322.92 588.34 323.32 C 583.71 320.58 584.53 313.72 574.67 309.25 L 574.30 309.53 C 576.89 312.74 580.25 315.13 582.77 318.46 C 590.99 329.29 593.63 345.88 592.20 359.14 C 591.24 368.09 588.24 380.25 580.95 386.18 C 569.23 395.72 549.72 395.88 535.56 394.18 C 530.05 393.51 523.80 392.60 518.80 390.06 L 518.52 389.25 C 522.71 389.93 527.05 391.88 531.30 392.80 C 542.87 395.31 557.56 394.94 568.83 391.33 C 576.58 388.84 582.69 384.64 586.42 377.16 C 593.43 363.11 593.16 345.31 588.11 330.69 C 585.10 321.97 579.43 313.60 570.88 309.57 C 560.40 304.63 546.44 305.87 535.82 309.68 C 535.25 309.88 534.70 310.10 534.14 310.33 C 533.59 310.56 533.05 310.80 532.51 311.06 C 531.97 311.31 531.43 311.58 530.91 311.87 C 530.38 312.15 529.86 312.44 529.35 312.75 C 528.84 313.06 528.34 313.38 527.84 313.71 C 527.34 314.05 526.85 314.39 526.38 314.75 C 525.90 315.10 525.43 315.47 524.97 315.85 C 524.50 316.23 524.05 316.62 523.61 317.02 C 523.17 317.43 522.74 317.84 522.32 318.26 C 521.89 318.68 521.48 319.12 521.08 319.56 C 520.68 320.00 520.29 320.46 519.91 320.92 C 519.54 321.38 519.17 321.85 518.81 322.33 C 518.46 322.82 518.12 323.30 517.78 323.80 C 517.45 324.30 517.14 324.80 516.83 325.32 C 516.52 325.83 516.23 326.35 515.95 326.88 C 515.67 327.41 515.40 327.94 515.15 328.48 C 510.30 338.89 511.18 351.72 515.02 362.31 C 517.89 370.21 522.75 376.35 530.56 379.89 C 539.95 384.14 551.49 385.22 561.23 381.53 C 568.34 378.83 573.57 373.48 576.58 366.56 C 581.01 356.40 579.77 346.26 575.90 336.18 C 574.50 337.96 573.35 339.75 572.24 341.73 Z M 565.07 342.95 C 569.04 340.45 571.36 336.69 573.95 332.89 C 571.14 327.31 566.00 323.35 560.12 321.34 C 556.84 320.22 553.75 319.89 550.32 320.11 C 547.48 320.67 545.29 321.20 543.68 323.81 C 542.43 325.85 542.47 328.36 543.12 330.60 C 544.52 335.44 548.69 340.15 553.14 342.45 C 557.01 344.44 560.56 344.47 564.66 343.11 C 564.80 343.06 564.93 343.00 565.07 342.95 Z" fill="#000000" fill-rule="nonzero" node-id="29" stroke="none" target-height="94.112" target-width="99.91501" target-x="506.98898" target-y="301.769"></path><path d="M 393.45 289.22 L 394.20 291.97 C 389.46 292.88 384.64 294.73 381.89 298.96 C 380.19 301.56 379.88 304.63 380.60 307.61 C 381.99 313.45 386.61 318.19 391.70 321.08 C 397.65 324.47 403.08 324.76 409.70 325.52 C 412.90 333.95 416.61 339.14 423.57 344.89 C 422.60 346.34 421.76 346.88 420.22 347.69 C 419.45 348.71 419.53 349.40 419.51 350.63 C 381.05 367.08 346.02 406.94 330.57 445.56 C 329.39 448.52 328.24 451.52 327.44 454.61 C 348.60 452.31 370.76 452.34 391.51 457.57 C 395.62 451.71 403.49 442.71 406.01 436.60 C 408.41 430.78 407.88 411.91 414.98 409.65 L 415.81 409.90 C 416.04 412.49 411.00 426.95 410.04 431.44 C 414.63 424.32 419.15 417.16 423.59 409.94 C 425.63 406.71 427.63 402.74 430.19 399.95 L 430.66 400.26 C 429.12 403.63 426.69 406.57 424.73 409.70 C 421.88 414.25 419.59 419.05 416.28 423.30 C 414.42 425.68 413.19 429.22 410.91 431.09 L 410.22 430.69 C 409.48 426.55 411.26 423.68 412.08 419.81 C 412.72 416.79 415.65 413.60 415.13 410.48 C 413.20 411.37 411.94 413.85 411.20 415.75 C 408.58 422.44 408.85 431.66 406.91 436.57 C 405.17 440.99 401.44 445.31 398.70 449.17 C 396.87 451.74 394.57 455.83 391.96 457.61 C 385.69 457.88 379.58 455.73 373.40 454.95 C 365.52 453.97 334.54 452.95 327.55 455.58 L 326.52 455.06 C 326.28 450.54 331.49 442.80 332.82 438.05 C 334.09 433.48 337.49 428.47 339.89 424.30 C 355.68 396.90 381.91 368.83 409.88 353.87 C 412.37 352.53 417.99 351.44 419.13 348.70 L 418.76 348.17 C 409.53 350.76 401.90 356.53 393.95 361.60 C 387.32 365.83 374.89 376.80 369.48 382.59 C 368.54 383.60 368.16 384.89 367.20 385.92 C 364.99 388.30 362.43 390.40 360.32 392.88 C 347.52 407.88 336.48 424.32 328.85 442.57 C 327.21 446.50 325.21 450.87 324.43 455.06 C 324.28 455.84 324.36 455.71 324.49 456.66 C 324.64 456.74 324.79 456.83 324.94 456.91 C 326.57 457.86 327.46 458.45 327.86 460.42 C 328.57 463.84 325.79 471.40 325.14 475.30 C 322.04 493.88 317.97 526.58 325.68 543.99 C 328.53 550.40 333.02 555.41 338.00 560.25 C 337.97 580.03 338.20 599.74 338.50 619.51 C 338.65 629.22 338.13 639.25 339.22 648.89 C 339.43 650.67 339.70 653.49 341.07 654.82 C 345.59 659.23 375.14 660.28 382.29 660.53 L 382.92 660.19 L 383.23 659.00 L 383.89 659.18 C 383.91 660.12 383.82 660.41 383.06 661.04 C 382.93 661.15 382.77 661.19 382.62 661.26 C 376.63 660.92 343.51 659.43 340.82 656.19 C 339.17 654.20 338.76 650.56 338.47 648.03 C 337.36 638.40 337.81 628.16 337.62 618.45 C 337.12 599.20 337.03 579.95 337.36 560.69 C 336.96 560.37 336.56 560.05 336.18 559.70 C 330.85 554.92 326.65 549.16 324.15 542.43 C 317.74 525.18 321.12 496.04 324.01 477.79 C 324.82 472.65 327.49 463.47 327.27 458.82 C 327.06 458.78 326.86 458.74 326.65 458.70 C 325.01 458.33 324.39 458.30 323.49 456.89 C 323.22 452.23 327.73 442.80 329.71 438.37 C 345.99 402.01 381.69 361.18 419.51 346.76 C 414.14 341.55 410.33 335.97 407.36 329.13 C 400.55 328.47 394.45 327.38 388.63 323.59 C 383.00 319.92 378.60 314.47 377.37 307.74 C 376.60 303.53 376.96 299.06 379.62 295.55 C 383.00 291.10 388.20 289.81 393.45 289.22 Z" fill="#000000" fill-rule="nonzero" node-id="31" stroke="none" target-height="372.045" target-width="112.91498" target-x="317.743" target-y="289.217"></path><path d="M 546.17 870.78 C 546.62 868.64 545.97 866.04 546.78 864.18 C 547.88 863.45 547.84 863.50 549.15 863.70 L 549.76 864.92 C 549.51 872.58 549.53 880.16 550.08 887.81 C 556.18 891.25 562.30 895.16 568.64 898.11 C 567.17 898.51 566.16 898.74 565.07 899.89 C 559.62 897.86 554.17 892.51 548.53 891.41 C 543.72 890.48 538.43 895.73 533.82 894.49 L 533.26 893.32 L 533.69 892.13 C 536.79 889.33 542.46 888.60 546.48 887.60 C 545.88 882.08 546.12 876.33 546.17 870.78 Z" fill="#000000" fill-rule="nonzero" node-id="33" stroke="none" target-height="36.447998" target-width="35.37903" target-x="533.261" target-y="863.446"></path><path d="M 490.80 680.74 C 491.83 680.93 492.79 681.02 493.60 681.74 C 495.47 683.40 491.90 704.80 491.55 708.24 C 488.71 733.55 486.47 758.92 484.83 784.34 C 483.18 809.76 482.14 835.20 481.69 860.67 C 481.11 860.75 480.29 860.91 479.69 860.87 C 478.94 860.81 478.44 860.78 478.01 860.13 C 476.39 857.68 477.41 852.80 477.37 849.89 C 476.88 815.24 480.33 780.59 483.23 746.10 C 484.55 730.35 485.86 714.66 487.94 698.99 C 488.75 692.91 489.36 686.71 490.80 680.74 Z" fill="#fbf8fb" fill-rule="nonzero" node-id="35" stroke="none" target-height="180.16809" target-width="19.087036" target-x="476.386" target-y="680.743"></path><path d="M 514.14 686.86 C 515.55 687.57 515.73 687.50 516.32 688.93 C 515.95 697.24 503.36 713.06 497.40 718.68 C 497.24 718.62 497.06 718.58 496.91 718.49 C 495.75 717.86 495.36 717.72 494.94 716.46 C 496.87 712.73 500.78 710.18 502.98 706.55 C 506.90 700.08 510.58 693.54 514.14 686.86 Z" fill="#fbf8fb" fill-rule="nonzero" node-id="37" stroke="none" target-height="31.823975" target-width="21.383972" target-x="494.935" target-y="686.856"></path><path d="M 393.45 289.22 C 394.31 286.80 394.65 284.09 395.31 281.60 C 397.04 275.04 399.25 268.67 402.50 262.69 C 410.98 247.07 427.24 235.37 444.18 230.56 C 451.03 228.62 458.19 227.82 465.26 227.17 C 481.32 225.71 496.37 225.64 510.78 233.81 C 520.94 239.57 537.56 255.64 540.71 266.97 C 540.79 268.11 540.57 269.18 541.70 269.84 C 542.05 270.05 542.90 270.31 543.30 270.45 C 534.96 270.21 512.63 269.01 505.79 272.26 C 504.93 272.15 503.93 271.71 503.09 271.44 C 498.38 265.73 494.07 259.68 489.69 253.72 C 484.84 266.30 476.26 273.46 464.10 278.92 C 461.48 280.10 457.54 282.02 454.68 280.89 C 453.89 280.58 453.53 280.07 453.14 279.32 C 451.37 275.90 454.69 260.91 454.89 256.10 C 442.27 272.86 425.53 290.81 405.72 298.63 C 402.15 294.13 400.01 292.76 394.20 291.97 L 393.45 289.22 Z" fill="#171617" fill-rule="nonzero" node-id="39" stroke="none" target-height="72.987" target-width="149.84698" target-x="393.45203" target-y="225.64499"></path><path d="M 442.94 290.92 C 445.15 291.01 446.59 291.12 448.15 292.82 C 449.77 294.60 450.43 296.88 450.26 299.25 C 450.03 302.44 448.98 304.15 446.59 306.18 C 445.60 306.39 444.41 306.73 443.41 306.45 C 442.37 306.16 441.33 305.24 440.73 304.35 C 439.19 302.08 439.08 299.04 439.52 296.42 C 439.98 293.72 440.73 292.49 442.94 290.92 Z" fill="#000000" fill-rule="nonzero" node-id="41" stroke="none" target-height="15.809021" target-width="11.3550415" target-x="439.076" target-y="290.917"></path><path d="M 645.16 85.85 C 645.22 85.86 645.27 85.88 645.32 85.90 C 646.38 86.46 646.38 86.49 646.74 87.61 C 646.39 88.79 645.92 89.48 645.11 90.42 C 641.62 94.49 637.52 98.16 633.78 102.01 C 628.59 107.44 623.60 113.05 618.81 118.84 C 611.27 128.08 604.88 137.67 599.08 148.09 L 597.55 147.32 C 597.13 146.31 596.92 145.91 597.11 144.79 C 598.94 133.49 635.29 93.23 645.16 85.85 Z" fill="#000000" fill-rule="nonzero" node-id="43" stroke="none" target-height="62.248398" target-width="49.81201" target-x="596.923" target-y="85.8456"></path><path d="M 498.89 204.59 C 501.94 204.41 503.70 204.36 506.08 206.38 C 506.61 207.64 506.88 208.36 506.38 209.70 C 505.98 210.79 505.12 211.84 504.28 212.61 C 503.93 212.84 503.58 213.09 503.21 213.30 C 498.28 216.17 487.09 221.85 481.49 220.42 C 480.82 219.87 480.28 219.68 480.06 218.79 C 479.65 217.14 480.38 215.71 481.31 214.38 C 485.02 209.08 492.73 205.83 498.89 204.59 Z" fill="#171617" fill-rule="nonzero" node-id="45" stroke="none" target-height="17.49199" target-width="27.22403" target-x="479.655" target-y="204.36"></path><path d="M 498.89 204.59 C 501.94 204.41 503.70 204.36 506.08 206.38 C 506.61 207.64 506.88 208.36 506.38 209.70 C 505.98 210.79 505.12 211.84 504.28 212.61 C 503.95 210.50 504.21 208.49 503.35 206.46 C 502.02 205.21 500.63 205.00 498.89 204.59 Z" fill="#000000" fill-rule="nonzero" node-id="47" stroke="none" target-height="8.251999" target-width="7.992035" target-x="498.887" target-y="204.36"></path><path d="M 456.46 198.46 C 456.72 198.51 456.98 198.55 457.23 198.61 C 461.82 199.62 465.26 203.88 467.65 207.72 C 469.52 210.74 471.51 214.66 470.53 218.30 C 470.03 220.11 469.17 220.64 467.64 221.47 C 462.96 220.04 459.16 216.59 456.31 212.69 C 454.30 209.94 452.34 206.28 453.06 202.76 C 453.52 200.53 454.58 199.61 456.46 198.46 Z" fill="#171617" fill-rule="nonzero" node-id="49" stroke="none" target-height="23.017014" target-width="19.17398" target-x="452.34103" target-y="198.456"></path><path d="M 342.18 108.18 L 343.62 108.60 C 347.23 111.53 360.40 142.89 362.63 148.19 C 364.28 152.09 369.07 161.20 367.52 165.01 C 366.89 164.86 366.23 164.57 365.61 164.35 C 362.79 160.45 360.18 151.75 358.12 147.04 C 353.15 135.68 347.23 124.40 342.95 112.81 C 342.34 111.16 342.10 109.94 342.18 108.18 Z" fill="#000000" fill-rule="nonzero" node-id="51" stroke="none" target-height="56.826996" target-width="26.975006" target-x="342.097" target-y="108.181"></path><path d="M 484.37 93.21 C 485.58 93.67 485.76 93.75 486.55 94.77 C 487.27 100.18 484.76 117.92 484.14 124.88 C 483.42 133.14 483.26 141.75 482.02 149.93 C 481.85 151.02 481.53 151.83 481.03 152.80 C 480.69 152.71 480.32 152.63 480.01 152.47 C 479.39 152.14 478.81 151.83 478.69 151.11 C 478.20 148.18 482.38 100.99 483.19 96.06 C 483.38 94.89 483.72 94.19 484.37 93.21 Z" fill="#000000" fill-rule="nonzero" node-id="53" stroke="none" target-height="59.5888" target-width="9.076996" target-x="478.198" target-y="93.2102"></path><path d="M 275.82 193.94 C 276.90 194.22 277.96 194.53 279.01 194.90 C 289.92 198.75 297.36 207.53 304.18 216.42 C 306.14 218.98 308.84 222.22 309.95 225.29 C 310.52 226.88 310.11 227.25 309.40 228.68 C 306.25 226.96 294.67 209.98 290.26 205.77 C 285.88 201.58 279.33 200.19 275.20 196.12 C 275.04 194.89 275.09 194.96 275.82 193.94 Z" fill="#000000" fill-rule="nonzero" node-id="55" stroke="none" target-height="34.73903" target-width="35.48401" target-x="275.037" target-y="193.943"></path><path d="M 694.55 196.05 C 695.73 196.55 695.77 196.29 696.30 197.55 C 694.75 200.74 683.95 203.97 680.47 205.84 C 672.84 209.95 666.40 215.14 659.86 220.76 C 659.24 220.31 658.86 219.85 658.37 219.27 C 658.38 218.38 658.30 218.15 658.76 217.32 C 662.98 209.53 685.81 198.26 694.55 196.05 Z" fill="#000000" fill-rule="nonzero" node-id="57" stroke="none" target-height="24.711014" target-width="37.997986" target-x="658.303" target-y="196.049"></path><path d="M 540.71 266.97 C 547.01 267.65 555.23 268.74 559.53 273.93 C 564.09 279.44 563.76 292.91 567.54 297.30 C 566.43 298.39 565.13 299.22 564.02 300.32 C 561.30 293.14 561.12 284.12 557.11 277.54 C 553.96 272.39 548.73 271.63 543.30 270.45 C 542.90 270.31 542.05 270.05 541.70 269.84 C 540.57 269.18 540.79 268.11 540.71 266.97 Z" fill="#000000" fill-rule="nonzero" node-id="59" stroke="none" target-height="33.349976" target-width="26.973999" target-x="540.566" target-y="266.967"></path><path d="M 748.53 416.94 C 756.77 417.60 774.32 424.09 779.79 430.45 C 780.83 431.66 780.70 432.24 780.50 433.75 C 776.43 433.37 763.99 424.25 757.59 422.56 C 754.53 421.75 751.39 421.08 748.51 419.73 C 747.88 418.47 748.14 418.32 748.53 416.94 Z" fill="#000000" fill-rule="nonzero" node-id="61" stroke="none" target-height="16.813019" target-width="32.955017" target-x="747.878" target-y="416.942"></path><path d="M 695.10 297.60 C 701.49 296.92 708.96 297.34 714.43 301.10 C 715.93 302.13 717.02 303.20 717.35 305.03 L 716.54 305.77 C 714.86 305.93 713.82 305.14 712.42 304.34 L 711.77 303.96 C 708.41 302.27 704.97 301.04 701.18 300.82 C 697.46 300.62 691.27 303.46 688.21 301.63 L 687.90 300.39 C 689.40 298.25 692.68 298.09 695.10 297.60 Z" fill="#000000" fill-rule="nonzero" node-id="63" stroke="none" target-height="9.007996" target-width="29.45105" target-x="687.902" target-y="296.918"></path><path d="M 272.76 403.13 C 273.41 403.12 273.81 403.08 274.47 403.22 C 275.63 403.46 276.40 404.16 277.02 405.09 C 276.17 406.79 266.13 408.95 263.64 410.00 C 260.21 411.44 257.30 413.28 254.28 415.44 C 252.60 415.81 252.23 415.65 250.86 414.82 C 251.01 413.92 250.96 413.84 251.57 413.04 C 255.82 407.51 266.10 404.09 272.76 403.13 Z" fill="#000000" fill-rule="nonzero" node-id="65" stroke="none" target-height="12.72998" target-width="26.165985" target-x="250.858" target-y="403.085"></path><path d="M 503.09 271.44 C 503.93 271.71 504.93 272.15 505.79 272.26 C 503.91 279.91 502.30 287.61 500.95 295.36 C 499.79 295.23 498.81 295.03 497.69 294.65 C 499.14 286.82 499.99 278.83 503.09 271.44 Z" fill="#000000" fill-rule="nonzero" node-id="67" stroke="none" target-height="23.92099" target-width="8.093994" target-x="497.693" target-y="271.441"></path><path d="M 254.71 302.17 C 255.49 302.11 256.27 302.07 257.05 302.07 C 259.34 302.04 261.31 301.99 263.02 303.67 L 262.90 304.79 C 259.30 306.58 254.24 306.08 250.28 307.60 C 250.09 307.68 249.90 307.75 249.71 307.83 C 248.27 308.90 247.24 309.85 245.40 309.83 L 244.72 308.99 C 244.80 308.27 244.95 307.77 245.37 307.17 C 247.65 303.85 250.85 302.79 254.71 302.17 Z" fill="#000000" fill-rule="nonzero" node-id="69" stroke="none" target-height="7.860016" target-width="18.303009" target-x="244.72" target-y="301.986"></path></svg>