<svg viewBox="0 0 1024 1024" xmlns="http://www.w3.org/2000/svg" id="Layer_2">
  <defs>
    <style>
      .cls-1, .cls-2 {
        stroke-width: 0px;
      }

      .cls-2 {
        fill: #fff;
      }
    </style>
  </defs>
  <g id="Layer_1-2">
    <g>
      <path d="M1024,1024H0V0c341.33,0,682.67,0,1024,0v1024ZM770.9,578.51c-2.15-.21-4.36.21-5.71-.68-6.66-4.4-13.07-9.17-19.59-13.77-27.07-19.09-54.15-38.17-81.23-57.24-21.35-15.04-42.67-30.12-64.11-45.03-2.94-2.04-6.34-3.85-9.79-4.66-11.6-2.73-23.16-1-34.56,1.52-15.12,3.34-26.39,12.88-36.84,23.63-4.38,4.5-8.91,8.86-14.05,13.96-1.48-9.12-3.02-17.51-4.05-25.96-.17-1.43,1.48-3.56,2.86-4.62,13.49-10.32,27.04-20.57,40.71-30.64,6.64-4.9,13.58-9.39,20.3-14.01q-5.16-12.06,4.19-20.5c1.36-1.23,2.77-2.4,4.15-3.6,25.04-21.68,50.09-43.35,75.12-65.05,7.37-6.39,15.04-12.5,21.94-19.37,6.81-6.79,12.77-14.43,19.21-21.6,12.46-13.88,25.24-27.48,37.42-41.6,7.11-8.24,14.74-16.48,15.25-28.42.04-.89.82-1.77,1.32-2.62,2.07-3.55,4-7.19,6.33-10.56.89-1.29,2.68-2.61,4.15-2.71,3.2-.23,6.46.32,9.93.56,0-2.37.13-4.19-.02-5.98-1.31-15.91-2.48-31.83-4.09-47.71-1.16-11.41-2.89-22.77-4.5-34.14-.2-1.42-1.25-2.73-1.91-4.09-1.13,1.02-2.58,1.84-3.34,3.09-2.43,3.97-4.7,8.04-6.84,12.17-10.35,19.93-20.67,39.88-30.92,59.87-2.16,4.21-4.57,7.8-9.07,10.11-12.16,6.24-21.91,15.68-31.27,25.38-17.33,17.96-33.75,36.84-51.67,54.18-15.62,15.12-32.28,29.29-49.41,42.7-14.6,11.43-30.54,21.14-45.83,31.68-8.91,6.14-17.71,12.44-26.58,18.65-2.19,1.54-4.46,2.96-7.01,4.65-.89-6.67-1.76-12.42-2.41-18.2-1.93-16.97-4.09-33.92-5.54-50.93-1.05-12.39-4.03-24.6.17-37.36,3.74-11.36-2.72-21.1-14.5-23.54-6.34-1.32-13.13-.6-19.71-.53-2.35.03-4.69.88-7.29,1.41,3.11-11.2,3.83-21.62-5.85-29.29-9.32-7.37-19.84-5.29-29.04-2.17-2.62-8.21-4.3-16.45-7.82-23.81-5.05-10.56-17.62-16.96-27.02-15.24-12.2,2.23-19.12,9.43-21,22.63-.63,4.45-.1,9.06-.1,14-2.71-1.97-4.99-3.89-7.51-5.4-6.8-4.09-14.1-6.84-21.67-2.68-7.42,4.09-8.99,11.71-9.01,19.39-.02,6.58.89,13.17,1.43,20.31-9.16-8.32-19.8-11.47-31.78-10.54-10.65.83-18.8,6.44-21.04,15.42-.89,3.55-.48,7.43-.7,11.83-9.63,0-19.26-.1-28.88.02-17.13.22-34.26.33-51.37.97-14.34.54-28.83.69-42.93,3-15.75,2.57-30.76,8.29-44.45,16.96-2.51,1.59-3.27,3.02-2.48,6.01,1.4,5.28,2.28,10.71,3.27,16.1,4.14,22.54,8.05,45.12,12.39,67.61,5.29,27.42,11.35,54.7,16.34,82.18,9.05,49.86,17.62,99.8,26.25,149.73,4.38,25.36,8.34,50.79,12.66,76.16,5.02,29.47,10.19,58.91,15.35,88.35,2.55,14.56,5.25,29.1,7.84,43.65.79,4.41,2.43,7.19,7.8,7,4.35-.16,8.75,1.09,13.29,1.74-2.9,21.38-5.73,42.23-8.57,63.12-2.15.13-3.63.32-5.11.3-22.28-.23-44.55-.46-66.83-.73-9.48-.11-18.95-.38-28.43-.35-1.29,0-2.58,1.31-3.87,2.01,1.26.82,2.47,1.72,3.79,2.42.54.29,1.31.18,1.97.18,18.28.03,36.56.03,54.85.1,12.28.05,24.56.09,36.84.4,2.65.07,5.9-.75,7.23,3.46,2.31,7.29,9.53,11.34,17.67,10.58,6.7-.62,8.66-2.94,10.4-12.29.06-.31.25-.59.48-1.12,11.49,0,23.08-.08,34.67.02,31.09.26,62.19.6,93.28.91,12.12.12,24.24.38,36.36.37,5.08,0,7.43,1.85,8.35,7.2.82,4.73,3.56,9.13,5.43,13.6.18-.01-.91.13-2,.13-28.11.23-56.22.45-84.33.66-46.86.35-93.71.65-140.57,1.06-14.63.13-29.26.62-43.89.82-14.72.2-29.44.2-44.15.46-1.46.03-2.9,1.28-4.35,1.97,1.45.87,2.92,2.53,4.36,2.51,25.27-.38,50.54-1.06,75.82-1.48,18.24-.31,36.48-.3,54.71-.5,20.64-.23,41.28-.66,61.92-.78,30.96-.18,61.92-.03,92.88-.29,38.74-.33,77.48-1,116.23-1.38,19.35-.19,38.71.09,58.07-.07,41.86-.36,83.71-.69,125.56-1.43,12.34-.22,24.04,1.75,35.62,5.8,10.65,3.73,21.47,7.02,32.35,10.01,3.7,1.02,7.95,1.29,11.72.61,8.99-1.6,13.71-8.01,15.83-16.51,3.77-.17,7.24-.45,10.7-.47,29.91-.18,59.82-.25,89.73-.47,23.59-.17,47.17-.47,70.76-.87,1.57-.03,3.12-1.4,4.68-2.15-1.56-.79-3.11-1.63-4.7-2.36-.41-.19-.99-.04-1.49-.03-14.43.27-28.86.64-43.3.81-37.42.44-74.83.8-112.25,1.18-4.6.05-9.2,0-13.19,0-1.71-5.61-3.12-10.27-4.42-14.54,15.58,0,31.16-.02,46.75.05.92,0,1.88.59,2.74,1.05,17.11,9.1,34.2,7.92,51.31,0,1.17-.54,2.5-1.08,3.75-1.07,23.47.16,46.94.42,70.41.54,1.27,0,2.55-1.07,3.83-1.65-1.13-.9-2.25-2.56-3.4-2.57-15.11-.25-30.23-.28-45.34-.34-7.42-.03-14.83,0-21.71,0,2.67-7.77,6.46-14.77,7.3-22.1,1.86-16.23,2.48-32.61,3.13-48.95.53-13.29,1.73-12.75-11.02-17.28-.45-.16-.82-.54-.22-.13,4.12-16.67,8.54-32.8,12.02-49.12,3.47-16.26,2.36-32.67-.9-48.9-.9-4.5-3-5.09-6.59-2.28-5.46,4.27-11.11,8.32-16.32,12.87-4.46,3.89-8.81,8.05-12.49,12.65-3.31,4.14-5.64,9.06-7.68,12.43-11.07-8.97-22.09-18.21-33.48-26.97-4.3-3.31-6.44-2.29-6.74,3.09-.65,11.74-.91,23.52-.8,35.28.05,5.39.63,11,2.23,16.11,3.8,12.12,8.37,24,12.34,35.21-6.44,4-12.61,7.49-18.31,11.61-1.53,1.11-2.39,4.19-2.3,6.31.27,5.95.97,11.9,1.9,17.79,2.75,17.54,2.99,35.7,12.62,51.76-12.28,0-24.23-.2-36.17.08-6.91.16-13.08-.73-17.74-6.53-1.1-1.37-2.86-2.33-4.49-3.12-11.2-5.41-22.46-10.69-33.66-16.09-1.69-.82-4.07-1.74-4.61-3.19-5.93-15.67-11.56-31.45-17.34-47.41,1.24-.78,2.34-1.47,3.43-2.14,7.19-4.44,11.61-10.52,12.6-19.2,1.93-16.83,4.24-33.62,6.4-50.42,3.24-25.22,6.48-50.44,9.72-75.66,1.13-8.81,2.27-17.62,3.53-27.48,17.18,7.81,33.5,15.19,49.75,22.72,1.1.51,1.64,2.22,2.47,3.36,2.24,3.11,3.91,6.98,6.85,9.15,5.87,4.32,12.36,7.82,18.72,11.45,13.36,7.63,23.21,5.34,31.5-7.6,4.03-6.29,7.52-12.94,11.05-19.53,17.58-32.84,35.15-65.68,52.53-98.62,1.89-3.58,3.23-7.77,3.59-11.79,1-10.88-7.23-19.45-18.13-19.03-11.66.45-21.43,5.91-30.07,13.21-18.64,15.74-33.33,34.85-46.13,55.48-1.55,2.5-3.03,5.03-4.84,8.03-11.06-6.39-21.66-12.56-32.32-18.63-3.16-1.8-6.82-3.03-5.59-7.66ZM568.12,185.83c-7.39-.63-14.05-1.66-20.7-1.66-9.39,0-18.8.51-28.16,1.3-3.58.3-4.24,3.69-1.55,6.25,1.07,1.02,2.38,1.83,3.7,2.52,6.6,3.49,13.23,6.94,19.88,10.36,3.25,1.67,4.46,3.32,2.53,7.39-4.51,9.54-8.23,19.44-12.2,29.23-3.29,8.11-6.48,16.27-9.58,24.08-3.9-.82-7.26-2.07-10.65-2.11-5.03-.07-7.43,4.25-4.28,8.13,2.55,3.15,6.32,5.55,9.97,7.51,3.53,1.89,5.67.31,7.14-3.77,5.55-15.46,11.62-30.73,17.41-46.1,1-2.64,2.27-3.94,5.43-3.84,11.9.39,23.81.54,35.71.55,2.65,0,5.29-.95,9.18-1.7-4.58-3.17-7.99-5.42-11.29-7.83-5.91-4.31-11.8-8.65-17.6-13.12-3.21-2.48-4.21-5.32-1.02-8.83,2.11-2.32,3.74-5.09,6.08-8.35Z" class="cls-2"></path>
      <path d="M770.9,578.51c-1.23,4.63,2.43,5.87,5.59,7.66,10.66,6.06,21.25,12.24,32.32,18.63,1.8-3,3.29-5.53,4.84-8.03,12.81-20.63,27.5-39.74,46.13-55.48,8.64-7.3,18.41-12.75,30.07-13.21,10.9-.42,19.13,8.15,18.13,19.03-.37,4.02-1.7,8.2-3.59,11.79-17.38,32.94-34.95,65.78-52.53,98.62-3.53,6.6-7.03,13.24-11.05,19.53-8.28,12.94-18.14,15.23-31.5,7.6-6.35-3.63-12.85-7.13-18.72-11.45-2.94-2.16-4.61-6.04-6.85-9.15-.82-1.14-1.36-2.85-2.47-3.36-16.25-7.53-32.57-14.91-49.75-22.72-1.27,9.86-2.4,18.67-3.53,27.48-3.24,25.22-6.48,50.44-9.72,75.66-2.16,16.8-4.47,33.59-6.4,50.42-.99,8.69-5.41,14.77-12.6,19.2-1.1.68-2.19,1.37-3.43,2.14,5.79,15.96,11.41,31.74,17.34,47.41.55,1.45,2.92,2.37,4.61,3.19,11.2,5.41,22.46,10.69,33.66,16.09,1.63.79,3.39,1.75,4.49,3.12,4.66,5.8,10.82,6.69,17.74,6.53,11.94-.28,23.89-.08,36.17-.08-9.62-16.06-9.87-34.22-12.62-51.76-.92-5.89-1.63-11.84-1.9-17.79-.09-2.12.77-5.2,2.3-6.31,5.71-4.12,11.87-7.61,18.31-11.61-3.98-11.2-8.54-23.09-12.34-35.21-1.6-5.11-2.18-10.72-2.23-16.11-.11-11.76.14-23.54.8-35.28.3-5.38,2.44-6.4,6.74-3.09,11.39,8.75,22.41,18,33.48,26.97,2.04-3.37,4.37-8.29,7.68-12.43,3.68-4.61,8.03-8.76,12.49-12.65,5.22-4.55,10.87-8.59,16.32-12.87,3.59-2.81,5.69-2.22,6.59,2.28,3.26,16.24,4.36,32.64.9,48.9-3.48,16.32-7.9,32.45-12.02,49.12-.6-.41-.23-.03.22.13,12.75,4.53,11.55,3.99,11.02,17.28-.65,16.34-1.28,32.72-3.13,48.95-.84,7.33-4.63,14.32-7.3,22.1,6.88,0,14.3-.02,21.71,0,15.11.06,30.23.09,45.34.34,1.15.02,2.27,1.68,3.4,2.57-1.28.57-2.55,1.65-3.83,1.65-23.47-.12-46.94-.39-70.41-.54-1.25,0-2.58.53-3.75,1.07-17.11,7.93-34.2,9.11-51.31,0-.86-.46-1.82-1.05-2.74-1.05-15.58-.06-31.17-.05-46.75-.05,1.3,4.27,2.72,8.94,4.42,14.54,3.99,0,8.59.04,13.19,0,37.42-.38,74.83-.74,112.25-1.18,14.43-.17,28.86-.53,43.3-.81.5,0,1.07-.16,1.49.03,1.59.73,3.14,1.56,4.7,2.36-1.56.75-3.11,2.13-4.68,2.15-23.58.4-47.17.69-70.76.87-29.91.22-59.82.29-89.73.47-3.47.02-6.93.3-10.7.47-2.12,8.5-6.84,14.91-15.83,16.51-3.77.67-8.01.4-11.72-.61-10.88-2.99-21.7-6.28-32.35-10.01-11.58-4.05-23.28-6.02-35.62-5.8-41.85.74-83.71,1.07-125.56,1.43-19.35.17-38.71-.11-58.07.07-38.74.38-77.48,1.05-116.23,1.38-30.96.26-61.92.11-92.88.29-20.64.12-41.28.55-61.92.78-18.24.2-36.48.19-54.71.5-25.27.42-50.54,1.1-75.82,1.48-1.44.02-2.91-1.63-4.36-2.51,1.45-.68,2.89-1.94,4.35-1.97,14.72-.26,29.43-.26,44.15-.46,14.63-.2,29.26-.69,43.89-.82,46.86-.41,93.71-.71,140.57-1.06,28.11-.21,56.22-.43,84.33-.66,1.09,0,2.18-.15,2-.13-1.86-4.48-4.61-8.87-5.43-13.6-.93-5.35-3.27-7.2-8.35-7.2-12.12,0-24.24-.24-36.36-.37-31.09-.32-62.19-.65-93.28-.91-11.59-.1-23.18-.02-34.67-.02-.23.53-.42.82-.48,1.12-1.74,9.35-3.7,11.67-10.4,12.29-8.14.75-15.37-3.29-17.67-10.58-1.33-4.21-4.58-3.39-7.23-3.46-12.27-.31-24.56-.35-36.84-.4-18.28-.07-36.56-.06-54.85-.1-.66,0-1.43.1-1.97-.18-1.32-.7-2.53-1.6-3.79-2.42,1.29-.7,2.58-2.01,3.87-2.01,9.48-.03,18.95.24,28.43.35,22.28.27,44.55.5,66.83.73,1.48.02,2.96-.17,5.11-.3,2.84-20.89,5.66-41.73,8.57-63.12-4.54-.65-8.94-1.9-13.29-1.74-5.38.19-7.02-2.6-7.8-7-2.59-14.55-5.29-29.09-7.84-43.65-5.16-29.44-10.33-58.88-15.35-88.35-4.32-25.37-8.28-50.8-12.66-76.16-8.62-49.93-17.2-99.88-26.25-149.73-4.99-27.48-11.04-54.76-16.34-82.18-4.34-22.5-8.25-45.08-12.39-67.61-.99-5.39-1.87-10.81-3.27-16.1-.79-2.98-.02-4.42,2.48-6.01,13.69-8.67,28.7-14.39,44.45-16.96,14.1-2.3,28.59-2.46,42.93-3,17.11-.64,34.24-.75,51.37-.97,9.62-.13,19.25-.02,28.88-.02.22-4.4-.19-8.28.7-11.83,2.24-8.99,10.4-14.59,21.04-15.42,11.98-.94,22.61,2.22,31.78,10.54-.54-7.14-1.44-13.72-1.43-20.31.02-7.68,1.59-15.3,9.01-19.39,7.56-4.16,14.87-1.41,21.67,2.68,2.52,1.52,4.8,3.43,7.51,5.4,0-4.93-.53-9.55.1-14,1.88-13.19,8.8-20.39,21-22.63,9.4-1.72,21.98,4.68,27.02,15.24,3.52,7.36,5.2,15.6,7.82,23.81,9.2-3.12,19.72-5.21,29.04,2.17,9.69,7.66,8.96,18.09,5.85,29.29,2.6-.53,4.94-1.39,7.29-1.41,6.58-.08,13.37-.79,19.71.53,11.78,2.45,18.25,12.18,14.5,23.54-4.21,12.76-1.22,24.97-.17,37.36,1.44,17.01,3.61,33.96,5.54,50.93.66,5.78,1.52,11.53,2.41,18.2,2.54-1.68,4.81-3.11,7.01-4.65,8.87-6.2,17.67-12.5,26.58-18.65,15.29-10.54,31.23-20.25,45.83-31.68,17.13-13.41,33.79-27.58,49.41-42.7,17.91-17.34,34.34-36.21,51.67-54.18,9.36-9.71,19.11-19.15,31.27-25.38,4.51-2.31,6.92-5.9,9.07-10.11,10.25-19.99,20.57-39.94,30.92-59.87,2.14-4.13,4.42-8.2,6.84-12.17.76-1.25,2.21-2.07,3.34-3.09.66,1.36,1.71,2.66,1.91,4.09,1.61,11.36,3.34,22.72,4.5,34.14,1.61,15.88,2.78,31.8,4.09,47.71.15,1.79.02,3.61.02,5.98-3.47-.24-6.73-.79-9.93-.56-1.46.1-3.25,1.42-4.15,2.71-2.33,3.37-4.26,7.01-6.33,10.56-.5.85-1.28,1.73-1.32,2.62-.51,11.94-8.15,20.18-15.25,28.42-12.18,14.12-24.96,27.73-37.42,41.6-6.44,7.17-12.39,14.82-19.21,21.6-6.9,6.87-14.56,12.98-21.94,19.37-25.03,21.7-50.08,43.37-75.12,65.05-1.38,1.2-2.79,2.37-4.15,3.6q-9.35,8.44-4.19,20.5c-6.72,4.62-13.65,9.11-20.3,14.01-13.67,10.08-27.22,20.32-40.71,30.64-1.38,1.06-3.03,3.19-2.86,4.62,1.03,8.45,2.57,16.84,4.05,25.96,5.15-5.1,9.68-9.46,14.05-13.96,10.45-10.75,21.72-20.29,36.84-23.63,11.4-2.52,22.97-4.25,34.56-1.52,3.45.81,6.85,2.62,9.79,4.66,21.44,14.91,42.76,29.99,64.11,45.03,27.08,19.07,54.16,38.15,81.23,57.24,6.52,4.6,12.94,9.37,19.59,13.77,1.34.89,3.56.46,5.71.68ZM338.9,611.41c-62.94-8-125.23-15.91-188.01-23.88,6.49,38.12,12.7,75.12,19.1,112.08,6.24,36.01,12.74,71.98,18.92,108.01.84,4.91,2.51,7.91,7.96,7.85,2.64-.03,5.3.45,7.94.75,29.06,3.25,58.13,6.51,87.19,9.76,20.61,2.3,41.22,4.63,61.84,6.85,8.01.86,16.05,1.47,24.38,2.22-2.29-8.61-4.3-16.6-6.55-24.52-4.51-15.9-9.33-31.71-13.69-47.65-6.51-23.81-13.05-47.63-18.95-71.6-3.84-15.58-6.92-31.37-9.64-47.18-1.35-7.83-1.28-16,2.88-23.31,1.76-3.1,4.11-5.86,6.63-9.38ZM464.95,487.35c31.56-23.06,62.12-45.38,92.94-67.9-8.13-21.3-16.44-43.06-24.94-65.32-3.89,2.55-6.94,4.54-9.98,6.55-16.38,10.82-32.63,21.84-49.17,32.41-15.07,9.63-31.43,14.9-49.67,13.16-5.38-.51-10.85-.08-16.58-.08,4.96,7.74,4.91,13.35-1.44,19.54-3.92,3.82-8.89,7.24-14.02,9.04-12.68,4.45-25.88,4.41-38.86,1.05-4.4-1.14-8.63-3.47-12.49-5.94-4.44-2.84-4.65-8-1.33-12.04.93-1.13,1.3-2.71,1.92-4.08-2.81.32-4.71,1.03-6.28,2.19-9.93,7.27-20.05,14.31-29.59,22.05-12.25,9.95-23.89,20.63-36.03,30.72-6.78,5.63-14.13,10.57-21.03,16.05-4.77,3.78-9.22,7.96-14.06,12.19,25.98,18.68,55.26,26.94,85,35.64,5.11-19.56,10.06-38.47,15-57.36,3.46-.39,4.49.72,3.59,3.97-1.81,6.55-3.32,13.19-5.04,19.78-3.38,12.97-6.83,25.92-10.29,39.07-2.86-.74-5.39-1.39-8.46-2.18-1.93,6.19-3.77,12.12-5.76,18.51,2.93.45,5.34.93,7.77,1.19,10.37,1.11,21.03,4.21,31.08,2.85,34.38-4.64,68.57-10.79,102.8-16.54,5.69-.96,12.12-1.5,16.62-4.57,6-4.09,10.44-10.47,15.5-15.81-3.73-5.51-6.91-10.56-10.44-15.36-12.35-16.8-20.05-35.86-26.93-55.31-.35-1,.18-2.32.3-3.49,1.15.68,2.79,1.1,3.36,2.11,1.45,2.59,2.4,5.46,3.59,8.2,4.2,9.69,8.42,19.37,12.93,29.75ZM384.01,835.11c81.68-4.58,163.09-9.14,244.61-13.71-1.79-11.85-3.61-23.9-5.43-35.94-2.49.13-4.11.21-5.93.3-.31-.94-.65-1.68-.81-2.45-2.74-13.28-5.74-26.52-8.03-39.88-.8-4.64-2.6-4.98-6.57-4.49-20.28,2.46-40.57,4.86-60.89,6.87-33.57,3.32-67.17,6.33-100.77,9.46-7.65.71-13.78-3.46-16.16-10.89-5.56-17.31-10.93-34.68-16.75-51.89-5.89-17.42-12.27-34.67-18.34-52.03q-6.12-17.52-22.86-24.97c-.3-.13-.58-.35-.89-.45-14.97-5.07-31.15-1.14-31.38,18.73-.11,9.63.71,19.56,3.05,28.87,9.03,36.06,18.66,71.97,28.43,107.83,5.87,21.56,12.41,42.95,18.73,64.66ZM150.43,584.02c14.3,1.64,28.13,3.18,41.95,4.83,2.49.3,3.82-.33,4.87-2.83,3.56-8.55,7.51-16.94,11.15-25.46.67-1.57,1.19-3.55.87-5.15-4.01-20.15-8.38-40.23-12.29-60.4-4.98-25.71-9.56-51.49-14.41-77.23-4.64-24.59-9.36-49.16-14.12-73.72-3.85-19.87-7.65-39.75-11.75-59.57-2.03-9.8-6.68-13.41-16.78-13.41-15.95,0-29.89,6.39-43.25,14.31-.82.48-1.23,2.55-1.02,3.73,2.19,12.43,4.5,24.83,6.86,37.23,10.66,56.02,21.48,112.01,31.98,168.06,5.59,29.86,10.65,59.82,15.93,89.62ZM240.82,507.26c-3.26-2.33-6.57-4.53-9.68-6.98-2.49-1.96-3.85-3.83-.26-6.6,8.78-6.79,17.22-14.03,25.84-21.03,11.2-9.09,22.74-17.79,33.6-27.28,15.88-13.87,31.15-28.47,50.98-38.23-.96-6.39-1.98-13.15-3.13-20.76-7.97,10.46-12.07,10.47-18.02.59-4.96,12.37-14,19.01-27.13,17.87-15.25-1.32-21.86-12.15-24.64-24.57-8,1.29-15.43,3.39-22.88,3.49-10.73.14-24.17-8.43-24.72-23.77-.43-12.08,5.51-20.86,13.51-28.77,2.07-2.05,4.59-3.64,6.91-5.45-13.44-12.87-15.66-15.74-18.07-22.87-3.74-11.05.26-21.95,10.23-26.73,6.23-2.98,12.99-4.42,19.86-2.67,5.45,1.38,10.72,3.43,16.31,5.26-.57-1.15-1.22-2-1.41-2.94-1.83-8.97-7.8-10.32-15.97-10.06-23.34.72-46.71.66-70.07,1.01-10.17.15-20.35.55-30.52.83,6.15,3.53,8.36,8.99,9.54,15,7.36,37.32,14.73,74.64,21.97,111.98,8.43,43.51,16.71,87.05,25.11,130.57,1.61,8.32,3.46,16.6,5.25,25.13,9.25-14.53,18.16-28.52,27.38-43.01ZM360.9,395.6c-.02-.76-.03-1.52-.05-2.28,1.73-.66,3.47-1.88,5.2-1.87,8.25.05,16.54,1.03,24.75.58,20.97-1.14,36.19-12.13,46.75-29.64,2.62-4.35,3.68-9.95,4.32-15.12,1.32-10.58-.96-20.8-4.78-30.7-6.83-17.67-17.24-33.11-29.3-48.11-2.57,11.32-5.33,15.15-12.76,16.32-10.82,1.71-18.94-3.27-25.67-11.54-2.79,5.45-5.1,11.41-12.07,12.79-6.68,1.33-11.62-2.52-16.91-6.37-.15,2.71-.14,4.85-.39,6.95-1.57,13.12-5.34,25.4-14.4,35.45-7.42,8.23-7.48,8.16-17.11,3.3-1.47-.74-3.03-1.37-4.6-1.88-12.5-4.07-22.39,2.31-23.88,15.43-.24,2.14-.28,4.33-.15,6.49.79,13.01,9.73,21.41,22.72,21.53,7.28.07,13.84-1.43,18.61-7.55.44-.57,1.63-.81,2.42-.73.35.04,1.01,1.62.78,1.91-2.61,3.27.7,4.25,2.18,5.94,3.82,4.36,8.3,8.31,11.35,13.16,9.1,14.41,9.93,30.22,6.44,46.92,11.83,6.55,24.52,8.09,37.91,5.95,9.36-1.49,17.61-4.6,22.23-13.6.59-1.15.55-3.03.04-4.25-2.02-4.88-4.66-9.53-6.41-14.5-.98-2.77-2.13-3.6-4.94-3.38-6.97.55-13.96,1.13-20.93,1.04-3.79-.05-7.57-1.46-11.36-2.25ZM462.56,654.61c.55-.31,1.11-.63,1.66-.94-.26-2.28-.3-4.61-.8-6.84-6.24-27.58-20.79-48.41-47.49-60.02-18.81-8.18-38.15-14.36-58.1-19.03-25.91-6.06-51.95-10.89-78.62-11.83-1.74-.06-3.43-1.59-5.15-2.44.2-.62.4-1.25.59-1.87,9.51.64,19.01,1.28,28.82,1.95,2.04-6.12,4.1-12.34,6.23-18.74-22.24-6.67-44.23-13.07-64.4-24.99-18,24.86-33.76,50.73-44.47,80.01,10.52,1.2,20.25,2.23,29.97,3.43,23.47,2.91,46.94,5.88,70.41,8.87,12.01,1.53,24.01,3.14,36.01,4.74,4.71.63,9.41,1.32,14.11,2,5.7.83,12.01.38,17,2.73,22.73,10.73,45.3,21.93,62.27,41.43,1.18,1.35,2.86,2.27,4.3,3.4.43-.37.85-.74,1.28-1.11-1.72-7.01-7.6-11.53-11.42-17.39,10.9,3.88,12.13,18.54,25.04,22.32-5.03-8.47-9.34-15.73-13.65-22.98.35-.26.7-.52,1.04-.77,1.35,1.52,2.9,2.9,4,4.58,3.01,4.59,5.61,9.45,8.82,13.89,1.34,1.85,3.79,2.89,5.74,4.3-.07-2.52.59-5.38-.36-7.51-2.42-5.44-5.58-10.56-8.42-15.82-.7-1.3-1.33-2.63-2-3.94.46-.28.92-.57,1.38-.85,6.98,6.58,8.7,17.31,16.21,23.46ZM735.4,184.79l-1.86-1.24c-2.45,1.48-4.99,2.84-7.33,4.48-6.8,4.78-13.29,10.01-20.31,14.44-12.35,7.8-23.24,17.2-32.94,28.03-5.44,6.08-10.48,12.52-16.02,18.5-35.01,37.79-74.57,70.33-116.3,100.33-2.56,1.84-3.09,3.25-1.91,6.08,5.11,12.28,10.04,24.63,15.01,36.96,1.42,3.52,2.78,7.06,4.3,10.95,64.35-52.38,124.97-107.66,177.58-172.37-4.97-1.52-3.96-3.53-2.19-5.78,2.77-3.54,5.55-7.08,8.1-10.77,1.2-1.73,1.88-3.83,2.79-5.76-.43-.29-.87-.57-1.3-.86-5.41,5.62-10.81,11.24-16.22,16.86-.48-.47-.96-.93-1.44-1.4,1.02-1.34,1.93-2.78,3.09-3.99,4.73-4.92,9.62-9.7,14.27-14.69,1.78-1.91,3.42-4.12,4.53-6.47,1.45-3.1-.81-5.82-4.15-5.04-1.67.39-3.37,1.49-4.61,2.72-9.18,9.07-17.59,19.08-30.38,23.66,3.27,7.71,2.82,15.15.76,22.44-4.12,14.6-14.31,23.63-28,29.04-1.29.51-3.17-.46-4.78-.74.93-1.32,1.6-3,2.84-3.86,2.03-1.4,4.46-2.2,6.66-3.38,15.02-8.01,24.4-27.17,17.14-42.13-1.53-3.16.04-3.91,2.61-4.91,10.48-4.04,19.48-10.3,25.83-19.62,2.23-3.27,2.86-7.62,4.23-11.47ZM396.06,886.31c-3.66-14.99-7-29.01-10.6-42.96-.33-1.3-2.16-3-3.45-3.14-19.65-2.24-39.33-4.17-58.99-6.34-22.62-2.5-45.21-5.18-67.82-7.75-7.05-.8-14.11-1.52-21.2-2.28-2.34,20.34-4.62,40.16-6.99,60.68,56.22.6,112.27,1.19,169.04,1.79ZM493.11,887.57h126.83c-4.21-7.12-3.66-14.59.21-21.56,2.96-5.32,6.96-10.06,10.46-15.08.82-1.17,2.25-2.54,2.11-3.65-.89-7.01-2.15-13.98-3.23-20.63-13.26.53-26.01.83-38.73,1.6-28.17,1.71-56.32,3.75-84.5,5.4-3.94.23-4.88,1.78-5.4,5.25-2.41,16.03-5.08,32.02-7.77,48.68ZM726.03,638.12c-8.12-4.97-15.06-9.74-22.46-13.64-20.85-10.97-41.93-21.5-62.85-32.34-12.97-6.72-26.13-13.17-38.63-20.68-9.38-5.64-8.98-6.31-16.62,1.95-.79.86-1.63,1.68-2.34,2.6-18.17,23.74-36.31,47.52-54.5,71.25-12.72,16.59-25.54,33.11-38.29,49.68-1.38,1.8-2.63,3.69-3.95,5.54.73.54,1.46,1.08,2.19,1.61,37.34-43.29,66.94-92.76,104.44-134.43,11.75,6.47,22.78,12.85,34.09,18.69,18,9.3,36.19,18.24,54.29,27.35,2.63,1.32,5.32,2.28,5.64,6.15,1.5,18.22,4.44,36.39,4.68,54.61.42,30.93-.78,61.88-1.35,92.81-.05,2.75.18,5.79-3.99,6.16-.63.06-1.61,2.08-1.54,3.14.68,10.53,1.55,21.04,2.4,31.9,11.38-3.44,18.44-9.75,19.68-21.62,1.11-10.55,2.66-21.06,4.05-31.59,2.93-22.2,5.97-44.4,8.79-66.61,2.26-17.77,4.26-35.57,6.28-52.53ZM601.24,701.57c-13.14,2.89-25.28,5.68-37.47,8.2-23,4.75-45.64,11.3-69.18,13.32-17.89,1.53-35.65,1.23-53.35-1.92-7.03-1.25-14.09-2.34-21.39-3.54,3.12,8.78,6.12,17.35,9.21,25.88,2.12,5.83,5.2,7.61,11.41,6.97,5.79-.6,11.6-1.08,17.39-1.64,26.17-2.51,52.35-4.9,78.5-7.56,23.28-2.37,46.52-5.05,70.02-7.62-1.75-10.93-3.46-21.6-5.14-32.1ZM799.99,825.72c.72,5.06,1.18,9.84,2.13,14.52,2.47,12.17,4.75,24.41,7.89,36.41,2.74,10.5,10.49,16.77,20.98,18.14,7.4.97,15.17.41,22.62-.59,7.49-1,13.62-4.81,17.76-11.74,4.65-7.8,6.39-16.22,7.09-25.04.99-12.59,2.01-25.19,2.96-37.08-11.94,2.87-23.04,6.36-34.41,8.07-15.58,2.34-31.45,4.9-47-2.7ZM675.64,908.94c.08-.36.16-.71.24-1.07-.52-.28-1.01-.66-1.57-.81-11.2-3.06-22.42-6.06-33.61-9.16-6.23-1.72-12.32-4.5-18.65-5.17-9.38-.99-18.92-.59-28.39-.66-25.8-.2-51.59-.53-77.39-.42-10.82.05-21.76-1.8-32.49,1.56-2.06.65-4.6-.06-6.89-.35-3.9-.49-7.77-1.6-11.67-1.66-13.27-.21-26.55-.08-39.8-.08.55,6.6,1.09,13.12,1.65,20,82.92-.73,165.74-1.46,248.56-2.19ZM679.86,777.02c-17.55,2.54-34.63,5.01-52.23,7.56.8,5.42,1.52,10.63,2.36,15.82,2.43,15.09,4.93,30.16,7.34,45.25.49,3.04,1.76,4.34,5.15,4.57,6.28.43,12.5,1.68,18.75,2.55,8.77,1.23,17.55,2.42,25.89,3.57-2.44-26.71-4.83-52.84-7.26-79.32ZM402.47,394.31c-.52,4.58.82,7.34,6.13,6.82,1.95-.19,3.97.2,5.95.38,16.45,1.49,32.5.77,47.25-7.94,6.29-3.72,12.53-7.59,19.12-10.7,4.74-2.23,5.42-5.31,4.78-9.94-1.45-10.53-2.53-21.12-3.7-31.69-2.02-18.25-3.99-36.5-6-54.87-3.32,2.44-6.24,4.82-9.39,6.84-3.26,2.09-6.76,3.82-9.82,5.53,2.95,3.4,5.96,6.3,8.3,9.67,8.31,11.99,7.09,25.58-3.39,32.13-4.11,2.56-9.48,3.1-14.46,4.62.87,20.76-18.76,42.72-44.79,49.17ZM720.28,628.75c21.47,9.07,43.27,18.28,65.54,27.7,6.86-15.72,13.65-31.3,20.62-47.28-12.26-7.11-24.33-14.03-36.32-21.08-7.12-4.18-7.08-3.55-11.18,1.89-1.19,1.59-2.58,3.04-4,4.45-11.54,11.46-23.11,22.9-34.66,34.33ZM467,886.6c2.33-17.03,4.62-33.7,7-51.1-20.32.96-39.98,1.9-59.65,2.83,3.45,16.2,6.82,32.01,10.28,48.27h42.37ZM852.78,797.95c5.41.68,10.3,1.29,15.45,1.93,2.89-9.59,5.73-18.97,8.68-28.75-1.77.2-2.54.28-3.05.34,8-9.31,6.65-20.88,8.71-32.71-12.58,4.12-24.02,7.87-35,11.46,1.75,7.61,3.32,14.49,5,21.82h8.76c-.02.46-.04.92-.06,1.38-2.86.66-5.71,1.31-8.49,1.95v22.57ZM752.67,122.07c-.33-.13-.65-.25-.98-.38-11.39,22.19-22.79,44.38-34.51,67.2,4.57-2.91,8.18-5.83,12.28-7.59,2.6-1.12,6.72-1.68,8.73-.35,1.8,1.2,1.66,5.33,2.39,8.23,8.93-2.79,11.63,3.25,12.49,11.37h5.05c-1.83-26.29-3.64-52.39-5.46-78.49ZM844.91,767.05c.73-19.5-17.6-37.56-38.1-50.56-.09,9.35-.23,17.88-.16,26.4,0,.78,1.17,1.78,2.02,2.3,12.01,7.3,24.06,14.53,36.24,21.85ZM485.79,517.05c4.72-4.95,8.87-9.2,12.88-13.59.71-.78,1.33-2.16,1.19-3.13-1.38-9.12-2.93-18.22-4.58-28.24-9.58,6.79-18.33,13-27.51,19.51,6.04,8.54,11.85,16.74,18.02,25.45ZM880.77,705.67c-16.12,10.76-29.98,21.4-34.41,41.29,11.99-4.03,23.23-7.75,34.39-11.67.87-.3,1.83-2,1.78-3-.43-8.42-1.08-16.82-1.76-26.62ZM847.02,791.7c-.28-5.45-.79-9.22-.59-12.95.28-5.47-.86-9.52-6.97-10.97-1.98-.47-3.64-2.25-5.5-3.34-8.79-5.16-17.6-10.28-27.36-15.97,1.28,6.23,2.21,11.27,3.4,16.26.36,1.53,1.02,3.47,2.2,4.26,11.13,7.43,22.41,14.66,34.83,22.72ZM229.1,823.59c-6.75-.73-12.62-1.37-19.05-2.07-.8,7.05-1.58,13.82-2.34,20.47,6.26,1.71,11.94,3.26,17.99,4.91.76-7.96,1.46-15.47,3.39-23.3ZM821.42,800.28c8.95-1.02,17.34-1.97,25.74-2.93.23-.55.47-1.1.7-1.64-11.37-6.95-22.74-13.91-34.11-20.86-.32.33-.64.65-.96.98,2.89,8.19,5.78,16.38,8.63,24.45ZM414.13,859.39c-1.85-7.15-3.55-13.75-5.28-20.41-6.79.73-12.92,1.38-19.6,2.1,1.68,6.06,3.2,11.57,4.51,16.3,7.01.69,13.37,1.32,20.37,2.01ZM832.14,823.99c4.01-1.13,7.43-2.29,10.94-3.01,2.93-.61,3.62-2.29,3.55-4.95-.11-4.25-.03-8.51-.03-13.62-7.99.89-15.22,1.69-22.77,2.53,2.97,6.81,5.58,12.79,8.3,19.05ZM496.28,835.05c-2.43,0-4.7-.11-6.95.02q-12.87.76-13.12,13.8c0,.31.13.63.14.68,5.57,1.26,11.02,2.5,16.71,3.79,1.04-5.91,2.12-12.05,3.22-18.29ZM825.83,825.04c-2.98-6.31-5.55-11.77-8.48-17.96-5.96,3.16-11.49,6.09-17.45,9.26,7.31,9.34,16.41,8.48,25.92,8.71ZM371.86,247.68c3.53-5.09,6.67-8.78,8.85-12.98,2.98-5.74,3.48-11.89-.87-17.31-1.25-1.56-3.7-2.15-5.61-3.18-.28.48-.57.96-.85,1.44,5.24,3.33,7.15,7.76,5.93,13.94-2.93,14.81-23.76,24.71-34.75,18.53-1.19-.67-2.71-.77-4.22-1.17.91,7.71,14.26,7.91,29.62.88,6.92,5.95,15.74,6.8,17.64,2.17-5.03-.74-10.2-1.5-15.74-2.32ZM420.28,584.39c.35.34.71.68,1.06,1.02,13.04-13.35,26.09-26.71,39.86-40.81-6.18.74-37.69,32.27-40.92,39.79ZM630.08,771.49c7.57,4.27,43.66-3.81,46.2-9.42-15,3.06-30.51,6.22-46.2,9.42ZM421.61,907.68c-1.23-10.27-2.41-20.07-3.58-29.87-.7.03-1.41.05-2.11.08v19.15c-.25-.07.77.23,1.83.55q-4.74,9.49,3.86,10.1ZM864.91,804.11h-11.79v12.71c8.65.67,11.4-4.56,11.79-12.71ZM585.78,635.2c-12.52,4.96-23.33,10.68-33.67,18.31,3.92,1.59,30.89-12.89,33.67-18.31ZM742.97,590.56c-.54-.66-1.08-1.31-1.62-1.97-3.6,2.13-5.43,6.37-8.34,9.3-3.15,3.18-6.12,6.54-9.18,9.8-3,3.19-6.03,6.37-9.04,9.55.52.46,1.03.92,1.55,1.38,10.22-8.05,18.95-17.54,26.64-28.06ZM492.51,582.61c11.65-11.28,22.45-21.74,33.26-32.21-12.03,9.18-23.38,19.06-33.26,32.21ZM689.86,831.97c2.51-.84,4.78-1.59,7.25-2.42-1.63-4.14-3.17-8.3-4.95-12.34-.36-.81-1.63-1.22-2.48-1.82-.55.9-1.63,1.84-1.55,2.68.41,4.61,1.11,9.19,1.73,13.9ZM294.36,271.51c-1.75.41-4.54,2.01-6.22,1.22-2.14-.99-3.37-3.92-5-6.02-.67.01-1.33.03-2,.04,3.16,4.68,1.93,8.49-1.27,12.35,5.76-3.4,10.67-3.76,14.49,1.99v-9.58ZM397.23,243.81c.28,5.83,4.1,4.47,6.84,3.98,6.92-1.23,11.88-6.01,11.31-10.37-5.16,4.17-9.8,9.73-18.15,6.39ZM413.69,869.83c-.72,2.76-1.32,5.05-2.24,8.54,8.25-3.73,4.36-8.82,4.28-13.57-1,.45-1.62.64-2.13.98-.93.62-1.8,1.33-3.07,2.28,1.29.72,2.19,1.23,3.16,1.77ZM484.27,886.45c2.27-4,4.1-7.21,5.93-10.42-.42-.3-.83-.6-1.25-.89-2.63,1.14-5.27,2.28-7.79,3.37.89,2.29,1.69,4.33,3.11,7.95ZM218.32,896.74c1.16-3.97,1.91-6.51,3.14-10.7-3.85,1.3-6.43,2.17-8.48,2.86,1.85,2.72,3.29,4.82,5.35,7.84ZM210.55,884.65c7.96,2.12,10.91.47,10.87-5.21-3.38,1.62-6.56,3.14-10.87,5.21ZM225.97,850.38c-3.64,2.67-6.25,4.58-9.42,6.9,5.99,1.76,8.53.03,9.42-6.9ZM216.32,865.63c.26.44.51.87.77,1.31,4.17.2,7.74-.41,7.94-7.47-3.52,2.49-6.12,4.33-8.71,6.16ZM223.54,869.24c-3.28,2.15-5.96,3.89-9.2,6.01,7.13,2,8.41,1.18,9.2-6.01ZM876.7,808.26c-2.5-1.16-4.11-1.92-6.06-2.83-.65,2.73-1.14,4.78-1.88,7.89,3.02-1.92,5.04-3.21,7.94-5.06ZM492.4,865.93c-.36-.39-.73-.77-1.09-1.16-1.72,1.21-3.58,2.27-5.1,3.71-.61.58-.45,1.97-.64,2.99,1.03-.05,2.5.31,3.01-.24,1.48-1.57,2.57-3.51,3.81-5.3ZM705.92,848.52c-.56-.18-1.12-.37-1.69-.55-3.19,1.61-4.67,3.55-.37,7.41.82-2.74,1.44-4.8,2.05-6.86Z" class="cls-1"></path>
      <path d="M568.12,185.83c-2.35,3.27-3.97,6.03-6.08,8.35-3.19,3.51-2.19,6.35,1.02,8.83,5.79,4.47,11.69,8.8,17.6,13.12,3.3,2.41,6.71,4.66,11.29,7.83-3.88.75-6.53,1.7-9.18,1.7-11.91,0-23.82-.16-35.71-.55-3.16-.1-4.43,1.19-5.43,3.84-5.79,15.37-11.86,30.65-17.41,46.1-1.47,4.08-3.61,5.66-7.14,3.77-3.65-1.95-7.41-4.36-9.97-7.51-3.15-3.88-.75-8.21,4.28-8.13,3.38.05,6.75,1.29,10.65,2.11,3.1-7.81,6.29-15.97,9.58-24.08,3.97-9.79,7.7-19.7,12.2-29.23,1.92-4.07.71-5.71-2.53-7.39-6.64-3.42-13.27-6.86-19.88-10.36-1.31-.69-2.63-1.51-3.7-2.52-2.69-2.56-2.03-5.95,1.55-6.25,9.36-.79,18.77-1.31,28.16-1.3,6.65,0,13.31,1.03,20.7,1.66ZM510.47,266.74c-.4.86-.8,1.72-1.2,2.58,2.7,1.87,5.31,3.9,8.21,5.36.29.14,2.35-3.25,4.37-6.12-4.68-.75-8.03-1.28-11.38-1.82Z" class="cls-1"></path>
      <path d="M338.9,611.41c-2.52,3.52-4.87,6.28-6.63,9.38-4.16,7.31-4.23,15.48-2.88,23.31,2.72,15.82,5.81,31.61,9.64,47.18,5.9,23.97,12.45,47.78,18.95,71.6,4.36,15.94,9.18,31.75,13.69,47.65,2.25,7.92,4.26,15.91,6.55,24.52-8.33-.75-16.37-1.36-24.38-2.22-20.62-2.22-41.23-4.55-61.84-6.85-29.06-3.25-58.13-6.51-87.19-9.76-2.64-.3-5.3-.78-7.94-.75-5.44.06-7.11-2.94-7.96-7.85-6.19-36.02-12.69-71.99-18.92-108.01-6.4-36.97-12.61-73.97-19.1-112.08,62.78,7.97,125.07,15.89,188.01,23.88Z" class="cls-2"></path>
      <path d="M464.95,487.35c-4.51-10.38-8.73-20.06-12.93-29.75-1.19-2.74-2.14-5.61-3.59-8.2-.57-1.01-2.21-1.42-3.36-2.11-.12,1.17-.65,2.49-.3,3.49,6.88,19.45,14.57,38.51,26.93,55.31,3.53,4.8,6.72,9.86,10.44,15.36-5.06,5.34-9.5,11.72-15.5,15.81-4.5,3.07-10.93,3.62-16.62,4.57-34.23,5.75-68.41,11.9-102.8,16.54-10.05,1.36-20.71-1.74-31.08-2.85-2.43-.26-4.84-.73-7.77-1.19,1.99-6.39,3.83-12.32,5.76-18.51,3.07.79,5.6,1.44,8.46,2.18,3.47-13.14,6.91-26.1,10.29-39.07,1.72-6.58,3.22-13.22,5.04-19.78.9-3.25-.13-4.36-3.59-3.97-4.94,18.89-9.88,37.8-15,57.36-29.75-8.69-59.02-16.96-85-35.64,4.84-4.22,9.3-8.4,14.06-12.19,6.91-5.48,14.26-10.42,21.03-16.05,12.14-10.09,23.78-20.77,36.03-30.72,9.54-7.75,19.67-14.79,29.59-22.05,1.58-1.15,3.48-1.87,6.28-2.19-.63,1.37-1,2.95-1.92,4.08-3.32,4.04-3.12,9.19,1.33,12.04,3.87,2.47,8.1,4.81,12.49,5.94,12.97,3.35,26.17,3.4,38.86-1.05,5.13-1.8,10.1-5.21,14.02-9.04,6.35-6.19,6.4-11.81,1.44-19.54,5.74,0,11.21-.43,16.58.08,18.23,1.74,34.59-3.52,49.67-13.16,16.54-10.57,32.79-21.59,49.17-32.41,3.04-2.01,6.08-3.99,9.98-6.55,8.5,22.26,16.81,44.03,24.94,65.32-30.82,22.52-61.38,44.84-92.94,67.9Z" class="cls-2"></path>
      <path d="M384.01,835.11c-6.31-21.71-12.86-43.1-18.73-64.66-9.77-35.87-19.4-71.78-28.43-107.83-2.33-9.31-3.16-19.24-3.05-28.87.23-19.87,16.41-23.8,31.38-18.73.31.11.58.32.89.45q16.8,7.43,22.86,24.97c6.06,17.36,12.45,34.61,18.34,52.03,5.82,17.22,11.19,34.59,16.75,51.89,2.39,7.43,8.51,11.6,16.16,10.89,33.59-3.12,67.19-6.14,100.77-9.46,20.33-2.01,40.62-4.4,60.89-6.87,3.98-.48,5.78-.14,6.57,4.49,2.29,13.36,5.29,26.6,8.03,39.88.16.78.5,1.52.81,2.45,1.82-.09,3.44-.18,5.93-.3,1.82,12.05,3.64,24.09,5.43,35.94-81.52,4.57-162.92,9.13-244.61,13.71ZM373.45,741.08c.66-.23,1.31-.47,1.97-.7-1.2-3.46-2.41-6.92-3.61-10.38-.66.23-1.33.47-1.99.7,1.21,3.46,2.42,6.92,3.63,10.38Z" class="cls-2"></path>
      <path d="M150.43,584.02c-5.28-29.8-10.34-59.76-15.93-89.62-10.5-56.05-21.32-112.04-31.98-168.06-2.36-12.4-4.67-24.8-6.86-37.23-.21-1.19.2-3.25,1.02-3.73,13.35-7.92,27.3-14.31,43.25-14.31,10.1,0,14.75,3.62,16.78,13.41,4.1,19.82,7.9,39.7,11.75,59.57,4.75,24.57,9.48,49.14,14.12,73.72,4.85,25.73,9.44,51.52,14.41,77.23,3.9,20.17,8.27,40.25,12.29,60.4.32,1.61-.19,3.58-.87,5.15-3.65,8.52-7.59,16.91-11.15,25.46-1.04,2.5-2.38,3.13-4.87,2.83-13.82-1.65-27.65-3.2-41.95-4.83ZM177.32,564.71c.54-.19,1.08-.39,1.63-.58-1.16-4.59-2.32-9.19-3.49-13.78-.58-.45-1.16-.89-1.74-1.34-.37,1.07-1.31,2.33-1.03,3.19,1.37,4.23,3.05,8.35,4.63,12.51ZM188.64,556.86c.72-.1,1.44-.21,2.16-.31-.66-3.12-1.32-6.25-2.23-10.51-4.32,4.91-1.54,7.8.06,10.83ZM141.94,336.79c-1.8-3.76-3.63-7.58-5.66-11.81.52,8.87,2.05,11.85,5.66,11.81Z" class="cls-2"></path>
      <path d="M240.82,507.26c-9.22,14.49-18.13,28.48-27.38,43.01-1.79-8.54-3.65-16.81-5.25-25.13-8.4-43.52-16.68-87.06-25.11-130.57-7.24-37.34-14.61-74.66-21.97-111.98-1.19-6.02-3.39-11.47-9.54-15,10.17-.29,20.34-.68,30.52-.83,23.36-.35,46.73-.28,70.07-1.01,8.17-.25,14.14,1.09,15.97,10.06.19.94.85,1.79,1.41,2.94-5.59-1.83-10.87-3.88-16.31-5.26-6.87-1.74-13.63-.31-19.86,2.67-9.97,4.77-13.97,15.68-10.23,26.73,2.41,7.14,4.64,10,18.07,22.87-2.33,1.81-4.84,3.41-6.91,5.45-8,7.91-13.94,16.68-13.51,28.77.55,15.34,13.99,23.91,24.72,23.77,7.45-.09,14.88-2.19,22.88-3.49,2.79,12.43,9.39,23.26,24.64,24.57,13.13,1.13,22.16-5.5,27.13-17.87,5.94,9.88,10.05,9.87,18.02-.59,1.15,7.61,2.17,14.37,3.13,20.76-19.82,9.77-35.09,24.36-50.98,38.23-10.86,9.48-22.4,18.18-33.6,27.28-8.62,7-17.06,14.24-25.84,21.03-3.59,2.78-2.23,4.65.26,6.6,3.12,2.45,6.42,4.65,9.68,6.98ZM191.6,323.54c-.54.12-1.09.25-1.63.37.26,4.47-.4,9.19,2.96,12.8.48-.12.97-.24,1.45-.36-.92-4.27-1.85-8.54-2.77-12.82ZM245.85,426c-1.73-4.59-3.28-8.68-5.34-14.11-.28,9.04,1.54,13.75,5.34,14.11Z" class="cls-2"></path>
      <path d="M360.9,395.6c3.78.8,7.56,2.2,11.36,2.25,6.97.09,13.96-.49,20.93-1.04,2.81-.22,3.96.61,4.94,3.38,1.76,4.97,4.4,9.61,6.41,14.5.51,1.23.55,3.11-.04,4.25-4.62,9-12.88,12.1-22.23,13.6-13.39,2.14-26.08.6-37.91-5.95,3.49-16.7,2.66-32.51-6.44-46.92-3.06-4.84-7.53-8.8-11.35-13.16-1.48-1.68-4.79-2.66-2.18-5.94.23-.29-.43-1.87-.78-1.91-.79-.08-1.98.16-2.42.73-4.78,6.12-11.34,7.62-18.61,7.55-12.98-.12-21.93-8.52-22.72-21.53-.13-2.15-.09-4.35.15-6.49,1.48-13.12,11.38-19.5,23.88-15.43,1.57.51,3.12,1.14,4.6,1.88,9.63,4.85,9.69,4.93,17.11-3.3,9.06-10.06,12.83-22.33,14.4-35.45.25-2.11.25-4.24.39-6.95,5.3,3.85,10.23,7.7,16.91,6.37,6.97-1.39,9.28-7.34,12.07-12.79,6.73,8.28,14.85,13.26,25.67,11.54,7.43-1.18,10.19-5,12.76-16.32,12.05,15.01,22.47,30.44,29.3,48.11,3.82,9.9,6.1,20.12,4.78,30.7-.64,5.17-1.7,10.77-4.32,15.12-10.56,17.5-25.79,28.5-46.75,29.64-8.21.45-16.5-.53-24.75-.58-1.73-.01-3.47,1.22-5.2,1.87.02.76.03,1.52.05,2.28ZM369.72,345.29c.58,2.05.58,2.63.87,2.94.56.59,1.22,1.13,1.94,1.51,10.82,5.83,22.34,7.7,33.95,3.66,5.41-1.88,10.14-5.99,14.87-9.5,2.4-1.79,2.24-3.91-.96-4.5-2.8,2.54-5.11,5.26-7.97,7.14-11.71,7.71-23.82,6.56-36.03,1.14-1.83-.81-3.78-1.37-6.67-2.4ZM299.77,348.72c2.43.24,4.1.94,5.22.43,4.4-2.01,6.31-9.39,4.02-14.48-2.42-5.38-8.77-8.85-13.25-6.93-1.46.62-2.48,2.27-3.7,3.45,1.53.24,3.1.34,4.59.74,2.4.64,5.77.8,6.85,2.42,1.37,2.07,1.44,5.48.98,8.13-.32,1.85-2.45,3.39-4.71,6.25ZM359.01,326.96c6.78.06,13.55-5.92,13.33-12.11-.05-1.39-1.54-2.72-2.36-4.08-.66,1.27-1.76,2.49-1.89,3.81-.43,4.19-3.73,8.08-7.99,8.8-4.11.7-5.49-1.85-6.41-5.23-.22-.8-1.52-1.31-2.33-1.96-.45.94-1.27,1.88-1.27,2.82-.03,4.75,3.61,7.9,8.93,7.94ZM394.89,337.34c3.95,2.76,5.03,2.42,11.1-2,2.55-1.86,3.41-3.65,1.82-6.67-1.85-3.52-3.18-7.31-4.89-10.9-.69-1.45-1.83-2.68-2.76-4.02-.61.29-1.22.57-1.83.86,1.99,5.42,3.97,10.84,6.03,16.45-3.02,2.01-6.04,4-9.46,6.28ZM347.96,303.42c.3.65.6,1.3.9,1.96,2.45-1.02,5.01-1.84,7.3-3.13,2.38-1.34,4.53-3.11,6.74-4.75,1.05-.78,1.98-1.71,2.96-2.57-1.35-.62-2.74-1.84-4.06-1.76-6.8.4-11.07,4.4-13.85,10.24ZM420.07,293.88c-1.53-1.77-2.1-2.83-2.99-3.41-3.83-2.51-8.02-3.25-12.18-1.12-1.25.64-1.83,2.6-2.72,3.96,1.6.34,3.46,1.38,4.73.89,3.27-1.27,6.19-1.93,9.33.27.58.41,1.93-.26,3.81-.59ZM411.19,309.44c-2.48,2.47-.73,5.24,1.13,6.86,1.72,1.49,5.35,2.96,6.75,2.12,1.94-1.15,2.96-4.39,3.6-6.93.28-1.08-1.37-2.66-2.24-4.17-1.41,3.38-2.37,5.67-3.33,7.97-1.91-1.89-3.82-3.77-5.91-5.85Z" class="cls-2"></path>
      <path d="M462.56,654.61c-7.51-6.15-9.23-16.89-16.21-23.46-.46.28-.92.57-1.38.85.66,1.31,1.3,2.65,2,3.94,2.84,5.26,6,10.38,8.42,15.82.95,2.13.29,4.99.36,7.51-1.95-1.41-4.4-2.45-5.74-4.3-3.21-4.43-5.81-9.3-8.82-13.89-1.1-1.68-2.65-3.06-4-4.58-.35.26-.7.52-1.04.77,4.31,7.26,8.62,14.51,13.65,22.98-12.91-3.78-14.14-18.44-25.04-22.32,3.82,5.85,9.7,10.38,11.42,17.39-.43.37-.85.74-1.28,1.11-1.45-1.12-3.13-2.04-4.3-3.4-16.97-19.5-39.54-30.7-62.27-41.43-4.99-2.35-11.29-1.91-17-2.73-4.7-.68-9.4-1.37-14.11-2-12-1.6-24-3.21-36.01-4.74-23.47-2.99-46.93-5.96-70.41-8.87-9.72-1.2-19.46-2.23-29.97-3.43,10.71-29.28,26.47-55.16,44.47-80.01,20.18,11.92,42.17,18.33,64.4,24.99-2.13,6.4-4.19,12.61-6.23,18.74-9.8-.66-19.31-1.3-28.82-1.95-.2.62-.4,1.25-.59,1.87,1.71.85,3.4,2.38,5.15,2.44,26.67.94,52.71,5.77,78.62,11.83,19.95,4.67,39.29,10.85,58.1,19.03,26.7,11.62,41.25,32.45,47.49,60.02.5,2.23.55,4.55.8,6.84-.55.31-1.11.63-1.66.94Z" class="cls-2"></path>
      <path d="M735.4,184.79c-1.36,3.86-2,8.21-4.23,11.47-6.35,9.32-15.35,15.58-25.83,19.62-2.57.99-4.15,1.74-2.61,4.91,7.26,14.96-2.13,34.12-17.14,42.13-2.2,1.17-4.63,1.97-6.66,3.38-1.24.86-1.91,2.55-2.84,3.86,1.61.28,3.49,1.25,4.78.74,13.69-5.42,23.88-14.44,28-29.04,2.06-7.29,2.51-14.73-.76-22.44,12.79-4.57,21.2-14.59,30.38-23.66,1.24-1.23,2.94-2.33,4.61-2.72,3.34-.78,5.6,1.94,4.15,5.04-1.1,2.35-2.74,4.56-4.53,6.47-4.65,5-9.54,9.77-14.27,14.69-1.16,1.21-2.07,2.65-3.09,3.99.48.47.96.93,1.44,1.4,5.41-5.62,10.81-11.24,16.22-16.86.43.29.87.57,1.3.86-.91,1.93-1.59,4.03-2.79,5.76-2.55,3.69-5.33,7.24-8.1,10.77-1.77,2.26-2.78,4.26,2.19,5.78-52.62,64.72-113.23,120-177.58,172.37-1.53-3.89-2.88-7.43-4.3-10.95-4.97-12.33-9.9-24.68-15.01-36.96-1.18-2.83-.65-4.24,1.91-6.08,41.73-30,81.29-62.54,116.3-100.33,5.54-5.98,10.58-12.42,16.02-18.5,9.7-10.83,20.6-20.23,32.94-28.03,7.01-4.43,13.51-9.66,20.31-14.44,2.34-1.64,4.88-2.99,7.33-4.48l1.86,1.24Z" class="cls-2"></path>
      <path d="M396.06,886.31c-56.77-.6-112.83-1.2-169.04-1.79,2.36-20.51,4.65-40.34,6.99-60.68,7.09.76,14.15,1.48,21.2,2.28,22.61,2.57,45.2,5.25,67.82,7.75,19.66,2.17,39.34,4.1,58.99,6.34,1.29.15,3.12,1.85,3.45,3.14,3.6,13.95,6.94,27.97,10.6,42.96Z" class="cls-2"></path>
      <path d="M493.11,887.57c2.68-16.65,5.36-32.64,7.77-48.68.52-3.47,1.46-5.02,5.4-5.25,28.17-1.65,56.33-3.69,84.5-5.4,12.72-.77,25.47-1.07,38.73-1.6,1.08,6.65,2.34,13.61,3.23,20.63.14,1.11-1.29,2.48-2.11,3.65-3.5,5.02-7.5,9.76-10.46,15.08-3.87,6.97-4.42,14.45-.21,21.56h-126.83Z" class="cls-2"></path>
      <path d="M726.03,638.12c-2.02,16.96-4.02,34.76-6.28,52.53-2.82,22.22-5.86,44.41-8.79,66.61-1.39,10.52-2.94,21.03-4.05,31.59-1.25,11.87-8.3,18.18-19.68,21.62-.84-10.86-1.71-21.37-2.4-31.9-.07-1.06.91-3.08,1.54-3.14,4.18-.37,3.94-3.4,3.99-6.16.57-30.94,1.77-61.89,1.35-92.81-.25-18.22-3.18-36.4-4.68-54.61-.32-3.87-3.01-4.83-5.64-6.15-18.1-9.11-36.29-18.05-54.29-27.35-11.31-5.84-22.34-12.22-34.09-18.69-37.5,41.67-67.1,91.14-104.44,134.43-.73-.54-1.46-1.08-2.19-1.61,1.31-1.85,2.57-3.74,3.95-5.54,12.75-16.57,25.57-33.09,38.29-49.68,18.2-23.73,36.33-47.5,54.5-71.25.71-.92,1.55-1.74,2.34-2.6,7.64-8.26,7.24-7.59,16.62-1.95,12.5,7.52,25.66,13.97,38.63,20.68,20.92,10.83,42,21.37,62.85,32.34,7.4,3.89,14.33,8.67,22.46,13.64Z" class="cls-2"></path>
      <path d="M601.24,701.57c1.68,10.49,3.39,21.17,5.14,32.1-23.49,2.57-46.74,5.25-70.02,7.62-26.15,2.67-52.33,5.06-78.5,7.56-5.8.55-11.6,1.04-17.39,1.64-6.21.64-9.3-1.14-11.41-6.97-3.1-8.53-6.1-17.1-9.21-25.88,7.29,1.2,14.36,2.29,21.39,3.54,17.7,3.15,35.46,3.45,53.35,1.92,23.55-2.02,46.19-8.56,69.18-13.32,12.19-2.52,24.33-5.32,37.47-8.2Z" class="cls-2"></path>
      <path d="M799.99,825.72c15.56,7.6,31.43,5.04,47,2.7,11.37-1.71,22.47-5.2,34.41-8.07-.95,11.9-1.97,24.49-2.96,37.08-.69,8.82-2.43,17.24-7.09,25.04-4.14,6.93-10.27,10.75-17.76,11.74-7.46.99-15.22,1.55-22.62.59-10.48-1.37-18.23-7.64-20.98-18.14-3.14-12-5.42-24.24-7.89-36.41-.95-4.68-1.4-9.47-2.13-14.52Z" class="cls-2"></path>
      <path d="M675.64,908.94c-82.82.73-165.64,1.46-248.56,2.19-.57-6.88-1.11-13.4-1.65-20,13.25,0,26.53-.13,39.8.08,3.9.06,7.77,1.16,11.67,1.66,2.29.29,4.83.99,6.89.35,10.73-3.36,21.67-1.51,32.49-1.56,25.8-.11,51.59.22,77.39.42,9.47.07,19-.33,28.39.66,6.33.67,12.42,3.45,18.65,5.17,11.19,3.09,22.41,6.09,33.61,9.16.56.15,1.05.54,1.57.81-.08.36-.16.71-.24,1.07Z" class="cls-2"></path>
      <path d="M679.86,777.02c2.42,26.49,4.81,52.61,7.26,79.32-8.34-1.15-17.11-2.35-25.89-3.57-6.25-.87-12.47-2.12-18.75-2.55-3.38-.23-4.66-1.53-5.15-4.57-2.41-15.09-4.91-30.16-7.34-45.25-.84-5.19-1.55-10.4-2.36-15.82,17.6-2.55,34.67-5.02,52.23-7.56Z" class="cls-2"></path>
      <path d="M402.47,394.31c26.02-6.44,45.65-28.41,44.79-49.17,4.98-1.52,10.35-2.06,14.46-4.62,10.49-6.54,11.71-20.14,3.39-32.13-2.34-3.37-5.35-6.27-8.3-9.67,3.06-1.71,6.55-3.44,9.82-5.53,3.15-2.02,6.07-4.4,9.39-6.84,2,18.37,3.98,36.62,6,54.87,1.17,10.57,2.25,21.16,3.7,31.69.64,4.63-.04,7.71-4.78,9.94-6.59,3.11-12.83,6.98-19.12,10.7-14.75,8.72-30.81,9.44-47.25,7.94-1.98-.18-4-.57-5.95-.38-5.31.52-6.66-2.24-6.13-6.82Z" class="cls-2"></path>
      <path d="M720.28,628.75c11.55-11.44,23.12-22.87,34.66-34.33,1.41-1.4,2.8-2.86,4-4.45,4.09-5.44,4.06-6.07,11.18-1.89,12,7.05,24.07,13.98,36.32,21.08-6.97,15.98-13.76,31.56-20.62,47.28-22.28-9.41-44.07-18.63-65.54-27.7Z" class="cls-2"></path>
      <path d="M467,886.6h-42.37c-3.46-16.26-6.83-32.07-10.28-48.27,19.67-.93,39.33-1.87,59.65-2.83-2.38,17.4-4.67,34.07-7,51.1Z" class="cls-2"></path>
      <path d="M852.78,797.95v-22.57c2.78-.64,5.63-1.3,8.49-1.95.02-.46.04-.92.06-1.38h-8.76c-1.68-7.33-3.26-14.21-5-21.82,10.98-3.6,22.42-7.34,35-11.46-2.06,11.83-.71,23.39-8.71,32.71.51-.06,1.27-.14,3.05-.34-2.95,9.78-5.78,19.16-8.68,28.75-5.15-.64-10.04-1.25-15.45-1.93Z" class="cls-2"></path>
      <path d="M752.67,122.07c1.82,26.1,3.63,52.2,5.46,78.49h-5.05c-.86-8.12-3.56-14.16-12.49-11.37-.73-2.9-.59-7.03-2.39-8.23-2.01-1.33-6.12-.77-8.73.35-4.1,1.76-7.71,4.68-12.28,7.59,11.72-22.82,23.11-45.01,34.51-67.2.33.13.65.25.98.38Z" class="cls-2"></path>
      <path d="M844.91,767.05c-12.17-7.33-24.23-14.56-36.24-21.85-.86-.52-2.02-1.52-2.02-2.3-.07-8.52.07-17.05.16-26.4,20.5,12.99,38.83,31.05,38.1,50.56Z" class="cls-2"></path>
      <path d="M485.79,517.05c-6.17-8.71-11.97-16.92-18.02-25.45,9.17-6.51,17.92-12.71,27.51-19.51,1.65,10.02,3.21,19.12,4.58,28.24.15.98-.47,2.35-1.19,3.13-4.01,4.38-8.16,8.64-12.88,13.59Z" class="cls-2"></path>
      <path d="M880.77,705.67c.68,9.8,1.34,18.2,1.76,26.62.05,1-.91,2.7-1.78,3-11.17,3.91-22.4,7.63-34.39,11.67,4.43-19.89,18.29-30.53,34.41-41.29Z" class="cls-2"></path>
      <path d="M847.02,791.7c-12.42-8.06-23.7-15.28-34.83-22.72-1.17-.78-1.83-2.73-2.2-4.26-1.18-4.98-2.12-10.02-3.4-16.26,9.76,5.69,18.57,10.82,27.36,15.97,1.86,1.09,3.51,2.87,5.5,3.34,6.11,1.44,7.26,5.5,6.97,10.97-.19,3.73.31,7.5.59,12.95Z" class="cls-2"></path>
      <path d="M229.1,823.59c-1.93,7.84-2.63,15.35-3.39,23.3-6.05-1.65-11.74-3.2-17.99-4.91.76-6.65,1.53-13.42,2.34-20.47,6.42.7,12.29,1.34,19.05,2.07Z" class="cls-2"></path>
      <path d="M821.42,800.28c-2.85-8.07-5.74-16.26-8.63-24.45.32-.33.64-.65.96-.98,11.37,6.95,22.74,13.91,34.11,20.86-.23.55-.47,1.1-.7,1.64-8.39.95-16.78,1.91-25.74,2.93Z" class="cls-2"></path>
      <path d="M414.13,859.39c-6.99-.69-13.36-1.32-20.37-2.01-1.31-4.73-2.83-10.24-4.51-16.3,6.68-.71,12.8-1.37,19.6-2.1,1.72,6.67,3.43,13.27,5.28,20.41Z" class="cls-2"></path>
      <path d="M832.14,823.99c-2.73-6.26-5.33-12.24-8.3-19.05,7.55-.84,14.77-1.64,22.77-2.53,0,5.11-.08,9.36.03,13.62.07,2.66-.62,4.34-3.55,4.95-3.51.73-6.93,1.89-10.94,3.01Z" class="cls-2"></path>
      <path d="M496.28,835.05c-1.1,6.24-2.18,12.38-3.22,18.29-5.69-1.29-11.14-2.53-16.71-3.79-.01-.05-.15-.37-.14-.68q.25-13.02,13.12-13.8c2.25-.13,4.52-.02,6.95-.02Z" class="cls-2"></path>
      <path d="M825.83,825.04c-9.51-.23-18.61.63-25.92-8.71,5.96-3.16,11.49-6.1,17.45-9.26,2.92,6.2,5.5,11.65,8.48,17.96Z" class="cls-2"></path>
      <path d="M371.86,247.68c5.54.82,10.72,1.58,15.74,2.32-1.9,4.64-10.72,3.78-17.64-2.17-15.37,7.03-28.71,6.83-29.62-.88,1.51.4,3.03.5,4.22,1.17,11,6.17,31.83-3.73,34.75-18.53,1.22-6.18-.69-10.62-5.93-13.94.28-.48.57-.96.85-1.44,1.9,1.03,4.36,1.62,5.61,3.18,4.35,5.42,3.85,11.57.87,17.31-2.18,4.2-5.33,7.89-8.85,12.98Z" class="cls-2"></path>
      <path d="M420.28,584.39c3.23-7.51,34.74-39.04,40.92-39.79-13.77,14.1-26.81,27.46-39.86,40.81-.35-.34-.71-.68-1.06-1.02Z" class="cls-2"></path>
      <path d="M630.08,771.49c15.68-3.2,31.2-6.36,46.2-9.42-2.54,5.61-38.63,13.68-46.2,9.42Z" class="cls-2"></path>
      <path d="M421.61,907.68q-8.6-.61-3.86-10.1c-1.06-.32-2.08-.62-1.83-.55v-19.15c.7-.03,1.41-.05,2.11-.08,1.18,9.8,2.35,19.6,3.58,29.87Z" class="cls-2"></path>
      <path d="M864.91,804.11c-.39,8.15-3.14,13.38-11.79,12.71v-12.71h11.79Z" class="cls-2"></path>
      <path d="M585.78,635.2c-2.78,5.41-29.75,19.9-33.67,18.31,10.34-7.63,21.15-13.35,33.67-18.31Z" class="cls-2"></path>
      <path d="M742.97,590.56c-7.69,10.51-16.42,20.01-26.64,28.06-.52-.46-1.03-.92-1.55-1.38,3.01-3.18,6.04-6.35,9.04-9.55,3.06-3.26,6.03-6.62,9.18-9.8,2.91-2.93,4.74-7.18,8.34-9.3.54.66,1.08,1.31,1.62,1.97Z" class="cls-2"></path>
      <path d="M492.51,582.61c9.88-13.14,21.22-23.03,33.26-32.21-10.8,10.46-21.61,20.93-33.26,32.21Z" class="cls-2"></path>
      <path d="M689.86,831.97c-.62-4.71-1.31-9.29-1.73-13.9-.08-.84,1.01-1.79,1.55-2.68.85.6,2.12,1.01,2.48,1.82,1.78,4.05,3.32,8.2,4.95,12.34-2.47.82-4.74,1.58-7.25,2.42Z" class="cls-2"></path>
      <path d="M294.36,271.51v9.58c-3.83-5.74-8.73-5.39-14.49-1.99,3.2-3.86,4.43-7.66,1.27-12.35.67-.01,1.33-.03,2-.04,1.62,2.09,2.86,5.02,5,6.02,1.69.78,4.48-.81,6.22-1.22Z" class="cls-2"></path>
      <path d="M397.23,243.81c8.35,3.34,12.99-2.22,18.15-6.39.57,4.36-4.39,9.14-11.31,10.37-2.74.49-6.56,1.85-6.84-3.98Z" class="cls-2"></path>
      <path d="M413.69,869.83c-.97-.54-1.87-1.05-3.16-1.77,1.27-.95,2.14-1.66,3.07-2.28.51-.34,1.13-.53,2.13-.98.08,4.76,3.98,9.84-4.28,13.57.91-3.48,1.51-5.78,2.24-8.54Z" class="cls-2"></path>
      <path d="M484.27,886.45c-1.42-3.62-2.21-5.67-3.11-7.95,2.52-1.09,5.16-2.23,7.79-3.37.42.3.83.6,1.25.89-1.83,3.21-3.66,6.43-5.93,10.42Z" class="cls-2"></path>
      <path d="M218.32,896.74c-2.06-3.02-3.49-5.12-5.35-7.84,2.05-.69,4.64-1.56,8.48-2.86-1.23,4.19-1.97,6.73-3.14,10.7Z" class="cls-2"></path>
      <path d="M210.55,884.65c4.32-2.07,7.49-3.59,10.87-5.21.04,5.68-2.92,7.33-10.87,5.21Z" class="cls-2"></path>
      <path d="M225.97,850.38c-.89,6.93-3.43,8.67-9.42,6.9,3.17-2.32,5.78-4.23,9.42-6.9Z" class="cls-2"></path>
      <path d="M216.32,865.63c2.6-1.84,5.19-3.67,8.71-6.16-.2,7.06-3.77,7.68-7.94,7.47-.26-.44-.51-.87-.77-1.31Z" class="cls-2"></path>
      <path d="M223.54,869.24c-.79,7.2-2.07,8.01-9.2,6.01,3.24-2.12,5.92-3.87,9.2-6.01Z" class="cls-2"></path>
      <path d="M876.7,808.26c-2.9,1.85-4.92,3.14-7.94,5.06.74-3.1,1.23-5.16,1.88-7.89,1.95.91,3.56,1.66,6.06,2.83Z" class="cls-2"></path>
      <path d="M492.4,865.93c-1.24,1.79-2.34,3.73-3.81,5.3-.51.54-1.98.18-3.01.24.19-1.02.03-2.41.64-2.99,1.51-1.43,3.37-2.49,5.1-3.71.36.39.73.77,1.09,1.16Z" class="cls-2"></path>
      <path d="M705.92,848.52c-.62,2.06-1.23,4.13-2.05,6.86-4.31-3.86-2.82-5.8.37-7.41.56.18,1.12.37,1.69.55Z" class="cls-2"></path>
      <path d="M510.47,266.74c3.35.53,6.7,1.07,11.38,1.82-2.02,2.87-4.08,6.26-4.37,6.12-2.9-1.45-5.52-3.49-8.21-5.36.4-.86.8-1.72,1.2-2.58Z" class="cls-2"></path>
      <path d="M373.45,741.08c-1.21-3.46-2.42-6.92-3.63-10.38.66-.23,1.33-.47,1.99-.7,1.2,3.46,2.41,6.92,3.61,10.38-.66.23-1.31.47-1.97.7Z" class="cls-1"></path>
      <path d="M177.32,564.71c-1.57-4.16-3.26-8.28-4.63-12.51-.28-.86.66-2.11,1.03-3.19.58.45,1.16.89,1.74,1.34,1.16,4.59,2.32,9.19,3.49,13.78-.54.19-1.08.39-1.63.58Z" class="cls-1"></path>
      <path d="M188.64,556.86c-1.61-3.02-4.38-5.91-.06-10.83.9,4.26,1.57,7.39,2.23,10.51-.72.1-1.44.21-2.16.31Z" class="cls-1"></path>
      <path d="M141.94,336.79c-3.61.04-5.13-2.94-5.66-11.81,2.03,4.24,3.86,8.05,5.66,11.81Z" class="cls-1"></path>
      <path d="M191.6,323.54c.92,4.27,1.85,8.54,2.77,12.82-.48.12-.97.24-1.45.36-3.36-3.62-2.71-8.34-2.96-12.8.54-.12,1.09-.25,1.63-.37Z" class="cls-1"></path>
      <path d="M245.85,426c-3.79-.37-5.62-5.07-5.34-14.11,2.05,5.43,3.6,9.53,5.34,14.11Z" class="cls-1"></path>
      <path d="M369.72,345.29c2.88,1.03,4.83,1.59,6.67,2.4,12.21,5.42,24.32,6.57,36.03-1.14,2.86-1.88,5.17-4.6,7.97-7.14,3.2.59,3.36,2.71.96,4.5-4.73,3.51-9.45,7.62-14.87,9.5-11.61,4.04-23.13,2.17-33.95-3.66-.72-.39-1.38-.92-1.94-1.51-.29-.31-.29-.89-.87-2.94Z" class="cls-1"></path>
      <path d="M299.77,348.72c2.26-2.87,4.4-4.4,4.71-6.25.45-2.65.39-6.06-.98-8.13-1.07-1.62-4.45-1.77-6.85-2.42-1.49-.4-3.06-.5-4.59-.74,1.22-1.18,2.24-2.83,3.7-3.45,4.49-1.91,10.83,1.56,13.25,6.93,2.29,5.09.38,12.47-4.02,14.48-1.12.51-2.79-.18-5.22-.43Z" class="cls-1"></path>
      <path d="M359.01,326.96c-5.32-.04-8.95-3.19-8.93-7.94,0-.94.83-1.88,1.27-2.82.8.64,2.11,1.15,2.33,1.96.91,3.38,2.3,5.93,6.41,5.23,4.26-.73,7.56-4.62,7.99-8.8.13-1.32,1.24-2.54,1.89-3.81.83,1.36,2.31,2.69,2.36,4.08.22,6.2-6.55,12.17-13.33,12.11Z" class="cls-1"></path>
      <path d="M394.89,337.34c3.43-2.27,6.44-4.27,9.46-6.28-2.06-5.61-4.04-11.03-6.03-16.45.61-.29,1.22-.57,1.83-.86.93,1.33,2.07,2.57,2.76,4.02,1.72,3.59,3.05,7.38,4.89,10.9,1.59,3.02.73,4.81-1.82,6.67-6.07,4.42-7.15,4.76-11.1,2Z" class="cls-1"></path>
      <path d="M347.96,303.42c2.77-5.84,7.04-9.84,13.85-10.24,1.31-.08,2.7,1.14,4.06,1.76-.98.86-1.92,1.79-2.96,2.57-2.21,1.64-4.35,3.41-6.74,4.75-2.3,1.29-4.86,2.1-7.3,3.13-.3-.65-.6-1.3-.9-1.96Z" class="cls-1"></path>
      <path d="M420.07,293.88c-1.88.33-3.23,1-3.81.59-3.14-2.21-6.06-1.54-9.33-.27-1.27.49-3.14-.55-4.73-.89.89-1.36,1.46-3.32,2.72-3.96,4.15-2.13,8.35-1.39,12.18,1.12.89.58,1.46,1.63,2.99,3.41Z" class="cls-1"></path>
      <path d="M411.19,309.44c2.1,2.07,4.01,3.96,5.91,5.85.96-2.29,1.92-4.59,3.33-7.97.87,1.51,2.52,3.08,2.24,4.17-.65,2.54-1.67,5.78-3.6,6.93-1.41.84-5.04-.62-6.75-2.12-1.85-1.61-3.61-4.39-1.13-6.86Z" class="cls-1"></path>
    </g>
  </g>
</svg>