<?xml version="1.0" standalone="no"?><!DOCTYPE svg PUBLIC "-//W3C//DTD SVG 1.1//EN" "http://www.w3.org/Graphics/SVG/1.1/DTD/svg11.dtd"><svg height="1024" node-id="1" sillyvg="true" template-height="1024" template-width="1024" version="1.1" viewBox="0 0 1024 1024" width="1024" xmlns="http://www.w3.org/2000/svg" xmlns:xlink="http://www.w3.org/1999/xlink"><defs node-id="24"></defs><path d="M 848.31 202.26 C 851.31 202.34 854.13 202.57 857.05 203.33 C 866.99 205.92 874.57 211.65 879.70 220.58 C 897.00 250.72 879.24 303.98 870.94 335.53 C 881.05 319.37 892.51 301.35 910.36 292.79 C 917.85 289.20 926.96 287.86 934.87 290.82 C 942.03 293.50 947.36 300.34 950.26 307.21 C 956.75 322.59 954.21 340.78 948.93 356.08 C 945.05 367.34 939.31 377.72 933.35 387.98 C 915.25 419.09 892.78 447.31 871.07 475.93 C 866.48 481.98 853.16 497.63 850.99 503.02 C 852.02 503.51 853.08 503.89 854.13 504.30 C 855.87 506.90 853.36 519.49 852.88 523.46 L 894.25 524.50 C 901.03 524.67 908.23 524.36 914.94 525.18 C 915.90 525.30 916.92 525.19 917.54 525.97 C 918.03 531.58 916.31 558.51 914.27 562.99 C 911.90 568.20 907.46 573.35 904.35 578.26 C 892.42 596.99 880.22 615.53 867.74 633.90 L 814.36 714.02 C 803.69 730.14 793.29 746.40 782.31 762.32 C 755.62 762.04 728.83 760.57 702.13 759.83 L 581.73 757.05 C 550.32 756.16 518.90 755.46 487.47 754.96 C 477.51 764.98 470.20 770.62 456.45 774.76 C 481.01 777.75 506.24 782.70 528.81 793.24 C 544.36 800.49 563.73 812.85 569.74 829.90 C 570.74 832.72 572.52 837.20 571.13 840.04 C 569.75 840.97 567.79 840.96 566.16 841.04 C 542.05 842.25 517.64 841.80 493.49 842.19 L 375.66 844.43 C 362.63 844.50 349.61 844.71 336.59 845.05 C 331.19 845.16 325.40 844.65 320.07 845.35 C 317.44 845.70 317.73 848.24 316.36 850.24 L 315.45 850.39 C 313.98 848.91 313.90 847.86 313.35 845.89 C 298.12 844.57 279.80 845.99 264.31 846.10 L 158.59 847.48 C 146.31 847.78 134.03 848.00 121.75 848.14 C 115.10 848.26 108.39 848.65 101.75 848.44 C 99.54 848.36 95.71 848.36 93.86 847.17 C 90.60 840.57 89.80 827.75 88.60 820.02 L 79.84 759.91 C 75.70 719.94 61.91 679.28 78.58 640.20 C 81.05 634.40 84.22 628.10 88.00 623.00 C 89.73 620.68 92.47 618.38 93.76 615.82 C 95.16 613.03 95.99 609.58 97.00 606.61 C 99.03 600.65 101.09 594.67 103.38 588.82 C 117.63 552.38 143.54 518.50 174.50 494.71 C 180.20 490.33 186.39 485.41 192.98 482.51 C 180.54 476.74 168.26 471.13 158.28 461.46 C 146.75 450.28 140.23 435.58 140.07 419.49 C 139.93 405.57 145.71 391.16 155.60 381.32 C 166.66 370.30 179.47 366.42 194.72 366.43 C 190.23 347.36 189.71 327.99 198.54 310.03 C 208.78 289.22 226.44 277.15 247.88 269.82 C 272.44 261.43 296.43 261.13 319.96 272.82 C 339.77 282.65 355.28 298.88 362.19 320.03 C 362.54 321.06 362.86 322.10 363.15 323.14 C 363.45 324.19 363.72 325.24 363.96 326.30 C 364.20 327.36 364.42 328.42 364.61 329.49 C 364.80 330.56 364.96 331.63 365.10 332.71 C 365.24 333.78 365.35 334.86 365.44 335.95 C 365.52 337.03 365.58 338.11 365.61 339.20 C 365.64 340.28 365.64 341.37 365.62 342.45 C 365.60 343.54 365.55 344.62 365.47 345.71 C 365.39 346.79 365.29 347.87 365.16 348.95 C 365.03 350.03 364.87 351.10 364.69 352.17 C 364.51 353.24 364.30 354.31 364.06 355.37 C 363.83 356.43 363.57 357.48 363.28 358.53 C 362.99 359.57 362.68 360.61 362.34 361.64 C 362.00 362.68 361.64 363.70 361.25 364.71 C 360.86 365.73 360.45 366.73 360.01 367.72 C 359.57 368.72 359.11 369.70 358.62 370.67 C 359.23 373.59 359.16 376.72 359.29 379.69 C 361.71 382.91 364.83 386.69 365.61 390.71 C 365.88 392.15 365.70 393.69 364.75 394.85 C 363.19 396.75 360.70 396.73 358.45 396.95 C 356.23 413.62 358.12 433.52 346.54 447.29 C 339.58 455.57 329.57 459.31 319.04 460.20 C 319.06 464.04 318.71 467.85 318.39 471.67 L 319.26 471.83 C 349.23 477.26 374.06 500.83 390.83 525.06 C 400.87 525.09 411.07 525.85 421.09 526.43 C 439.23 466.63 455.83 406.35 473.60 346.44 C 474.75 345.48 478.50 345.67 480.03 345.66 C 504.65 345.50 529.38 347.17 553.99 347.92 L 695.47 352.01 C 688.80 339.38 684.16 326.26 685.66 311.78 C 686.66 302.09 690.75 292.05 698.58 285.89 C 705.35 280.58 714.12 279.02 722.51 280.19 C 748.17 283.75 768.49 314.57 782.93 333.91 C 782.96 324.30 782.32 314.74 782.58 305.13 C 783.38 275.87 790.68 245.62 810.24 223.02 C 820.03 211.70 833.13 203.31 848.31 202.26 Z M 415.40 559.97 C 418.24 565.82 422.60 571.89 426.57 577.02 C 495.86 579.39 565.13 582.22 634.38 585.51 L 685.79 587.74 C 692.88 588.03 700.89 589.14 707.92 588.37 C 709.18 588.23 709.88 587.88 710.77 586.99 C 712.15 585.61 713.21 583.86 714.28 582.24 C 720.91 570.01 726.15 546.39 730.52 532.43 C 748.43 475.22 764.02 417.27 781.79 360.01 C 769.56 358.01 756.08 358.74 743.70 358.25 L 650.99 355.26 L 540.75 351.62 L 497.85 350.17 C 491.01 350.00 484.00 349.59 477.18 349.92 C 472.86 366.90 467.38 383.69 462.38 400.48 L 440.23 476.47 L 425.69 526.87 C 422.84 536.95 420.06 550.79 415.40 559.97 Z M 199.52 483.99 C 190.66 487.98 182.19 494.27 174.61 500.34 C 142.37 526.15 118.65 560.71 104.10 599.21 C 102.85 602.50 101.53 605.92 100.97 609.40 C 126.69 587.55 156.67 578.87 190.17 581.67 C 218.55 584.03 246.16 597.46 264.55 619.37 C 265.90 620.99 267.20 622.64 268.47 624.32 C 269.74 625.99 270.97 627.70 272.16 629.43 C 273.35 631.17 274.50 632.93 275.61 634.72 C 276.72 636.50 277.78 638.32 278.81 640.15 C 279.84 641.99 280.82 643.85 281.76 645.73 C 282.70 647.61 283.60 649.51 284.45 651.44 C 285.31 653.36 286.11 655.30 286.88 657.26 C 287.64 659.22 288.36 661.20 289.04 663.19 C 296.15 684.20 298.23 707.50 301.35 729.39 C 305.67 758.19 309.53 787.05 312.90 815.97 C 342.50 815.46 372.11 815.10 401.71 814.89 C 399.90 799.46 397.10 784.15 395.34 768.73 C 394.26 759.24 394.29 744.63 391.87 735.98 C 389.06 725.97 380.19 709.88 375.43 699.81 C 363.86 674.28 352.32 648.83 341.37 623.02 C 338.33 615.85 331.51 603.78 331.19 596.35 L 331.60 595.36 C 332.43 595.15 332.48 594.95 333.29 595.44 C 335.54 596.79 340.72 611.08 342.21 614.46 C 354.05 641.89 366.26 669.14 378.84 696.23 C 385.13 709.87 391.01 724.29 398.65 737.21 C 404.30 746.77 411.00 756.43 419.72 763.42 C 429.06 770.91 440.19 773.23 451.90 770.99 C 475.36 766.50 499.62 736.04 515.88 719.34 C 509.26 708.22 501.74 697.55 494.51 686.81 L 453.11 625.63 L 403.79 551.79 C 393.27 536.36 382.98 519.75 369.96 506.32 C 357.43 493.38 340.57 481.83 322.94 477.37 C 311.84 474.57 299.87 474.12 288.46 474.23 C 283.00 474.42 277.13 474.04 271.76 475.13 C 266.58 476.20 261.86 479.55 256.86 481.35 C 238.05 488.11 218.94 488.09 199.52 483.99 Z M 730.97 592.95 C 700.08 592.66 669.38 591.16 638.54 589.92 C 638.54 606.81 640.77 623.65 641.13 640.50 C 623.07 640.68 605.04 639.75 587.00 639.28 C 577.26 639.03 566.60 639.82 557.01 638.20 C 556.98 621.13 557.18 604.07 557.63 587.01 C 538.26 585.49 518.62 585.29 499.19 584.46 C 476.06 583.46 452.82 581.90 429.68 581.50 C 434.92 590.92 441.23 599.76 447.27 608.67 C 454.24 618.96 461.11 629.32 468.18 639.53 C 477.08 630.27 487.49 623.89 500.61 623.65 C 504.45 623.58 521.43 626.26 524.59 627.49 C 528.12 628.86 531.25 631.55 534.85 632.63 C 543.41 635.22 551.56 632.80 558.82 639.99 C 562.52 643.65 563.66 647.87 563.70 652.90 C 587.34 653.53 610.98 654.37 634.61 655.41 C 644.77 655.78 659.67 655.27 669.31 656.83 C 671.21 657.14 672.88 657.94 674.21 659.34 C 675.46 660.66 675.86 662.16 675.75 663.95 C 675.64 666.02 674.94 668.05 674.16 669.96 C 671.13 677.35 667.12 684.43 663.68 691.66 C 659.18 701.13 655.51 712.28 649.25 720.70 C 647.23 721.65 645.09 721.88 642.88 721.98 C 635.83 722.28 628.54 721.60 621.47 721.36 L 578.88 719.88 C 568.52 719.14 558.11 718.87 547.74 718.30 C 539.88 717.87 531.95 717.07 524.10 716.92 C 519.36 724.69 511.01 730.98 504.90 737.76 C 559.21 738.48 613.53 740.80 667.84 741.05 L 741.10 741.34 C 752.03 741.43 763.81 740.56 774.60 741.89 C 805.94 691.39 838.26 641.52 871.56 592.28 L 897.45 553.22 C 902.41 545.79 909.05 537.76 912.46 529.52 C 906.50 528.84 900.41 528.91 894.42 528.77 C 880.55 528.43 866.60 528.58 852.76 527.95 L 849.16 574.67 C 848.75 579.94 849.04 587.61 847.67 592.50 C 845.53 593.44 843.11 593.47 840.80 593.53 C 836.11 593.63 791.21 592.67 789.95 592.15 C 789.16 591.83 789.04 591.50 788.54 590.86 C 787.25 584.40 790.71 535.88 791.89 527.21 C 778.32 527.02 764.77 526.48 751.20 526.47 L 730.97 592.95 Z M 279.36 469.97 C 289.22 469.92 299.51 469.31 309.28 470.66 C 309.58 465.63 310.60 460.67 311.75 455.77 C 322.68 456.06 332.94 454.20 341.13 446.39 C 356.07 432.14 354.50 397.06 354.74 377.68 C 354.75 377.15 354.76 377.36 354.71 376.92 C 349.63 383.46 342.80 389.14 336.28 394.25 C 334.27 391.46 332.56 389.24 328.95 388.69 C 326.66 388.35 324.36 389.02 322.52 390.43 C 319.61 392.65 317.90 396.46 317.63 400.06 C 317.23 405.49 320.17 409.33 323.33 413.33 C 314.59 434.09 300.89 450.73 284.33 465.75 L 279.36 469.97 Z M 819.47 439.88 C 819.41 436.13 818.96 431.90 819.69 428.24 L 820.81 427.48 C 821.83 427.92 821.60 427.59 821.98 428.49 C 823.33 431.66 823.30 451.12 823.52 455.68 C 824.00 465.96 825.30 476.24 826.38 486.47 C 826.89 491.21 826.96 496.49 828.08 501.09 C 828.31 502.05 828.30 502.40 829.16 502.94 C 830.46 502.03 830.90 500.43 831.19 498.93 C 832.43 492.42 832.48 482.18 833.43 474.95 C 836.24 452.68 839.96 430.56 844.58 408.60 C 847.00 397.71 849.85 386.94 853.14 376.28 C 856.13 366.69 859.55 357.25 862.52 347.66 C 865.59 337.75 868.16 327.66 870.89 317.64 C 878.31 290.36 891.53 243.97 873.42 219.14 C 868.24 212.04 860.77 208.03 852.17 206.79 C 850.47 206.54 848.83 206.47 847.12 206.61 C 829.28 210.54 815.95 220.38 806.09 235.80 C 784.13 270.09 784.77 315.07 789.12 354.15 C 792.82 352.41 798.26 349.47 802.41 350.49 C 803.34 351.63 803.36 352.28 803.19 353.75 C 802.30 361.43 795.79 371.42 795.95 378.80 C 796.19 390.27 816.99 496.27 820.53 502.05 C 820.60 502.16 820.69 502.26 820.77 502.36 C 822.07 502.46 823.00 502.56 824.27 502.19 C 824.26 495.65 823.14 488.96 822.45 482.45 C 820.95 468.30 819.33 454.13 819.47 439.88 Z M 778.23 745.18 L 780.92 753.38 L 781.67 754.15 C 786.89 750.10 813.48 707.02 819.21 698.42 C 840.14 667.49 860.87 636.43 881.40 605.23 C 890.32 591.62 899.95 578.10 908.02 563.98 C 910.23 560.10 911.11 556.41 911.66 552.04 C 912.11 548.55 913.17 543.26 912.16 539.86 C 906.21 546.64 901.40 555.09 896.40 562.63 L 868.37 605.07 C 845.30 639.35 822.73 673.95 800.67 708.89 L 786.26 732.18 C 783.60 736.46 780.56 740.74 778.23 745.18 Z M 775.18 447.27 C 767.74 472.19 759.72 496.92 752.74 521.99 C 763.94 522.24 775.18 522.33 786.38 522.86 C 788.26 522.80 790.15 522.67 792.02 522.79 L 792.11 522.14 C 792.78 516.61 792.02 510.01 792.65 505.46 C 792.79 504.49 793.21 503.48 794.03 502.88 C 797.04 500.69 803.73 502.02 807.33 502.14 C 803.30 494.75 778.54 450.49 775.18 447.27 Z M 783.47 341.40 C 767.38 322.04 747.23 287.26 719.99 284.32 C 719.27 284.24 718.57 284.23 717.84 284.23 C 710.07 284.89 703.05 287.01 697.75 293.16 C 691.33 300.59 688.89 311.63 689.76 321.24 C 690.76 332.23 695.54 342.73 701.00 352.18 C 720.17 352.83 739.37 353.83 758.54 354.11 C 767.23 354.47 775.97 355.06 784.66 355.08 L 783.47 341.40 Z M 492.98 750.18 C 505.97 750.93 519.00 751.00 532.01 751.31 L 603.82 752.93 C 658.95 754.27 714.10 756.31 769.25 757.10 L 777.44 757.30 L 773.58 745.86 C 760.69 745.13 747.57 745.54 734.66 745.53 C 705.39 745.51 676.05 746.01 646.80 745.41 L 549.35 743.22 L 517.83 742.41 C 512.40 742.29 506.77 741.87 501.35 742.26 C 498.21 743.74 495.49 747.72 492.98 750.18 Z M 922.28 293.67 C 901.51 298.65 887.29 317.40 876.63 334.75 C 852.13 374.61 842.41 432.42 837.62 478.56 C 837.09 483.57 834.67 498.19 835.82 502.19 C 835.87 502.37 835.95 502.52 836.02 502.69 C 837.50 502.89 837.54 502.94 838.82 502.19 C 841.02 499.00 841.32 494.91 842.52 491.29 C 844.02 486.73 852.51 463.38 854.99 462.05 L 856.33 462.00 C 857.08 463.12 856.94 463.63 856.68 464.89 C 855.81 469.11 853.50 473.43 851.77 477.37 C 849.69 482.68 843.04 497.50 843.45 502.70 C 844.53 502.76 844.68 502.41 845.44 501.69 C 849.54 497.81 852.79 492.46 856.16 487.92 C 860.85 481.63 865.60 475.39 870.41 469.19 C 881.81 454.47 892.96 439.54 903.84 424.43 C 917.66 405.34 931.77 385.53 941.19 363.80 C 945.93 352.87 949.49 340.75 949.56 328.76 C 949.62 318.85 947.61 307.41 940.47 300.00 C 936.82 296.22 931.59 293.55 926.26 293.45 C 924.94 293.42 923.59 293.56 922.28 293.67 Z M 397.75 754.30 C 398.29 758.84 398.76 763.38 399.76 767.85 C 405.14 768.58 410.66 769.01 415.99 769.87 L 421.92 770.46 C 417.81 767.36 413.65 764.32 410.13 760.53 C 408.73 759.03 405.50 754.12 403.83 753.79 C 403.80 753.78 403.77 753.80 403.74 753.81 L 397.75 754.30 Z M 394.42 529.81 C 400.66 538.35 406.25 547.53 412.74 555.85 L 414.69 549.13 C 416.44 543.31 418.23 537.50 420.06 531.70 C 412.02 531.49 402.19 531.77 394.42 529.81 Z M 470.77 643.52 C 480.72 658.80 491.22 673.71 501.40 688.83 C 507.40 697.73 513.00 707.39 519.68 715.78 C 527.84 704.47 561.00 661.38 559.21 649.14 C 558.95 647.36 557.91 645.52 556.91 644.04 C 555.20 642.93 553.54 641.92 551.69 641.05 C 546.65 642.45 541.63 643.84 537.22 646.76 C 534.72 648.40 526.00 658.45 524.29 658.49 C 523.80 658.50 523.36 658.16 522.89 658.00 C 522.91 654.19 525.97 651.33 528.50 648.83 C 533.89 643.50 539.70 640.71 546.74 638.11 C 538.84 637.05 529.16 637.43 522.02 641.41 C 519.46 642.84 512.23 650.05 509.79 648.02 C 509.53 646.80 509.50 646.25 510.19 645.17 C 513.53 639.95 523.34 635.79 529.06 633.84 C 521.41 631.23 514.86 629.08 507.09 633.08 C 501.95 635.72 499.19 641.70 493.62 643.14 L 492.30 642.39 C 492.02 641.28 492.00 641.21 492.53 640.25 C 495.12 635.57 502.93 630.90 507.39 628.07 C 503.97 627.91 500.65 627.80 497.23 628.14 C 486.46 629.63 478.05 635.65 470.77 643.52 Z M 807.97 494.17 C 809.49 497.02 810.84 500.56 813.52 502.47 C 814.71 502.59 814.57 502.77 815.64 502.05 C 815.22 496.83 813.07 490.94 811.86 485.80 C 809.66 476.11 807.52 466.41 805.45 456.69 C 802.06 441.04 798.90 425.34 795.98 409.59 C 794.76 402.85 793.93 396.04 792.65 389.32 C 786.08 406.25 782.38 425.37 776.46 442.77 C 781.32 448.40 784.91 455.31 788.68 461.70 C 795.07 472.52 801.25 483.56 807.97 494.17 Z M 797.68 506.83 C 795.78 519.24 795.80 532.43 795.01 544.98 C 794.12 559.19 792.44 573.75 792.49 587.96 C 798.70 587.98 841.52 590.08 843.37 589.14 L 843.41 588.55 C 846.01 568.47 846.88 547.82 848.55 527.63 C 849.07 521.36 849.13 514.84 850.06 508.64 C 832.74 507.22 815.08 507.45 797.68 506.83 Z" fill="#020202" fill-rule="nonzero" node-id="26" stroke="none" target-height="648.12604" target-width="894.8426" target-x="61.9084" target-y="202.26099"></path><path d="M 487.53 358.54 C 498.67 358.67 509.85 359.31 521.00 359.61 L 632.19 363.09 C 660.75 363.81 689.31 364.76 717.86 365.95 C 732.48 366.46 747.19 366.65 761.78 367.59 C 763.33 367.69 765.48 367.64 766.72 368.63 C 767.20 370.55 766.62 372.44 766.11 374.30 C 761.79 389.84 756.76 405.22 752.17 420.68 L 728.13 503.12 C 723.29 519.72 718.36 536.28 713.35 552.83 C 710.89 561.15 709.02 570.07 705.83 578.13 C 705.16 578.47 705.17 578.49 704.35 578.74 C 701.08 579.75 651.15 576.70 643.10 576.39 L 504.45 570.95 C 486.90 570.40 469.35 569.70 451.80 568.84 C 445.86 568.55 439.86 568.55 433.93 568.06 C 431.52 567.86 428.69 567.59 426.57 566.41 C 426.30 565.87 426.04 565.37 425.94 564.77 C 425.61 562.97 426.15 560.72 426.64 559.00 C 429.19 550.04 432.45 541.19 435.11 532.24 L 468.46 420.04 C 471.16 410.97 484.06 363.04 487.53 358.54 Z M 702.51 574.50 C 708.24 556.40 713.03 538.05 718.47 519.87 C 733.44 470.72 748.05 421.45 762.30 372.09 C 752.12 371.12 741.83 371.06 731.61 370.74 L 683.33 369.28 L 554.95 364.97 L 512.71 363.82 C 505.25 363.64 497.39 363.96 490.01 363.03 C 486.27 373.93 483.45 385.20 480.11 396.23 L 454.31 482.44 C 449.30 499.18 444.60 516.04 439.49 532.75 C 436.42 542.78 432.31 553.03 430.19 563.28 C 443.16 564.65 456.52 564.61 469.56 565.11 L 547.02 568.12 C 584.34 569.97 621.68 571.46 659.03 572.60 C 673.37 573.10 688.19 574.88 702.51 574.50 Z" fill="#020202" fill-rule="nonzero" node-id="28" stroke="none" target-height="221.215" target-width="341.58902" target-x="425.608" target-y="358.538"></path><path d="M 525.49 393.02 C 537.45 393.80 549.49 393.86 561.47 394.35 L 641.99 397.89 C 651.36 398.33 660.69 399.07 670.04 399.55 C 675.88 399.86 682.10 399.68 687.87 400.56 C 689.24 400.77 690.94 400.91 691.98 401.91 C 692.35 403.40 692.27 404.65 692.08 406.17 C 690.79 415.96 687.93 426.04 685.91 435.76 L 675.52 487.77 C 673.43 497.82 670.71 508.00 668.99 518.09 C 668.64 520.19 669.38 522.32 668.82 524.35 C 667.71 525.37 667.44 525.34 665.93 525.58 C 653.59 523.03 639.84 523.15 627.25 522.28 L 539.74 517.05 C 525.46 516.22 510.65 516.24 496.50 514.20 C 498.91 505.32 500.65 496.18 502.76 487.21 L 515.61 433.12 C 517.23 426.28 523.87 402.37 523.93 397.00 C 523.96 394.96 524.20 394.57 525.49 393.02 Z M 597.47 460.26 C 608.28 469.74 619.54 479.20 629.64 489.42 C 641.38 499.62 653.26 509.72 664.70 520.25 C 669.17 494.65 674.72 469.06 680.01 443.62 C 682.22 432.96 684.96 422.18 686.67 411.44 C 686.88 410.14 687.14 409.57 686.44 408.42 C 665.03 421.41 643.00 433.49 621.40 446.18 C 613.61 450.76 604.70 454.92 597.47 460.26 Z M 593.77 462.68 C 575.84 471.94 558.30 482.14 540.66 491.96 C 530.15 497.81 518.15 503.44 508.42 510.33 C 524.48 512.05 540.87 512.83 557.00 513.69 C 564.22 514.08 571.71 513.97 578.88 514.82 L 634.48 518.27 C 642.26 518.77 650.03 519.66 657.81 520.07 C 636.36 501.06 615.01 481.93 593.77 462.68 Z M 527.81 400.28 C 525.77 409.98 522.94 419.55 520.58 429.18 C 516.38 446.39 512.36 463.65 508.52 480.95 C 506.43 490.13 504.02 499.26 502.22 508.50 C 515.90 500.73 529.50 492.71 543.34 485.21 C 558.89 476.77 575.00 468.50 590.11 459.33 C 568.87 440.22 549.24 419.17 527.81 400.28 Z M 531.63 397.82 C 552.34 417.51 572.77 437.67 594.01 456.77 C 612.83 445.60 632.25 435.32 650.79 423.67 C 656.58 420.36 662.36 416.99 668.23 413.83 C 673.25 411.13 679.16 408.79 683.53 405.12 C 677.01 403.75 669.88 403.81 663.23 403.48 L 632.28 402.05 C 598.79 400.51 565.15 398.37 531.63 397.82 Z" fill="#020202" fill-rule="nonzero" node-id="30" stroke="none" target-height="132.565" target-width="195.84198" target-x="496.505" target-y="393.018"></path><path d="M 832.19 297.31 L 832.61 297.70 C 833.94 301.29 827.70 352.83 827.07 360.70 L 825.20 385.40 C 824.91 389.23 825.06 393.88 824.03 397.53 C 823.62 399.01 823.23 398.99 821.94 399.67 L 820.91 398.57 C 818.47 389.48 828.11 304.90 832.19 297.31 Z" fill="#020202" fill-rule="nonzero" node-id="32" stroke="none" target-height="102.35599" target-width="15.472961" target-x="818.465" target-y="297.311"></path><path d="M 906.13 360.82 C 906.59 361.27 906.88 361.76 907.23 362.30 C 907.24 364.65 906.25 366.67 905.25 368.74 C 899.37 380.85 892.06 392.46 885.76 404.40 C 882.06 411.39 874.29 429.38 869.96 434.59 C 869.91 434.54 869.85 434.50 869.80 434.45 C 869.31 433.95 868.54 433.47 868.59 432.73 C 868.98 426.59 894.10 379.17 898.40 371.83 C 900.55 368.15 902.92 363.68 906.13 360.82 Z" fill="#020202" fill-rule="nonzero" node-id="34" stroke="none" target-height="73.770966" target-width="38.70099" target-x="868.538" target-y="360.81604"></path><path d="M 324.59 398.27 C 326.83 398.51 328.30 398.85 329.84 400.60 C 331.15 402.09 331.25 404.12 331.16 405.98 C 328.40 405.14 326.08 404.66 324.34 402.23 C 323.89 400.62 324.10 399.80 324.59 398.27 Z" fill="#020202" fill-rule="nonzero" node-id="36" stroke="none" target-height="7.7089844" target-width="7.3569946" target-x="323.893" target-y="398.274"></path><path d="M 562.07 657.60 C 596.40 657.88 630.83 659.84 665.15 661.08 C 659.26 671.08 654.60 681.62 649.74 692.15 C 647.57 696.87 645.58 701.81 642.95 706.29 C 631.31 706.12 619.64 705.15 608.00 704.73 L 545.25 703.01 C 542.86 702.99 539.73 703.33 537.44 702.74 C 536.42 702.47 536.38 702.39 535.82 701.46 C 536.08 700.51 536.20 700.04 536.92 699.33 C 537.55 698.70 538.32 698.46 539.19 698.36 C 547.63 697.40 564.65 698.95 573.65 699.35 C 594.33 700.15 615.00 701.06 635.67 702.09 C 638.34 698.05 649.56 676.34 651.03 671.94 L 650.36 670.94 C 645.59 668.54 569.91 667.42 557.87 667.07 C 559.37 663.95 560.75 660.81 562.07 657.60 Z" fill="#fefefe" fill-rule="nonzero" node-id="38" stroke="none" target-height="48.691956" target-width="129.32501" target-x="535.824" target-y="657.6"></path><path d="M 670.25 661.72 L 671.55 662.75 C 672.37 666.66 650.14 710.32 646.44 717.91 C 633.54 716.84 620.30 716.94 607.35 716.42 C 581.85 715.38 556.36 714.20 530.88 712.90 C 530.18 712.83 529.73 712.65 529.08 712.40 C 528.86 710.66 530.45 708.67 531.31 707.21 C 556.52 707.74 581.73 708.53 606.93 709.57 C 619.54 710.06 633.07 711.74 645.61 710.67 C 651.12 702.55 658.41 684.33 663.03 674.69 C 665.12 670.31 667.24 665.54 670.25 661.72 Z" fill="#fefefe" fill-rule="nonzero" node-id="40" stroke="none" target-height="56.195984" target-width="143.50903" target-x="528.858" target-y="661.715"></path><path d="M 595.64 686.16 C 601.65 686.84 607.96 686.50 614.03 686.90 L 608.52 696.47 C 602.44 696.49 596.25 696.09 590.21 695.43 C 591.78 692.25 593.82 689.21 595.64 686.16 Z" fill="#fefefe" fill-rule="nonzero" node-id="42" stroke="none" target-height="10.327026" target-width="23.817993" target-x="590.211" target-y="686.162"></path><path d="M 569.88 685.49 C 576.26 685.51 582.67 685.83 589.04 686.04 L 583.99 695.40 C 577.80 695.30 571.56 694.75 565.38 694.39 C 566.72 691.36 568.37 688.43 569.88 685.49 Z" fill="#fefefe" fill-rule="nonzero" node-id="44" stroke="none" target-height="9.915039" target-width="23.660034" target-x="565.384" target-y="685.485"></path><path d="M 602.86 672.91 L 621.51 673.62 L 616.88 682.51 C 610.39 682.27 603.90 682.11 597.41 682.03 L 602.86 672.91 Z" fill="#fefefe" fill-rule="nonzero" node-id="46" stroke="none" target-height="9.600952" target-width="24.091003" target-x="597.415" target-y="672.913"></path><path d="M 619.79 687.11 C 625.50 687.51 631.21 687.47 636.92 687.96 C 635.43 691.02 634.09 694.44 631.96 697.10 C 626.08 697.08 620.20 696.75 614.33 696.49 L 619.79 687.11 Z" fill="#fefefe" fill-rule="nonzero" node-id="48" stroke="none" target-height="9.995972" target-width="22.58899" target-x="614.331" target-y="687.106"></path><path d="M 547.15 684.53 C 553.03 684.69 558.90 684.95 564.77 685.30 C 563.28 688.41 561.38 691.42 559.66 694.42 C 553.64 694.05 547.62 693.74 541.59 693.48 L 547.15 684.53 Z" fill="#fefefe" fill-rule="nonzero" node-id="50" stroke="none" target-height="9.883972" target-width="23.175964" target-x="541.593" target-y="684.533"></path><path d="M 626.40 673.97 C 632.38 674.14 638.37 674.36 644.35 674.62 L 639.41 683.50 C 633.69 683.46 627.92 682.97 622.21 682.66 L 626.40 673.97 Z" fill="#fefefe" fill-rule="nonzero" node-id="52" stroke="none" target-height="9.529968" target-width="22.140015" target-x="622.207" target-y="673.973"></path><path d="M 579.03 672.56 C 584.87 672.60 590.71 672.65 596.55 672.94 C 594.74 675.90 592.98 678.89 591.29 681.91 C 585.55 681.14 579.34 681.28 573.52 680.98 C 575.28 678.14 577.19 675.36 579.03 672.56 Z" fill="#fefefe" fill-rule="nonzero" node-id="54" stroke="none" target-height="9.349976" target-width="23.023987" target-x="573.523" target-y="672.56"></path><path d="M 555.27 671.46 C 561.15 671.50 567.02 671.81 572.89 672.08 L 566.95 680.60 C 564.22 681.67 553.74 680.52 550.26 680.39 L 555.27 671.46 Z" fill="#fefefe" fill-rule="nonzero" node-id="56" stroke="none" target-height="10.219971" target-width="22.631042" target-x="550.264" target-y="671.455"></path><path d="M 527.75 174.52 L 529.10 174.64 C 529.92 175.57 530.26 176.45 530.70 177.57 C 536.66 193.07 541.29 209.16 546.82 224.82 C 551.36 237.68 557.10 250.59 560.83 263.66 C 561.24 265.09 561.66 266.18 561.05 267.56 C 557.29 270.54 530.41 278.42 523.67 280.72 C 504.81 287.16 485.93 293.92 467.25 300.87 C 456.87 304.73 445.84 309.97 435.12 312.49 C 434.17 312.69 433.69 312.66 432.75 312.55 C 429.78 309.91 403.87 230.71 401.18 220.58 C 426.05 211.13 451.20 202.53 476.17 193.36 C 493.32 187.07 510.30 179.96 527.75 174.52 Z M 425.38 229.29 C 443.54 234.35 461.92 239.03 479.95 244.53 C 484.83 237.58 522.49 183.57 522.61 181.16 L 522.11 181.01 L 437.16 211.90 C 426.78 215.75 416.56 220.11 406.12 223.76 C 412.49 225.75 418.91 227.60 425.38 229.29 Z M 481.62 249.03 C 471.60 262.92 461.60 276.86 451.33 290.58 C 447.13 296.18 442.45 301.50 438.41 307.20 C 455.50 300.24 473.24 293.68 490.81 288.03 C 503.34 283.57 515.81 278.90 528.43 274.70 C 536.25 272.10 544.74 270.14 552.25 266.83 C 536.28 262.72 520.37 258.35 504.36 254.36 C 496.94 252.51 488.84 251.38 481.62 249.03 Z M 556.04 263.20 C 553.94 256.72 528.28 182.34 527.75 181.83 C 520.76 192.30 513.43 202.51 506.34 212.90 C 499.04 223.61 491.99 234.49 484.53 245.10 C 497.29 248.33 510.04 251.83 522.88 254.74 C 533.87 257.74 545.15 259.91 556.04 263.20 Z M 407.83 228.60 C 415.33 254.75 425.40 280.35 434.01 306.17 C 440.71 297.98 446.75 289.23 453.14 280.81 C 461.21 269.98 469.22 259.11 477.17 248.20 C 461.10 242.77 444.33 238.91 427.96 234.46 C 421.30 232.65 414.28 231.08 407.83 228.60 Z" fill="#020202" fill-rule="nonzero" node-id="58" stroke="none" target-height="138.17099" target-width="160.48001" target-x="401.176" target-y="174.522"></path><path d="M 196.30 222.54 C 196.71 222.90 196.51 222.64 196.61 223.48 C 191.68 229.51 173.42 240.36 165.73 246.40 C 155.76 254.22 146.36 263.35 137.47 272.37 C 127.72 282.25 118.30 293.02 110.25 304.33 C 104.34 312.63 99.07 322.74 91.97 329.97 L 91.65 329.69 C 91.61 329.29 91.56 329.07 91.69 328.63 C 93.09 323.93 98.03 317.06 100.73 312.74 C 120.35 281.36 148.80 251.73 180.02 231.78 C 185.22 228.46 190.61 224.95 196.30 222.54 Z" fill="#020202" fill-rule="nonzero" node-id="60" stroke="none" target-height="107.431" target-width="105.15418" target-x="91.5608" target-y="222.539"></path><path d="M 247.88 234.15 L 248.67 234.21 C 248.17 235.71 244.78 236.89 243.37 237.53 C 232.69 242.35 221.82 247.20 211.66 253.06 C 190.16 265.44 170.27 281.94 151.84 298.43 L 151.14 298.11 C 151.44 296.94 151.77 296.06 152.49 295.08 C 156.06 290.18 161.57 285.55 166.13 281.53 C 185.58 264.42 222.18 238.47 247.88 234.15 Z" fill="#020202" fill-rule="nonzero" node-id="62" stroke="none" target-height="64.27699" target-width="97.526" target-x="151.141" target-y="234.152"></path><path d="M 126.86 324.80 L 127.46 325.43 C 127.85 328.54 102.98 369.16 99.28 374.66 C 98.67 373.98 98.40 373.44 98.43 372.49 C 98.62 364.64 120.66 330.76 126.86 324.80 Z" fill="#020202" fill-rule="nonzero" node-id="64" stroke="none" target-height="49.862" target-width="29.448189" target-x="98.40281" target-y="324.802"></path><path d="M 757.80 767.16 L 759.41 767.99 C 759.97 769.01 760.03 769.78 760.09 770.92 C 760.35 775.17 760.97 792.46 759.43 795.69 C 759.20 796.19 758.38 796.89 757.99 797.32 L 756.97 796.54 C 754.86 792.24 755.91 779.94 756.00 774.75 C 756.04 771.83 755.58 769.32 757.80 767.16 Z" fill="#020202" fill-rule="nonzero" node-id="66" stroke="none" target-height="30.15802" target-width="6.109009" target-x="754.856" target-y="767.164"></path></svg>