<?xml version="1.0" standalone="no"?><!DOCTYPE svg PUBLIC "-//W3C//DTD SVG 1.1//EN" "http://www.w3.org/Graphics/SVG/1.1/DTD/svg11.dtd"><svg height="1024" node-id="1" sillyvg="true" template-height="1024" template-width="1024" version="1.1" viewBox="0 0 1024 1024" width="1024" xmlns="http://www.w3.org/2000/svg" xmlns:xlink="http://www.w3.org/1999/xlink"><defs node-id="36"></defs><path d="M 580.07 92.59 C 581.37 92.91 582.57 93.38 583.47 94.41 C 590.63 102.55 586.65 141.15 585.99 153.21 C 590.74 152.50 595.04 152.26 599.67 153.83 C 605.94 155.96 609.08 160.23 612.50 165.53 C 619.27 176.02 624.58 187.90 630.60 198.87 C 640.96 217.72 650.36 237.04 660.13 256.20 C 667.59 270.83 675.61 285.24 682.58 300.11 C 690.53 317.07 697.27 334.56 705.27 351.48 C 709.98 361.44 715.29 371.13 719.97 381.11 C 727.07 396.25 733.52 411.66 741.00 426.62 C 747.37 439.35 754.68 451.60 760.95 464.36 L 833.44 614.40 C 838.80 625.31 843.11 639.62 834.54 650.11 C 830.25 655.37 824.37 659.40 819.11 663.63 C 815.93 666.19 812.87 668.35 811.54 672.34 C 811.47 672.55 811.41 672.76 811.34 672.97 C 818.92 668.91 857.62 645.70 863.17 647.97 C 867.01 649.54 880.80 675.77 882.53 680.85 C 878.98 683.67 874.57 685.64 870.79 688.24 C 857.39 697.41 843.93 705.95 829.79 713.93 C 816.42 721.46 802.64 728.38 789.63 736.50 C 768.32 749.80 747.42 763.79 725.99 776.89 C 719.36 780.94 712.28 784.33 705.46 788.04 C 697.10 792.60 688.89 797.51 680.73 802.42 C 669.00 809.49 658.12 817.93 646.44 825.08 C 634.73 832.25 622.23 837.99 610.56 845.14 C 598.10 852.79 586.29 861.41 573.97 869.27 C 564.66 875.21 554.78 880.23 545.48 886.18 C 525.39 899.04 505.91 912.82 486.26 926.31 C 483.27 928.36 475.84 934.27 472.37 933.62 C 467.05 929.43 460.93 913.97 457.71 907.32 C 456.45 904.91 455.38 902.61 454.49 900.03 C 461.69 888.21 477.02 880.00 488.55 872.80 C 490.84 871.36 494.80 869.50 496.43 867.37 L 495.80 866.79 C 489.82 866.61 467.91 882.28 460.65 885.96 C 452.99 889.84 443.72 892.95 435.24 889.97 C 428.85 887.73 424.91 883.56 421.37 878.03 C 414.72 867.62 409.66 855.74 403.95 844.76 C 385.15 808.68 368.32 771.66 349.91 735.40 C 337.62 711.20 323.50 687.86 311.18 663.68 C 303.87 649.33 297.11 634.65 290.01 620.18 L 237.22 511.73 L 189.98 414.26 C 187.71 409.47 184.82 404.98 182.54 400.18 C 177.77 390.15 176.39 378.49 180.20 368.00 C 179.79 367.79 179.37 367.58 178.97 367.36 C 168.31 361.68 145.79 345.85 142.47 333.90 C 141.88 331.77 141.63 328.20 143.06 326.31 C 145.59 322.96 166.37 311.38 171.40 308.35 C 180.81 302.68 189.80 296.37 199.21 290.73 C 214.08 281.82 229.52 273.54 244.73 265.23 C 254.15 260.08 263.96 255.52 273.56 250.71 C 290.23 242.37 306.93 234.12 323.68 225.95 C 331.74 222.10 340.16 218.91 348.09 214.80 C 355.76 210.82 363.19 206.33 370.77 202.17 L 412.88 179.30 C 456.94 155.01 501.46 131.58 546.42 109.01 C 556.75 103.86 568.91 94.73 580.07 92.59 Z M 482.48 857.62 C 487.25 861.23 492.33 864.48 498.63 863.62 C 500.99 863.29 503.27 862.42 505.39 861.35 C 511.32 858.35 517.02 854.48 522.71 851.03 L 556.68 830.34 C 583.70 814.03 610.53 797.42 637.19 780.53 C 652.13 771.10 666.86 761.34 681.85 751.99 C 696.63 742.78 712.03 734.45 726.70 725.13 C 739.71 716.87 752.29 707.99 765.39 699.85 C 774.52 694.17 784.57 690.07 793.56 684.28 C 798.25 681.26 804.94 677.50 808.22 673.02 C 810.77 669.53 810.32 665.09 809.56 661.08 C 805.46 639.39 790.20 621.95 779.79 603.04 C 771.00 587.05 763.37 570.40 754.65 554.37 C 748.12 542.36 740.58 530.94 733.87 519.02 L 733.31 519.29 L 733.42 519.01 L 733.20 519.00 C 703.23 534.71 674.26 552.16 644.76 568.72 C 630.69 576.62 616.02 583.52 602.05 591.60 C 590.25 598.43 578.98 606.16 567.13 612.93 C 551.51 621.85 535.95 630.99 520.11 639.50 C 503.06 648.67 485.68 657.22 468.95 667.00 C 456.85 674.09 444.78 681.33 433.36 689.50 C 421.80 697.77 411.77 708.89 398.40 714.20 C 408.04 730.62 416.28 747.66 425.61 764.21 C 435.32 781.45 446.14 798.00 456.08 815.09 C 464.18 829.00 471.01 846.19 482.48 857.62 Z M 407.89 507.25 C 398.13 499.54 371.62 478.84 370.27 466.73 C 369.87 463.14 370.91 459.76 373.17 456.95 C 374.98 454.69 377.26 453.26 379.77 451.90 C 375.17 447.26 371.01 443.00 370.97 436.00 C 370.96 432.82 371.72 429.82 372.57 426.78 C 367.69 423.77 362.40 421.40 357.58 418.32 C 345.97 410.89 338.41 399.16 335.31 385.84 C 332.87 375.35 334.97 365.69 340.72 356.69 C 341.97 354.74 343.35 352.86 344.73 350.99 C 336.30 346.40 326.76 343.31 317.57 340.63 C 314.44 339.88 306.39 339.68 304.73 336.99 C 304.66 336.88 304.62 336.74 304.57 336.62 C 305.30 335.87 304.87 336.06 306.00 336.04 C 319.06 335.76 334.87 343.02 346.86 348.00 C 356.77 336.30 354.18 324.82 358.96 311.48 C 361.59 304.12 366.94 297.31 372.00 291.48 C 393.35 266.90 423.52 253.23 455.76 250.63 C 472.53 249.28 488.14 251.84 503.73 258.13 C 505.30 251.50 514.77 210.76 518.63 207.89 C 519.15 207.51 519.52 207.38 520.08 207.14 L 520.91 207.54 C 521.10 208.25 521.24 208.82 521.03 209.55 L 506.64 259.24 C 519.87 266.68 535.53 279.04 539.85 294.33 C 540.18 295.47 540.47 296.63 540.73 297.79 C 539.22 302.81 537.01 306.33 532.26 308.98 C 528.30 311.18 523.89 312.03 519.48 312.78 C 523.10 321.58 526.31 330.52 529.11 339.61 C 530.86 345.25 532.13 351.29 534.53 356.68 C 536.45 351.93 538.55 346.93 543.54 344.68 C 546.84 343.19 550.93 343.29 554.21 344.76 C 560.17 347.43 563.80 354.01 565.88 359.92 C 568.46 367.26 569.33 375.79 570.75 383.43 C 572.40 391.84 574.21 400.22 576.19 408.56 C 597.32 395.29 617.80 381.08 637.62 365.94 C 644.08 360.94 650.79 356.31 656.38 350.31 C 660.43 345.97 664.14 340.70 665.43 334.81 C 666.56 329.70 665.80 324.50 663.90 319.68 C 659.22 307.75 650.14 297.30 644.13 285.90 C 638.21 274.67 634.04 262.49 628.82 250.93 C 625.21 242.93 620.69 235.15 615.80 227.87 C 603.35 209.31 567.15 163.31 550.00 152.06 C 547.29 150.28 544.43 149.12 541.25 148.50 C 538.58 147.98 535.50 147.89 532.78 148.18 C 526.35 148.93 520.51 150.82 514.56 153.32 C 492.18 162.73 469.04 176.64 447.80 188.56 C 436.67 194.82 425.42 200.92 414.41 207.39 C 405.71 212.50 397.22 217.96 388.51 223.05 C 372.33 232.53 355.92 241.78 340.06 251.78 C 318.76 265.28 297.76 279.22 277.05 293.59 C 266.43 300.88 255.46 307.77 245.25 315.64 C 236.44 322.43 228.21 329.77 221.25 338.50 C 215.39 345.86 209.24 355.86 210.32 365.69 C 210.88 370.78 213.31 375.63 215.81 380.04 C 225.13 396.49 237.14 411.59 247.75 427.24 C 257.11 441.05 265.47 455.87 275.61 469.11 C 282.68 478.35 291.35 486.32 298.53 495.55 C 306.80 506.18 313.69 519.26 324.43 527.58 C 332.52 533.84 343.78 539.09 354.25 537.66 C 369.31 535.60 394.99 516.28 407.89 507.25 Z M 813.60 663.95 C 822.07 656.42 835.22 649.79 836.04 637.24 C 836.43 631.34 833.90 624.77 831.59 619.45 C 827.29 609.56 821.84 600.14 817.30 590.35 C 809.33 573.18 801.74 555.87 793.37 538.89 C 787.22 526.42 780.35 514.30 774.30 501.79 C 768.51 489.79 763.47 477.41 757.54 465.47 C 749.98 450.26 741.36 435.61 733.96 420.28 C 728.43 408.82 723.73 397.01 718.28 385.52 C 711.47 371.15 704.03 357.15 697.49 342.63 C 690.71 327.61 684.59 312.28 677.46 297.41 C 666.21 273.94 653.21 251.15 641.54 227.85 C 634.50 213.81 627.18 200.01 619.75 186.18 C 615.44 178.17 611.66 168.65 605.45 161.95 C 602.41 158.68 598.43 156.25 593.88 156.14 C 593.15 156.12 592.42 156.13 591.68 156.17 C 583.45 156.91 576.55 160.72 569.79 165.26 C 580.20 175.98 589.67 187.70 598.95 199.39 C 609.93 213.21 621.20 227.36 629.10 243.24 C 636.09 257.30 640.89 272.39 648.42 286.17 C 656.15 300.32 669.67 313.93 669.37 330.90 C 669.16 343.28 661.56 349.95 653.83 358.30 C 669.03 386.56 683.88 415.01 698.36 443.64 C 703.49 453.72 707.96 464.13 713.37 474.09 L 782.25 600.35 C 790.94 616.10 806.22 635.42 810.78 652.12 C 811.86 656.05 812.80 659.96 813.60 663.95 Z M 474.20 929.50 C 496.01 916.60 516.73 901.25 537.82 887.18 C 549.38 879.47 561.65 873.04 573.40 865.66 C 582.60 859.88 591.24 853.22 600.42 847.39 C 613.34 839.19 627.06 832.56 640.21 824.79 C 652.84 817.33 664.48 808.39 676.98 800.77 C 686.20 795.21 695.52 789.81 704.93 784.58 C 710.68 781.43 716.62 778.55 722.25 775.19 C 743.33 762.59 763.46 748.36 784.38 735.50 C 801.47 725.00 819.29 715.79 836.74 705.93 C 843.17 702.29 849.48 698.51 855.54 694.30 C 862.85 689.23 870.02 683.58 877.91 679.44 C 874.70 673.43 866.03 654.59 862.00 650.61 C 844.63 657.52 827.25 667.31 811.28 677.06 C 804.55 681.17 798.07 685.69 791.28 689.70 C 783.91 694.05 776.08 697.58 768.73 702.00 C 754.24 710.69 740.56 720.50 726.24 729.42 L 630.55 788.86 C 586.17 816.86 540.58 842.95 496.70 871.72 C 489.56 876.40 482.10 880.66 475.10 885.54 C 468.99 889.79 462.80 894.56 458.27 900.53 C 461.79 908.31 467.99 923.23 473.19 929.42 L 474.20 929.50 Z M 410.40 509.39 C 404.29 514.35 397.44 518.53 390.84 522.82 C 377.61 531.43 363.36 542.44 346.68 540.77 C 332.90 539.39 320.84 531.00 312.28 520.47 C 306.61 513.50 291.03 489.26 285.12 485.32 L 328.89 578.90 C 333.14 587.95 336.90 597.22 341.34 606.18 C 358.88 641.62 378.56 676.04 396.87 711.09 C 409.59 705.38 418.62 696.15 429.70 688.02 C 442.99 678.26 462.23 665.91 476.71 658.68 C 483.64 654.84 490.54 650.90 497.60 647.28 C 492.04 629.05 488.18 610.47 483.58 592.00 C 478.54 571.75 472.94 551.65 468.31 531.30 C 447.83 532.80 427.23 519.70 410.40 509.39 Z M 209.43 349.59 C 198.47 354.33 188.19 358.67 183.38 370.54 C 179.63 379.80 181.87 389.27 185.78 398.06 C 188.58 404.36 192.25 410.26 195.19 416.50 C 199.62 425.91 203.71 435.47 208.24 444.85 C 218.10 465.31 228.51 485.48 238.53 505.85 C 245.01 519.00 250.94 532.42 257.30 545.63 C 268.93 569.50 280.71 593.29 292.63 617.02 C 299.81 631.56 306.61 646.30 313.94 660.77 C 326.47 685.51 340.49 709.48 353.17 734.13 C 372.00 770.71 388.89 808.24 407.82 844.80 C 413.18 855.15 417.80 866.19 423.93 876.10 C 426.77 880.69 430.81 884.73 435.92 886.70 C 443.74 889.71 451.48 886.45 458.65 883.33 C 468.90 877.93 478.23 871.25 488.27 865.54 C 482.16 862.77 478.10 858.28 474.21 852.96 C 466.02 841.76 460.29 828.87 453.30 816.93 C 443.23 799.74 432.47 782.94 422.68 765.57 C 417.42 756.25 412.94 746.51 407.85 737.10 L 356.73 642.43 C 350.58 630.79 344.07 619.23 338.31 607.40 C 334.24 599.06 330.80 590.43 326.78 582.08 C 318.29 564.44 309.45 547.10 301.41 529.23 L 286.33 495.82 C 283.75 490.13 281.38 484.07 278.34 478.62 C 275.24 473.04 270.25 468.04 266.59 462.73 C 257.76 449.89 249.71 436.50 240.92 423.63 C 231.04 409.17 214.28 388.61 208.26 372.59 C 205.52 365.29 206.37 359.96 208.76 352.76 C 209.05 351.90 210.05 350.18 209.43 349.59 Z M 181.98 365.00 C 188.51 355.48 193.69 352.51 203.90 348.09 C 206.83 346.82 209.73 345.58 212.24 343.55 C 216.86 339.81 220.18 333.76 224.15 329.30 C 230.09 322.61 237.70 316.80 244.85 311.43 C 255.85 303.14 267.60 295.70 278.94 287.88 C 296.95 275.21 315.24 262.97 333.83 251.16 C 351.18 240.18 369.10 230.16 386.79 219.75 C 394.57 215.17 402.07 210.10 409.85 205.52 C 422.86 197.85 436.20 190.73 449.36 183.32 C 463.26 175.48 477.11 167.85 491.30 160.52 C 502.97 154.50 515.28 147.38 528.33 145.00 C 536.95 143.44 545.95 144.68 553.22 149.79 C 558.31 153.37 562.66 158.23 567.00 162.66 C 572.03 159.10 577.02 156.51 582.84 154.48 C 582.80 144.40 587.01 104.06 581.16 97.44 C 580.07 96.19 579.52 96.46 577.95 96.44 C 567.86 101.47 558.02 106.94 547.99 112.08 C 502.90 135.07 458.14 158.69 413.72 182.95 C 392.92 194.28 372.29 206.04 351.34 217.08 C 341.82 222.09 331.78 226.22 322.08 230.88 C 297.64 242.63 273.07 254.47 249.02 267.00 C 240.26 271.56 231.73 276.59 223.10 281.40 C 215.34 285.73 207.37 289.88 199.80 294.54 C 189.69 300.75 179.99 307.58 169.80 313.73 C 166.63 315.65 147.02 326.70 146.14 329.05 C 145.34 331.19 146.04 333.49 147.04 335.44 C 151.88 344.80 165.72 355.02 174.59 360.40 C 177.01 361.96 179.42 363.68 181.98 365.00 Z M 651.05 360.43 C 627.26 378.98 602.58 396.27 577.03 412.32 C 580.85 438.06 586.55 463.70 586.57 489.81 L 615.19 537.43 C 621.50 548.15 628.56 559.42 632.94 571.09 C 638.42 568.15 643.87 565.13 649.26 562.02 C 666.71 552.04 684.11 541.91 701.69 532.16 C 711.79 526.56 722.11 521.37 732.11 515.61 C 724.71 500.60 715.90 486.29 708.21 471.43 L 662.43 381.99 C 660.42 378.13 653.37 362.63 651.05 360.43 Z" fill="#000000" fill-rule="nonzero" node-id="38" stroke="none" target-height="841.6733" target-width="740.90796" target-x="141.627" target-y="92.592705"></path><path d="M 575.79 314.19 C 580.79 313.56 602.68 313.23 606.07 315.54 L 606.06 316.53 C 603.79 318.39 596.27 316.96 593.25 316.85 C 587.81 316.89 582.31 316.80 576.88 317.05 C 573.23 317.23 569.43 317.90 565.79 317.68 C 564.55 317.60 564.12 317.61 563.09 316.89 C 563.17 316.79 563.25 316.67 563.34 316.57 C 565.86 314.15 572.50 314.40 575.79 314.19 Z" fill="#000000" fill-rule="nonzero" node-id="40" stroke="none" target-height="5.166992" target-width="42.979004" target-x="563.089" target-y="313.228"></path><path d="M 430.09 600.83 C 431.19 601.04 431.11 600.85 431.90 601.77 L 431.63 602.89 C 427.92 607.39 401.24 622.09 394.21 626.34 C 393.05 626.20 393.31 626.24 392.61 625.47 L 392.79 624.44 C 396.31 620.09 423.38 604.67 430.09 600.83 Z" fill="#000000" fill-rule="nonzero" node-id="42" stroke="none" target-height="25.513977" target-width="39.290985" target-x="392.606" target-y="600.827"></path><path d="M 449.98 302.66 C 457.47 303.08 464.96 302.62 472.45 302.89 C 481.37 303.21 489.62 305.13 498.13 307.62 C 498.47 308.07 498.81 308.52 499.14 308.98 C 510.91 325.05 533.21 373.77 536.35 393.47 C 537.46 400.39 536.85 407.85 535.70 414.71 C 532.70 432.64 526.37 442.53 511.79 452.96 C 513.65 456.33 516.06 460.57 518.90 463.18 C 523.28 467.19 527.98 466.70 533.50 466.49 C 534.98 470.59 535.35 474.20 534.47 478.51 C 533.21 484.68 529.61 490.66 524.29 494.14 C 523.96 494.35 523.63 494.56 523.29 494.75 C 522.95 494.95 522.60 495.14 522.25 495.32 C 521.90 495.49 521.55 495.66 521.19 495.83 C 520.83 495.99 520.47 496.14 520.10 496.28 C 519.74 496.42 519.37 496.56 518.99 496.68 C 518.62 496.80 518.24 496.92 517.87 497.02 C 517.49 497.13 517.11 497.22 516.72 497.31 C 516.34 497.39 515.95 497.47 515.57 497.54 C 515.18 497.60 514.79 497.66 514.40 497.70 C 514.01 497.75 513.62 497.79 513.23 497.81 C 512.83 497.84 512.44 497.85 512.05 497.86 C 511.66 497.87 511.26 497.86 510.87 497.85 C 510.48 497.84 510.09 497.81 509.69 497.78 C 509.30 497.74 508.91 497.70 508.52 497.65 C 508.13 497.59 507.75 497.53 507.36 497.46 C 506.97 497.39 506.59 497.30 506.21 497.21 C 498.63 495.41 494.19 490.78 490.27 484.42 C 491.75 479.82 496.67 472.46 495.87 467.79 C 495.65 466.50 495.39 465.97 494.36 465.19 C 493.24 465.39 493.19 465.42 492.40 466.24 C 492.36 467.25 492.36 468.25 492.03 469.22 C 491.36 471.16 485.53 473.54 483.68 474.49 C 476.14 478.40 466.48 481.62 457.90 481.67 C 437.50 481.76 417.24 464.10 403.56 450.56 C 398.20 451.73 391.66 452.67 386.27 451.22 C 380.32 449.63 377.46 445.13 374.55 440.14 C 374.30 430.69 376.29 425.11 381.82 417.42 C 378.92 408.63 375.47 400.06 372.42 391.33 C 374.07 385.64 376.23 380.09 377.86 374.39 C 380.94 363.61 382.86 352.70 384.39 341.61 C 407.01 343.31 431.12 339.62 453.15 334.58 C 458.24 333.42 464.30 332.67 468.54 329.46 C 470.41 328.05 471.95 326.13 472.24 323.74 C 472.47 321.90 471.79 320.15 471.01 318.51 C 466.35 308.73 452.85 306.74 450.34 303.21 C 450.22 303.03 450.10 302.84 449.98 302.66 Z" fill="#fefefe" fill-rule="nonzero" node-id="44" stroke="none" target-height="195.25067" target-width="165.03796" target-x="372.419" target-y="302.616"></path><path d="M 473.26 388.59 C 476.78 388.49 480.48 390.16 483.37 392.06 C 494.83 399.60 502.79 414.32 505.34 427.54 C 506.39 433.00 506.51 439.56 503.12 444.26 C 500.73 447.57 497.93 448.43 494.07 448.99 C 490.93 448.48 488.53 447.75 485.78 446.05 C 474.11 438.86 463.84 422.88 460.77 409.68 C 459.64 404.81 459.15 399.09 462.02 394.72 C 464.73 390.62 468.74 389.50 473.26 388.59 Z" fill="#000000" fill-rule="nonzero" node-id="46" stroke="none" target-height="60.50299" target-width="47.360962" target-x="459.151" target-y="388.49"></path><path d="M 474.41 401.92 C 476.23 402.23 477.78 402.63 479.13 403.98 C 480.22 405.07 480.81 406.39 480.64 407.96 C 480.38 410.20 478.98 411.18 477.29 412.38 C 476.28 411.04 475.23 409.71 474.16 408.41 C 473.06 407.05 472.46 406.22 471.98 404.52 C 472.55 402.98 473.09 402.83 474.41 401.92 Z" fill="#fefefe" fill-rule="nonzero" node-id="48" stroke="none" target-height="10.460999" target-width="8.833984" target-x="471.979" target-y="401.923"></path><path d="M 405.47 352.41 C 407.07 352.53 407.62 352.45 408.96 353.38 C 409.23 354.04 409.44 354.64 409.39 355.37 C 409.07 360.50 403.61 367.10 399.85 370.38 C 399.60 370.40 399.36 370.46 399.11 370.45 C 397.88 370.41 397.70 370.15 397.04 369.25 C 397.03 365.38 403.32 356.21 405.47 352.41 Z" fill="#000000" fill-rule="nonzero" node-id="50" stroke="none" target-height="18.050049" target-width="12.406006" target-x="397.03198" target-y="352.412"></path><path d="M 454.17 354.72 C 455.61 354.82 456.17 354.71 457.26 355.75 C 459.48 357.84 466.57 367.86 466.07 370.98 C 465.63 373.71 462.78 375.27 460.67 376.63 C 459.27 376.32 458.68 376.33 457.63 375.32 C 458.22 373.15 460.86 371.71 462.62 370.41 C 459.98 364.93 455.80 360.75 454.17 354.72 Z" fill="#000000" fill-rule="nonzero" node-id="52" stroke="none" target-height="21.92096" target-width="12.400024" target-x="454.167" target-y="354.709"></path><path d="M 489.63 339.55 C 491.10 339.43 492.88 339.34 494.24 339.98 C 495.03 340.35 494.89 340.61 495.13 341.37 C 494.90 341.93 494.90 342.04 494.47 342.59 C 492.48 345.16 489.31 345.82 486.33 346.43 C 485.02 346.26 483.34 346.07 482.11 345.58 C 480.87 345.09 480.73 344.90 480.31 343.76 C 480.40 343.60 480.48 343.43 480.59 343.28 C 482.41 340.93 486.91 340.24 489.63 339.55 Z" fill="#000000" fill-rule="nonzero" node-id="54" stroke="none" target-height="7.0839844" target-width="14.820007" target-x="480.307" target-y="339.343"></path><path d="M 422.08 378.82 C 423.25 378.93 423.81 379.31 424.77 379.97 C 425.24 381.21 425.38 381.84 424.78 383.09 C 423.46 385.80 420.80 387.44 418.16 388.60 L 415.98 387.95 C 415.11 387.07 415.14 387.11 415.07 385.88 C 416.60 383.13 419.76 381.00 422.08 378.82 Z" fill="#000000" fill-rule="nonzero" node-id="56" stroke="none" target-height="9.774994" target-width="10.317017" target-x="415.06598" target-y="378.823"></path><path d="M 481.10 315.34 C 485.66 315.58 490.36 315.52 494.72 317.00 C 495.67 318.20 495.46 318.34 495.35 319.89 C 492.00 319.82 484.27 319.71 481.59 317.83 C 480.94 317.38 481.14 316.10 481.10 315.34 Z" fill="#000000" fill-rule="nonzero" node-id="58" stroke="none" target-height="4.549011" target-width="14.72702" target-x="480.941" target-y="315.343"></path><path d="M 384.06 429.14 C 384.73 429.33 385.27 429.44 385.85 429.88 C 386.72 430.54 391.75 436.36 392.00 437.29 C 392.16 437.93 392.03 438.61 392.04 439.26 C 389.55 439.08 387.80 437.95 386.21 436.04 C 384.53 434.04 383.76 431.71 384.06 429.14 Z" fill="#000000" fill-rule="nonzero" node-id="60" stroke="none" target-height="10.122986" target-width="8.397003" target-x="383.76398" target-y="429.14"></path><path d="M 662.43 456.40 C 663.54 456.68 663.49 456.67 664.13 457.61 C 662.50 462.54 627.51 480.44 620.84 483.91 L 619.63 483.38 L 619.30 482.27 C 619.80 481.16 620.66 480.68 621.64 480.02 C 626.37 476.88 631.74 474.30 636.69 471.49 C 645.33 466.55 653.91 461.52 662.43 456.40 Z" fill="#000000" fill-rule="nonzero" node-id="62" stroke="none" target-height="27.51001" target-width="44.825012" target-x="619.302" target-y="456.4"></path><path d="M 545.56 347.60 C 546.62 347.47 547.69 347.33 548.76 347.29 C 551.91 347.16 555.11 348.72 557.26 350.96 C 560.17 353.99 562.00 358.53 563.27 362.50 C 566.22 371.72 567.08 381.37 569.04 390.80 C 572.41 407.00 575.44 423.04 578.28 439.33 C 580.89 454.34 583.63 468.91 583.50 484.21 C 581.74 481.49 579.87 478.83 578.05 476.14 L 573.53 469.90 C 574.14 468.73 574.73 467.54 575.29 466.34 C 576.80 463.08 577.41 459.03 576.05 455.61 C 574.93 452.81 572.53 450.82 569.74 449.82 C 563.27 447.49 553.68 449.77 547.62 452.56 C 546.67 434.73 547.26 416.66 544.41 399.00 C 542.70 388.40 536.20 367.49 538.12 357.84 C 539.01 353.33 541.92 350.16 545.56 347.60 Z" fill="#fefefe" fill-rule="nonzero" node-id="64" stroke="none" target-height="137.05206" target-width="47.427002" target-x="536.201" target-y="347.16196"></path><path d="M 385.77 454.42 C 388.85 455.75 391.88 455.69 394.91 457.50 C 402.07 461.80 408.07 468.17 414.32 473.67 C 423.26 481.51 441.89 495.23 453.29 498.02 C 449.28 502.64 444.40 509.80 443.56 515.98 C 443.28 517.98 443.60 520.60 442.72 522.39 L 440.95 522.58 C 431.65 518.66 422.39 513.22 414.05 507.53 C 404.24 500.83 375.16 478.05 373.32 466.34 C 372.91 463.69 373.74 461.05 375.39 458.94 C 377.00 456.89 380.94 454.85 383.49 454.77 C 384.74 454.73 383.70 454.94 385.09 454.60 C 385.32 454.55 385.55 454.48 385.77 454.42 Z" fill="#fefefe" fill-rule="nonzero" node-id="66" stroke="none" target-height="68.16699" target-width="80.379" target-x="372.908" target-y="454.417"></path><path d="M 454.77 253.70 C 462.28 252.72 470.91 253.22 478.34 254.38 C 491.72 256.46 508.28 261.24 518.30 270.88 C 520.37 272.87 522.04 275.36 523.74 277.66 C 518.80 274.29 514.20 270.52 508.83 267.81 C 496.66 261.67 476.16 258.84 462.70 259.25 C 461.81 259.27 460.93 259.30 460.04 259.34 C 459.16 259.38 458.27 259.43 457.39 259.49 C 456.50 259.55 455.62 259.62 454.74 259.70 C 453.85 259.78 452.97 259.87 452.09 259.96 C 451.21 260.06 450.33 260.17 449.45 260.29 C 448.57 260.41 447.70 260.54 446.82 260.68 C 445.94 260.82 445.07 260.97 444.20 261.13 C 443.33 261.29 442.46 261.46 441.59 261.64 C 440.72 261.82 439.85 262.00 438.99 262.20 C 438.12 262.40 437.26 262.61 436.40 262.83 C 435.54 263.05 434.69 263.27 433.83 263.51 C 432.98 263.75 432.13 263.99 431.28 264.25 C 430.43 264.51 429.58 264.77 428.74 265.05 C 427.90 265.32 427.06 265.61 426.22 265.90 C 425.39 266.20 424.56 266.50 423.73 266.81 C 422.90 267.13 422.07 267.45 421.25 267.78 C 420.43 268.12 419.61 268.46 418.79 268.81 C 417.98 269.16 417.17 269.52 416.36 269.88 C 415.56 270.25 414.75 270.63 413.96 271.02 C 413.16 271.41 412.37 271.80 411.58 272.21 C 410.79 272.61 410.00 273.02 409.23 273.45 C 408.44 273.87 407.67 274.30 406.90 274.74 C 406.13 275.18 405.37 275.63 404.61 276.09 C 403.85 276.54 403.09 277.01 402.34 277.48 C 401.59 277.96 400.85 278.44 400.11 278.93 C 399.38 279.42 398.64 279.92 397.92 280.43 C 397.19 280.94 396.47 281.45 395.75 281.98 C 395.04 282.50 394.33 283.03 393.62 283.57 C 392.92 284.11 392.22 284.66 391.53 285.21 C 390.84 285.77 390.16 286.33 389.48 286.90 C 388.80 287.48 388.13 288.06 387.46 288.64 C 386.80 289.23 386.14 289.82 385.49 290.42 C 377.83 297.44 370.79 305.61 366.73 315.27 C 359.92 331.44 363.51 340.88 349.84 355.39 C 345.61 360.23 343.44 366.11 342.67 372.44 C 340.72 388.56 349.21 402.38 358.75 414.55 C 357.13 413.62 355.49 412.65 354.02 411.51 C 345.32 404.75 338.97 392.07 337.72 381.24 C 336.43 370.12 341.22 361.14 347.90 352.67 C 350.61 349.23 353.54 345.83 355.19 341.73 C 356.90 337.50 357.71 332.99 358.50 328.51 C 360.65 316.28 363.04 307.60 371.02 297.77 C 392.56 271.24 420.91 257.09 454.77 253.70 Z" fill="#fefefe" fill-rule="nonzero" node-id="68" stroke="none" target-height="161.83498" target-width="187.30902" target-x="336.43" target-y="252.71602"></path><path d="M 470.06 526.00 C 471.30 526.05 472.57 525.80 473.50 526.78 C 476.49 529.92 478.43 541.35 479.62 545.73 C 486.43 570.72 493.44 595.52 497.32 621.19 C 498.30 627.66 499.50 634.42 499.50 640.98 C 494.75 631.78 490.01 604.13 487.21 593.09 L 474.61 543.58 C 473.17 537.77 471.13 531.85 470.06 526.00 Z" fill="#fefefe" fill-rule="nonzero" node-id="70" stroke="none" target-height="115.17401" target-width="29.449982" target-x="470.055" target-y="525.804"></path><path d="M 542.93 434.53 C 544.66 437.43 543.83 445.42 544.51 449.26 C 540.33 452.19 536.03 454.97 531.78 457.81 L 532.73 463.52 C 528.48 463.55 525.40 463.91 521.82 461.22 C 519.65 458.95 517.98 456.49 516.25 453.89 C 526.91 446.38 530.10 440.19 542.93 434.53 Z" fill="#fefefe" fill-rule="nonzero" node-id="72" stroke="none" target-height="29.381958" target-width="28.403992" target-x="516.252" target-y="434.52704"></path><path d="M 574.04 475.94 C 576.26 478.44 578.00 481.86 579.79 484.72 C 584.73 492.52 589.53 500.42 594.18 508.40 L 614.18 542.25 C 619.58 551.39 627.20 563.20 630.54 573.14 C 630.41 573.09 630.28 573.06 630.16 573.00 C 623.93 569.83 591.16 513.28 585.72 502.51 C 581.45 494.04 577.31 484.84 574.04 475.94 Z" fill="#fefefe" fill-rule="nonzero" node-id="74" stroke="none" target-height="97.19794" target-width="56.502014" target-x="574.036" target-y="475.94104"></path><path d="M 535.88 457.14 C 536.12 457.17 536.36 457.19 536.58 457.25 C 538.36 457.77 539.37 460.05 540.02 461.64 C 542.93 468.71 543.35 476.04 540.36 483.19 C 536.99 491.25 529.75 499.41 521.51 502.62 C 514.78 505.23 506.35 504.69 499.81 501.75 C 492.97 498.67 489.23 493.44 486.62 486.64 C 486.39 485.82 485.81 485.05 485.37 484.31 L 485.67 483.72 C 486.88 483.47 487.12 483.15 488.23 483.77 C 487.98 486.44 488.58 487.69 490.07 489.90 C 490.32 490.26 490.58 490.62 490.84 490.96 C 491.11 491.31 491.38 491.65 491.66 491.99 C 491.94 492.32 492.23 492.65 492.53 492.97 C 492.83 493.29 493.14 493.60 493.45 493.90 C 493.76 494.21 494.09 494.50 494.41 494.79 C 494.74 495.08 495.08 495.36 495.42 495.63 C 495.76 495.90 496.11 496.16 496.47 496.42 C 496.82 496.67 497.18 496.92 497.55 497.15 C 497.92 497.39 498.29 497.62 498.67 497.83 C 499.05 498.05 499.44 498.26 499.83 498.46 C 500.22 498.66 500.61 498.84 501.01 499.02 C 501.41 499.20 501.81 499.37 502.22 499.53 C 502.63 499.69 503.04 499.84 503.45 499.97 C 503.87 500.11 504.28 500.24 504.70 500.36 C 505.13 500.47 505.55 500.58 505.97 500.68 C 506.40 500.77 506.83 500.86 507.26 500.93 C 507.69 501.01 508.12 501.07 508.55 501.13 C 508.98 501.18 509.41 501.22 509.85 501.26 C 510.28 501.29 510.71 501.31 511.15 501.32 C 511.58 501.33 512.01 501.33 512.45 501.32 C 512.88 501.30 513.32 501.28 513.75 501.25 C 514.18 501.21 514.62 501.17 515.05 501.11 C 515.48 501.06 515.91 500.99 516.33 500.91 C 516.76 500.84 517.19 500.75 517.61 500.65 C 518.03 500.55 518.45 500.44 518.87 500.32 C 519.29 500.20 519.70 500.07 520.11 499.93 C 520.52 499.79 520.93 499.63 521.33 499.47 C 521.73 499.31 522.13 499.14 522.53 498.96 C 522.92 498.77 523.31 498.58 523.70 498.38 C 524.08 498.18 524.46 497.97 524.83 497.74 C 525.21 497.52 525.58 497.29 525.94 497.05 C 526.30 496.81 526.66 496.56 527.00 496.31 C 534.54 490.71 540.13 479.40 538.42 469.90 C 537.81 466.54 534.97 461.26 535.66 457.99 C 535.73 457.70 535.81 457.42 535.88 457.14 Z" fill="#fefefe" fill-rule="nonzero" node-id="76" stroke="none" target-height="48.096985" target-width="57.97702" target-x="485.36996" target-y="457.13602"></path><path d="M 399.97 454.53 C 400.75 454.47 401.93 454.28 402.69 454.59 C 403.74 455.02 404.83 456.39 405.63 457.18 C 410.87 462.33 416.20 467.30 422.32 471.40 C 433.79 479.08 441.21 482.30 454.71 484.90 L 450.07 487.01 L 444.22 489.98 C 443.86 489.80 443.49 489.63 443.12 489.44 C 429.33 482.30 418.47 472.04 406.79 462.08 C 405.11 460.65 399.88 457.26 399.24 455.33 L 399.97 454.53 Z" fill="#fefefe" fill-rule="nonzero" node-id="78" stroke="none" target-height="35.693024" target-width="55.468018" target-x="399.244" target-y="454.283"></path><path d="M 489.45 475.12 L 489.76 475.50 C 488.35 478.97 484.47 479.92 483.83 482.54 C 483.77 482.81 483.75 483.08 483.68 483.34 C 483.32 484.71 482.40 485.63 481.20 486.31 C 476.45 489.05 469.97 487.16 465.06 485.86 C 461.94 487.58 458.12 490.15 456.37 493.35 C 456.01 494.02 455.86 494.33 455.29 494.89 C 454.68 495.49 454.89 495.27 453.83 495.26 L 447.83 492.13 C 461.78 484.77 476.52 482.93 489.45 475.12 Z" fill="#fefefe" fill-rule="nonzero" node-id="80" stroke="none" target-height="20.371002" target-width="41.933014" target-x="447.826" target-y="475.121"></path><path d="M 540.15 396.98 C 543.44 405.46 543.45 420.81 543.52 430.20 C 541.17 431.49 538.69 432.61 536.28 433.80 L 533.75 435.34 C 533.40 434.75 534.28 432.81 534.54 432.04 C 538.50 420.31 539.79 409.28 540.15 396.98 Z" fill="#fefefe" fill-rule="nonzero" node-id="82" stroke="none" target-height="38.353027" target-width="10.127014" target-x="533.396" target-y="396.98398"></path><path d="M 449.24 509.88 C 449.29 510.69 449.32 510.35 449.18 511.15 C 448.92 512.57 448.62 513.99 448.71 515.44 C 449.39 526.37 462.50 522.40 466.71 526.87 C 467.30 527.49 467.15 527.22 467.09 528.08 L 465.62 528.83 C 460.73 528.61 453.90 528.03 449.43 525.94 C 447.69 525.12 446.46 524.12 445.90 522.19 C 444.91 518.75 447.64 512.93 449.24 509.88 Z" fill="#fefefe" fill-rule="nonzero" node-id="84" stroke="none" target-height="18.944" target-width="22.390991" target-x="444.909" target-y="509.88498"></path><path d="M 270.82 714.17 C 272.86 714.00 274.16 714.24 275.94 715.17 C 275.18 716.63 272.15 716.96 270.62 717.31 C 255.87 720.67 238.12 724.81 226.82 735.49 C 216.69 745.07 214.53 756.51 214.12 769.88 C 214.36 771.06 214.33 770.81 213.88 771.77 L 212.99 771.77 C 212.26 771.05 211.83 770.44 211.66 769.40 C 209.97 759.10 213.64 746.48 219.87 738.25 C 230.78 723.83 253.65 716.49 270.82 714.17 Z" fill="#000000" fill-rule="nonzero" node-id="86" stroke="none" target-height="57.771057" target-width="65.97099" target-x="209.973" target-y="714.001"></path><path d="M 180.32 519.74 C 193.06 519.66 203.92 524.07 214.64 530.71 C 218.68 533.21 230.95 541.52 231.79 546.02 C 231.99 547.07 232.05 546.64 231.44 547.54 C 229.92 547.24 217.17 536.38 214.29 534.42 C 211.55 532.68 208.69 531.02 205.77 529.57 C 192.85 523.14 179.96 520.89 165.96 525.06 C 163.26 525.87 160.93 527.76 158.30 528.48 C 157.14 528.80 157.03 528.65 156.09 528.03 L 155.89 526.85 C 156.26 526.29 156.25 526.26 156.81 525.72 C 161.65 520.99 173.99 519.98 180.32 519.74 Z" fill="#000000" fill-rule="nonzero" node-id="88" stroke="none" target-height="27.878967" target-width="76.159" target-x="155.888" target-y="519.658"></path><path d="M 826.30 302.22 C 829.38 302.26 832.68 301.95 835.36 303.72 L 835.11 304.36 C 830.04 306.49 823.02 305.88 817.52 306.62 C 808.58 307.81 798.42 309.78 789.94 312.80 C 780.16 316.29 775.11 322.13 770.80 331.30 C 770.35 332.46 769.90 333.79 769.26 334.85 C 768.64 335.89 767.94 336.37 766.76 336.54 C 766.61 336.06 766.54 335.94 766.54 335.37 C 766.55 330.37 770.60 323.47 773.75 319.72 C 776.56 316.38 780.01 313.79 783.91 311.87 C 794.33 306.74 814.59 303.19 826.30 302.22 Z" fill="#000000" fill-rule="nonzero" node-id="90" stroke="none" target-height="34.58499" target-width="68.81799" target-x="766.537" target-y="301.95"></path><path d="M 742.54 122.52 C 743.87 122.42 744.41 122.20 745.58 122.88 L 745.58 123.74 C 742.05 127.12 733.76 129.99 729.17 132.41 C 725.90 134.13 722.75 136.19 719.76 138.34 C 707.16 147.39 697.60 161.32 695.07 176.76 C 694.24 177.10 694.53 177.08 693.74 177.11 C 692.98 177.15 692.92 176.81 692.41 176.31 C 691.57 172.19 694.48 166.05 696.11 162.28 C 704.83 142.09 722.76 130.49 742.54 122.52 Z" fill="#000000" fill-rule="nonzero" node-id="92" stroke="none" target-height="54.948006" target-width="54.00708" target-x="691.573" target-y="122.199"></path><path d="M 291.65 126.08 C 297.05 125.91 302.46 125.77 307.81 126.65 C 323.09 129.16 333.74 138.35 342.53 150.62 C 344.89 153.92 351.88 162.60 351.18 166.85 C 350.28 167.02 349.72 167.00 348.82 166.81 C 341.54 150.73 326.55 133.05 308.39 129.61 C 304.46 128.87 291.77 130.48 289.45 128.22 C 289.99 126.89 290.45 126.82 291.65 126.08 Z" fill="#000000" fill-rule="nonzero" node-id="94" stroke="none" target-height="41.252007" target-width="62.42401" target-x="289.451" target-y="125.77"></path><path d="M 180.16 568.75 C 190.37 567.20 204.14 568.57 214.21 570.49 C 216.54 570.94 219.05 571.40 220.44 573.48 L 220.12 573.96 C 216.00 574.98 209.64 572.65 205.34 572.13 C 201.97 571.73 198.52 571.59 195.12 571.43 C 186.38 571.43 176.91 571.15 168.42 573.53 C 165.15 574.45 162.03 576.16 158.79 577.27 C 157.71 577.10 157.32 577.28 156.57 576.44 C 156.71 576.17 156.81 575.89 156.99 575.64 C 159.95 571.35 175.17 569.14 180.16 568.75 Z" fill="#000000" fill-rule="nonzero" node-id="96" stroke="none" target-height="10.083008" target-width="63.877" target-x="156.568" target-y="567.199"></path><path d="M 293.11 155.16 C 302.44 154.46 313.48 160.15 321.10 165.07 C 326.12 168.31 337.03 175.80 338.33 181.92 L 336.50 181.96 C 332.22 180.11 327.76 174.52 324.11 171.43 C 318.71 166.87 312.47 163.43 305.87 160.88 C 302.12 159.43 295.16 158.61 293.11 155.16 Z" fill="#000000" fill-rule="nonzero" node-id="98" stroke="none" target-height="27.505005" target-width="45.220978" target-x="293.105" target-y="154.455"></path><path d="M 808.63 337.19 C 811.06 336.88 814.67 336.48 816.81 337.90 C 814.63 340.42 801.50 341.48 797.30 342.87 C 792.78 344.36 788.77 346.59 784.77 349.13 C 782.67 350.78 780.86 351.83 778.26 352.52 L 777.81 351.58 C 778.19 350.79 778.56 350.08 779.11 349.39 C 785.13 341.84 799.46 338.18 808.63 337.19 Z" fill="#000000" fill-rule="nonzero" node-id="100" stroke="none" target-height="16.035004" target-width="38.99994" target-x="777.8061" target-y="336.484"></path><path d="M 730.95 157.38 L 731.78 158.15 C 731.89 161.32 727.60 163.56 725.43 165.55 C 719.45 171.02 713.95 177.49 710.16 184.69 C 709.01 186.88 708.27 189.26 707.15 191.49 C 706.60 190.98 706.26 190.45 705.83 189.83 C 705.65 188.49 705.65 187.44 706.03 186.13 C 708.68 176.90 722.66 161.91 730.95 157.38 Z" fill="#000000" fill-rule="nonzero" node-id="102" stroke="none" target-height="34.106003" target-width="26.244995" target-x="705.648" target-y="157.385"></path></svg>