<?xml version="1.0" standalone="no"?><!DOCTYPE svg PUBLIC "-//W3C//DTD SVG 1.1//EN" "http://www.w3.org/Graphics/SVG/1.1/DTD/svg11.dtd"><svg height="1024" node-id="1" sillyvg="true" template-height="1024" template-width="1024" version="1.1" viewBox="0 0 1024 1024" width="1024" xmlns="http://www.w3.org/2000/svg" xmlns:xlink="http://www.w3.org/1999/xlink"><defs node-id="45"></defs><path d="M 440.62 565.33 C 424.90 564.13 408.45 565.08 392.68 565.06 L 287.90 565.12 C 275.22 565.07 253.46 566.32 241.58 564.42 C 235.26 563.41 229.48 560.87 224.57 556.74 C 216.27 549.76 214.08 541.74 213.24 531.29 C 206.86 445.25 201.22 359.16 196.29 273.03 L 192.10 205.50 C 191.49 195.16 190.09 184.45 190.62 174.11 C 191.00 166.53 193.03 158.37 198.20 152.58 C 205.80 144.05 217.66 142.81 228.36 142.28 C 279.14 140.28 329.93 139.16 380.75 138.94 C 455.79 138.08 530.84 137.72 605.90 137.87 L 731.18 138.35 L 768.48 138.68 C 776.62 138.76 784.99 138.53 793.09 139.44 C 798.40 140.03 803.61 141.75 807.55 145.48 C 814.72 152.26 816.89 163.82 818.21 173.15 C 820.66 190.43 820.44 208.40 820.99 225.83 C 821.71 252.58 822.61 279.32 823.68 306.05 L 829.80 457.79 C 830.65 477.83 831.81 497.88 832.41 517.92 C 832.76 529.60 832.30 542.11 823.62 550.99 C 817.53 557.23 808.25 560.74 799.80 562.17 C 789.95 563.83 779.94 563.42 770.00 563.43 L 733.89 563.48 C 687.32 563.48 640.74 563.95 594.18 564.88 C 594.55 570.63 598.12 578.95 595.66 584.31 C 594.14 587.62 591.08 588.58 587.94 589.84 C 588.72 609.39 590.23 628.92 591.36 648.45 L 595.61 725.01 C 596.94 743.92 598.02 762.85 598.87 781.78 C 599.11 787.14 600.36 796.47 599.09 801.44 C 597.01 803.53 596.67 803.93 596.65 806.89 C 597.61 819.87 597.26 833.94 599.76 846.67 C 599.85 847.98 599.96 849.28 599.97 850.59 C 605.62 856.98 613.84 858.03 616.61 867.38 C 616.61 869.00 616.75 871.04 616.28 872.60 C 615.90 873.84 615.13 874.69 613.94 875.19 C 609.91 876.87 563.47 878.27 560.01 876.63 C 559.09 876.19 558.42 874.41 558.14 873.47 C 557.41 871.08 558.05 869.15 559.20 867.01 C 561.85 862.12 557.95 844.73 557.01 838.78 C 550.65 838.27 544.07 837.09 538.19 834.59 C 538.75 828.99 538.47 823.05 538.55 817.42 C 538.67 806.63 538.88 795.85 539.17 785.07 C 539.54 772.87 541.75 760.06 540.74 747.92 C 539.65 734.71 535.53 721.60 534.02 708.36 C 526.66 742.96 520.54 778.12 514.37 812.96 C 512.20 822.69 511.62 832.66 509.63 842.37 C 509.17 847.75 508.44 853.13 508.08 858.50 C 507.75 863.44 509.23 869.98 507.33 874.56 C 504.87 875.62 501.70 875.61 499.05 875.61 C 493.24 875.63 451.23 873.25 448.23 872.02 C 447.44 871.70 446.96 870.62 446.80 869.81 C 446.24 866.96 447.90 863.98 449.57 861.78 C 451.65 859.03 460.90 852.47 461.55 850.74 L 461.38 850.58 C 461.95 849.05 462.63 848.12 463.70 846.89 C 465.12 846.55 466.79 846.54 468.26 846.41 C 468.13 841.42 469.40 804.44 468.87 802.84 C 468.69 802.28 468.25 801.84 467.90 801.37 C 467.42 800.70 466.93 800.27 466.68 799.47 C 465.38 795.43 465.22 776.77 464.94 771.09 C 462.03 708.45 461.24 645.77 462.59 583.08 C 454.41 578.99 447.29 571.51 440.62 565.33 Z M 471.78 850.01 C 482.74 855.35 494.41 853.83 505.61 850.09 C 505.83 848.65 505.92 846.82 506.37 845.46 C 506.66 834.43 509.10 822.86 511.12 812.02 C 511.49 809.47 511.82 806.90 512.30 804.37 C 499.75 807.40 484.82 808.20 472.55 803.52 C 472.04 818.97 470.51 834.53 471.78 850.01 Z M 562.77 852.25 C 573.79 853.47 586.08 855.37 596.49 850.46 C 595.20 836.15 593.96 821.71 593.30 807.37 L 592.80 804.74 L 592.14 804.42 C 585.04 805.35 577.55 806.69 570.38 806.64 C 567.38 806.63 558.15 805.40 556.18 806.89 C 557.99 820.34 559.53 839.76 562.77 852.25 Z M 541.71 832.60 C 545.43 833.51 549.16 834.34 552.92 835.08 C 554.19 835.33 555.06 835.52 556.35 835.25 L 552.75 807.85 C 550.30 794.62 547.68 776.48 543.49 764.10 C 542.93 786.83 540.83 809.88 541.71 832.60 Z M 501.51 409.69 C 501.15 406.84 500.78 403.29 499.36 400.76 C 492.65 398.69 487.53 405.58 481.13 406.86 C 476.87 407.71 472.29 407.48 468.62 404.90 C 464.91 402.30 463.07 398.15 462.37 393.77 C 461.05 385.52 463.71 380.54 468.41 374.10 C 466.25 371.10 464.10 368.09 462.40 364.80 C 458.47 357.21 456.59 348.87 459.42 340.53 C 462.40 331.75 469.03 325.06 477.23 320.95 C 488.44 315.34 498.50 315.15 510.21 319.06 C 519.54 313.04 525.20 305.32 537.51 305.61 C 544.48 305.77 550.87 308.87 555.59 313.94 C 562.56 321.41 565.55 331.85 565.18 341.92 C 564.90 349.77 562.61 356.32 556.76 361.76 L 558.01 366.71 C 558.80 371.87 559.18 376.78 558.90 381.99 C 558.90 382.07 558.91 382.16 558.90 382.24 C 558.74 387.97 556.68 393.85 552.29 397.69 C 547.53 401.86 541.72 402.75 535.64 402.21 C 536.15 408.11 536.34 414.24 536.21 420.16 C 540.53 420.64 544.68 421.53 549.06 421.45 C 572.49 421.04 596.31 409.91 612.45 393.25 C 611.87 387.30 612.57 381.01 612.74 375.02 C 613.11 363.51 613.37 352.00 613.50 340.49 C 613.60 320.42 612.58 300.39 612.01 280.33 C 611.64 267.71 611.71 255.11 611.51 242.49 C 611.39 235.22 609.98 217.41 611.72 211.09 C 613.52 210.09 615.41 209.85 617.44 209.69 C 623.73 209.20 630.25 209.56 636.57 209.64 C 650.16 209.89 663.75 210.28 677.34 210.79 C 694.68 211.40 711.87 211.98 729.16 213.42 C 735.38 213.95 742.00 214.09 748.05 215.62 C 747.72 239.00 744.40 262.88 741.86 286.12 C 738.72 312.91 736.51 339.78 735.23 366.73 C 734.75 376.98 735.61 387.54 736.69 397.74 C 737.17 402.27 738.13 407.08 738.22 411.62 C 738.25 413.00 738.05 413.94 737.44 415.17 C 736.26 416.01 735.08 415.98 733.70 416.07 C 722.65 416.74 711.48 416.49 700.39 416.98 C 681.14 417.83 661.98 419.36 642.75 420.50 L 640.92 424.42 C 637.84 430.61 634.58 436.95 630.50 442.54 C 617.46 460.37 597.08 472.77 576.91 481.03 C 581.67 497.51 585.20 514.11 588.47 530.94 C 590.05 539.05 592.01 547.43 592.73 555.65 C 593.16 556.86 593.10 557.52 594.27 558.17 C 637.16 558.40 680.08 557.51 722.96 557.23 L 764.80 557.04 C 774.41 557.04 784.18 557.42 793.74 556.35 C 801.01 555.54 808.59 554.02 814.65 549.68 C 821.07 545.08 823.75 539.02 824.98 531.48 C 827.49 515.98 824.97 493.23 824.19 477.12 C 823.00 452.39 821.94 427.65 821.01 402.90 L 815.31 260.17 L 813.49 212.62 C 813.05 201.59 812.81 190.51 811.69 179.53 C 810.77 170.56 809.63 159.44 803.95 152.03 C 800.44 147.44 795.69 146.20 790.24 145.50 C 769.43 142.83 744.68 144.11 723.34 143.78 C 668.36 143.07 613.37 142.96 558.39 143.47 C 481.69 143.46 405.00 144.11 328.31 145.42 C 304.47 145.89 280.62 146.54 256.79 147.38 C 245.52 147.81 233.99 147.84 222.78 148.96 C 217.69 149.47 211.51 150.52 207.46 153.83 C 201.02 159.08 198.19 167.23 197.56 175.26 C 196.47 189.21 198.83 207.31 199.66 221.58 L 206.13 323.62 L 215.06 460.02 L 218.12 504.32 C 218.77 513.92 219.00 523.76 220.33 533.29 C 221.14 539.09 222.75 544.03 226.71 548.54 C 227.29 549.21 227.90 549.85 228.53 550.47 C 229.17 551.09 229.83 551.68 230.51 552.24 C 231.19 552.80 231.90 553.33 232.63 553.83 C 233.36 554.34 234.11 554.81 234.87 555.25 C 235.64 555.69 236.42 556.09 237.23 556.47 C 238.03 556.84 238.85 557.18 239.68 557.48 C 240.51 557.79 241.35 558.06 242.20 558.29 C 243.05 558.52 243.92 558.72 244.79 558.88 C 255.84 561.01 282.06 559.29 294.74 559.23 L 384.83 559.15 C 401.90 559.16 419.37 558.45 436.40 559.54 C 433.46 555.59 430.72 551.43 428.56 547.00 C 422.67 534.92 422.99 521.50 427.37 508.96 C 438.51 477.06 471.79 438.44 502.47 423.84 C 502.30 419.11 501.90 414.41 501.51 409.69 Z M 549.38 424.64 C 542.17 434.39 529.97 439.45 518.21 441.16 C 508.04 442.65 497.25 441.84 488.33 436.37 C 463.74 454.35 432.16 490.39 427.49 521.08 C 425.36 535.06 430.70 546.86 438.98 557.89 C 443.66 564.12 449.22 569.15 455.35 573.89 C 457.46 575.52 460.19 577.09 462.05 578.94 C 462.97 578.28 462.87 578.14 463.26 577.13 C 464.02 567.81 473.98 495.48 476.90 491.73 L 478.00 492.05 C 478.67 493.34 478.57 494.63 478.43 496.05 C 476.99 509.81 473.96 523.67 471.70 537.32 C 469.41 551.16 467.78 565.06 465.80 578.94 C 465.76 580.35 465.54 580.83 466.55 581.90 C 468.12 583.57 471.12 584.14 473.21 585.00 C 493.93 593.45 519.27 594.05 541.46 594.03 C 556.30 594.01 570.68 592.28 584.69 587.19 C 586.88 586.39 590.79 585.30 592.16 583.38 C 594.08 580.68 590.69 563.38 590.13 559.18 C 587.90 546.95 586.17 534.65 583.67 522.47 C 581.94 514.00 580.11 505.47 578.00 497.08 C 576.59 491.48 574.72 485.91 573.49 480.28 C 573.21 478.98 573.01 477.80 573.40 476.51 L 574.18 475.97 C 574.95 476.40 575.70 476.83 576.45 477.29 C 581.10 476.24 585.36 473.78 589.56 471.58 C 605.89 463.02 620.35 451.99 630.70 436.55 C 629.75 425.44 624.45 415.55 615.94 408.36 C 613.32 406.15 610.53 404.50 607.50 402.90 C 588.80 416.30 572.64 423.16 549.38 424.64 Z M 665.89 352.38 L 666.72 350.50 C 666.12 349.15 665.20 349.02 663.87 348.54 C 660.24 347.20 656.24 346.77 653.70 343.59 C 653.72 342.57 653.66 342.33 654.41 341.56 C 656.53 339.38 662.95 336.28 666.01 336.41 C 667.00 336.46 666.62 336.40 667.57 337.01 C 667.59 338.09 667.62 338.40 666.75 339.23 C 664.95 340.94 660.84 341.09 659.60 343.14 C 661.27 345.33 665.09 345.39 667.62 345.73 L 668.88 345.89 C 670.43 344.02 672.58 338.39 672.33 335.92 C 672.24 334.93 671.93 334.45 671.37 333.67 C 668.33 331.90 662.85 333.48 659.51 334.32 C 656.60 335.05 654.59 336.83 653.14 339.42 C 650.56 344.05 648.93 349.13 646.21 353.72 C 639.32 365.36 619.56 391.73 609.69 400.71 C 610.31 401.01 610.93 401.32 611.54 401.65 C 612.15 401.99 612.75 402.33 613.35 402.69 C 613.94 403.06 614.52 403.43 615.10 403.82 C 615.67 404.21 616.23 404.62 616.79 405.03 C 617.34 405.45 617.89 405.88 618.42 406.33 C 618.95 406.77 619.47 407.23 619.99 407.70 C 620.50 408.17 620.99 408.65 621.48 409.15 C 621.97 409.64 622.44 410.15 622.90 410.67 C 623.37 411.18 623.81 411.71 624.25 412.25 C 624.69 412.79 625.11 413.34 625.52 413.91 C 625.93 414.47 626.32 415.04 626.70 415.62 C 627.08 416.20 627.45 416.79 627.80 417.39 C 628.15 417.99 628.49 418.59 628.81 419.21 C 629.13 419.82 629.44 420.45 629.73 421.08 C 630.02 421.71 630.30 422.34 630.56 422.99 C 630.82 423.63 631.06 424.28 631.29 424.94 C 632.18 427.49 632.70 430.22 633.21 432.86 C 635.17 429.15 637.05 425.44 638.75 421.60 C 642.79 412.05 646.68 402.36 649.88 392.49 C 652.75 383.61 655.05 374.31 658.73 365.74 C 660.71 361.12 663.42 356.74 665.89 352.38 Z M 490.97 434.73 C 497.11 437.59 503.34 439.23 510.16 438.86 C 522.57 437.68 536.52 434.23 545.48 424.92 C 539.75 423.65 532.13 422.20 526.30 423.22 C 512.33 424.10 502.28 425.81 490.97 434.73 Z M 494.12 865.32 L 503.88 865.02 C 504.28 861.25 504.76 857.49 505.32 853.75 C 495.48 857.45 481.77 858.33 472.06 853.70 C 470.59 853.00 469.93 852.30 468.80 851.21 C 468.54 850.95 468.02 850.59 467.71 850.35 C 462.36 854.87 456.64 859.27 451.88 864.41 C 465.95 865.20 480.03 865.50 494.12 865.32 Z M 668.18 302.35 C 676.85 301.24 684.71 297.69 690.19 290.67 C 694.14 285.62 696.52 279.22 695.72 272.77 C 695.68 272.42 695.63 272.07 695.58 271.71 C 695.52 271.36 695.45 271.01 695.38 270.67 C 695.30 270.32 695.21 269.97 695.12 269.63 C 695.03 269.29 694.92 268.95 694.81 268.61 C 694.70 268.27 694.58 267.94 694.45 267.60 C 694.33 267.27 694.19 266.94 694.04 266.62 C 693.90 266.29 693.74 265.97 693.58 265.65 C 693.42 265.34 693.25 265.02 693.07 264.72 C 692.90 264.41 692.71 264.10 692.52 263.81 C 692.33 263.51 692.12 263.21 691.92 262.92 C 691.71 262.63 691.49 262.35 691.27 262.07 C 691.05 261.80 690.82 261.52 690.58 261.26 C 690.35 260.99 690.10 260.73 689.85 260.48 C 689.60 260.22 689.35 259.98 689.08 259.74 C 688.82 259.50 688.55 259.26 688.28 259.04 C 688.01 258.81 687.73 258.59 687.44 258.38 C 683.48 255.48 678.66 254.27 673.81 254.16 C 664.76 255.37 656.23 258.17 650.54 265.83 C 646.70 271.00 645.32 277.06 646.48 283.38 C 647.61 289.52 650.83 295.35 656.18 298.76 C 659.83 301.08 663.91 302.05 668.18 302.35 Z M 520.99 622.13 C 520.62 629.80 522.13 638.17 523.29 645.74 C 526.22 664.79 530.43 683.53 534.76 702.29 C 535.59 702.92 536.14 702.97 537.16 703.08 C 535.95 693.36 532.95 683.69 530.88 674.12 C 528.39 662.64 526.63 650.96 524.98 639.34 C 524.68 637.27 523.28 623.70 522.49 622.89 C 522.35 622.75 522.22 622.59 522.04 622.48 C 521.79 622.32 521.29 622.21 520.99 622.13 Z M 563.95 866.33 L 576.84 866.93 C 588.58 867.04 600.61 867.83 612.19 865.60 C 609.65 862.69 600.77 854.42 597.33 853.98 C 589.09 857.38 571.33 858.43 563.15 855.60 C 562.97 859.05 563.29 862.93 563.95 866.33 Z M 556.10 377.25 C 555.80 373.29 554.99 369.44 554.21 365.55 C 553.59 364.09 553.62 363.64 552.05 363.06 C 550.07 362.33 546.85 362.48 544.70 362.34 C 546.99 371.51 547.28 380.50 542.36 388.94 C 540.54 392.06 537.91 394.74 534.94 396.78 C 535.01 397.63 535.21 397.91 535.64 398.63 C 536.22 398.89 536.78 399.15 537.42 399.27 C 541.21 399.94 546.67 398.00 549.57 395.57 C 555.00 391.03 555.60 383.82 556.10 377.25 Z M 504.87 415.29 C 504.97 417.87 505.19 420.45 505.41 423.02 C 514.68 420.69 523.74 420.01 533.24 419.68 L 531.94 397.93 L 530.26 398.28 C 529.68 399.24 529.47 400.05 529.19 401.11 C 528.32 404.37 525.92 407.81 522.91 409.47 C 516.51 413.00 506.43 409.51 504.86 412.09 L 504.87 415.29 Z M 614.00 212.49 C 613.84 254.58 616.36 296.56 616.69 338.63 C 617.82 346.39 616.20 381.78 615.00 390.02 C 621.57 382.37 627.80 374.45 633.68 366.26 C 632.28 366.13 630.54 366.16 629.28 365.49 C 628.45 365.05 628.76 365.30 628.42 364.21 C 630.24 362.68 633.73 363.78 635.92 362.61 C 640.41 360.21 646.57 346.34 648.57 341.75 C 646.13 342.13 643.50 342.72 641.03 342.67 C 639.70 342.64 638.08 342.56 637.13 341.59 C 637.22 341.48 637.29 341.36 637.39 341.27 C 639.77 338.93 645.86 339.19 649.00 339.09 L 649.29 338.62 C 652.79 333.08 657.89 331.48 663.95 330.12 C 664.06 322.08 665.03 313.94 665.59 305.90 C 658.79 304.26 652.94 302.15 648.63 296.23 C 644.25 290.21 641.96 281.70 643.25 274.36 C 643.32 273.93 643.41 273.51 643.51 273.08 C 643.61 272.66 643.71 272.24 643.83 271.82 C 643.95 271.40 644.08 270.99 644.23 270.57 C 644.37 270.16 644.52 269.75 644.68 269.35 C 644.84 268.95 645.01 268.55 645.19 268.15 C 645.38 267.76 645.57 267.37 645.77 266.98 C 645.97 266.59 646.18 266.21 646.40 265.84 C 646.63 265.46 646.86 265.09 647.10 264.73 C 647.34 264.37 647.59 264.01 647.85 263.66 C 648.10 263.31 648.37 262.97 648.65 262.63 C 648.92 262.29 649.21 261.96 649.50 261.64 C 649.79 261.32 650.09 261.01 650.40 260.70 C 650.71 260.39 651.03 260.09 651.35 259.80 C 651.67 259.51 652.00 259.23 652.34 258.95 C 652.68 258.68 653.03 258.42 653.38 258.16 C 653.73 257.90 654.09 257.65 654.45 257.42 C 661.96 252.44 671.88 249.86 680.79 251.83 C 686.95 253.19 691.67 256.86 695.07 262.10 C 698.60 267.55 700.14 274.31 698.63 280.67 C 697.33 286.20 692.95 294.86 687.98 297.94 C 690.57 299.37 693.53 302.06 694.24 305.06 C 694.46 305.98 694.43 306.55 694.26 307.45 C 691.54 306.41 689.15 303.91 688.02 301.23 C 687.47 299.92 687.63 299.27 687.98 297.94 C 682.63 302.27 675.63 304.60 668.91 305.68 L 666.80 329.70 C 668.91 329.25 671.30 328.43 673.29 329.68 C 674.72 330.58 675.16 332.17 675.35 333.74 C 675.52 335.13 675.44 336.56 675.39 337.96 L 695.40 338.02 C 700.01 337.98 706.38 337.23 710.62 339.12 C 710.25 339.85 710.52 339.61 709.62 339.93 C 706.31 341.09 701.18 340.58 697.68 340.54 C 690.08 340.68 682.30 341.04 674.74 340.27 C 673.55 347.64 668.58 355.74 664.54 361.98 C 675.47 361.76 686.56 361.38 697.49 361.72 C 701.27 361.61 705.74 361.19 709.40 362.39 L 709.74 363.48 C 705.52 364.72 701.49 364.56 697.13 364.50 L 662.89 364.99 C 658.55 373.96 656.15 384.29 653.07 393.76 C 650.50 401.64 647.16 409.33 644.04 417.01 C 653.44 417.06 663.09 416.05 672.50 415.53 C 693.39 414.37 714.34 413.15 735.27 413.26 C 734.26 401.77 732.36 390.48 732.07 378.91 C 731.21 343.91 736.51 308.63 739.98 273.88 C 741.08 263.03 742.11 252.16 743.06 241.29 C 743.70 233.64 744.03 225.88 745.11 218.29 C 721.04 215.51 696.67 214.39 672.47 213.58 C 653.02 212.94 633.46 212.36 614.00 212.49 Z" fill="#191818" fill-rule="nonzero" node-id="47" stroke="none" target-height="740.5447" target-width="642.67194" target-x="190.089" target-y="137.72333"></path><path d="M 593.30 807.37 C 593.53 806.78 593.35 807.14 594.00 806.39 L 596.65 806.89 C 597.61 819.87 597.26 833.94 599.76 846.67 C 599.85 847.98 599.96 849.28 599.97 850.59 C 605.62 856.98 613.84 858.03 616.61 867.38 C 616.18 868.51 616.07 869.48 615.06 870.20 C 614.41 869.15 614.62 869.67 614.35 868.66 L 615.05 868.86 C 617.12 858.57 602.07 858.13 599.83 850.75 C 596.64 840.20 598.24 813.36 595.09 807.18 C 592.49 809.54 597.91 844.25 596.71 850.54 C 596.07 851.18 595.53 851.69 594.71 852.08 C 587.65 855.50 578.81 854.42 571.28 853.94 C 568.92 853.79 566.04 853.95 563.84 853.04 C 558.88 850.99 560.97 840.20 558.98 835.67 C 557.16 835.04 555.52 836.75 553.30 836.39 L 552.92 835.08 C 554.19 835.33 555.06 835.52 556.35 835.25 L 552.75 807.85 C 553.80 807.41 555.08 807.20 556.18 806.89 C 557.99 820.34 559.53 839.76 562.77 852.25 C 573.79 853.47 586.08 855.37 596.49 850.46 C 595.20 836.15 593.96 821.71 593.30 807.37 Z" fill="#000000" fill-rule="nonzero" node-id="49" stroke="none" target-height="63.801025" target-width="64.36597" target-x="552.749" target-y="806.395"></path><path d="M 511.12 812.02 L 514.37 812.96 C 512.20 822.69 511.62 832.66 509.63 842.37 C 508.81 843.42 507.81 845.17 506.58 845.59 L 506.37 845.46 C 506.66 834.43 509.10 822.86 511.12 812.02 Z" fill="#000000" fill-rule="nonzero" node-id="51" stroke="none" target-height="33.56494" target-width="8.007019" target-x="506.367" target-y="812.02203"></path><path d="M 289.39 356.94 C 296.47 358.34 304.83 360.16 311.12 363.75 C 319.93 366.40 329.64 369.64 337.85 373.81 C 333.82 386.04 328.83 397.88 324.26 409.91 C 322.01 415.84 320.30 422.34 317.58 428.05 C 316.92 429.45 316.82 429.88 315.50 430.65 C 313.56 430.70 311.88 430.33 310.04 429.73 C 304.35 427.86 269.11 413.35 266.29 410.96 C 266.15 410.84 266.02 410.69 265.88 410.56 C 266.10 405.92 280.92 371.81 284.19 365.67 C 285.44 362.23 286.81 359.59 289.39 356.94 Z M 288.34 364.19 C 282.04 379.21 275.35 394.08 268.93 409.04 L 298.59 421.70 C 303.66 423.86 309.00 426.63 314.30 428.04 C 317.77 419.51 320.59 410.69 323.85 402.06 C 327.17 393.27 330.98 384.51 333.98 375.62 C 326.98 372.62 319.17 370.66 312.43 367.32 C 305.22 365.14 298.13 362.43 290.92 360.18 L 288.34 364.19 Z" fill="#000000" fill-rule="nonzero" node-id="53" stroke="none" target-height="73.75601" target-width="71.965" target-x="265.881" target-y="356.944"></path><path d="M 290.53 377.68 C 293.34 378.14 317.79 386.09 319.92 387.44 C 321.21 388.25 321.15 388.54 321.40 389.93 C 314.88 390.35 297.20 383.87 290.94 380.87 C 290.19 379.67 290.46 379.04 290.53 377.68 Z" fill="#000000" fill-rule="nonzero" node-id="55" stroke="none" target-height="12.676971" target-width="31.21399" target-x="290.191" target-y="377.676"></path><path d="M 289.39 356.94 C 296.47 358.34 304.83 360.16 311.12 363.75 C 311.47 364.83 311.93 365.43 312.66 366.29 L 312.43 367.32 C 305.22 365.14 298.13 362.43 290.92 360.18 L 288.34 364.19 L 287.90 363.38 C 288.70 361.35 289.87 360.28 291.44 358.81 L 291.42 358.12 C 290.27 358.06 289.77 358.20 288.93 359.05 C 286.99 361.05 286.40 364.02 284.19 365.67 C 285.44 362.23 286.81 359.59 289.39 356.94 Z" fill="#191818" fill-rule="nonzero" node-id="57" stroke="none" target-height="10.378998" target-width="28.475983" target-x="284.187" target-y="356.944"></path><path d="M 700.83 443.89 C 716.78 441.79 733.91 442.99 749.96 443.57 C 751.66 443.95 753.39 444.28 755.07 444.74 C 754.75 450.40 754.46 456.06 754.20 461.72 C 753.76 469.00 754.69 497.59 752.40 502.25 C 747.39 504.26 707.40 503.72 701.10 502.24 C 700.25 495.58 700.54 488.63 700.53 481.92 C 700.52 469.24 700.62 456.57 700.83 443.89 Z M 703.50 499.93 C 711.87 500.28 720.26 500.05 728.64 500.06 C 735.67 500.06 742.75 500.31 749.77 500.06 L 751.60 454.55 C 751.83 452.02 751.80 449.48 751.81 446.94 C 749.11 446.51 746.38 446.30 743.65 446.13 C 730.32 445.93 717.13 445.96 703.81 446.65 C 703.52 457.23 703.14 467.83 703.16 478.41 C 703.17 485.58 703.64 492.76 703.50 499.93 Z" fill="#000000" fill-rule="nonzero" node-id="59" stroke="none" target-height="62.46701" target-width="54.817993" target-x="700.249" target-y="441.792"></path><path d="M 749.96 443.57 C 751.66 443.95 753.39 444.28 755.07 444.74 C 754.75 450.40 754.46 456.06 754.20 461.72 C 754.00 458.55 753.39 457.20 751.60 454.55 C 751.83 452.02 751.80 449.48 751.81 446.94 C 749.11 446.51 746.38 446.30 743.65 446.13 C 745.16 445.81 747.02 445.95 748.57 445.91 C 749.79 445.11 749.63 445.02 749.96 443.57 Z" fill="#191818" fill-rule="nonzero" node-id="61" stroke="none" target-height="18.152954" target-width="11.415039" target-x="743.652" target-y="443.569"></path><path d="M 370.96 225.35 C 369.90 218.15 367.94 196.30 370.03 190.18 C 374.21 187.92 416.89 186.51 422.44 188.15 C 422.94 188.30 423.08 188.42 423.47 188.67 C 425.90 196.27 424.27 237.65 422.08 246.17 C 416.96 248.70 380.24 247.78 372.49 247.41 C 371.78 242.85 371.54 238.24 371.24 233.63 C 371.02 231.19 371.04 228.70 370.98 226.25 L 370.96 225.35 Z M 373.53 220.09 L 373.72 223.75 C 373.82 225.52 373.99 227.31 373.91 229.09 C 374.35 234.21 374.85 239.34 375.06 244.48 C 381.65 244.52 415.52 245.22 419.25 243.68 C 419.49 242.83 419.76 241.97 419.95 241.11 C 418.94 237.85 420.44 229.31 420.68 225.56 C 421.38 214.10 421.46 202.27 421.01 190.80 C 415.35 190.48 409.54 190.88 403.86 191.03 C 393.41 191.27 382.96 191.63 372.51 192.10 C 372.35 201.45 372.69 210.78 373.53 220.09 Z" fill="#000000" fill-rule="nonzero" node-id="63" stroke="none" target-height="62.186005" target-width="57.96399" target-x="367.937" target-y="186.512"></path><path d="M 404.89 201.84 C 405.87 202.07 405.84 202.15 406.53 202.79 L 406.53 203.93 C 404.18 207.79 389.43 216.10 384.88 218.88 C 384.09 218.19 384.06 218.12 383.79 217.11 C 385.80 213.45 400.68 204.18 404.89 201.84 Z" fill="#000000" fill-rule="nonzero" node-id="65" stroke="none" target-height="17.033997" target-width="22.745972" target-x="383.788" target-y="201.841"></path><path d="M 410.80 217.52 C 411.63 218.39 411.68 218.38 411.77 219.57 C 409.25 223.25 394.91 230.73 390.35 232.91 C 389.98 232.42 389.62 231.94 389.20 231.48 C 389.10 231.37 389.00 231.26 388.89 231.15 C 390.93 228.00 406.67 219.62 410.80 217.52 Z" fill="#000000" fill-rule="nonzero" node-id="67" stroke="none" target-height="15.394989" target-width="22.875977" target-x="388.894" target-y="217.51501"></path><path d="M 373.72 223.75 C 373.82 225.52 373.99 227.31 373.91 229.09 L 373.63 229.69 C 373.38 230.26 373.19 230.87 372.97 231.45 C 372.54 232.58 372.13 232.89 371.24 233.63 C 371.02 231.19 371.04 228.70 370.98 226.25 L 373.72 223.75 Z" fill="#191818" fill-rule="nonzero" node-id="69" stroke="none" target-height="9.886993" target-width="3.0090027" target-x="370.978" target-y="223.748"></path><path d="M 380.14 453.74 C 386.47 453.70 392.80 453.70 399.13 453.75 C 399.03 459.60 399.68 506.45 397.30 508.62 C 394.04 511.57 373.78 511.48 368.62 511.44 C 361.56 511.15 354.54 511.05 347.48 510.53 C 347.62 491.85 346.39 473.22 347.08 454.50 C 358.01 453.64 369.17 453.86 380.14 453.74 Z M 349.95 457.62 C 349.00 467.02 349.50 476.77 349.70 486.21 C 349.85 493.23 349.66 500.46 350.60 507.44 C 351.54 508.32 351.95 508.09 353.20 508.18 C 367.19 508.71 381.55 508.68 395.46 506.96 C 395.68 501.77 397.23 459.11 395.45 456.99 C 394.46 456.91 393.47 456.81 392.47 456.75 C 378.30 456.92 364.13 457.20 349.95 457.62 Z" fill="#000000" fill-rule="nonzero" node-id="71" stroke="none" target-height="57.929016" target-width="53.289" target-x="346.395" target-y="453.643"></path><path d="M 354.99 462.14 C 365.63 462.10 376.69 461.60 387.29 462.34 C 388.80 462.45 390.17 462.37 391.20 463.52 L 390.39 464.66 C 385.03 465.43 361.00 465.88 356.26 464.69 C 355.12 464.40 354.94 464.23 354.35 463.31 L 354.99 462.14 Z" fill="#000000" fill-rule="nonzero" node-id="73" stroke="none" target-height="4.279999" target-width="36.85901" target-x="354.345" target-y="461.604"></path><path d="M 407.53 285.21 C 412.15 285.11 417.16 285.03 421.76 285.56 C 422.66 285.67 424.66 285.85 425.16 286.69 C 428.00 291.42 426.78 329.58 425.69 337.68 C 415.41 339.21 404.50 338.98 394.12 338.99 C 388.28 339.01 380.37 339.86 374.84 338.25 C 374.74 338.06 374.64 337.89 374.56 337.70 C 372.30 332.26 372.29 293.02 374.31 287.22 C 378.64 284.90 400.95 285.60 407.53 285.21 Z M 400.88 336.12 C 408.35 336.05 415.75 335.49 423.20 334.89 C 424.02 319.44 423.61 304.37 422.90 288.94 C 414.79 288.15 406.87 288.62 398.76 288.73 C 394.87 288.80 379.28 288.21 377.02 290.06 C 375.84 295.64 375.31 332.10 377.42 335.00 C 378.31 336.22 383.60 336.22 385.17 336.25 C 390.39 336.34 395.65 336.25 400.88 336.12 Z" fill="#191818" fill-rule="nonzero" node-id="75" stroke="none" target-height="54.958008" target-width="55.710968" target-x="372.29303" target-y="284.897"></path><path d="M 507.23 202.90 C 507.54 202.95 507.85 202.97 508.14 203.05 C 511.64 204.05 535.47 238.84 538.04 243.86 C 533.86 247.48 528.91 250.57 524.42 253.79 C 515.32 260.40 506.11 266.84 496.78 273.12 L 495.31 273.40 C 491.55 271.89 469.83 238.97 466.20 233.01 C 470.36 228.24 500.75 206.42 507.23 202.90 Z M 470.17 233.88 C 473.73 238.65 494.57 269.09 496.33 269.56 C 508.97 261.02 521.73 252.17 533.74 242.76 C 525.19 230.54 516.76 218.18 507.42 206.54 C 494.75 214.45 481.75 224.41 470.17 233.88 Z" fill="#000000" fill-rule="nonzero" node-id="77" stroke="none" target-height="70.50099" target-width="71.83499" target-x="466.202" target-y="202.904"></path><path d="M 302.39 253.64 C 302.08 254.94 301.94 255.58 300.98 256.57 C 297.46 257.86 256.32 258.38 252.79 256.98 C 252.55 256.40 252.41 256.10 252.25 255.53 C 250.30 248.90 249.83 211.24 252.98 205.68 C 259.34 203.58 284.98 204.47 293.41 204.50 C 296.10 204.55 299.85 204.15 301.90 206.15 C 304.87 213.78 303.29 243.97 302.39 253.64 Z M 299.26 254.25 C 299.46 252.19 299.57 250.08 299.94 248.05 C 300.64 234.83 300.53 221.15 299.78 207.93 L 294.91 207.50 C 282.06 207.51 267.26 206.81 254.60 208.44 C 253.15 220.42 252.16 242.93 255.24 254.43 C 269.54 256.41 284.85 254.43 299.26 254.25 Z" fill="#000000" fill-rule="nonzero" node-id="79" stroke="none" target-height="54.796997" target-width="55.035004" target-x="249.832" target-y="203.57901"></path><path d="M 293.41 204.50 C 296.10 204.55 299.85 204.15 301.90 206.15 C 304.87 213.78 303.29 243.97 302.39 253.64 C 301.77 251.75 300.91 249.78 299.94 248.05 C 300.64 234.83 300.53 221.15 299.78 207.93 L 294.91 207.50 L 293.41 204.50 Z" fill="#191818" fill-rule="nonzero" node-id="81" stroke="none" target-height="49.489" target-width="11.458008" target-x="293.409" target-y="204.148"></path><path d="M 562.11 252.51 C 568.29 252.40 601.67 252.28 605.35 253.79 L 606.15 255.87 C 605.76 255.92 605.38 255.98 604.99 256.00 C 600.15 256.35 564.66 256.73 562.09 254.53 L 562.11 252.51 Z" fill="#000000" fill-rule="nonzero" node-id="83" stroke="none" target-height="4.449997" target-width="44.05597" target-x="562.093" target-y="252.282"></path><path d="M 563.08 259.64 C 569.19 259.25 602.12 260.22 605.68 263.11 C 606.27 263.59 606.07 263.60 606.17 264.50 C 605.97 264.56 605.76 264.61 605.55 264.65 C 604.71 264.83 565.24 262.23 564.05 261.93 C 563.71 261.85 563.46 261.56 563.16 261.37 L 563.08 259.64 Z" fill="#000000" fill-rule="nonzero" node-id="85" stroke="none" target-height="5.5799866" target-width="43.196045" target-x="563.079" target-y="259.252"></path><path d="M 681.28 386.59 C 686.94 386.17 699.67 385.23 705.07 386.20 C 706.29 386.43 707.31 387.11 708.31 387.81 L 708.61 388.41 C 706.17 389.81 682.30 389.53 678.12 389.62 C 679.32 388.96 679.58 388.89 680.23 387.72 L 679.72 387.73 L 679.73 387.42 C 679.99 387.35 680.26 387.34 680.50 387.21 C 680.79 387.06 681.02 386.80 681.28 386.59 Z" fill="#191818" fill-rule="nonzero" node-id="87" stroke="none" target-height="4.581024" target-width="30.492004" target-x="678.12" target-y="385.227"></path><path d="M 678.12 389.62 C 673.17 389.98 662.58 392.00 658.32 389.77 L 658.56 389.01 C 663.58 386.35 675.50 386.30 681.28 386.59 C 681.02 386.80 680.79 387.06 680.50 387.21 C 680.26 387.34 679.99 387.35 679.73 387.42 L 679.72 387.73 L 680.23 387.72 C 679.58 388.89 679.32 388.96 678.12 389.62 Z" fill="#000000" fill-rule="nonzero" node-id="89" stroke="none" target-height="5.697998" target-width="22.956055" target-x="658.324" target-y="386.302"></path><path d="M 696.06 240.26 C 696.34 240.38 696.80 240.55 697.03 240.73 C 697.56 241.15 697.76 241.52 697.64 242.18 C 697.05 245.58 692.46 249.78 689.90 252.02 C 688.78 251.58 689.30 251.88 688.34 251.11 C 688.69 247.56 693.65 242.87 696.06 240.26 Z" fill="#000000" fill-rule="nonzero" node-id="91" stroke="none" target-height="11.755981" target-width="9.415955" target-x="688.34" target-y="240.261"></path><path d="M 669.96 230.12 C 670.68 230.34 671.24 230.34 671.72 230.99 C 673.64 233.60 672.25 238.65 671.71 241.61 C 670.69 241.29 670.33 241.23 669.81 240.18 C 668.69 237.89 669.27 232.52 669.96 230.12 Z" fill="#000000" fill-rule="nonzero" node-id="93" stroke="none" target-height="11.494995" target-width="4.9489746" target-x="668.69" target-y="230.117"></path><path d="M 641.33 240.73 C 642.26 240.85 642.75 240.99 643.53 241.56 C 646.12 243.47 647.08 247.75 647.44 250.76 C 646.04 250.28 645.18 249.71 644.24 248.59 C 642.42 246.41 641.06 243.60 641.33 240.73 Z" fill="#000000" fill-rule="nonzero" node-id="95" stroke="none" target-height="10.028" target-width="6.386963" target-x="641.056" target-y="240.728"></path><path d="M 635.96 294.40 C 636.87 294.81 637.22 295.17 637.81 295.98 L 637.50 297.02 C 635.61 298.57 633.20 299.20 630.92 300.00 C 629.89 300.02 629.58 300.01 628.60 299.59 C 628.62 299.41 628.61 299.22 628.65 299.04 C 629.18 296.95 634.14 295.21 635.96 294.40 Z" fill="#000000" fill-rule="nonzero" node-id="97" stroke="none" target-height="5.622986" target-width="9.217041" target-x="628.597" target-y="294.398"></path><path d="M 712.82 265.08 C 713.25 265.04 713.74 265.22 714.17 265.31 L 714.64 266.54 L 714.17 267.43 C 712.11 268.68 709.46 268.93 707.12 269.40 C 705.99 269.39 705.71 269.61 704.81 268.87 C 705.00 268.58 705.16 268.29 705.37 268.02 C 706.89 266.09 710.58 265.51 712.82 265.08 Z" fill="#000000" fill-rule="nonzero" node-id="99" stroke="none" target-height="4.564026" target-width="9.831055" target-x="704.81104" target-y="265.041"></path><path d="M 706.97 284.86 C 709.22 285.48 713.54 285.83 715.02 287.75 C 715.58 288.47 715.21 289.41 715.12 290.26 C 714.57 290.22 714.03 290.18 713.49 290.09 C 711.28 289.74 708.20 288.78 706.91 286.80 C 706.42 286.05 706.77 285.66 706.97 284.86 Z" fill="#000000" fill-rule="nonzero" node-id="101" stroke="none" target-height="5.407013" target-width="9.163025" target-x="706.42" target-y="284.857"></path><path d="M 626.45 274.49 C 628.66 274.75 631.54 274.89 633.57 275.80 C 634.60 276.26 634.63 276.45 634.99 277.44 L 634.37 278.35 C 631.78 278.35 628.78 278.61 626.59 277.01 C 626.13 275.80 626.11 275.74 626.45 274.49 Z" fill="#000000" fill-rule="nonzero" node-id="103" stroke="none" target-height="4.112976" target-width="8.874023" target-x="626.112" target-y="274.493"></path><path d="M 510.21 319.06 C 519.54 313.04 525.20 305.32 537.51 305.61 C 544.48 305.77 550.87 308.87 555.59 313.94 C 562.56 321.41 565.55 331.85 565.18 341.92 C 564.90 349.77 562.61 356.32 556.76 361.76 L 558.01 366.71 C 557.26 366.99 556.67 367.09 555.88 367.14 L 554.21 365.55 C 553.59 364.09 553.62 363.64 552.05 363.06 C 550.07 362.33 546.85 362.48 544.70 362.34 C 546.99 371.51 547.28 380.50 542.36 388.94 C 540.54 392.06 537.91 394.74 534.94 396.78 L 534.27 396.51 L 534.09 396.96 C 533.80 397.06 533.50 397.17 533.21 397.28 C 532.17 397.67 532.53 397.43 531.94 397.93 L 530.26 398.28 C 529.68 399.24 529.47 400.05 529.19 401.11 C 528.32 404.37 525.92 407.81 522.91 409.47 C 516.51 413.00 506.43 409.51 504.86 412.09 L 504.87 415.29 C 504.73 414.30 504.68 413.08 504.36 412.14 C 503.89 410.75 502.69 410.38 501.51 409.69 C 501.15 406.84 500.78 403.29 499.36 400.76 C 492.65 398.69 487.53 405.58 481.13 406.86 C 476.87 407.71 472.29 407.48 468.62 404.90 C 464.91 402.30 463.07 398.15 462.37 393.77 C 461.05 385.52 463.71 380.54 468.41 374.10 C 466.25 371.10 464.10 368.09 462.40 364.80 C 458.47 357.21 456.59 348.87 459.42 340.53 C 462.40 331.75 469.03 325.06 477.23 320.95 C 488.44 315.34 498.50 315.15 510.21 319.06 Z" fill="#191818" fill-rule="nonzero" node-id="105" stroke="none" target-height="109.96301" target-width="108.966" target-x="456.58502" target-y="305.322"></path><path d="M 684.78 269.39 C 685.27 270.21 685.40 270.68 685.61 271.59 C 683.92 275.89 675.01 282.16 671.35 285.27 C 668.68 282.56 667.29 279.83 665.83 276.38 C 665.27 274.95 664.91 273.64 664.63 272.13 L 664.84 272.42 L 664.91 270.53 C 667.94 271.71 670.41 278.19 671.73 280.94 C 675.74 277.06 679.94 272.21 684.78 269.39 Z" fill="#000000" fill-rule="nonzero" node-id="107" stroke="none" target-height="15.884003" target-width="20.985046" target-x="664.626" target-y="269.389"></path><path d="M 462.05 578.94 C 460.73 578.82 460.04 578.54 458.93 577.82 C 444.84 568.70 430.39 552.52 426.99 535.69 C 423.07 516.27 434.45 495.68 445.01 480.13 C 447.49 476.43 450.10 472.83 452.85 469.32 C 455.59 465.81 458.45 462.41 461.44 459.11 C 464.44 455.82 467.54 452.63 470.76 449.56 C 473.98 446.49 477.31 443.53 480.75 440.70 C 481.94 439.72 485.26 436.54 486.81 436.50 C 489.61 436.42 492.92 437.81 495.57 438.64 C 503.47 441.09 511.37 441.80 519.53 440.21 C 527.22 438.70 539.38 434.38 545.03 428.83 C 545.94 427.94 546.59 426.63 547.32 425.61 C 549.59 422.44 557.25 423.46 560.84 422.76 C 577.64 419.48 596.17 412.64 608.62 400.50 C 614.41 394.85 619.40 388.22 624.53 381.97 C 629.89 375.43 634.64 368.52 639.54 361.63 C 641.42 359.00 643.59 356.49 645.28 353.74 C 647.28 350.50 649.00 347.02 650.48 343.52 C 651.24 341.74 651.57 339.04 652.66 337.56 C 654.44 335.16 658.00 333.55 660.88 333.12 C 663.86 332.66 669.50 330.31 672.14 332.20 C 672.62 332.55 672.69 333.14 672.80 333.68 C 673.51 337.28 671.40 344.50 669.28 347.44 C 667.29 347.69 667.97 346.70 666.51 346.19 C 665.67 345.90 664.18 345.98 663.27 345.90 C 661.14 345.71 660.05 345.02 658.68 343.40 C 658.61 340.06 665.03 340.56 666.73 337.81 L 666.35 337.06 C 662.25 336.73 659.17 341.18 655.55 341.91 C 655.29 341.96 655.03 341.99 654.77 342.04 L 654.42 342.62 L 654.86 343.73 C 658.20 346.53 663.20 347.50 667.30 348.68 C 668.00 349.82 667.07 352.50 666.76 353.84 L 665.89 352.38 L 666.72 350.50 C 666.12 349.15 665.20 349.02 663.87 348.54 C 660.24 347.20 656.24 346.77 653.70 343.59 C 653.72 342.57 653.66 342.33 654.41 341.56 C 656.53 339.38 662.95 336.28 666.01 336.41 C 667.00 336.46 666.62 336.40 667.57 337.01 C 667.59 338.09 667.62 338.40 666.75 339.23 C 664.95 340.94 660.84 341.09 659.60 343.14 C 661.27 345.33 665.09 345.39 667.62 345.73 L 668.88 345.89 C 670.43 344.02 672.58 338.39 672.33 335.92 C 672.24 334.93 671.93 334.45 671.37 333.67 C 668.33 331.90 662.85 333.48 659.51 334.32 C 656.60 335.05 654.59 336.83 653.14 339.42 C 650.56 344.05 648.93 349.13 646.21 353.72 C 639.32 365.36 619.56 391.73 609.69 400.71 C 610.31 401.01 610.93 401.32 611.54 401.65 C 612.15 401.99 612.75 402.33 613.35 402.69 C 613.94 403.06 614.52 403.43 615.10 403.82 C 615.67 404.21 616.23 404.62 616.79 405.03 C 617.34 405.45 617.89 405.88 618.42 406.33 C 618.95 406.77 619.47 407.23 619.99 407.70 C 620.50 408.17 620.99 408.65 621.48 409.15 C 621.97 409.64 622.44 410.15 622.90 410.67 C 623.37 411.18 623.81 411.71 624.25 412.25 C 624.69 412.79 625.11 413.34 625.52 413.91 C 625.93 414.47 626.32 415.04 626.70 415.62 C 627.08 416.20 627.45 416.79 627.80 417.39 C 628.15 417.99 628.49 418.59 628.81 419.21 C 629.13 419.82 629.44 420.45 629.73 421.08 C 630.02 421.71 630.30 422.34 630.56 422.99 C 630.82 423.63 631.06 424.28 631.29 424.94 C 632.18 427.49 632.70 430.22 633.21 432.86 C 635.17 429.15 637.05 425.44 638.75 421.60 C 639.55 422.51 640.38 423.33 640.92 424.42 C 637.84 430.61 634.58 436.95 630.50 442.54 C 617.46 460.37 597.08 472.77 576.91 481.03 C 581.67 497.51 585.20 514.11 588.47 530.94 C 590.05 539.05 592.01 547.43 592.73 555.65 L 591.97 556.76 L 592.20 556.15 L 591.95 555.90 C 591.20 556.89 590.90 557.67 590.38 558.77 C 590.32 558.91 590.21 559.04 590.13 559.18 C 587.90 546.95 586.17 534.65 583.67 522.47 C 581.94 514.00 580.11 505.47 578.00 497.08 C 576.59 491.48 574.72 485.91 573.49 480.28 C 573.21 478.98 573.01 477.80 573.40 476.51 L 574.18 475.97 C 574.95 476.40 575.70 476.83 576.45 477.29 C 581.10 476.24 585.36 473.78 589.56 471.58 C 605.89 463.02 620.35 451.99 630.70 436.55 C 629.75 425.44 624.45 415.55 615.94 408.36 C 613.32 406.15 610.53 404.50 607.50 402.90 C 588.80 416.30 572.64 423.16 549.38 424.64 C 542.17 434.39 529.97 439.45 518.21 441.16 C 508.04 442.65 497.25 441.84 488.33 436.37 C 463.74 454.35 432.16 490.39 427.49 521.08 C 425.36 535.06 430.70 546.86 438.98 557.89 C 443.66 564.12 449.22 569.15 455.35 573.89 C 457.46 575.52 460.19 577.09 462.05 578.94 Z" fill="#000000" fill-rule="nonzero" node-id="109" stroke="none" target-height="248.63101" target-width="250.439" target-x="423.069" target-y="330.308"></path><path d="M 463.26 577.13 C 464.02 567.81 473.98 495.48 476.90 491.73 L 478.00 492.05 C 478.67 493.34 478.57 494.63 478.43 496.05 C 476.99 509.81 473.96 523.67 471.70 537.32 C 469.41 551.16 467.78 565.06 465.80 578.94 L 463.90 578.39 L 463.26 577.13 Z" fill="#000000" fill-rule="nonzero" node-id="111" stroke="none" target-height="87.209015" target-width="15.4079895" target-x="463.258" target-y="491.728"></path><path d="M 675.39 337.96 L 695.40 338.02 C 696.20 338.83 697.04 339.59 697.68 340.54 C 690.08 340.68 682.30 341.04 674.74 340.27 C 675.03 339.52 675.19 338.74 675.39 337.96 Z" fill="#191818" fill-rule="nonzero" node-id="113" stroke="none" target-height="3.0799866" target-width="22.942017" target-x="674.735" target-y="337.963"></path><path d="M 554.21 365.55 L 555.88 367.14 C 556.67 367.09 557.26 366.99 558.01 366.71 C 558.80 371.87 559.18 376.78 558.90 381.99 L 558.24 381.31 C 557.84 379.41 557.70 378.55 556.10 377.25 C 555.80 373.29 554.99 369.44 554.21 365.55 Z" fill="#000000" fill-rule="nonzero" node-id="115" stroke="none" target-height="16.438019" target-width="4.9680176" target-x="554.213" target-y="365.55"></path><path d="M 695.40 338.02 C 700.01 337.98 706.38 337.23 710.62 339.12 C 710.25 339.85 710.52 339.61 709.62 339.93 C 706.31 341.09 701.18 340.58 697.68 340.54 C 697.04 339.59 696.20 338.83 695.40 338.02 Z" fill="#000000" fill-rule="nonzero" node-id="117" stroke="none" target-height="3.8599854" target-width="15.214905" target-x="695.405" target-y="337.233"></path><path d="M 697.49 361.72 C 701.27 361.61 705.74 361.19 709.40 362.39 L 709.74 363.48 C 705.52 364.72 701.49 364.56 697.13 364.50 C 697.13 363.47 697.10 362.69 697.49 361.72 Z" fill="#000000" fill-rule="nonzero" node-id="119" stroke="none" target-height="3.5320435" target-width="12.640991" target-x="697.101" target-y="361.192"></path><path d="M 687.98 297.94 C 690.57 299.37 693.53 302.06 694.24 305.06 C 694.46 305.98 694.43 306.55 694.26 307.45 C 691.54 306.41 689.15 303.91 688.02 301.23 C 687.47 299.92 687.63 299.27 687.98 297.94 Z" fill="#000000" fill-rule="nonzero" node-id="121" stroke="none" target-height="9.510986" target-width="6.9901123" target-x="687.46893" target-y="297.937"></path><path d="M 403.49 867.43 C 425.72 876.87 450.08 879.64 473.93 881.59 C 493.16 883.34 512.44 884.25 531.75 884.30 C 551.92 884.35 572.03 883.37 592.18 883.03 L 591.72 883.61 C 591.20 884.26 590.67 884.88 590.12 885.50 L 590.37 886.17 C 584.53 887.53 569.44 887.22 562.45 887.38 C 523.19 888.25 437.31 887.73 403.25 870.67 L 403.49 867.43 Z" fill="#191818" fill-rule="nonzero" node-id="123" stroke="none" target-height="20.812988" target-width="188.92401" target-x="403.255" target-y="867.435"></path><path d="M 677.39 860.79 C 678.13 862.08 678.84 862.84 678.49 864.43 C 677.68 868.18 672.41 870.51 669.29 872.02 C 645.39 883.51 616.56 885.43 590.37 886.17 L 590.12 885.50 C 590.67 884.88 591.20 884.26 591.72 883.61 L 592.18 883.03 C 618.71 880.30 639.57 881.00 664.72 869.97 C 668.04 868.51 672.85 866.67 675.32 863.96 C 674.72 862.85 673.36 862.40 672.26 861.79 C 673.94 861.91 675.77 861.23 677.39 860.79 Z" fill="#000000" fill-rule="nonzero" node-id="125" stroke="none" target-height="25.371033" target-width="88.71997" target-x="590.116" target-y="860.794"></path><path d="M 599.76 846.67 C 614.34 847.27 666.43 853.72 677.39 860.79 C 675.77 861.23 673.94 861.91 672.26 861.79 C 668.79 861.62 661.15 859.13 657.25 858.31 C 650.02 856.79 605.11 847.99 599.97 850.59 C 599.96 849.28 599.85 847.98 599.76 846.67 Z" fill="#191818" fill-rule="nonzero" node-id="127" stroke="none" target-height="15.23999" target-width="77.63104" target-x="599.759" target-y="846.67206"></path><path d="M 403.25 870.67 C 400.62 868.99 398.61 867.50 397.77 864.39 C 397.89 863.16 398.05 862.34 398.90 861.39 C 401.28 858.75 405.76 857.31 409.03 856.12 C 426.70 849.70 445.04 847.67 463.70 846.89 C 462.63 848.12 461.95 849.05 461.38 850.58 C 449.65 850.22 411.59 855.24 402.92 862.61 C 402.35 863.10 402.06 863.66 401.76 864.34 C 401.96 865.88 402.28 866.36 403.49 867.43 L 403.25 870.67 Z" fill="#000000" fill-rule="nonzero" node-id="129" stroke="none" target-height="23.778076" target-width="65.925964" target-x="397.773" target-y="846.89294"></path></svg>