<?xml version="1.0" standalone="no"?><!DOCTYPE svg PUBLIC "-//W3C//DTD SVG 1.1//EN" "http://www.w3.org/Graphics/SVG/1.1/DTD/svg11.dtd"><svg height="1024" node-id="1" sillyvg="true" template-height="1024" template-width="1024" version="1.1" viewBox="0 0 1024 1024" width="1024" xmlns="http://www.w3.org/2000/svg" xmlns:xlink="http://www.w3.org/1999/xlink"><defs node-id="26"></defs><path d="M 697.31 235.07 C 698.86 234.96 700.35 234.91 701.90 235.11 C 707.66 235.88 711.06 238.91 714.39 243.39 C 716.35 242.68 718.28 242.10 720.39 242.24 C 723.05 242.41 725.27 243.81 726.89 245.88 C 729.58 249.31 730.11 253.93 729.45 258.13 C 728.48 264.23 722.47 277.36 717.85 281.58 C 715.59 283.64 712.45 285.07 709.97 286.93 C 710.27 287.50 710.53 288.04 710.48 288.72 C 710.17 292.73 700.55 307.28 697.91 311.74 C 672.30 354.98 643.94 396.37 609.13 432.78 C 600.14 442.18 591.26 451.42 580.85 459.27 C 584.38 472.30 586.96 485.62 589.79 498.82 C 597.00 532.39 603.14 566.21 610.73 599.69 C 622.99 599.18 635.20 599.17 647.45 598.88 L 763.20 597.01 C 762.56 591.79 761.93 585.94 763.20 580.77 C 763.84 578.17 765.10 575.56 767.54 574.24 C 770.13 572.83 772.55 573.36 775.23 574.18 C 785.03 584.68 794.79 622.78 798.83 637.74 C 800.51 643.97 801.71 651.33 804.43 657.14 C 810.42 647.26 815.46 636.70 821.17 626.64 C 834.37 603.40 848.32 580.83 864.29 559.37 C 868.33 553.95 879.82 537.10 886.39 536.40 C 888.00 536.23 889.60 536.64 890.86 537.68 C 894.82 540.94 895.27 547.74 895.83 552.48 C 898.26 548.73 900.63 545.14 904.79 543.07 C 906.50 542.22 908.63 541.77 910.48 542.44 C 912.72 543.25 914.47 545.25 915.49 547.35 C 917.46 551.43 917.13 556.24 916.46 560.60 C 915.52 566.67 913.64 572.74 912.03 578.65 C 908.32 592.29 904.10 605.75 899.97 619.27 C 884.66 669.35 866.83 718.76 849.75 768.27 C 845.78 779.75 841.43 791.09 837.63 802.64 C 840.97 803.85 844.20 805.17 847.37 806.77 C 852.49 809.37 858.63 813.04 860.36 818.88 C 861.37 822.28 860.72 825.91 859.01 828.97 C 852.01 841.48 821.97 850.77 808.15 854.50 C 766.75 865.68 722.77 871.45 680.08 875.30 C 645.68 878.17 611.24 880.14 576.74 881.21 C 542.24 882.28 507.74 882.45 473.23 881.72 C 399.90 880.68 324.82 877.89 252.90 862.61 C 233.47 858.48 211.69 853.64 194.31 843.68 C 188.68 840.62 182.19 836.76 178.40 831.45 C 176.11 828.24 175.02 824.49 175.86 820.57 C 177.50 812.99 185.12 808.57 191.19 804.79 C 186.50 793.61 183.11 781.61 179.28 770.09 L 160.32 713.45 C 147.88 675.98 134.57 638.76 123.52 600.84 C 119.65 587.57 113.52 568.46 112.98 554.87 C 112.87 551.91 112.99 546.84 115.42 544.72 C 116.48 543.80 117.64 543.47 119.02 543.58 C 125.72 544.10 131.14 550.94 135.19 555.66 C 133.93 551.48 132.76 547.27 133.65 542.91 C 134.12 540.55 135.06 537.30 137.40 536.10 C 138.65 535.45 140.20 535.55 141.50 535.97 C 159.73 541.76 211.92 634.65 223.55 655.28 C 226.08 641.59 241.24 584.32 249.00 576.95 C 251.14 574.91 254.02 573.62 257.02 573.90 C 258.90 574.07 260.51 575.00 261.61 576.54 C 265.49 581.95 263.86 590.28 262.66 596.35 C 313.78 597.67 364.90 598.72 416.02 599.52 C 419.85 579.35 423.65 559.13 427.12 538.89 C 431.62 512.65 435.85 486.26 441.42 460.22 C 432.69 454.48 424.16 448.64 416.23 441.81 C 379.00 409.77 348.92 361.89 323.11 320.35 C 318.56 313.02 313.86 305.78 309.22 298.51 C 306.28 293.90 302.95 289.26 300.70 284.27 C 298.93 283.23 297.13 282.18 295.60 280.80 C 289.44 275.26 284.85 265.75 284.64 257.44 C 284.56 254.63 285.23 251.56 287.37 249.57 C 288.46 248.55 289.41 248.47 290.82 248.50 C 295.88 248.58 294.75 245.14 298.33 243.75 C 300.18 243.04 302.61 243.86 304.39 242.99 C 306.76 241.84 308.44 238.94 310.87 237.57 C 314.47 235.54 320.35 235.95 324.19 237.10 C 330.44 238.98 336.65 244.10 339.51 249.97 C 342.98 257.10 341.95 265.72 339.36 272.94 C 367.33 305.20 399.18 334.02 431.19 362.16 C 435.17 357.28 440.17 352.85 446.01 350.35 C 454.10 346.90 461.45 347.90 469.32 351.03 C 470.85 345.42 473.07 340.25 476.26 335.36 C 483.18 324.73 494.30 316.77 506.76 314.17 C 517.83 311.87 530.65 313.65 540.17 319.92 C 549.75 326.23 555.07 335.10 557.35 346.18 C 561.47 345.71 565.37 345.42 569.47 346.24 C 577.79 347.89 582.66 353.14 587.17 359.84 C 597.49 348.76 609.18 338.69 619.81 327.84 C 638.66 308.58 656.64 288.62 675.01 268.91 C 674.43 261.92 674.43 255.22 677.61 248.76 C 681.75 240.34 688.99 237.80 697.31 235.07 Z M 527.13 405.64 C 526.75 407.80 526.46 410.02 525.92 412.15 C 522.21 416.15 517.72 418.16 512.23 418.31 C 507.92 418.43 503.54 417.21 500.34 414.20 C 497.65 411.67 496.93 409.40 496.85 405.81 C 491.50 404.68 486.69 403.25 481.73 400.96 C 444.51 383.78 390.78 331.86 361.74 301.83 C 353.45 293.26 345.62 284.31 337.47 275.63 C 334.40 280.77 330.05 284.19 324.22 285.73 C 318.31 287.29 311.37 286.98 305.40 286.01 C 311.16 297.27 321.16 310.76 328.13 321.88 C 353.85 362.87 382.37 408.90 419.41 440.38 C 427.10 446.92 435.26 452.47 443.79 457.82 C 447.15 454.97 453.77 448.11 458.13 447.58 C 458.24 449.37 456.84 450.93 455.70 452.23 C 452.73 455.64 448.02 458.43 444.34 461.14 C 442.78 468.86 440.62 476.96 439.83 484.79 L 419.69 595.99 C 419.43 597.38 419.51 598.19 420.15 599.42 C 421.15 599.49 421.04 599.66 421.91 599.01 C 423.49 585.09 423.86 571.62 435.81 562.25 C 442.02 557.37 449.64 555.59 457.40 556.60 C 465.45 557.65 472.26 561.95 477.12 568.37 C 484.70 578.38 482.42 586.52 482.56 597.93 C 501.35 597.82 520.15 598.16 538.94 597.91 C 540.21 583.81 538.06 571.13 550.28 561.02 C 556.01 556.27 564.14 553.91 571.49 554.78 C 579.46 555.72 587.51 560.11 592.37 566.51 C 599.50 575.94 599.14 588.71 599.98 599.96 L 607.06 599.88 C 602.42 578.70 598.53 557.37 594.23 536.12 C 589.04 510.89 583.71 485.70 578.25 460.54 C 573.81 457.95 565.31 454.21 562.55 449.90 L 562.59 448.66 C 563.84 448.18 564.54 448.44 565.73 448.98 C 570.46 451.14 574.30 454.90 579.11 457.00 C 621.55 420.32 655.99 374.11 685.16 326.45 C 692.76 314.04 700.48 301.41 706.97 288.38 C 695.30 285.50 684.91 281.37 676.99 271.93 C 666.85 282.57 657.17 293.64 647.15 304.39 C 632.88 319.71 618.22 334.63 603.17 349.17 C 579.96 371.65 557.61 393.28 527.13 405.64 Z M 227.99 818.85 L 320.41 818.88 L 345.97 818.87 C 352.34 818.86 359.22 819.19 365.49 818.05 C 371.17 817.02 382.21 811.45 387.86 808.84 C 395.22 805.92 403.07 803.55 410.26 800.32 C 411.71 786.74 412.89 773.13 413.80 759.50 C 411.38 759.42 406.79 759.79 404.97 758.02 C 404.38 757.44 404.53 756.38 404.50 755.61 C 404.32 749.11 405.53 742.14 406.25 735.68 L 410.28 700.32 C 413.88 668.68 416.71 636.88 420.74 605.30 C 420.85 604.44 420.99 603.59 421.13 602.73 C 388.38 602.43 355.63 601.82 322.89 600.92 C 302.88 600.49 282.78 600.73 262.80 599.81 C 259.06 615.88 256.95 632.81 254.29 649.11 L 236.53 762.41 C 233.69 781.11 231.76 800.32 227.99 818.85 Z M 717.82 600.71 C 691.08 601.53 664.26 601.82 637.51 602.36 C 625.20 602.62 612.57 602.29 600.31 603.23 C 600.90 620.57 615.88 752.72 612.86 757.75 C 609.93 759.70 605.84 759.09 602.46 759.06 C 602.68 766.92 603.37 774.75 603.83 782.59 C 604.17 788.44 604.24 794.39 604.82 800.21 C 611.93 803.35 619.55 805.45 626.82 808.23 C 634.49 811.16 644.99 816.82 652.67 818.20 C 657.93 819.15 664.32 818.43 669.73 818.42 L 796.83 818.49 L 776.48 681.13 C 772.32 654.27 767.54 627.45 763.82 600.54 C 748.53 600.25 733.10 600.17 717.82 600.71 Z M 831.64 821.60 C 813.06 821.41 794.47 821.97 775.88 821.95 C 741.51 821.92 707.18 821.50 672.80 821.84 C 662.22 821.94 651.70 823.01 641.15 823.03 L 321.58 822.13 C 308.17 822.12 195.43 823.02 190.85 821.25 C 190.04 817.29 191.35 812.47 191.72 808.46 C 186.91 811.58 180.00 815.76 178.88 821.89 C 178.37 824.67 179.34 827.27 180.98 829.50 C 187.61 838.55 203.87 844.60 214.11 848.44 C 255.99 863.60 307.99 869.30 352.29 873.20 C 417.41 878.92 483.31 879.64 548.63 878.49 C 624.52 877.14 703.83 873.44 778.28 857.82 C 798.63 853.54 819.16 848.93 838.11 840.13 C 846.29 836.34 853.97 831.94 858.09 823.58 C 857.11 818.37 855.22 815.76 850.79 812.72 C 846.35 809.67 841.03 807.59 835.99 805.76 C 833.92 811.09 832.53 815.96 831.64 821.60 Z M 553.19 759.03 C 553.43 765.98 553.19 791.12 555.46 796.05 C 559.18 797.69 595.39 797.80 601.12 797.29 C 600.39 784.61 599.56 771.80 599.42 759.10 C 584.03 759.01 568.55 759.49 553.19 759.03 Z M 501.63 390.93 C 501.03 397.35 501.21 403.84 500.40 410.23 C 504.46 413.50 508.50 415.24 513.84 414.60 C 516.35 414.30 519.13 413.54 521.30 412.23 C 525.20 407.53 522.96 397.64 522.98 391.75 C 515.72 392.23 508.79 392.67 501.63 390.93 Z M 486.87 374.44 C 492.64 382.14 498.16 386.85 507.92 388.27 C 511.37 388.78 514.70 388.64 518.17 388.43 C 527.80 386.13 536.57 380.15 541.79 371.58 C 543.15 369.35 543.98 366.88 543.18 364.31 C 542.73 362.83 541.46 360.77 540.00 360.13 C 537.62 359.09 524.04 360.34 517.17 358.16 C 508.87 355.52 503.53 348.83 497.20 346.05 C 490.81 352.82 489.88 355.51 489.30 364.77 C 486.37 362.53 484.00 360.44 480.06 360.91 C 478.09 361.15 476.35 362.12 475.23 363.77 C 475.09 363.97 474.97 364.17 474.86 364.38 C 474.75 364.59 474.65 364.80 474.56 365.02 C 474.48 365.24 474.40 365.46 474.33 365.69 C 474.27 365.91 474.22 366.14 474.18 366.38 C 474.13 366.61 474.10 366.84 474.09 367.08 C 474.07 367.31 474.07 367.55 474.07 367.78 C 474.08 368.02 474.10 368.25 474.14 368.49 C 474.17 368.72 474.21 368.95 474.27 369.18 C 474.77 371.18 476.16 372.68 477.93 373.67 C 480.82 375.28 483.73 374.79 486.87 374.44 Z M 458.62 796.37 L 460.23 796.22 C 461.44 794.34 462.30 764.92 462.49 759.62 C 456.71 758.79 450.69 759.08 444.86 759.08 L 418.21 759.11 C 416.21 761.89 414.53 791.20 414.46 796.48 C 429.07 795.83 444.00 796.20 458.62 796.37 Z M 300.37 246.25 C 297.46 249.04 296.54 251.37 296.41 255.41 C 296.29 259.21 297.24 264.03 299.95 266.89 C 300.80 267.77 301.73 268.13 302.85 268.54 L 306.38 267.98 C 305.12 265.07 303.65 262.23 303.15 259.07 C 302.57 255.48 304.42 249.62 302.18 246.72 L 300.37 246.25 Z M 813.92 702.91 L 814.69 703.41 C 816.47 701.19 823.10 684.81 824.76 681.04 C 831.50 665.66 838.67 650.47 846.26 635.49 C 853.85 620.50 861.85 605.74 870.26 591.20 C 874.14 584.57 878.21 578.07 882.47 571.68 C 885.98 566.45 889.80 561.31 892.81 555.79 C 892.45 551.39 891.99 542.84 888.19 539.99 C 887.43 539.42 886.63 539.39 885.72 539.30 C 878.20 546.33 871.76 555.25 865.61 563.49 C 851.08 582.93 838.39 603.08 826.46 624.20 C 819.29 636.88 812.96 650.23 804.89 662.36 L 813.92 702.91 Z M 799.57 818.58 C 808.09 818.36 816.61 818.20 825.12 818.12 C 826.52 818.05 827.79 818.26 828.95 817.44 C 831.26 788.60 790.37 595.98 774.28 578.04 C 772.99 576.60 771.93 576.54 770.09 576.47 C 769.96 576.46 769.84 576.47 769.72 576.47 C 767.40 578.43 766.23 580.10 765.97 583.19 C 764.95 595.45 771.81 629.08 774.03 642.61 C 780.79 685.32 787.16 728.10 793.15 770.93 C 795.27 786.57 799.31 802.79 799.57 818.58 Z M 294.15 264.24 C 293.38 261.30 293.62 252.58 291.81 251.24 C 291.65 251.12 291.03 250.85 290.83 250.76 C 289.46 251.46 289.31 251.44 288.85 252.98 C 287.09 258.83 289.44 266.55 292.39 271.69 C 295.72 277.50 300.72 281.16 307.20 282.82 C 314.08 284.57 322.46 283.94 328.54 280.09 C 333.61 276.87 336.83 271.54 338.01 265.72 C 339.18 260.01 338.60 254.04 335.15 249.21 C 331.52 244.12 325.25 240.09 319.07 239.24 C 318.90 239.22 318.73 239.20 318.56 239.18 C 314.96 239.69 311.60 240.18 309.24 243.24 C 305.90 247.58 306.22 254.44 307.07 259.61 C 307.44 261.82 308.15 265.27 310.05 266.71 C 311.12 267.53 312.19 267.69 313.51 267.59 L 314.06 266.76 L 313.86 266.15 C 312.00 260.31 310.73 251.86 313.81 246.28 C 314.82 244.46 316.25 243.24 318.28 242.69 C 321.34 241.85 323.81 243.27 326.37 244.81 C 326.52 244.90 326.67 244.99 326.81 245.09 C 327.95 251.29 330.16 260.85 326.52 266.48 C 325.49 268.07 323.74 269.42 321.84 269.75 C 319.87 270.09 317.80 269.55 315.78 269.82 C 310.62 270.51 302.45 274.05 297.87 270.46 C 296.00 269.00 294.85 266.46 294.15 264.24 Z M 222.12 660.51 C 212.56 642.12 155.80 543.14 140.75 539.42 C 140.13 539.27 139.68 539.26 139.06 539.22 C 136.30 543.40 136.66 547.77 137.63 552.49 C 138.39 556.24 139.51 560.13 141.16 563.59 C 143.88 569.33 148.36 574.67 151.75 580.08 C 157.98 590.08 163.86 600.29 169.40 610.71 C 180.60 631.28 190.92 652.29 200.35 673.73 C 204.50 683.07 208.95 692.60 212.23 702.27 L 213.99 694.60 C 216.39 683.19 219.21 671.80 222.12 660.51 Z M 719.96 270.13 C 716.14 269.80 712.38 269.14 708.58 268.78 C 701.53 268.13 691.99 268.68 686.95 262.73 C 685.71 261.27 684.42 258.40 684.50 256.45 C 684.56 254.97 684.75 254.81 685.81 253.95 C 689.40 255.11 689.25 266.37 697.64 263.60 C 698.61 262.76 698.92 262.21 699.11 260.91 C 699.80 256.21 696.33 248.98 693.45 245.58 C 691.86 243.71 690.15 242.24 687.72 241.73 C 681.74 246.75 678.70 253.09 678.00 260.80 C 677.82 262.88 677.83 264.94 677.88 267.02 C 682.56 274.68 691.65 280.90 700.30 283.13 C 703.95 284.07 708.43 284.28 711.69 282.05 C 715.05 279.75 719.59 274.91 720.75 270.97 C 720.29 270.16 720.61 270.38 719.96 270.13 Z M 321.67 266.04 C 324.40 263.49 324.64 261.49 324.77 257.79 C 324.89 254.61 324.53 249.08 321.96 246.83 C 320.99 245.98 319.93 245.94 318.71 245.87 C 315.60 249.17 315.19 253.60 315.38 257.99 C 315.48 260.28 315.95 264.06 317.96 265.56 C 319.23 266.50 320.25 266.18 321.67 266.04 Z M 211.18 707.59 C 202.36 688.41 194.41 668.85 185.41 649.75 C 178.89 636.07 171.94 622.61 164.56 609.38 C 157.18 596.15 149.38 583.17 141.17 570.44 C 136.68 563.61 129.81 550.92 121.85 547.83 C 120.58 547.33 119.25 547.34 117.91 547.38 C 116.64 550.23 116.15 552.73 116.43 555.85 C 117.74 570.33 123.31 588.04 127.47 602.09 C 136.80 633.67 147.62 664.78 158.13 695.98 L 181.32 764.91 C 185.21 776.51 188.69 788.41 193.03 799.83 C 193.13 800.10 193.25 800.38 193.35 800.65 C 193.84 795.74 194.94 790.96 195.64 786.09 C 198.67 768.99 201.88 751.92 205.25 734.88 C 207.14 725.78 209.58 716.74 211.18 707.59 Z M 194.23 818.50 L 203.12 818.55 C 210.26 818.72 217.40 818.82 224.53 818.87 C 226.88 798.21 230.78 777.52 234.00 756.98 L 249.92 655.58 C 252.53 639.86 255.06 624.13 257.51 608.38 C 258.52 601.51 259.86 594.42 260.33 587.50 C 260.51 584.81 260.46 581.07 258.55 578.90 C 256.90 577.04 255.31 576.96 253.01 576.88 C 234.95 595.95 197.48 784.37 194.23 818.50 Z M 906.53 545.97 C 899.57 549.68 894.65 560.11 890.42 566.45 C 870.78 595.87 854.05 626.17 838.91 658.12 C 834.08 668.54 829.36 679.01 824.77 689.53 C 821.85 696.03 819.01 702.85 815.32 708.93 C 818.96 727.03 822.40 745.17 825.63 763.35 C 827.65 774.85 829.92 786.78 830.69 798.44 C 831.02 800.84 831.28 803.27 831.79 805.64 C 835.74 800.80 846.18 767.69 849.00 759.69 C 859.49 729.91 915.89 571.90 913.66 552.45 C 913.43 550.41 912.84 548.43 911.20 547.10 C 909.78 545.93 908.25 545.99 906.53 545.97 Z M 717.77 245.47 C 715.64 250.81 722.26 258.51 715.16 265.89 C 717.41 266.65 720.09 266.45 722.46 266.44 C 725.06 261.99 727.23 256.63 725.99 251.39 C 725.43 248.99 723.92 247.08 721.74 245.93 C 720.65 245.35 718.99 245.47 717.77 245.47 Z M 693.30 240.38 C 697.50 244.97 700.95 249.50 701.81 255.91 C 702.00 257.30 701.30 264.01 702.05 264.63 C 702.33 264.86 702.78 264.69 703.14 264.73 C 704.88 263.54 705.22 261.53 705.60 259.58 C 706.04 257.35 706.24 255.00 706.08 252.73 C 705.90 250.00 703.96 246.65 705.60 244.17 L 706.60 243.93 C 707.44 244.67 707.68 245.17 708.04 246.22 C 708.79 249.20 709.78 252.37 709.70 255.46 C 709.63 258.10 708.22 262.10 709.13 264.42 C 709.89 264.69 709.99 264.92 710.79 264.54 C 712.81 263.59 714.09 261.28 714.72 259.23 C 715.93 255.27 715.27 250.72 713.29 247.13 C 711.46 243.81 707.40 239.81 703.65 238.83 C 701.47 238.26 699.19 238.43 696.97 238.58 L 693.30 240.38 Z M 540.00 631.87 C 532.49 631.30 524.85 631.58 517.32 631.59 L 482.51 631.71 C 481.47 632.22 481.12 632.20 480.76 633.38 C 479.10 638.84 479.94 650.28 479.77 656.50 L 478.13 723.37 C 477.86 733.29 478.02 743.40 477.29 753.29 C 477.19 754.64 477.00 756.98 476.14 758.10 C 476.00 758.27 475.80 758.39 475.62 758.51 C 473.25 760.05 468.92 759.56 466.17 759.59 C 465.05 767.11 465.02 774.89 464.61 782.49 C 463.95 794.66 463.16 806.84 462.95 819.03 L 531.25 818.97 L 552.01 818.97 C 551.77 799.00 550.22 779.07 549.86 759.10 C 547.59 759.09 543.05 759.55 541.31 757.97 C 540.90 757.59 540.88 757.07 540.79 756.56 C 539.25 748.30 540.39 729.48 540.36 720.12 L 540.00 631.87 Z" fill="currentColor" fill-rule="nonzero" node-id="28" stroke="none" target-height="647.5426" target-width="804.588" target-x="112.867" target-y="234.906"></path><path d="M 520.64 366.77 C 521.04 366.77 521.71 366.76 522.08 366.81 C 522.79 366.93 523.30 367.01 523.62 367.67 C 524.50 369.52 524.03 372.11 523.26 373.93 C 522.04 376.82 519.78 379.15 516.80 380.22 C 513.44 381.43 509.51 380.80 506.31 379.40 C 502.06 375.61 501.58 372.36 501.14 366.94 L 520.64 366.77 Z" fill="currentColor" fill-rule="nonzero" node-id="30" stroke="none" target-height="14.676971" target-width="23.358002" target-x="501.144" target-y="366.756"></path><path d="M 183.64 251.96 C 189.60 253.34 263.22 291.66 269.62 296.61 C 268.26 300.09 266.62 302.88 264.32 305.85 C 268.89 306.44 272.56 307.14 275.56 311.05 C 277.44 313.50 277.94 316.48 277.45 319.48 C 276.39 325.93 271.52 331.12 266.30 334.69 C 255.91 341.81 244.35 342.82 232.13 342.41 C 220.16 350.51 208.32 356.93 193.32 353.97 C 192.80 353.87 192.29 353.77 191.78 353.65 C 184.21 369.77 179.50 386.83 173.19 403.41 C 176.98 405.67 180.88 409.32 183.14 413.13 C 184.76 415.88 188.42 422.68 187.32 425.77 C 187.09 426.39 186.53 426.37 185.97 426.58 C 182.18 425.80 169.35 418.47 165.04 416.31 C 148.23 407.87 129.80 399.19 113.59 389.87 C 116.46 388.01 119.30 386.62 122.60 385.75 C 129.31 383.97 137.26 384.29 143.34 387.83 C 153.06 378.40 161.90 368.66 170.43 358.13 C 173.31 354.56 176.56 350.88 179.01 347.00 C 168.71 335.46 163.82 324.37 164.06 308.84 C 155.15 300.39 149.25 289.68 148.85 277.21 C 148.65 270.71 149.92 263.30 154.65 258.50 C 156.78 256.34 159.56 255.08 162.62 255.18 C 168.19 255.36 173.44 259.35 177.36 263.01 C 179.31 259.23 181.20 255.45 183.64 251.96 Z M 232.50 337.23 C 243.28 326.65 258.63 311.89 265.37 298.21 C 247.80 287.90 229.42 278.67 211.32 269.31 C 202.76 264.87 193.21 260.84 185.31 255.35 C 174.98 276.43 161.34 301.51 169.58 325.56 C 172.84 335.08 178.60 343.93 187.91 348.36 C 196.37 352.38 205.13 352.29 213.83 349.13 C 220.89 346.57 226.79 341.99 232.50 337.23 Z M 262.37 308.91 C 253.97 320.08 245.16 329.72 235.17 339.48 C 239.51 339.43 243.59 338.82 247.88 338.27 C 257.00 336.20 266.84 332.72 272.11 324.39 C 273.18 322.70 273.74 320.99 274.27 319.09 L 274.46 318.44 C 274.50 318.31 274.53 318.18 274.57 318.05 C 273.76 314.94 273.07 311.89 270.02 310.22 C 267.77 309.00 264.87 308.94 262.37 308.91 Z M 159.86 258.61 C 155.39 261.94 153.27 266.08 152.46 271.58 C 150.97 281.67 154.69 292.56 160.61 300.68 C 161.56 301.98 162.45 303.12 163.93 303.83 C 164.74 303.01 164.71 301.38 164.89 300.25 C 166.74 287.76 170.91 277.09 176.10 265.70 C 171.02 261.80 166.72 257.76 159.86 258.61 Z M 181.95 348.64 C 171.51 363.08 160.09 378.27 146.02 389.40 C 154.15 393.82 162.71 397.59 170.69 402.28 C 174.39 385.19 181.72 368.37 188.59 352.33 C 186.33 351.20 184.15 349.90 181.95 348.64 Z" fill="currentColor" fill-rule="nonzero" node-id="32" stroke="none" target-height="174.61598" target-width="164.34601" target-x="113.59" target-y="251.96"></path><path d="M 837.02 251.89 C 837.16 251.91 837.30 251.92 837.44 251.97 C 840.20 252.99 842.58 260.64 844.02 263.38 C 848.33 260.47 853.66 255.98 859.04 255.89 C 862.13 255.83 864.66 257.34 866.74 259.52 C 871.26 264.25 873.14 270.42 873.01 276.87 C 872.75 289.06 866.70 300.25 858.06 308.52 C 858.03 311.35 858.01 314.20 857.88 317.03 C 857.30 329.62 853.19 338.38 843.87 346.82 C 848.86 351.40 853.04 357.60 857.28 362.92 C 864.25 371.64 871.28 380.20 878.91 388.37 C 883.26 386.13 887.58 384.38 892.57 384.35 C 898.44 384.31 904.41 386.29 908.57 390.49 C 902.37 395.13 844.33 423.43 837.87 424.87 C 837.75 424.74 837.62 424.62 837.52 424.47 C 836.55 422.96 836.85 420.17 837.17 418.48 C 838.50 411.26 843.66 405.46 849.59 401.56 C 845.49 391.60 842.34 380.95 838.62 370.82 C 836.52 365.12 833.11 358.63 831.87 352.81 C 813.02 354.08 805.89 351.08 790.04 341.47 C 778.50 344.04 768.06 343.51 757.51 337.73 C 751.32 334.34 745.31 328.78 743.47 321.77 C 742.58 318.37 742.82 314.78 744.68 311.75 C 747.47 307.19 751.98 305.09 756.90 303.75 C 755.54 301.35 753.86 299.02 754.06 296.17 C 755.66 293.50 826.62 257.67 837.02 251.89 Z M 756.97 297.96 C 765.51 311.92 776.83 326.88 790.01 336.62 C 800.73 344.75 813.17 351.71 827.11 349.86 C 835.15 348.79 842.79 344.65 847.75 338.18 C 854.88 328.89 855.68 316.53 853.97 305.37 C 851.70 290.56 846.34 276.72 840.28 263.12 C 839.39 261.10 838.27 257.63 836.80 256.01 C 810.40 270.23 782.76 282.68 756.97 297.96 Z M 757.69 307.05 C 753.71 308.08 749.18 310.00 747.00 313.72 C 745.71 315.90 745.72 318.28 746.42 320.66 C 748.40 327.38 754.62 332.24 760.65 335.29 C 761.87 335.92 763.12 336.50 764.39 337.01 C 765.67 337.52 766.97 337.96 768.29 338.35 C 769.61 338.73 770.95 339.06 772.30 339.31 C 773.65 339.57 775.01 339.76 776.38 339.88 C 780.06 340.04 783.44 339.76 787.07 339.11 C 778.30 331.86 770.12 323.36 763.71 313.96 C 762.61 312.35 759.66 307.29 757.69 307.05 Z M 858.32 258.97 C 853.68 260.98 849.55 263.39 845.44 266.32 C 851.24 280.84 854.49 289.21 857.51 305.00 C 864.78 296.23 870.65 285.31 869.60 273.55 C 869.21 269.20 868.15 264.81 864.71 261.86 C 862.87 260.28 860.76 259.18 858.32 258.97 Z M 864.62 395.32 C 868.58 393.51 872.60 391.78 876.46 389.77 C 867.40 383.45 850.11 358.55 841.02 348.58 L 834.99 351.34 L 846.13 381.33 C 848.47 387.64 851.18 394.10 852.82 400.62 L 864.62 395.32 Z" fill="currentColor" fill-rule="nonzero" node-id="34" stroke="none" target-height="172.982" target-width="165.98999" target-x="742.584" target-y="251.889"></path><path d="M 728.04 367.25 C 730.87 370.06 734.92 382.60 736.66 386.78 C 741.02 397.23 746.53 406.51 752.35 416.17 C 752.18 416.61 752.03 417.06 751.85 417.50 C 749.87 422.30 747.28 426.95 745.09 431.67 C 742.69 436.86 740.54 442.77 737.60 447.65 C 736.94 448.74 736.71 449.00 735.58 449.47 C 728.89 442.52 714.01 415.87 710.34 406.35 C 714.00 399.05 717.38 391.63 720.49 384.08 C 722.76 378.70 724.77 372.07 728.04 367.25 Z M 714.10 406.37 C 718.98 417.57 728.36 434.39 735.44 444.10 C 738.28 440.47 739.92 434.42 741.82 430.15 C 743.93 425.45 746.22 420.83 748.68 416.31 C 740.35 403.04 734.19 389.20 728.12 374.80 C 723.59 385.38 719.13 396.01 714.10 406.37 Z" fill="currentColor" fill-rule="nonzero" node-id="36" stroke="none" target-height="82.218994" target-width="42.00403" target-x="710.342" target-y="367.254"></path><path d="M 293.39 395.20 C 296.94 397.18 301.77 407.76 307.39 411.78 C 313.30 416.01 323.10 416.25 326.95 418.89 C 326.71 420.72 321.62 422.82 319.97 424.48 C 313.73 430.78 313.08 440.40 313.16 448.75 C 313.18 450.45 312.81 450.94 311.62 452.12 C 305.01 444.94 298.78 436.95 288.34 435.33 C 285.15 434.84 281.98 435.33 278.78 434.61 L 278.46 434.07 C 280.07 429.25 288.73 422.72 291.59 415.58 C 294.25 408.93 291.64 398.88 293.39 395.20 Z M 284.66 431.45 C 294.38 433.34 301.33 436.15 308.60 443.04 L 309.32 443.27 C 309.78 441.16 309.73 439.01 310.17 436.90 C 311.52 430.39 314.56 424.94 319.35 420.35 C 309.65 417.71 303.29 413.77 297.03 405.76 C 295.21 416.34 291.67 423.32 284.66 431.45 Z" fill="currentColor" fill-rule="nonzero" node-id="38" stroke="none" target-height="56.925934" target-width="48.488983" target-x="278.459" target-y="395.19504"></path><path d="M 528.75 211.29 C 529.15 211.60 529.53 211.94 529.86 212.32 C 533.39 216.48 535.83 223.14 535.05 228.57 C 534.08 235.33 528.66 241.07 523.29 244.90 C 519.33 247.72 512.29 251.54 507.29 250.71 C 505.14 246.31 498.93 235.77 499.11 231.38 C 499.17 230.09 509.37 227.70 511.43 226.77 C 519.44 223.15 522.66 216.98 528.75 211.29 Z M 502.79 232.88 C 504.38 237.51 506.69 241.77 509.03 246.06 C 510.59 246.88 512.89 246.26 514.50 245.79 C 520.90 243.93 527.75 237.59 530.65 231.61 C 531.39 230.11 531.87 228.45 532.36 226.85 C 531.45 223.57 530.55 220.33 528.48 217.56 L 528.07 217.36 C 521.19 225.78 513.84 231.33 502.79 232.88 Z" fill="currentColor" fill-rule="nonzero" node-id="40" stroke="none" target-height="40.25" target-width="36.896973" target-x="498.932" target-y="211.29202"></path><path d="M 795.12 488.96 C 795.44 488.91 795.76 488.87 796.09 488.84 C 796.41 488.81 796.74 488.79 797.07 488.78 C 797.39 488.77 797.72 488.78 798.05 488.79 C 798.37 488.80 798.70 488.83 799.02 488.86 C 799.35 488.90 799.67 488.94 799.99 489.00 C 800.32 489.06 800.64 489.12 800.95 489.20 C 801.27 489.28 801.58 489.37 801.90 489.46 C 802.21 489.56 802.52 489.67 802.82 489.79 C 803.12 489.91 803.42 490.04 803.72 490.18 C 804.02 490.31 804.31 490.46 804.59 490.62 C 804.88 490.78 805.16 490.95 805.44 491.12 C 805.71 491.30 805.98 491.48 806.24 491.68 C 806.51 491.87 806.76 492.08 807.01 492.29 C 807.26 492.50 807.50 492.72 807.74 492.94 C 807.97 493.17 808.20 493.41 808.42 493.65 C 808.64 493.89 808.85 494.14 809.05 494.40 C 809.25 494.65 809.45 494.92 809.63 495.18 C 809.82 495.45 809.99 495.73 810.16 496.01 C 810.33 496.29 810.49 496.58 810.64 496.87 C 810.78 497.16 810.92 497.45 811.05 497.75 C 811.18 498.06 811.30 498.36 811.41 498.67 C 811.52 498.98 811.61 499.29 811.70 499.60 C 811.79 499.92 811.87 500.23 811.93 500.55 C 812.00 500.87 812.06 501.20 812.10 501.52 C 812.15 501.84 812.18 502.17 812.21 502.49 C 812.23 502.82 812.25 503.15 812.25 503.47 C 812.25 503.80 812.24 504.12 812.22 504.45 C 812.21 504.78 812.18 505.10 812.13 505.43 C 812.09 505.75 812.04 506.07 811.98 506.39 C 811.92 506.72 811.85 507.03 811.76 507.35 C 811.68 507.67 811.59 507.98 811.48 508.29 C 811.38 508.60 811.27 508.90 811.14 509.21 C 811.02 509.51 810.89 509.81 810.74 510.10 C 810.60 510.39 810.44 510.68 810.28 510.97 C 810.12 511.25 809.95 511.53 809.77 511.80 C 809.59 512.07 809.40 512.34 809.20 512.60 C 809.00 512.86 808.79 513.11 808.58 513.35 C 808.36 513.60 808.14 513.84 807.91 514.07 C 807.67 514.30 807.44 514.52 807.19 514.74 C 806.95 514.95 806.69 515.16 806.43 515.36 C 806.17 515.56 805.91 515.75 805.63 515.93 C 805.36 516.11 805.08 516.28 804.80 516.44 C 804.52 516.61 804.23 516.76 803.93 516.90 C 803.64 517.05 803.34 517.18 803.04 517.30 C 802.74 517.43 802.43 517.54 802.12 517.64 C 801.81 517.75 801.50 517.84 801.18 517.92 C 800.87 518.00 800.55 518.08 800.23 518.14 C 799.91 518.20 799.58 518.25 799.26 518.29 C 799.02 518.32 798.78 518.34 798.54 518.36 C 798.31 518.38 798.07 518.39 797.83 518.40 C 797.59 518.41 797.35 518.41 797.11 518.40 C 796.87 518.39 796.63 518.38 796.39 518.37 C 796.15 518.35 795.91 518.33 795.67 518.30 C 795.43 518.27 795.20 518.24 794.96 518.20 C 794.72 518.16 794.49 518.11 794.25 518.06 C 794.02 518.01 793.79 517.95 793.56 517.89 C 793.32 517.82 793.09 517.76 792.87 517.68 C 792.64 517.61 792.41 517.53 792.19 517.44 C 791.96 517.36 791.74 517.27 791.52 517.17 C 791.30 517.08 791.08 516.98 790.87 516.87 C 790.65 516.76 790.44 516.65 790.23 516.53 C 790.02 516.42 789.82 516.30 789.61 516.17 C 789.41 516.04 789.21 515.91 789.01 515.77 C 788.81 515.64 788.62 515.50 788.43 515.35 C 788.24 515.21 788.05 515.06 787.87 514.90 C 787.69 514.75 787.51 514.59 787.33 514.42 C 787.16 514.26 786.98 514.09 786.82 513.92 C 786.65 513.75 786.49 513.57 786.33 513.39 C 786.17 513.21 786.02 513.03 785.86 512.84 C 785.72 512.65 785.57 512.46 785.43 512.27 C 785.29 512.07 785.15 511.88 785.02 511.68 C 784.89 511.48 784.77 511.27 784.64 511.06 C 784.52 510.86 784.41 510.65 784.30 510.43 C 784.19 510.22 784.08 510.01 783.98 509.79 C 783.88 509.57 783.79 509.35 783.69 509.13 C 783.61 508.91 783.52 508.68 783.44 508.45 C 783.36 508.23 783.29 508.00 783.22 507.77 C 783.16 507.54 783.09 507.31 783.04 507.07 C 782.98 506.84 782.93 506.61 782.88 506.37 C 782.84 506.14 782.80 505.90 782.77 505.66 C 782.73 505.42 782.71 505.19 782.68 504.95 C 782.66 504.71 782.65 504.47 782.63 504.23 C 782.62 503.99 782.62 503.75 782.62 503.51 C 782.62 503.27 782.63 503.03 782.64 502.79 C 782.66 502.55 782.67 502.31 782.70 502.07 C 782.72 501.84 782.75 501.60 782.79 501.36 C 782.83 501.12 782.87 500.89 782.92 500.65 C 782.96 500.42 783.02 500.18 783.08 499.95 C 783.13 499.72 783.20 499.49 783.27 499.26 C 783.34 499.03 783.41 498.80 783.50 498.58 C 783.58 498.35 783.66 498.13 783.76 497.90 C 783.85 497.68 783.95 497.46 784.05 497.25 C 784.15 497.03 784.26 496.82 784.37 496.61 C 784.48 496.39 784.60 496.19 784.73 495.98 C 784.85 495.77 784.98 495.57 785.11 495.37 C 785.24 495.17 785.38 494.98 785.52 494.78 C 785.67 494.59 785.81 494.40 785.97 494.21 C 786.12 494.03 786.27 493.85 786.43 493.67 C 786.59 493.49 786.76 493.32 786.93 493.15 C 787.10 492.98 787.27 492.81 787.45 492.65 C 787.63 492.49 787.81 492.33 787.99 492.18 C 788.18 492.02 788.36 491.88 788.56 491.73 C 788.75 491.59 788.94 491.45 789.14 491.32 C 789.34 491.18 789.54 491.05 789.75 490.93 C 789.95 490.80 790.16 490.68 790.37 490.57 C 790.58 490.45 790.80 490.35 791.01 490.24 C 791.23 490.14 791.45 490.04 791.67 489.95 C 791.89 489.85 792.11 489.76 792.34 489.68 C 792.56 489.60 792.79 489.52 793.02 489.45 C 793.25 489.38 793.48 489.31 793.71 489.25 C 793.94 489.19 794.17 489.14 794.41 489.09 C 794.64 489.04 794.88 489.00 795.12 488.96 Z M 798.77 515.14 C 798.93 515.12 799.09 515.10 799.25 515.08 C 799.41 515.05 799.57 515.02 799.73 514.99 C 799.89 514.96 800.05 514.92 800.20 514.88 C 800.36 514.85 800.52 514.80 800.67 514.76 C 800.83 514.71 800.98 514.67 801.14 514.61 C 801.29 514.56 801.44 514.51 801.59 514.45 C 801.74 514.39 801.89 514.33 802.04 514.27 C 802.19 514.20 802.34 514.14 802.48 514.07 C 802.63 514.00 802.77 513.92 802.92 513.85 C 803.06 513.77 803.20 513.69 803.34 513.61 C 803.48 513.53 803.62 513.44 803.75 513.35 C 803.89 513.27 804.02 513.18 804.16 513.08 C 804.29 512.99 804.42 512.89 804.55 512.79 C 804.67 512.69 804.80 512.59 804.92 512.49 C 805.05 512.38 805.17 512.28 805.29 512.17 C 805.41 512.06 805.52 511.95 805.64 511.83 C 805.75 511.72 805.87 511.60 805.98 511.48 C 806.09 511.37 806.19 511.24 806.30 511.12 C 806.40 511.00 806.51 510.87 806.61 510.75 C 806.70 510.62 806.80 510.49 806.89 510.36 C 806.99 510.22 807.08 510.09 807.17 509.95 C 807.26 509.82 807.34 509.68 807.43 509.54 C 807.51 509.40 807.59 509.26 807.67 509.12 C 807.74 508.98 807.82 508.84 807.89 508.69 C 807.96 508.54 808.03 508.40 808.09 508.25 C 808.16 508.10 808.22 507.95 808.28 507.80 C 808.33 507.65 808.39 507.50 808.44 507.35 C 808.49 507.19 808.54 507.04 808.59 506.88 C 808.64 506.73 808.68 506.57 808.72 506.41 C 808.76 506.26 808.79 506.10 808.82 505.94 C 808.86 505.78 808.89 505.62 808.91 505.46 C 808.94 505.30 808.96 505.14 808.98 504.98 C 809.03 504.56 809.06 504.14 809.06 503.71 C 809.07 503.29 809.05 502.86 809.00 502.44 C 808.96 502.01 808.90 501.59 808.81 501.18 C 808.72 500.76 808.61 500.35 808.48 499.95 C 808.34 499.54 808.19 499.15 808.01 498.76 C 807.83 498.37 807.63 498.00 807.41 497.63 C 807.20 497.27 806.96 496.92 806.70 496.58 C 806.44 496.24 806.17 495.91 805.88 495.61 C 805.58 495.30 805.28 495.00 804.95 494.73 C 804.63 494.45 804.29 494.20 803.93 493.96 C 803.58 493.72 803.22 493.50 802.84 493.31 C 802.46 493.11 802.08 492.93 801.68 492.78 C 801.28 492.62 800.88 492.49 800.47 492.38 C 800.06 492.27 799.64 492.18 799.22 492.12 C 798.80 492.05 798.38 492.01 797.95 491.99 C 797.53 491.97 797.10 491.98 796.68 492.00 C 796.42 492.02 796.16 492.05 795.91 492.08 C 795.65 492.11 795.40 492.16 795.15 492.21 C 794.90 492.26 794.65 492.32 794.40 492.38 C 794.15 492.45 793.90 492.53 793.66 492.61 C 793.42 492.70 793.18 492.79 792.94 492.89 C 792.70 492.99 792.47 493.10 792.24 493.21 C 792.01 493.33 791.78 493.45 791.56 493.58 C 791.34 493.71 791.12 493.85 790.91 493.99 C 790.69 494.14 790.49 494.29 790.28 494.45 C 790.08 494.61 789.88 494.77 789.69 494.94 C 789.50 495.12 789.31 495.29 789.13 495.48 C 788.95 495.66 788.78 495.85 788.61 496.05 C 788.44 496.24 788.28 496.44 788.13 496.65 C 787.98 496.86 787.83 497.07 787.69 497.29 C 787.55 497.50 787.42 497.72 787.29 497.95 C 787.17 498.17 787.05 498.40 786.94 498.63 C 786.83 498.87 786.73 499.10 786.63 499.34 C 786.54 499.58 786.45 499.82 786.37 500.07 C 786.30 500.31 786.23 500.56 786.16 500.81 C 786.10 501.06 786.05 501.31 786.00 501.57 C 785.96 501.82 785.92 502.08 785.89 502.33 C 785.87 502.59 785.85 502.84 785.84 503.10 C 785.82 503.36 785.82 503.62 785.83 503.87 C 785.83 504.13 785.85 504.39 785.87 504.64 C 785.90 504.90 785.93 505.16 785.97 505.41 C 786.01 505.66 786.06 505.92 786.11 506.17 C 786.17 506.42 786.24 506.67 786.31 506.92 C 786.38 507.16 786.46 507.41 786.55 507.65 C 786.64 507.89 786.74 508.13 786.85 508.36 C 786.95 508.60 787.07 508.83 787.19 509.06 C 787.31 509.28 787.44 509.51 787.57 509.73 C 787.71 509.94 787.85 510.16 788.00 510.37 C 788.15 510.58 788.31 510.78 788.47 510.98 C 788.63 511.18 788.81 511.37 788.98 511.56 C 789.16 511.75 789.34 511.93 789.53 512.10 C 789.72 512.28 789.91 512.45 790.11 512.61 C 790.31 512.77 790.52 512.93 790.73 513.08 C 790.94 513.23 791.15 513.37 791.37 513.50 C 791.59 513.64 791.81 513.76 792.04 513.88 C 792.27 514.00 792.50 514.12 792.74 514.22 C 792.97 514.32 793.21 514.42 793.45 514.51 C 793.69 514.60 793.94 514.68 794.19 514.75 C 794.43 514.82 794.68 514.89 794.93 514.94 C 795.19 515.00 795.44 515.04 795.69 515.08 C 795.95 515.12 796.20 515.15 796.46 515.17 C 796.72 515.20 796.97 515.21 797.23 515.21 C 797.49 515.22 797.75 515.22 798.00 515.20 C 798.26 515.19 798.52 515.17 798.77 515.14 Z" fill="currentColor" fill-rule="nonzero" node-id="42" stroke="none" target-height="29.632324" target-width="29.630981" target-x="782.62067" target-y="488.773"></path><path d="M 138.22 452.12 C 142.82 453.81 145.62 460.08 149.75 462.87 C 153.68 465.52 158.31 466.21 162.32 468.46 C 163.10 468.90 162.82 468.70 163.13 469.74 C 161.55 473.74 152.09 477.78 148.42 481.27 L 147.92 481.74 C 145.47 484.40 144.12 487.44 140.54 488.81 C 139.56 488.50 139.31 488.45 138.79 487.47 C 137.77 485.57 137.40 482.93 136.78 480.85 C 135.27 475.82 132.78 471.91 129.78 467.65 C 133.78 462.49 135.98 458.27 138.22 452.12 Z M 134.15 467.92 C 137.54 473.30 139.90 478.05 141.68 484.13 C 143.60 481.97 145.48 479.63 147.56 477.63 C 151.09 474.83 154.64 472.54 158.60 470.39 C 150.68 467.45 145.22 464.52 140.04 457.75 C 138.40 461.50 136.64 464.67 134.15 467.92 Z" fill="currentColor" fill-rule="nonzero" node-id="44" stroke="none" target-height="36.68701" target-width="33.356003" target-x="129.776" target-y="452.119"></path><path d="M 592.65 159.67 C 592.88 159.77 593.11 159.84 593.32 159.96 C 596.85 162.15 606.31 183.13 607.77 187.85 C 604.07 188.05 600.34 188.06 596.62 188.16 C 591.81 188.22 585.81 189.09 581.19 188.05 C 581.44 182.92 589.67 163.86 592.65 159.67 Z M 585.52 184.82 L 594.12 184.74 L 602.80 184.51 C 600.62 180.04 596.25 169.25 593.20 165.85 L 585.52 184.82 Z" fill="currentColor" fill-rule="nonzero" node-id="46" stroke="none" target-height="29.42099" target-width="26.583984" target-x="581.189" target-y="159.669"></path><path d="M 240.22 491.10 C 240.40 491.08 240.58 491.06 240.76 491.05 C 240.94 491.04 241.12 491.03 241.30 491.03 C 241.49 491.03 241.67 491.03 241.85 491.04 C 242.03 491.05 242.21 491.06 242.39 491.07 C 242.58 491.09 242.76 491.11 242.94 491.14 C 243.12 491.16 243.30 491.19 243.47 491.22 C 243.65 491.26 243.83 491.30 244.01 491.34 C 244.18 491.38 244.36 491.43 244.53 491.48 C 244.71 491.53 244.88 491.58 245.06 491.64 C 245.23 491.70 245.40 491.77 245.57 491.83 C 245.73 491.90 245.90 491.97 246.07 492.05 C 246.23 492.12 246.40 492.20 246.56 492.29 C 246.72 492.37 246.88 492.46 247.03 492.55 C 247.19 492.64 247.35 492.74 247.50 492.84 C 247.65 492.94 247.80 493.04 247.95 493.15 C 248.10 493.25 248.24 493.36 248.38 493.48 C 248.53 493.59 248.66 493.71 248.80 493.83 C 248.94 493.95 249.07 494.07 249.20 494.20 C 249.33 494.33 249.46 494.46 249.58 494.59 C 249.71 494.72 249.83 494.86 249.94 495.00 C 250.06 495.14 250.17 495.28 250.28 495.43 C 250.39 495.57 250.50 495.72 250.60 495.87 C 250.71 496.02 250.81 496.17 250.90 496.32 C 251.00 496.48 251.09 496.64 251.18 496.80 C 251.27 496.95 251.35 497.12 251.43 497.28 C 251.51 497.44 251.59 497.61 251.66 497.77 C 251.73 497.94 251.80 498.11 251.86 498.28 C 251.92 498.45 251.98 498.62 252.04 498.80 C 252.09 498.97 252.15 499.14 252.19 499.32 C 252.24 499.50 252.28 499.67 252.32 499.85 C 252.36 500.03 252.39 500.21 252.42 500.39 C 252.45 500.57 252.48 500.75 252.50 500.93 C 252.52 501.11 252.53 501.29 252.54 501.47 C 252.56 501.65 252.56 501.83 252.57 502.02 C 252.57 502.20 252.57 502.38 252.56 502.56 C 252.55 502.74 252.54 502.92 252.53 503.11 C 252.51 503.29 252.50 503.47 252.47 503.65 C 252.45 503.83 252.42 504.01 252.39 504.19 C 252.35 504.37 252.32 504.54 252.28 504.72 C 252.23 504.90 252.19 505.07 252.14 505.25 C 252.09 505.42 252.04 505.60 251.98 505.77 C 251.92 505.94 251.86 506.11 251.79 506.28 C 251.72 506.45 251.65 506.62 251.58 506.79 C 251.50 506.95 251.42 507.12 251.34 507.28 C 251.26 507.44 251.17 507.60 251.08 507.76 C 250.99 507.91 250.89 508.07 250.80 508.22 C 250.70 508.38 250.59 508.53 250.49 508.67 C 250.38 508.82 250.27 508.97 250.16 509.11 C 250.05 509.25 249.93 509.39 249.81 509.53 C 249.69 509.67 249.57 509.80 249.44 509.93 C 249.32 510.06 249.19 510.19 249.06 510.31 C 248.92 510.44 248.79 510.56 248.65 510.68 C 248.51 510.80 248.37 510.91 248.23 511.02 C 248.08 511.13 247.93 511.24 247.78 511.35 C 247.64 511.45 247.48 511.55 247.33 511.65 C 247.18 511.74 247.02 511.84 246.86 511.92 C 246.70 512.01 246.54 512.10 246.38 512.18 C 246.22 512.26 246.05 512.34 245.88 512.41 C 245.72 512.48 245.55 512.55 245.38 512.62 C 245.21 512.68 245.04 512.74 244.86 512.80 C 244.69 512.85 244.52 512.91 244.34 512.95 C 244.17 513.00 243.99 513.05 243.81 513.09 C 243.63 513.12 243.46 513.16 243.28 513.19 C 243.10 513.22 242.92 513.25 242.74 513.27 C 242.55 513.29 242.37 513.31 242.19 513.32 C 242.01 513.33 241.82 513.34 241.64 513.34 C 241.46 513.35 241.27 513.35 241.09 513.34 C 240.91 513.34 240.72 513.33 240.54 513.31 C 240.36 513.30 240.18 513.28 239.99 513.26 C 239.81 513.23 239.63 513.21 239.45 513.17 C 239.27 513.14 239.09 513.10 238.91 513.06 C 238.73 513.02 238.56 512.98 238.38 512.93 C 238.20 512.88 238.03 512.82 237.85 512.76 C 237.68 512.71 237.51 512.64 237.34 512.58 C 237.17 512.51 237.00 512.44 236.83 512.36 C 236.66 512.29 236.50 512.21 236.34 512.12 C 236.17 512.04 236.01 511.95 235.85 511.86 C 235.69 511.77 235.54 511.68 235.38 511.58 C 235.23 511.48 235.08 511.38 234.93 511.27 C 234.78 511.16 234.63 511.05 234.49 510.94 C 234.34 510.83 234.20 510.71 234.06 510.59 C 233.93 510.47 233.79 510.34 233.66 510.22 C 233.53 510.09 233.40 509.96 233.28 509.82 C 233.15 509.69 233.03 509.55 232.91 509.42 C 232.79 509.28 232.67 509.13 232.56 508.99 C 232.45 508.84 232.34 508.69 232.24 508.54 C 232.13 508.39 232.03 508.24 231.94 508.08 C 231.84 507.93 231.75 507.77 231.66 507.61 C 231.57 507.45 231.48 507.29 231.40 507.12 C 231.32 506.96 231.24 506.79 231.17 506.62 C 231.10 506.46 231.03 506.29 230.97 506.12 C 230.90 505.94 230.84 505.77 230.78 505.60 C 230.73 505.42 230.68 505.25 230.63 505.07 C 230.58 504.89 230.54 504.71 230.50 504.53 C 230.46 504.35 230.43 504.17 230.40 503.99 C 230.37 503.81 230.34 503.63 230.32 503.45 C 230.30 503.27 230.29 503.08 230.28 502.90 C 230.26 502.72 230.26 502.54 230.25 502.35 C 230.25 502.17 230.25 501.99 230.26 501.80 C 230.27 501.62 230.28 501.44 230.29 501.25 C 230.31 501.07 230.33 500.89 230.35 500.71 C 230.38 500.53 230.40 500.34 230.44 500.16 C 230.47 499.98 230.51 499.80 230.55 499.63 C 230.59 499.45 230.64 499.27 230.69 499.10 C 230.74 498.92 230.80 498.74 230.86 498.57 C 230.92 498.40 230.98 498.22 231.05 498.06 C 231.11 497.88 231.19 497.72 231.26 497.55 C 231.34 497.38 231.42 497.22 231.50 497.06 C 231.59 496.89 231.68 496.73 231.77 496.57 C 231.86 496.42 231.96 496.26 232.06 496.11 C 232.16 495.95 232.26 495.80 232.37 495.65 C 232.47 495.50 232.59 495.36 232.70 495.21 C 232.81 495.07 232.93 494.93 233.05 494.79 C 233.18 494.66 233.30 494.52 233.43 494.39 C 233.56 494.26 233.69 494.13 233.82 494.01 C 233.96 493.88 234.09 493.76 234.23 493.64 C 234.37 493.53 234.52 493.41 234.66 493.30 C 234.81 493.19 234.96 493.08 235.11 492.98 C 235.26 492.88 235.41 492.78 235.57 492.68 C 235.73 492.58 235.89 492.49 236.05 492.40 C 236.21 492.32 236.37 492.23 236.53 492.15 C 236.70 492.07 236.87 492.00 237.03 491.92 C 237.20 491.85 237.37 491.78 237.55 491.72 C 237.72 491.66 237.89 491.60 238.07 491.54 C 238.24 491.49 238.42 491.44 238.59 491.39 C 238.77 491.35 238.95 491.30 239.13 491.27 C 239.31 491.23 239.49 491.20 239.67 491.17 C 239.85 491.14 240.03 491.11 240.22 491.10 Z M 240.69 510.01 C 243.60 509.37 246.08 508.73 247.82 506.10 C 249.03 504.28 249.64 501.90 249.04 499.75 C 248.43 497.60 246.85 495.92 244.87 494.96 C 243.87 494.47 242.91 494.26 241.82 494.07 C 238.75 494.88 235.97 495.72 234.28 498.61 C 233.28 500.32 232.93 502.17 233.50 504.09 C 234.16 506.34 236.15 508.29 238.26 509.25 C 239.04 509.60 239.86 509.80 240.69 510.01 Z" fill="currentColor" fill-rule="nonzero" node-id="48" stroke="none" target-height="22.317719" target-width="22.317337" target-x="230.25133" target-y="491.02963"></path><path d="M 235.99 208.15 C 236.70 208.41 237.39 208.68 238.04 209.07 C 242.46 211.67 257.00 224.36 258.37 229.01 C 258.09 230.44 257.96 230.60 256.97 231.68 C 255.22 231.60 254.22 231.50 252.77 230.46 C 249.00 227.76 234.70 215.69 233.96 211.73 C 234.14 210.01 234.87 209.34 235.99 208.15 Z" fill="currentColor" fill-rule="nonzero" node-id="50" stroke="none" target-height="23.531021" target-width="24.40802" target-x="233.95999" target-y="208.146"></path><path d="M 685.19 173.17 C 686.06 173.33 686.83 173.57 687.67 173.84 C 691.31 177.06 698.13 192.33 699.24 197.17 C 699.67 199.02 699.20 200.01 698.21 201.55 C 697.12 201.49 695.20 201.50 694.29 200.87 C 691.80 199.15 685.15 181.86 684.24 178.23 C 683.73 176.15 684.10 174.96 685.19 173.17 Z" fill="currentColor" fill-rule="nonzero" node-id="52" stroke="none" target-height="28.378983" target-width="15.942932" target-x="683.726" target-y="173.17401"></path><path d="M 282.32 173.68 C 283.10 173.93 284.15 174.20 284.80 174.73 C 287.79 177.18 292.57 192.09 293.44 196.15 C 293.92 198.37 293.59 199.50 292.41 201.41 C 291.33 201.25 290.22 201.13 289.35 200.39 C 286.58 198.03 280.82 181.03 280.72 177.26 C 280.67 175.65 281.36 174.85 282.32 173.68 Z" fill="currentColor" fill-rule="nonzero" node-id="54" stroke="none" target-height="27.733002" target-width="13.244995" target-x="280.67" target-y="173.677"></path><path d="M 347.93 172.89 C 348.46 172.85 349.51 172.69 350.06 172.82 C 351.40 173.13 351.48 173.65 352.04 174.78 C 352.19 179.98 345.08 195.19 341.65 199.37 C 341.20 199.37 340.39 199.38 339.98 199.28 C 338.74 198.96 338.52 198.27 337.96 197.26 C 337.67 192.30 344.66 177.00 347.93 172.89 Z" fill="currentColor" fill-rule="nonzero" node-id="56" stroke="none" target-height="26.689987" target-width="14.517029" target-x="337.668" target-y="172.692"></path><path d="M 794.22 210.36 C 795.12 210.40 796.27 210.54 797.05 210.99 C 798.18 211.64 798.15 212.31 798.31 213.46 C 796.38 219.19 787.13 224.87 782.45 228.52 C 781.15 228.64 779.96 228.61 778.86 227.87 C 778.11 227.36 778.30 227.00 778.19 226.17 C 780.32 220.12 789.15 214.14 794.22 210.36 Z" fill="currentColor" fill-rule="nonzero" node-id="58" stroke="none" target-height="18.283005" target-width="20.199097" target-x="778.108" target-y="210.359"></path><path d="M 750.60 175.20 C 751.78 175.32 752.62 175.52 753.72 176.00 C 754.17 176.55 754.72 177.13 754.87 177.86 C 755.53 180.98 751.72 199.28 749.80 201.77 C 749.07 201.61 748.14 201.49 747.47 201.17 C 746.64 200.78 746.25 200.55 746.00 199.68 C 745.03 196.17 748.72 178.61 750.60 175.20 Z" fill="currentColor" fill-rule="nonzero" node-id="60" stroke="none" target-height="26.568008" target-width="10.497986" target-x="745.03" target-y="175.20401"></path><path d="M 662.89 481.82 C 665.64 483.81 673.81 499.09 674.66 502.61 C 674.96 503.82 674.59 504.08 673.99 505.10 C 673.48 504.84 672.85 504.56 672.40 504.18 C 669.60 501.80 662.15 487.13 661.79 483.76 C 661.69 482.83 662.33 482.49 662.89 481.82 Z" fill="currentColor" fill-rule="nonzero" node-id="62" stroke="none" target-height="23.276978" target-width="13.271973" target-x="661.687" target-y="481.821"></path><path d="M 601.07 249.31 C 606.39 250.12 617.93 251.62 622.39 254.09 C 623.04 255.19 622.87 255.27 622.62 256.55 C 617.56 256.48 605.14 254.96 601.13 252.35 C 600.49 251.02 600.73 250.78 601.07 249.31 Z" fill="currentColor" fill-rule="nonzero" node-id="64" stroke="none" target-height="7.237015" target-width="22.557007" target-x="600.486" target-y="249.312"></path><path d="M 888.74 454.12 C 888.91 454.15 889.08 454.16 889.24 454.20 C 890.00 454.38 890.59 454.39 890.95 455.14 C 892.52 458.39 893.20 475.65 892.00 478.88 L 890.37 478.24 C 888.33 474.88 888.39 458.44 888.74 454.12 Z" fill="currentColor" fill-rule="nonzero" node-id="66" stroke="none" target-height="24.760956" target-width="4.872986" target-x="888.326" target-y="454.12103"></path><path d="M 424.33 261.20 C 425.82 261.89 426.11 262.16 426.65 263.73 C 427.68 266.72 430.94 279.29 430.37 282.21 C 430.25 282.80 429.86 283.30 429.61 283.84 C 429.47 283.79 429.32 283.75 429.18 283.69 C 428.06 283.21 427.64 282.42 427.24 281.32 C 425.69 277.00 422.40 265.25 424.33 261.20 Z" fill="currentColor" fill-rule="nonzero" node-id="68" stroke="none" target-height="22.64502" target-width="8.540039" target-x="422.399" target-y="261.197"></path><path d="M 344.30 513.17 C 344.63 513.21 344.96 513.22 345.29 513.28 C 346.33 513.50 346.72 513.74 347.22 514.67 C 348.98 518.00 352.21 530.64 351.22 534.12 C 350.25 533.84 349.38 533.56 348.79 532.71 C 346.81 529.85 343.67 516.64 344.30 513.17 Z" fill="currentColor" fill-rule="nonzero" node-id="70" stroke="none" target-height="20.958984" target-width="8.541962" target-x="343.66904" target-y="513.166"></path><path d="M 451.03 143.85 C 451.77 143.91 452.04 143.96 452.67 144.41 C 453.38 144.93 453.12 144.69 453.25 145.75 C 450.70 149.15 441.27 152.72 437.26 154.87 C 436.13 154.64 435.95 154.65 435.15 153.86 L 435.46 152.79 C 439.14 148.82 446.19 146.26 451.03 143.85 Z" fill="currentColor" fill-rule="nonzero" node-id="72" stroke="none" target-height="11.019989" target-width="18.233978" target-x="435.148" target-y="143.848"></path></svg>