<?xml version="1.0" standalone="no"?><!DOCTYPE svg PUBLIC "-//W3C//DTD SVG 1.1//EN" "http://www.w3.org/Graphics/SVG/1.1/DTD/svg11.dtd"><svg height="1024" node-id="1" sillyvg="true" template-height="1024" template-width="1024" version="1.1" viewBox="0 0 1024 1024" width="1024" xmlns="http://www.w3.org/2000/svg" xmlns:xlink="http://www.w3.org/1999/xlink"><defs node-id="24"></defs><path d="M 274.74 207.12 C 278.48 206.93 282.09 207.03 285.76 207.82 C 294.54 209.71 303.01 214.97 307.82 222.66 C 314.08 232.66 313.44 242.68 310.88 253.72 C 319.46 254.21 328.22 253.91 336.82 253.92 L 382.51 253.96 L 522.29 253.83 L 709.75 253.88 C 744.39 253.89 779.24 254.66 813.87 253.58 C 817.21 242.41 818.62 225.93 826.67 217.22 C 831.75 211.72 839.25 208.25 846.73 208.00 C 856.72 207.67 870.82 212.52 878.20 219.35 C 883.70 224.44 887.33 231.54 887.72 239.06 C 888.24 248.87 883.16 257.99 881.48 267.45 C 880.25 274.31 880.94 282.25 880.92 289.25 L 880.96 469.59 C 880.98 509.38 880.37 549.26 881.70 589.03 C 885.62 575.28 887.83 560.65 890.67 546.62 C 891.74 541.38 892.58 535.95 894.16 530.84 C 895.13 530.17 895.07 530.16 896.24 530.31 C 897.55 531.81 897.22 534.17 896.99 536.00 C 896.22 542.16 894.47 548.41 893.23 554.50 C 891.22 564.43 889.42 574.38 887.09 584.25 C 885.10 592.69 882.60 601.37 881.64 610.01 C 880.89 616.84 881.16 623.83 881.14 630.70 C 881.10 641.17 881.11 651.63 881.19 662.09 L 881.49 741.43 C 888.71 708.86 895.44 676.18 901.67 643.41 C 903.09 636.15 904.60 628.90 905.80 621.61 C 906.32 618.41 906.26 614.18 907.35 611.22 C 907.82 609.97 908.52 609.60 909.64 608.99 L 910.49 609.36 C 910.98 610.82 911.00 612.00 910.87 613.53 C 910.09 622.72 907.45 632.16 905.78 641.25 C 900.99 667.14 895.86 692.96 890.40 718.71 C 887.07 733.57 882.96 749.44 881.66 764.57 C 881.13 770.68 881.39 776.98 881.36 783.12 L 881.29 816.49 C 852.99 816.89 824.70 816.26 796.40 816.14 L 675.90 816.01 L 387.14 815.92 L 189.31 816.04 C 173.91 816.06 158.37 815.60 143.00 816.01 C 137.01 816.17 131.30 817.96 125.24 817.73 C 117.72 817.45 110.16 815.54 103.91 811.25 C 96.86 806.40 92.24 799.74 90.82 791.26 C 89.82 785.28 91.05 779.49 92.57 773.72 C 96.40 759.25 100.95 744.94 105.03 730.54 L 153.08 563.99 L 211.28 356.48 L 230.05 288.50 C 233.65 275.39 244.35 230.56 251.08 221.22 C 256.57 213.61 265.58 208.64 274.74 207.12 Z M 169.99 765.49 L 332.32 765.59 C 333.36 759.39 335.55 753.22 337.33 747.18 C 340.88 734.79 344.75 722.51 348.94 710.32 C 365.28 661.83 386.14 596.07 429.48 565.32 C 445.56 553.91 463.90 547.29 482.71 542.00 C 483.42 530.49 482.66 518.92 483.47 507.43 C 473.83 503.20 465.79 498.65 458.05 491.41 C 426.16 492.18 389.97 487.01 366.03 464.02 C 356.88 455.23 350.15 443.39 350.04 430.45 C 350.03 429.88 350.03 429.30 350.03 428.72 C 362.22 406.06 419.20 372.07 444.55 364.37 C 446.47 363.79 448.45 363.42 450.42 363.08 C 450.61 337.93 456.91 313.58 475.36 295.57 C 491.65 279.67 511.97 272.26 534.59 272.56 C 558.37 272.87 581.92 281.71 598.59 299.00 C 599.36 299.82 600.12 300.65 600.86 301.49 C 601.61 302.33 602.33 303.19 603.05 304.06 C 603.76 304.93 604.45 305.81 605.13 306.70 C 605.81 307.60 606.47 308.51 607.12 309.43 C 607.76 310.35 608.39 311.28 609.00 312.22 C 609.61 313.17 610.21 314.12 610.78 315.08 C 611.36 316.05 611.92 317.02 612.46 318.01 C 613.00 319.00 613.52 319.99 614.02 321.00 C 614.52 322.00 615.01 323.01 615.47 324.04 C 615.94 325.06 616.39 326.09 616.81 327.13 C 617.24 328.17 617.65 329.21 618.04 330.27 C 618.43 331.32 618.80 332.38 619.15 333.45 C 619.50 334.52 619.83 335.59 620.14 336.67 C 620.45 337.75 620.74 338.84 621.01 339.93 C 621.28 341.02 621.53 342.12 621.75 343.22 C 621.99 344.32 622.19 345.42 622.38 346.53 C 623.19 350.77 624.23 355.10 624.73 359.38 C 649.09 366.60 697.24 390.33 709.63 412.85 C 713.87 420.55 715.33 430.30 712.75 438.77 C 709.05 450.92 696.95 459.02 686.28 464.60 C 676.74 469.59 667.00 472.11 657.01 475.77 C 660.55 488.04 665.72 499.77 669.96 511.80 L 698.31 592.30 C 701.61 601.64 709.75 621.00 710.84 630.09 C 710.97 631.25 711.06 632.41 711.11 633.58 C 711.15 634.74 711.15 635.91 711.10 637.07 C 711.06 638.24 710.97 639.40 710.83 640.56 C 710.69 641.72 710.51 642.87 710.29 644.02 C 710.06 645.17 709.79 646.30 709.48 647.42 C 709.16 648.55 708.81 649.66 708.41 650.76 C 708.01 651.85 707.57 652.93 707.08 653.99 C 706.60 655.06 706.07 656.10 705.51 657.12 C 700.78 665.62 692.60 672.99 683.14 675.69 C 672.18 678.81 659.27 676.74 649.48 671.11 C 642.21 666.94 636.80 661.08 632.24 654.14 C 634.59 662.34 636.34 670.76 638.48 679.02 C 646.00 708.05 653.14 737.23 661.40 766.05 C 669.47 766.03 677.62 766.24 685.68 765.93 C 726.75 596.14 769.16 426.68 812.91 257.56 L 506.82 257.51 L 376.11 257.55 L 333.97 257.59 C 326.09 257.60 318.12 257.35 310.26 257.73 C 308.94 258.86 308.53 260.60 308.07 262.26 L 270.36 404.87 C 246.88 491.92 222.87 578.83 198.34 665.59 L 177.57 739.05 C 175.05 747.83 172.80 756.80 169.99 765.49 Z M 723.87 812.03 L 745.47 812.53 C 755.06 770.69 766.39 729.16 776.61 687.46 L 850.00 382.28 L 872.17 290.47 L 879.71 260.16 C 880.96 255.10 882.62 249.93 883.31 244.75 C 884.17 238.32 883.11 232.63 879.56 227.10 C 873.86 218.25 862.60 214.48 852.73 212.64 C 850.73 212.27 848.73 212.05 846.70 212.16 C 839.56 213.08 833.02 215.38 828.40 221.27 C 826.13 224.16 824.62 227.52 823.57 231.02 C 821.18 238.93 819.77 247.16 817.68 255.16 L 800.94 319.49 C 782.40 389.83 764.58 460.34 747.47 531.04 L 710.98 678.38 C 704.58 702.94 698.59 727.59 693.02 752.34 C 690.77 761.89 687.98 771.40 686.06 781.02 C 685.39 784.37 684.94 787.81 685.43 791.22 C 686.41 798.08 690.52 803.92 696.11 807.87 C 702.55 812.42 708.76 812.26 716.25 812.17 C 718.71 812.14 721.47 812.40 723.87 812.03 Z M 127.11 814.18 C 136.29 813.86 145.38 811.50 151.78 804.43 C 155.68 800.13 157.64 794.29 159.37 788.86 C 163.30 776.45 166.59 763.78 170.16 751.25 L 192.41 672.81 C 222.54 566.85 251.71 460.64 279.94 354.16 L 300.05 278.77 C 302.36 269.92 309.81 246.45 309.21 238.27 C 308.64 230.60 304.65 223.41 298.79 218.50 C 293.44 214.00 285.30 210.39 278.20 210.64 C 268.95 212.01 260.47 214.98 254.79 222.94 C 247.99 232.45 240.15 266.29 236.65 278.71 L 214.27 359.31 L 152.41 579.71 L 110.41 725.03 C 105.61 741.85 100.52 758.60 96.04 775.51 C 94.69 780.62 93.58 785.83 94.63 791.11 C 96.06 798.31 100.71 804.45 106.81 808.40 C 112.81 812.30 120.02 813.94 127.11 814.18 Z M 455.67 342.81 C 480.08 338.40 511.26 334.89 535.88 334.50 C 563.30 333.44 589.96 333.75 617.01 338.68 C 610.50 316.68 596.74 298.20 576.44 287.20 C 562.65 279.73 548.12 275.88 532.41 276.25 C 508.88 277.59 489.55 285.26 473.70 303.13 C 463.50 314.64 458.28 327.77 455.67 342.81 Z M 455.29 346.20 C 454.59 351.62 454.00 356.99 453.91 362.46 C 461.09 360.81 468.56 360.11 475.87 359.25 C 491.16 357.46 506.72 355.97 522.12 355.93 C 555.40 355.09 588.12 357.29 621.31 359.11 C 620.21 353.63 619.06 348.17 617.87 342.72 C 594.99 338.32 572.04 337.27 548.81 337.76 C 517.49 338.88 486.31 341.70 455.29 346.20 Z M 583.46 502.36 C 583.97 514.00 584.15 525.64 584.00 537.28 C 591.11 538.59 598.38 539.75 605.39 541.57 C 610.07 542.98 614.50 544.67 618.99 546.62 C 616.91 539.70 604.66 487.68 603.32 486.40 C 597.43 492.78 591.24 498.37 583.46 502.36 Z M 148.98 812.25 C 168.83 812.93 188.84 812.30 208.70 812.23 L 312.93 812.03 L 661.76 811.93 C 672.71 811.96 683.68 812.11 694.62 811.97 C 687.75 806.40 682.88 800.39 681.86 791.28 C 681.07 784.25 683.04 776.75 684.79 770.00 C 659.56 769.18 634.26 769.55 609.02 769.55 L 485.50 769.46 L 282.40 769.07 C 249.03 769.08 215.59 768.68 182.22 769.26 L 169.05 769.54 C 164.11 785.75 163.16 801.29 148.98 812.25 Z M 656.66 449.30 C 656.23 454.01 654.32 468.11 656.03 471.77 C 657.23 471.71 658.01 471.47 659.12 471.00 C 675.57 466.80 697.98 457.93 707.02 442.43 C 708.91 439.18 710.26 435.35 710.36 431.56 C 708.95 430.61 706.99 431.06 705.32 431.22 C 689.88 439.61 673.93 445.85 656.66 449.30 Z M 855.51 810.34 C 856.22 809.54 856.82 808.83 857.23 807.84 C 859.21 802.96 867.90 764.52 867.91 760.06 C 867.27 758.95 866.90 758.36 865.61 757.87 C 865.30 757.75 864.95 757.72 864.62 757.65 C 863.55 759.13 862.90 760.59 862.37 762.35 C 861.02 766.88 851.92 806.34 852.33 808.23 C 852.56 809.35 853.16 809.80 854.20 810.13 C 854.56 810.25 855.12 810.29 855.51 810.34 Z M 628.56 412.08 C 625.74 412.62 623.38 413.54 620.80 414.76 C 619.62 426.13 618.53 437.71 616.54 448.96 C 618.43 448.43 620.33 447.88 622.21 447.32 C 627.94 444.80 632.09 441.30 634.49 435.33 C 636.56 430.18 636.42 422.80 634.01 417.71 C 633.07 415.72 631.34 412.77 629.06 412.17 C 628.89 412.12 628.72 412.11 628.56 412.08 Z M 710.30 427.69 C 708.21 412.94 700.40 405.36 688.83 396.63 C 672.97 384.67 655.10 375.47 636.75 368.00 C 632.17 366.14 627.40 363.98 622.53 363.10 C 616.83 362.07 610.63 362.21 604.84 361.94 C 596.90 361.53 588.96 361.06 581.02 360.53 C 567.82 359.72 553.53 358.06 540.37 359.20 C 515.91 360.14 491.72 360.64 467.43 364.15 C 460.01 365.22 452.37 366.30 445.18 368.42 C 425.38 374.28 405.12 386.10 388.45 398.16 C 378.41 405.42 367.24 413.25 358.87 422.39 C 356.66 424.80 354.95 427.05 353.77 430.13 C 354.80 443.52 361.14 454.89 371.28 463.61 C 392.80 482.11 426.80 488.76 454.65 487.94 C 449.02 483.28 445.11 477.17 442.04 470.61 C 421.89 469.07 395.93 464.64 382.04 448.62 C 377.19 443.02 376.06 437.59 375.92 430.44 L 375.24 430.74 C 372.33 432.03 368.90 435.28 365.78 434.63 C 365.52 433.44 365.71 432.91 366.45 431.92 C 369.74 427.44 384.74 421.99 390.14 419.95 C 400.50 416.75 411.02 413.35 421.63 411.07 C 497.53 394.75 612.62 394.17 686.25 417.32 C 694.80 420.00 702.11 424.39 710.30 427.69 Z M 437.85 412.03 C 438.08 420.42 439.18 428.81 440.05 437.15 C 442.13 457.16 443.41 472.80 458.82 487.39 C 466.86 495.01 476.38 500.39 486.56 504.57 C 486.68 515.39 486.63 526.22 486.41 537.04 C 486.18 553.52 484.23 568.50 497.17 581.11 C 503.58 587.36 512.17 590.52 520.88 591.96 C 535.58 593.86 552.71 590.59 564.63 581.37 C 573.16 574.78 578.33 565.34 579.64 554.69 C 580.35 548.94 580.05 542.91 580.11 537.12 C 580.24 524.91 580.21 512.70 580.04 500.49 C 595.67 490.91 606.25 480.09 610.59 461.79 C 612.72 452.80 613.47 443.25 614.68 434.10 C 615.82 425.44 617.66 416.44 617.52 407.70 C 605.20 404.54 590.78 404.57 578.10 404.07 C 563.69 403.50 549.10 402.91 534.68 403.25 C 509.68 403.71 485.14 404.86 460.34 408.30 C 452.90 409.33 445.13 410.19 437.85 412.03 Z M 431.84 413.15 C 427.39 413.84 423.76 414.20 420.82 418.05 C 418.48 421.11 417.86 425.35 418.52 429.08 C 419.63 435.43 423.87 439.37 428.88 442.86 C 431.65 444.31 434.38 445.44 437.33 446.47 C 435.94 435.44 434.93 424.37 434.33 413.27 C 433.24 412.80 432.97 412.99 431.84 413.15 Z M 846.97 634.31 C 846.09 636.07 845.47 637.81 845.00 639.72 C 838.93 664.52 834.60 690.01 829.50 715.04 C 827.88 723.01 822.98 738.72 823.37 746.16 C 824.14 747.36 824.54 747.61 825.93 747.96 C 826.42 748.08 826.58 748.08 827.03 748.13 C 827.99 746.68 828.52 745.26 828.95 743.57 C 831.50 733.70 851.35 638.36 850.79 636.27 C 850.60 635.57 850.39 634.93 849.70 634.62 C 848.79 634.21 847.94 634.31 846.97 634.31 Z M 450.30 557.50 C 413.87 574.60 393.69 607.73 378.13 643.14 C 372.95 654.66 368.22 666.37 363.95 678.26 C 360.15 688.79 335.30 760.15 336.23 765.45 L 336.89 765.70 C 362.47 765.97 388.08 764.98 413.65 765.57 C 414.44 757.63 416.03 749.75 417.40 741.89 C 420.03 727.02 422.76 712.17 425.57 697.33 L 448.26 573.68 C 448.72 571.04 451.30 560.15 450.82 558.26 C 450.74 557.96 450.47 557.75 450.30 557.50 Z M 622.24 615.56 C 627.27 636.32 631.52 655.72 651.23 667.69 C 659.90 672.96 670.41 675.20 680.33 672.65 C 689.44 670.30 697.11 664.05 701.77 655.93 C 706.94 646.92 708.85 636.32 706.08 626.26 C 702.57 613.59 697.37 600.96 693.02 588.51 L 665.13 509.40 C 663.04 503.41 660.88 497.44 658.65 491.49 C 656.49 485.88 653.83 480.20 652.60 474.29 C 650.25 463.01 653.97 450.43 654.48 439.06 C 654.88 430.27 653.27 421.75 651.85 413.14 C 645.87 411.91 639.80 411.14 633.84 409.91 C 638.09 418.64 642.11 426.52 638.62 436.42 C 638.49 436.79 638.35 437.16 638.20 437.52 C 638.05 437.89 637.89 438.25 637.73 438.60 C 637.56 438.96 637.38 439.31 637.20 439.66 C 637.01 440.01 636.82 440.35 636.62 440.69 C 636.41 441.02 636.20 441.36 635.98 441.68 C 635.76 442.01 635.53 442.33 635.29 442.64 C 635.06 442.96 634.81 443.27 634.56 443.57 C 634.31 443.87 634.05 444.17 633.78 444.45 C 633.51 444.74 633.24 445.03 632.95 445.30 C 632.67 445.57 632.38 445.84 632.09 446.10 C 631.79 446.36 631.49 446.61 631.18 446.86 C 630.87 447.10 630.55 447.34 630.23 447.57 C 629.91 447.79 629.59 448.01 629.25 448.22 C 628.92 448.44 628.58 448.64 628.24 448.83 C 627.90 449.03 627.55 449.21 627.20 449.39 C 626.84 449.56 626.49 449.73 626.13 449.89 C 622.91 451.31 619.85 451.73 616.38 451.81 C 614.13 463.27 611.60 472.60 605.73 482.78 C 608.41 489.49 609.94 496.96 611.76 503.95 L 621.59 542.24 C 627.72 565.92 635.15 589.30 641.16 613.01 C 641.67 615.01 642.10 616.98 641.82 619.05 L 641.02 619.99 C 640.02 619.95 640.12 620.18 639.60 619.51 C 637.10 616.26 623.22 560.61 619.84 551.01 C 614.58 548.87 609.41 546.83 603.95 545.23 C 608.80 562.08 612.74 579.29 617.14 596.28 C 618.80 602.65 620.17 609.32 622.24 615.56 Z" fill="#010101" fill-rule="nonzero" node-id="26" stroke="none" target-height="611.02893" target-width="821.1776" target-x="89.81939" target-y="206.932"></path><path d="M 529.23 405.71 L 531.14 406.19 C 532.98 408.97 528.84 411.48 528.43 414.45 C 528.53 414.58 528.63 414.70 528.72 414.83 C 531.31 418.57 531.48 428.00 530.58 432.39 C 530.05 434.94 529.38 436.09 527.18 437.51 C 526.14 437.29 524.86 437.10 523.98 436.46 C 522.39 435.31 521.79 432.76 521.51 430.93 C 520.06 421.12 523.34 413.26 529.23 405.71 Z" fill="#010101" fill-rule="nonzero" node-id="28" stroke="none" target-height="31.799988" target-width="12.92395" target-x="520.056" target-y="405.713"></path><path d="M 517.83 459.08 C 521.82 460.54 526.61 462.42 530.89 462.32 C 534.14 462.25 538.12 459.38 541.14 460.41 C 541.46 461.68 541.28 461.80 540.75 463.02 C 537.16 465.18 533.25 465.66 529.14 465.59 C 525.20 465.52 520.54 465.28 517.65 462.31 C 517.16 460.83 517.39 460.53 517.83 459.08 Z" fill="#010101" fill-rule="nonzero" node-id="30" stroke="none" target-height="6.583954" target-width="24.294006" target-x="517.161" target-y="459.079"></path><path d="M 496.56 418.23 C 496.66 418.19 496.76 418.15 496.86 418.12 C 496.97 418.08 497.07 418.06 497.18 418.03 C 497.28 418.01 497.39 417.99 497.50 417.98 C 497.60 417.97 497.71 417.96 497.82 417.96 C 497.93 417.96 498.03 417.96 498.14 417.97 C 498.25 417.98 498.35 417.99 498.46 418.01 C 498.57 418.03 498.67 418.06 498.77 418.09 C 498.88 418.12 498.98 418.15 499.08 418.19 C 499.18 418.23 499.28 418.27 499.37 418.32 C 499.47 418.37 499.56 418.43 499.65 418.48 C 499.75 418.54 499.83 418.60 499.92 418.67 C 500.00 418.74 500.08 418.81 500.16 418.88 C 500.24 418.96 500.31 419.03 500.38 419.12 C 500.45 419.20 500.52 419.28 500.58 419.37 C 500.64 419.46 500.70 419.55 500.75 419.64 C 500.81 419.74 500.85 419.83 500.90 419.93 C 500.94 420.03 500.98 420.13 501.01 420.23 C 501.05 420.34 501.08 420.44 501.10 420.55 C 501.12 420.65 501.14 420.76 501.15 420.86 C 501.17 420.97 501.18 421.08 501.18 421.19 C 501.18 421.29 501.18 421.40 501.17 421.51 C 501.16 421.62 501.15 421.72 501.13 421.83 C 501.12 421.94 501.09 422.04 501.06 422.14 C 501.04 422.25 501.00 422.35 500.96 422.45 C 500.93 422.55 500.88 422.65 500.83 422.75 C 500.79 422.84 500.73 422.94 500.68 423.03 C 500.62 423.12 500.56 423.21 500.49 423.29 C 500.43 423.38 500.36 423.46 500.28 423.54 C 500.21 423.62 500.13 423.69 500.05 423.76 C 499.97 423.83 499.88 423.90 499.80 423.96 C 499.71 424.03 499.62 424.09 499.52 424.14 C 499.43 424.19 499.34 424.24 499.24 424.29 C 499.11 424.35 498.97 424.40 498.83 424.44 C 498.69 424.48 498.55 424.52 498.40 424.54 C 498.26 424.56 498.12 424.58 497.97 424.58 C 497.83 424.59 497.68 424.58 497.54 424.57 C 497.39 424.55 497.25 424.53 497.11 424.49 C 496.96 424.46 496.82 424.42 496.69 424.37 C 496.55 424.31 496.42 424.25 496.29 424.18 C 496.16 424.11 496.04 424.04 495.92 423.95 C 495.81 423.87 495.69 423.77 495.59 423.67 C 495.48 423.57 495.38 423.47 495.29 423.35 C 495.20 423.24 495.12 423.12 495.04 423.00 C 494.97 422.87 494.90 422.74 494.84 422.61 C 494.78 422.48 494.73 422.34 494.69 422.20 C 494.65 422.06 494.62 421.92 494.60 421.77 C 494.57 421.63 494.56 421.49 494.56 421.34 C 494.56 421.20 494.56 421.05 494.58 420.90 C 494.59 420.76 494.62 420.62 494.65 420.48 C 494.69 420.33 494.73 420.20 494.79 420.06 C 494.84 419.92 494.90 419.79 494.97 419.67 C 495.04 419.54 495.12 419.42 495.21 419.30 C 495.30 419.18 495.39 419.07 495.49 418.97 C 495.59 418.86 495.70 418.76 495.81 418.67 C 495.93 418.58 496.05 418.50 496.17 418.43 C 496.30 418.35 496.43 418.29 496.56 418.23 Z" fill="#010101" fill-rule="nonzero" node-id="32" stroke="none" target-height="6.627655" target-width="6.627014" target-x="494.55533" target-y="417.959"></path><path d="M 558.33 416.44 C 559.32 416.50 560.61 416.56 561.48 417.07 C 562.71 417.78 562.77 418.43 563.02 419.69 C 562.55 421.38 561.85 421.99 560.51 423.10 C 559.63 422.89 558.61 422.70 557.78 422.32 C 556.56 421.76 556.37 421.04 556.07 419.84 C 556.55 418.27 557.16 417.57 558.33 416.44 Z" fill="#010101" fill-rule="nonzero" node-id="34" stroke="none" target-height="6.6600037" target-width="6.9570313" target-x="556.066" target-y="416.438"></path><path d="M 429.87 384.88 C 430.98 384.98 431.56 385.18 432.52 385.75 L 432.77 386.85 C 431.86 388.84 415.87 401.00 412.80 403.65 C 412.46 403.64 412.03 403.64 411.72 403.51 C 410.76 403.09 410.48 402.58 410.10 401.70 C 411.74 397.35 425.38 387.68 429.87 384.88 Z" fill="#010101" fill-rule="nonzero" node-id="36" stroke="none" target-height="18.768036" target-width="22.666016" target-x="410.101" target-y="384.87997"></path><path d="M 645.87 382.47 C 650.36 383.78 665.39 394.04 668.14 397.87 C 669.11 399.21 668.81 400.03 668.56 401.52 C 665.71 400.73 646.91 387.60 645.12 385.57 C 645.02 384.14 645.25 383.79 645.87 382.47 Z" fill="#010101" fill-rule="nonzero" node-id="38" stroke="none" target-height="19.054016" target-width="24.086975" target-x="645.025" target-y="382.469"></path><path d="M 466.75 375.26 C 467.81 375.33 468.34 375.54 469.25 376.09 L 469.38 377.13 C 468.44 378.94 454.53 392.54 451.51 396.01 C 450.94 395.92 450.27 395.66 449.71 395.49 C 449.35 394.95 449.01 394.74 449.12 394.05 C 449.82 389.68 462.85 377.84 466.75 375.26 Z" fill="#010101" fill-rule="nonzero" node-id="40" stroke="none" target-height="20.759003" target-width="20.375977" target-x="449.008" target-y="375.256"></path><path d="M 604.62 370.75 C 606.45 371.38 617.77 383.42 619.15 385.55 C 619.88 386.67 619.15 387.71 618.74 388.80 C 618.34 388.72 617.94 388.67 617.55 388.57 C 614.48 387.81 605.93 377.39 604.50 374.23 C 603.85 372.81 604.14 372.19 604.62 370.75 Z" fill="#010101" fill-rule="nonzero" node-id="42" stroke="none" target-height="18.047974" target-width="16.028992" target-x="603.849" target-y="370.752"></path><path d="M 548.64 370.30 C 549.99 370.36 550.58 370.22 551.64 371.12 C 554.06 373.19 562.50 384.25 562.55 387.23 C 562.21 387.32 561.78 387.46 561.43 387.48 C 560.33 387.53 559.82 387.26 559.02 386.54 C 555.36 383.27 549.07 375.25 548.64 370.30 Z" fill="#010101" fill-rule="nonzero" node-id="44" stroke="none" target-height="17.311005" target-width="13.903992" target-x="548.643" target-y="370.217"></path><path d="M 509.78 371.24 C 510.12 371.47 510.86 371.94 511.12 372.24 C 511.60 372.77 511.66 373.35 511.58 374.01 C 511.13 377.77 506.84 383.66 503.91 385.99 C 503.65 385.88 503.37 385.79 503.13 385.64 C 502.05 385.01 501.96 384.65 501.70 383.52 C 502.75 379.24 506.94 374.58 509.78 371.24 Z" fill="#010101" fill-rule="nonzero" node-id="46" stroke="none" target-height="14.749054" target-width="9.962982" target-x="501.696" target-y="371.244"></path><path d="M 506.17 292.86 C 507.40 293.50 507.83 293.55 508.47 294.75 C 506.46 298.81 500.88 301.79 498.19 305.75 C 494.37 311.37 493.29 318.20 489.75 323.75 C 489.16 323.56 488.64 323.23 488.09 322.93 C 487.24 321.41 487.39 320.20 487.76 318.57 C 489.96 308.84 497.75 298.12 506.17 292.86 Z" fill="#010101" fill-rule="nonzero" node-id="48" stroke="none" target-height="30.893005" target-width="21.231995" target-x="487.236" target-y="292.86"></path><path d="M 555.70 290.75 C 563.48 295.76 573.65 306.93 576.42 315.88 C 577.03 317.85 576.77 318.68 575.80 320.46 C 572.01 317.90 567.28 307.04 563.91 302.70 C 561.41 299.50 557.75 297.32 555.05 294.24 C 554.63 292.68 555.09 292.21 555.70 290.75 Z" fill="#010101" fill-rule="nonzero" node-id="50" stroke="none" target-height="29.714996" target-width="22.404968" target-x="554.629" target-y="290.75"></path><path d="M 528.21 290.75 C 529.44 290.88 530.26 290.85 531.24 291.69 C 531.36 298.39 529.83 305.57 531.27 312.17 C 531.86 314.85 533.61 319.32 532.55 321.85 C 532.24 321.80 531.92 321.79 531.62 321.72 C 530.27 321.40 529.75 320.76 529.20 319.54 C 526.45 313.40 525.99 296.95 528.21 290.75 Z" fill="#010101" fill-rule="nonzero" node-id="52" stroke="none" target-height="31.10199" target-width="7.619995" target-x="525.986" target-y="290.745"></path><path d="M 180.40 328.18 C 181.72 328.56 181.95 328.53 182.79 329.58 C 183.07 331.51 182.70 333.40 182.19 335.26 C 180.37 341.89 178.08 348.48 176.10 355.07 L 157.34 416.39 L 149.61 441.67 C 147.34 449.32 145.32 460.27 141.28 466.87 C 141.11 466.80 140.94 466.75 140.78 466.65 C 140.28 466.35 139.46 465.89 139.32 465.28 C 139.03 463.98 139.68 462.26 140.05 461.00 C 148.98 430.00 158.95 399.30 168.23 368.39 L 176.35 341.26 C 177.59 337.06 178.37 332.04 180.40 328.18 Z" fill="#010101" fill-rule="nonzero" node-id="54" stroke="none" target-height="138.69199" target-width="44.03601" target-x="139.034" target-y="328.18"></path><path d="M 160.32 258.57 C 160.38 258.58 160.44 258.59 160.49 258.61 C 161.94 259.17 162.06 259.13 162.73 260.48 C 162.80 263.36 133.31 363.86 131.04 369.38 C 130.63 369.25 129.90 369.04 129.54 368.84 C 128.97 368.54 128.38 368.10 128.26 367.43 C 128.07 366.35 157.05 264.93 160.32 258.57 Z" fill="#010101" fill-rule="nonzero" node-id="56" stroke="none" target-height="110.81198" target-width="34.72899" target-x="128.072" target-y="258.566"></path><path d="M 919.48 421.25 C 919.84 421.42 920.48 421.70 920.78 421.95 C 921.67 422.69 921.73 423.40 921.65 424.50 C 921.33 428.89 919.89 433.61 918.92 437.91 L 913.89 460.76 L 909.32 482.38 C 908.59 485.86 908.10 489.80 906.95 493.15 C 906.61 494.12 906.02 494.69 905.31 495.39 C 904.63 494.70 904.03 493.94 903.41 493.21 C 903.22 490.33 916.40 430.05 918.04 424.12 C 918.36 422.94 918.76 422.21 919.48 421.25 Z" fill="#010101" fill-rule="nonzero" node-id="58" stroke="none" target-height="74.14203" target-width="18.512085" target-x="903.2199" target-y="421.246"></path><path d="M 939.37 481.72 C 940.30 481.93 940.99 482.22 941.83 482.66 C 941.94 483.04 942.14 483.41 942.15 483.81 C 942.17 484.48 927.19 547.54 926.28 549.46 C 924.97 549.09 924.56 548.80 923.72 547.73 C 923.34 545.94 937.39 484.91 939.37 481.72 Z" fill="#010101" fill-rule="nonzero" node-id="60" stroke="none" target-height="67.73297" target-width="18.832153" target-x="923.3419" target-y="481.724"></path><path d="M 96.63 451.11 C 97.30 451.34 97.92 451.65 98.57 451.95 C 98.69 452.33 98.91 452.69 98.95 453.09 C 99.24 455.82 84.85 500.14 83.00 504.34 C 81.73 504.05 81.39 504.06 80.47 503.16 C 80.34 499.26 94.26 454.86 96.63 451.11 Z" fill="#010101" fill-rule="nonzero" node-id="62" stroke="none" target-height="53.22998" target-width="18.900497" target-x="80.3425" target-y="451.11203"></path><path d="M 212.12 231.16 C 212.68 231.34 213.12 231.63 213.63 231.92 C 214.81 236.61 202.18 275.69 199.15 281.14 C 198.03 280.59 197.67 280.48 196.99 279.47 C 196.84 274.24 208.98 235.39 212.12 231.16 Z" fill="#010101" fill-rule="nonzero" node-id="64" stroke="none" target-height="49.986008" target-width="17.968002" target-x="196.841" target-y="231.157"></path><path d="M 124.45 509.24 C 125.12 509.61 126.11 510.20 126.24 511.00 C 126.70 513.62 111.99 559.50 110.13 561.92 C 109.52 561.60 108.93 561.16 108.35 560.79 C 108.16 560.33 108.10 560.27 108.07 559.70 C 107.94 557.35 120.86 516.45 122.68 511.78 C 123.10 510.70 123.64 510.05 124.45 509.24 Z" fill="#010101" fill-rule="nonzero" node-id="66" stroke="none" target-height="52.677002" target-width="18.755005" target-x="107.940994" target-y="509.24103"></path></svg>