<?xml version="1.0" standalone="no"?><!DOCTYPE svg PUBLIC "-//W3C//DTD SVG 1.1//EN" "http://www.w3.org/Graphics/SVG/1.1/DTD/svg11.dtd"><svg height="1024" node-id="1" sillyvg="true" template-height="1024" template-width="1024" version="1.1" viewBox="0 0 1024 1024" width="1024" xmlns="http://www.w3.org/2000/svg" xmlns:xlink="http://www.w3.org/1999/xlink"><defs node-id="47"><linearGradient gradientUnits="objectBoundingBox" id="gradient_0" node-id="14" spreadMethod="pad" x1="236.704" x2="229.93279" y1="345.7567" y2="348.38425"><stop offset="0" stop-color="#2c1e31"></stop><stop offset="1" stop-color="#32353a"></stop></linearGradient><linearGradient gradientUnits="objectBoundingBox" id="gradient_1" node-id="19" spreadMethod="pad" x1="276.3086" x2="274.2156" y1="729.89923" y2="741.46704"><stop offset="0" stop-color="#1a141d"></stop><stop offset="1" stop-color="#262929"></stop></linearGradient><linearGradient gradientUnits="objectBoundingBox" id="gradient_2" node-id="36" spreadMethod="pad" x1="490.30038" x2="488.38553" y1="269.00397" y2="301.8904"><stop offset="0" stop-color="#111313"></stop><stop offset="1" stop-color="#16101e"></stop></linearGradient></defs><path d="M 694.29 281.38 C 700.77 280.88 707.39 281.11 713.90 281.10 L 745.64 281.05 C 754.78 281.03 771.28 280.11 779.62 281.24 C 781.61 281.51 783.72 282.34 785.18 283.76 C 786.91 285.44 787.44 287.91 787.82 290.21 C 788.77 295.91 788.37 302.29 788.46 308.08 L 789.00 340.19 C 794.41 337.39 800.54 334.53 806.76 336.38 C 810.76 337.57 813.45 340.61 815.27 344.25 C 823.78 361.30 815.56 388.48 809.58 405.52 C 809.33 406.23 809.07 406.93 808.79 407.63 C 824.60 384.63 849.71 363.41 877.84 358.26 C 887.90 356.41 898.04 357.55 906.54 363.57 C 918.29 371.90 924.52 387.24 926.75 401.00 C 929.65 418.92 925.97 437.02 915.26 451.83 C 909.64 459.59 902.65 465.94 896.00 472.78 C 907.53 469.45 918.05 468.96 928.82 474.98 C 938.22 480.22 945.45 489.89 948.23 500.24 C 952.44 515.88 946.88 531.47 938.96 544.93 C 927.14 565.05 909.26 588.37 892.79 604.86 C 901.43 601.68 909.67 600.08 918.43 604.28 C 927.37 608.58 933.93 617.89 936.92 627.14 C 942.75 645.16 938.41 663.52 929.89 679.88 C 915.18 708.13 889.36 732.31 862.68 749.21 C 858.57 751.82 853.93 755.46 849.41 757.14 L 848.52 756.93 C 848.06 755.87 848.12 755.87 848.45 754.75 C 851.27 752.14 855.07 750.37 858.35 748.34 C 862.61 745.67 866.76 742.82 870.79 739.82 C 899.59 718.45 934.64 684.59 936.26 646.60 C 936.75 635.01 934.01 622.82 925.95 614.09 C 920.98 608.71 914.17 605.16 906.78 604.93 C 893.23 604.51 880.34 619.62 877.53 619.04 C 877.22 618.45 876.83 618.11 877.03 617.42 C 877.53 615.63 885.93 607.74 887.86 605.54 C 906.01 585.01 940.32 546.94 946.00 520.53 C 946.23 519.50 946.41 518.46 946.56 517.41 C 946.70 516.37 946.81 515.32 946.87 514.26 C 946.93 513.21 946.94 512.16 946.92 511.10 C 946.89 510.05 946.83 508.99 946.72 507.94 C 946.61 506.89 946.45 505.85 946.26 504.81 C 946.07 503.78 945.83 502.75 945.55 501.73 C 945.27 500.71 944.96 499.71 944.60 498.71 C 944.24 497.72 943.84 496.74 943.40 495.79 C 939.20 486.51 931.39 478.59 921.73 475.11 C 921.27 474.94 920.81 474.79 920.34 474.65 C 919.87 474.51 919.40 474.38 918.93 474.26 C 918.45 474.14 917.98 474.03 917.50 473.93 C 917.02 473.83 916.54 473.74 916.06 473.66 C 915.58 473.59 915.09 473.52 914.61 473.46 C 914.12 473.41 913.64 473.36 913.15 473.33 C 912.66 473.30 912.17 473.27 911.68 473.26 C 911.20 473.25 910.71 473.25 910.22 473.26 C 909.73 473.27 909.24 473.29 908.76 473.32 C 908.27 473.35 907.78 473.39 907.30 473.45 C 906.81 473.50 906.33 473.56 905.85 473.64 C 905.36 473.71 904.88 473.80 904.40 473.90 C 903.92 473.99 903.45 474.10 902.97 474.22 C 902.50 474.34 902.03 474.46 901.56 474.60 C 901.09 474.74 900.63 474.89 900.17 475.05 C 899.70 475.21 899.25 475.38 898.79 475.56 C 895.00 477.08 891.29 479.17 887.42 480.44 C 885.87 480.96 884.27 481.68 883.32 479.99 C 884.44 476.53 891.12 472.48 894.00 469.82 C 901.58 462.82 909.44 455.21 915.03 446.50 C 927.26 427.45 927.75 401.79 917.38 381.81 C 912.79 372.95 905.87 364.64 895.97 361.74 C 881.60 357.53 863.86 364.60 851.53 371.62 C 841.04 377.59 831.99 385.44 823.64 394.10 C 819.18 398.78 815.02 403.72 811.18 408.93 C 809.10 411.79 807.30 415.02 805.03 417.72 C 804.19 418.72 803.47 419.31 802.22 419.76 L 801.20 419.30 C 800.98 415.37 805.21 407.13 806.68 402.97 C 811.59 389.04 822.42 353.71 809.71 341.75 C 807.47 339.64 804.57 338.80 801.54 339.00 C 797.08 339.31 792.77 341.63 788.98 343.86 C 790.15 422.50 790.85 501.14 791.06 579.78 L 792.00 685.74 C 792.02 699.71 792.87 714.00 792.17 727.92 C 792.04 730.50 791.84 732.53 789.97 734.45 C 787.00 737.52 754.90 736.38 748.44 736.38 L 614.97 736.83 C 591.16 736.93 567.29 737.31 543.49 736.99 C 543.51 741.32 543.44 745.68 543.61 750.00 C 578.16 764.49 604.58 786.79 625.67 817.65 C 629.82 823.72 635.05 830.53 637.84 837.35 C 638.28 838.42 638.52 839.23 638.28 840.38 L 637.71 840.66 C 636.35 840.08 635.72 839.27 634.87 838.11 C 631.91 834.09 629.54 829.41 626.88 825.17 C 623.35 819.53 619.25 814.12 615.14 808.87 C 597.72 786.63 580.78 773.29 556.28 759.63 C 546.80 772.81 533.42 782.03 517.30 784.73 C 502.69 787.18 488.51 782.20 476.70 773.68 C 474.32 771.97 472.05 770.12 469.90 768.13 C 467.74 766.15 465.72 764.03 463.83 761.79 C 440.30 775.23 421.57 791.15 405.86 813.35 C 402.44 818.15 399.22 823.08 396.21 828.14 C 393.90 832.01 391.85 836.36 388.98 839.84 C 388.24 840.72 387.47 841.79 386.27 841.61 C 385.45 834.77 403.51 810.61 408.76 803.94 C 409.90 802.47 411.06 801.02 412.25 799.58 C 413.44 798.15 414.65 796.74 415.88 795.34 C 417.12 793.95 418.37 792.58 419.65 791.22 C 420.93 789.87 422.23 788.54 423.55 787.23 C 424.87 785.92 426.21 784.63 427.58 783.36 C 428.94 782.09 430.32 780.85 431.73 779.63 C 433.13 778.41 434.56 777.21 436.00 776.03 C 437.44 774.85 438.90 773.70 440.38 772.57 C 441.86 771.45 443.36 770.34 444.88 769.26 C 446.39 768.18 447.93 767.13 449.48 766.10 C 451.03 765.07 452.60 764.06 454.18 763.08 C 455.76 762.10 457.36 761.15 458.97 760.22 C 460.59 759.30 462.22 758.40 463.86 757.52 C 465.50 756.65 467.16 755.80 468.83 754.98 C 470.50 754.16 472.19 753.37 473.88 752.60 C 475.58 751.84 477.29 751.10 479.01 750.39 C 479.00 746.17 479.14 741.88 478.75 737.68 C 466.04 736.19 452.50 737.10 439.68 737.12 L 358.06 737.12 C 345.55 737.12 330.99 738.07 318.79 737.06 C 315.35 737.27 311.86 737.13 308.42 737.09 L 241.12 737.24 C 239.59 737.07 238.02 736.96 236.80 735.90 C 235.78 735.01 235.22 733.78 234.89 732.50 C 233.50 727.13 234.64 720.04 234.53 714.43 C 234.12 685.37 233.92 656.32 233.93 627.26 L 232.94 482.44 C 232.88 464.56 231.98 446.56 232.52 428.69 C 231.99 420.28 232.24 411.65 232.16 403.21 L 231.94 355.79 C 231.72 349.23 231.81 342.65 231.80 336.09 C 231.71 330.72 231.67 325.35 231.34 319.99 C 230.43 319.28 229.67 319.63 228.56 319.74 C 226.43 321.56 223.32 322.42 221.05 324.19 C 205.81 336.08 209.75 379.42 211.75 397.31 C 212.34 402.55 214.50 408.59 213.98 413.77 L 213.05 414.31 C 209.92 413.17 206.69 404.67 204.94 401.45 C 196.06 385.10 184.82 369.37 168.33 359.99 C 156.12 353.05 141.85 350.45 128.20 354.35 C 127.52 354.54 126.84 354.75 126.17 354.97 C 125.50 355.20 124.84 355.44 124.18 355.70 C 123.52 355.96 122.87 356.23 122.22 356.52 C 121.58 356.81 120.94 357.12 120.31 357.44 C 119.68 357.76 119.06 358.10 118.44 358.45 C 117.83 358.80 117.23 359.17 116.63 359.56 C 116.04 359.94 115.45 360.33 114.88 360.75 C 114.30 361.16 113.74 361.58 113.18 362.02 C 112.63 362.46 112.08 362.91 111.55 363.38 C 111.02 363.85 110.50 364.33 109.99 364.82 C 109.48 365.31 108.99 365.82 108.50 366.33 C 108.02 366.85 107.55 367.38 107.09 367.92 C 106.64 368.46 106.19 369.01 105.76 369.57 C 105.33 370.13 104.92 370.70 104.51 371.28 C 104.11 371.87 103.73 372.46 103.35 373.06 C 102.98 373.66 102.62 374.27 102.28 374.89 C 87.96 400.71 99.85 429.48 118.31 449.42 C 120.62 451.91 128.70 458.04 129.41 460.57 C 127.76 462.16 120.74 459.80 118.32 459.38 C 111.23 458.14 102.59 460.40 96.38 463.85 C 87.81 468.60 81.75 476.83 79.21 486.25 C 71.33 515.47 104.50 548.98 125.92 564.85 C 129.31 567.36 141.37 573.87 143.04 576.78 C 139.97 578.24 132.83 575.39 129.21 575.17 C 117.32 574.43 104.97 578.12 95.85 585.83 C 87.29 593.07 81.59 603.63 80.78 614.86 C 78.15 651.17 126.18 701.34 153.48 721.85 C 158.94 725.95 164.58 729.88 170.25 733.69 C 173.89 736.13 180.63 738.75 183.29 742.14 C 183.92 742.94 183.75 742.56 183.59 743.70 L 182.28 744.25 C 170.23 740.55 141.86 716.79 132.22 707.55 C 110.86 687.07 87.80 661.68 79.96 632.39 C 78.84 628.22 77.77 624.00 77.71 619.66 C 77.54 607.16 81.75 595.27 90.60 586.28 C 101.66 575.06 115.17 572.07 130.38 571.97 C 126.22 569.23 122.21 566.30 118.34 563.16 C 114.48 560.03 110.77 556.71 107.24 553.21 C 92.11 538.45 75.00 517.84 74.90 495.54 C 74.85 485.35 79.03 474.42 86.26 467.15 C 95.58 457.78 106.96 456.04 119.61 455.98 C 110.53 446.12 102.15 435.74 97.30 423.10 C 91.59 408.23 91.48 391.65 98.02 377.02 C 103.01 365.84 111.73 356.78 123.32 352.47 C 152.03 341.77 180.30 358.96 196.81 381.98 C 198.56 384.42 208.07 401.31 209.03 401.74 C 209.74 397.70 208.15 392.04 207.74 387.86 C 205.99 369.96 204.55 337.88 216.70 323.71 C 220.40 319.40 224.95 317.11 230.58 316.67 C 230.82 316.59 231.15 316.64 231.32 316.44 C 232.29 315.33 229.24 289.60 233.54 285.40 C 237.71 281.33 251.79 282.97 257.78 282.95 C 259.48 282.69 261.00 282.66 262.72 282.74 L 262.48 284.08 L 262.76 284.38 L 261.27 285.28 L 263.27 285.56 C 261.93 286.07 260.43 285.73 259.03 286.25 C 259.19 286.31 259.35 286.37 259.51 286.43 C 261.74 287.21 264.62 286.57 266.44 287.72 L 267.38 290.13 C 257.70 290.13 247.84 289.72 238.18 290.59 C 238.61 301.17 238.58 311.74 238.88 322.31 C 277.57 322.49 316.25 322.46 354.93 322.20 L 778.45 321.52 C 778.93 316.29 779.43 294.05 777.38 290.55 C 770.80 286.00 729.23 290.02 716.97 288.61 C 716.81 288.59 716.65 288.57 716.49 288.55 C 716.38 288.44 716.31 288.28 716.17 288.21 C 715.62 287.90 715.00 287.71 714.46 287.39 L 715.71 287.72 C 714.17 286.57 713.78 286.36 711.83 286.36 C 711.56 286.36 711.29 286.36 711.02 286.37 L 710.40 285.69 L 711.59 285.71 L 710.96 285.46 C 713.18 284.78 715.62 283.00 717.63 281.81 C 710.11 281.13 702.49 281.96 694.95 281.43 L 694.29 281.38 Z M 279.07 595.97 C 311.05 596.60 343.13 595.94 375.12 595.87 C 388.99 595.95 402.85 595.86 416.72 595.58 C 422.31 595.48 428.14 595.79 433.69 595.18 L 439.42 595.12 C 444.84 581.46 458.13 563.57 469.86 554.66 C 478.28 548.25 489.04 543.95 499.76 545.63 C 507.21 546.81 511.69 550.18 516.06 556.06 C 518.18 555.33 520.15 554.53 522.43 554.50 C 529.54 553.97 538.03 556.51 543.94 560.50 C 553.29 565.34 564.87 574.13 569.34 583.95 C 571.87 586.52 573.59 591.26 575.09 594.55 C 582.08 593.82 589.32 594.11 596.35 594.12 L 629.80 594.19 L 741.93 593.49 C 742.99 557.94 741.42 522.17 741.15 486.60 C 740.85 447.00 741.72 407.27 740.45 367.69 L 273.56 368.99 C 276.45 444.63 278.29 520.29 279.07 595.97 Z M 238.97 325.87 L 242.53 730.00 C 290.56 730.53 338.64 730.03 386.67 729.94 L 426.80 729.89 C 434.95 729.87 443.19 729.59 451.34 729.97 C 459.91 728.82 469.30 730.34 478.14 729.35 C 478.66 725.84 478.80 722.46 478.80 718.91 C 472.46 714.93 465.16 716.16 458.06 715.26 C 443.65 713.45 424.69 706.10 414.76 695.13 C 424.02 685.28 431.89 675.51 436.73 662.76 C 421.91 662.48 386.72 664.81 374.75 660.93 C 371.29 659.82 367.66 657.36 366.01 654.04 C 364.77 651.53 364.48 648.44 365.49 645.80 C 366.91 642.12 370.61 639.57 374.10 638.07 C 377.55 636.59 381.35 635.84 385.07 635.41 C 393.96 634.40 422.57 633.74 430.50 636.47 C 436.65 638.58 441.20 643.40 447.17 645.79 C 447.35 645.86 447.55 645.93 447.74 646.00 C 445.41 642.29 443.12 638.38 441.20 634.44 C 436.26 624.32 434.26 609.96 438.11 599.17 C 438.17 599.01 438.23 598.87 438.28 598.72 C 436.97 598.03 434.97 598.33 433.49 598.36 C 414.94 598.91 396.31 598.56 377.75 598.66 L 276.10 599.02 C 275.41 552.90 274.43 506.78 273.18 460.68 L 271.79 410.61 C 271.32 396.65 270.48 382.48 270.79 368.51 C 270.81 367.80 271.00 367.30 271.34 366.68 C 276.16 364.88 357.92 365.93 371.80 365.88 L 646.71 364.26 L 714.61 364.13 C 720.65 364.10 738.69 363.13 742.86 364.36 C 743.78 365.35 743.86 365.93 743.94 367.27 C 744.52 377.52 743.94 388.14 743.95 398.42 L 744.22 463.54 L 745.02 555.02 C 745.07 568.40 745.54 581.95 745.09 595.32 C 745.07 595.69 745.06 596.05 745.04 596.42 C 726.44 597.11 707.77 596.93 689.15 596.99 L 621.17 597.36 C 606.06 597.43 591.05 596.71 575.93 597.57 L 577.34 602.63 C 580.37 612.66 580.92 623.66 580.03 634.04 C 594.06 634.12 608.09 634.11 622.12 634.01 C 627.61 634.00 633.38 633.34 638.83 633.82 C 641.17 634.03 643.50 634.58 645.55 635.76 C 645.97 636.00 646.38 636.26 646.77 636.54 C 647.16 636.82 647.53 637.12 647.89 637.44 C 648.25 637.76 648.60 638.09 648.92 638.45 C 649.25 638.80 649.55 639.17 649.84 639.55 C 650.13 639.94 650.40 640.34 650.64 640.75 C 650.89 641.16 651.12 641.59 651.32 642.02 C 651.52 642.46 651.70 642.91 651.86 643.36 C 652.02 643.81 652.15 644.28 652.27 644.74 C 653.19 648.81 651.97 652.86 649.73 656.29 C 648.47 658.21 646.83 659.81 644.62 660.57 C 636.68 663.32 602.07 661.99 591.98 662.03 C 589.65 662.04 584.61 661.44 582.51 662.29 C 581.14 662.84 581.16 663.27 580.72 664.56 C 582.44 668.06 585.98 671.38 588.38 674.51 C 593.42 681.08 598.48 687.89 603.11 694.75 C 593.20 703.03 580.08 709.00 567.62 712.16 C 563.06 713.31 545.81 714.15 543.38 717.14 C 542.09 718.73 542.95 726.65 543.03 729.02 L 681.65 728.82 C 714.73 728.56 747.81 728.53 780.89 728.74 C 781.98 687.49 781.07 646.01 780.99 604.74 C 781.09 534.56 780.63 464.39 779.61 394.22 L 779.06 349.28 C 779.03 342.77 779.97 330.14 778.56 324.61 L 407.67 325.60 L 296.92 325.91 L 259.29 325.87 C 252.54 325.85 245.72 325.56 238.97 325.87 Z M 784.31 521.64 C 784.25 524.32 783.98 527.10 784.65 529.71 C 785.56 530.52 785.42 530.31 786.54 530.28 C 786.72 527.79 787.28 524.35 785.33 522.39 C 784.99 522.04 784.71 521.89 784.31 521.64 Z M 475.81 768.52 C 487.28 777.22 499.67 783.78 514.49 781.80 C 515.21 781.71 515.93 781.59 516.64 781.47 C 517.36 781.34 518.08 781.20 518.79 781.05 C 519.50 780.90 520.21 780.73 520.91 780.55 C 521.62 780.37 522.32 780.18 523.02 779.97 C 523.72 779.76 524.41 779.54 525.10 779.30 C 525.79 779.07 526.47 778.82 527.15 778.56 C 527.83 778.30 528.51 778.02 529.17 777.74 C 529.84 777.45 530.51 777.15 531.16 776.84 C 531.82 776.52 532.47 776.20 533.12 775.86 C 533.76 775.52 534.40 775.17 535.03 774.81 C 535.66 774.44 536.29 774.07 536.90 773.68 C 537.52 773.29 538.13 772.89 538.73 772.48 C 539.33 772.07 539.92 771.65 540.51 771.22 C 541.09 770.78 541.67 770.34 542.24 769.88 C 542.80 769.43 543.36 768.96 543.91 768.48 C 544.46 768.00 545.00 767.51 545.53 767.01 C 548.51 764.23 551.08 761.02 554.06 758.27 C 550.43 756.56 546.77 754.90 543.09 753.29 C 536.16 762.46 526.98 768.05 515.52 769.67 C 504.99 771.17 494.26 769.42 485.68 762.83 C 482.67 760.52 480.28 757.81 478.36 754.54 C 474.61 756.40 470.81 758.20 467.14 760.23 C 469.72 763.38 472.59 766.02 475.81 768.52 Z M 445.82 668.40 C 447.78 668.88 450.16 669.51 451.96 668.42 C 451.02 661.98 450.53 654.64 448.59 648.47 C 447.57 648.00 448.02 648.05 447.28 648.05 C 444.38 648.56 442.95 649.12 441.26 651.60 C 439.51 654.16 439.31 657.28 440.02 660.23 C 440.85 663.75 442.94 666.33 445.82 668.40 Z M 568.76 669.19 L 574.91 666.45 C 577.28 663.54 579.43 659.74 579.12 655.85 C 579.10 655.52 579.05 655.20 578.99 654.87 C 578.94 654.55 578.86 654.23 578.77 653.91 C 578.68 653.60 578.57 653.29 578.45 652.98 C 578.32 652.68 578.18 652.38 578.03 652.09 C 577.88 651.80 577.71 651.52 577.52 651.24 C 577.34 650.97 577.14 650.71 576.93 650.45 C 576.73 650.20 576.50 649.96 576.27 649.73 C 576.03 649.50 575.79 649.28 575.53 649.07 C 574.35 648.15 572.96 647.40 571.66 646.65 C 570.66 654.11 569.31 661.69 568.76 669.19 Z M 785.96 417.13 C 785.91 412.27 786.64 405.89 783.57 401.85 C 783.63 405.46 782.22 413.92 784.08 416.73 L 785.96 417.13 Z M 586.38 658.93 L 620.89 659.01 C 627.15 659.02 634.09 659.60 640.26 658.47 C 642.37 658.09 644.19 657.20 645.73 655.69 C 647.97 653.49 649.05 650.38 648.96 647.26 C 648.88 644.58 648.04 641.90 645.95 640.12 C 643.40 637.95 639.69 636.54 636.34 636.78 C 618.13 636.97 597.59 635.97 579.67 637.40 C 577.92 639.75 576.17 641.81 574.05 643.84 C 574.87 644.74 574.36 644.36 575.48 644.87 C 577.82 645.95 580.51 648.63 581.46 651.06 C 582.46 653.65 581.34 656.83 583.42 658.86 L 586.38 658.93 Z M 481.93 753.42 C 482.99 754.91 484.01 756.40 485.26 757.75 C 492.75 764.06 501.31 767.55 511.20 766.75 C 520.27 766.01 530.95 762.57 536.90 755.29 C 538.30 753.60 539.58 751.55 540.07 749.38 C 540.93 745.60 540.38 725.80 539.90 721.49 C 539.80 720.60 539.92 720.60 539.27 719.97 C 524.94 727.66 510.97 731.25 494.89 726.48 C 490.30 725.12 486.11 723.08 481.90 720.82 C 481.99 729.27 483.17 746.21 481.93 753.42 Z M 569.82 628.18 C 553.18 615.88 531.47 606.01 519.92 588.25 C 519.38 587.40 518.85 586.39 518.09 585.73 C 506.83 607.32 492.51 610.46 471.11 618.97 C 464.65 621.53 458.58 625.01 452.11 627.54 C 449.75 649.80 456.72 689.10 470.91 706.84 C 479.43 717.48 491.46 723.16 504.79 724.81 C 505.67 724.89 506.54 724.94 507.42 724.98 C 508.29 725.01 509.17 725.03 510.05 725.02 C 510.92 725.01 511.80 724.98 512.67 724.93 C 513.55 724.88 514.42 724.81 515.30 724.72 C 516.17 724.62 517.04 724.51 517.90 724.37 C 518.77 724.24 519.63 724.08 520.49 723.90 C 521.35 723.73 522.20 723.53 523.05 723.31 C 523.90 723.09 524.74 722.85 525.58 722.59 C 526.42 722.33 527.25 722.05 528.07 721.75 C 528.89 721.44 529.71 721.12 530.52 720.78 C 531.33 720.44 532.12 720.08 532.91 719.70 C 533.71 719.32 534.49 718.92 535.26 718.50 C 536.03 718.08 536.79 717.64 537.53 717.19 C 538.28 716.73 539.02 716.26 539.75 715.77 C 540.47 715.28 541.19 714.77 541.89 714.24 C 542.59 713.71 543.28 713.17 543.95 712.61 C 568.32 692.54 566.08 656.71 569.82 628.18 Z M 440.51 645.97 C 436.70 643.22 432.93 640.72 428.38 639.36 C 420.13 636.88 398.17 637.63 388.94 638.18 C 382.25 638.71 374.39 639.75 369.73 645.16 C 368.42 646.69 367.21 648.78 367.62 650.87 C 368.11 653.38 370.68 655.17 372.78 656.31 C 374.26 657.11 375.80 657.77 377.40 658.29 C 379.00 658.81 380.63 659.18 382.30 659.41 C 387.58 660.16 392.99 659.63 398.31 659.53 C 405.33 659.40 412.35 659.41 419.37 659.38 C 425.16 659.37 430.98 659.25 436.76 659.43 C 437.01 654.29 437.88 650.49 440.51 645.97 Z" fill="#110e1a" fill-rule="nonzero" node-id="68" stroke="none" target-height="561.679" target-width="881.10645" target-x="71.3326" target-y="280.107"></path><path d="M 301.52 523.42 C 300.86 517.37 301.12 511.05 301.07 504.96 L 300.94 471.44 L 300.96 440.53 C 300.97 434.01 300.63 427.17 301.63 420.71 L 301.69 420.97 L 302.71 421.39 L 303.18 420.44 C 307.09 419.90 311.31 420.36 315.26 420.40 L 335.59 420.44 L 412.28 420.66 C 415.03 420.57 420.57 419.79 422.90 421.51 C 423.03 421.60 423.18 421.69 423.25 421.84 C 424.86 425.54 425.97 505.59 426.09 517.45 C 426.10 519.15 426.18 520.72 425.21 522.16 C 419.60 524.12 332.96 523.16 321.19 523.19 C 314.64 523.43 308.08 523.51 301.52 523.42 Z M 305.17 519.41 C 307.32 516.41 308.76 512.25 310.41 508.90 C 313.42 502.79 316.69 496.82 320.22 490.99 C 321.13 489.48 322.06 487.99 323.02 486.51 C 323.98 485.03 324.97 483.58 325.98 482.14 C 327.00 480.70 328.03 479.28 329.10 477.87 C 330.16 476.47 331.25 475.09 332.37 473.73 C 333.48 472.36 334.62 471.02 335.78 469.70 C 336.95 468.37 338.13 467.07 339.34 465.79 C 340.55 464.51 341.78 463.26 343.04 462.02 C 344.29 460.79 345.57 459.57 346.87 458.38 C 348.17 457.19 349.48 456.03 350.82 454.89 C 352.17 453.75 353.53 452.63 354.91 451.54 C 356.29 450.44 357.69 449.37 359.11 448.33 C 360.52 447.29 361.96 446.27 363.42 445.28 C 364.87 444.29 366.35 443.33 367.84 442.39 C 369.33 441.45 370.83 440.54 372.36 439.66 C 373.88 438.77 375.42 437.92 376.97 437.09 C 378.52 436.26 380.09 435.46 381.68 434.69 C 389.93 430.72 398.65 427.84 406.92 423.96 C 391.26 423.39 375.54 423.61 359.87 423.60 C 341.45 423.58 323.01 423.41 304.59 423.61 C 303.77 432.08 304.05 440.69 304.05 449.20 L 304.07 485.59 C 304.08 494.28 303.07 512.39 304.65 519.72 L 305.17 519.41 Z" fill="#15102c" fill-rule="nonzero" node-id="70" stroke="none" target-height="104.332" target-width="125.54196" target-x="300.634" target-y="419.785"></path><path d="M 301.52 523.42 C 300.86 517.37 301.12 511.05 301.07 504.96 L 300.94 471.44 L 300.96 440.53 C 300.97 434.01 300.63 427.17 301.63 420.71 L 301.69 420.97 L 302.71 421.39 L 303.18 420.44 C 307.09 419.90 311.31 420.36 315.26 420.40 L 335.59 420.44 L 412.28 420.66 C 409.86 421.07 407.47 421.51 405.02 421.68 L 404.19 422.36 L 404.24 422.94 L 406.23 422.97 C 406.91 423.77 406.77 423.40 406.92 423.96 C 391.26 423.39 375.54 423.61 359.87 423.60 C 341.45 423.58 323.01 423.41 304.59 423.61 C 303.77 432.08 304.05 440.69 304.05 449.20 L 304.07 485.59 C 304.08 494.28 303.07 512.39 304.65 519.72 L 305.17 519.41 C 305.38 519.46 305.60 519.52 305.81 519.58 C 307.52 520.05 308.57 520.46 309.92 521.62 C 312.82 524.13 317.54 523.26 321.19 523.19 C 314.64 523.43 308.08 523.51 301.52 523.42 Z" fill="#000000" fill-rule="nonzero" node-id="72" stroke="none" target-height="104.221985" target-width="111.64801" target-x="300.634" target-y="419.904"></path><path d="M 513.73 521.25 L 630.79 521.24 L 663.96 521.36 C 668.39 521.37 672.85 521.04 677.27 521.21 C 679.18 521.28 681.53 521.32 683.27 522.13 L 683.16 523.72 C 680.26 525.50 644.69 524.53 639.12 524.54 L 519.39 524.48 C 507.11 524.52 494.84 524.46 482.56 524.29 C 478.13 524.22 473.26 524.75 468.93 523.93 C 467.76 523.71 466.74 523.61 466.06 522.57 C 468.81 520.42 507.22 521.26 513.73 521.25 Z" fill="#000000" fill-rule="nonzero" node-id="74" stroke="none" target-height="5.072998" target-width="217.20496" target-x="466.06403" target-y="520.425"></path><path d="M 465.72 455.95 C 483.34 455.40 501.14 455.94 518.78 455.95 L 624.00 455.98 L 663.04 455.95 C 668.58 455.93 677.14 454.98 682.38 456.22 C 683.09 457.40 682.94 457.74 682.87 459.14 C 671.59 459.51 660.21 459.18 648.93 459.15 L 588.75 459.11 L 492.98 458.97 C 485.90 458.92 478.81 459.29 471.74 459.16 C 470.15 459.13 467.72 459.25 466.36 458.32 C 465.67 457.86 465.82 456.71 465.72 455.95 Z" fill="#000000" fill-rule="nonzero" node-id="76" stroke="none" target-height="4.537018" target-width="217.41803" target-x="465.672" target-y="454.975"></path><path d="M 509.05 488.74 C 545.89 488.25 582.75 488.62 619.60 488.60 L 662.35 488.56 C 668.14 488.55 674.10 488.15 679.86 488.37 C 681.30 488.42 682.48 488.54 683.66 489.42 L 683.77 490.26 L 682.90 491.35 C 677.65 491.94 672.10 491.62 666.82 491.63 L 637.88 491.69 L 523.16 491.80 L 490.22 491.71 C 483.03 491.71 475.70 491.97 468.53 491.48 C 467.15 491.39 466.66 491.34 465.56 490.46 L 465.85 489.84 C 472.13 487.66 500.68 488.81 509.05 488.74 Z" fill="#000000" fill-rule="nonzero" node-id="78" stroke="none" target-height="4.307007" target-width="218.20999" target-x="465.556" target-y="487.66098"></path><path d="M 542.57 421.76 L 546.12 421.67 C 572.15 421.07 598.27 421.68 624.31 421.62 L 657.71 421.50 C 663.97 421.46 670.41 421.10 676.65 421.46 C 678.55 421.57 681.52 421.65 682.97 423.03 C 682.88 423.13 682.79 423.25 682.68 423.34 C 681.34 424.46 678.45 424.57 676.76 424.67 C 668.16 425.20 659.28 424.72 650.65 424.71 L 601.38 424.68 L 466.69 424.68 C 465.75 424.04 465.85 424.33 465.52 423.10 C 466.66 422.18 467.50 422.03 468.96 421.91 C 476.03 421.34 483.66 421.90 490.78 421.89 L 542.57 421.76 Z" fill="#000000" fill-rule="nonzero" node-id="80" stroke="none" target-height="4.132019" target-width="217.45395" target-x="465.51602" target-y="421.067"></path><path d="M 713.95 627.70 C 714.10 627.69 714.25 627.67 714.40 627.66 C 726.91 626.77 746.49 627.50 756.44 636.40 C 758.72 638.44 760.48 641.20 760.55 644.34 C 760.61 647.39 759.11 650.08 756.92 652.12 C 749.70 658.90 735.12 661.73 725.62 661.50 C 713.25 662.46 693.67 661.39 683.36 653.71 C 680.66 651.71 678.13 648.91 677.80 645.41 C 677.58 643.05 678.50 640.91 679.98 639.12 C 687.15 630.40 703.47 628.53 713.95 627.70 Z M 721.23 659.01 C 731.53 657.85 749.24 657.03 756.14 647.99 C 757.29 646.48 757.87 644.90 757.57 642.98 C 757.18 640.40 754.51 638.35 752.45 637.09 C 742.82 631.21 728.77 629.51 717.68 630.30 C 707.92 631.17 689.89 632.77 683.25 640.88 C 682.09 642.30 681.39 644.04 681.72 645.90 C 682.20 648.61 684.60 650.64 686.82 652.02 C 696.33 657.92 710.25 659.15 721.23 659.01 Z" fill="#000000" fill-rule="nonzero" node-id="82" stroke="none" target-height="35.68097" target-width="83.03302" target-x="677.581" target-y="626.775"></path><path d="M 292.03 638.25 C 292.21 638.23 292.40 638.20 292.58 638.18 C 304.73 636.95 332.95 637.39 342.04 645.15 C 344.34 647.12 346.00 649.79 346.16 652.87 C 346.31 655.92 344.95 658.72 342.90 660.90 C 336.50 667.69 326.75 667.83 318.12 668.16 C 304.69 668.62 277.88 669.86 267.33 661.58 C 265.14 659.86 263.65 657.55 263.34 654.75 C 263.00 651.81 263.69 648.73 265.60 646.43 C 271.17 639.70 284.00 638.92 292.03 638.25 Z M 312.54 665.18 C 321.77 664.95 334.55 665.12 341.45 657.81 C 342.59 656.60 343.35 655.14 343.19 653.43 C 342.94 650.77 340.93 648.50 338.86 646.98 C 330.09 640.54 307.88 640.36 296.87 641.22 C 288.57 641.73 274.54 641.75 268.51 648.27 C 267.03 649.87 266.11 652.14 266.32 654.34 C 266.50 656.26 267.61 657.86 269.10 659.03 C 277.93 665.98 301.32 666.13 312.54 665.18 Z" fill="#000000" fill-rule="nonzero" node-id="84" stroke="none" target-height="32.90399" target-width="83.306" target-x="263.004" target-y="636.954"></path><path d="M 257.78 282.95 C 259.48 282.69 261.00 282.66 262.72 282.74 L 262.48 284.08 L 262.76 284.38 L 261.27 285.28 L 263.27 285.56 C 261.93 286.07 260.43 285.73 259.03 286.25 C 259.19 286.31 259.35 286.37 259.51 286.43 C 261.74 287.21 264.62 286.57 266.44 287.72 L 267.38 290.13 C 257.70 290.13 247.84 289.72 238.18 290.59 C 238.61 301.17 238.58 311.74 238.88 322.31 C 277.57 322.49 316.25 322.46 354.93 322.20 L 778.45 321.52 C 778.34 322.77 778.25 323.38 778.56 324.61 L 407.67 325.60 L 296.92 325.91 L 259.29 325.87 C 252.54 325.85 245.72 325.56 238.97 325.87 L 242.53 730.00 C 290.56 730.53 338.64 730.03 386.67 729.94 L 426.80 729.89 C 434.95 729.87 443.19 729.59 451.34 729.97 C 450.89 730.29 450.53 730.77 450.01 730.92 C 448.53 731.34 442.69 730.68 440.77 730.69 C 422.28 730.80 403.78 730.78 385.28 730.62 C 371.97 730.55 358.65 730.95 345.33 731.00 C 320.98 730.87 296.62 730.94 272.27 731.22 C 265.39 731.30 249.18 730.37 243.51 731.37 C 244.03 732.66 244.07 732.90 245.48 733.40 C 248.18 734.37 266.99 733.14 271.46 733.07 C 276.70 732.98 281.98 733.41 287.23 733.48 C 296.63 733.61 306.04 733.52 315.45 733.52 C 320.24 733.51 335.73 732.80 339.44 733.42 C 340.05 733.52 340.23 733.65 340.71 733.92 L 340.64 734.95 C 338.34 736.39 331.70 735.50 328.71 735.47 C 330.59 734.81 335.90 735.59 337.14 734.56 C 331.26 732.87 319.81 734.12 313.36 734.37 L 313.03 734.88 C 314.49 735.06 317.22 734.99 318.19 736.10 C 318.39 736.34 318.63 736.79 318.79 737.06 C 315.35 737.27 311.86 737.13 308.42 737.09 L 241.12 737.24 C 239.59 737.07 238.02 736.96 236.80 735.90 C 235.78 735.01 235.22 733.78 234.89 732.50 C 233.50 727.13 234.64 720.04 234.53 714.43 C 234.12 685.37 233.92 656.32 233.93 627.26 L 232.94 482.44 C 232.88 464.56 231.98 446.56 232.52 428.69 C 231.99 420.28 232.24 411.65 232.16 403.21 L 231.94 355.79 C 231.72 349.23 231.81 342.65 231.80 336.09 C 231.71 330.72 231.67 325.35 231.34 319.99 C 230.43 319.28 229.67 319.63 228.56 319.74 C 226.43 321.56 223.32 322.42 221.05 324.19 C 205.81 336.08 209.75 379.42 211.75 397.31 C 212.34 402.55 214.50 408.59 213.98 413.77 L 213.05 414.31 C 209.92 413.17 206.69 404.67 204.94 401.45 C 196.06 385.10 184.82 369.37 168.33 359.99 C 156.12 353.05 141.85 350.45 128.20 354.35 C 127.52 354.54 126.84 354.75 126.17 354.97 C 125.50 355.20 124.84 355.44 124.18 355.70 C 123.52 355.96 122.87 356.23 122.22 356.52 C 121.58 356.81 120.94 357.12 120.31 357.44 C 119.68 357.76 119.06 358.10 118.44 358.45 C 117.83 358.80 117.23 359.17 116.63 359.56 C 116.04 359.94 115.45 360.33 114.88 360.75 C 114.30 361.16 113.74 361.58 113.18 362.02 C 112.63 362.46 112.08 362.91 111.55 363.38 C 111.02 363.85 110.50 364.33 109.99 364.82 C 109.48 365.31 108.99 365.82 108.50 366.33 C 108.02 366.85 107.55 367.38 107.09 367.92 C 106.64 368.46 106.19 369.01 105.76 369.57 C 105.33 370.13 104.92 370.70 104.51 371.28 C 104.11 371.87 103.73 372.46 103.35 373.06 C 102.98 373.66 102.62 374.27 102.28 374.89 C 87.96 400.71 99.85 429.48 118.31 449.42 C 120.62 451.91 128.70 458.04 129.41 460.57 C 127.76 462.16 120.74 459.80 118.32 459.38 C 111.23 458.14 102.59 460.40 96.38 463.85 C 87.81 468.60 81.75 476.83 79.21 486.25 C 71.33 515.47 104.50 548.98 125.92 564.85 C 129.31 567.36 141.37 573.87 143.04 576.78 C 139.97 578.24 132.83 575.39 129.21 575.17 C 117.32 574.43 104.97 578.12 95.85 585.83 C 87.29 593.07 81.59 603.63 80.78 614.86 C 78.15 651.17 126.18 701.34 153.48 721.85 C 158.94 725.95 164.58 729.88 170.25 733.69 C 173.89 736.13 180.63 738.75 183.29 742.14 C 183.92 742.94 183.75 742.56 183.59 743.70 L 182.28 744.25 C 170.23 740.55 141.86 716.79 132.22 707.55 C 110.86 687.07 87.80 661.68 79.96 632.39 C 78.84 628.22 77.77 624.00 77.71 619.66 C 77.54 607.16 81.75 595.27 90.60 586.28 C 101.66 575.06 115.17 572.07 130.38 571.97 C 126.22 569.23 122.21 566.30 118.34 563.16 C 114.48 560.03 110.77 556.71 107.24 553.21 C 92.11 538.45 75.00 517.84 74.90 495.54 C 74.85 485.35 79.03 474.42 86.26 467.15 C 95.58 457.78 106.96 456.04 119.61 455.98 C 110.53 446.12 102.15 435.74 97.30 423.10 C 91.59 408.23 91.48 391.65 98.02 377.02 C 103.01 365.84 111.73 356.78 123.32 352.47 C 152.03 341.77 180.30 358.96 196.81 381.98 C 198.56 384.42 208.07 401.31 209.03 401.74 C 209.74 397.70 208.15 392.04 207.74 387.86 C 205.99 369.96 204.55 337.88 216.70 323.71 C 220.40 319.40 224.95 317.11 230.58 316.67 C 230.82 316.59 231.15 316.64 231.32 316.44 C 232.29 315.33 229.24 289.60 233.54 285.40 C 237.71 281.33 251.79 282.97 257.78 282.95 Z" fill="#000000" fill-rule="nonzero" node-id="86" stroke="none" target-height="462.92102" target-width="707.2304" target-x="71.3326" target-y="281.328"></path><path d="M 231.80 336.09 C 233.29 336.40 233.98 336.27 234.95 337.48 L 234.98 338.82 C 235.38 339.95 235.61 340.84 235.65 342.05 C 236.15 358.04 235.61 374.13 235.84 390.13 C 236.08 406.41 236.82 422.61 236.77 438.88 C 236.76 441.50 237.35 444.14 236.67 446.70 L 235.90 447.38 C 235.35 447.23 234.79 447.27 234.50 446.72 C 233.59 444.93 234.40 439.45 234.46 437.32 C 234.64 430.49 234.53 423.68 234.34 416.85 C 234.26 413.73 233.53 410.16 233.99 407.11 L 234.62 406.65 L 234.97 407.46 L 235.24 408.05 C 235.55 405.40 236.08 391.63 235.06 390.21 C 234.93 390.04 234.78 389.90 234.63 389.74 L 234.11 390.20 L 234.66 389.77 L 233.91 389.85 C 230.63 396.42 235.05 419.97 232.52 428.69 C 231.99 420.28 232.24 411.65 232.16 403.21 L 231.94 355.79 C 231.72 349.23 231.81 342.65 231.80 336.09 Z" fill="#110e1a" fill-rule="nonzero" node-id="88" stroke="none" target-height="111.29196" target-width="6.720001" target-x="230.628" target-y="336.088"></path><path d="M 231.80 336.09 C 233.29 336.40 233.98 336.27 234.95 337.48 L 234.98 338.82 C 234.50 345.42 234.78 351.80 234.99 358.38 L 234.26 358.70 C 233.12 358.00 232.60 356.90 231.94 355.79 C 231.72 349.23 231.81 342.65 231.80 336.09 Z" fill="url(#gradient_0)" fill-rule="nonzero" node-id="90" stroke="none" target-height="22.608002" target-width="3.2710266" target-x="231.71698" target-y="336.088"></path><path d="M 241.12 737.24 C 240.34 736.63 239.40 735.99 238.67 735.33 C 237.77 734.51 236.09 731.45 236.25 730.19 C 236.38 729.09 236.63 729.19 237.43 728.67 L 239.00 728.54 C 239.37 730.98 239.30 731.68 241.32 733.22 C 241.98 733.72 242.38 733.98 243.18 734.11 C 251.36 735.43 261.00 734.25 269.30 734.05 C 279.10 733.82 288.95 734.01 298.76 734.02 C 302.21 734.03 308.08 733.30 311.22 734.36 L 310.28 734.34 L 310.80 734.53 L 308.14 735.63 C 308.22 736.12 308.32 736.61 308.42 737.09 L 241.12 737.24 Z" fill="url(#gradient_1)" fill-rule="nonzero" node-id="92" stroke="none" target-height="8.695129" target-width="75.13698" target-x="236.085" target-y="728.5449"></path><path d="M 276.10 599.02 C 275.41 552.90 274.43 506.78 273.18 460.68 L 271.79 410.61 C 271.32 396.65 270.48 382.48 270.79 368.51 C 270.81 367.80 271.00 367.30 271.34 366.68 C 276.16 364.88 357.92 365.93 371.80 365.88 L 646.71 364.26 L 714.61 364.13 C 720.65 364.10 738.69 363.13 742.86 364.36 C 743.78 365.35 743.86 365.93 743.94 367.27 C 744.52 377.52 743.94 388.14 743.95 398.42 L 744.22 463.54 L 745.02 555.02 C 745.07 568.40 745.54 581.95 745.09 595.32 C 745.07 595.69 745.06 596.05 745.04 596.42 C 726.44 597.11 707.77 596.93 689.15 596.99 L 621.17 597.36 C 606.06 597.43 591.05 596.71 575.93 597.57 L 577.34 602.63 C 576.75 603.72 577.19 603.30 575.98 603.83 C 575.04 603.21 574.43 602.88 573.75 602.00 C 574.37 601.20 574.78 600.64 575.19 599.72 L 574.49 599.23 C 573.50 599.93 573.02 600.10 571.82 600.17 C 569.64 597.90 571.42 596.44 570.72 593.98 C 570.23 592.26 568.52 590.59 567.91 588.72 C 571.32 591.36 571.40 595.20 573.31 598.80 L 573.98 597.64 L 574.15 598.31 C 575.46 597.42 576.89 596.64 578.51 596.53 C 590.24 595.73 602.98 596.51 614.82 596.51 L 692.26 596.01 C 707.35 595.99 724.51 596.87 739.37 595.86 C 740.96 595.75 743.15 595.69 744.27 594.41 C 745.07 588.83 744.57 582.76 744.55 577.13 C 744.50 567.03 744.76 556.65 743.76 546.60 L 743.31 547.01 C 741.53 553.96 743.10 561.04 743.14 568.09 C 743.19 576.89 743.02 585.70 743.00 594.50 L 617.33 595.01 L 589.33 595.01 C 584.51 595.03 578.98 595.65 574.29 594.75 C 573.11 592.05 569.12 586.39 569.34 583.95 C 571.87 586.52 573.59 591.26 575.09 594.55 C 582.08 593.82 589.32 594.11 596.35 594.12 L 629.80 594.19 L 741.93 593.49 C 742.99 557.94 741.42 522.17 741.15 486.60 C 740.85 447.00 741.72 407.27 740.45 367.69 L 273.56 368.99 C 276.45 444.63 278.29 520.29 279.07 595.97 C 311.05 596.60 343.13 595.94 375.12 595.87 C 388.99 595.95 402.85 595.86 416.72 595.58 C 422.31 595.48 428.14 595.79 433.69 595.18 C 433.63 596.25 433.57 597.30 433.49 598.36 C 414.94 598.91 396.31 598.56 377.75 598.66 L 276.10 599.02 Z" fill="#000000" fill-rule="nonzero" node-id="94" stroke="none" target-height="240.70102" target-width="475.06702" target-x="270.476" target-y="363.132"></path><path d="M 522.43 554.50 C 529.54 553.97 538.03 556.51 543.94 560.50 C 543.62 560.55 543.30 560.66 542.98 560.64 C 542.21 560.61 541.51 560.18 540.62 560.18 C 535.91 560.15 531.84 559.02 527.37 557.56 C 525.34 556.90 523.46 556.50 522.43 554.50 Z" fill="#000000" fill-rule="nonzero" node-id="96" stroke="none" target-height="6.6869507" target-width="21.506042" target-x="522.433" target-y="553.973"></path><path d="M 515.01 678.76 C 517.40 678.59 519.77 678.28 522.13 678.75 C 522.46 679.11 522.72 679.35 522.92 679.81 C 524.19 682.62 522.44 687.65 521.32 690.26 C 519.60 694.29 516.73 697.98 512.47 699.49 C 509.03 700.71 505.72 700.02 502.48 698.58 C 501.90 698.14 501.35 697.67 500.81 697.17 C 500.28 696.68 499.77 696.16 499.29 695.62 C 498.80 695.07 498.34 694.51 497.91 693.92 C 497.48 693.33 497.08 692.73 496.70 692.10 C 496.33 691.48 495.98 690.84 495.67 690.18 C 495.36 689.52 495.07 688.85 494.82 688.17 C 494.57 687.48 494.35 686.79 494.17 686.08 C 493.98 685.38 493.83 684.67 493.71 683.95 C 493.46 682.36 493.64 681.26 494.61 679.94 C 497.99 677.81 510.17 678.88 515.01 678.76 Z" fill="#110e1a" fill-rule="nonzero" node-id="98" stroke="none" target-height="22.895935" target-width="30.736969" target-x="493.457" target-y="677.813"></path><path d="M 480.02 619.12 C 483.57 618.87 488.14 618.83 491.40 620.36 C 492.86 621.05 494.00 622.12 494.42 623.73 C 494.76 625.05 494.61 625.41 493.95 626.49 C 490.48 627.97 486.84 625.36 483.30 625.10 C 483.16 625.09 483.02 625.09 482.87 625.08 C 482.61 625.13 482.34 625.18 482.07 625.22 C 478.26 625.84 473.99 628.83 470.34 628.62 C 469.16 628.56 469.01 628.45 468.26 627.63 C 468.36 626.75 468.49 626.15 468.93 625.36 C 471.37 620.96 475.61 620.28 480.02 619.12 Z" fill="#000000" fill-rule="nonzero" node-id="100" stroke="none" target-height="10.005005" target-width="26.507019" target-x="468.258" target-y="618.829"></path><path d="M 537.01 619.14 C 540.95 619.34 544.89 619.90 548.24 622.16 C 549.93 623.30 551.01 624.48 551.45 626.51 C 551.11 627.28 551.17 627.64 550.34 628.02 C 548.19 629.00 546.17 627.93 544.13 627.15 C 539.83 625.58 533.04 628.11 529.98 625.52 C 529.63 624.32 529.46 624.04 530.15 622.89 C 531.52 620.58 534.59 619.63 537.01 619.14 Z" fill="#000000" fill-rule="nonzero" node-id="102" stroke="none" target-height="9.861023" target-width="21.992004" target-x="529.461" target-y="619.138"></path><path d="M 510.05 637.76 C 514.29 642.07 505.83 654.97 507.12 660.54 C 507.93 664.04 512.20 664.41 513.51 667.29 C 513.86 668.04 513.30 668.76 513.02 669.48 C 512.59 669.37 512.17 669.26 511.75 669.14 C 507.63 667.97 506.06 665.91 504.03 662.31 C 503.82 655.17 506.16 643.62 510.05 637.76 Z" fill="#000000" fill-rule="nonzero" node-id="104" stroke="none" target-height="31.711975" target-width="10.471985" target-x="503.818" target-y="637.765"></path><path d="M 482.97 634.82 C 484.00 634.97 485.11 635.21 485.97 635.83 C 487.07 636.62 487.58 638.12 487.74 639.41 C 488.07 642.05 486.93 644.87 485.37 646.92 C 484.30 646.73 483.11 646.60 482.20 645.96 C 481.08 645.16 480.38 643.68 480.20 642.34 C 479.83 639.45 481.18 636.95 482.97 634.82 Z" fill="#000000" fill-rule="nonzero" node-id="106" stroke="none" target-height="12.096008" target-width="8.241028" target-x="479.82898" target-y="634.821"></path><path d="M 537.81 634.36 C 538.81 634.37 539.69 634.52 540.67 634.72 C 541.57 635.54 542.15 636.16 542.43 637.38 C 543.09 640.26 541.79 643.75 540.20 646.10 C 539.31 645.88 538.14 645.64 537.40 645.08 C 536.27 644.22 535.62 642.69 535.47 641.31 C 535.18 638.72 536.33 636.38 537.81 634.36 Z" fill="#000000" fill-rule="nonzero" node-id="108" stroke="none" target-height="11.743042" target-width="7.90802" target-x="535.183" target-y="634.355"></path><path d="M 575.95 686.91 L 576.94 687.54 C 577.33 688.56 577.58 689.03 577.14 690.13 C 576.36 692.09 575.21 692.24 573.41 692.68 C 572.87 692.47 572.65 692.10 572.28 691.67 C 572.04 690.49 571.95 689.86 572.55 688.71 C 573.39 687.11 574.37 687.24 575.95 686.91 Z" fill="#15102c" fill-rule="nonzero" node-id="110" stroke="none" target-height="5.766968" target-width="5.6279907" target-x="571.953" target-y="686.913"></path><path d="M 783.71 418.35 C 784.01 418.58 784.32 418.77 784.53 419.09 C 786.22 421.69 785.00 430.39 784.82 433.63 L 784.55 433.37 L 784.14 429.97 L 784.07 431.07 C 783.48 426.78 783.57 422.66 783.71 418.35 Z" fill="#15102c" fill-rule="nonzero" node-id="112" stroke="none" target-height="15.287994" target-width="2.7390137" target-x="783.483" target-y="418.345"></path><path d="M 739.32 297.24 C 743.36 297.19 752.08 295.97 755.37 298.69 C 756.86 299.93 757.50 301.51 757.58 303.42 C 757.65 305.25 757.45 307.58 755.97 308.86 C 753.85 310.69 748.88 309.96 746.25 309.92 C 741.96 310.00 732.94 311.21 729.62 308.20 C 729.48 308.07 729.34 307.93 729.20 307.78 C 729.07 307.63 728.95 307.48 728.83 307.32 C 728.72 307.16 728.61 307.00 728.51 306.83 C 728.41 306.66 728.32 306.48 728.24 306.30 C 728.16 306.12 728.08 305.94 728.02 305.75 C 727.95 305.57 727.90 305.38 727.86 305.19 C 727.81 304.99 727.78 304.80 727.75 304.61 C 727.73 304.41 727.71 304.21 727.71 304.02 C 727.64 302.35 728.36 300.74 729.54 299.58 C 732.32 296.85 735.72 297.29 739.32 297.24 Z" fill="#000000" fill-rule="nonzero" node-id="114" stroke="none" target-height="15.235992" target-width="30.003967" target-x="727.643" target-y="295.971"></path><path d="M 684.83 298.15 C 690.85 297.99 698.20 297.05 704.05 298.24 C 706.05 298.64 708.25 299.50 709.19 301.46 C 710.12 303.39 709.44 306.35 708.62 308.20 C 708.00 309.62 706.79 309.97 705.45 310.46 C 699.79 310.53 687.86 311.93 683.01 309.89 C 681.35 309.19 680.02 307.91 679.51 306.14 C 678.96 304.22 679.81 302.17 680.85 300.57 C 681.91 298.93 683.05 298.57 684.83 298.15 Z" fill="#000000" fill-rule="nonzero" node-id="116" stroke="none" target-height="14.872986" target-width="31.16095" target-x="678.957" target-y="297.053"></path><path d="M 262.72 282.74 C 296.28 283.36 329.98 282.22 363.56 282.10 L 599.34 281.84 C 630.98 281.83 662.65 280.94 694.29 281.38 L 694.95 281.43 C 702.49 281.96 710.11 281.13 717.63 281.81 C 715.62 283.00 713.18 284.78 710.96 285.46 L 711.59 285.71 L 710.40 285.69 L 711.02 286.37 C 711.29 286.36 711.56 286.36 711.83 286.36 C 713.78 286.36 714.17 286.57 715.71 287.72 L 714.46 287.39 C 715.00 287.71 715.62 287.90 716.17 288.21 C 716.31 288.28 716.38 288.44 716.49 288.55 C 696.95 289.11 677.37 288.94 657.83 288.99 L 561.26 289.14 L 267.38 290.13 L 266.44 287.72 C 264.62 286.57 261.74 287.21 259.51 286.43 C 259.35 286.37 259.19 286.31 259.03 286.25 C 260.43 285.73 261.93 286.07 263.27 285.56 L 261.27 285.28 L 262.76 284.38 L 262.48 284.08 L 262.72 282.74 Z" fill="url(#gradient_2)" fill-rule="nonzero" node-id="118" stroke="none" target-height="9.190002" target-width="458.60092" target-x="259.032" target-y="280.942"></path><path d="M 546.00 182.80 C 546.44 183.22 547.04 183.57 547.12 184.22 C 547.53 187.51 533.93 211.59 531.18 214.91 L 529.62 213.32 C 529.53 212.89 529.47 212.73 529.56 212.24 C 530.22 208.94 543.47 184.66 546.00 182.80 Z" fill="#000000" fill-rule="nonzero" node-id="120" stroke="none" target-height="32.11499" target-width="18.067993" target-x="529.465" target-y="182.79701"></path><path d="M 209.46 212.73 C 210.42 213.08 210.78 213.22 211.41 214.08 C 213.68 217.15 224.35 238.82 225.62 242.76 C 225.89 243.58 225.81 244.23 225.67 245.06 L 224.21 244.99 C 223.38 244.61 223.05 244.18 222.58 243.42 C 219.57 238.59 208.36 217.16 209.46 212.73 Z" fill="#000000" fill-rule="nonzero" node-id="122" stroke="none" target-height="32.333984" target-width="17.526993" target-x="208.36" target-y="212.72601"></path><path d="M 82.14 293.24 C 85.68 294.30 104.87 307.67 106.50 310.48 C 107.00 311.35 106.58 311.85 106.33 312.78 C 103.38 312.53 84.12 299.12 82.25 296.31 C 81.39 295.01 81.74 294.65 82.14 293.24 Z" fill="#000000" fill-rule="nonzero" node-id="124" stroke="none" target-height="19.537994" target-width="25.617096" target-x="81.3869" target-y="293.239"></path><path d="M 907.94 257.42 C 908.99 257.50 909.18 257.56 910.05 258.14 L 910.13 259.21 C 907.08 263.06 890.90 270.53 885.68 273.31 L 884.76 273.40 C 883.81 272.69 883.87 272.75 883.68 271.57 C 885.92 267.93 903.59 259.70 907.94 257.42 Z" fill="#000000" fill-rule="nonzero" node-id="126" stroke="none" target-height="15.977997" target-width="26.45404" target-x="883.678" target-y="257.421"></path><path d="M 415.27 180.21 C 416.39 180.38 417.13 180.84 417.85 181.69 C 420.92 185.38 431.97 200.37 434.01 204.24 C 434.66 205.48 434.53 205.99 434.40 207.33 C 434.20 207.30 434.00 207.28 433.81 207.24 C 430.61 206.53 420.46 191.29 418.04 187.75 C 416.35 185.28 414.67 183.34 415.27 180.21 Z" fill="#000000" fill-rule="nonzero" node-id="128" stroke="none" target-height="27.122986" target-width="19.991943" target-x="414.67004" target-y="180.211"></path><path d="M 748.14 180.76 C 748.66 181.25 749.05 181.75 749.48 182.31 C 748.63 185.78 734.08 200.44 730.50 202.76 C 729.87 202.09 729.70 201.80 729.35 200.98 C 730.28 197.29 744.41 183.11 748.14 180.76 Z" fill="#000000" fill-rule="nonzero" node-id="130" stroke="none" target-height="21.996994" target-width="20.126038" target-x="729.354" target-y="180.76402"></path></svg>