<svg viewBox="0 0 1024 1024" xmlns="http://www.w3.org/2000/svg" id="Layer_2">
  <defs>
    <style>
      .cls-1, .cls-2 {
        stroke-width: 0px;
      }

      .cls-2 {
        fill: #fff;
      }
    </style>
  </defs>
  <g id="Layer_1-2">
    <g>
      <path d="M1024,1024H0C0,682.67,0,341.33,0,0c341.33,0,682.67,0,1024,0v1024ZM389.05,834.88c-.98-.82-1.96-1.64-2.94-2.46-.62,2.09-1.33,4.17-1.79,6.3-.07.31,1.04.86,1.61,1.31.7-1.3,1.37-2.61,2.11-3.88.31-.53.77-.97,1.16-1.45-.65,4.71-1.3,9.43-1.97,14.35-3.65-1.72-4.9-.69-5.39,2.43-1.19,7.52-2.83,14.97-3.92,22.5-.7,4.81-1.09,9.8,4.92,12.12.57.22,1.11,1.71.95,2.44-1.97,8.8-4.07,17.58-6.14,26.36-.66.43-1.31.87-1.97,1.3-1.25-1.93-2.17-4.24-3.83-5.73-3.68-3.32-7.63-6.36-11.66-9.25-2.37-1.7-5.54-2.15-6.83.9-.72,1.69.4,4.52,1.39,6.48.83,1.66,2.67,2.81,4.44,4.56-1.65.29-2.89.67-4.15.72-19.14.8-33.5,10.13-43.66,25.73-3.22,4.94-6.65,6.11-11.89,6.26-18.21.52-36.4,1.39-54.6,2.2-1.22.05-2.42.68-3.63,1.04.06.5.12,1,.18,1.5,1.69.14,3.38.42,5.07.4,23.95-.25,47.89-.64,71.84-.77,13.23-.07,26.47.42,39.7.41,20.58-.02,41.17-.58,61.74-.3,27.59.37,55.17,1.44,82.75,1.99,19.86.4,39.73.66,59.6.6,29.05-.1,58.09-.6,87.14-.82,22.15-.17,44.3-.18,66.46-.22,11.58-.02,23.16.31,34.73,0,13.21-.35,26.41-1.4,39.62-1.83,12.27-.4,24.55-.32,36.82-.63,1.08-.03,2.13-1.34,3.2-2.06-.97-.7-1.89-1.88-2.92-1.99-2.94-.31-5.94-.32-8.9-.2-21.73.9-43.45,1.9-65.18,2.76-5.38.21-10.78.03-16.18.03,1.91-1.25,3.84-1.65,5.76-2.14,15.9-4.09,31.82-8.14,47.69-12.34,4.11-1.09,5.3-3.83,3.05-7.6-1.18-1.97-2.25-4.45-4.06-5.5-7.13-4.11-14.2-8.74-21.93-11.27-7.83-2.56-16.39-2.85-24.81-4.17.81-.88,1.8-1.75,2.53-2.8,1.69-2.42,4.35-5.25,1.43-7.83-1.39-1.23-4.69-.56-7.08-.29-1.17.13-2.3,1.21-3.3,2.04-4.39,3.67-8.73,7.42-13.12,11.16-.08-.2-.85-1.6-1.28-3.1-3.2-11.25-8.03-21.86-10.95-33.33-5.68-22.24-13.62-43.91-20.71-65.79-1.3-4.02-2.18-8.69-4.83-11.63-2.52-2.8-3.17-5.12-3.1-8.52.03-1.85-1.49-3.69-2.13-5.6-1.01-3.01-2.12-6.03-2.68-9.13-.29-1.59,1.16-3.57.72-5.03-8.95-29.65-18.01-59.27-27.16-88.86-5.64-18.23-11.57-36.37-17.12-54.63-2.07-6.8-6.21-13.52-2.52-20.47,2.65-1.23,5.13-1.89,7.01-3.34,11.56-8.91,23.48-17.44,34.32-27.16,16.77-15.04,30.94-32.34,40.56-52.97,6.05-12.97,7.74-26.2,3.18-40.13-3.42-10.43-10.03-18.77-16.91-26.78-20.45-23.82-42.62-45.99-67.76-64.88-11.65-8.76-23.91-16.94-36.7-23.89-14.19-7.71-29.15-14.19-45.82-15.07-1.08-5.52-2.07-10.64-3.14-16.12,1.72,0,2.7.11,3.65-.02,19.21-2.54,38.42-5.32,56.62-12.23,13.12-4.98,25.41-11.64,34.3-23.06,6.84-8.79,5.8-17.42-3.7-23.37-6.39-4-13.68-6.55-20.53-9.83-1.89-.9-3.66-2.08-5.55-3.17,4.55-3.98,8.63-7.1,12.15-10.75,5.87-6.08,10.48-13.25,10.56-21.87.13-14.6-9.38-25.73-23.56-29.58-8.4-2.28-16.58-1.68-24.76.88-3.12-22-13.21-35.83-31.18-41.5-21.04-6.64-38.96-2.01-52.31,16.81-4.27-24.82-22.82-38.76-43.51-37.4-21.09,1.38-36.77,14.75-38.48,36.06-1.76-.42-3.47-.87-5.2-1.23-8.56-1.76-17.14-2.78-25.48.9-6.22,2.75-10.27,8.78-9.91,14.35.45,6.97,4.2,11.96,11.32,14.13,3.93,1.2,8.11,1.61,12.81,2.5-1.68.65-2.92,1-4.03,1.59-6.42,3.43-13.4,6.16-19.08,10.56-9.61,7.44-10.64,20.16-3.43,28.79,4.8,5.75,11.06,9.13,18.22,10.51,6.57,1.26,13.28,1.77,19.92,2.62-.51,4.33-11.7,12.22-24.51,17.41-4.23-13.59-8.12-14.1-19.58-2.51-.6-.17-1.25-.32-1.87-.54-8.99-3.3-12.27-1.61-15.17,7.47-.63,1.98-1.9,3.83-3.14,5.54-4.38,6.04-9.53,11.63-13.2,18.07-8.53,14.99-8.79,31.35-6.65,48,.29,2.28-.59,5-1.68,7.13-3.38,6.59-7.88,12.69-10.57,19.52-8.34,21.19-11.84,43.45-12.1,66.12-.18,15.29,1.7,30.37,9.35,44.17,7.61,13.74,18.82,22.35,34.33,25.42,20.06,3.97,38.31-1.5,55.83-10.53,6.19-3.19,11.93-7.26,18.51-11.33-2.49,18.38-4.71,35.94-7.36,53.44-.71,4.68.76,5.42,4.95,5.22,7.19-.34,14.41-.09,22.41-.09-1.92,12.68-3.31,24.42-5.53,36-3.49,18.19-7.54,36.27-11.36,54.4-3.83,18.17-7.44,36.4-11.58,54.5-4.35,19.03-9.38,37.91-13.78,56.92-3.77,16.28-7.08,32.65-10.56,48.99-1.38,6.47-2.78,12.95-3.91,19.46-.19,1.06.94,2.36,1.46,3.54.82-.88,1.99-1.62,2.4-2.67.78-2.02,1.14-4.2,1.67-6.31.43.11.86.22,1.28.33-1.84,6.91-3.67,13.82-5.52,20.74ZM698.86,178.64c.61,3.81,1.16,7.07,1.65,10.34,2.56,17.05,5.07,34.1,7.71,51.13.25,1.62,1.24,3.13,1.88,4.69,1.22-1.16,2.81-2.11,3.6-3.52,9-16.04,17.85-32.17,26.8-48.24,3.87-6.95,7.95-13.78,11.73-20.77.66-1.21.31-2.97.43-4.47-1.36.28-2.82.32-4.06.88-2.57,1.16-5,2.61-7.51,3.91-9.98,5.17-19.96,10.33-30.91,16-2.9-30.11-5.7-59.23-8.5-88.35l-2.15-.2c-1.33,2.75-2.73,5.47-3.98,8.25-11.93,26.59-23.85,53.19-35.68,79.83-.66,1.48-.43,3.35-.61,5.04,1.53-.22,3.17-.16,4.57-.7,11.55-4.48,23.06-9.08,35.01-13.81Z" class="cls-2"></path>
      <path d="M389.06,834.86c1.84-6.91,3.67-13.82,5.51-20.73-.43-.11-.86-.22-1.28-.33-.53,2.11-.89,4.3-1.67,6.31-.41,1.04-1.57,1.79-2.4,2.67-.52-1.19-1.65-2.48-1.46-3.54,1.14-6.52,2.53-12.99,3.91-19.46,3.48-16.34,6.8-32.72,10.56-48.99,4.4-19.02,9.43-37.89,13.78-56.92,4.13-18.1,7.75-36.33,11.58-54.5,3.82-18.13,7.87-36.21,11.36-54.4,2.22-11.58,3.62-23.32,5.53-36-8,0-15.22-.25-22.41.09-4.19.2-5.66-.54-4.95-5.22,2.65-17.5,4.87-35.06,7.36-53.44-6.58,4.06-12.32,8.13-18.51,11.33-17.51,9.03-35.77,14.5-55.83,10.53-15.51-3.07-26.72-11.67-34.33-25.42-7.65-13.8-9.53-28.88-9.35-44.17.26-22.66,3.76-44.93,12.1-66.12,2.69-6.83,7.19-12.93,10.57-19.52,1.09-2.13,1.98-4.84,1.68-7.13-2.14-16.65-1.88-33.01,6.65-48,3.66-6.44,8.82-12.02,13.2-18.07,1.24-1.71,2.5-3.56,3.14-5.54,2.9-9.08,6.19-10.77,15.17-7.47.62.23,1.27.37,1.87.54,11.47-11.59,15.36-11.07,19.58,2.51,12.82-5.18,24-13.07,24.51-17.41-6.64-.84-13.35-1.35-19.92-2.62-7.17-1.38-13.43-4.76-18.22-10.51-7.21-8.64-6.18-21.36,3.43-28.79,5.68-4.4,12.66-7.13,19.08-10.56,1.1-.59,2.34-.93,4.03-1.59-4.71-.89-8.88-1.3-12.81-2.5-7.12-2.17-10.88-7.16-11.32-14.13-.36-5.57,3.69-11.61,9.91-14.35,8.34-3.68,16.91-2.67,25.48-.9,1.73.36,3.45.81,5.2,1.23,1.71-21.32,17.39-34.68,38.48-36.06,20.69-1.36,39.24,12.58,43.51,37.4,13.34-18.82,31.26-23.45,52.31-16.81,17.97,5.67,28.06,19.5,31.18,41.5,8.18-2.55,16.35-3.16,24.76-.88,14.18,3.85,23.69,14.98,23.56,29.58-.08,8.62-4.69,15.79-10.56,21.87-3.52,3.65-7.6,6.77-12.15,10.75,1.89,1.09,3.65,2.26,5.55,3.17,6.85,3.28,14.15,5.82,20.53,9.83,9.49,5.95,10.54,14.58,3.7,23.37-8.89,11.43-21.18,18.09-34.3,23.06-18.2,6.91-37.41,9.69-56.62,12.23-.95.13-1.93.02-3.65.02,1.07,5.48,2.06,10.6,3.14,16.12,16.67.89,31.63,7.36,45.82,15.07,12.79,6.95,25.05,15.13,36.7,23.89,25.14,18.89,47.31,41.06,67.76,64.88,6.88,8.01,13.49,16.36,16.91,26.78,4.56,13.93,2.87,27.16-3.18,40.13-9.62,20.63-23.79,37.93-40.56,52.97-10.84,9.72-22.77,18.25-34.32,27.16-1.87,1.45-4.35,2.1-7.01,3.34-3.69,6.95.45,13.68,2.52,20.47,5.55,18.26,11.48,36.4,17.12,54.63,9.15,29.59,18.21,59.21,27.16,88.86.44,1.47-1,3.45-.72,5.03.57,3.11,1.67,6.12,2.68,9.13.64,1.91,2.17,3.75,2.13,5.6-.06,3.41.58,5.72,3.1,8.52,2.65,2.94,3.52,7.61,4.83,11.63,7.09,21.88,15.03,43.55,20.71,65.79,2.93,11.46,7.75,22.08,10.95,33.33.43,1.5,1.2,2.9,1.28,3.1,4.39-3.74,8.73-7.49,13.12-11.16,1-.83,2.13-1.91,3.3-2.04,2.38-.27,5.69-.94,7.08.29,2.91,2.59.25,5.42-1.43,7.83-.73,1.05-1.72,1.92-2.53,2.8,8.42,1.31,16.99,1.61,24.81,4.17,7.72,2.52,14.8,7.16,21.93,11.27,1.82,1.05,2.89,3.53,4.06,5.5,2.25,3.77,1.05,6.51-3.05,7.6-15.88,4.2-31.79,8.25-47.69,12.34-1.91.49-3.85.89-5.76,2.14,5.39,0,10.79.18,16.18-.03,21.73-.86,43.45-1.86,65.18-2.76,2.96-.12,5.96-.11,8.9.2,1.03.11,1.95,1.3,2.92,1.99-1.06.72-2.11,2.03-3.2,2.06-12.27.31-24.55.23-36.82.63-13.21.43-26.41,1.48-39.62,1.83-11.57.3-23.15-.03-34.73,0-22.15.04-44.31.06-66.46.22-29.05.22-58.09.72-87.14.82-19.87.07-39.74-.2-59.6-.6-27.59-.55-55.17-1.62-82.75-1.99-20.58-.28-41.16.28-61.74.3-13.23.01-26.47-.48-39.7-.41-23.95.13-47.89.52-71.84.77-1.69.02-3.38-.26-5.07-.4-.06-.5-.12-1-.18-1.5,1.21-.36,2.4-.99,3.63-1.04,18.2-.81,36.39-1.68,54.6-2.2,5.25-.15,8.68-1.32,11.89-6.26,10.15-15.6,24.51-24.93,43.66-25.73,1.26-.05,2.5-.42,4.15-.72-1.76-1.74-3.6-2.9-4.44-4.56-.99-1.96-2.11-4.79-1.39-6.48,1.3-3.05,4.46-2.6,6.83-.9,4.03,2.89,7.98,5.94,11.66,9.25,1.65,1.49,2.57,3.79,3.83,5.73.66-.43,1.31-.87,1.97-1.3,2.07-8.78,4.17-17.56,6.14-26.36.16-.74-.38-2.23-.95-2.44-6.02-2.32-5.62-7.31-4.92-12.12,1.1-7.53,2.73-14.98,3.92-22.5.5-3.12,1.74-4.15,5.39-2.43.68-4.92,1.32-9.64,1.97-14.35l-.15.17ZM507.7,612.51c1.26-.56,3.13-.78,3.69-1.74,2.38-4.12,5.75-8.32,6.24-12.76,1.18-10.55,1.29-21.26,1.12-31.9-.11-6.96-1.48-13.9-2.31-21.05,11.09-1.46,23.07-3.09,35.07-4.62,17.1-2.18,34.2-4.4,51.33-6.35,7.43-.84,16.59-8.68,17.15-16.31.42-5.72-.25-11.56-.86-17.31-.25-2.29-1.1-4.97-2.61-6.61-15.84-17.07-28.65-36.23-39.73-56.61-2.4-4.41-4.57-8.95-6.84-13.43.6-.4,1.2-.8,1.81-1.2,1.34,1.66,3.01,3.15,3.98,5.01,13.99,26.87,31.08,51.48,52.39,73.11,2.53,2.57,4.09,3.11,6.68-.02,3.59-4.35,7.68-8.3,11.76-12.21.84-.81,2.58-.69,3.91-.99-.39,1.26-.4,2.89-1.23,3.72-20.15,20.09-34.88,44.22-51,67.43,20.17,8.63,36.79,23.52,34.51,32.16-1.84-2.11-3.41-3.63-4.65-5.38-6.53-9.2-14.25-16.99-24.82-21.52-5.67-2.43-6.99-1.99-10.34,3.9.6.46,1.17,1.07,1.87,1.41,12.69,6.25,23.84,14.47,33.21,25.15.94,1.07,3.63,1.45,5.13.97,2.63-.85,5.18-2.33,7.38-4.04,9.19-7.15,18.63-14.04,27.26-21.83,17.37-15.69,32.64-33.16,42.52-54.76,8.28-18.1,6.68-35.62-5.31-51.06-10.58-13.61-22.53-26.25-34.61-38.58-17.94-18.31-37.44-34.84-59.07-48.82-17.89-11.56-36.48-21.22-57.69-24.88-1.18-.2-2.9,1.13-3.96,2.17-2.81,2.74-4.97,6.36-8.16,8.47-11.95,7.92-25.26,11.01-39.49,8.96-10.58-1.52-19.75-5.7-24.99-16.27-2.29.56-4.59,1.12-6.99,1.71,15.28,31.26,63.08,37.86,88.52-1.18.38.19.76.39,1.14.58-13.32,25.1-26.63,50.19-40.15,75.66,7.36,4.23,13.95,8.62,16.32,17.07,2.39,8.54.79,16.05-5.24,22.46-10.51,11.18-25.15,11.18-36.11.09-4.55-4.61-6.72-10.23-6.55-16.71.3-11.04,6.59-17.93,15.78-21.98-11.83-24.12-23.44-47.64-34.87-71.24-1.46-3.01-2.95-4.14-6.07-2.54-10.46,5.38-21.36,10.05-31.34,16.2-17.11,10.56-30.76,25.25-44.76,39.51-4.19,4.27-4.53,8.52-4.18,13.6.14,1.97.2,4-.13,5.92-.16.91-1.32,1.65-2.03,2.47-.5-.16-1.01-.33-1.51-.49-.66-16.16-1.33-32.32-2-48.58-11.49,2.85-15.07,2.67-17.83-.91,3.24-.25,6.37-.29,9.43-.78,8.98-1.44,9.29-2.03,6.45-12.42-6.89,8.3-15.26,6.01-23.38,3.05-8.14-2.97-16.12-6.51-18.54-16.28-7.25,5.66-7.92,9.07-2.57,14.57,2.63,2.7,6.01,4.67,9.04,6.98,1.26.96,2.5,1.96,3.75,2.94l-.99,1.21c-7.32-2.2-13.39-6.16-17.49-14.15-1.17,2.76-2.06,4.64-2.78,6.59-7.15,19.27-10.72,39.29-11.59,59.73-.61,14.46.52,28.84,6.49,42.36,9.68,21.93,29.17,31.23,51.53,29.07,20.55-1.98,38.21-10.76,54.04-23.56,1.56-1.26,3.07-3.27,3.47-5.17,1.06-5.02,1.49-10.18,2.18-15.28,2.74-20.14,5.46-40.29,8.29-60.42.23-1.65,1.25-3.2,1.9-4.79.61.14,1.22.29,1.84.43,0,1.85.2,3.72-.03,5.54-1.26,9.82-2.64,19.62-3.97,29.43-2.45,18.19-4.84,36.38-7.36,54.56-2.44,17.56-4.97,35.1-7.55,52.63-.49,3.35,1.49,3.56,3.83,3.57,19.93.05,39.87.09,59.8.12,9.71.01,19.41,0,29.32,0,.34,6.94.87,14.2,1.03,21.48.32,15.19,2.43,30.72-7.44,44.71ZM700.94,946.96c0-1.26.14-1.81-.02-2.24-7.22-19.1-14.51-38.16-21.66-57.29-1.06-2.84-2.88-2.54-5.14-2.32-16,1.55-32.02,2.96-48.01,4.54-10.13,1-15.18-1.95-19.11-11.3-3.85-9.16-7.98-18.19-11.7-27.4-12.38-30.61-25.53-60.95-36.68-92.01-10.39-28.95-18.58-58.68-27.75-88.06-1.04-3.32-2.18-6.61-3.27-9.92-1.69,1.67-2.24,3.17-2.64,4.72-2.78,10.91-4.99,22-8.39,32.71-6.81,21.49-13.85,42.93-21.56,64.11-8.05,22.11-16.62,44.04-25.67,65.76-7.63,18.31-16.36,36.15-24.42,54.28-3.88,8.72-7.68,17.19-19.96,14.3-3.06,16.59-6.03,32.68-9.19,49.82,94.96,3.35,189.95,2.76,285.18.29ZM480.62,334.54c0,4.42.38,8.6-.08,12.69-.93,8.29,3.42,13.17,10.06,16.67,14.96,7.88,40.74,4.17,52.85-7.73,1.47-1.44,2.77-4.04,2.61-5.98-.55-6.6-1.87-13.13-2.74-19.71-1.92-14.55-3.75-29.12-5.7-44.33,9.53-.01,17.92-.95,24.74-6.82,7.14-6.16,10.05-14.07,8.42-23.26-1.8-10.1-13.24-18.24-22.27-16.67.78,5.89,1.79,11.74,2.26,17.63.32,4.14-.84,8.58-4.91,10.06-2.6.94-6.75.3-9.04-1.3-2.6-1.82-4.61-5.28-5.6-8.42-1.8-5.72-2.66-11.74-3.91-17.61-10.2,7.46-17.19,4.62-19.39-8.1-.53-3.05-.37-6.21-.53-9.33-15.44,3.55-21.68-1.62-20.76-17.53-1.05.91-1.91,1.64-2.76,2.39-12.7,11.25-26.47,17.12-43.3,9.08-1.03-.49-3.65.66-4.56,1.82-14.69,18.57-20.52,39.94-18.98,63.31,1.52,23.18,19.13,42.19,41.62,46.83,13.03,2.69,25.7,2.24,38.5-.69,1.66-.38,3.47-.05,5.22-.05.06.51.11,1.01.17,1.52-6.5,4.16-14.3,3.78-21.9,5.56ZM382.13,411.7c14.21-12.52,28.01-25.85,43.04-37.61,15.42-12.06,33.3-19.8,52.76-23.74.26-5.49.5-10.57.74-15.66-.82-.23-1.28-.48-1.74-.48-17.72-.09-33.85-4.52-47.19-16.93-.8-.75-3.16-.69-4.3-.08-10.12,5.41-20.2,10.92-30.12,16.69-1.5.88-2.91,3.18-3.05,4.92-.72,8.91-3.78,16.93-9.05,23.96-2.6,3.47-3.84,6.36-3.36,11,1.33,12.82,1.61,25.75,2.27,37.94ZM387.82,337.76c-7.4,3.79-13.66,7.19-20.09,10.25-7.32,3.47-15.41,2.2-17.47-3.86-3.82-11.25-7.05-22.85-8.98-34.55-1.29-7.81,7.3-12.84,14.78-9.59,2.72,1.18,5.16,2.99,7.76,4.46,1.44.81,3.04,2.27,4.39,2.08,2.05-.28,3.95-1.72,5.92-2.67-.82-1.45-1.3-3.33-2.52-4.24-2.49-1.88-5.3-3.38-8.11-4.79-8.86-4.46-18.11-.82-22.54,8.12-8.18,16.49-9.03,33.79-4.85,51.44,1.12,4.72,1.37,9.98,6.06,13.24,7.31,5.08,15.17,8.03,22.84,7.31,2.22-2.86,3.49-5.07,5.28-6.71,8.81-8.08,14.82-17.7,17.53-30.48ZM627.83,600.15c-6.8-9.38-15.43-16.2-24.79-22.37-3.54-2.33-5.12-1.33-7.31,1.23-6.27,7.3-12.66,14.5-19,21.74-2.37,2.71-4.73,5.44-7.59,8.74,15.95,7.86,32.33,11.61,49.21,15.59,3.27-8.59,6.43-16.92,9.48-24.94ZM517.69,425.85c8.52-15.73,17.36-32.08,26.81-49.53-22.2,13.1-43.33,14.26-64.14-.52-.23,1.06-.35,1.26-.29,1.37,8.53,16.63,17.07,33.25,25.37,49.39,4.12-.24,7.83-.46,12.24-.72ZM533.56,452.43c-.37-12.23-9.69-17.2-21.24-17.34-11.52-.14-20.77,9.47-20.52,20.06.29,11.93,9.3,20.43,21.29,20.09,10.93-.31,20.81-11.32,20.46-22.81ZM381.23,915.91c11.93,1.36,23.53,2.68,35.59,4.06,1.63-7.56,3.23-14.94,4.95-22.93-11.84-3.22-23.36-6.36-34.93-9.51-1.97,9.94-3.76,19-5.62,28.38ZM681.61,884.36c4.46,11.32,8.8,22.35,13.13,33.34,8.72-2.76,17-5.39,25.29-8.01-3.77-10.3-7.33-20.03-10.65-29.13-9.61,1.32-18.42,2.52-27.76,3.8ZM466.11,555.85c-.4,2.39-.65,4.16-.99,5.92-1.05,5.54-1.62,11.24-3.31,16.58-2.78,8.78-8.21,12.36-17.01,11.98.26-1.79.48-3.55.77-5.29,1.74-10.32,3.59-20.62,5.16-30.96.3-1.96-.5-4.08-.8-6.13-.54.08-1.08.16-1.62.25-13.04,88.61-36.7,175.04-54.65,262.65.44.09.88.18,1.31.27,16.34-72.51,32.68-145.02,49.04-217.64,5.6,1.27,10.21-.17,14.22-3.55,6.44-5.42,11.9-24.78,9.32-32.89-.08-.26-.48-.41-1.46-1.19ZM534.02,660.69c-.69.24-1.38.47-2.07.71.08,1.12-.03,2.28.26,3.35,2.12,7.84,4.12,15.72,6.51,23.48,14.01,45.5,30.79,89.99,48.9,133.99,7.37,17.92,15,35.74,22.64,53.55,1.4,3.26,3.47,6.24,5.23,9.35-28.19-74.6-60.9-147.24-81.48-224.42ZM435.99,888.34c16.72-17.28,90.73-215.33,85.12-228.8-21.03,79.55-52.4,154.42-85.12,228.8ZM502.98,546.97c-.64.1-1.27.19-1.91.29.19,31.26-2.45,62.51.32,93.84,1.33-1.94,2.02-3.95,2.1-5.98.21-5.65.18-11.31.22-16.97.14-21.95.3-43.9.35-65.84,0-1.78-.7-3.56-1.08-5.35ZM577.64,631.64c5.56,7.7,48.74,18.35,60.41,14.96-.32-.59-.56-1.57-.92-1.62-19.78-2.56-39.2-6.54-57.8-14-.39-.16-1.08.4-1.7.65ZM351.48,290.14c8.7-1.48,15.96,1.01,22.13,6.77,1.61,1.5,3.53,3.59,5.21.85.91-1.48.47-4.16-.12-6.06-.44-1.44-1.99-2.61-3.22-3.71-7.51-6.75-18.63-5.92-24,2.15ZM460.31,199.89c-3.54,1.43-6.2,3.09-9.03,3.48-2.94.41-6.53.48-9-.85-5.09-2.76-6.89-10.34-4.51-15.38,2.77-5.88,9.29-9.3,15.13-7.89,1.32.32,2.62.76,4.37,1.27-2.13-3.74-5.77-4.88-10.38-3.71-7.21,1.82-12.79,8.21-12.81,14.67-.02,6.46,4.61,13.39,9.84,14.71,5.94,1.5,13.5-1.13,16.4-6.31ZM354.1,303.03c-1.61,7.48,6.57,33,11.2,35.76-3.51-12.46-5.84-24.58-11.2-35.76ZM519.71,610.28c-2.92,3.35-3.34,26.82,0,30.17v-30.17ZM377.28,283.77c-.3-.99-.3-3.18-1.29-3.82-3.15-2.03-6.56-3.83-10.09-5.07-4.75-1.67-6.7.22-6.48,4.63,5.7,1.36,11.15,2.66,17.86,4.26ZM580.79,551.57c-.88,8.03-.08,15.61,5.57,21.7,1.98,2.14,4.53,4.54,8.41.96-12.48-3.16-9.27-15.09-13.97-22.66ZM375.13,272.94c.21.66.42,1.32.63,1.98,2.66,1.61,4.25,6.71,8.71,2.42,2.01-1.93,1.27-8.47-1.19-8.5-2.7-.03-5.43,2.62-8.15,4.11ZM392.57,218.4c-4.65.69-7.3,3.6-8.44,7.77-1.22,4.46,1.51,9.89,5.99,12.71,3.77,2.38,4.93,2.48,7.6.58-5.73-1.03-10.05-3.8-11.48-9.64-1.39-5.64,2.96-8.23,6.34-11.42ZM601.19,547.51c2.39-3.61,4.62-6.98,7.38-11.13-4.59.72-8.36,1.3-12.37,1.93,1.68,3.09,3.13,5.76,5,9.2ZM563.65,666.26c-.72.27-1.45.54-2.17.81,2.71,7.8,5.42,15.59,8.12,23.39l2.38-.84c-2.78-7.78-5.56-15.57-8.34-23.35ZM662.17,797.41c-.8.28-1.61.55-2.41.83l7.64,21.8c.75-.26,1.49-.51,2.24-.77-2.49-7.29-4.97-14.58-7.46-21.86ZM561.39,164.34c-7.06-7.09-24.23-10.29-32.9-5.95,11.5-.87,22.71-.22,32.9,5.95ZM430.41,727.32c.3.02.61.03.91.05,1.56-7.77,3.15-15.53,4.59-23.32.12-.64-.82-1.47-1.27-2.22-.58.79-1.54,1.53-1.68,2.39-1.06,6.47-1.99,12.96-2.86,19.46-.16,1.18.19,2.42.3,3.64ZM603.83,214.33c10.99,8.06,6.39,16.65,1.12,25.36,5.35-4.58,8.17-9.97,7.08-16.87-.71-4.47-3.86-6.87-8.2-8.48ZM471.82,160.01c-3.49-7.76-13.44-10.11-19.19-4.64,7.13-1.38,13.79-1,19.19,4.64ZM660.81,726.48l1.39-.52c-3.13-10.01-6.25-20.02-9.38-30.02l-1.41.44c3.13,10.04,6.26,20.07,9.4,30.11ZM638.41,870.44c.8-.28,1.6-.55,2.39-.83-2.3-5.88-4.61-11.77-6.91-17.65-.58.2-1.16.4-1.74.59.94,6.34,3.87,12.02,6.26,17.88ZM450.9,798.91c-4.77,3.44-7.43,12.81-5.16,16.25,1.8-5.66,3.48-10.96,5.16-16.25ZM533.5,185.38c5.04-2.31,10.52-4.82,15.67-7.18-5.84-2.15-14.71,2.13-15.67,7.18ZM357.35,903.19c-.53.76-1.06,1.52-1.59,2.29,3.79,2.68,7.59,5.35,11.38,8.03.43-.62.85-1.23,1.28-1.85-3.69-2.82-7.38-5.65-11.07-8.47ZM624.34,513.82q5.74-6.66-1.16-11.86c.4,4.05.74,7.58,1.16,11.86ZM743.52,897.87c-.41-.51-.82-1.02-1.23-1.54-3.45,2.91-6.89,5.81-10.34,8.72l.82,1.05c4.36-1.74,8.56-3.69,10.75-8.24ZM613.53,688.47c-.77.29-1.54.59-2.32.88,1.66,4.3,3.32,8.6,4.99,12.9.68-.26,1.36-.52,2.03-.77-1.57-4.34-3.14-8.67-4.7-13.01ZM617.48,773.99c.68-.22,1.35-.43,2.03-.65-1.6-4.51-3.19-9.02-4.79-13.54-.69.25-1.39.5-2.08.75,1.61,4.48,3.23,8.95,4.84,13.43ZM620.02,278.7c3,6.19.3,10.46-4.81,13.98,7.97-2.73,10.14-9.51,4.81-13.98ZM653.62,811.07c-2.82,2.52-1.44,8.17,3.06,12.85-1.15-4.81-2.04-8.57-3.06-12.85ZM438.56,740.4c.48.1.96.2,1.43.3,1.31-3.54,4.36-6.75,1.11-11.17-.85,3.62-1.7,7.25-2.54,10.87ZM560.22,573.88c.72-.08,1.44-.16,2.15-.24l-1.39-10.31c-.7.09-1.41.17-2.11.26.45,3.43.89,6.86,1.34,10.29Z" class="cls-1"></path>
      <path d="M698.86,178.64c-11.95,4.73-23.46,9.32-35.01,13.81-1.4.54-3.04.48-4.57.7.18-1.69-.05-3.56.61-5.04,11.83-26.64,23.75-53.23,35.68-79.83,1.25-2.78,2.65-5.5,3.98-8.25l2.15.2c2.8,29.12,5.6,58.24,8.5,88.35,10.94-5.66,20.93-10.83,30.91-16,2.51-1.3,4.94-2.75,7.51-3.91,1.23-.56,2.7-.6,4.06-.88-.12,1.51.23,3.26-.43,4.47-3.78,6.99-7.86,13.82-11.73,20.77-8.95,16.07-17.8,32.2-26.8,48.24-.79,1.4-2.38,2.36-3.6,3.52-.64-1.56-1.63-3.07-1.88-4.69-2.64-17.03-5.15-34.09-7.71-51.13-.49-3.27-1.04-6.52-1.65-10.34ZM707.01,194.56c-2.84-28.25-5.52-54.95-8.21-81.64-.28-.06-.56-.13-.84-.19-11.19,24.89-22.37,49.77-33.94,75.51,13.2-5.08,25.31-9.73,38.16-14.67,3.16,21.23,6.16,41.46,9.36,62.99,11.66-21.07,22.67-40.96,34.06-61.55-13.13,6.65-25.22,12.78-38.6,19.56Z" class="cls-1"></path>
      <path d="M389.21,834.69c-.39.48-.85.92-1.16,1.45-.74,1.27-1.41,2.58-2.11,3.88-.57-.44-1.68-1-1.61-1.31.46-2.13,1.16-4.21,1.79-6.3.98.82,1.96,1.64,2.94,2.45,0,0,.15-.17.15-.17Z" class="cls-1"></path>
      <path d="M507.7,612.51c9.87-13.99,7.76-29.53,7.44-44.71-.15-7.27-.68-14.54-1.03-21.48-9.9,0-19.61.01-29.32,0-19.93-.03-39.87-.07-59.8-.12-2.34,0-4.32-.22-3.83-3.57,2.59-17.53,5.12-35.08,7.55-52.63,2.52-18.18,4.91-36.37,7.36-54.56,1.32-9.81,2.7-19.61,3.97-29.43.23-1.82.03-3.69.03-5.54-.61-.14-1.22-.29-1.84-.43-.65,1.59-1.67,3.14-1.9,4.79-2.83,20.13-5.55,40.28-8.29,60.42-.69,5.1-1.12,10.26-2.18,15.28-.4,1.9-1.91,3.9-3.47,5.17-15.84,12.8-33.5,21.58-54.04,23.56-22.36,2.15-41.85-7.14-51.53-29.07-5.97-13.52-7.1-27.9-6.49-42.36.87-20.44,4.43-40.46,11.59-59.73.72-1.95,1.61-3.83,2.78-6.59,4.1,7.99,10.17,11.95,17.49,14.15l.99-1.21c-1.25-.98-2.49-1.98-3.75-2.94-3.03-2.31-6.42-4.28-9.04-6.98-5.35-5.5-4.67-8.91,2.57-14.57,2.42,9.77,10.4,13.31,18.54,16.28,8.12,2.96,16.49,5.25,23.38-3.05,2.85,10.39,2.54,10.98-6.45,12.42-3.06.49-6.19.53-9.43.78,2.76,3.58,6.33,3.76,17.83.91.67,16.26,1.33,32.42,2,48.58.5.16,1.01.33,1.51.49.71-.82,1.87-1.56,2.03-2.47.33-1.93.27-3.95.13-5.92-.35-5.08-.01-9.33,4.18-13.6,14-14.26,27.65-28.95,44.76-39.51,9.98-6.16,20.88-10.83,31.34-16.2,3.12-1.6,4.61-.47,6.07,2.54,11.44,23.6,23.04,47.12,34.87,71.24-9.19,4.05-15.48,10.94-15.78,21.98-.18,6.48,1.99,12.1,6.55,16.71,10.95,11.09,25.59,11.09,36.11-.09,6.03-6.41,7.63-13.92,5.24-22.46-2.36-8.45-8.96-12.84-16.32-17.07,13.52-25.47,26.83-50.57,40.15-75.66-.38-.19-.76-.39-1.14-.58-25.43,39.04-73.23,32.45-88.52,1.18,2.4-.59,4.7-1.15,6.99-1.71,5.24,10.57,14.41,14.74,24.99,16.27,14.22,2.05,27.54-1.03,39.49-8.96,3.19-2.11,5.35-5.73,8.16-8.47,1.06-1.04,2.78-2.37,3.96-2.17,21.21,3.66,39.8,13.31,57.69,24.88,21.63,13.98,41.12,30.51,59.07,48.82,12.09,12.33,24.04,24.97,34.61,38.58,11.99,15.44,13.59,32.96,5.31,51.06-9.88,21.6-25.15,39.07-42.52,54.76-8.62,7.79-18.07,14.69-27.26,21.83-2.2,1.71-4.75,3.19-7.38,4.04-1.5.48-4.2.1-5.13-.97-9.37-10.68-20.52-18.9-33.21-25.15-.7-.34-1.27-.95-1.87-1.41,3.34-5.89,4.66-6.33,10.34-3.9,10.57,4.53,18.29,12.33,24.82,21.52,1.24,1.75,2.81,3.27,4.65,5.38,2.28-8.65-14.35-23.53-34.51-32.16,16.11-23.2,30.85-47.34,51-67.43.82-.82.84-2.46,1.23-3.72-1.33.31-3.06.18-3.91.99-4.08,3.91-8.17,7.86-11.76,12.21-2.59,3.13-4.15,2.59-6.68.02-21.31-21.63-38.4-46.24-52.39-73.11-.97-1.86-2.64-3.35-3.98-5.01-.6.4-1.2.8-1.81,1.2,2.27,4.48,4.44,9.02,6.84,13.43,11.08,20.38,23.89,39.54,39.73,56.61,1.52,1.63,2.37,4.31,2.61,6.61.62,5.74,1.29,11.58.86,17.31-.56,7.63-9.73,15.46-17.15,16.31-17.13,1.95-34.23,4.17-51.33,6.35-12,1.53-23.98,3.15-35.07,4.62.83,7.15,2.2,14.09,2.31,21.05.17,10.63.06,21.35-1.12,31.9-.5,4.45-3.86,8.64-6.24,12.76-.56.97-2.42,1.18-3.69,1.74ZM683.56,486.64c-.1-.82-.2-1.64-.3-2.46-5.86.77-11.73,1.54-17.59,2.31.1.78.2,1.55.3,2.33,5.86-.72,11.73-1.45,17.59-2.17ZM372.17,454.35c.45.15.89.29,1.34.44,4.1-4.09,5.54-8.96,2.91-12.79-1.55,4.52-2.9,8.43-4.25,12.35Z" class="cls-2"></path>
      <path d="M700.94,946.96c-95.23,2.47-190.22,3.06-285.18-.29,3.16-17.14,6.13-33.23,9.19-49.82,12.29,2.88,16.09-5.58,19.96-14.3,8.06-18.13,16.79-35.98,24.42-54.28,9.05-21.72,17.62-43.65,25.67-65.76,7.71-21.18,14.75-42.62,21.56-64.11,3.4-10.71,5.61-21.8,8.39-32.71.39-1.54.95-3.05,2.64-4.72,1.09,3.3,2.24,6.59,3.27,9.92,9.17,29.38,17.36,59.12,27.75,88.06,11.14,31.06,24.29,61.4,36.68,92.01,3.72,9.2,7.86,18.24,11.7,27.4,3.93,9.36,8.98,12.3,19.11,11.3,16-1.58,32.01-2.99,48.01-4.54,2.26-.22,4.08-.52,5.14,2.32,7.15,19.12,14.44,38.19,21.66,57.29.16.43.02.97.02,2.24Z" class="cls-2"></path>
      <path d="M480.62,334.54c7.6-1.78,15.4-1.39,21.9-5.56-.06-.51-.11-1.01-.17-1.52-1.74,0-3.56-.33-5.22.05-12.8,2.94-25.47,3.38-38.5.69-22.49-4.64-40.09-23.65-41.62-46.83-1.54-23.37,4.29-44.75,18.98-63.31.91-1.15,3.52-2.31,4.56-1.82,16.83,8.04,30.6,2.18,43.3-9.08.84-.75,1.71-1.48,2.76-2.39-.92,15.91,5.32,21.08,20.76,17.53.16,3.12,0,6.28.53,9.33,2.21,12.72,9.2,15.57,19.39,8.1,1.25,5.87,2.11,11.89,3.91,17.61.99,3.15,3,6.6,5.6,8.42,2.29,1.6,6.44,2.25,9.04,1.3,4.07-1.48,5.23-5.92,4.91-10.06-.46-5.89-1.48-11.74-2.26-17.63,9.02-1.57,20.47,6.58,22.27,16.67,1.63,9.18-1.27,17.1-8.42,23.26-6.82,5.88-15.21,6.81-24.74,6.82,1.95,15.21,3.78,29.77,5.7,44.33.87,6.58,2.19,13.11,2.74,19.71.16,1.94-1.14,4.54-2.61,5.98-12.11,11.9-37.89,15.6-52.85,7.73-6.64-3.5-10.99-8.38-10.06-16.67.46-4.09.08-8.27.08-12.69ZM459.02,235.34c-.41-.15-.81-.29-1.22-.44-.54.71-1.32,1.34-1.59,2.14-2.14,6.22-4.09,12.5-6.29,18.69-1.49,4.21-3.27,8.31-4.91,12.47-1.13,2.88-.19,4.87,2.72,5.82,3.84,1.26,15.84-3.92,18.9-9.14-6.2,1.65-11.36,3.02-16.92,4.5,3.37-11.68,9.77-21.99,9.32-34.04ZM464.43,221.09c-.31.57-.62,1.13-.92,1.7,1.24,1.09,2.34,2.41,3.74,3.25,8.07,4.85,16.18,9.63,24.35,14.29,1.05.6,2.55.38,3.85.55-.51-1.26-.66-3.05-1.6-3.7-6.76-4.71-13.56-9.41-20.63-13.64-2.51-1.5-5.83-1.67-8.77-2.44ZM425.35,243.1c.32.56.65,1.13.97,1.69,9.73-6.03,19.47-12.05,29.2-18.08-8.16-1.9-26.28,8.86-30.17,16.38ZM446.56,290.89c7.53,2.48,25.89-7.96,28.52-15.47-9.31,5.05-18.7,10.14-28.52,15.47ZM481.3,247.98c-1.96-1.92-3.18-3.12-4.4-4.32-1.26,1.82-3.08,3.51-3.53,5.51-.23,1.02,1.99,2.6,3.1,3.92,1.4-1.48,2.8-2.96,4.83-5.11ZM443.54,250.4c-1.93-1.87-3.16-3.07-4.39-4.26-1.04,1.68-2.65,3.27-2.92,5.07-.18,1.17,1.59,2.64,2.49,3.97,1.36-1.35,2.72-2.7,4.81-4.77ZM561.63,264.57s-.09-.05-.14-.07c-3.74,3.44-7.48,6.89-11.22,10.33.27.25.55.5.82.75l10.53-11.01Z" class="cls-2"></path>
      <path d="M382.13,411.7c-.66-12.19-.95-25.12-2.27-37.94-.48-4.64.76-7.53,3.36-11,5.26-7.02,8.33-15.05,9.05-23.96.14-1.75,1.55-4.05,3.05-4.92,9.92-5.77,19.99-11.28,30.12-16.69,1.14-.61,3.49-.66,4.3.08,13.34,12.41,29.47,16.84,47.19,16.93.46,0,.92.25,1.74.48-.24,5.09-.48,10.17-.74,15.66-19.46,3.94-37.34,11.68-52.76,23.74-15.03,11.76-28.83,25.09-43.04,37.61Z" class="cls-2"></path>
      <path d="M387.82,337.76c-2.71,12.78-8.71,22.4-17.53,30.48-1.79,1.64-3.06,3.85-5.28,6.71-7.68.72-15.53-2.24-22.84-7.31-4.69-3.26-4.94-8.51-6.06-13.24-4.18-17.65-3.32-34.95,4.85-51.44,4.43-8.94,13.68-12.58,22.54-8.12,2.8,1.41,5.61,2.91,8.11,4.79,1.21.92,1.7,2.8,2.52,4.24-1.96.95-3.86,2.39-5.92,2.67-1.35.18-2.95-1.27-4.39-2.08-2.6-1.47-5.04-3.28-7.76-4.46-7.48-3.25-16.08,1.78-14.78,9.59,1.94,11.71,5.17,23.3,8.98,34.55,2.06,6.06,10.15,7.33,17.47,3.86,6.43-3.05,12.69-6.46,20.09-10.25Z" class="cls-2"></path>
      <path d="M627.83,600.15c-3.05,8.02-6.21,16.34-9.48,24.94-16.89-3.98-33.27-7.73-49.21-15.59,2.87-3.3,5.22-6.03,7.59-8.74,6.34-7.24,12.73-14.44,19-21.74,2.19-2.55,3.77-3.56,7.31-1.23,9.35,6.17,17.98,13,24.79,22.37Z" class="cls-2"></path>
      <path d="M517.69,425.85c-4.41.26-8.13.47-12.24.72-8.3-16.15-16.84-32.77-25.37-49.39-.06-.11.06-.31.29-1.37,20.81,14.78,41.94,13.62,64.14.52-9.45,17.45-18.3,33.8-26.81,49.53Z" class="cls-2"></path>
      <path d="M533.56,452.43c.35,11.49-9.53,22.51-20.46,22.81-12,.34-21-8.16-21.29-20.09-.26-10.59,9-20.2,20.52-20.06,11.55.14,20.87,5.1,21.24,17.34ZM500.75,447.34c-.38.84-.75,1.68-1.13,2.51,4.59,2.23,9.37,6.55,13.73,6.16,5.14-.46,9.9-5,14.83-7.77l-.92-1.74c-5.06,2.22-10.13,4.45-15,6.59-3.81-1.9-7.66-3.82-11.51-5.74Z" class="cls-2"></path>
      <path d="M381.23,915.91c1.86-9.37,3.65-18.44,5.62-28.38,11.57,3.15,23.09,6.28,34.93,9.51-1.72,7.99-3.32,15.37-4.95,22.93-12.06-1.38-23.66-2.7-35.59-4.06Z" class="cls-2"></path>
      <path d="M681.61,884.36c9.34-1.28,18.15-2.48,27.76-3.8,3.33,9.09,6.89,18.83,10.65,29.13-8.29,2.63-16.56,5.25-25.29,8.01-4.33-10.99-8.67-22.01-13.13-33.34Z" class="cls-2"></path>
      <path d="M466.11,555.85c.98.78,1.38.93,1.46,1.19,2.57,8.1-2.88,27.46-9.32,32.89-4.01,3.38-8.62,4.82-14.22,3.55-16.36,72.62-32.7,145.13-49.04,217.64-.44-.09-.88-.18-1.31-.27,17.95-87.6,41.61-174.04,54.65-262.65.54-.08,1.08-.16,1.62-.25.29,2.05,1.09,4.17.8,6.13-1.57,10.34-3.42,20.65-5.16,30.96-.29,1.74-.51,3.5-.77,5.29,8.8.38,14.23-3.21,17.01-11.98,1.69-5.34,2.26-11.04,3.31-16.58.33-1.75.59-3.52.99-5.92Z" class="cls-2"></path>
      <path d="M534.02,660.69c20.58,77.19,53.3,149.82,81.48,224.42-1.76-3.11-3.83-6.09-5.23-9.35-7.65-17.81-15.27-35.63-22.64-53.55-18.11-44-34.9-88.49-48.9-133.99-2.39-7.76-4.39-15.64-6.51-23.48-.29-1.06-.18-2.23-.26-3.35.69-.24,1.38-.47,2.07-.71Z" class="cls-2"></path>
      <path d="M435.99,888.34c32.72-74.37,64.09-149.25,85.12-228.8,5.61,13.46-68.41,211.52-85.12,228.8Z" class="cls-2"></path>
      <path d="M502.98,546.97c.38,1.78,1.08,3.57,1.08,5.35-.06,21.95-.21,43.9-.35,65.84-.04,5.66,0,11.32-.22,16.97-.08,2.03-.77,4.03-2.1,5.98-2.77-31.33-.13-62.59-.32-93.84.64-.1,1.27-.19,1.91-.29Z" class="cls-2"></path>
      <path d="M577.64,631.64c.62-.25,1.3-.81,1.7-.65,18.6,7.45,38.02,11.44,57.8,14,.36.05.59,1.02.92,1.62-11.67,3.39-54.86-7.25-60.41-14.96Z" class="cls-2"></path>
      <path d="M351.48,290.14c5.36-8.07,16.49-8.91,24-2.15,1.23,1.1,2.78,2.28,3.22,3.71.59,1.9,1.02,4.58.12,6.06-1.68,2.74-3.6.65-5.21-.85-6.17-5.75-13.43-8.24-22.13-6.77Z" class="cls-2"></path>
      <path d="M460.31,199.89c-2.9,5.18-10.46,7.81-16.4,6.31-5.23-1.32-9.86-8.25-9.84-14.71.02-6.46,5.6-12.85,12.81-14.67,4.61-1.17,8.25-.03,10.38,3.71-1.75-.51-3.04-.95-4.37-1.27-5.84-1.4-12.36,2.01-15.13,7.89-2.37,5.04-.57,12.62,4.51,15.38,2.46,1.33,6.05,1.26,9,.85,2.83-.4,5.48-2.05,9.03-3.48Z" class="cls-2"></path>
      <path d="M354.1,303.03c5.36,11.18,7.69,23.3,11.2,35.76-4.63-2.76-12.81-28.28-11.2-35.76Z" class="cls-2"></path>
      <path d="M519.71,610.28v30.17c-3.34-3.35-2.92-26.82,0-30.17Z" class="cls-2"></path>
      <path d="M377.28,283.77c-6.71-1.6-12.16-2.9-17.86-4.26-.22-4.42,1.73-6.31,6.48-4.63,3.53,1.24,6.94,3.04,10.09,5.07.99.64.99,2.83,1.29,3.82Z" class="cls-2"></path>
      <path d="M580.79,551.57c4.7,7.58,1.49,19.51,13.97,22.66-3.88,3.58-6.43,1.18-8.41-.96-5.65-6.09-6.44-13.67-5.57-21.7Z" class="cls-2"></path>
      <path d="M375.13,272.94c2.72-1.48,5.45-4.14,8.15-4.11,2.46.03,3.2,6.57,1.19,8.5-4.46,4.29-6.06-.81-8.71-2.42-.21-.66-.42-1.32-.63-1.98Z" class="cls-2"></path>
      <path d="M392.57,218.4c-3.37,3.19-7.73,5.78-6.34,11.42,1.44,5.84,5.75,8.61,11.48,9.64-2.67,1.9-3.84,1.8-7.6-.58-4.48-2.82-7.21-8.25-5.99-12.71,1.14-4.17,3.8-7.08,8.44-7.77Z" class="cls-2"></path>
      <path d="M601.19,547.51c-1.87-3.44-3.32-6.12-5-9.2,4.01-.63,7.78-1.21,12.37-1.93-2.75,4.16-4.98,7.52-7.38,11.13Z" class="cls-2"></path>
      <path d="M563.65,666.26c2.78,7.78,5.56,15.57,8.34,23.35l-2.38.84c-2.71-7.8-5.42-15.59-8.12-23.39.72-.27,1.45-.54,2.17-.81Z" class="cls-2"></path>
      <path d="M662.17,797.41c2.49,7.29,4.97,14.58,7.46,21.86-.75.26-1.49.51-2.24.77l-7.64-21.8c.8-.28,1.61-.55,2.41-.83Z" class="cls-2"></path>
      <path d="M561.39,164.34c-10.18-6.17-21.4-6.81-32.9-5.95,8.67-4.34,25.84-1.14,32.9,5.95Z" class="cls-2"></path>
      <path d="M430.41,727.32c-.11-1.21-.46-2.46-.3-3.64.86-6.5,1.8-12.99,2.86-19.46.14-.87,1.1-1.6,1.68-2.39.45.74,1.38,1.58,1.27,2.22-1.44,7.79-3.04,15.55-4.59,23.32-.3-.02-.61-.03-.91-.05Z" class="cls-2"></path>
      <path d="M603.83,214.33c4.34,1.62,7.49,4.01,8.2,8.48,1.09,6.9-1.74,12.29-7.08,16.87,5.27-8.71,9.86-17.29-1.12-25.36Z" class="cls-2"></path>
      <path d="M471.82,160.01c-5.4-5.64-12.07-6.02-19.19-4.64,5.76-5.47,15.7-3.12,19.19,4.64Z" class="cls-2"></path>
      <path d="M660.81,726.48c-3.13-10.04-6.26-20.07-9.4-30.11l1.41-.44c3.13,10.01,6.25,20.02,9.38,30.02l-1.39.52Z" class="cls-2"></path>
      <path d="M638.41,870.44c-2.38-5.86-5.32-11.55-6.26-17.88.58-.2,1.16-.4,1.74-.59,2.3,5.88,4.61,11.77,6.91,17.65-.8.28-1.6.55-2.39.83Z" class="cls-2"></path>
      <path d="M450.9,798.91c-1.68,5.3-3.36,10.59-5.16,16.25-2.27-3.44.38-12.81,5.16-16.25Z" class="cls-2"></path>
      <path d="M533.5,185.38c.97-5.06,9.84-9.33,15.67-7.18-5.16,2.36-10.63,4.87-15.67,7.18Z" class="cls-2"></path>
      <path d="M357.35,903.19c3.69,2.82,7.38,5.65,11.07,8.47-.43.62-.85,1.23-1.28,1.85-3.79-2.68-7.59-5.35-11.38-8.03.53-.76,1.06-1.52,1.59-2.29Z" class="cls-2"></path>
      <path d="M624.34,513.82c-.42-4.28-.77-7.81-1.16-11.86q6.91,5.2,1.16,11.86Z" class="cls-2"></path>
      <path d="M743.52,897.87c-2.19,4.55-6.39,6.49-10.75,8.24l-.82-1.05c3.45-2.91,6.89-5.81,10.34-8.72.41.51.82,1.02,1.23,1.54Z" class="cls-2"></path>
      <path d="M613.53,688.47c1.57,4.34,3.14,8.67,4.7,13.01-.68.26-1.36.52-2.03.77-1.66-4.3-3.32-8.6-4.99-12.9.77-.29,1.54-.59,2.32-.88Z" class="cls-2"></path>
      <path d="M617.48,773.99c-1.61-4.48-3.23-8.95-4.84-13.43.69-.25,1.39-.5,2.08-.75,1.6,4.51,3.19,9.02,4.79,13.54-.68.22-1.35.43-2.03.65Z" class="cls-2"></path>
      <path d="M620.02,278.7c5.32,4.47,3.16,11.25-4.81,13.98,5.11-3.53,7.81-7.8,4.81-13.98Z" class="cls-2"></path>
      <path d="M653.62,811.07c1.02,4.29,1.91,8.04,3.06,12.85-4.5-4.68-5.88-10.33-3.06-12.85Z" class="cls-2"></path>
      <path d="M438.56,740.4c.85-3.62,1.7-7.25,2.54-10.87,3.25,4.42.2,7.63-1.11,11.17-.48-.1-.96-.2-1.43-.3Z" class="cls-2"></path>
      <path d="M560.22,573.88c-.45-3.43-.89-6.86-1.34-10.29.7-.09,1.41-.17,2.11-.26l1.39,10.31c-.72.08-1.44.16-2.15.24Z" class="cls-2"></path>
      <path d="M707.01,194.56c13.38-6.78,25.47-12.91,38.6-19.56-11.4,20.59-22.4,40.48-34.06,61.55-3.2-21.53-6.21-41.76-9.36-62.99-12.84,4.94-24.95,9.59-38.16,14.67,11.57-25.73,22.75-50.62,33.94-75.51.28.06.56.13.84.19,2.68,26.7,5.37,53.39,8.21,81.64Z" class="cls-2"></path>
      <path d="M683.56,486.64c-5.86.72-11.73,1.45-17.59,2.17-.1-.78-.2-1.55-.3-2.33,5.86-.77,11.73-1.54,17.59-2.31.1.82.2,1.64.3,2.46Z" class="cls-1"></path>
      <path d="M372.17,454.35c1.35-3.92,2.69-7.83,4.25-12.35,2.63,3.83,1.19,8.71-2.91,12.79-.45-.15-.89-.29-1.34-.44Z" class="cls-1"></path>
      <path d="M459.02,235.34c.45,12.05-5.95,22.36-9.32,34.04,5.56-1.48,10.72-2.85,16.92-4.5-3.06,5.21-15.05,10.4-18.9,9.14-2.91-.96-3.85-2.95-2.72-5.82,1.63-4.16,3.42-8.26,4.91-12.47,2.19-6.2,4.15-12.48,6.29-18.69.28-.8,1.05-1.43,1.59-2.14.41.15.81.29,1.22.44Z" class="cls-1"></path>
      <path d="M464.43,221.09c2.95.78,6.26.94,8.77,2.44,7.07,4.22,13.87,8.93,20.63,13.64.94.65,1.09,2.44,1.6,3.7-1.29-.16-2.8.05-3.85-.55-8.17-4.66-16.28-9.44-24.35-14.29-1.39-.84-2.5-2.15-3.74-3.25.31-.57.62-1.13.92-1.7Z" class="cls-1"></path>
      <path d="M425.35,243.1c3.89-7.52,22-18.29,30.17-16.38-9.73,6.03-19.47,12.05-29.2,18.08-.32-.56-.65-1.13-.97-1.69Z" class="cls-1"></path>
      <path d="M446.56,290.89c9.82-5.33,19.21-10.42,28.52-15.47-2.62,7.51-20.98,17.95-28.52,15.47Z" class="cls-1"></path>
      <path d="M481.3,247.98c-2.03,2.15-3.43,3.63-4.83,5.11-1.11-1.32-3.33-2.9-3.1-3.92.46-2,2.28-3.69,3.53-5.51,1.22,1.2,2.44,2.4,4.4,4.32Z" class="cls-1"></path>
      <path d="M443.54,250.4c-2.09,2.07-3.45,3.42-4.81,4.77-.9-1.33-2.67-2.8-2.49-3.97.27-1.79,1.88-3.39,2.92-5.07,1.23,1.2,2.46,2.39,4.39,4.26Z" class="cls-1"></path>
      <path d="M561.63,264.57l-10.53,11.01c-.27-.25-.55-.5-.82-.75,3.74-3.44,7.48-6.89,11.22-10.33.05.02.09.05.14.07Z" class="cls-1"></path>
      <path d="M500.75,447.34c3.85,1.92,7.7,3.84,11.51,5.74,4.88-2.14,9.94-4.36,15-6.59l.92,1.74c-4.93,2.77-9.7,7.31-14.83,7.77-4.36.39-9.14-3.92-13.73-6.16.38-.84.75-1.68,1.13-2.51Z" class="cls-1"></path>
    </g>
  </g>
</svg>