<svg height="1024" width="1024" xmlns:xlink="http://www.w3.org/1999/xlink" xmlns="http://www.w3.org/2000/svg">
	<path d="M478.595 104.714C483.147 103.858 488.85 104.304 493.536 104.308C518.967 104.33 558.048 106.413 582.304 114.347C595.147 118.547 601.617 124.891 607.619 136.742C629.455 128.634 644.867 124.493 668.21 130.104C703.482 138.581 736.319 164.784 754.924 195.637C762.332 207.922 769.782 227.223 765.888 241.761C764.224 247.975 759.518 252.645 754.08 255.771C764.051 259.281 771.673 265.307 777.562 274.242C791.706 295.698 787.18 358.452 781.935 383.558C779.359 395.89 774.783 409.208 763.672 416.476C767.704 419.33 771.482 422.252 774.143 426.504C778.643 433.695 780.662 443.311 781.778 451.601C784.881 474.646 783.533 520.469 778.483 543.032C775.713 555.409 771.388 566.664 760.303 573.706C761.888 574.586 763.517 575.648 764.933 576.789C775.409 585.227 779.655 600.875 781.312 613.62C785.067 642.502 780.76 694.731 768.788 721.606C766.695 726.305 764.035 730.248 760.91 734.321C767.443 746.554 766.799 758.972 764.225 772.308C756.718 811.209 729.611 851.996 696.455 874.155C686.523 880.793 677.145 885.011 665.065 882.591C656.295 895.168 631.277 903.589 616.761 907.558C595.684 913.321 549.995 922.319 529.127 920.14C523.128 919.514 517.885 917.916 512.66 914.93C511.054 913.88 509.591 912.477 508.118 911.242C497.387 920.277 482.218 921.395 468.752 921.948C440.701 923.101 386.636 920.127 361.143 908.729C356.131 906.488 352.134 903.645 348.119 899.939C331.267 902.404 313.782 891.787 300.237 882.69C272.573 864.111 246.406 832.848 239.987 799.503C237.153 784.779 238.026 771.379 246.639 758.763C243.404 756.344 240.995 753.203 238.819 749.832C220.616 721.627 209.268 647.019 216.642 614.235C218.928 604.068 223.649 598.816 232.38 593.349C226.889 589.571 221.856 584.992 218.583 579.107C201.822 548.968 205.611 485.778 215.222 452.794C219.9 436.738 224.889 433.363 239.002 425.567Q238.131 425.104 237.266 424.631C226.846 418.944 218.057 413.015 214.626 400.987C208.761 380.421 216.116 327.441 221.634 306.243C224.221 296.305 227.66 286.287 232.641 277.289C239.636 264.652 246.363 260.781 259.886 256.824C256.406 250.775 254.166 244.936 252.962 238.024C249.817 219.963 252.919 205.172 263.468 190.179C283.66 161.482 318.876 143.267 353.06 137.59C367.758 135.149 386.455 134.267 399.222 143.413C401.094 138.277 403.726 133.567 407.363 129.471C424.818 109.812 453.854 106.048 478.595 104.714ZM362.771 277.088C371.632 293.993 380.693 306.936 390.673 322.841C400.415 338.367 409.625 354.119 420.226 369.088C425.809 369.565 445.291 372.33 448.895 369.034C450.724 367.361 449.99 360.627 449.825 358.204C449.738 356.921 449.556 355.725 449.269 354.471C435.847 352.008 422.735 351.013 409.109 350.841C411.683 340.855 413.965 330.223 414.689 319.923C413.688 317.703 412.562 315.426 412.198 312.998C411.612 309.087 412.54 305.156 412.755 301.249C413.321 290.956 413.056 281.82 416.832 271.987C421.289 260.384 429.292 252.381 440.649 247.419C451.036 242.881 461.222 241.297 471.928 245.62L472.578 245.89C480.317 241.969 489.184 241.902 497.356 244.6C508.496 248.279 515.989 256.789 521.1 267.054C532.053 289.049 526.177 300.941 530.664 321.59C531.898 327.265 534.012 332.391 536.725 337.51C537.86 339.653 539.308 341.739 540.15 344.011C524.582 345.084 509.346 347.559 494.017 350.46Q494.129 359.259 495.239 367.989C518.409 368.721 538.939 374.908 555.17 392.248C563.456 401.1 570.385 412.017 575.812 422.819C583.461 438.043 590.189 453.873 596.423 469.729C600.397 479.839 603.564 490.098 607.188 500.313C612.835 516.227 639.448 588.584 638.991 600.76C638.918 602.708 638.358 604.358 637.194 605.898C636.063 606.62 635.301 606.746 633.967 606.933C631.876 607.225 630.601 607.659 629.284 609.392C628.724 610.127 628.238 610.919 627.75 611.702C626.115 612.735 624.514 612.671 622.631 612.811C622.527 612.818 622.423 612.83 622.319 612.839C618.214 610.969 616.196 607.837 614.16 603.945C613.13 603.986 611.437 603.84 610.478 604.092C606.662 605.097 603.225 612.155 598.344 607.778C595.668 605.379 593.714 601.076 592.326 597.804C587.552 586.544 584.351 574.179 580.512 562.551C575.853 548.442 570.49 534.411 566.344 520.154C564.619 524.554 562.779 526.145 558.97 528.775Q565.225 592.981 572.776 657.048L579.398 717.935C580.454 727.713 581.161 737.606 582.526 747.339C584.804 747.089 587.077 746.584 588.996 748.07C590.049 755.31 586.151 769.979 585.312 778.005C595.342 777.433 606.004 778.269 614.671 783.719Q615.361 786.315 616.017 788.919C630.02 783.611 639.077 774.776 645.303 761.071C647.824 755.523 649.44 749.652 650.512 743.664C653.007 729.731 653.821 715.494 654.963 701.405C657.145 674.505 658.624 647.721 659.67 620.754C660.944 587.897 662.91 554.897 663.002 522.021C663.082 493.607 661.658 465.239 660.957 436.841C660.271 409.027 660.377 381.021 658.154 353.287C656.313 330.318 654.445 305.778 646.168 284.067C637.258 260.697 621.762 244.249 598.905 234.186C573.531 223.014 536.692 217.207 508.96 219.232C468.046 220.349 405.448 227.407 376.119 258.614C370.832 264.24 366.591 270.398 362.771 277.088ZM347.152 896.307C348.139 861.362 368.579 832.871 393.153 809.687C394.023 808.866 394.888 808.028 395.817 807.275C375.808 801.861 361.821 795.278 351.087 776.588C343.297 763.022 339.415 746.74 337.055 731.36C336.922 730.498 336.92 729.992 336.269 729.32C336.197 729.245 336.081 729.23 335.987 729.185C326.89 730.722 317.757 732.135 308.8 734.367C291.451 738.691 258.707 749.988 248.328 764.284C241.785 773.297 242.072 786.992 243.96 797.424C249.723 829.274 273.156 858.838 299.432 876.907C304.277 880.239 309.465 883.505 314.718 886.175C324.664 891.571 335.477 897.503 347.152 896.307ZM345.166 354.793Q340.11 382.403 336.6 410.252Q333.091 438.101 331.139 466.102C328.4 508.132 329.034 549.849 330.017 591.905C331.073 637.119 332.71 742.338 357.416 778.491C367.443 793.163 382.186 800.471 399.342 803.649C406 804.883 412.746 805.289 419.489 805.763C424.647 803.215 429.789 800.765 435.104 798.56C441.274 796.451 447.98 794.726 453.916 792.092C452.82 788.119 451.85 784.045 450.363 780.198C447.303 777.645 444.352 775.417 443.895 771.164C443.724 769.572 443.857 768.326 444.932 767.084C445.169 766.809 445.425 766.549 445.673 766.283C446.667 765.217 447.224 764.429 447.231 762.934C447.253 758.16 444.749 749.962 443.828 744.953Q439.99 723.793 436.547 702.565Q426.688 641.153 418.607 579.482C416.865 565.463 414.384 551.223 413.287 537.16C407.924 534.072 405.29 531.183 403.623 525.117C398.994 508.275 400.892 472.655 401.968 454.585L355.892 373.537C353.561 369.473 347.937 357.422 345.166 354.793ZM277.854 733.669Q281.307 732.369 284.822 731.242Q288.336 730.116 291.901 729.166Q295.467 728.216 299.076 727.445Q302.685 726.675 306.328 726.085Q309.971 725.495 313.638 725.088Q317.306 724.681 320.989 724.458Q324.673 724.234 328.363 724.194Q332.053 724.154 335.74 724.299C332.141 698.599 329.417 673.181 327.842 647.266C326.955 632.681 326.785 618.053 326.016 603.457C303.565 597.8 281.418 594.077 258.185 594.702C248.104 595.225 232.905 595.071 225.718 603.372C215.218 615.5 218.749 651.567 220.262 667.107C222.456 689.639 227.816 718.659 237.709 739.075C240.448 744.728 243.857 749.746 247.674 754.714C254.459 744.458 266.629 738.021 277.854 733.669ZM352.291 898.127C355.773 900.833 359.113 903.12 363.164 904.887C370.267 907.984 378.234 909.461 385.799 911.005C412.703 916.494 439.164 918.438 466.624 917.76C481.235 916.904 493.119 916.1 505.525 907.607C495.554 875.328 499.159 842.073 508.641 810.233C481.799 811.174 454.741 811.799 427.897 810.594C418.936 810.192 410.152 809.011 401.245 808.414C385.849 825.456 373.086 844.435 364.827 865.96C360.677 876.775 357.544 887.747 352.291 898.127ZM564.218 510.713C565.216 504.614 539.845 434.08 534.937 424.963C530.026 422.437 525.058 419.866 519.763 418.234C519.698 419.128 519.352 420.277 519.953 420.995C522.646 424.215 528.823 425.643 532.488 427.853C536.179 434.868 538.375 443.11 541.038 450.596L556.032 492.879C557.612 497.388 559.585 505.466 561.693 509.329C562.043 509.97 562.86 510.317 563.5 510.521C563.736 510.596 563.978 510.649 564.218 510.713ZM736.951 418.715C711.671 420.61 688.244 425.987 665.113 436.57Q668.135 509.275 665.656 582C676.215 576.337 686.885 571.511 698.377 568.017C715.702 563.178 739.808 559.807 756.263 569.101Q757.26 569.665 758.246 570.248C766.443 566.009 770.167 557.163 772.789 548.845C780.277 525.081 783.573 453.535 771.567 430.959C768.833 425.819 765.346 422.562 759.727 420.887C752.758 418.81 744.177 418.129 736.951 418.715ZM512.116 809.695C512.802 821.548 510.035 833.941 509.83 845.918C509.473 866.819 511.103 887.645 511.456 908.532C522.773 917.854 535.318 917.022 549.123 915.847C579.275 912.231 639.277 903.437 661.08 881.155C657.384 878.758 654.112 876.331 651.148 873.05C637.645 858.105 628.686 831.763 624.503 812.015C623.77 808.553 621.615 792.766 620.504 791.55C602.077 798.476 577.388 801.631 557.694 804.338C542.568 806.417 527.343 808.526 512.116 809.695ZM261.419 251.26C270.414 254.6 279.6 257.688 288.751 260.574C284.78 253.534 274.413 235.279 276.382 227.79C276.74 226.427 277.617 225.119 278.902 224.484C279.929 223.976 281.122 223.678 282.225 223.38C282.263 220.837 282.074 218.118 282.809 215.668C283.678 214.922 283.716 215.041 284.779 214.888C285.73 215.451 285.801 215.441 286.038 216.481C286.556 218.758 285.454 221.199 285.549 223.465C285.631 225.429 291.717 231.257 293.013 233.187C289.739 225.232 283.089 209.856 286.391 201.354C286.924 199.981 287.804 198.863 289.213 198.303C290.512 197.786 291.613 197.774 292.881 198.434C299.057 201.654 300.538 213.665 304.452 219.228C303.449 215.971 302.509 212.679 301.419 209.451C299.867 203.35 299.222 198.023 302.542 192.317C303.24 191.117 303.996 190.439 305.247 189.825C306.879 189.672 307.985 190.17 309.202 191.21C312.999 194.454 314.683 199.643 317.301 203.772L317.696 203.582C317.69 203.409 317.682 203.236 317.679 203.063C317.64 200.898 317.987 199.602 319.483 198.004C320.377 197.051 321.496 196.349 322.852 196.385C325.802 196.462 328.335 199.477 329.942 201.62C334.218 207.32 335.916 213.736 337.972 220.422C339.46 216.278 340.893 212.912 345.233 211.006C346.356 210.513 347.791 210.219 348.953 210.731C350.701 211.502 351.608 213.505 352.082 215.243C353.439 220.209 353.044 225.53 353.143 230.624C353.303 238.855 354.002 257.93 356.24 265.029C357.088 267.721 358.723 270.506 360.193 272.919C373.768 246.98 397.912 235.816 424.31 227.213Q422.996 220.235 421.296 213.342Q419.596 206.448 417.515 199.66Q415.434 192.871 412.977 186.21Q410.521 179.548 407.698 173.033C404.897 166.651 395.324 150.547 395.051 145.599L394.539 145.837L394.955 144.865C387.925 141.46 377.049 139.655 369.248 140.219C333.697 142.164 296.983 158.122 273.175 184.827C262.41 196.902 254.95 210.759 256.032 227.257C256.544 235.056 257.896 244.201 261.419 251.26ZM429.951 293.155C429.865 296.939 430.589 308.102 427.768 310.61C427.626 310.737 427.457 310.828 427.301 310.936L426.531 310.652C425.821 308.473 425.903 306.045 425.794 303.769C422.945 304.3 417.999 304.532 416.224 307.1C415.117 308.703 414.949 310.635 415.441 312.49C416.287 315.684 418.923 318.649 421.847 320.12C425.947 322.182 429.752 321.565 434.015 320.447C435.538 331.564 439.732 343.024 449.025 350.007C454.97 354.474 461.154 355.246 468.332 355.018C478.602 353.549 489.365 351.728 495.995 342.824C501.843 334.971 503.818 324.436 505.328 314.99L511.208 316.588C514.953 313.64 518.478 310.252 518.909 305.179C519.066 303.327 518.607 301.53 517.271 300.188C516.191 299.104 514.275 298.102 512.729 298.014C511.59 297.95 510.703 298.376 510.034 299.309C508.341 301.671 509.337 305.339 507.799 307.749C506.627 308.029 506.797 307.87 505.822 307.307C505.127 302.979 506.507 298.019 506.629 293.609C492.988 292.019 484.115 289.21 475.332 278.076C473.943 276.315 473.136 274.062 471.807 272.4C466.991 281.763 460.026 287.967 449.881 291.169C443.295 293.248 436.725 292.735 429.951 293.155ZM539.498 802.956C536.426 790.106 532.728 777.421 529.707 764.563C528.196 764.259 525.634 764.016 524.651 762.734C523.753 761.561 523.062 759.578 523.543 758.122C524.049 756.591 525.85 755.323 527.083 754.393C524.849 740.868 520.487 727.344 517.081 714.045C512.965 697.972 509.423 681.718 505.464 665.596Q502.631 654.232 500.18 642.779C499.359 638.997 498.881 634.392 497.53 630.822C496.959 645.202 498.98 661.716 499.866 676.268C501.556 704.029 503.145 731.954 503.691 759.764C505.416 760.388 507.188 760.82 508.022 762.626C508.901 764.529 508.657 766.278 507.852 768.142C506.914 770.315 505.782 771.374 503.863 772.727C504.481 784.536 506.361 795.911 499.966 806.561Q515.8 805.347 531.615 803.906Q535.56 803.46 539.498 802.956ZM326.995 302.785L327.584 303.759C330.471 303.199 336.561 297.896 339.54 296.15C346.851 291.865 354.591 288.385 362.285 284.859C357.917 278.582 353.586 271.905 351.77 264.376C350.386 258.642 349.434 237.754 349.312 230.947C349.238 226.801 349.806 222.195 349.081 218.137C348.791 216.512 348.365 215.646 347.093 214.609C345.859 214.635 345.142 214.723 344.204 215.614C340.568 219.067 341.379 229.566 336.971 231.765C335.911 231.014 336.067 231.046 335.865 229.838C335.64 228.492 335.87 227.149 335.514 225.804C334.107 220.488 328.724 203.976 324.476 201.008C323.438 200.283 323.254 200.399 322.119 200.689C320.551 203.529 321.296 208.975 322.131 212.067C323.28 216.32 327.281 221.443 325.604 225.77L324.821 226.436C322.461 225.675 321.243 222.452 320.159 220.338C317.536 215.225 309.978 196.334 306.109 193.716C303.68 197.061 303.932 199.947 304.577 203.894C305.505 209.575 311.782 227.827 310.736 231.735C309.582 231.692 308.983 230.945 308.226 230.128C303.379 224.9 293.881 204.103 291.087 202.51C290.225 202.924 290.428 202.627 290.134 203.492C286.572 213.979 301.251 237.546 298.374 240.413C293.617 239.631 284.186 225.951 280.6 227.857C278.623 234.475 286.393 248.143 289.598 254.11C294.016 262.337 300.038 269.257 307.249 275.184C310.824 278.122 314.768 280.799 317.636 284.471C321.717 289.696 324.323 296.74 326.995 302.785ZM325.548 597.01C325.443 567.376 324.732 537.77 325.342 508.133C325.76 487.827 327.149 467.616 328.38 447.35C303.012 438.904 275.23 430.335 248.125 432.181C240.454 432.993 230.643 433.712 225.356 440.15C221.236 445.168 219.363 452.667 217.817 458.835C210.922 486.35 209.631 517.415 213.137 545.522C214.864 559.366 218.437 577.459 230.227 586.51Q232.051 587.911 233.966 589.185C252.498 580.677 276.683 585.075 296.131 588.613C306.175 590.986 315.858 593.434 325.548 597.01ZM490.012 353.201C478.479 358.523 465.517 360.933 453.189 356.835C453.205 362.927 453.887 369.073 451.17 374.689C453.134 375.904 455.054 377.171 457.177 378.095C467.448 381.872 476.874 382.137 486.942 377.408C489.752 376.088 492.205 374.505 494.599 372.53C488.223 365.078 492.341 358.726 490.012 353.201ZM624.759 789.713C633.528 819.918 642.957 839.805 659.918 866.503C662.155 870.025 664.045 874.922 666.746 877.895C671.068 880.036 675.986 879.171 680.376 877.656C690.949 874.007 700.232 866.471 708.508 859.164C735.758 834.124 760.842 795.528 762.577 757.621C762.905 750.442 762.157 742.802 757.123 737.216C742.82 721.346 700.168 713.638 678.306 712.99Q668.23 712.785 658.155 713.067C656.155 738.433 654.226 765.897 633.498 783.597C630.764 785.932 627.817 787.835 624.759 789.713ZM608.45 579.337C608.98 579.641 610.067 580.076 610.461 580.489C615.793 586.084 616.252 608.401 624.507 608.998C625.82 608.476 625.831 608.486 626.524 607.258C627.076 600 615.212 581.237 618.139 576.226C619.152 576.034 618.969 575.841 619.697 576.379C624.951 580.263 627.345 603.54 633.307 603.709C634.331 602.942 634.833 602.661 635.134 601.324C636.257 596.337 606.842 506.798 602.087 498.57L601.489 498.454C590.577 504.166 579.005 507.198 567.765 511.967C571.953 526.874 577.742 541.532 582.627 556.247C587.376 570.553 591.386 585.778 597.319 599.589C598.097 601.402 599.111 603.84 600.892 604.876C601.696 605.343 602.022 605.246 602.915 605.269C603.9 604.372 604.114 603.915 604.137 602.552C604.27 594.694 597.572 586.439 598.508 578.646C599.55 578.157 599.644 578.214 600.788 578.427C606.2 582.824 604.421 599.099 610.984 601.015L612.715 600.619C612.736 595.095 605.538 583.76 608.45 579.337ZM642.087 132.184C631.382 133.168 621.427 135.813 611.607 140.188C612.975 171.534 600.084 198.644 582.193 223.463C607.502 230.524 630.318 244.845 643.498 268.101C649.265 278.277 652.447 288.929 655.325 300.162C664.267 292.709 673.581 285.495 683.846 279.927Q692.784 274.72 702.163 270.36Q711.542 266 721.284 262.523C732.448 258.562 745.076 255.812 755.185 249.469C758.871 247.155 761.153 245.077 762.23 240.748C765.856 226.165 756.203 205.986 748.612 194.031C730.303 165.197 698.322 141.228 664.728 133.91C657.541 132.345 649.428 131.318 642.087 132.184ZM531.848 756.69C547.263 756.028 563.684 752.602 578.693 748.945C575.917 717.164 571.682 685.47 568.312 653.745Q562.364 592.179 554.995 530.767L554.291 530.701C531.541 535.568 508.582 537.063 485.391 538.179C462.736 539.27 440.069 539.919 417.455 537.839C422.02 582.764 429.083 627.485 435.797 672.13Q439.764 698.452 444.286 724.684C446.58 738.444 448.644 752.699 452.296 766.166C468.099 764.305 484.149 762.305 500.03 761.388C499.449 733.982 497.61 706.467 495.811 679.115L492.084 622.03C491.611 609.416 491.201 595.881 487.924 583.635C482.854 583.302 471.436 583.44 467.497 579.867L467.759 579.17C471.631 577.52 485.613 578.653 489.505 580.147C490.277 580.443 491.373 580.953 491.832 581.658C492.549 582.76 492.579 586.086 492.744 587.478C493.969 597.79 496.178 607.657 498.542 617.753C509.383 664.064 519.599 710.731 531.848 756.69ZM718.152 572.798C699.229 574.233 682.354 579.622 665.16 587.338L658.769 708.701C682.858 704.014 710.083 704.738 733.243 712.96C743.318 716.759 751.692 721.895 758.93 729.919C762.477 725.097 765.348 720.282 767.502 714.681C777.302 689.196 780.921 639.802 776.86 612.604C775.219 601.621 771.508 587.013 761.96 580.149C750.55 571.948 731.515 571.912 718.152 572.798ZM749.592 269.196Q744.557 269.596 739.552 270.282Q734.548 270.968 729.591 271.939Q724.634 272.91 719.741 274.162Q714.847 275.414 710.033 276.944Q705.219 278.473 700.5 280.275Q695.781 282.076 691.173 284.144Q686.564 286.212 682.082 288.54Q677.599 290.867 673.256 293.447C667.432 296.864 662.03 300.862 656.336 304.466C661.103 330.76 662.991 357.427 663.797 384.113C664.276 399.947 663.932 416.042 665.283 431.82C672.018 428.41 678.753 425.223 685.814 422.531C709.775 413.318 735.135 405.421 760.593 413.593C764.182 410.613 767.348 407.676 769.971 403.792C778.425 391.275 780.022 372.307 781.404 357.509C783.258 337.653 785.015 289.007 772.377 273.788C769.465 270.282 765.836 269.125 761.387 268.812C757.704 268.552 753.262 268.694 749.592 269.196ZM258.3 261.112C247.513 264.342 240.977 270.38 235.65 280.18C222.228 304.868 218.914 338.52 217.19 366.144C216.514 376.992 215.285 389.089 218.463 399.621C221.562 409.89 229.392 415.776 238.504 420.574Q241.648 422.209 244.866 423.695C266.97 420.14 288.925 424.478 309.44 432.986C315.979 435.811 322.449 438.835 329.009 441.601Q332.505 410.48 337.023 379.491C338.536 369.465 339.944 359.368 342.255 349.488C337.83 340.487 332.646 331.826 327.756 323.07C325.967 319.867 323.021 315.669 322.005 312.184C321.72 311.209 321.669 310.609 322.064 309.648C322.484 308.627 323.22 307.608 323.81 306.672C323.573 304.455 322.094 301.938 321.201 299.896C317.525 291.485 314.478 285.948 307.225 280.095C304.226 277.675 301.096 275.315 297.65 273.566C289.671 269.517 267.178 262.454 258.3 261.112ZM481.337 108.717C457.109 110.522 427.212 113.062 410.14 132.629C406.752 136.513 404.376 140.835 402.49 145.608C424.626 171.732 427.59 193.232 428.544 226.3C458.097 217.188 490.109 214.566 520.905 214.982C539.6 215.434 559.035 217.205 577.089 222.283C592.289 203.794 604.911 165.097 602.522 141.732C601.831 134.982 599.411 129.317 593.973 125.02C575.464 110.398 505.309 106.767 481.337 108.717Z" fill="#000001"></path>
	<path d="M478.073 324.12C478.414 324.196 478.986 324.306 479.29 324.455C480.023 324.814 480.247 325.155 480.49 325.907C481.115 327.834 480.239 330.135 479.32 331.832C477.701 334.823 474.843 337.232 471.541 338.115C468.001 339.061 464.76 338.171 461.669 336.404C459.962 335.02 457.534 332.542 456.874 330.416C456.451 329.052 456.662 328.715 457.207 327.49C460.859 324.816 467.028 325.958 471.411 325.541C473.635 325.329 475.907 324.663 478.073 324.12ZM463.194 333C465.414 334.396 467.473 335.046 470.105 334.482C472.114 334.051 474.317 332.856 475.442 331.089C475.992 330.224 476.15 329.897 476.138 328.859L475.882 328.671L475.163 328.827C470.904 329.718 465.991 328.752 462.024 330.143C461.959 331.522 462.47 331.887 463.194 333Z" fill="#000001"></path>
	<path d="M463.871 298.182C464.9 298.214 465.75 298.355 466.745 298.618C467.992 301.848 468.506 315.804 468.318 319.665C466.842 319.77 466.284 320.049 465.039 319.191C462.665 314.503 463.847 303.675 463.871 298.182Z" fill="#000001"></path>
	<path d="M442.554 298.068C444.563 297.966 448.15 297.744 449.944 298.741C451.267 299.475 451.232 299.764 451.526 301.142C450.609 303.329 447.896 301.748 445.975 302.941L445.496 305.254C443.552 304.431 443.438 304.212 442.315 302.403L442.276 303.564L442.09 302.209L441.993 302.164C441.133 302.801 440.424 303.384 439.407 303.75C438.649 304.023 438.539 303.79 437.849 303.492C437.141 302.471 436.995 302.605 437.069 301.282C438.258 299.706 440.786 298.896 442.554 298.068Z" fill="#000001"></path>
	<path d="M485.623 295.971C488.716 296.602 491.484 296.187 493.77 298.766L493.696 299.518C491.864 301.037 489.476 300.364 487.673 301.857C487.436 302.053 487.213 302.267 486.983 302.472L486.573 302.735C484.42 301.536 481.869 302.31 480.017 300.491L480.155 299.384C481.519 297.653 483.677 296.904 485.623 295.971Z" fill="#000001"></path>
	<path d="M352.261 109.693C353.952 109.414 354.965 109.425 356.38 110.376L356.557 111.564C355.822 112.865 355.046 113.364 353.655 113.82C349.556 115.163 344.35 115.18 340.02 115.98Q326.675 118.439 313.813 122.766C280.264 133.924 250.864 152.279 228.153 179.603C222.4 186.524 216.627 194.203 212.583 202.272C211.548 202.898 211.361 202.788 210.134 202.685L209.391 201.783C209.298 196.463 219.765 183.374 223.374 178.76C254.257 139.273 303.06 115.732 352.261 109.693Z" fill="#000001"></path>
	<path d="M210.707 803.745C214.736 804.681 215.876 812.257 217.194 815.729Q217.848 817.417 218.538 819.091Q219.228 820.764 219.952 822.423Q220.677 824.082 221.437 825.725Q222.196 827.368 222.99 828.995Q223.784 830.622 224.613 832.232Q225.441 833.841 226.303 835.433Q227.165 837.025 228.06 838.598Q228.955 840.172 229.883 841.726Q230.812 843.28 231.773 844.814Q232.733 846.348 233.726 847.862Q234.719 849.375 235.744 850.868Q236.768 852.36 237.824 853.831Q238.88 855.301 239.967 856.749Q241.053 858.197 242.17 859.621Q243.287 861.046 244.434 862.447Q245.581 863.847 246.757 865.224Q247.932 866.6 249.137 867.951Q250.342 869.302 251.575 870.628Q252.808 871.953 254.068 873.252Q255.329 874.552 256.617 875.824Q257.904 877.096 259.218 878.341Q260.533 879.586 261.873 880.803Q263.213 882.02 264.579 883.208Q265.944 884.397 267.334 885.556Q268.725 886.715 270.139 887.845Q271.553 888.975 272.991 890.075Q274.429 891.174 275.89 892.244Q277.351 893.313 278.834 894.351Q280.317 895.389 281.821 896.396Q283.326 897.402 284.851 898.377Q286.377 899.352 287.922 900.294Q289.468 901.236 291.033 902.146C297.43 905.875 304.039 909.155 310.714 912.353C313.863 913.862 317.598 915.124 320.479 917.056C321.014 918.468 320.758 918.789 320.369 920.208C313.426 919.511 305.262 914.695 299.049 911.481C264.591 893.659 237.109 866.762 219.934 831.913C216.563 825.072 213.044 817.52 210.793 810.222C210.046 807.798 209.459 806.098 210.707 803.745Z" fill="#000001"></path>
	<path d="M720.265 121.744C720.859 121.796 721.416 121.901 721.981 122.099C726.718 123.756 731.366 128.005 735.28 131.055Q737.426 132.723 739.519 134.457Q741.612 136.19 743.651 137.987Q745.69 139.783 747.673 141.642Q749.656 143.501 751.581 145.419Q753.506 147.338 755.371 149.315Q757.236 151.291 759.04 153.325Q760.843 155.358 762.584 157.445Q764.324 159.533 765.999 161.673Q767.674 163.813 769.283 166.004Q770.892 168.194 772.432 170.433Q773.973 172.672 775.444 174.957Q776.916 177.242 778.316 179.572Q779.716 181.901 781.044 184.272Q782.372 186.643 783.627 189.054Q784.882 191.465 786.062 193.913Q787.242 196.362 788.346 198.845C791.754 206.371 804.114 236.775 801.752 243.021C800.553 242.933 799.071 242.901 798.378 241.74C797.307 239.949 794.278 226.354 792.989 222.372Q788.56 208.904 782.451 196.111Q780.489 191.989 778.311 187.977Q776.133 183.965 773.745 180.075Q771.356 176.184 768.765 172.426Q766.173 168.668 763.386 165.052Q760.599 161.437 757.623 157.975Q754.648 154.513 751.492 151.214Q748.337 147.915 745.011 144.788Q741.685 141.661 738.198 138.715C734.847 135.93 731.415 133.198 727.821 130.733C725.197 128.933 721.967 127.524 719.761 125.23C719.512 123.649 719.739 123.213 720.265 121.744Z" fill="#000001"></path>
	<path d="M724.471 874.75C724.716 874.801 724.972 874.818 725.207 874.905C726.418 875.35 726.692 875.648 727.172 876.744C727.012 877.601 726.832 878.242 726.351 878.983C722.947 884.226 716.569 889.035 711.696 892.988C681.465 917.518 645.212 929.624 607.607 937.534C606.747 937.522 605.929 937.435 605.075 937.341L604.462 936.497C604.466 935.455 604.329 934.694 605.311 934.01C605.516 933.868 638.451 925.491 642.532 924.227C675.089 914.14 700.402 898.846 724.471 874.75Z" fill="#000001"></path>
	<path d="M797.803 401.168C798.221 401.185 798.866 401.198 799.26 401.283C799.883 401.418 800.573 401.585 800.86 402.186C802.689 406.031 802.336 415.773 802.659 420.262C805.14 454.778 805.756 515.897 795.266 548.254C794.376 548.098 793.578 547.825 792.72 547.545C791.95 546.378 792.09 545.821 792.262 544.421C793.043 538.074 794.679 531.697 795.749 525.372Q798.647 508.646 799.51 491.693C800.671 470.957 800.024 450.194 799.182 429.46C798.876 421.928 796.535 407.901 797.803 401.168Z" fill="#000001"></path>
	<path d="M187.02 463.619C188.505 464.077 189.103 464.01 189.996 465.326C189.801 470.102 188.605 474.992 187.812 479.705Q185.987 490.182 184.908 500.762C182.38 526.547 183.373 552.935 185.501 578.719C185.918 583.768 188.721 600.986 186.711 604.633C186.356 604.597 185.745 604.549 185.419 604.443C184.7 604.209 184.405 603.936 184.077 603.281C181.915 598.969 182.054 588.87 181.654 583.785C179.023 550.292 178.272 516.982 183.253 483.656C184.241 477.042 185.006 470.012 187.02 463.619Z" fill="#000001"></path>
	<path d="M187.047 622.286C187.852 622.289 188.634 622.39 189.433 622.475C189.795 622.904 189.938 623.027 190.196 623.607C191.678 626.934 193.177 634.667 191.98 638.003L189.777 637.429C189.201 636.858 188.843 636.356 188.532 635.603C187.149 632.25 185.536 625.707 187.047 622.286Z" fill="#000001"></path>
</svg>
