<?xml version="1.0" standalone="no"?><!DOCTYPE svg PUBLIC "-//W3C//DTD SVG 1.1//EN" "http://www.w3.org/Graphics/SVG/1.1/DTD/svg11.dtd"><svg height="1024" node-id="1" sillyvg="true" template-height="1024" template-width="1024" version="1.1" viewBox="0 0 1024 1024" width="1024" xmlns="http://www.w3.org/2000/svg" xmlns:xlink="http://www.w3.org/1999/xlink"><defs node-id="20"></defs><path d="M 265.34 241.92 C 257.46 233.22 251.72 223.64 250.20 211.82 C 248.37 197.58 251.94 182.83 260.75 171.42 C 275.70 152.06 301.18 140.85 325.01 137.99 C 345.54 135.52 364.34 140.22 380.62 153.15 C 392.99 162.97 401.97 177.50 403.73 193.33 C 405.66 210.79 401.38 228.55 390.40 242.41 C 407.16 243.44 424.75 243.32 441.51 242.51 C 435.82 235.54 430.99 225.03 429.11 216.22 C 425.97 201.53 430.07 187.30 438.14 174.98 C 450.00 156.89 474.59 144.62 495.40 140.46 C 516.81 136.19 536.84 138.34 555.26 150.81 C 568.47 159.76 579.12 173.67 582.00 189.58 C 585.47 208.65 580.75 227.16 569.92 242.99 C 587.49 243.93 605.59 243.25 623.19 242.83 C 616.13 234.22 611.33 226.07 609.77 214.88 C 607.66 199.66 611.38 184.64 620.68 172.35 C 634.54 154.05 663.92 141.02 686.27 138.19 C 704.96 135.82 725.38 141.52 740.25 153.03 C 752.86 162.79 760.82 176.16 762.79 191.99 C 765.38 212.85 760.19 227.07 747.65 243.32 C 755.28 242.58 763.47 243.10 771.14 243.36 C 785.23 243.84 797.09 247.40 806.88 258.02 C 813.58 265.29 817.54 274.45 818.79 284.21 C 820.52 297.73 817.44 312.88 815.74 326.36 L 809.97 374.80 C 808.64 385.70 806.84 396.74 806.36 407.70 L 811.55 406.67 C 830.66 403.81 848.55 407.60 864.20 419.26 C 876.18 428.19 886.22 442.22 888.23 457.25 C 890.75 475.94 884.37 496.26 872.95 511.10 C 861.85 525.52 843.31 538.51 824.89 540.93 C 810.93 542.76 804.22 537.94 791.86 533.51 L 791.12 533.99 C 789.36 542.32 788.83 551.24 787.81 559.71 L 781.78 610.74 C 781.00 617.22 776.02 650.77 776.51 654.55 L 777.13 655.24 L 778.35 655.11 C 798.12 650.72 820.63 653.82 837.78 664.71 C 850.98 673.09 861.34 686.72 864.81 702.10 C 868.89 720.22 864.23 739.20 854.37 754.69 C 843.72 771.41 825.53 787.63 805.74 791.98 C 794.29 794.50 780.60 794.18 770.48 787.59 C 768.96 786.60 767.54 785.42 766.14 784.28 C 763.76 786.49 756.37 856.20 753.12 866.69 C 752.19 869.70 750.43 872.56 748.43 874.97 C 743.51 880.90 735.44 885.00 727.78 885.65 C 718.79 886.42 709.56 885.61 700.58 885.24 C 693.30 884.95 685.99 885.03 678.71 885.03 L 547.30 884.66 L 374.69 884.08 L 311.04 883.93 C 300.09 883.87 288.85 884.43 277.95 883.47 C 272.91 883.02 268.29 880.39 264.50 877.14 C 260.70 873.87 257.23 869.46 255.65 864.66 C 253.15 857.06 252.89 836.48 252.22 827.50 L 247.84 774.26 C 240.93 776.80 234.02 779.50 226.69 780.56 C 210.64 782.88 194.81 777.42 182.09 767.74 C 165.41 755.05 153.26 735.36 150.52 714.46 C 148.43 698.56 151.77 683.97 161.63 671.20 C 175.47 653.27 197.13 646.31 218.85 644.20 C 224.94 643.61 231.09 643.85 237.14 643.00 L 237.87 642.89 C 236.16 618.41 233.80 594.05 231.42 569.62 C 231.09 566.29 230.53 553.53 229.93 551.62 C 229.82 551.28 229.49 551.04 229.27 550.74 L 227.55 550.98 C 219.12 556.19 204.39 556.11 195.06 553.91 C 175.79 549.34 155.51 535.02 145.25 517.99 C 135.41 501.63 131.69 483.84 136.47 465.18 C 140.46 449.62 151.18 437.05 164.92 429.07 C 180.34 420.12 201.98 414.44 219.66 419.10 L 220.07 418.96 C 222.04 415.93 211.94 313.48 211.29 302.25 C 210.38 286.42 212.57 271.48 223.59 259.34 C 234.71 247.08 249.32 242.59 265.34 241.92 Z M 346.99 750.84 C 343.60 741.49 341.27 732.05 341.43 722.04 C 341.87 694.70 356.87 655.17 366.63 629.40 C 370.75 618.52 374.70 607.43 379.65 596.89 C 383.54 588.58 387.53 579.46 392.92 572.00 C 401.99 559.47 421.55 547.98 434.47 539.32 C 440.19 535.48 446.77 531.78 451.89 527.25 C 452.89 527.70 453.63 528.02 454.50 528.69 C 437.54 541.67 411.33 556.24 397.46 571.28 C 381.32 588.77 348.84 684.17 345.52 709.32 C 343.63 723.68 344.28 736.84 349.55 750.50 L 421.17 750.43 C 433.24 730.09 441.16 708.90 449.24 686.77 C 452.60 677.55 456.54 668.02 458.93 658.53 C 442.16 655.20 426.01 652.78 411.01 643.71 C 405.13 653.34 388.65 679.10 379.14 683.36 L 378.23 683.22 C 378.28 682.04 378.90 681.36 379.61 680.47 C 381.57 678.01 384.07 675.93 386.14 673.54 C 390.23 668.82 393.87 663.63 397.49 658.53 C 403.39 650.21 409.69 641.86 414.25 632.73 C 417.64 625.82 420.73 618.78 423.54 611.61 C 428.57 598.97 432.84 584.14 443.17 574.70 C 449.73 568.70 458.51 564.92 467.05 562.77 C 466.44 558.24 466.08 553.62 466.18 549.05 C 470.68 540.88 477.75 537.90 486.30 535.42 C 500.98 531.16 515.90 531.56 529.44 539.18 C 536.13 542.95 547.23 552.46 549.51 559.81 L 549.15 560.72 C 547.89 560.77 547.73 560.63 546.77 559.71 C 543.75 556.80 541.53 552.89 538.64 549.80 C 530.66 541.28 518.16 535.69 506.48 535.60 C 496.36 535.52 480.26 538.15 472.66 545.51 C 471.29 546.84 470.08 548.55 469.02 550.13 C 468.99 554.22 469.03 558.18 469.52 562.25 C 481.39 560.21 493.54 557.90 505.56 556.97 C 511.86 556.48 518.24 556.72 524.56 556.58 C 529.00 556.48 535.39 555.51 539.43 557.37 C 540.99 559.38 539.18 613.30 538.45 619.36 C 538.38 619.88 538.30 620.40 538.23 620.92 C 527.02 620.94 515.74 620.79 504.55 621.21 C 500.93 621.35 496.77 622.65 493.29 622.43 C 491.07 622.37 487.96 622.66 486.27 621.01 L 486.55 620.13 C 488.77 618.57 491.33 618.00 493.91 617.25 L 494.28 616.47 C 486.39 616.70 478.56 619.36 471.11 621.77 C 470.14 641.99 461.14 662.44 454.45 681.37 C 448.84 697.24 443.38 713.42 436.31 728.71 C 432.82 736.25 428.89 743.58 424.12 750.39 C 460.24 751.11 496.40 750.43 532.54 750.42 L 654.91 750.80 C 651.19 735.49 647.58 720.16 644.08 704.80 C 642.42 697.54 640.45 690.20 639.22 682.87 C 637.12 674.92 635.56 666.83 633.65 658.83 C 630.35 645.56 627.12 632.27 623.96 618.97 C 620.80 605.36 618.57 591.19 612.87 578.36 C 602.16 554.26 582.61 538.23 558.40 528.80 L 559.63 526.66 C 586.04 537.03 605.01 553.08 616.58 579.36 C 621.62 590.80 623.63 603.66 626.49 615.79 L 639.01 669.03 L 652.14 726.21 C 653.91 734.27 656.38 742.37 657.37 750.57 L 759.85 750.48 L 759.86 749.96 C 760.05 743.72 760.95 737.42 761.58 731.20 C 762.65 720.11 763.84 709.02 765.17 697.96 C 768.15 671.28 771.43 644.63 775.00 618.03 L 802.17 391.75 L 808.91 330.55 C 810.14 319.51 812.69 307.66 811.90 296.59 C 811.84 295.86 811.77 295.14 811.68 294.42 C 811.59 293.69 811.49 292.97 811.37 292.26 C 811.25 291.54 811.12 290.83 810.97 290.11 C 810.82 289.40 810.66 288.69 810.48 287.99 C 810.30 287.28 810.11 286.58 809.90 285.89 C 809.69 285.19 809.47 284.50 809.23 283.81 C 808.99 283.12 808.74 282.44 808.47 281.76 C 808.21 281.09 807.93 280.42 807.63 279.75 C 807.34 279.09 807.03 278.43 806.71 277.78 C 806.38 277.13 806.05 276.48 805.70 275.85 C 805.35 275.21 804.98 274.58 804.61 273.96 C 804.23 273.33 803.84 272.72 803.44 272.12 C 803.03 271.51 802.62 270.91 802.19 270.33 C 801.76 269.74 801.32 269.16 800.87 268.59 C 800.42 268.02 799.95 267.46 799.48 266.91 C 799.00 266.36 798.51 265.82 798.02 265.30 C 788.61 255.30 775.93 249.23 762.20 248.86 C 746.10 248.42 729.95 248.94 713.83 248.66 L 438.00 246.32 C 408.03 246.24 377.94 246.47 347.98 245.90 C 330.99 245.52 314.00 245.45 297.01 245.70 C 288.99 245.75 280.26 245.21 272.33 246.23 C 259.10 247.92 245.72 253.17 235.99 262.48 C 235.39 263.04 234.80 263.62 234.23 264.22 C 233.66 264.81 233.10 265.42 232.56 266.04 C 232.02 266.66 231.49 267.29 230.98 267.94 C 230.47 268.59 229.98 269.25 229.50 269.92 C 229.03 270.59 228.57 271.27 228.12 271.97 C 227.68 272.66 227.25 273.37 226.85 274.08 C 226.44 274.80 226.05 275.52 225.68 276.26 C 225.31 277.00 224.95 277.74 224.62 278.49 C 224.28 279.24 223.97 280.01 223.67 280.77 C 223.37 281.54 223.10 282.32 222.84 283.10 C 222.58 283.88 222.34 284.67 222.12 285.47 C 221.90 286.26 221.71 287.06 221.53 287.86 C 221.35 288.67 221.19 289.48 221.05 290.29 C 220.91 291.10 220.79 291.92 220.69 292.73 C 220.60 293.55 220.52 294.37 220.46 295.19 C 220.40 296.02 220.37 296.84 220.35 297.66 C 220.08 314.15 222.41 331.11 223.68 347.57 L 231.84 450.85 L 247.20 643.65 L 252.62 715.25 C 253.32 723.92 253.68 732.66 254.69 741.30 C 260.75 747.70 266.09 750.68 275.08 750.91 C 292.24 751.35 309.52 750.92 326.70 750.87 C 333.33 750.85 340.42 750.19 346.99 750.84 Z M 624.80 881.57 C 640.44 882.57 656.44 881.83 672.12 881.80 C 697.32 881.92 714.22 884.73 734.02 865.23 C 747.70 851.76 750.59 832.98 752.48 814.74 L 752.19 814.44 C 748.51 810.67 745.33 806.48 741.56 802.75 C 727.64 788.95 711.92 781.70 692.25 781.66 C 691.76 781.66 691.27 781.69 690.78 781.73 C 666.55 783.06 638.04 792.24 621.42 810.79 C 612.93 820.28 607.78 833.61 608.55 846.44 C 609.32 859.24 615.62 872.67 624.80 881.57 Z M 261.01 812.44 L 261.09 812.93 C 262.09 819.58 262.12 826.41 262.92 833.11 C 264.68 847.80 272.06 859.84 283.84 868.65 C 301.93 882.18 313.96 880.98 335.25 880.86 C 350.93 880.86 366.72 881.23 382.39 880.63 C 392.92 866.35 400.96 850.86 398.14 832.56 C 395.84 817.63 385.95 804.37 373.93 795.59 C 362.27 787.07 349.55 782.99 335.28 782.14 C 332.20 781.96 328.82 781.62 325.76 782.05 C 325.55 782.08 325.36 782.14 325.15 782.18 C 307.60 784.07 289.00 790.96 274.63 801.29 C 269.86 804.73 265.59 808.76 261.01 812.44 Z M 505.22 782.66 C 481.44 786.98 452.84 794.83 438.21 815.82 C 431.20 825.87 426.67 839.68 429.01 851.95 C 431.17 863.23 436.51 873.89 445.67 881.07 L 500.51 881.08 C 520.91 881.07 541.37 881.35 561.77 881.00 C 572.30 867.86 578.76 852.10 576.79 835.04 C 575.08 820.18 566.37 805.09 554.66 795.84 C 540.04 784.29 523.27 781.91 505.22 782.66 Z M 767.89 781.89 C 775.65 787.89 783.95 790.81 793.82 790.49 C 812.02 789.90 829.71 778.35 841.68 765.29 C 854.68 751.12 863.39 731.85 862.41 712.36 C 861.71 698.48 854.55 683.53 844.18 674.26 C 832.71 664.00 816.34 657.84 801.07 657.02 C 795.67 656.73 790.18 657.21 784.79 657.52 C 781.60 670.75 780.52 684.70 778.79 698.19 C 776.59 715.27 774.15 732.32 771.48 749.33 C 770.95 752.78 766.50 778.49 766.79 780.00 C 766.81 780.07 767.42 781.25 767.43 781.27 C 767.56 781.49 767.74 781.68 767.89 781.89 Z M 184.52 765.09 C 197.03 773.75 211.05 780.13 226.59 777.30 C 232.56 776.22 238.64 774.06 244.12 771.48 L 235.59 682.13 C 234.43 670.54 234.13 658.64 232.25 647.14 C 230.69 647.16 229.01 647.05 227.47 647.22 C 205.03 648.17 182.42 653.65 166.78 670.87 C 157.09 681.53 152.59 694.40 153.38 708.74 C 154.46 728.22 164.59 747.69 179.06 760.59 C 180.82 762.16 182.67 763.62 184.52 765.09 Z M 386.82 880.81 C 404.64 881.45 422.58 881.06 440.41 880.99 C 439.81 880.41 439.23 879.81 438.66 879.20 C 438.09 878.59 437.53 877.97 436.99 877.33 C 436.46 876.69 435.93 876.04 435.43 875.38 C 434.92 874.71 434.43 874.04 433.96 873.35 C 433.48 872.66 433.03 871.96 432.59 871.25 C 432.15 870.54 431.73 869.82 431.33 869.09 C 430.93 868.36 430.54 867.62 430.18 866.87 C 429.81 866.12 429.46 865.36 429.13 864.59 C 428.81 863.82 428.50 863.05 428.21 862.26 C 427.92 861.48 427.65 860.69 427.40 859.89 C 427.15 859.10 426.92 858.30 426.70 857.49 C 426.49 856.68 426.30 855.87 426.13 855.05 C 425.96 854.23 425.81 853.41 425.68 852.59 C 425.55 851.76 425.44 850.93 425.35 850.10 C 425.26 849.27 425.20 848.44 425.15 847.61 C 425.10 846.77 425.07 845.94 425.07 845.11 C 424.88 831.01 431.40 816.89 441.20 806.96 C 459.02 788.88 489.56 778.82 514.56 778.74 C 532.22 778.68 549.93 784.76 562.58 797.46 C 563.30 798.18 564.01 798.91 564.69 799.67 C 565.37 800.42 566.04 801.20 566.68 801.98 C 567.33 802.77 567.95 803.57 568.56 804.39 C 569.17 805.21 569.75 806.04 570.32 806.89 C 570.88 807.74 571.42 808.60 571.95 809.48 C 572.47 810.35 572.97 811.24 573.45 812.13 C 573.93 813.03 574.38 813.94 574.82 814.86 C 575.25 815.79 575.66 816.72 576.05 817.66 C 576.44 818.60 576.80 819.55 577.15 820.51 C 577.49 821.47 577.80 822.44 578.10 823.41 C 578.39 824.39 578.66 825.37 578.91 826.36 C 579.15 827.35 579.37 828.34 579.57 829.34 C 579.77 830.34 579.94 831.34 580.08 832.35 C 580.23 833.36 580.35 834.37 580.45 835.38 C 580.55 836.40 580.62 837.41 580.67 838.43 C 580.71 839.45 580.74 840.47 580.73 841.49 C 580.63 855.41 575.09 870.03 566.93 881.24 C 584.29 881.66 601.99 882.01 619.33 881.23 C 617.36 879.48 615.94 877.50 614.42 875.38 C 606.21 859.83 602.16 845.24 607.58 827.97 C 612.64 811.83 625.53 799.37 640.34 791.84 C 661.86 780.90 691.17 773.44 714.83 781.33 C 726.19 785.11 735.90 792.16 744.17 800.69 C 747.10 803.71 749.85 807.44 753.16 810.01 C 755.22 791.62 757.95 772.89 758.75 754.41 C 745.01 753.33 730.80 754.07 716.99 754.09 L 640.71 754.08 L 379.67 754.03 L 301.86 754.07 C 291.19 754.05 278.78 755.19 268.28 753.82 C 263.25 753.16 259.60 750.55 255.91 747.30 C 256.80 767.43 258.93 787.50 260.52 807.58 C 281.04 789.08 309.59 777.03 337.50 778.53 C 356.03 779.53 374.63 788.14 387.04 802.01 C 398.14 814.41 402.96 827.10 401.99 843.73 C 401.17 857.87 395.05 869.61 386.82 880.81 Z M 564.35 242.94 C 573.34 234.80 578.93 216.54 579.49 204.68 C 580.22 189.34 574.46 175.18 564.07 163.99 C 552.26 151.28 533.96 142.53 516.55 141.99 C 514.18 141.91 511.80 142.00 509.44 142.28 C 488.46 144.23 458.71 155.00 444.84 171.83 C 435.76 182.85 430.40 198.02 431.90 212.32 C 433.19 224.53 441.30 232.56 446.64 242.92 L 501.13 242.81 C 522.19 242.78 543.29 243.72 564.35 242.94 Z M 482.85 563.74 C 467.91 565.67 450.48 568.93 440.78 581.68 C 435.45 588.69 432.48 597.63 429.23 605.71 C 425.76 614.33 422.36 622.92 418.37 631.31 C 416.74 634.75 415.22 638.45 413.02 641.56 C 428.10 648.71 443.66 653.76 460.30 655.70 C 463.10 648.12 465.82 640.68 467.41 632.74 C 468.05 629.53 467.52 621.24 468.59 619.33 C 476.26 616.24 485.89 614.65 494.10 613.75 C 496.32 613.01 499.07 613.56 501.26 612.67 C 502.39 612.21 503.28 611.25 503.60 610.06 C 504.09 608.21 503.48 604.72 502.24 603.22 C 501.09 601.83 499.77 602.00 498.12 601.78 C 491.36 601.09 484.22 602.61 477.77 604.59 C 473.11 606.03 466.20 610.43 461.36 609.55 C 461.43 608.88 461.29 609.12 461.72 608.71 C 464.47 606.07 467.65 605.33 471.09 604.00 C 479.68 600.69 488.04 598.31 497.40 598.48 C 500.48 598.63 503.16 599.12 505.70 596.96 C 506.63 596.17 507.35 595.12 507.37 593.86 C 507.38 592.52 506.67 591.27 505.79 590.31 C 503.80 588.15 501.23 587.66 498.44 587.46 C 490.53 587.38 481.39 588.03 473.97 590.92 C 470.02 592.45 466.43 595.05 462.30 596.08 C 461.23 595.37 461.30 595.19 460.90 593.94 L 461.37 593.13 C 472.45 586.63 485.70 584.25 498.38 585.01 L 499.94 584.07 C 500.37 582.20 500.41 580.84 499.31 579.23 C 498.19 577.58 497.04 577.11 495.13 576.75 C 486.91 575.56 479.14 576.01 471.15 578.41 C 467.49 579.51 457.31 585.14 455.32 584.72 L 455.53 583.65 C 457.47 581.28 459.89 579.71 462.63 578.39 C 472.62 573.58 486.37 570.98 497.03 574.79 C 497.13 574.54 497.27 574.31 497.33 574.04 C 497.80 571.93 497.32 568.39 495.80 566.79 C 492.90 563.73 486.79 563.78 482.85 563.74 Z M 813.90 409.76 L 812.40 410.21 C 810.88 413.32 810.24 422.77 809.61 426.62 C 803.79 461.31 799.13 496.16 795.65 531.16 C 804.40 535.54 813.70 538.53 823.57 537.33 C 840.65 535.25 858.39 523.54 868.86 510.18 C 879.90 496.10 886.79 476.90 884.52 458.92 C 882.68 444.31 873.63 431.22 862.04 422.42 C 861.19 421.78 860.33 421.16 859.45 420.56 C 858.57 419.96 857.68 419.39 856.77 418.83 C 855.86 418.27 854.94 417.74 854.01 417.23 C 853.07 416.72 852.13 416.23 851.17 415.77 C 850.21 415.30 849.25 414.86 848.27 414.45 C 847.29 414.03 846.30 413.63 845.30 413.27 C 844.31 412.90 843.30 412.55 842.28 412.23 C 841.27 411.91 840.25 411.62 839.22 411.35 C 838.19 411.07 837.16 410.83 836.12 410.61 C 835.07 410.39 834.03 410.19 832.98 410.02 C 831.93 409.86 830.87 409.71 829.82 409.59 C 828.76 409.48 827.70 409.38 826.64 409.32 C 825.58 409.25 824.51 409.21 823.45 409.20 C 822.39 409.18 821.32 409.19 820.26 409.23 C 819.20 409.27 818.13 409.33 817.07 409.42 C 816.01 409.51 814.96 409.62 813.90 409.76 Z M 628.69 243.45 L 681.88 243.41 L 742.95 243.51 C 754.48 229.38 761.20 213.61 759.40 195.06 C 757.93 179.97 750.38 166.85 738.67 157.36 C 727.65 148.41 705.48 139.34 691.21 141.11 C 691.07 141.13 690.95 141.18 690.82 141.21 C 671.14 142.40 640.30 155.93 627.06 170.76 C 617.39 181.58 612.03 195.66 613.02 210.24 C 613.92 223.59 620.90 233.16 628.69 243.45 Z M 328.11 141.31 C 305.47 143.60 279.94 154.27 265.27 172.15 C 257.16 182.03 251.81 195.59 253.16 208.53 C 254.43 220.89 261.96 233.62 271.49 241.47 C 271.77 241.70 272.07 241.91 272.37 242.12 L 326.75 242.07 C 346.08 242.02 365.41 242.16 384.74 242.48 C 395.48 231.93 400.20 216.05 400.28 201.29 C 400.37 186.00 393.31 171.65 382.66 160.89 C 369.39 147.50 352.37 140.93 333.66 140.95 C 331.78 140.96 329.97 141.03 328.11 141.31 Z M 227.34 547.73 C 227.78 547.50 228.31 547.38 228.66 547.02 C 228.76 546.91 228.76 546.72 228.79 546.56 C 229.84 541.20 222.21 483.98 221.04 474.31 C 219.44 461.03 216.13 443.21 216.62 430.12 C 216.73 427.11 217.33 424.88 218.56 422.13 C 196.86 419.73 176.18 424.02 158.87 437.86 C 146.95 447.39 139.66 461.58 137.98 476.70 C 136.11 493.53 142.75 509.80 153.19 522.83 C 164.53 537.00 184.05 549.79 202.38 551.75 C 211.21 552.69 219.07 550.46 227.34 547.73 Z" fill="#0b0b0b" fill-rule="nonzero" node-id="22" stroke="none" target-height="750.89905" target-width="759.053" target-x="131.692" target-y="135.522"></path><path d="M 779.73 421.29 C 781.35 421.62 781.87 421.55 783.05 422.77 C 784.06 426.73 769.94 532.09 768.15 546.23 C 766.68 557.86 765.84 569.75 763.88 581.30 C 762.69 581.37 762.87 581.28 761.98 580.64 C 760.67 576.49 765.51 545.21 766.23 539.03 L 773.90 471.56 C 775.91 454.82 778.50 438.10 779.73 421.29 Z" fill="#0b0b0b" fill-rule="nonzero" node-id="24" stroke="none" target-height="160.08502" target-width="23.388977" target-x="760.671" target-y="421.289"></path><path d="M 246.36 429.07 C 247.03 429.35 247.98 429.50 248.35 430.17 C 249.03 431.43 262.07 589.48 260.97 593.01 L 259.35 592.24 C 258.52 590.49 258.41 588.73 258.21 586.83 C 256.88 574.49 256.30 561.96 255.34 549.57 L 250.86 495.48 C 249.21 474.48 246.51 453.23 245.83 432.20 C 245.79 431.06 246.04 430.15 246.36 429.07 Z" fill="#0b0b0b" fill-rule="nonzero" node-id="26" stroke="none" target-height="163.93994" target-width="16.274002" target-x="245.79399" target-y="429.07104"></path><path d="M 755.54 636.15 L 757.58 636.76 C 757.76 637.11 758.04 637.43 758.13 637.81 C 758.84 640.89 749.42 713.09 747.87 721.77 C 746.64 721.73 746.55 721.79 745.61 721.03 C 744.92 718.13 754.19 643.96 755.54 636.15 Z" fill="#0b0b0b" fill-rule="nonzero" node-id="28" stroke="none" target-height="85.63898" target-width="13.919006" target-x="744.917" target-y="636.147"></path><path d="M 263.69 649.72 L 265.99 650.51 C 266.22 650.82 266.52 651.09 266.68 651.44 C 267.03 652.20 272.75 723.93 272.51 726.14 C 271.70 726.08 271.12 725.95 270.34 725.73 C 268.85 722.65 263.08 655.96 263.69 649.72 Z" fill="#0b0b0b" fill-rule="nonzero" node-id="30" stroke="none" target-height="76.42395" target-width="9.67099" target-x="263.077" target-y="649.718"></path><path d="M 671.60 501.75 C 672.50 501.83 673.22 502.01 674.08 502.31 L 674.47 503.25 C 670.94 508.52 653.38 525.83 647.96 530.12 C 647.46 530.25 646.95 530.15 646.43 530.12 L 645.97 529.25 C 646.44 526.05 667.68 505.37 671.60 501.75 Z" fill="#0b0b0b" fill-rule="nonzero" node-id="32" stroke="none" target-height="28.494019" target-width="28.500977" target-x="645.971" target-y="501.75098"></path><path d="M 684.43 519.38 C 685.18 519.70 685.27 519.88 685.74 520.51 C 685.12 523.71 659.16 539.46 654.57 542.68 L 653.65 542.43 C 652.92 541.44 652.95 541.46 653.03 540.23 C 655.87 536.16 679.37 521.37 684.43 519.38 Z" fill="#0b0b0b" fill-rule="nonzero" node-id="34" stroke="none" target-height="23.304016" target-width="32.822998" target-x="652.917" target-y="519.378"></path><path d="M 331.18 539.78 C 332.14 539.94 332.92 540.09 333.73 540.66 C 336.78 542.81 352.04 557.87 353.96 560.80 C 354.67 561.89 354.36 562.34 354.12 563.56 C 350.64 563.41 344.45 555.97 341.87 553.45 C 338.53 550.22 331.25 544.51 331.18 539.78 Z" fill="#0b0b0b" fill-rule="nonzero" node-id="36" stroke="none" target-height="23.776001" target-width="23.493011" target-x="331.18" target-y="539.782"></path><path d="M 341.59 530.26 C 344.81 531.64 360.44 546.68 361.65 549.91 C 362.01 550.86 361.53 551.33 361.16 552.22 C 358.11 551.20 343.58 536.55 341.70 533.37 C 340.96 532.11 341.30 531.62 341.59 530.26 Z" fill="#0b0b0b" fill-rule="nonzero" node-id="38" stroke="none" target-height="21.96399" target-width="21.046997" target-x="340.963" target-y="530.257"></path><path d="M 486.07 377.88 C 489.79 371.57 493.74 366.30 500.74 363.31 C 501.17 363.13 501.61 362.95 502.05 362.79 C 502.50 362.63 502.94 362.48 503.39 362.34 C 503.85 362.20 504.30 362.07 504.76 361.95 C 505.21 361.84 505.67 361.73 506.14 361.63 C 506.60 361.54 507.06 361.46 507.53 361.38 C 508.00 361.31 508.46 361.25 508.94 361.20 C 509.40 361.15 509.87 361.11 510.35 361.09 C 510.82 361.06 511.29 361.05 511.76 361.04 C 512.23 361.04 512.71 361.05 513.18 361.07 C 513.65 361.09 514.12 361.12 514.59 361.16 C 515.06 361.20 515.53 361.26 516.00 361.32 C 516.46 361.39 516.93 361.47 517.39 361.56 C 517.86 361.64 518.32 361.74 518.78 361.86 C 519.24 361.97 519.69 362.09 520.15 362.22 C 520.60 362.36 521.05 362.50 521.49 362.65 C 521.94 362.81 522.38 362.98 522.82 363.15 C 538.38 369.30 549.79 384.79 556.13 399.72 C 563.10 416.16 562.54 434.27 555.97 450.72 C 562.53 456.96 569.91 462.66 575.92 469.44 C 579.65 473.63 583.55 479.40 583.00 485.25 C 582.63 489.02 580.44 492.15 577.43 494.36 C 570.17 499.70 558.77 498.45 550.39 497.30 C 556.50 500.56 564.96 505.40 567.90 511.99 C 568.98 514.42 569.43 517.29 568.39 519.81 C 566.84 523.55 563.15 525.26 559.63 526.66 L 558.40 528.80 C 547.21 525.00 536.23 523.06 524.52 521.75 C 517.97 521.47 509.88 521.33 503.96 518.03 C 502.49 517.21 501.65 515.26 500.37 514.55 C 498.32 513.42 489.61 514.31 486.57 513.92 C 479.79 513.03 473.38 510.20 466.97 507.97 C 466.90 508.16 466.83 508.35 466.77 508.54 C 463.81 517.28 462.16 522.59 454.50 528.69 C 453.63 528.02 452.89 527.70 451.89 527.25 C 446.71 528.27 441.53 530.86 436.45 532.43 C 431.33 534.02 423.37 536.11 418.44 533.30 C 415.89 531.84 414.81 529.24 414.18 526.48 C 412.45 518.90 421.95 513.05 425.40 507.41 C 425.51 507.24 425.60 507.07 425.70 506.91 C 419.99 508.51 413.55 510.12 407.77 507.96 C 404.17 506.62 401.36 503.64 399.89 500.12 C 391.83 480.83 420.35 462.13 429.25 449.51 C 430.49 447.76 431.25 445.70 432.04 443.72 C 431.24 438.70 429.50 433.84 428.36 428.89 C 425.56 416.79 427.80 403.27 434.50 392.79 C 440.65 383.18 450.69 374.97 462.03 372.62 C 471.37 370.69 478.20 372.79 486.07 377.88 Z M 447.80 455.65 C 448.60 465.12 448.85 475.58 451.78 484.68 C 454.28 495.43 456.93 497.86 466.21 503.56 C 466.72 503.87 467.24 504.15 467.78 504.43 C 482.78 512.56 499.31 512.38 515.32 507.56 C 517.14 507.02 518.93 506.42 520.71 505.77 C 526.26 503.26 531.11 500.45 535.44 496.11 C 542.97 488.54 547.64 477.78 547.52 467.05 C 547.46 462.05 546.53 457.00 546.18 452.00 C 545.71 445.09 545.99 437.96 545.99 431.02 C 533.49 426.95 519.08 422.27 512.14 409.99 C 510.04 406.27 508.80 402.14 507.51 398.09 C 506.94 396.27 506.10 392.45 504.67 391.21 C 502.77 393.07 502.35 396.40 501.04 398.73 C 499.38 401.71 497.01 404.38 494.59 406.76 C 481.62 419.44 462.98 424.07 447.50 433.01 C 447.89 440.52 447.55 448.11 447.80 455.65 Z M 523.03 519.34 C 523.05 516.41 523.81 510.63 522.68 508.09 C 516.27 510.33 509.91 512.07 503.27 513.51 C 509.60 518.96 515.32 518.44 523.03 519.34 Z M 547.08 414.32 C 547.61 411.96 546.80 409.83 545.57 407.81 C 542.67 403.06 536.25 398.75 530.75 397.67 C 529.53 397.43 528.27 397.49 527.03 397.56 L 526.85 398.72 C 529.37 400.71 532.79 401.18 535.55 402.79 C 540.46 405.67 543.25 410.37 547.08 414.32 Z M 432.37 456.77 C 429.90 462.29 428.32 468.89 430.53 474.77 C 431.92 478.47 434.88 481.18 438.48 482.71 C 441.54 484.01 445.50 485.01 448.82 485.02 C 446.67 477.11 444.77 467.64 445.11 459.38 L 444.90 451.92 C 439.92 452.40 436.34 453.56 432.37 456.77 Z" fill="#0b0b0b" fill-rule="nonzero" node-id="40" stroke="none" target-height="175.07135" target-width="191.71902" target-x="391.835" target-y="361.03967"></path><path d="M 502.53 449.15 C 506.22 451.02 502.62 462.37 504.00 466.26 C 504.95 468.95 507.76 469.81 509.01 472.07 C 509.62 473.16 509.70 474.37 509.24 475.54 C 508.60 477.13 507.59 478.04 505.95 478.51 C 502.46 479.52 498.62 477.29 495.76 475.58 C 495.57 475.33 495.37 475.08 495.21 474.81 C 494.65 473.82 494.60 472.95 495.01 471.94 C 497.15 471.71 500.59 474.61 502.76 475.25 C 503.86 475.58 504.49 475.32 505.43 474.79 L 505.20 473.72 C 503.32 472.00 502.16 470.40 500.90 468.20 L 500.49 467.46 C 500.66 462.18 499.99 453.90 502.53 449.15 Z" fill="#0b0b0b" fill-rule="nonzero" node-id="42" stroke="none" target-height="30.362976" target-width="15.106964" target-x="494.598" target-y="449.15402"></path><path d="M 472.07 423.03 C 474.88 422.92 478.48 422.18 480.66 424.35 C 481.51 425.19 482.18 426.51 482.00 427.74 C 481.83 428.98 481.29 429.36 480.40 430.09 C 479.45 430.17 478.66 430.20 477.71 430.08 C 476.95 429.99 476.02 429.76 475.26 429.82 C 474.13 429.91 473.43 430.38 472.68 431.16 C 472.46 431.38 472.26 431.61 472.05 431.83 C 471.49 432.64 470.92 433.55 470.24 434.26 C 469.24 435.32 468.54 435.49 467.13 435.60 C 466.30 435.21 465.77 435.15 465.28 434.32 C 464.46 432.94 464.47 431.55 464.89 430.03 C 465.87 426.47 469.00 424.64 472.07 423.03 Z" fill="#0b0b0b" fill-rule="nonzero" node-id="44" stroke="none" target-height="13.419983" target-width="17.720001" target-x="464.456" target-y="422.184"></path><path d="M 516.35 423.59 C 518.19 423.50 519.99 423.59 521.81 423.99 C 523.99 424.46 526.86 426.45 527.92 428.42 C 528.47 429.44 528.53 430.61 528.03 431.66 C 527.36 433.10 526.03 433.95 524.64 434.53 C 521.02 432.59 516.65 431.55 513.36 429.32 C 513.02 428.74 512.63 428.40 512.74 427.68 C 513.03 425.76 514.82 424.54 516.35 423.59 Z" fill="#0b0b0b" fill-rule="nonzero" node-id="46" stroke="none" target-height="11.039001" target-width="15.89801" target-x="512.628" target-y="423.495"></path><path d="M 521.47 445.88 C 522.64 445.77 523.64 445.88 524.79 446.02 C 525.81 446.64 526.35 447.16 526.64 448.37 C 527.26 450.98 525.89 454.13 524.65 456.35 C 523.79 456.22 522.59 456.12 521.82 455.72 C 520.65 455.12 519.86 454.06 519.52 452.80 C 518.85 450.32 520.15 447.86 521.47 445.88 Z" fill="#0b0b0b" fill-rule="nonzero" node-id="48" stroke="none" target-height="10.579956" target-width="8.416992" target-x="518.847" target-y="445.77203"></path><path d="M 473.29 447.48 C 473.89 447.42 474.50 447.37 475.11 447.34 C 476.83 447.27 477.62 447.67 478.89 448.80 C 480.10 451.13 479.51 453.26 478.77 455.65 C 478.07 455.79 477.36 455.92 476.64 455.87 C 475.41 455.80 474.31 455.14 473.67 454.06 C 472.51 452.09 472.92 449.61 473.29 447.48 Z" fill="#0b0b0b" fill-rule="nonzero" node-id="50" stroke="none" target-height="8.644043" target-width="7.5889893" target-x="472.513" target-y="447.274"></path><path d="M 467.78 504.43 C 482.78 512.56 499.31 512.38 515.32 507.56 C 517.14 507.02 518.93 506.42 520.71 505.77 C 521.36 506.54 521.98 507.37 522.68 508.09 C 516.27 510.33 509.91 512.07 503.27 513.51 C 509.60 518.96 515.32 518.44 523.03 519.34 L 524.52 521.75 C 517.97 521.47 509.88 521.33 503.96 518.03 C 502.49 517.21 501.65 515.26 500.37 514.55 C 498.32 513.42 489.61 514.31 486.57 513.92 C 479.79 513.03 473.38 510.20 466.97 507.97 C 467.43 506.84 467.57 505.63 467.78 504.43 Z" fill="#0b0b0b" fill-rule="nonzero" node-id="52" stroke="none" target-height="17.316986" target-width="57.552032" target-x="466.973" target-y="504.433"></path><path d="M 445.11 459.38 C 445.97 458.22 445.55 455.97 445.46 454.60 L 446.12 454.44 L 447.80 455.65 C 448.60 465.12 448.85 475.58 451.78 484.68 L 448.82 485.02 C 446.67 477.11 444.77 467.64 445.11 459.38 Z" fill="#0b0b0b" fill-rule="nonzero" node-id="54" stroke="none" target-height="30.584991" target-width="7.001068" target-x="444.77496" target-y="454.436"></path></svg>