<?xml version="1.0" standalone="no"?><!DOCTYPE svg PUBLIC "-//W3C//DTD SVG 1.1//EN" "http://www.w3.org/Graphics/SVG/1.1/DTD/svg11.dtd"><svg height="1024" node-id="1" sillyvg="true" template-height="1024" template-width="1024" version="1.1" viewBox="0 0 1024 1024" width="1024" xmlns="http://www.w3.org/2000/svg" xmlns:xlink="http://www.w3.org/1999/xlink"><defs node-id="19"></defs><path d="M 561.72 346.11 C 574.07 345.22 585.60 347.13 596.01 354.08 C 608.66 362.53 616.73 374.39 619.68 389.20 C 623.80 387.73 627.97 386.40 632.19 385.23 C 646.63 381.29 662.53 380.00 675.98 387.87 C 684.44 392.81 691.54 402.87 693.90 412.33 C 694.09 413.10 694.25 413.86 694.40 414.63 C 694.55 415.41 694.68 416.18 694.79 416.96 C 694.90 417.74 694.99 418.52 695.06 419.30 C 695.13 420.08 695.18 420.86 695.21 421.65 C 695.25 422.43 695.26 423.21 695.26 424.00 C 695.25 424.78 695.23 425.57 695.18 426.35 C 695.14 427.14 695.08 427.92 695.00 428.70 C 694.91 429.48 694.81 430.26 694.70 431.04 C 694.58 431.81 694.44 432.58 694.28 433.35 C 694.12 434.12 693.95 434.89 693.75 435.65 C 693.56 436.41 693.35 437.16 693.12 437.91 C 692.89 438.66 692.64 439.41 692.37 440.15 C 692.10 440.88 691.82 441.62 691.51 442.34 C 691.21 443.06 690.89 443.78 690.55 444.49 C 690.22 445.20 689.86 445.90 689.49 446.59 C 689.12 447.28 688.73 447.96 688.32 448.63 C 695.93 454.02 703.41 459.62 709.38 466.86 C 721.77 481.89 728.16 501.69 726.16 521.13 C 724.18 540.30 713.25 559.56 698.21 571.51 C 682.23 584.22 664.20 588.20 644.17 585.86 C 644.62 591.61 645.63 597.57 646.78 603.23 C 655.82 607.42 665.06 611.40 673.49 616.76 C 707.61 638.47 732.52 668.52 753.22 702.85 C 762.39 718.05 770.60 733.67 776.97 750.25 C 773.43 754.00 768.85 756.88 764.86 760.15 C 770.83 782.75 774.64 806.68 775.04 830.09 L 855.67 827.78 C 866.06 827.53 877.11 826.04 887.44 826.76 C 890.03 826.94 892.15 827.42 894.20 829.04 C 894.60 829.83 894.95 830.18 894.83 831.10 C 894.14 836.61 889.25 836.03 885.12 836.09 L 702.62 840.73 C 651.09 841.58 599.55 840.92 548.02 841.16 C 541.00 841.20 480.92 841.15 480.43 841.36 C 480.16 841.47 479.98 841.73 479.76 841.92 C 479.72 842.67 479.65 843.47 479.71 844.22 C 479.74 844.48 480.00 845.91 480.13 846.04 C 480.82 846.74 493.75 846.18 495.43 846.16 L 578.73 846.07 L 602.51 845.97 C 607.10 845.94 612.09 845.54 616.63 846.22 C 620.33 846.77 623.94 848.18 626.76 850.68 C 628.69 852.38 630.48 854.99 630.56 857.64 C 630.65 860.62 628.99 863.69 626.93 865.74 C 622.50 870.16 606.30 872.88 600.01 874.49 C 578.16 880.07 556.45 885.75 533.98 888.37 C 514.16 890.69 493.70 890.20 473.76 890.18 L 399.96 890.11 C 383.85 890.24 367.74 890.26 351.63 890.18 C 339.58 890.19 327.19 890.82 315.25 889.05 C 310.74 888.38 306.02 887.51 302.40 884.52 C 299.76 882.34 298.08 879.27 297.95 875.82 C 297.81 872.11 299.52 868.60 302.15 866.04 C 304.48 863.77 307.48 862.25 310.47 861.04 C 318.37 857.84 327.08 856.14 335.30 853.97 C 344.26 851.59 353.30 848.45 362.51 847.30 C 372.19 846.10 382.24 846.48 391.96 846.59 L 392.10 840.67 C 373.81 840.17 355.31 841.34 337.01 841.58 C 303.67 842.00 270.29 841.57 236.94 842.07 C 223.42 842.28 209.87 842.22 196.35 842.56 C 181.02 842.94 165.47 843.75 150.14 843.51 C 148.91 843.49 147.48 843.45 146.40 842.78 C 145.33 842.12 144.65 840.82 144.46 839.61 C 144.28 838.51 144.49 837.11 145.32 836.32 C 146.78 834.90 149.06 834.55 151.01 834.42 C 163.09 833.62 175.54 833.90 187.66 833.79 L 242.24 833.08 L 392.32 831.15 C 392.73 820.64 393.15 810.21 392.92 799.70 C 384.03 799.39 375.18 798.39 366.31 797.73 C 351.87 796.65 337.42 795.69 322.96 794.84 L 284.20 792.47 C 277.50 792.05 270.44 791.96 263.81 790.95 C 260.52 790.44 256.67 789.78 254.70 786.88 C 253.32 784.85 252.58 782.42 252.06 780.05 C 247.49 759.31 244.01 738.18 240.22 717.29 L 225.29 636.36 C 222.79 622.80 198.88 499.91 200.17 493.89 C 200.91 490.46 203.44 488.86 206.19 487.07 C 213.24 486.55 220.72 487.59 227.76 488.13 L 268.82 491.63 L 371.99 500.43 C 395.66 502.52 419.25 504.86 443.00 506.12 C 438.89 500.69 436.74 495.37 436.78 488.50 C 436.83 479.92 439.97 472.33 446.15 466.39 C 452.79 460.00 461.58 457.11 470.73 457.32 C 463.54 449.16 457.22 441.02 454.24 430.40 C 451.32 419.98 451.10 408.20 456.57 398.54 C 461.87 389.18 471.66 382.96 481.87 380.22 C 497.70 375.95 517.34 380.62 531.26 388.68 C 531.06 387.66 530.88 386.64 530.73 385.61 C 529.39 376.44 532.21 366.33 537.78 358.95 C 543.76 351.05 552.12 347.40 561.72 346.11 Z M 393.39 796.17 L 395.20 753.00 C 396.18 732.41 394.44 711.05 411.05 695.71 C 420.02 687.42 432.05 683.51 444.17 683.99 C 455.98 684.47 466.93 690.00 474.89 698.64 C 484.17 708.71 487.85 721.26 487.24 734.79 C 486.76 745.44 485.49 756.12 484.72 766.76 C 483.98 776.99 483.78 787.53 482.40 797.67 C 505.30 798.35 528.21 798.79 551.12 799.00 C 578.28 799.12 605.33 798.70 632.47 798.16 C 645.02 797.92 657.72 798.22 670.23 797.44 C 668.36 779.02 665.33 760.71 662.81 742.38 C 655.39 688.35 646.71 634.53 639.48 580.47 C 637.42 565.11 634.54 549.94 633.07 534.49 C 632.92 532.87 632.38 527.58 631.07 526.73 C 628.75 525.23 570.44 521.10 561.94 520.42 L 310.50 498.83 C 290.19 497.06 269.82 495.74 249.53 493.81 L 224.11 491.43 C 219.17 490.98 213.67 490.11 208.74 490.52 C 207.28 491.22 204.16 492.37 203.68 494.00 C 202.87 496.74 204.26 502.12 204.73 504.93 C 206.46 515.27 208.69 525.54 210.58 535.85 L 227.45 626.97 L 242.22 706.86 C 245.29 724.56 248.57 742.23 252.07 759.86 C 253.49 767.17 254.74 779.47 258.11 785.65 C 266.84 789.30 282.00 788.68 291.69 789.33 L 345.50 792.66 C 361.45 793.70 377.45 795.35 393.39 796.17 Z M 641.58 518.21 C 638.10 505.44 637.34 493.75 644.07 481.80 C 645.34 479.52 646.86 477.41 648.41 475.33 C 640.65 472.90 633.41 467.65 629.54 460.37 C 625.77 453.28 625.74 446.31 627.13 438.62 C 616.21 444.92 605.94 447.74 593.43 444.33 C 585.14 442.06 578.68 436.64 574.25 429.39 C 566.35 439.23 554.43 444.87 541.98 446.23 C 536.71 446.81 531.90 446.28 526.80 444.95 C 518.38 466.98 511.32 489.27 504.50 511.83 L 568.97 517.03 C 577.00 517.64 585.09 518.70 593.12 519.01 C 602.91 520.60 613.35 520.76 623.26 521.50 C 625.97 521.70 629.15 521.41 631.75 521.96 C 632.62 522.14 633.01 522.51 633.76 522.97 C 634.03 523.14 634.32 523.29 634.60 523.46 C 634.80 523.58 635.00 523.70 635.19 523.82 C 637.55 522.21 639.53 520.17 641.58 518.21 Z M 647.30 608.10 L 647.35 608.92 C 647.78 615.57 649.05 622.22 650.07 628.80 L 654.72 659.20 C 657.12 674.92 675.22 796.68 674.13 799.98 C 672.08 801.76 657.23 801.19 653.50 801.31 C 614.89 802.62 576.27 802.95 537.64 802.30 C 519.29 802.04 500.90 802.03 482.57 800.93 C 482.16 805.78 479.55 828.89 481.04 832.10 C 538.15 832.42 595.26 832.38 652.38 832.00 C 666.65 831.98 680.93 831.89 695.20 831.71 L 680.15 753.75 C 678.17 743.25 675.50 732.46 674.20 721.87 C 673.98 720.05 673.95 718.62 674.42 716.84 L 675.02 716.41 C 676.27 716.72 676.69 716.68 677.34 717.93 C 678.60 720.38 679.30 727.59 679.88 730.59 C 682.72 745.32 685.07 760.35 688.66 774.92 C 698.20 775.19 708.52 774.94 717.93 773.34 C 734.17 770.59 758.81 761.64 770.94 750.21 C 771.26 749.90 771.57 749.57 771.87 749.25 C 766.94 734.19 758.94 720.26 750.82 706.74 C 746.59 699.70 742.45 692.50 737.80 685.73 C 716.88 655.23 689.28 628.50 656.04 611.77 C 653.27 610.37 650.31 608.88 647.30 608.10 Z M 479.23 850.00 C 478.79 855.66 478.22 861.31 477.94 866.99 C 468.31 867.19 394.88 867.79 391.42 866.23 C 390.74 861.24 391.65 856.00 391.47 850.95 C 381.63 850.72 371.27 850.12 361.51 851.33 C 353.16 852.38 309.27 863.95 304.11 868.75 C 302.70 870.07 300.96 872.35 300.86 874.36 C 300.80 875.59 301.01 876.38 301.93 877.25 C 306.95 882.06 332.87 881.13 340.62 881.05 L 455.67 881.07 C 484.13 881.06 512.77 882.20 541.07 878.61 C 560.22 876.18 578.75 870.75 597.48 866.28 C 604.25 864.66 619.10 863.09 624.05 858.32 C 625.16 857.24 625.77 855.77 625.61 854.20 C 625.49 852.97 624.56 852.06 623.55 851.46 C 618.16 848.25 580.65 849.75 572.10 849.75 C 541.16 849.84 510.17 849.57 479.23 850.00 Z M 639.94 552.00 C 645.83 555.86 650.51 557.11 657.60 556.48 C 665.61 554.75 672.76 551.24 677.25 544.06 C 680.05 539.58 681.13 534.19 679.80 529.02 C 679.65 528.44 679.47 527.86 679.26 527.28 C 679.05 526.71 678.82 526.15 678.56 525.61 C 678.29 525.06 678.00 524.52 677.69 524.00 C 677.37 523.49 677.03 522.98 676.67 522.50 C 676.30 522.01 675.91 521.55 675.50 521.10 C 675.09 520.66 674.65 520.23 674.20 519.83 C 673.75 519.42 673.27 519.04 672.78 518.69 C 672.29 518.33 671.78 518.00 671.26 517.69 C 668.03 515.83 663.97 514.72 660.25 514.65 C 652.14 515.37 644.60 519.69 639.51 526.07 C 636.33 530.05 636.85 534.23 637.49 538.97 C 638.08 543.30 638.88 547.76 639.94 552.00 Z M 439.74 687.75 C 427.57 689.19 417.71 693.35 409.96 703.21 C 409.40 703.94 408.86 704.68 408.33 705.43 C 407.81 706.18 407.31 706.95 406.83 707.74 C 406.36 708.52 405.90 709.32 405.47 710.13 C 405.04 710.94 404.63 711.76 404.25 712.59 C 403.86 713.42 403.50 714.27 403.17 715.12 C 402.84 715.98 402.53 716.84 402.24 717.71 C 401.96 718.58 401.70 719.46 401.46 720.35 C 401.23 721.24 401.02 722.13 400.84 723.03 C 398.84 733.34 399.62 744.50 399.08 754.99 C 397.20 791.05 396.51 827.13 395.28 863.21 C 410.55 863.55 425.83 863.18 441.10 863.41 C 452.08 863.51 463.32 864.17 474.27 863.73 C 476.88 836.66 477.69 809.38 479.69 782.25 L 481.99 752.65 C 482.75 743.88 484.33 734.75 483.25 725.97 C 482.18 717.27 478.56 709.35 472.97 702.62 C 465.72 693.87 455.81 688.79 444.51 687.81 C 442.90 687.67 441.36 687.63 439.74 687.75 Z" fill="currentColor" fill-rule="nonzero" node-id="21" stroke="none" target-height="545.595" target-width="750.664" target-x="144.284" target-y="345.223"></path><path d="M 565.79 489.08 C 566.59 489.21 567.55 489.40 568.28 489.72 C 569.60 490.30 569.83 491.04 570.29 492.32 C 570.10 494.62 568.53 496.46 567.55 498.52 C 567.61 499.75 567.61 500.48 568.59 501.41 C 571.53 504.19 575.35 498.98 578.73 499.37 C 579.95 499.52 580.54 500.09 581.25 501.01 C 581.58 502.18 581.75 503.05 581.34 504.25 C 580.77 505.87 579.77 507.24 578.27 508.07 C 576.52 509.28 574.77 510.29 572.73 510.93 C 569.87 511.81 566.69 511.60 564.06 510.12 C 561.05 508.43 558.96 505.41 558.19 502.07 C 557.48 499.00 557.81 495.64 559.56 492.98 C 561.23 490.43 562.87 489.61 565.79 489.08 Z" fill="currentColor" fill-rule="nonzero" node-id="23" stroke="none" target-height="22.727997" target-width="24.27301" target-x="557.477" target-y="489.083"></path><path d="M 539.14 473.90 C 541.26 474.13 543.68 474.35 544.97 476.31 C 546.79 479.07 546.32 482.70 545.50 485.72 C 544.45 489.62 542.78 493.61 539.22 495.73 C 538.07 495.89 537.13 495.93 536.00 495.58 C 534.54 495.12 533.34 494.11 532.68 492.72 C 531.12 489.48 531.76 485.21 532.84 481.93 C 534.06 478.25 535.65 475.67 539.14 473.90 Z" fill="currentColor" fill-rule="nonzero" node-id="25" stroke="none" target-height="22.037994" target-width="15.666016" target-x="531.125" target-y="473.89597"></path><path d="M 600.48 478.09 C 601.46 478.15 602.58 478.15 603.53 478.39 C 604.68 478.67 605.50 479.31 606.14 480.29 C 607.74 482.72 607.28 486.17 606.60 488.81 C 605.38 493.54 603.52 496.96 599.28 499.43 C 598.17 499.47 597.02 499.34 596.02 498.84 C 594.55 498.09 593.62 496.53 593.22 494.98 C 592.12 490.71 593.71 484.83 595.94 481.15 C 597.12 479.19 598.37 478.63 600.48 478.09 Z" fill="currentColor" fill-rule="nonzero" node-id="27" stroke="none" target-height="21.381989" target-width="15.622009" target-x="592.12" target-y="478.087"></path><path d="M 600.77 457.47 C 604.94 458.28 609.29 459.70 612.38 462.79 C 613.33 463.74 614.21 465.14 614.00 466.55 C 613.71 468.45 612.17 469.68 610.62 470.55 C 606.95 469.96 602.54 468.80 599.70 466.29 C 598.58 465.30 597.72 464.03 597.78 462.48 C 597.87 460.31 599.26 458.85 600.77 457.47 Z" fill="currentColor" fill-rule="nonzero" node-id="29" stroke="none" target-height="13.075012" target-width="16.494019" target-x="597.72" target-y="457.472"></path><path d="M 545.55 454.17 C 546.56 454.07 547.42 454.07 548.41 454.27 C 550.23 454.63 551.12 455.10 552.13 456.67 C 552.21 457.43 552.20 457.94 551.86 458.66 C 549.98 462.63 544.96 463.49 541.18 464.55 C 539.28 464.56 536.94 464.83 535.30 463.66 C 534.19 462.86 534.19 462.34 534.03 461.10 C 534.31 460.28 534.56 459.64 535.13 458.96 C 537.90 455.65 541.40 454.64 545.55 454.17 Z" fill="currentColor" fill-rule="nonzero" node-id="31" stroke="none" target-height="10.756958" target-width="18.182007" target-x="534.027" target-y="454.07004"></path><path d="M 657.25 530.11 C 658.77 529.95 660.01 529.88 661.51 530.14 C 662.15 530.74 662.35 530.97 662.57 531.86 C 662.81 532.79 662.55 532.83 662.08 533.60 C 659.99 534.78 657.56 534.90 655.21 535.23 C 650.18 539.45 648.60 543.15 647.33 549.40 L 646.96 550.05 C 645.82 550.54 645.71 550.36 644.50 550.00 C 644.05 549.52 643.76 549.11 643.59 548.46 C 642.72 545.29 643.88 542.34 645.49 539.62 C 648.27 534.88 651.93 531.56 657.25 530.11 Z" fill="currentColor" fill-rule="nonzero" node-id="33" stroke="none" target-height="20.666016" target-width="20.095032" target-x="642.717" target-y="529.875"></path><path d="M 217.77 157.69 C 236.13 158.32 254.66 157.84 273.04 157.84 L 370.87 157.78 L 624.45 157.50 L 722.84 157.47 L 754.48 157.58 C 760.61 157.63 766.88 157.37 772.97 158.01 C 774.13 158.15 775.27 158.32 776.42 158.52 C 777.56 158.73 778.70 158.97 779.83 159.25 C 780.95 159.54 782.07 159.85 783.18 160.21 C 784.29 160.56 785.38 160.96 786.46 161.38 C 787.54 161.81 788.61 162.27 789.66 162.77 C 790.71 163.27 791.74 163.80 792.76 164.36 C 793.78 164.93 794.77 165.52 795.75 166.15 C 796.73 166.78 797.68 167.45 798.62 168.14 C 810.53 177.16 818.83 190.29 820.73 205.21 C 822.56 219.57 818.93 233.76 809.92 245.14 C 799.26 258.62 785.32 264.50 768.62 266.45 C 753.64 266.01 738.50 266.54 723.50 266.54 L 629.78 266.53 L 364.95 266.63 C 329.90 266.81 294.84 266.81 259.79 266.64 L 228.86 266.59 C 222.90 266.57 216.68 266.83 210.76 266.14 C 201.10 265.01 191.94 260.90 184.27 254.99 C 173.67 246.82 165.90 234.11 164.25 220.75 C 162.38 205.57 166.23 191.37 175.69 179.34 C 186.48 165.63 200.81 159.61 217.77 157.69 Z M 725.38 262.78 L 753.68 262.75 C 773.49 262.70 788.08 261.95 802.94 247.08 C 811.96 238.06 817.63 225.45 817.52 212.60 C 817.40 198.84 811.76 186.35 801.93 176.79 C 795.05 170.09 785.94 165.23 776.60 163.07 C 767.86 161.05 758.12 161.57 749.19 161.47 L 709.31 161.36 C 694.69 161.46 680.07 160.81 665.45 161.10 C 638.34 161.63 611.32 161.08 584.22 161.20 L 382.70 161.46 L 305.68 161.23 C 291.75 161.20 277.75 160.78 263.82 161.21 C 233.68 163.48 202.80 153.91 180.18 180.28 C 171.40 190.52 166.62 203.63 167.67 217.17 C 168.70 230.35 176.25 242.80 186.23 251.19 C 193.19 257.05 202.05 261.09 211.12 262.12 C 218.93 263.01 227.15 262.82 235.00 262.84 L 268.69 262.83 L 373.45 262.81 L 725.38 262.78 Z" fill="currentColor" fill-rule="nonzero" node-id="35" stroke="none" target-height="112.927" target-width="660.18005" target-x="162.379" target-y="153.905"></path><path d="M 762.19 174.19 C 770.71 174.75 778.01 176.20 784.99 181.39 C 793.41 187.65 799.00 196.64 800.41 207.07 C 801.76 216.99 799.59 227.44 793.41 235.42 C 793.03 235.93 792.63 236.43 792.22 236.92 C 791.81 237.40 791.38 237.88 790.95 238.35 C 790.52 238.82 790.07 239.27 789.61 239.72 C 789.16 240.16 788.69 240.60 788.21 241.02 C 787.73 241.44 787.24 241.85 786.74 242.25 C 786.24 242.64 785.73 243.03 785.21 243.40 C 784.70 243.77 784.17 244.13 783.63 244.48 C 783.10 244.82 782.55 245.15 782.00 245.47 C 781.44 245.79 780.88 246.09 780.31 246.38 C 779.75 246.67 779.17 246.95 778.59 247.21 C 778.01 247.47 777.42 247.72 776.82 247.95 C 776.23 248.18 775.63 248.40 775.02 248.60 C 774.42 248.80 773.81 248.99 773.19 249.16 C 772.58 249.33 771.96 249.49 771.34 249.63 C 770.71 249.77 770.09 249.89 769.46 250.00 C 768.83 250.11 768.20 250.20 767.57 250.28 C 757.55 251.43 746.71 249.05 738.75 242.70 C 738.24 242.29 737.74 241.88 737.26 241.46 C 736.77 241.03 736.30 240.59 735.83 240.14 C 735.36 239.69 734.91 239.23 734.47 238.76 C 734.02 238.29 733.59 237.81 733.17 237.32 C 732.75 236.82 732.35 236.32 731.95 235.81 C 731.56 235.30 731.17 234.78 730.80 234.25 C 730.43 233.71 730.08 233.18 729.73 232.63 C 729.39 232.08 729.06 231.52 728.74 230.96 C 728.43 230.39 728.12 229.82 727.83 229.25 C 727.54 228.67 727.27 228.08 727.01 227.49 C 726.75 226.90 726.50 226.30 726.27 225.69 C 726.04 225.09 725.82 224.48 725.62 223.87 C 725.42 223.25 725.23 222.63 725.06 222.01 C 724.89 221.39 724.73 220.76 724.59 220.13 C 724.45 219.50 724.32 218.86 724.21 218.22 C 724.10 217.59 724.01 216.95 723.93 216.31 C 722.57 223.65 720.37 230.64 715.58 236.52 C 709.66 243.79 701.88 247.30 692.64 248.18 C 684.69 248.93 676.42 248.56 668.43 248.60 L 633.86 248.89 L 522.75 248.68 L 397.07 248.86 C 372.24 249.08 347.41 249.06 322.58 248.79 C 318.52 248.72 314.43 248.99 310.38 248.87 C 307.96 248.80 305.61 248.61 303.68 247.02 L 303.60 246.17 C 304.91 245.35 306.17 245.26 307.68 245.23 C 319.27 244.93 330.98 245.37 342.58 245.37 L 421.00 245.33 L 684.12 245.40 C 694.28 245.35 703.28 244.42 710.77 236.74 C 716.98 230.37 720.99 220.79 720.78 211.86 C 720.78 211.70 720.77 211.54 720.77 211.38 C 720.70 210.41 720.61 209.44 720.50 208.47 C 719.02 195.63 710.90 183.87 698.38 179.68 C 689.74 176.79 665.74 178.12 655.62 178.17 L 605.12 178.38 L 335.00 178.13 L 255.87 178.05 C 246.29 178.04 236.52 178.56 226.97 178.30 C 225.66 178.26 224.58 177.81 223.59 176.93 C 222.97 176.38 223.11 176.59 223.03 175.88 L 223.80 175.37 C 231.77 174.48 240.16 174.98 248.18 175.00 L 289.88 175.10 L 432.75 175.03 L 607.62 175.03 L 662.46 175.01 C 672.38 175.00 682.61 174.45 692.47 175.21 C 698.49 175.66 703.81 177.92 708.65 181.47 C 717.55 187.99 721.94 197.01 723.67 207.71 C 725.02 199.75 728.00 192.54 733.49 186.52 C 741.30 177.95 750.83 174.71 762.19 174.19 Z M 765.76 247.52 C 766.33 247.46 766.90 247.39 767.47 247.31 C 768.04 247.22 768.61 247.12 769.17 247.01 C 769.74 246.90 770.30 246.78 770.86 246.64 C 771.42 246.50 771.98 246.34 772.53 246.18 C 773.08 246.01 773.63 245.83 774.17 245.64 C 774.71 245.44 775.25 245.24 775.78 245.02 C 776.32 244.80 776.84 244.56 777.37 244.32 C 777.89 244.07 778.40 243.81 778.91 243.54 C 779.42 243.27 779.92 242.99 780.42 242.69 C 780.91 242.40 781.40 242.09 781.88 241.77 C 782.36 241.45 782.83 241.12 783.29 240.78 C 783.76 240.43 784.21 240.08 784.66 239.71 C 785.10 239.35 785.54 238.97 785.97 238.59 C 786.40 238.20 786.81 237.80 787.22 237.40 C 787.63 236.99 788.03 236.57 788.42 236.15 C 788.80 235.72 789.18 235.29 789.55 234.84 C 789.91 234.40 790.27 233.94 790.61 233.48 C 790.96 233.02 791.29 232.55 791.61 232.07 C 791.93 231.59 792.24 231.10 792.54 230.61 C 792.84 230.12 793.12 229.62 793.39 229.11 C 793.67 228.60 793.93 228.09 794.18 227.57 C 794.42 227.05 794.66 226.52 794.88 225.99 C 795.10 225.45 795.31 224.92 795.51 224.38 C 795.70 223.83 795.88 223.29 796.05 222.73 C 796.22 222.18 796.38 221.63 796.52 221.07 C 796.66 220.51 796.79 219.95 796.90 219.38 C 797.01 218.82 797.11 218.25 797.20 217.68 C 797.29 217.11 797.36 216.54 797.42 215.97 C 797.48 215.39 797.52 214.82 797.55 214.24 C 797.58 213.67 797.59 213.09 797.60 212.52 C 797.60 211.94 797.59 211.36 797.56 210.79 C 797.53 210.21 797.49 209.64 797.44 209.06 C 797.38 208.49 797.31 207.92 797.23 207.35 C 797.15 206.78 797.05 206.21 796.94 205.64 C 796.83 205.08 796.71 204.51 796.57 203.95 C 796.43 203.39 796.28 202.84 796.11 202.29 C 795.95 201.74 795.77 201.19 795.58 200.64 C 795.38 200.10 795.18 199.56 794.96 199.03 C 794.74 198.49 794.51 197.97 794.26 197.44 C 794.02 196.92 793.76 196.41 793.49 195.90 C 793.22 195.39 792.94 194.89 792.65 194.39 C 792.35 193.90 792.05 193.41 791.73 192.93 C 791.41 192.45 791.08 191.97 790.74 191.51 C 790.40 191.05 790.04 190.59 789.68 190.14 C 789.32 189.70 788.94 189.26 788.56 188.83 C 788.17 188.40 787.77 187.98 787.37 187.57 C 786.96 187.16 786.55 186.76 786.12 186.38 C 785.70 185.99 785.26 185.61 784.82 185.24 C 784.37 184.87 783.92 184.52 783.46 184.17 C 783.00 183.83 782.53 183.49 782.05 183.17 C 781.57 182.85 781.09 182.54 780.60 182.24 C 780.10 181.94 779.60 181.65 779.10 181.38 C 778.59 181.10 778.07 180.84 777.55 180.59 C 777.03 180.35 776.51 180.11 775.98 179.89 C 775.45 179.66 774.91 179.45 774.37 179.26 C 773.82 179.06 773.28 178.88 772.73 178.71 C 772.18 178.54 771.62 178.38 771.07 178.24 C 770.51 178.09 769.94 177.97 769.38 177.85 C 768.82 177.73 768.25 177.63 767.68 177.55 C 767.11 177.46 766.54 177.38 765.96 177.32 C 765.39 177.27 764.82 177.22 764.24 177.19 C 763.66 177.16 763.09 177.14 762.51 177.14 C 761.94 177.13 761.36 177.15 760.78 177.17 C 760.21 177.20 759.63 177.23 759.06 177.29 C 758.48 177.34 757.91 177.41 757.34 177.49 C 756.76 177.57 756.19 177.67 755.63 177.78 C 755.06 177.89 754.49 178.01 753.93 178.15 C 753.37 178.29 752.81 178.44 752.26 178.60 C 751.70 178.77 751.16 178.95 750.61 179.14 C 750.06 179.33 749.52 179.54 748.99 179.75 C 748.45 179.97 747.92 180.20 747.40 180.45 C 746.88 180.69 746.36 180.95 745.85 181.22 C 745.34 181.49 744.83 181.77 744.34 182.07 C 743.84 182.36 743.35 182.67 742.87 182.99 C 742.38 183.31 741.91 183.64 741.44 183.98 C 740.98 184.32 740.52 184.68 740.07 185.04 C 739.62 185.41 739.18 185.78 738.75 186.17 C 738.32 186.55 737.90 186.95 737.49 187.36 C 737.08 187.76 736.68 188.18 736.29 188.61 C 735.90 189.03 735.52 189.47 735.15 189.92 C 734.78 190.36 734.43 190.82 734.08 191.28 C 733.73 191.74 733.40 192.21 733.08 192.69 C 732.75 193.17 732.44 193.66 732.14 194.15 C 731.84 194.65 731.55 195.15 731.28 195.66 C 731.01 196.17 730.74 196.68 730.50 197.20 C 730.25 197.73 730.01 198.25 729.79 198.79 C 729.56 199.32 729.35 199.86 729.16 200.40 C 728.96 200.95 728.78 201.49 728.61 202.05 C 728.44 202.60 728.28 203.16 728.14 203.72 C 727.99 204.28 727.87 204.84 727.75 205.41 C 727.64 205.97 727.54 206.54 727.45 207.11 C 727.36 207.69 727.29 208.26 727.23 208.83 C 727.17 209.41 727.13 209.99 727.10 210.56 C 727.07 211.14 727.05 211.72 727.05 212.30 C 727.05 212.88 727.06 213.45 727.09 214.03 C 727.11 214.61 727.15 215.18 727.21 215.76 C 727.26 216.34 727.33 216.91 727.41 217.48 C 727.50 218.05 727.60 218.62 727.71 219.19 C 727.82 219.76 727.94 220.32 728.08 220.88 C 728.22 221.45 728.37 222.00 728.54 222.56 C 728.71 223.11 728.89 223.66 729.08 224.20 C 729.27 224.75 729.48 225.29 729.70 225.82 C 729.92 226.36 730.15 226.89 730.40 227.41 C 730.64 227.93 730.90 228.45 731.17 228.96 C 731.44 229.47 731.73 229.98 732.02 230.47 C 732.32 230.97 732.63 231.46 732.95 231.94 C 733.27 232.42 733.60 232.89 733.94 233.36 C 734.29 233.82 734.64 234.28 735.01 234.73 C 735.37 235.18 735.75 235.62 736.14 236.04 C 736.52 236.47 736.92 236.89 737.33 237.30 C 737.74 237.71 738.16 238.11 738.58 238.50 C 739.01 238.89 739.45 239.27 739.89 239.64 C 740.34 240.00 740.80 240.36 741.26 240.71 C 741.72 241.05 742.19 241.38 742.67 241.71 C 743.16 242.03 743.64 242.34 744.14 242.64 C 744.63 242.93 745.14 243.22 745.64 243.49 C 746.15 243.77 746.67 244.03 747.19 244.28 C 747.72 244.52 748.24 244.76 748.78 244.98 C 749.31 245.20 749.85 245.41 750.39 245.61 C 750.94 245.80 751.49 245.98 752.04 246.15 C 752.59 246.32 753.15 246.48 753.71 246.62 C 754.27 246.76 754.83 246.89 755.40 247.00 C 755.97 247.11 756.54 247.21 757.11 247.30 C 757.68 247.38 758.26 247.45 758.83 247.51 C 759.41 247.57 759.98 247.61 760.56 247.64 C 761.14 247.67 761.72 247.69 762.29 247.69 C 762.87 247.69 763.45 247.67 764.03 247.64 C 764.60 247.62 765.18 247.57 765.76 247.52 Z" fill="currentColor" fill-rule="nonzero" node-id="37" stroke="none" target-height="77.243" target-width="578.78894" target-x="222.97" target-y="174.189"></path><path d="M 180.48 677.46 C 180.77 677.47 181.07 677.44 181.36 677.48 C 182.51 677.66 183.01 677.81 183.62 678.76 L 183.28 679.65 C 178.62 683.71 155.07 692.42 148.24 695.01 C 147.55 695.21 147.23 695.16 146.53 695.07 C 145.95 694.02 145.57 693.78 145.71 692.55 C 150.13 688.85 173.17 680.46 180.48 677.46 Z" fill="currentColor" fill-rule="nonzero" node-id="39" stroke="none" target-height="17.776978" target-width="38.048996" target-x="145.573" target-y="677.437"></path><path d="M 136.59 627.84 C 142.53 628.52 171.13 630.83 173.87 634.01 L 173.70 635.83 C 169.67 636.35 141.28 632.80 137.35 631.37 C 136.38 629.98 136.57 629.49 136.59 627.84 Z" fill="currentColor" fill-rule="nonzero" node-id="41" stroke="none" target-height="8.511963" target-width="37.497986" target-x="136.376" target-y="627.838"></path><path d="M 342.10 401.77 C 345.32 402.21 346.26 403.62 348.29 406.06 C 350.79 409.07 361.94 422.49 362.33 425.52 C 362.41 426.16 362.21 426.81 362.16 427.45 C 360.01 427.26 359.34 427.08 357.80 425.45 C 354.22 421.69 344.70 409.56 342.54 405.03 C 342.01 403.93 342.05 402.96 342.10 401.77 Z" fill="currentColor" fill-rule="nonzero" node-id="43" stroke="none" target-height="25.678009" target-width="20.395966" target-x="342.014" target-y="401.769"></path><path d="M 818.51 481.92 C 819.19 481.89 819.56 481.89 820.20 482.17 C 820.90 482.48 820.88 482.92 821.17 483.59 C 819.36 487.43 801.16 496.88 796.70 499.12 C 795.43 499.31 794.83 499.10 793.66 498.61 L 793.55 498.14 L 794.13 498.99 L 793.69 497.62 C 796.10 493.27 813.46 484.69 818.51 481.92 Z" fill="currentColor" fill-rule="nonzero" node-id="45" stroke="none" target-height="17.424988" target-width="27.626038" target-x="793.548" target-y="481.89"></path><path d="M 790.06 568.77 C 794.73 568.98 812.78 577.54 817.24 580.13 C 818.08 581.52 817.83 581.76 817.56 583.31 C 817.41 583.32 817.27 583.34 817.12 583.34 C 813.25 583.49 793.33 574.69 790.69 571.89 C 789.76 570.92 790.05 570.02 790.06 568.77 Z" fill="currentColor" fill-rule="nonzero" node-id="47" stroke="none" target-height="14.718994" target-width="28.320068" target-x="789.7589" target-y="568.771"></path><path d="M 797.35 536.98 C 806.60 537.00 816.51 538.27 825.72 539.36 C 827.97 539.62 830.28 539.64 831.76 541.52 L 831.40 542.85 C 830.77 542.91 830.16 542.97 829.52 542.97 C 824.82 542.96 799.58 541.42 797.13 539.00 L 797.35 536.98 Z" fill="currentColor" fill-rule="nonzero" node-id="49" stroke="none" target-height="5.98999" target-width="34.636963" target-x="797.127" target-y="536.976"></path><path d="M 311.80 439.79 C 316.29 440.52 330.62 448.19 334.27 451.12 C 334.88 452.71 334.50 453.03 333.94 454.59 C 329.34 453.56 315.10 446.08 311.35 443.01 C 310.90 441.47 311.20 441.24 311.80 439.79 Z" fill="currentColor" fill-rule="nonzero" node-id="51" stroke="none" target-height="14.799988" target-width="23.985992" target-x="310.898" target-y="439.78802"></path></svg>