<?xml version="1.0" standalone="no"?><!DOCTYPE svg PUBLIC "-//W3C//DTD SVG 1.1//EN" "http://www.w3.org/Graphics/SVG/1.1/DTD/svg11.dtd"><svg height="1024" node-id="1" sillyvg="true" template-height="1024" template-width="1024" version="1.1" viewBox="0 0 1024 1024" width="1024" xmlns="http://www.w3.org/2000/svg" xmlns:xlink="http://www.w3.org/1999/xlink"><defs node-id="26"><linearGradient gradientUnits="objectBoundingBox" id="gradient_0" node-id="14" spreadMethod="pad" x1="473.61948" x2="467.38052" y1="302.31943" y2="280.18057"><stop offset="0" stop-color="#020e00"></stop><stop offset="1" stop-color="#2d1d2e"></stop></linearGradient></defs><path d="M 446.71 106.20 C 458.39 104.50 472.49 106.05 483.06 111.47 C 508.74 124.63 523.74 167.32 523.19 194.46 C 523.09 199.64 522.09 204.53 520.85 209.53 C 516.67 226.39 516.64 230.61 522.01 247.08 C 529.17 245.07 536.61 243.66 543.85 241.99 L 601.18 229.18 C 620.37 224.68 639.59 220.32 658.84 216.12 C 667.58 214.21 676.43 211.80 685.27 210.49 C 689.60 209.84 691.18 210.84 694.52 213.32 C 696.45 219.40 697.38 225.98 698.61 232.25 L 705.20 265.91 L 720.41 339.51 C 724.28 358.52 727.78 377.70 732.32 396.55 C 760.17 396.40 769.74 377.75 791.74 365.89 C 807.45 357.42 826.69 354.80 843.88 359.98 C 858.88 364.50 871.07 374.33 878.46 388.16 C 888.79 407.49 895.43 438.62 888.89 459.97 C 880.94 485.93 857.85 498.95 832.73 504.49 C 825.30 506.13 817.62 507.41 809.99 507.45 C 791.09 507.57 773.29 499.28 755.45 508.63 C 763.24 545.54 771.33 582.39 779.71 619.17 C 782.88 633.11 785.88 647.09 788.71 661.10 C 789.99 667.14 791.60 673.16 792.69 679.24 C 793.05 681.25 793.82 685.25 793.11 687.14 C 792.37 689.15 788.35 690.49 786.48 691.13 C 775.08 695.07 762.36 697.28 750.60 700.20 C 724.29 706.72 697.91 712.93 671.45 718.84 C 658.95 721.53 646.39 723.93 633.92 726.76 C 628.22 728.06 622.11 729.15 616.64 731.22 C 616.47 731.29 616.30 731.36 616.13 731.42 C 616.46 738.95 616.49 746.87 618.99 754.06 C 621.13 760.24 625.48 765.09 629.52 770.11 C 641.12 784.56 652.69 798.80 656.16 817.59 C 656.33 818.48 656.48 819.37 656.61 820.26 C 656.74 821.16 656.85 822.06 656.93 822.96 C 657.01 823.87 657.07 824.77 657.11 825.67 C 657.15 826.58 657.16 827.48 657.15 828.39 C 657.15 829.30 657.12 830.20 657.07 831.10 C 657.01 832.01 656.94 832.91 656.84 833.81 C 656.74 834.71 656.62 835.61 656.48 836.50 C 656.34 837.40 656.17 838.29 655.99 839.17 C 655.80 840.06 655.59 840.94 655.36 841.82 C 655.13 842.69 654.88 843.56 654.60 844.43 C 654.33 845.29 654.03 846.15 653.72 846.99 C 653.40 847.84 653.06 848.68 652.70 849.51 C 652.34 850.35 651.96 851.17 651.57 851.98 C 651.17 852.79 650.75 853.60 650.30 854.39 C 649.86 855.18 649.41 855.96 648.93 856.73 C 648.45 857.50 647.95 858.26 647.43 859.00 C 633.36 879.31 606.12 888.99 582.88 893.27 C 568.57 895.49 553.53 895.67 540.51 888.49 C 515.89 874.92 500.87 839.41 501.44 812.26 C 501.58 805.73 502.96 799.56 504.37 793.22 C 507.36 779.77 505.30 769.72 501.56 756.69 L 404.11 778.32 C 390.08 781.57 376.02 784.68 361.92 787.63 C 355.51 788.98 348.94 790.67 342.44 791.52 C 340.19 791.81 337.31 792.30 335.34 790.94 C 333.81 789.88 333.04 788.52 332.44 786.79 C 329.81 779.17 328.42 770.83 326.65 762.95 C 322.93 746.61 319.42 730.23 316.11 713.81 C 308.85 679.12 300.56 644.66 293.67 609.88 C 273.39 606.92 265.06 614.91 250.04 626.73 C 247.21 628.92 244.27 630.98 241.24 632.90 C 238.21 634.82 235.10 636.60 231.90 638.23 C 215.51 646.54 197.74 648.21 180.25 642.31 C 163.85 636.78 151.13 625.54 143.53 609.98 C 133.71 589.88 128.96 562.58 136.44 540.99 C 147.36 509.51 187.05 492.72 218.35 493.96 C 237.44 494.72 251.14 505.57 270.15 496.33 L 248.80 391.65 C 245.38 375.91 242.11 360.13 239.00 344.33 C 237.46 336.56 235.46 328.62 234.64 320.75 C 234.37 318.16 234.65 315.96 235.81 313.60 C 237.17 310.81 240.39 309.62 243.18 308.60 C 247.62 306.97 252.57 306.10 257.18 305.00 L 282.92 299.01 C 304.25 294.14 325.52 288.96 346.91 284.37 C 359.88 281.63 372.81 278.69 385.70 275.56 C 392.54 273.94 399.66 272.58 406.35 270.44 L 406.92 270.25 C 412.15 246.98 398.99 237.65 385.79 221.25 C 376.56 209.78 369.62 196.33 367.90 181.55 C 366.12 166.28 370.74 151.18 380.28 139.16 C 396.16 119.15 421.97 109.04 446.71 106.20 Z M 300.39 330.65 C 291.89 333.43 282.65 334.12 274.05 336.73 C 276.48 351.82 280.33 366.88 283.70 381.80 C 287.56 399.26 291.29 416.76 294.87 434.28 L 339.82 647.40 L 355.04 717.17 C 357.40 728.54 360.09 740.09 361.67 751.59 C 376.21 747.90 391.01 745.32 405.58 741.78 C 403.96 733.83 402.06 725.82 401.12 717.76 C 400.83 715.25 402.36 712.92 402.06 710.51 C 401.31 704.46 399.36 698.08 398.06 692.08 C 395.27 679.15 377.75 601.83 378.84 597.29 C 381.39 594.43 389.61 596.54 389.28 592.39 C 389.24 591.77 388.96 590.98 388.80 590.41 C 386.71 585.95 385.74 579.75 384.39 574.94 C 381.65 565.13 378.29 555.36 376.19 545.40 C 375.63 542.70 375.38 540.10 375.31 537.36 C 375.19 536.69 375.20 536.93 375.20 536.18 C 375.21 534.08 375.35 531.34 377.24 529.96 C 378.34 529.15 379.16 529.35 380.42 529.46 L 382.04 529.65 L 382.71 529.10 C 383.43 526.23 382.90 522.86 382.97 519.87 C 383.37 518.34 383.99 516.50 385.24 515.43 C 387.15 513.80 389.55 514.98 391.77 515.15 C 393.25 513.52 392.73 510.51 393.68 508.46 C 394.15 507.44 394.81 506.48 395.96 506.22 C 398.88 505.57 401.43 507.95 403.66 509.53 L 403.64 509.50 L 403.97 509.72 C 403.52 507.78 399.58 504.41 398.17 502.77 C 394.40 498.41 392.35 493.13 392.94 487.32 C 394.26 474.27 405.20 467.09 414.40 459.56 C 409.79 453.76 406.00 448.20 405.67 440.49 C 405.11 427.38 413.76 418.00 421.91 408.86 C 442.73 385.47 473.03 373.37 504.02 371.70 C 527.79 370.42 549.97 376.17 567.79 392.46 C 578.46 402.21 582.37 410.66 583.03 425.02 C 587.90 426.90 593.86 429.01 596.81 433.62 C 599.59 437.97 598.30 442.46 597.18 447.07 C 604.21 452.37 612.63 459.10 616.26 467.26 C 616.65 468.14 616.65 468.19 617.45 468.83 C 618.06 468.02 618.69 467.11 619.41 466.40 C 620.44 465.41 621.20 465.43 622.55 465.43 C 625.98 467.15 627.09 469.39 628.77 472.66 C 629.66 470.25 630.78 466.18 633.54 465.29 C 634.69 464.92 635.53 465.18 636.53 465.77 C 641.20 468.52 643.02 478.53 644.19 483.46 C 645.46 480.98 646.77 478.76 649.52 477.78 C 650.86 477.92 651.48 478.03 652.40 479.07 C 659.86 487.47 658.75 523.32 660.64 535.45 C 661.21 539.14 662.65 542.99 663.71 546.58 C 666.13 545.88 669.75 544.33 672.16 545.45 C 673.71 546.18 674.46 550.00 674.88 551.62 C 677.49 561.51 679.60 571.59 681.76 581.59 C 682.93 587.01 684.51 592.64 685.20 598.14 C 686.76 601.66 687.28 606.70 688.10 610.52 C 690.38 621.23 692.39 632.07 694.96 642.70 C 695.66 645.60 698.36 647.22 699.37 650.05 C 701.90 657.13 702.77 665.76 704.27 673.16 C 719.90 669.53 735.67 666.50 751.34 663.02 C 748.30 651.31 746.03 639.27 743.46 627.45 L 727.35 552.32 L 680.26 330.25 C 678.39 321.28 664.54 252.14 663.51 250.50 L 661.44 250.88 C 625.91 259.31 589.99 266.46 554.32 274.27 L 406.46 307.13 L 333.72 323.41 C 324.67 325.45 309.07 329.91 300.39 330.65 Z M 510.12 765.38 C 513.18 779.19 511.00 787.36 508.66 800.76 C 505.22 820.43 511.03 839.56 520.49 856.74 C 526.02 866.78 533.54 877.11 543.36 883.34 C 557.57 892.36 573.41 890.73 589.09 887.12 C 608.10 882.74 633.35 872.27 644.17 855.00 C 651.29 843.63 653.16 830.14 650.10 817.19 C 646.17 800.60 635.65 787.80 625.40 774.67 C 621.71 769.94 617.56 765.14 615.42 759.45 C 612.97 752.94 612.79 745.37 612.43 738.49 C 612.26 735.31 611.34 730.12 613.20 727.43 C 614.12 726.10 617.36 725.37 618.92 724.92 C 635.99 720.00 653.71 716.65 671.02 712.62 C 700.41 705.54 729.85 698.65 759.34 691.96 C 767.16 690.17 775.30 688.93 783.01 686.75 C 777.50 683.37 772.04 679.90 766.64 676.34 C 763.92 674.53 755.60 668.06 753.12 667.21 C 752.71 667.07 752.26 667.15 751.82 667.12 C 674.31 683.86 596.96 701.37 519.79 719.65 L 415.13 743.22 C 397.15 747.31 378.82 750.93 361.04 755.83 C 355.14 766.06 348.20 776.29 343.16 786.95 C 375.57 780.11 407.76 772.30 440.10 765.17 C 445.75 763.92 503.50 751.11 504.78 752.10 C 507.81 754.44 509.19 761.81 510.12 765.38 Z M 272.57 333.88 C 279.63 332.31 286.68 330.71 293.72 329.06 C 297.48 328.18 301.70 326.80 305.53 326.48 C 318.48 322.97 331.76 320.27 344.86 317.33 L 418.64 301.08 L 658.25 248.31 C 660.62 247.72 663.05 247.22 665.35 246.38 C 672.42 236.18 679.93 225.60 685.66 214.59 C 662.40 218.59 639.41 224.10 616.43 229.41 L 551.88 243.88 C 541.08 246.31 530.33 249.07 519.51 251.38 C 519.41 251.20 519.30 251.03 519.20 250.85 C 511.43 237.28 510.44 225.17 513.70 210.22 C 515.15 203.55 516.57 197.23 516.36 190.36 C 516.11 182.55 514.13 174.80 512.08 167.30 C 505.88 144.68 494.00 118.75 469.42 111.94 C 449.41 106.40 423.63 114.21 406.19 124.17 C 391.32 132.66 379.17 145.21 374.72 162.11 C 370.91 176.55 374.59 192.74 382.14 205.40 C 395.58 227.94 419.39 240.28 412.10 270.97 C 411.81 272.19 411.20 274.34 410.06 274.99 C 404.43 278.16 385.86 281.30 378.81 282.92 L 314.05 297.70 L 269.54 307.94 C 261.54 309.80 253.19 312.37 245.05 313.33 C 254.20 319.59 264.88 325.83 272.57 333.88 Z M 668.62 249.31 L 728.85 532.97 C 733.87 557.58 739.12 582.14 744.61 606.65 C 748.93 625.86 754.23 645.58 756.68 665.09 C 762.39 668.63 782.19 679.77 785.64 683.68 L 786.38 683.00 C 787.14 683.60 787.99 684.17 788.62 684.90 C 789.12 683.85 789.05 683.06 788.86 681.94 C 788.04 677.10 786.58 672.29 785.56 667.48 C 783.10 655.89 780.79 644.29 778.23 632.72 L 761.42 556.27 L 754.95 526.42 C 753.89 521.54 752.30 516.27 751.90 511.30 C 751.72 509.17 751.63 506.36 752.89 504.51 C 755.55 500.59 761.49 499.05 765.93 498.37 C 777.89 496.54 789.80 500.38 801.70 501.12 C 825.32 502.57 861.61 493.35 876.58 473.54 C 885.66 461.53 887.59 446.08 885.49 431.52 C 882.61 411.46 875.94 387.05 859.00 374.35 C 846.99 365.35 831.32 361.84 816.55 364.04 C 814.29 364.39 812.07 364.86 809.86 365.43 C 807.65 366.00 805.48 366.67 803.34 367.46 C 801.20 368.24 799.10 369.12 797.04 370.11 C 794.99 371.10 792.99 372.18 791.04 373.37 C 773.66 383.70 760.53 400.69 738.77 401.59 C 735.24 401.73 731.71 402.00 728.48 400.36 C 725.04 395.03 722.36 376.26 720.90 369.26 C 714.00 335.10 706.91 300.98 699.63 266.91 C 697.33 255.10 694.89 243.32 692.31 231.56 C 691.30 227.05 690.58 221.77 688.83 217.52 C 682.19 228.17 675.45 238.77 668.62 249.31 Z M 275.70 499.23 C 265.82 505.91 256.77 507.79 245.07 505.47 C 238.57 504.19 232.17 502.02 225.57 501.26 C 203.98 498.77 180.13 505.72 162.15 517.65 C 150.60 525.32 142.09 535.34 139.43 549.18 C 135.35 570.40 141.63 598.38 153.88 616.13 C 162.51 628.63 175.38 636.38 190.24 639.03 C 208.46 642.28 225.83 636.49 240.67 625.94 C 255.56 615.35 269.89 600.35 290.05 603.62 C 292.28 603.99 296.05 604.56 297.42 606.53 C 301.91 612.97 306.01 643.08 308.65 652.88 C 315.89 685.05 322.93 717.26 329.78 749.51 C 332.42 761.46 334.32 773.88 337.48 785.67 C 342.78 774.10 350.78 764.75 356.81 753.76 C 354.90 742.26 352.33 730.86 349.95 719.45 L 332.98 640.74 L 291.77 445.24 C 287.18 423.79 282.97 402.25 278.12 380.85 C 275.03 367.28 269.68 348.96 268.32 335.49 C 258.73 328.23 248.77 321.50 238.81 314.75 C 239.03 323.01 241.29 331.76 242.94 339.84 C 245.39 352.15 247.99 364.43 250.72 376.68 C 256.09 401.83 261.28 427.02 266.26 452.25 C 269.43 467.79 273.44 483.56 275.70 499.23 Z M 450.11 446.95 C 453.02 458.74 456.47 470.81 458.05 482.85 C 452.75 482.32 446.68 482.93 442.39 486.39 C 439.91 488.39 438.44 491.19 438.15 494.36 C 437.76 498.59 439.38 503.05 442.19 506.19 C 444.98 509.31 448.00 510.62 451.92 511.66 C 456.06 510.79 458.83 509.16 462.22 506.70 C 466.31 523.38 470.36 537.47 485.88 546.93 C 489.85 549.34 494.05 550.96 498.51 552.19 C 500.65 552.77 503.14 553.17 505.11 554.21 C 506.29 554.83 507.17 555.70 507.69 556.94 L 507.12 557.72 C 501.83 558.18 495.18 554.99 490.19 553.34 C 492.44 562.47 493.96 582.39 489.88 591.15 C 491.81 594.97 495.18 598.08 498.41 600.83 C 506.61 606.69 514.07 609.98 523.85 612.31 C 528.19 612.73 532.33 612.34 536.62 611.72 C 539.39 611.01 542.15 610.20 544.76 609.02 C 555.33 604.26 561.91 596.63 565.88 585.88 C 566.41 581.96 565.22 580.52 563.27 577.24 C 555.09 563.47 554.29 557.61 551.07 542.44 C 560.77 531.23 572.62 514.23 571.37 498.61 C 570.79 491.44 568.17 484.60 567.87 477.35 C 572.37 478.92 576.88 479.78 581.38 477.48 C 584.47 475.89 586.58 473.02 587.48 469.69 C 588.57 465.69 587.77 461.43 585.60 457.93 C 583.71 454.89 580.76 452.54 577.23 451.72 C 573.01 450.75 568.60 452.27 565.10 454.64 C 563.89 455.46 562.80 456.53 561.74 457.52 C 556.25 437.22 549.27 421.96 536.29 405.31 C 522.53 423.75 505.52 429.04 484.70 436.00 C 473.26 439.83 461.66 443.49 450.11 446.95 Z M 393.21 593.77 C 404.13 590.47 415.76 589.54 426.64 586.19 C 427.90 582.21 429.69 578.12 430.52 574.05 C 432.09 566.43 430.16 557.99 430.38 550.23 C 430.50 545.69 431.82 541.22 431.88 536.70 C 431.89 535.13 431.84 534.25 430.97 532.94 C 430.39 532.74 430.01 532.42 429.40 532.68 C 425.42 534.37 424.27 546.26 422.44 550.18 L 422.43 550.04 L 421.37 551.16 C 416.89 544.27 418.21 519.45 412.68 513.03 L 411.72 513.07 C 404.58 520.44 414.71 542.10 412.84 548.12 C 407.66 545.17 404.02 513.86 398.37 510.14 L 397.34 510.36 C 392.54 516.49 400.23 534.53 398.79 542.41 C 395.31 542.17 393.63 520.37 389.11 517.50 L 388.10 517.84 C 387.05 519.43 386.84 520.85 386.53 522.71 L 386.51 523.53 C 386.44 531.16 391.06 545.57 389.83 551.16 C 388.74 551.13 388.46 551.04 387.77 550.11 C 384.25 545.35 386.05 537.11 380.26 531.98 C 379.75 533.56 379.25 535.07 379.00 536.71 C 381.00 553.30 387.18 569.51 391.26 585.69 L 393.21 593.77 Z M 619.18 579.00 C 621.72 585.72 623.55 599.81 625.32 607.52 C 631.37 633.93 638.00 660.38 642.97 687.02 L 697.98 674.78 C 693.70 652.18 688.32 629.84 683.48 607.36 C 679.25 587.63 675.62 567.55 670.52 548.02 C 668.61 548.60 666.81 549.12 664.83 549.36 C 648.57 554.21 631.79 557.28 615.45 561.81 C 616.71 567.53 618.09 573.25 619.18 579.00 Z M 615.82 580.89 C 614.18 577.37 611.70 565.57 612.18 561.75 C 612.37 560.25 613.05 559.83 614.15 558.88 C 616.44 557.72 619.03 557.26 621.52 556.66 C 618.81 546.66 615.04 538.12 609.18 529.58 L 606.49 525.98 C 589.93 537.70 575.66 544.39 556.34 550.23 C 558.24 559.55 561.50 567.38 566.00 575.71 C 589.13 581.22 599.62 585.36 619.53 598.78 C 618.50 592.82 616.52 586.88 615.82 580.89 Z M 635.80 510.48 C 631.62 499.78 629.64 487.88 626.34 476.83 C 625.45 474.57 624.73 472.13 623.09 470.29 L 621.91 469.89 C 620.89 470.51 620.60 470.68 620.23 471.91 C 618.38 478.14 627.53 506.76 625.81 508.30 C 620.13 504.41 618.61 480.19 611.61 478.39 C 610.58 479.09 610.22 479.53 609.96 480.79 C 608.07 489.94 620.57 510.61 618.73 520.74 L 617.95 521.17 C 610.60 518.50 598.79 498.11 593.81 495.32 C 593.05 495.86 592.98 495.64 592.92 496.48 C 592.50 503.23 608.03 520.93 612.21 527.81 C 617.96 536.58 622.26 545.79 624.92 555.95 C 636.72 552.83 648.55 549.88 660.43 547.10 C 659.19 543.05 657.98 538.95 657.43 534.74 C 656.13 524.90 655.87 489.40 651.50 483.23 C 650.81 482.27 650.22 482.00 649.10 481.89 C 645.77 485.35 649.35 501.73 647.22 507.68 L 646.53 507.77 C 640.84 499.63 642.33 474.55 634.83 468.88 L 633.97 469.24 C 630.95 476.10 635.99 500.65 635.81 509.89 C 635.81 510.09 635.80 510.29 635.80 510.48 Z M 433.95 576.09 C 432.90 579.34 431.94 582.66 430.78 585.87 C 433.57 585.04 436.41 583.99 439.33 583.83 C 440.64 584.59 441.01 586.85 441.41 588.31 C 443.20 594.91 444.53 601.68 445.95 608.38 C 447.07 613.50 448.16 618.58 448.88 623.78 C 449.70 622.19 450.56 620.63 451.48 619.10 C 452.40 617.56 453.37 616.06 454.39 614.60 C 455.42 613.13 456.49 611.71 457.61 610.32 C 458.73 608.92 459.90 607.57 461.12 606.26 C 462.33 604.95 463.59 603.69 464.89 602.46 C 466.19 601.24 467.54 600.06 468.92 598.93 C 470.30 597.80 471.72 596.72 473.18 595.69 C 474.64 594.65 476.13 593.67 477.66 592.74 C 481.09 590.66 484.77 589.14 488.23 587.18 C 488.46 583.57 489.92 566.11 488.36 564.16 L 488.06 564.09 C 476.73 566.87 465.39 569.56 454.02 572.17 C 447.54 573.67 440.60 575.76 433.95 576.09 Z M 593.73 484.84 C 593.57 487.66 593.05 488.68 590.97 490.57 C 589.77 491.68 587.14 493.16 586.89 494.72 L 589.09 496.36 C 589.37 496.27 589.71 496.26 589.91 496.05 C 590.78 494.40 591.83 491.70 593.45 490.69 C 594.14 490.25 597.43 488.74 597.16 488.12 C 596.58 486.81 594.75 485.88 593.73 484.84 Z M 576.95 583.62 C 574.75 582.30 572.40 581.54 569.99 580.71 C 569.75 582.81 569.31 584.84 568.86 586.90 C 565.98 597.31 559.39 604.98 550.00 610.24 C 548.10 611.30 546.13 612.23 544.09 613.01 C 542.06 613.79 539.97 614.42 537.85 614.90 C 533.26 615.81 528.60 615.76 523.95 615.57 C 513.70 614.80 504.10 609.94 496.33 603.47 C 492.78 600.38 490.39 596.44 487.04 593.32 C 486.05 592.39 485.43 592.69 484.15 592.74 C 482.92 593.64 481.23 594.28 479.85 594.95 C 480.19 595.72 480.56 596.45 480.97 597.18 C 487.50 608.83 500.27 617.58 512.93 621.20 C 513.77 621.44 514.62 621.67 515.47 621.87 C 516.32 622.08 517.17 622.26 518.03 622.42 C 518.88 622.58 519.75 622.72 520.61 622.84 C 521.48 622.95 522.34 623.05 523.22 623.12 C 524.09 623.20 524.96 623.25 525.83 623.28 C 526.70 623.31 527.57 623.32 528.45 623.31 C 529.32 623.30 530.19 623.26 531.07 623.21 C 531.94 623.15 532.81 623.07 533.67 622.97 C 534.54 622.87 535.41 622.75 536.27 622.61 C 537.13 622.47 537.99 622.30 538.84 622.12 C 539.69 621.93 540.54 621.72 541.38 621.49 C 542.23 621.27 543.06 621.02 543.89 620.75 C 544.72 620.48 545.55 620.19 546.36 619.88 C 547.18 619.56 547.99 619.23 548.79 618.88 C 549.59 618.53 550.38 618.16 551.16 617.77 C 551.94 617.38 552.71 616.97 553.47 616.54 C 566.38 609.20 573.13 597.56 576.95 583.62 Z M 431.56 521.81 C 436.58 529.75 450.14 535.02 458.92 536.96 C 463.37 537.94 467.82 538.27 472.36 538.46 C 471.13 536.44 470.45 535.28 468.01 534.71 C 465.70 534.17 463.28 534.12 460.94 533.72 C 456.68 533.00 452.28 531.43 448.30 529.75 C 443.92 527.90 435.77 522.11 431.56 521.81 Z M 468.19 728.14 C 459.22 689.84 451.18 651.37 442.57 612.99 C 440.95 605.79 439.96 598.42 438.26 591.26 C 437.96 589.99 437.71 588.99 436.91 587.93 L 435.79 588.04 C 418.08 592.37 399.98 595.23 382.31 599.67 C 383.12 609.49 387.64 624.82 389.86 635.09 L 405.41 708.67 C 406.44 713.54 410.54 737.65 412.33 739.68 C 413.53 739.85 414.30 739.57 415.44 739.23 C 432.99 735.40 450.57 731.70 468.19 728.14 Z" fill="currentColor" fill-rule="nonzero" node-id="35" stroke="none" target-height="791.171" target-width="766.4749" target-x="128.958" target-y="104.496"></path><path d="M 382.70 656.00 C 382.13 653.70 381.54 651.68 381.79 649.29 L 382.36 648.78 C 384.33 650.83 384.71 653.88 385.30 656.57 C 385.99 661.65 391.43 679.13 389.52 682.54 L 388.98 682.26 C 386.07 676.77 384.23 662.75 382.70 656.00 Z" fill="currentColor" fill-rule="nonzero" node-id="37" stroke="none" target-height="33.76703" target-width="9.890961" target-x="381.54004" target-y="648.777"></path><path d="M 477.66 448.59 L 478.62 448.50 C 480.90 448.30 484.54 448.54 486.17 450.47 C 486.71 451.10 487.01 451.61 487.00 452.44 C 486.94 457.08 479.10 456.52 476.33 459.42 C 476.10 459.65 475.89 459.90 475.67 460.15 C 475.62 460.21 475.56 460.28 475.51 460.34 C 475.06 460.92 474.60 461.58 474.02 462.04 C 472.99 462.88 471.82 462.97 470.55 462.84 C 469.51 462.20 468.76 461.73 468.39 460.48 C 467.91 458.83 468.10 457.11 468.79 455.54 C 470.49 451.67 473.95 450.02 477.66 448.59 Z" fill="currentColor" fill-rule="nonzero" node-id="39" stroke="none" target-height="14.6710205" target-width="19.101044" target-x="467.90897" target-y="448.29797"></path><path d="M 525.43 439.11 C 528.42 438.86 531.74 438.53 534.54 439.75 C 536.79 440.73 538.42 441.80 539.33 444.14 C 539.25 444.82 539.35 445.41 538.87 445.95 C 537.45 447.53 535.40 447.55 533.43 447.55 C 529.67 446.97 524.67 448.02 521.24 446.78 C 520.21 445.68 520.07 445.65 519.93 444.18 C 520.99 441.56 523.03 440.39 525.43 439.11 Z" fill="currentColor" fill-rule="nonzero" node-id="41" stroke="none" target-height="9.494995" target-width="19.414978" target-x="519.931" target-y="438.53"></path><path d="M 529.08 505.20 C 526.93 506.64 524.65 507.42 522.27 508.35 C 518.18 509.95 513.87 510.32 509.50 510.25 C 506.29 510.20 498.23 509.85 496.10 507.26 C 495.60 506.66 495.81 506.10 495.83 505.37 C 498.13 504.88 501.70 506.07 504.10 506.45 C 510.90 507.54 517.51 506.31 523.93 504.07 C 525.62 504.08 527.46 503.84 528.96 504.63 L 529.08 505.20 Z" fill="currentColor" fill-rule="nonzero" node-id="43" stroke="none" target-height="6.479004" target-width="33.47296" target-x="495.60303" target-y="503.843"></path><path d="M 484.27 466.94 C 484.49 466.85 484.72 466.77 484.94 466.71 C 485.17 466.65 485.41 466.60 485.64 466.57 C 485.88 466.54 486.11 466.53 486.35 466.53 C 486.59 466.53 486.83 466.55 487.06 466.58 C 487.30 466.61 487.53 466.66 487.76 466.72 C 487.99 466.79 488.21 466.86 488.43 466.96 C 488.65 467.05 488.86 467.16 489.06 467.28 C 489.27 467.40 489.46 467.53 489.65 467.68 C 489.84 467.82 490.01 467.98 490.18 468.15 C 490.34 468.32 490.50 468.50 490.64 468.69 C 490.78 468.88 490.91 469.08 491.03 469.29 C 491.14 469.50 491.24 469.71 491.33 469.93 C 491.42 470.15 491.49 470.38 491.55 470.61 C 491.60 470.84 491.65 471.07 491.67 471.31 C 491.70 471.54 491.71 471.78 491.70 472.02 C 491.70 472.26 491.68 472.49 491.64 472.73 C 491.61 472.96 491.55 473.19 491.49 473.42 C 491.42 473.65 491.34 473.87 491.24 474.09 C 491.15 474.30 491.03 474.51 490.91 474.72 C 490.79 474.92 490.65 475.11 490.50 475.30 C 490.35 475.48 490.19 475.65 490.02 475.81 C 489.84 475.98 489.66 476.13 489.47 476.27 C 489.27 476.41 489.07 476.53 488.86 476.64 C 488.65 476.75 488.44 476.85 488.22 476.94 C 488.14 476.97 488.05 477.00 487.97 477.02 C 487.89 477.05 487.80 477.07 487.72 477.10 C 487.64 477.12 487.55 477.14 487.47 477.16 C 487.38 477.17 487.30 477.19 487.21 477.20 C 487.12 477.22 487.04 477.23 486.95 477.24 C 486.87 477.25 486.78 477.26 486.69 477.27 C 486.61 477.27 486.52 477.28 486.43 477.28 C 486.34 477.28 486.26 477.28 486.17 477.28 C 486.08 477.27 486.00 477.27 485.91 477.26 C 485.82 477.25 485.74 477.25 485.65 477.24 C 485.57 477.22 485.48 477.21 485.39 477.20 C 485.31 477.18 485.22 477.16 485.14 477.14 C 485.05 477.12 484.97 477.10 484.88 477.08 C 484.80 477.06 484.72 477.03 484.63 477.00 C 484.55 476.98 484.47 476.95 484.39 476.92 C 484.31 476.88 484.23 476.85 484.15 476.81 C 484.07 476.78 483.99 476.74 483.91 476.70 C 483.84 476.66 483.76 476.62 483.68 476.58 C 483.61 476.54 483.53 476.49 483.46 476.45 C 483.39 476.40 483.31 476.35 483.24 476.30 C 483.17 476.25 483.10 476.20 483.03 476.15 C 482.96 476.09 482.90 476.04 482.83 475.98 C 482.76 475.93 482.70 475.87 482.64 475.81 C 482.57 475.75 482.51 475.69 482.45 475.62 C 482.39 475.56 482.33 475.50 482.28 475.43 C 482.22 475.36 482.16 475.30 482.11 475.23 C 482.05 475.16 482.00 475.09 481.95 475.02 C 481.90 474.95 481.85 474.88 481.81 474.81 C 481.76 474.73 481.71 474.66 481.67 474.58 C 481.63 474.51 481.59 474.43 481.55 474.35 C 481.51 474.27 481.47 474.20 481.43 474.12 C 481.40 474.04 481.36 473.96 481.33 473.88 C 481.30 473.80 481.27 473.71 481.24 473.63 C 481.21 473.55 481.19 473.47 481.16 473.38 C 481.14 473.30 481.12 473.22 481.10 473.13 C 481.08 473.05 481.06 472.96 481.05 472.88 C 481.03 472.79 481.02 472.70 481.00 472.62 C 480.99 472.53 480.98 472.44 480.98 472.36 C 480.97 472.27 480.96 472.18 480.96 472.10 C 480.96 472.01 480.96 471.92 480.96 471.84 C 480.96 471.75 480.96 471.66 480.97 471.58 C 480.97 471.49 480.98 471.40 480.99 471.32 C 481.00 471.23 481.01 471.14 481.02 471.06 C 481.04 470.97 481.05 470.89 481.07 470.80 C 481.09 470.72 481.11 470.63 481.13 470.55 C 481.15 470.46 481.18 470.38 481.20 470.30 C 481.23 470.21 481.26 470.13 481.29 470.05 C 481.32 469.97 481.35 469.89 481.38 469.81 C 481.42 469.73 481.45 469.65 481.49 469.57 C 481.53 469.49 481.57 469.41 481.61 469.34 C 481.65 469.26 481.69 469.19 481.74 469.11 C 481.78 469.04 481.83 468.96 481.88 468.89 C 481.93 468.82 481.98 468.75 482.03 468.68 C 482.08 468.61 482.14 468.54 482.19 468.47 C 482.25 468.41 482.31 468.34 482.37 468.28 C 482.42 468.21 482.48 468.15 482.55 468.09 C 482.61 468.03 482.67 467.97 482.74 467.91 C 482.80 467.85 482.87 467.80 482.93 467.74 C 483.00 467.69 483.07 467.63 483.14 467.58 C 483.21 467.53 483.28 467.48 483.35 467.43 C 483.43 467.38 483.50 467.34 483.57 467.29 C 483.65 467.25 483.72 467.20 483.80 467.16 C 483.88 467.12 483.96 467.08 484.03 467.05 C 484.11 467.01 484.19 466.97 484.27 466.94 Z" fill="currentColor" fill-rule="nonzero" node-id="45" stroke="none" target-height="10.748962" target-width="10.752319" target-x="480.95633" target-y="466.52936"></path><path d="M 532.76 458.10 C 532.85 458.08 532.93 458.07 533.01 458.06 C 533.10 458.04 533.18 458.03 533.27 458.02 C 533.35 458.02 533.44 458.01 533.52 458.00 C 533.61 458.00 533.69 458.00 533.78 458.00 C 533.86 458.00 533.95 458.00 534.03 458.00 C 534.12 458.01 534.20 458.01 534.28 458.02 C 534.37 458.03 534.45 458.04 534.54 458.05 C 534.62 458.06 534.71 458.08 534.79 458.09 C 534.87 458.11 534.96 458.13 535.04 458.15 C 535.12 458.17 535.20 458.19 535.28 458.22 C 535.37 458.24 535.45 458.27 535.53 458.30 C 535.61 458.32 535.69 458.35 535.76 458.39 C 535.84 458.42 535.92 458.45 536.00 458.49 C 536.07 458.53 536.15 458.56 536.23 458.60 C 536.30 458.64 536.37 458.69 536.45 458.73 C 536.52 458.77 536.59 458.82 536.66 458.87 C 536.73 458.91 536.80 458.96 536.87 459.01 C 536.94 459.06 537.01 459.11 537.07 459.17 C 537.14 459.22 537.20 459.28 537.27 459.33 C 537.33 459.39 537.39 459.45 537.45 459.51 C 537.51 459.57 537.57 459.63 537.63 459.70 C 537.68 459.76 537.74 459.82 537.79 459.89 C 537.85 459.95 537.90 460.02 537.95 460.09 C 538.00 460.16 538.05 460.23 538.10 460.30 C 538.14 460.37 538.19 460.44 538.23 460.51 C 538.27 460.59 538.32 460.66 538.36 460.74 C 538.40 460.81 538.43 460.89 538.47 460.96 C 538.51 461.04 538.54 461.12 538.57 461.20 C 538.61 461.28 538.64 461.36 538.66 461.44 C 538.69 461.52 538.72 461.60 538.74 461.68 C 538.77 461.76 538.79 461.84 538.81 461.93 C 538.83 462.01 538.85 462.09 538.87 462.17 C 538.88 462.26 538.89 462.34 538.91 462.43 C 538.92 462.51 538.93 462.59 538.94 462.68 C 538.95 462.76 538.95 462.85 538.96 462.93 C 538.96 463.02 538.96 463.10 538.96 463.19 C 538.96 463.27 538.96 463.36 538.95 463.44 C 538.95 463.53 538.94 463.61 538.93 463.70 C 538.92 463.78 538.91 463.87 538.90 463.95 C 538.89 464.03 538.87 464.12 538.85 464.20 C 538.84 464.28 538.82 464.37 538.80 464.45 C 538.77 464.53 538.75 464.61 538.73 464.69 C 538.70 464.78 538.67 464.86 538.64 464.94 C 538.61 465.02 538.58 465.09 538.55 465.17 C 538.52 465.25 538.48 465.33 538.45 465.40 C 538.41 465.48 538.37 465.56 538.33 465.63 C 538.29 465.71 538.25 465.78 538.20 465.85 C 538.16 465.92 538.11 466.00 538.06 466.07 C 538.01 466.14 537.97 466.21 537.91 466.27 C 537.86 466.34 537.81 466.41 537.75 466.47 C 537.70 466.54 537.64 466.60 537.59 466.66 C 537.53 466.73 537.47 466.79 537.41 466.85 C 537.35 466.91 537.29 466.96 537.22 467.02 C 537.16 467.08 537.09 467.13 537.03 467.19 C 536.96 467.24 536.89 467.29 536.83 467.34 C 536.76 467.39 536.69 467.44 536.61 467.48 C 536.54 467.53 536.47 467.58 536.40 467.62 C 536.32 467.66 536.25 467.70 536.17 467.74 C 536.10 467.78 536.02 467.82 535.95 467.85 C 535.87 467.89 535.79 467.92 535.71 467.95 C 535.63 467.98 535.55 468.01 535.47 468.04 C 535.39 468.07 535.31 468.09 535.23 468.12 C 535.15 468.14 535.06 468.16 534.98 468.18 C 534.90 468.20 534.82 468.22 534.73 468.24 C 534.65 468.25 534.57 468.26 534.48 468.27 C 534.40 468.29 534.32 468.29 534.23 468.30 C 534.15 468.31 534.07 468.31 533.98 468.32 C 533.90 468.32 533.81 468.32 533.73 468.32 C 533.65 468.32 533.56 468.32 533.48 468.31 C 533.39 468.31 533.31 468.30 533.23 468.29 C 533.14 468.28 533.06 468.27 532.98 468.25 C 532.90 468.24 532.81 468.23 532.73 468.21 C 532.65 468.19 532.57 468.17 532.49 468.15 C 532.40 468.13 532.32 468.11 532.24 468.08 C 532.16 468.06 532.08 468.03 532.01 468.00 C 531.93 467.97 531.85 467.94 531.77 467.91 C 531.69 467.87 531.62 467.84 531.54 467.80 C 531.47 467.77 531.39 467.73 531.32 467.69 C 531.25 467.65 531.17 467.60 531.10 467.56 C 531.03 467.52 530.96 467.47 530.89 467.42 C 530.82 467.38 530.75 467.33 530.69 467.28 C 530.62 467.23 530.55 467.17 530.49 467.12 C 530.42 467.07 530.36 467.01 530.30 466.95 C 530.24 466.90 530.18 466.84 530.12 466.78 C 530.06 466.72 530.00 466.66 529.95 466.60 C 529.89 466.53 529.84 466.47 529.78 466.40 C 529.73 466.34 529.68 466.27 529.63 466.20 C 529.58 466.14 529.53 466.07 529.49 466.00 C 529.44 465.93 529.40 465.86 529.35 465.78 C 529.31 465.71 529.27 465.64 529.23 465.56 C 529.19 465.49 529.15 465.41 529.12 465.34 C 529.08 465.26 529.05 465.18 529.02 465.11 C 528.99 465.03 528.96 464.95 528.93 464.87 C 528.90 464.79 528.88 464.71 528.85 464.63 C 528.83 464.55 528.80 464.47 528.78 464.39 C 528.76 464.31 528.75 464.23 528.73 464.14 C 528.72 464.06 528.70 463.98 528.69 463.89 C 528.68 463.81 528.67 463.73 528.66 463.64 C 528.65 463.56 528.65 463.48 528.64 463.39 C 528.64 463.31 528.64 463.23 528.64 463.14 C 528.64 463.06 528.64 462.97 528.64 462.89 C 528.65 462.81 528.65 462.72 528.66 462.64 C 528.67 462.56 528.68 462.47 528.69 462.39 C 528.71 462.31 528.72 462.22 528.74 462.14 C 528.75 462.06 528.77 461.98 528.79 461.90 C 528.81 461.81 528.84 461.73 528.86 461.65 C 528.89 461.57 528.91 461.49 528.94 461.42 C 528.97 461.34 529.00 461.26 529.03 461.18 C 529.06 461.10 529.10 461.03 529.13 460.95 C 529.17 460.87 529.21 460.80 529.25 460.73 C 529.29 460.65 529.33 460.58 529.37 460.51 C 529.41 460.43 529.46 460.36 529.50 460.29 C 529.55 460.22 529.60 460.16 529.65 460.09 C 529.70 460.02 529.75 459.95 529.80 459.89 C 529.86 459.82 529.91 459.76 529.97 459.70 C 530.02 459.64 530.08 459.57 530.14 459.51 C 530.20 459.46 530.26 459.40 530.32 459.34 C 530.39 459.29 530.45 459.23 530.51 459.18 C 530.58 459.12 530.64 459.07 530.71 459.02 C 530.78 458.97 530.85 458.92 530.92 458.88 C 530.99 458.83 531.06 458.78 531.13 458.74 C 531.20 458.70 531.27 458.66 531.35 458.62 C 531.42 458.58 531.50 458.54 531.57 458.50 C 531.65 458.46 531.72 458.43 531.80 458.40 C 531.88 458.37 531.96 458.34 532.04 458.31 C 532.12 458.28 532.20 458.25 532.27 458.23 C 532.36 458.20 532.44 458.18 532.52 458.16 C 532.60 458.14 532.68 458.12 532.76 458.10 Z" fill="currentColor" fill-rule="nonzero" node-id="47" stroke="none" target-height="10.323639" target-width="10.324036" target-x="528.636" target-y="457.99704"></path><path d="M 513.38 477.40 C 515.12 480.99 517.47 485.26 515.98 489.33 C 515.48 490.72 514.35 492.23 512.93 492.75 C 512.41 492.94 511.88 492.95 511.35 492.99 L 510.28 492.28 C 510.16 490.99 510.10 490.72 510.99 489.64 C 511.63 488.87 512.55 488.17 513.31 487.51 C 512.55 484.43 511.74 481.68 510.39 478.80 C 511.37 478.13 512.28 477.81 513.38 477.40 Z" fill="currentColor" fill-rule="nonzero" node-id="49" stroke="none" target-height="15.587982" target-width="7.366028" target-x="510.10297" target-y="477.399"></path><path d="M 523.93 504.07 L 524.57 503.77 C 528.30 501.91 535.28 495.30 539.07 495.51 C 539.30 496.50 539.37 496.06 538.80 497.03 C 536.74 500.52 532.62 503.38 529.08 505.20 L 528.96 504.63 C 527.46 503.84 525.62 504.08 523.93 504.07 Z" fill="currentColor" fill-rule="nonzero" node-id="51" stroke="none" target-height="9.89798" target-width="15.434021" target-x="523.935" target-y="495.30304"></path><path d="M 510.39 478.80 C 508.48 475.19 505.20 470.30 505.51 466.15 L 506.10 465.92 C 509.64 468.15 511.60 473.70 513.38 477.40 C 512.28 477.81 511.37 478.13 510.39 478.80 Z" fill="currentColor" fill-rule="nonzero" node-id="53" stroke="none" target-height="12.886993" target-width="8.180023" target-x="505.205" target-y="465.915"></path><path d="M 452.00 495.20 C 453.31 495.75 453.84 495.77 454.60 497.01 C 454.41 498.60 453.56 499.27 452.48 500.33 C 451.19 499.72 450.82 499.65 450.05 498.47 C 450.26 496.92 450.97 496.28 452.00 495.20 Z" fill="currentColor" fill-rule="nonzero" node-id="55" stroke="none" target-height="5.1290283" target-width="4.5420227" target-x="450.054" target-y="495.20197"></path><path d="M 305.53 326.48 C 318.48 322.97 331.76 320.27 344.86 317.33 L 418.64 301.08 L 658.25 248.31 C 659.30 249.44 660.09 250.13 661.44 250.88 C 625.91 259.31 589.99 266.46 554.32 274.27 L 406.46 307.13 L 333.72 323.41 C 324.67 325.45 309.07 329.91 300.39 330.65 L 299.84 329.93 C 296.72 330.59 289.98 331.44 287.42 332.58 C 285.95 333.24 284.50 333.31 282.92 333.03 L 283.69 332.30 C 285.96 332.43 302.44 328.16 305.51 327.09 L 305.53 326.48 Z" fill="currentColor" fill-rule="nonzero" node-id="57" stroke="none" target-height="85.007" target-width="378.51602" target-x="282.921" target-y="248.30598"></path><path d="M 628.77 472.66 C 629.66 470.25 630.78 466.18 633.54 465.29 C 634.69 464.92 635.53 465.18 636.53 465.77 C 641.20 468.52 643.02 478.53 644.19 483.46 C 645.46 480.98 646.77 478.76 649.52 477.78 C 650.86 477.92 651.48 478.03 652.40 479.07 C 659.86 487.47 658.75 523.32 660.64 535.45 C 661.21 539.14 662.65 542.99 663.71 546.58 C 666.13 545.88 669.75 544.33 672.16 545.45 C 673.71 546.18 674.46 550.00 674.88 551.62 C 677.49 561.51 679.60 571.59 681.76 581.59 C 682.93 587.01 684.51 592.64 685.20 598.14 C 684.00 597.02 684.41 596.12 683.11 594.99 L 683.73 595.12 C 681.43 584.16 679.10 573.24 676.49 562.36 C 675.43 557.90 674.84 553.01 673.22 548.72 C 672.78 547.57 672.34 546.75 671.32 546.00 C 668.92 545.62 665.87 547.08 663.53 547.76 C 659.87 546.45 659.84 521.08 657.51 516.25 C 657.24 517.13 657.24 516.79 657.34 517.65 C 658.01 523.27 657.28 529.02 658.02 534.55 C 658.57 538.71 660.79 542.73 660.90 546.94 C 660.60 547.26 660.39 547.71 660.00 547.92 C 658.75 548.57 627.50 556.34 624.99 556.59 L 624.70 555.40 L 624.61 556.20 C 620.97 548.67 618.51 534.26 611.08 529.66 C 611.23 530.53 611.35 531.14 611.87 531.88 C 612.16 532.30 612.48 532.70 612.77 533.12 C 615.71 537.40 622.85 552.43 622.04 557.20 C 619.48 557.97 616.99 558.82 614.49 559.77 L 614.15 558.88 C 616.44 557.72 619.03 557.26 621.52 556.66 C 618.81 546.66 615.04 538.12 609.18 529.58 C 610.07 528.90 611.23 528.37 612.21 527.81 C 617.96 536.58 622.26 545.79 624.92 555.95 C 636.72 552.83 648.55 549.88 660.43 547.10 C 659.19 543.05 657.98 538.95 657.43 534.74 C 656.13 524.90 655.87 489.40 651.50 483.23 C 650.81 482.27 650.22 482.00 649.10 481.89 C 645.77 485.35 649.35 501.73 647.22 507.68 L 646.53 507.77 C 640.84 499.63 642.33 474.55 634.83 468.88 L 633.97 469.24 C 630.95 476.10 635.99 500.65 635.81 509.89 C 635.81 510.09 635.80 510.29 635.80 510.48 C 631.62 499.78 629.64 487.88 626.34 476.83 C 627.34 475.48 628.09 474.20 628.77 472.66 Z" fill="currentColor" fill-rule="nonzero" node-id="59" stroke="none" target-height="133.21902" target-width="76.015015" target-x="609.185" target-y="464.921"></path><path d="M 375.31 537.36 L 375.56 536.84 C 376.69 536.47 377.83 536.66 379.00 536.71 C 381.00 553.30 387.18 569.51 391.26 585.69 L 390.29 585.36 C 389.39 586.45 389.08 587.05 389.14 588.50 C 389.16 589.12 389.24 589.43 389.34 590.01 L 388.80 590.41 C 386.71 585.95 385.74 579.75 384.39 574.94 C 381.65 565.13 378.29 555.36 376.19 545.40 C 375.63 542.70 375.38 540.10 375.31 537.36 Z" fill="currentColor" fill-rule="nonzero" node-id="61" stroke="none" target-height="53.940002" target-width="15.950989" target-x="375.307" target-y="536.467"></path><path d="M 536.62 611.72 C 539.39 611.01 542.15 610.20 544.76 609.02 C 555.33 604.26 561.91 596.63 565.88 585.88 C 566.88 586.17 567.96 586.37 568.86 586.90 C 565.98 597.31 559.39 604.98 550.00 610.24 C 548.10 611.30 546.13 612.23 544.09 613.01 C 542.06 613.79 539.97 614.42 537.85 614.90 C 533.26 615.81 528.60 615.76 523.95 615.57 C 523.69 614.62 523.27 613.75 522.89 612.85 L 523.85 612.31 C 528.19 612.73 532.33 612.34 536.62 611.72 Z" fill="currentColor" fill-rule="nonzero" node-id="63" stroke="none" target-height="29.927979" target-width="45.974976" target-x="522.888" target-y="585.879"></path><path d="M 382.97 519.87 C 384.13 520.83 385.27 521.87 386.53 522.71 L 386.51 523.53 C 386.44 531.16 391.06 545.57 389.83 551.16 C 388.74 551.13 388.46 551.04 387.77 550.11 C 384.25 545.35 386.05 537.11 380.26 531.98 L 379.80 530.39 L 380.42 529.46 L 382.04 529.65 L 382.71 529.10 C 383.43 526.23 382.90 522.86 382.97 519.87 Z" fill="currentColor" fill-rule="nonzero" node-id="65" stroke="none" target-height="31.291992" target-width="11.26297" target-x="379.79703" target-y="519.867"></path><path d="M 498.41 600.83 C 506.61 606.69 514.07 609.98 523.85 612.31 L 522.89 612.85 C 523.27 613.75 523.69 614.62 523.95 615.57 C 513.70 614.80 504.10 609.94 496.33 603.47 L 498.41 600.83 Z" fill="currentColor" fill-rule="nonzero" node-id="67" stroke="none" target-height="14.7369995" target-width="27.617004" target-x="496.328" target-y="600.828"></path><path d="M 484.15 592.74 L 484.69 592.03 C 486.20 591.29 488.24 590.64 489.88 591.15 C 491.81 594.97 495.18 598.08 498.41 600.83 L 496.33 603.47 C 492.78 600.38 490.39 596.44 487.04 593.32 C 486.05 592.39 485.43 592.69 484.15 592.74 Z" fill="currentColor" fill-rule="nonzero" node-id="69" stroke="none" target-height="12.8289795" target-width="14.2630005" target-x="484.15" target-y="590.643"></path><path d="M 375.31 537.36 C 375.19 536.69 375.20 536.93 375.20 536.18 C 375.21 534.08 375.35 531.34 377.24 529.96 C 378.34 529.15 379.16 529.35 380.42 529.46 L 379.80 530.39 L 380.26 531.98 C 379.75 533.56 379.25 535.07 379.00 536.71 C 377.83 536.66 376.69 536.47 375.56 536.84 L 375.31 537.36 Z" fill="currentColor" fill-rule="nonzero" node-id="71" stroke="none" target-height="8.203003" target-width="5.230011" target-x="375.188" target-y="529.152"></path></svg>