<?xml version="1.0" standalone="no"?><!DOCTYPE svg PUBLIC "-//W3C//DTD SVG 1.1//EN" "http://www.w3.org/Graphics/SVG/1.1/DTD/svg11.dtd"><svg height="1024" node-id="1" sillyvg="true" template-height="1024" template-width="1024" version="1.1" viewBox="0 0 1024 1024" width="1024" xmlns="http://www.w3.org/2000/svg" xmlns:xlink="http://www.w3.org/1999/xlink"><defs node-id="42"></defs><path d="M 636.40 134.21 C 667.34 132.60 697.18 141.24 721.47 160.80 C 722.17 161.38 722.87 161.96 723.56 162.55 C 724.26 163.14 724.94 163.74 725.62 164.34 C 726.30 164.95 726.97 165.57 727.63 166.19 C 728.30 166.81 728.95 167.44 729.60 168.08 C 730.25 168.72 730.89 169.37 731.52 170.03 C 732.15 170.68 732.77 171.34 733.39 172.01 C 734.00 172.68 734.61 173.36 735.21 174.04 C 735.81 174.73 736.40 175.42 736.98 176.12 C 737.57 176.82 738.14 177.53 738.70 178.24 C 739.27 178.95 739.83 179.67 740.37 180.40 C 740.92 181.13 741.46 181.86 741.99 182.60 C 742.52 183.34 743.04 184.09 743.55 184.84 C 744.06 185.59 744.56 186.35 745.06 187.12 C 745.55 187.88 746.03 188.66 746.51 189.43 C 746.98 190.21 747.45 190.99 747.90 191.78 C 748.36 192.57 748.80 193.36 749.24 194.16 C 749.67 194.96 750.10 195.76 750.51 196.57 C 750.93 197.38 751.34 198.20 751.73 199.02 C 752.13 199.84 752.51 200.66 752.89 201.49 C 753.27 202.32 753.63 203.15 753.99 203.99 C 754.34 204.83 754.69 205.67 755.02 206.51 C 755.36 207.36 755.68 208.21 756.00 209.06 C 756.31 209.92 756.62 210.78 756.91 211.64 C 757.20 212.50 757.49 213.36 757.76 214.23 C 758.03 215.10 758.29 215.97 758.54 216.85 C 758.80 217.72 759.04 218.60 759.26 219.48 C 759.50 220.36 759.71 221.24 759.92 222.13 C 760.13 223.02 760.33 223.90 760.51 224.79 C 760.70 225.69 760.88 226.58 761.04 227.47 C 761.21 228.37 761.36 229.27 761.50 230.16 C 761.64 231.06 761.78 231.96 761.90 232.87 C 762.02 233.77 762.13 234.67 762.23 235.58 C 766.30 237.96 770.39 240.38 774.14 243.27 C 775.04 243.96 775.93 244.68 776.80 245.41 C 777.67 246.15 778.53 246.91 779.36 247.69 C 780.19 248.47 781.01 249.26 781.80 250.08 C 782.59 250.90 783.37 251.74 784.12 252.60 C 784.87 253.46 785.60 254.33 786.31 255.23 C 787.01 256.12 787.70 257.03 788.36 257.96 C 789.03 258.89 789.66 259.84 790.28 260.80 C 790.90 261.76 791.49 262.73 792.05 263.72 C 792.62 264.71 793.16 265.71 793.68 266.73 C 794.20 267.75 794.69 268.78 795.15 269.82 C 795.62 270.86 796.06 271.91 796.47 272.97 C 796.89 274.04 797.27 275.11 797.63 276.19 C 797.99 277.27 798.32 278.37 798.63 279.46 C 798.94 280.56 799.21 281.67 799.46 282.78 C 799.71 283.89 799.94 285.01 800.13 286.14 C 800.33 287.26 800.49 288.39 800.63 289.52 C 800.77 290.64 800.89 291.77 800.98 292.89 C 801.07 294.02 801.12 295.14 801.16 296.27 C 801.19 297.40 801.19 298.53 801.17 299.66 C 801.14 300.79 801.09 301.92 801.01 303.04 C 800.93 304.17 800.83 305.29 800.69 306.42 C 800.56 307.54 800.39 308.66 800.20 309.77 C 800.01 310.88 799.79 311.99 799.55 313.09 C 799.30 314.19 799.03 315.29 798.73 316.38 C 798.43 317.47 798.11 318.55 797.75 319.62 C 797.40 320.70 797.02 321.76 796.62 322.81 C 796.21 323.87 795.78 324.91 795.32 325.94 C 794.87 326.98 794.38 328.00 793.88 329.01 C 793.37 330.02 792.84 331.01 792.28 332.00 C 791.72 332.98 791.14 333.95 790.54 334.90 C 789.94 335.86 789.31 336.79 788.66 337.72 C 788.01 338.64 787.33 339.55 786.64 340.44 C 777.83 351.67 764.76 362.71 750.93 366.98 C 745.12 368.77 739.14 369.42 733.12 370.14 C 739.13 375.56 745.47 380.54 751.27 386.21 C 759.80 394.55 767.06 404.04 773.89 413.79 C 807.15 461.25 824.94 538.79 838.79 595.32 C 840.12 600.75 846.46 620.93 845.73 625.09 C 839.63 627.14 830.35 625.99 823.80 625.97 C 824.29 635.72 826.38 645.53 828.02 655.16 L 834.30 693.35 L 858.22 840.33 C 858.79 843.87 856.72 842.14 854.99 844.54 C 854.48 849.18 860.61 872.90 861.87 879.91 C 869.12 879.70 912.54 877.16 916.39 878.98 C 917.39 879.45 917.42 879.63 917.75 880.61 C 917.31 881.34 917.38 881.57 916.52 881.84 C 913.55 882.76 894.09 882.51 889.68 882.68 C 827.12 885.08 764.37 884.04 701.76 884.06 L 602.89 884.12 C 586.21 884.13 569.35 884.56 552.69 884.10 C 550.90 884.05 549.36 883.79 547.76 882.97 L 547.51 882.18 C 548.62 881.27 549.89 881.12 551.28 881.01 C 556.96 880.56 562.89 880.92 568.59 880.94 C 584.17 880.98 599.96 881.57 615.51 880.71 C 630.47 867.64 645.16 853.86 661.22 842.14 C 658.34 808.77 653.64 775.52 650.39 742.17 L 644.09 679.71 C 642.88 667.51 642.21 655.03 640.25 642.94 C 615.25 668.33 587.79 690.21 555.46 705.57 C 547.60 709.30 523.47 719.92 515.77 717.17 C 511.86 713.42 498.01 679.47 495.18 672.39 C 466.47 663.34 437.36 655.41 408.40 647.20 C 399.34 644.60 390.27 642.06 381.19 639.56 C 376.13 638.20 370.68 636.36 365.47 635.88 C 362.89 641.27 359.50 647.07 355.44 651.46 L 355.02 651.91 C 360.81 651.97 373.76 650.65 378.63 652.88 C 380.05 660.30 379.10 669.38 379.05 676.98 C 378.99 686.89 379.56 697.40 378.41 707.23 L 365.67 707.50 C 361.65 730.04 359.86 753.03 356.88 775.72 C 353.68 799.26 350.78 822.84 348.17 846.45 C 346.52 860.28 344.45 874.19 343.38 888.07 C 326.56 888.68 309.70 888.40 292.86 888.35 L 214.09 888.33 C 201.02 888.35 187.90 888.08 174.83 888.40 C 174.34 885.38 174.10 882.42 173.92 879.37 C 162.64 879.44 151.38 879.01 140.12 879.04 C 131.08 879.06 121.75 879.66 112.75 879.04 C 110.80 878.91 108.75 878.76 107.09 877.66 L 108.46 876.88 L 107.97 876.99 C 109.84 876.37 111.67 876.00 113.63 875.88 C 121.93 875.37 130.62 875.94 138.96 875.94 C 150.50 875.93 162.03 875.49 173.57 875.58 C 171.26 864.06 170.40 851.78 168.82 840.10 L 156.84 749.98 C 154.91 735.78 153.56 721.21 150.83 707.16 C 146.62 707.19 141.38 707.74 137.38 706.24 C 135.45 703.25 136.49 659.33 136.49 651.93 C 147.90 651.16 161.27 651.98 172.85 651.99 L 249.49 651.92 L 249.29 619.15 C 217.18 608.30 187.68 575.97 168.90 548.66 C 167.53 546.94 166.35 544.79 165.18 542.91 C 160.02 534.72 151.59 519.77 154.21 509.57 C 154.97 506.62 156.84 504.22 159.56 502.80 C 165.60 499.65 174.44 501.24 180.67 503.24 C 211.36 513.09 235.14 545.23 249.38 572.91 C 249.56 543.70 248.79 514.45 248.90 485.23 C 240.15 482.77 232.32 479.09 226.46 471.93 C 215.29 458.26 216.82 435.25 218.47 418.74 L 218.10 418.97 C 202.36 428.51 181.70 440.07 162.80 435.26 C 162.15 435.09 161.49 434.90 160.84 434.70 C 160.20 434.50 159.55 434.28 158.91 434.05 C 158.28 433.81 157.65 433.56 157.02 433.30 C 156.39 433.04 155.77 432.76 155.16 432.46 C 154.55 432.17 153.94 431.86 153.34 431.54 C 152.75 431.22 152.16 430.88 151.58 430.53 C 150.99 430.18 150.42 429.81 149.86 429.43 C 149.29 429.05 148.74 428.66 148.19 428.25 C 147.65 427.85 147.12 427.43 146.59 427.00 C 146.07 426.57 145.55 426.12 145.05 425.67 C 144.55 425.21 144.05 424.74 143.57 424.26 C 143.09 423.78 142.62 423.29 142.17 422.79 C 141.71 422.28 141.27 421.77 140.83 421.25 C 140.40 420.72 139.98 420.19 139.58 419.64 C 139.17 419.10 138.78 418.54 138.40 417.98 C 138.02 417.42 137.65 416.85 137.30 416.26 C 136.97 415.70 136.66 415.13 136.36 414.56 C 136.06 413.98 135.78 413.40 135.51 412.81 C 135.24 412.21 134.98 411.62 134.74 411.01 C 134.50 410.41 134.28 409.80 134.06 409.19 C 133.85 408.58 133.66 407.96 133.47 407.33 C 133.29 406.71 133.12 406.08 132.97 405.45 C 132.82 404.82 132.69 404.18 132.56 403.55 C 132.44 402.91 132.34 402.27 132.25 401.62 C 132.16 400.98 132.09 400.33 132.03 399.69 C 131.97 399.04 131.93 398.39 131.90 397.74 C 131.87 397.09 131.86 396.45 131.87 395.80 C 131.87 395.15 131.89 394.50 131.93 393.85 C 131.96 393.20 132.01 392.55 132.08 391.91 C 132.15 391.26 132.23 390.62 132.33 389.98 C 132.43 389.33 132.54 388.69 132.67 388.06 C 132.80 387.42 132.95 386.79 133.11 386.16 C 138.00 367.23 155.67 355.61 171.47 346.18 C 155.23 339.43 136.60 332.10 129.40 314.70 C 129.14 314.07 128.90 313.45 128.68 312.81 C 128.45 312.17 128.25 311.53 128.05 310.89 C 127.86 310.24 127.68 309.59 127.52 308.94 C 127.36 308.28 127.22 307.62 127.09 306.96 C 126.96 306.30 126.84 305.64 126.75 304.97 C 126.65 304.30 126.57 303.63 126.51 302.96 C 126.44 302.29 126.40 301.62 126.37 300.95 C 126.34 300.27 126.32 299.60 126.32 298.93 C 126.33 298.25 126.34 297.58 126.38 296.90 C 126.42 296.23 126.47 295.56 126.53 294.89 C 126.60 294.22 126.69 293.55 126.79 292.88 C 126.89 292.22 127.01 291.55 127.14 290.89 C 127.27 290.23 127.42 289.57 127.59 288.92 C 127.75 288.27 127.93 287.62 128.13 286.98 C 128.33 286.33 128.54 285.69 128.77 285.06 C 129.00 284.42 129.24 283.79 129.50 283.17 C 133.80 272.97 141.72 264.85 152.04 260.75 C 173.64 252.19 191.75 265.52 210.86 273.74 C 210.14 254.81 206.40 235.48 220.23 220.03 C 220.69 219.53 221.16 219.04 221.65 218.56 C 222.13 218.07 222.63 217.60 223.13 217.15 C 223.64 216.69 224.16 216.24 224.69 215.81 C 225.22 215.38 225.75 214.96 226.30 214.56 C 226.85 214.15 227.41 213.76 227.98 213.38 C 228.55 213.00 229.13 212.63 229.71 212.28 C 230.30 211.93 230.89 211.60 231.49 211.28 C 232.10 210.95 232.71 210.65 233.32 210.36 C 233.94 210.06 234.56 209.79 235.19 209.53 C 235.83 209.26 236.46 209.02 237.10 208.79 C 237.75 208.56 238.40 208.34 239.05 208.15 C 239.70 207.95 240.36 207.76 241.02 207.60 C 241.68 207.43 242.35 207.28 243.02 207.15 C 243.69 207.01 244.36 206.89 245.04 206.79 C 245.71 206.69 246.39 206.61 247.07 206.54 C 247.75 206.47 248.43 206.42 249.11 206.38 C 249.81 206.35 250.50 206.33 251.20 206.33 C 251.89 206.33 252.59 206.34 253.28 206.38 C 253.98 206.41 254.67 206.46 255.36 206.53 C 256.06 206.60 256.75 206.68 257.43 206.78 C 258.12 206.88 258.81 207.00 259.49 207.14 C 260.17 207.27 260.85 207.43 261.52 207.60 C 262.20 207.77 262.87 207.95 263.54 208.16 C 264.20 208.36 264.86 208.58 265.51 208.81 C 266.17 209.05 266.82 209.30 267.46 209.57 C 268.10 209.83 268.74 210.12 269.37 210.42 C 269.99 210.72 270.61 211.03 271.23 211.36 C 271.84 211.69 272.44 212.03 273.04 212.40 C 273.63 212.75 274.22 213.13 274.80 213.52 C 275.37 213.91 275.94 214.31 276.50 214.73 C 277.05 215.14 277.60 215.57 278.13 216.02 C 278.67 216.46 279.20 216.92 279.71 217.39 C 295.44 231.82 292.45 251.66 293.27 270.98 C 300.20 267.24 306.80 262.86 313.76 259.13 C 326.43 252.35 339.88 248.36 354.08 252.75 C 354.70 252.95 355.32 253.16 355.93 253.39 C 356.54 253.62 357.14 253.86 357.74 254.12 C 358.34 254.38 358.93 254.65 359.52 254.94 C 360.10 255.22 360.68 255.53 361.25 255.84 C 361.82 256.16 362.38 256.48 362.94 256.83 C 363.49 257.17 364.04 257.52 364.58 257.89 C 365.11 258.26 365.64 258.64 366.16 259.04 C 366.68 259.43 367.19 259.84 367.69 260.26 C 368.18 260.68 368.67 261.11 369.15 261.55 C 369.63 262.00 370.09 262.45 370.55 262.92 C 371.00 263.38 371.45 263.86 371.88 264.35 C 372.31 264.84 372.73 265.33 373.14 265.84 C 373.55 266.35 373.94 266.87 374.33 267.40 C 374.71 267.92 375.08 268.46 375.44 269.00 C 375.79 269.55 376.14 270.10 376.46 270.67 C 376.79 271.23 377.11 271.80 377.41 272.38 C 382.18 281.49 383.02 292.84 379.88 302.62 C 374.54 319.26 358.44 331.13 343.49 338.79 C 347.26 341.21 351.23 343.32 355.01 345.73 C 367.98 353.99 380.74 366.44 384.02 382.02 C 384.15 382.69 384.28 383.37 384.38 384.05 C 384.48 384.72 384.57 385.40 384.64 386.08 C 384.71 386.77 384.77 387.45 384.80 388.13 C 384.84 388.82 384.86 389.50 384.86 390.19 C 384.86 390.87 384.85 391.56 384.81 392.24 C 384.78 392.92 384.73 393.61 384.67 394.29 C 384.60 394.97 384.52 395.65 384.42 396.33 C 384.32 397.01 384.20 397.68 384.07 398.35 C 383.93 399.02 383.78 399.69 383.62 400.36 C 383.45 401.02 383.27 401.68 383.06 402.34 C 382.87 402.99 382.65 403.64 382.42 404.29 C 382.18 404.93 381.94 405.57 381.67 406.20 C 381.41 406.83 381.13 407.46 380.83 408.07 C 380.54 408.69 380.22 409.30 379.90 409.90 C 379.57 410.51 379.23 411.10 378.88 411.69 C 378.52 412.27 378.15 412.85 377.77 413.42 C 371.37 423.01 360.85 429.74 349.54 431.85 C 330.25 435.44 314.89 424.07 299.96 413.70 C 302.78 429.48 303.24 452.53 294.94 466.71 C 289.01 476.84 279.03 482.34 267.99 485.32 C 268.02 501.37 267.48 517.68 268.48 533.68 L 268.85 533.04 C 273.04 525.82 279.04 519.16 284.67 513.00 C 306.58 489.02 337.45 464.10 369.26 455.60 C 375.97 453.81 384.68 452.52 390.89 456.38 C 391.26 456.60 391.61 456.85 391.95 457.11 C 392.30 457.38 392.63 457.66 392.94 457.95 C 393.26 458.25 393.55 458.56 393.84 458.89 C 394.12 459.21 394.39 459.55 394.64 459.90 C 394.89 460.26 395.12 460.62 395.33 461.00 C 395.54 461.37 395.74 461.76 395.91 462.16 C 396.09 462.55 396.24 462.95 396.37 463.37 C 396.51 463.78 396.62 464.19 396.71 464.62 C 398.43 472.68 393.75 482.94 389.48 489.63 C 365.11 527.82 312.93 556.53 269.51 566.28 L 269.51 651.96 C 281.70 651.73 293.88 651.60 306.06 651.55 C 305.85 650.82 305.66 650.09 305.48 649.35 C 301.49 632.67 307.61 612.84 316.35 598.60 C 320.77 591.41 328.34 581.62 337.10 579.80 C 340.68 579.05 344.03 580.60 346.95 582.53 C 358.17 589.95 363.52 602.60 366.13 615.26 C 395.66 618.99 425.11 623.21 454.50 627.95 C 462.41 629.27 470.38 630.23 478.23 631.86 L 454.88 576.20 C 452.95 571.63 446.86 566.44 447.15 561.51 C 447.79 550.66 468.21 534.65 476.25 528.08 C 472.26 520.41 473.22 506.57 475.43 498.42 C 478.98 485.34 487.81 473.53 500.37 467.99 C 504.33 466.25 509.32 465.33 512.99 463.21 C 515.57 461.72 517.96 457.18 522.87 454.54 C 530.34 450.53 537.52 452.37 545.14 454.49 C 553.29 452.10 561.31 448.53 569.34 445.67 C 594.68 436.64 619.80 426.92 645.44 418.75 C 648.26 409.75 649.91 400.06 652.02 390.86 L 651.24 390.82 C 617.70 388.89 586.25 376.62 563.74 351.04 C 547.89 333.04 536.70 309.28 534.89 285.19 C 534.25 276.69 534.91 268.20 535.47 259.72 C 531.02 260.40 522.00 263.55 517.85 261.94 C 517.48 261.20 517.25 260.55 517.17 259.73 C 516.67 254.71 517.47 248.99 518.17 244.01 C 521.49 220.28 530.99 198.68 546.59 180.45 C 547.28 179.62 547.98 178.80 548.70 177.99 C 549.41 177.18 550.14 176.38 550.88 175.59 C 551.61 174.80 552.35 174.02 553.11 173.24 C 553.86 172.47 554.63 171.70 555.40 170.95 C 556.17 170.20 556.96 169.45 557.75 168.72 C 558.54 167.98 559.34 167.26 560.15 166.54 C 560.96 165.82 561.78 165.12 562.61 164.43 C 563.43 163.73 564.27 163.05 565.11 162.37 C 565.96 161.70 566.81 161.03 567.67 160.38 C 568.53 159.73 569.40 159.09 570.28 158.45 C 571.15 157.82 572.04 157.20 572.93 156.59 C 573.82 155.98 574.72 155.38 575.63 154.80 C 576.54 154.21 577.45 153.63 578.37 153.07 C 579.29 152.50 580.22 151.95 581.15 151.41 C 582.09 150.87 583.03 150.34 583.98 149.82 C 584.93 149.30 585.88 148.80 586.84 148.30 C 587.80 147.81 588.77 147.32 589.74 146.85 C 590.71 146.38 591.69 145.92 592.68 145.48 C 593.66 145.03 594.65 144.60 595.64 144.18 C 596.64 143.75 597.64 143.35 598.64 142.95 C 599.65 142.55 600.66 142.17 601.67 141.79 C 602.69 141.42 603.71 141.06 604.73 140.72 C 605.75 140.37 606.78 140.04 607.81 139.72 C 608.84 139.39 609.88 139.09 610.92 138.79 C 611.96 138.50 613.00 138.21 614.05 137.94 C 615.09 137.67 616.14 137.42 617.20 137.17 C 618.25 136.93 619.30 136.70 620.36 136.48 C 621.42 136.26 622.48 136.06 623.54 135.87 C 624.61 135.68 625.67 135.50 626.74 135.34 C 627.81 135.17 628.88 135.02 629.95 134.88 C 631.02 134.74 632.09 134.62 633.17 134.51 C 634.24 134.40 635.32 134.30 636.40 134.21 Z M 266.21 482.03 C 276.40 479.40 285.89 474.86 291.47 465.52 C 298.75 453.31 298.13 437.29 297.03 423.61 C 296.72 419.87 295.87 415.79 296.09 412.06 C 296.19 410.43 296.54 409.50 297.88 408.57 C 302.14 408.48 313.26 418.27 317.55 420.83 C 335.27 431.38 355.83 431.70 370.80 416.07 C 377.44 409.14 381.43 399.66 381.14 390.01 C 380.79 378.05 374.81 367.33 366.18 359.31 C 357.62 351.37 347.28 345.20 337.17 339.43 C 337.31 339.28 337.45 339.12 337.60 338.96 C 341.50 334.80 347.21 331.83 351.99 328.70 C 365.86 319.64 378.67 307.58 378.22 289.72 C 377.98 279.80 373.28 270.63 366.08 263.95 C 365.65 263.55 365.21 263.16 364.76 262.78 C 364.31 262.40 363.85 262.04 363.38 261.68 C 362.91 261.33 362.43 260.99 361.95 260.65 C 361.46 260.32 360.97 260.00 360.47 259.70 C 359.97 259.39 359.46 259.09 358.94 258.81 C 358.43 258.53 357.90 258.26 357.38 258.00 C 356.85 257.75 356.31 257.50 355.77 257.27 C 355.23 257.05 354.68 256.83 354.13 256.62 C 353.58 256.42 353.02 256.23 352.46 256.06 C 351.90 255.88 351.34 255.72 350.77 255.57 C 350.20 255.42 349.63 255.29 349.05 255.17 C 348.48 255.05 347.90 254.95 347.32 254.86 C 346.74 254.76 346.15 254.69 345.57 254.62 C 344.99 254.56 344.40 254.52 343.81 254.48 C 343.23 254.45 342.64 254.43 342.05 254.43 C 341.46 254.42 340.88 254.43 340.29 254.46 C 326.64 255.05 313.99 263.13 302.62 269.96 C 299.45 271.86 296.22 274.31 292.75 275.56 C 291.49 276.02 291.07 276.14 290.01 275.36 C 289.03 271.47 289.27 266.89 289.17 262.88 C 288.70 244.44 289.15 226.77 271.40 216.01 C 264.41 211.77 255.02 209.25 246.84 210.65 C 236.64 212.09 227.03 217.27 220.85 225.60 C 211.47 238.25 212.93 254.08 214.36 268.90 C 214.51 270.56 216.01 279.20 213.62 279.29 C 211.59 279.37 207.68 276.99 205.79 276.06 C 190.07 268.30 174.56 257.95 156.39 263.50 C 151.06 265.13 146.28 267.79 142.16 271.54 C 141.71 271.95 141.27 272.37 140.85 272.79 C 140.42 273.22 140.00 273.66 139.60 274.10 C 139.19 274.55 138.80 275.01 138.41 275.48 C 138.03 275.94 137.66 276.42 137.30 276.90 C 136.94 277.39 136.59 277.88 136.26 278.39 C 135.92 278.89 135.60 279.40 135.29 279.92 C 134.98 280.44 134.68 280.96 134.40 281.50 C 134.12 282.03 133.85 282.57 133.59 283.12 C 133.33 283.66 133.09 284.22 132.86 284.78 C 132.63 285.34 132.41 285.90 132.21 286.47 C 132.01 287.04 131.82 287.61 131.65 288.19 C 131.48 288.77 131.32 289.35 131.17 289.94 C 131.03 290.53 130.90 291.12 130.78 291.71 C 130.67 292.30 130.57 292.90 130.48 293.50 C 130.40 294.10 130.33 294.69 130.27 295.30 C 130.22 295.90 130.17 296.50 130.15 297.10 C 130.12 297.72 130.11 298.33 130.12 298.95 C 130.12 299.56 130.14 300.18 130.17 300.79 C 130.21 301.41 130.26 302.02 130.32 302.63 C 130.38 303.24 130.46 303.85 130.56 304.46 C 130.65 305.07 130.76 305.67 130.88 306.27 C 131.01 306.88 131.15 307.48 131.30 308.07 C 131.45 308.67 131.62 309.26 131.80 309.85 C 131.99 310.43 132.18 311.02 132.39 311.59 C 132.60 312.17 132.83 312.74 133.07 313.31 C 133.31 313.88 133.56 314.44 133.82 314.99 C 134.09 315.55 134.37 316.09 134.66 316.63 C 134.96 317.18 135.26 317.71 135.58 318.24 C 135.90 318.76 136.23 319.28 136.58 319.79 C 136.92 320.30 137.28 320.80 137.65 321.29 C 138.02 321.78 138.40 322.26 138.79 322.74 C 139.18 323.21 139.59 323.67 140.00 324.13 C 150.96 335.96 170.47 338.24 177.90 345.97 L 177.85 347.03 C 161.41 356.26 142.14 368.07 136.65 387.33 C 136.50 387.86 136.36 388.40 136.24 388.95 C 136.12 389.49 136.01 390.04 135.91 390.58 C 135.82 391.13 135.74 391.68 135.67 392.23 C 135.60 392.79 135.55 393.34 135.51 393.90 C 135.47 394.45 135.44 395.01 135.43 395.56 C 135.41 396.12 135.41 396.68 135.43 397.24 C 135.44 397.79 135.47 398.35 135.51 398.90 C 135.56 399.46 135.61 400.01 135.68 400.56 C 135.75 401.12 135.84 401.67 135.94 402.21 C 136.03 402.76 136.14 403.31 136.27 403.85 C 136.39 404.39 136.53 404.93 136.68 405.47 C 136.83 406.00 137.00 406.54 137.18 407.06 C 137.35 407.59 137.54 408.11 137.75 408.63 C 137.95 409.15 138.17 409.66 138.40 410.17 C 138.63 410.68 138.87 411.18 139.12 411.68 C 139.38 412.17 139.64 412.66 139.92 413.14 C 140.23 413.69 140.54 414.23 140.87 414.77 C 141.21 415.30 141.55 415.83 141.91 416.35 C 142.26 416.86 142.63 417.37 143.02 417.87 C 143.40 418.37 143.79 418.86 144.20 419.34 C 144.61 419.82 145.02 420.28 145.45 420.74 C 145.88 421.20 146.33 421.65 146.78 422.09 C 147.23 422.52 147.69 422.95 148.17 423.36 C 148.64 423.77 149.12 424.17 149.62 424.57 C 150.11 424.95 150.61 425.33 151.12 425.70 C 151.64 426.06 152.16 426.41 152.69 426.75 C 153.22 427.09 153.76 427.41 154.30 427.72 C 154.85 428.04 155.40 428.33 155.96 428.62 C 156.52 428.90 157.09 429.17 157.66 429.43 C 158.24 429.68 158.82 429.93 159.40 430.15 C 159.99 430.38 160.58 430.59 161.18 430.79 C 161.77 430.99 162.38 431.17 162.98 431.34 C 179.16 435.73 196.71 426.92 210.42 418.98 C 213.58 417.15 217.36 413.79 220.85 412.93 L 221.93 413.33 C 223.00 417.74 221.75 423.83 221.46 428.45 C 220.41 445.65 221.19 466.73 237.69 476.65 C 245.87 481.57 256.82 483.55 266.21 482.03 Z M 264.49 486.38 C 260.39 486.30 256.25 486.35 252.19 485.73 C 252.99 524.66 253.27 563.60 253.03 602.54 L 253.06 651.88 C 257.33 651.89 261.62 651.83 265.89 651.94 C 265.41 635.82 266.07 619.43 266.04 603.27 C 266.02 589.80 265.18 575.77 266.08 562.37 C 305.62 557.77 356.37 526.35 380.91 495.54 C 386.55 488.44 394.60 477.06 393.75 467.48 C 393.48 464.50 392.18 461.60 389.73 459.79 C 386.37 457.29 381.58 457.22 377.60 457.66 C 336.64 465.21 292.66 504.43 269.67 537.75 C 267.50 540.88 265.91 546.78 263.13 548.98 L 262.25 549.01 C 261.22 547.99 260.74 547.14 260.80 545.63 C 260.86 544.23 261.45 543.37 262.22 542.26 C 263.01 541.12 263.76 539.96 264.53 538.82 C 264.38 521.34 264.37 503.86 264.49 486.38 Z M 737.49 860.51 C 744.33 855.58 752.15 849.45 757.65 843.04 C 741.70 842.41 725.69 842.58 709.73 842.54 C 695.45 842.52 681.11 842.25 666.84 842.69 C 665.19 843.20 650.48 857.15 647.83 859.63 C 677.71 860.35 707.60 860.65 737.49 860.51 Z M 528.36 256.98 L 529.20 248.33 C 532.55 217.27 551.05 189.10 574.96 169.80 C 592.36 155.76 612.58 145.36 634.59 140.98 C 638.84 140.14 651.45 139.25 653.87 138.24 C 647.56 137.69 641.24 137.68 634.93 138.21 C 601.47 140.91 570.35 158.23 548.75 183.66 C 531.27 204.24 520.92 232.07 520.99 259.14 L 528.36 256.98 Z M 533.77 455.62 C 527.41 456.40 522.55 458.12 518.35 463.29 C 515.37 466.97 510.88 475.74 511.50 480.48 C 511.53 480.69 511.60 480.90 511.64 481.11 C 512.37 481.48 512.31 481.70 512.92 481.42 C 513.80 481.00 514.33 480.11 514.89 479.35 C 518.48 475.01 521.99 470.61 526.29 466.94 C 529.56 464.15 536.52 461.02 538.46 459.02 C 539.10 458.35 539.30 457.73 539.48 456.84 C 537.60 456.06 535.77 455.87 533.77 455.62 Z M 502.61 510.47 C 511.37 505.88 520.65 501.69 530.12 498.79 C 527.62 497.65 525.52 496.72 524.00 494.35 C 520.17 494.17 515.02 494.02 512.20 491.01 C 511.33 490.07 510.98 488.90 510.56 487.73 C 509.93 486.00 508.65 481.11 507.46 480.06 C 498.22 485.17 491.97 492.99 488.99 503.16 C 487.36 508.73 487.46 512.35 488.08 518.08 C 488.12 518.44 488.18 518.79 488.23 519.15 C 493.07 517.71 498.05 512.97 502.61 510.47 Z M 577.08 496.03 C 586.88 494.18 596.65 490.62 606.19 487.71 C 604.21 480.93 597.70 443.80 595.38 441.10 C 580.85 445.46 565.95 450.68 551.95 456.52 C 553.17 461.24 559.21 477.41 557.25 480.98 C 555.96 481.07 555.89 480.84 554.82 480.08 C 551.68 472.99 550.92 465.09 548.67 457.72 L 542.98 458.72 C 542.33 460.33 541.66 461.94 540.96 463.53 C 543.20 466.11 544.53 468.45 545.24 471.80 L 545.85 472.23 L 550.72 476.68 L 551.44 482.16 C 560.16 486.45 568.47 491.53 577.08 496.03 Z M 479.18 525.76 C 480.84 524.65 482.57 523.59 484.15 522.38 C 483.30 508.81 484.40 496.88 493.74 486.15 C 497.73 481.57 502.64 478.20 508.13 475.67 C 508.75 473.52 510.54 469.72 510.54 467.67 C 498.26 472.22 487.44 479.68 481.85 491.89 C 481.56 492.55 481.27 493.22 481.01 493.89 C 480.74 494.56 480.49 495.23 480.25 495.92 C 480.01 496.60 479.79 497.28 479.58 497.97 C 479.37 498.67 479.17 499.36 479.00 500.06 C 478.82 500.76 478.65 501.46 478.50 502.17 C 478.35 502.88 478.22 503.58 478.10 504.30 C 477.98 505.01 477.88 505.72 477.79 506.44 C 477.70 507.16 477.63 507.88 477.58 508.60 C 477.52 509.32 477.48 510.04 477.45 510.76 C 477.43 511.48 477.42 512.20 477.42 512.92 C 477.43 513.64 477.45 514.37 477.48 515.09 C 477.52 515.81 477.57 516.53 477.64 517.25 C 477.70 517.97 477.79 518.68 477.88 519.40 C 477.98 520.12 478.10 520.83 478.22 521.54 C 478.35 522.25 478.50 522.96 478.65 523.66 C 478.81 524.37 478.99 525.07 479.18 525.76 Z M 549.78 487.05 C 549.65 487.25 549.52 487.44 549.40 487.64 C 547.24 490.86 543.03 493.69 541.42 496.88 C 546.63 499.68 558.62 496.84 564.93 497.07 C 568.35 497.44 571.78 497.77 575.16 498.43 C 566.49 495.01 558.63 490.08 549.78 487.05 Z M 536.87 464.03 C 532.00 466.51 516.32 481.03 514.56 486.02 C 514.33 486.68 514.26 486.64 514.53 487.24 C 515.20 488.73 517.02 489.70 518.40 490.45 C 521.92 490.86 523.66 489.73 526.38 487.58 C 531.88 483.21 537.58 476.20 540.38 469.74 C 539.30 467.75 538.30 465.79 536.87 464.03 Z M 249.50 603.00 C 238.86 596.33 223.16 572.62 214.95 562.22 C 212.07 558.27 206.15 552.23 205.38 547.42 L 205.90 546.55 C 207.27 546.47 207.53 546.30 208.55 547.35 C 213.41 552.30 217.59 559.07 221.80 564.67 C 230.57 576.36 239.47 588.04 249.43 598.75 L 249.46 581.37 C 245.90 575.38 243.12 568.96 239.49 563.01 C 225.28 539.75 203.18 512.67 175.64 505.75 C 172.91 505.07 169.63 504.42 166.82 504.62 C 163.63 505.14 160.87 505.71 158.94 508.54 C 156.99 511.41 157.12 514.99 157.89 518.24 C 159.68 525.76 163.96 533.08 167.92 539.64 C 184.24 566.65 208.15 592.62 235.46 608.73 C 239.68 611.23 244.57 614.04 249.47 614.85 L 249.50 603.00 Z M 542.78 474.81 C 539.30 479.39 535.75 483.78 531.63 487.81 C 529.75 489.65 527.59 491.24 525.75 493.10 C 527.88 494.25 529.82 495.25 532.19 495.84 C 539.63 492.63 544.41 490.41 547.54 482.51 C 547.79 481.89 547.97 481.29 548.15 480.65 C 546.42 478.64 544.75 476.60 542.78 474.81 Z M 763.70 842.91 C 757.65 849.48 750.83 855.17 744.06 860.96 C 762.32 861.47 780.58 861.79 798.84 861.94 C 810.23 862.02 821.78 862.53 833.12 861.37 C 839.98 860.20 846.70 858.88 853.31 856.63 C 852.36 852.15 851.49 847.63 850.44 843.17 C 821.57 842.01 792.53 844.12 763.70 842.91 Z M 492.45 667.96 L 492.90 667.34 C 489.53 656.76 484.54 645.74 479.83 635.67 C 464.74 633.79 449.83 630.63 434.77 628.52 L 388.92 622.09 C 381.58 621.05 374.02 620.31 366.75 618.92 C 366.76 623.16 366.93 627.88 365.90 632.02 C 382.63 634.85 399.31 640.50 415.65 645.11 C 441.29 652.34 467.26 659.30 492.45 667.96 Z M 336.92 583.40 C 322.34 592.01 313.97 606.73 309.86 622.86 C 307.54 631.95 305.63 644.24 310.79 652.75 C 313.05 656.48 315.57 658.14 319.66 659.28 C 324.76 659.19 327.78 657.90 331.41 654.21 C 342.59 642.83 348.06 623.36 347.76 607.74 C 347.63 601.09 346.92 589.73 341.73 584.92 C 340.22 583.51 338.88 583.33 336.92 583.40 Z M 532.51 502.61 C 523.01 504.93 513.38 509.10 504.78 513.81 C 488.90 522.49 460.39 543.31 451.51 558.82 C 450.88 559.91 450.50 560.81 450.58 562.09 C 451.36 563.10 451.62 563.38 452.99 563.58 C 453.59 563.67 454.54 563.47 455.12 563.40 C 480.29 559.07 520.74 530.43 535.08 509.33 C 536.06 507.90 536.69 506.73 536.83 504.99 C 536.26 503.58 536.26 503.39 535.00 502.59 L 532.51 502.61 Z" fill="#000000" fill-rule="nonzero" node-id="44" stroke="none" target-height="756.086" target-width="810.66693" target-x="107.086" target-y="132.597"></path><path d="M 247.58 284.29 C 248.58 284.16 249.59 284.06 250.60 283.98 C 251.61 283.90 252.62 283.84 253.63 283.81 C 254.64 283.78 255.66 283.78 256.67 283.80 C 257.68 283.82 258.69 283.86 259.70 283.93 C 260.71 284.00 261.72 284.09 262.73 284.21 C 263.73 284.33 264.73 284.48 265.73 284.64 C 266.73 284.81 267.72 285.00 268.71 285.22 C 269.70 285.44 270.69 285.68 271.66 285.95 C 272.64 286.21 273.61 286.50 274.57 286.81 C 275.54 287.13 276.49 287.47 277.44 287.83 C 278.38 288.19 279.32 288.57 280.25 288.98 C 281.17 289.38 282.09 289.81 283.00 290.26 C 283.90 290.72 284.80 291.19 285.68 291.69 C 286.56 292.18 287.43 292.70 288.29 293.24 C 289.15 293.78 289.99 294.34 290.82 294.92 C 291.65 295.50 292.47 296.10 293.27 296.72 C 294.07 297.34 294.85 297.98 295.62 298.63 C 296.39 299.29 297.14 299.97 297.88 300.67 C 298.61 301.36 299.33 302.08 300.03 302.81 C 300.73 303.54 301.41 304.29 302.08 305.05 C 302.74 305.82 303.38 306.60 304.01 307.39 C 304.63 308.19 305.24 309.00 305.82 309.83 C 306.41 310.66 306.97 311.50 307.52 312.35 C 308.06 313.21 308.58 314.07 309.08 314.95 C 309.58 315.83 310.06 316.72 310.52 317.63 C 310.98 318.53 311.41 319.45 311.82 320.37 C 312.24 321.30 312.62 322.23 312.99 323.17 C 313.36 324.12 313.70 325.07 314.02 326.03 C 314.34 326.99 314.63 327.96 314.90 328.94 C 315.18 329.91 315.42 330.89 315.64 331.88 C 315.87 332.87 316.07 333.86 316.24 334.86 C 316.42 335.86 316.56 336.86 316.69 337.86 C 316.81 338.87 316.91 339.88 316.99 340.88 C 317.06 341.89 317.11 342.91 317.14 343.92 C 317.17 344.93 317.17 345.94 317.14 346.95 C 317.12 347.97 317.07 348.98 316.99 349.99 C 316.92 351.00 316.82 352.01 316.70 353.01 C 316.57 354.02 316.42 355.02 316.25 356.01 C 316.08 357.01 315.88 358.00 315.66 358.99 C 315.44 359.98 315.19 360.96 314.92 361.94 C 314.65 362.91 314.35 363.88 314.04 364.84 C 313.72 365.80 313.38 366.76 313.01 367.70 C 312.65 368.65 312.26 369.58 311.85 370.51 C 311.44 371.43 311.00 372.35 310.55 373.25 C 310.09 374.16 309.61 375.05 309.11 375.93 C 308.61 376.81 308.09 377.68 307.55 378.53 C 307.00 379.38 306.44 380.23 305.86 381.05 C 305.27 381.88 304.67 382.69 304.04 383.49 C 303.42 384.29 302.78 385.07 302.11 385.83 C 301.45 386.60 300.77 387.35 300.07 388.08 C 299.37 388.81 298.65 389.53 297.92 390.22 C 297.18 390.92 296.43 391.60 295.66 392.26 C 294.90 392.92 294.11 393.56 293.31 394.18 C 292.51 394.80 291.70 395.40 290.87 395.98 C 290.04 396.56 289.20 397.12 288.34 397.66 C 287.48 398.20 286.61 398.72 285.73 399.22 C 284.85 399.71 283.95 400.19 283.05 400.64 C 282.14 401.09 281.23 401.52 280.30 401.93 C 279.37 402.34 278.44 402.72 277.49 403.08 C 276.54 403.44 275.59 403.78 274.63 404.10 C 273.66 404.41 272.69 404.70 271.72 404.97 C 270.74 405.23 269.76 405.48 268.77 405.69 C 267.78 405.91 266.79 406.11 265.79 406.28 C 264.79 406.45 263.79 406.59 262.78 406.71 C 261.78 406.83 260.78 406.92 259.78 406.99 C 258.77 407.06 257.77 407.11 256.76 407.13 C 255.76 407.15 254.75 407.15 253.75 407.12 C 252.74 407.09 251.74 407.04 250.73 406.96 C 249.73 406.88 248.73 406.78 247.73 406.66 C 246.73 406.53 245.74 406.38 244.75 406.20 C 243.75 406.03 242.77 405.83 241.79 405.61 C 240.81 405.38 239.83 405.13 238.86 404.86 C 237.89 404.59 236.93 404.30 235.98 403.98 C 235.02 403.66 234.08 403.32 233.14 402.95 C 232.20 402.59 231.27 402.20 230.35 401.79 C 229.43 401.38 228.53 400.95 227.63 400.50 C 226.73 400.04 225.84 399.57 224.97 399.07 C 224.09 398.57 223.23 398.05 222.38 397.51 C 221.53 396.97 220.70 396.41 219.88 395.83 C 219.05 395.25 218.25 394.65 217.46 394.03 C 216.66 393.41 215.89 392.77 215.12 392.11 C 214.36 391.45 213.62 390.78 212.89 390.08 C 212.16 389.39 211.45 388.67 210.76 387.94 C 210.07 387.21 209.39 386.47 208.74 385.71 C 208.08 384.94 207.44 384.17 206.82 383.37 C 206.21 382.58 205.61 381.77 205.03 380.95 C 204.45 380.12 203.89 379.29 203.35 378.44 C 202.82 377.59 202.30 376.72 201.80 375.85 C 201.31 374.97 200.83 374.08 200.38 373.18 C 199.93 372.29 199.50 371.38 199.09 370.46 C 198.68 369.54 198.30 368.61 197.94 367.67 C 197.57 366.73 197.23 365.78 196.92 364.83 C 196.60 363.87 196.31 362.91 196.04 361.94 C 195.77 360.97 195.53 359.99 195.31 359.01 C 195.09 358.03 194.89 357.04 194.72 356.05 C 194.54 355.06 194.39 354.07 194.27 353.07 C 194.15 352.07 194.05 351.07 193.97 350.06 C 193.90 349.06 193.85 348.06 193.82 347.05 C 193.80 346.04 193.79 345.04 193.82 344.03 C 193.84 343.03 193.89 342.02 193.96 341.02 C 194.03 340.01 194.13 339.01 194.25 338.01 C 194.37 337.01 194.52 336.02 194.69 335.03 C 194.86 334.04 195.06 333.05 195.27 332.07 C 195.49 331.08 195.73 330.11 196.00 329.14 C 196.27 328.17 196.56 327.20 196.87 326.25 C 197.18 325.29 197.52 324.34 197.88 323.40 C 198.24 322.46 198.62 321.53 199.03 320.61 C 199.43 319.69 199.86 318.78 200.31 317.88 C 200.76 316.98 201.23 316.09 201.73 315.21 C 202.22 314.34 202.74 313.47 203.27 312.62 C 203.81 311.77 204.36 310.93 204.94 310.11 C 205.52 309.28 206.11 308.47 206.73 307.68 C 207.35 306.88 207.98 306.10 208.64 305.34 C 209.29 304.57 209.96 303.83 210.66 303.10 C 211.35 302.36 212.06 301.65 212.78 300.95 C 213.51 300.26 214.25 299.58 215.01 298.92 C 215.77 298.26 216.55 297.62 217.34 297.00 C 218.13 296.37 218.93 295.77 219.75 295.19 C 220.57 294.60 221.41 294.04 222.25 293.50 C 223.10 292.96 223.96 292.44 224.84 291.94 C 225.71 291.44 226.60 290.96 227.49 290.50 C 228.39 290.05 229.30 289.61 230.21 289.20 C 231.13 288.79 232.06 288.40 233.00 288.03 C 233.93 287.66 234.88 287.32 235.83 287.00 C 236.79 286.68 237.75 286.38 238.72 286.11 C 239.68 285.83 240.66 285.58 241.64 285.36 C 242.62 285.13 243.61 284.93 244.60 284.75 C 245.59 284.58 246.58 284.42 247.58 284.29 Z M 260.74 403.13 C 261.68 403.05 262.61 402.94 263.55 402.80 C 264.48 402.67 265.42 402.52 266.34 402.34 C 267.27 402.16 268.19 401.96 269.11 401.74 C 270.03 401.52 270.94 401.27 271.85 401.00 C 272.75 400.74 273.65 400.45 274.54 400.14 C 275.43 399.83 276.32 399.49 277.19 399.14 C 278.07 398.78 278.93 398.41 279.79 398.01 C 280.65 397.62 281.50 397.20 282.33 396.76 C 283.17 396.32 283.99 395.86 284.81 395.38 C 285.62 394.90 286.42 394.41 287.21 393.89 C 288.00 393.37 288.78 392.83 289.54 392.28 C 290.31 391.72 291.05 391.15 291.79 390.55 C 292.53 389.96 293.25 389.35 293.95 388.72 C 294.66 388.09 295.35 387.45 296.02 386.79 C 296.69 386.13 297.35 385.45 297.99 384.75 C 298.63 384.06 299.25 383.35 299.86 382.63 C 300.47 381.90 301.05 381.16 301.62 380.41 C 302.19 379.66 302.74 378.89 303.28 378.11 C 303.81 377.33 304.32 376.54 304.81 375.73 C 305.31 374.93 305.78 374.11 306.24 373.28 C 306.69 372.45 307.12 371.61 307.53 370.76 C 307.95 369.91 308.34 369.05 308.71 368.19 C 309.08 367.32 309.43 366.44 309.75 365.55 C 310.08 364.67 310.39 363.77 310.67 362.87 C 310.95 361.97 311.21 361.07 311.45 360.15 C 311.69 359.24 311.91 358.32 312.10 357.40 C 312.30 356.47 312.47 355.54 312.62 354.61 C 312.77 353.68 312.89 352.74 313.00 351.80 C 313.10 350.86 313.18 349.92 313.24 348.98 C 313.29 348.04 313.33 347.09 313.34 346.15 C 313.35 345.21 313.33 344.26 313.30 343.32 C 313.26 342.37 313.20 341.43 313.12 340.49 C 313.04 339.55 312.94 338.61 312.81 337.68 C 312.68 336.74 312.53 335.81 312.36 334.88 C 312.18 333.95 311.99 333.03 311.77 332.11 C 311.55 331.19 311.31 330.28 311.05 329.37 C 310.78 328.46 310.50 327.56 310.19 326.67 C 309.88 325.78 309.55 324.89 309.20 324.02 C 308.85 323.14 308.48 322.27 308.09 321.41 C 307.69 320.55 307.28 319.70 306.85 318.87 C 306.41 318.03 305.96 317.20 305.48 316.38 C 305.01 315.57 304.51 314.76 304.00 313.97 C 303.48 313.18 302.95 312.40 302.40 311.64 C 301.84 310.87 301.27 310.12 300.68 309.38 C 300.09 308.64 299.49 307.92 298.86 307.21 C 298.24 306.50 297.59 305.81 296.94 305.13 C 296.28 304.46 295.60 303.80 294.91 303.15 C 294.22 302.51 293.51 301.88 292.79 301.27 C 292.07 300.67 291.33 300.07 290.58 299.50 C 289.83 298.93 289.07 298.37 288.29 297.84 C 287.51 297.30 286.72 296.79 285.92 296.29 C 285.12 295.79 284.30 295.32 283.47 294.86 C 282.65 294.40 281.81 293.96 280.96 293.55 C 280.12 293.13 279.26 292.74 278.39 292.36 C 277.52 291.99 276.65 291.64 275.76 291.31 C 274.88 290.97 273.99 290.67 273.09 290.38 C 272.19 290.09 271.28 289.83 270.37 289.58 C 269.46 289.34 268.54 289.12 267.62 288.92 C 266.69 288.72 265.76 288.55 264.83 288.39 C 263.90 288.24 262.96 288.11 262.03 288.00 C 261.09 287.90 260.15 287.81 259.20 287.75 C 258.26 287.69 257.32 287.65 256.38 287.64 C 255.43 287.62 254.49 287.63 253.54 287.66 C 252.60 287.69 251.66 287.75 250.72 287.83 C 249.77 287.91 248.82 288.01 247.88 288.13 C 246.94 288.26 246.00 288.40 245.07 288.57 C 244.14 288.74 243.21 288.94 242.28 289.15 C 241.36 289.37 240.44 289.61 239.52 289.87 C 238.61 290.13 237.70 290.42 236.81 290.72 C 235.91 291.03 235.02 291.36 234.13 291.71 C 233.25 292.06 232.38 292.43 231.51 292.82 C 230.65 293.22 229.79 293.63 228.95 294.07 C 228.10 294.50 227.27 294.96 226.45 295.43 C 225.63 295.91 224.82 296.41 224.02 296.92 C 223.22 297.44 222.44 297.97 221.67 298.53 C 220.90 299.08 220.14 299.66 219.40 300.25 C 218.66 300.84 217.93 301.45 217.22 302.08 C 216.50 302.71 215.81 303.35 215.12 304.01 C 214.44 304.67 213.78 305.35 213.13 306.05 C 212.48 306.74 211.85 307.45 211.24 308.18 C 210.63 308.90 210.04 309.65 209.46 310.40 C 208.88 311.16 208.33 311.92 207.79 312.71 C 207.25 313.49 206.73 314.28 206.23 315.09 C 205.73 315.90 205.25 316.72 204.79 317.55 C 204.34 318.38 203.90 319.23 203.48 320.08 C 203.06 320.93 202.67 321.80 202.29 322.67 C 201.92 323.54 201.57 324.42 201.23 325.31 C 200.90 326.20 200.59 327.10 200.31 328.01 C 200.02 328.91 199.75 329.82 199.51 330.74 C 199.27 331.66 199.05 332.58 198.85 333.51 C 198.66 334.44 198.48 335.38 198.33 336.31 C 198.18 337.25 198.05 338.19 197.95 339.13 C 197.85 340.08 197.76 341.03 197.71 341.97 C 197.65 342.92 197.61 343.87 197.60 344.82 C 197.59 345.77 197.60 346.72 197.64 347.67 C 197.68 348.62 197.73 349.56 197.82 350.51 C 197.90 351.46 198.00 352.40 198.13 353.34 C 198.26 354.28 198.41 355.22 198.59 356.15 C 198.76 357.09 198.96 358.02 199.18 358.94 C 199.40 359.86 199.64 360.78 199.91 361.69 C 200.18 362.61 200.46 363.51 200.77 364.41 C 201.08 365.31 201.42 366.19 201.77 367.08 C 202.12 367.96 202.50 368.83 202.90 369.69 C 203.29 370.55 203.71 371.41 204.15 372.25 C 204.59 373.09 205.05 373.92 205.53 374.74 C 206.01 375.56 206.51 376.37 207.03 377.16 C 207.55 377.96 208.09 378.74 208.65 379.51 C 209.20 380.28 209.78 381.03 210.38 381.77 C 210.97 382.51 211.58 383.24 212.22 383.95 C 212.85 384.66 213.49 385.35 214.16 386.03 C 214.82 386.71 215.51 387.37 216.20 388.01 C 216.90 388.66 217.61 389.28 218.34 389.89 C 219.07 390.50 219.82 391.09 220.57 391.67 C 221.33 392.24 222.10 392.79 222.89 393.33 C 223.67 393.86 224.47 394.38 225.28 394.87 C 226.09 395.37 226.91 395.84 227.75 396.30 C 228.58 396.75 229.42 397.19 230.28 397.60 C 231.13 398.01 232.00 398.41 232.87 398.78 C 233.75 399.15 234.63 399.50 235.52 399.82 C 236.41 400.15 237.31 400.46 238.22 400.74 C 239.13 401.02 240.04 401.28 240.96 401.52 C 241.88 401.76 242.80 401.98 243.73 402.17 C 244.66 402.36 245.60 402.53 246.53 402.68 C 247.47 402.82 248.41 402.95 249.36 403.05 C 250.30 403.15 251.25 403.23 252.20 403.28 C 253.15 403.33 254.09 403.36 255.04 403.37 C 255.99 403.38 256.94 403.36 257.89 403.32 C 258.84 403.28 259.79 403.22 260.74 403.13 Z" fill="#000000" fill-rule="nonzero" node-id="46" stroke="none" target-height="123.37399" target-width="123.37201" target-x="193.79367" target-y="283.77768"></path><path d="M 157.38 723.61 C 224.78 724.01 292.25 722.64 359.63 723.72 C 356.23 744.77 354.32 765.96 351.83 787.11 L 341.99 866.75 C 341.18 872.65 340.47 878.56 339.87 884.48 L 178.02 884.50 C 174.20 845.97 168.04 807.56 162.99 769.16 C 161.01 754.08 158.19 738.80 157.38 723.61 Z" fill="#fefdfe" fill-rule="nonzero" node-id="48" stroke="none" target-height="161.85394" target-width="202.24602" target-x="157.385" target-y="722.642"></path><path d="M 316.89 813.65 C 317.47 813.80 317.25 813.73 317.82 813.92 C 318.95 814.32 319.56 814.32 319.97 815.56 C 320.85 818.25 320.32 837.71 319.18 840.32 C 318.17 840.25 318.00 840.21 317.09 839.67 C 315.23 835.56 315.60 818.28 316.89 813.65 Z" fill="#000000" fill-rule="nonzero" node-id="50" stroke="none" target-height="26.669006" target-width="5.6220093" target-x="315.229" target-y="813.653"></path><path d="M 312.79 733.15 C 313.94 733.27 314.44 733.37 315.34 734.11 C 316.89 738.23 316.63 750.46 315.45 754.77 C 314.61 754.70 313.88 754.55 313.06 754.36 C 312.71 753.88 312.62 753.82 312.39 753.18 C 310.96 749.24 311.36 737.12 312.79 733.15 Z" fill="#000000" fill-rule="nonzero" node-id="52" stroke="none" target-height="21.629028" target-width="5.932007" target-x="310.961" target-y="733.146"></path><path d="M 340.83 768.15 C 341.54 768.40 342.01 768.71 342.63 769.12 C 343.24 770.28 343.41 771.24 343.56 772.55 C 343.94 775.88 344.07 780.55 341.95 783.17 C 339.74 781.39 339.46 779.54 339.16 776.84 C 338.83 773.82 338.91 770.56 340.83 768.15 Z" fill="#000000" fill-rule="nonzero" node-id="54" stroke="none" target-height="15.019043" target-width="5.23999" target-x="338.827" target-y="768.152"></path><path d="M 283.36 760.13 C 283.95 760.33 284.53 760.66 285.09 760.93 C 285.56 761.59 285.82 762.15 285.97 762.95 C 286.55 766.07 286.67 771.03 284.85 773.73 C 284.32 773.38 283.85 773.09 283.38 772.64 C 282.21 771.51 281.97 768.98 281.87 767.43 C 281.73 765.05 281.72 761.96 283.36 760.13 Z" fill="#000000" fill-rule="nonzero" node-id="56" stroke="none" target-height="13.59906" target-width="4.949005" target-x="281.719" target-y="760.128"></path><path d="M 611.26 221.06 C 613.59 223.26 615.58 227.00 617.52 229.60 C 618.22 230.57 618.96 231.51 619.72 232.43 C 620.47 233.35 621.26 234.24 622.07 235.12 C 622.88 235.99 623.71 236.84 624.57 237.67 C 625.43 238.50 626.31 239.30 627.22 240.07 C 628.12 240.85 629.05 241.60 630.00 242.32 C 630.95 243.05 631.92 243.74 632.90 244.41 C 633.89 245.08 634.90 245.72 635.92 246.32 C 636.95 246.94 637.99 247.52 639.04 248.07 C 660.27 259.25 681.98 256.76 704.02 250.03 C 702.08 252.41 698.69 255.56 697.82 258.44 C 698.19 259.77 698.24 259.65 699.46 260.35 C 700.70 260.28 700.90 260.21 701.81 259.26 C 703.68 257.32 704.98 254.75 706.66 252.63 C 711.32 246.75 716.26 240.77 721.41 235.31 C 722.74 235.82 724.07 236.35 725.36 236.97 C 732.53 240.41 738.29 247.27 740.86 254.74 C 743.40 262.12 743.12 270.12 739.57 277.14 C 734.30 287.54 725.58 292.99 714.77 296.44 C 718.52 317.70 717.26 338.22 716.35 359.61 C 710.40 363.49 704.59 370.01 698.04 374.49 C 680.19 385.17 660.60 388.44 640.03 385.94 C 608.51 382.12 580.39 366.65 560.93 341.50 C 548.58 325.54 539.46 302.18 538.59 281.95 C 538.25 274.17 539.21 266.55 540.17 258.85 C 567.91 252.32 591.28 241.94 611.26 221.06 Z" fill="#fefdfe" fill-rule="nonzero" node-id="58" stroke="none" target-height="167.38098" target-width="205.14905" target-x="538.251" target-y="221.061"></path><path d="M 562.25 295.41 C 565.13 295.57 566.98 296.76 568.87 298.92 C 571.70 302.17 572.83 307.16 572.45 311.38 C 572.01 316.29 570.06 320.41 566.30 323.57 C 565.99 323.59 565.68 323.63 565.37 323.63 C 564.07 323.62 563.92 323.71 563.05 322.73 C 563.14 320.72 564.84 318.76 565.92 317.11 C 562.51 313.38 558.63 308.47 558.56 303.17 C 558.52 299.81 559.92 297.69 562.25 295.41 Z" fill="#000000" fill-rule="nonzero" node-id="60" stroke="none" target-height="28.29602" target-width="14.30603" target-x="558.522" target-y="295.412"></path><path d="M 583.84 286.42 C 586.59 286.41 588.10 286.57 590.16 288.56 C 593.20 291.52 594.57 296.06 594.48 300.23 C 594.40 303.86 593.37 305.96 590.76 308.43 C 590.43 308.44 590.09 308.47 589.76 308.48 C 587.88 308.53 586.43 307.74 585.13 306.42 C 581.87 303.12 580.47 297.75 580.63 293.22 C 580.75 290.21 581.62 288.42 583.84 286.42 Z" fill="#000000" fill-rule="nonzero" node-id="62" stroke="none" target-height="22.115997" target-width="14.105957" target-x="580.465" target-y="286.41"></path><path d="M 617.48 315.24 C 618.31 315.26 619.19 315.25 619.99 315.50 C 622.08 316.16 622.89 319.01 623.69 320.85 C 625.90 321.36 628.54 321.45 630.61 322.40 C 631.88 322.99 632.85 323.74 633.32 325.03 L 632.60 325.70 C 628.88 326.71 626.17 325.78 622.56 324.79 C 617.94 332.66 612.02 337.95 603.46 341.18 C 600.27 341.88 593.77 343.11 590.68 341.51 C 589.51 340.90 589.49 340.33 589.29 339.18 C 589.66 338.58 589.82 337.98 590.54 337.75 C 592.01 337.27 597.84 338.39 601.74 337.40 C 610.01 335.30 615.08 329.67 619.20 322.64 C 618.34 320.02 617.39 318.08 617.48 315.24 Z" fill="#000000" fill-rule="nonzero" node-id="64" stroke="none" target-height="27.873993" target-width="44.033997" target-x="589.286" target-y="315.238"></path><path d="M 601.47 288.42 C 603.38 288.75 604.74 289.19 606.18 290.53 C 608.98 293.12 610.45 296.75 610.45 300.53 C 610.45 303.64 609.53 305.32 607.39 307.50 C 606.69 307.55 605.96 307.59 605.26 307.52 C 603.66 307.37 602.69 306.62 601.66 305.46 C 599.05 302.49 598.07 298.28 598.35 294.40 C 598.55 291.51 599.29 290.29 601.47 288.42 Z" fill="#000000" fill-rule="nonzero" node-id="66" stroke="none" target-height="19.171997" target-width="12.373047" target-x="598.074" target-y="288.415"></path><path d="M 576.43 311.86 C 577.06 311.91 577.69 311.97 578.32 312.07 C 579.85 312.31 581.44 313.16 582.25 314.54 C 583.52 316.73 583.17 319.06 582.43 321.36 C 581.01 320.71 580.43 319.98 579.51 318.74 C 578.51 317.37 577.36 316.03 576.51 314.56 C 575.82 313.34 576.06 313.17 576.43 311.86 Z" fill="#000000" fill-rule="nonzero" node-id="68" stroke="none" target-height="9.497986" target-width="7.7039795" target-x="575.82" target-y="311.858"></path><path d="M 140.24 655.50 C 195.99 654.74 251.76 656.05 307.52 655.41 C 310.43 659.15 313.69 662.94 318.62 663.76 C 324.41 664.72 329.15 661.11 333.46 657.84 C 339.48 657.60 345.48 656.66 351.49 656.22 C 359.35 655.63 367.26 655.62 375.13 655.74 C 375.31 668.64 375.04 681.57 374.97 694.47 L 374.94 703.38 C 341.30 703.88 307.58 703.60 273.94 703.55 L 140.03 703.55 C 139.78 687.63 139.57 671.41 140.24 655.50 Z" fill="#fefdfe" fill-rule="nonzero" node-id="70" stroke="none" target-height="49.147034" target-width="235.738" target-x="139.573" target-y="654.738"></path><path d="M 315.92 667.12 C 316.75 667.39 317.18 667.60 317.89 668.06 C 318.25 668.99 318.40 669.67 318.49 670.67 C 318.84 674.87 319.50 691.81 317.32 694.44 C 317.05 694.37 316.78 694.31 316.53 694.22 C 315.50 693.85 315.21 693.64 314.87 692.59 C 313.39 688.02 313.96 671.46 315.92 667.12 Z" fill="#000000" fill-rule="nonzero" node-id="72" stroke="none" target-height="27.319946" target-width="6.1049805" target-x="313.39" target-y="667.122"></path><path d="M 295.27 679.35 C 296.48 679.35 297.54 679.20 298.54 680.00 C 300.72 683.92 299.46 690.30 299.04 694.63 C 297.97 694.62 297.27 694.56 296.29 694.14 C 294.02 690.67 295.01 683.42 295.27 679.35 Z" fill="#000000" fill-rule="nonzero" node-id="74" stroke="none" target-height="15.434998" target-width="6.6950073" target-x="294.025" target-y="679.196"></path><path d="M 335.95 682.50 L 337.67 683.12 C 339.02 684.99 338.79 688.44 338.66 690.65 L 338.60 691.55 C 338.49 693.42 338.64 694.87 337.32 696.32 C 336.65 696.07 335.99 695.75 335.33 695.45 C 334.60 694.33 334.49 693.23 334.34 691.92 C 334.00 688.84 333.99 684.96 335.95 682.50 Z" fill="#000000" fill-rule="nonzero" node-id="76" stroke="none" target-height="13.811951" target-width="5.024994" target-x="333.992" target-y="682.504"></path><path d="M 734.35 376.86 C 737.85 378.79 741.40 382.37 744.30 385.09 C 746.39 387.09 748.44 389.13 750.44 391.21 C 752.44 393.30 754.39 395.43 756.30 397.60 C 758.21 399.77 760.07 401.99 761.88 404.24 C 763.68 406.49 765.44 408.79 767.15 411.12 C 768.86 413.45 770.52 415.82 772.12 418.22 C 773.73 420.63 775.28 423.06 776.77 425.54 C 778.27 428.01 779.71 430.51 781.10 433.05 C 782.48 435.59 783.81 438.15 785.09 440.75 C 779.95 448.62 776.48 457.50 771.04 465.25 C 769.57 463.76 768.06 462.30 766.52 460.88 C 764.98 459.45 763.40 458.07 761.79 456.72 C 760.18 455.37 758.54 454.06 756.87 452.79 C 755.20 451.52 753.50 450.29 751.77 449.10 C 750.04 447.91 748.28 446.77 746.50 445.66 C 744.71 444.56 742.90 443.49 741.06 442.47 C 739.23 441.46 737.37 440.48 735.49 439.55 C 733.61 438.62 731.70 437.74 729.78 436.90 C 732.18 432.38 739.35 421.75 740.19 417.65 C 740.45 416.39 740.63 415.28 739.92 414.14 L 738.94 414.26 C 734.76 418.28 729.99 428.13 726.83 433.29 C 722.46 440.46 717.83 447.46 712.92 454.27 C 703.68 466.55 693.95 478.91 682.45 489.16 C 666.03 489.23 649.62 489.21 633.20 489.11 C 635.89 479.79 637.64 470.08 639.76 460.61 L 650.79 412.82 C 683.35 413.93 711.08 398.41 734.35 376.86 Z" fill="#fefdfe" fill-rule="nonzero" node-id="78" stroke="none" target-height="112.367676" target-width="151.88501" target-x="633.203" target-y="376.861"></path><path d="M 350.47 485.28 C 351.61 485.59 351.85 485.62 352.66 486.46 C 352.29 487.97 351.64 488.50 350.47 489.49 C 344.46 494.57 337.68 498.85 331.54 503.78 C 320.53 512.62 309.31 521.16 298.17 529.83 C 291.09 535.34 284.14 541.22 276.78 546.34 C 276.24 546.33 275.79 546.13 275.29 545.96 C 274.40 544.85 274.36 544.92 274.45 543.51 C 279.33 538.48 289.41 532.12 295.31 527.53 C 313.59 513.29 331.58 498.71 350.47 485.28 Z" fill="#000000" fill-rule="nonzero" node-id="80" stroke="none" target-height="61.054016" target-width="78.30499" target-x="274.355" target-y="485.284"></path><path d="M 727.27 440.36 C 742.61 447.20 756.99 456.36 768.57 468.65 C 763.81 477.14 756.70 485.29 750.29 492.59 C 726.74 519.43 702.10 539.56 671.36 557.90 C 667.84 560.00 641.89 574.07 640.99 575.04 C 639.56 576.58 640.24 579.09 640.51 580.94 C 634.66 580.63 628.75 580.64 622.89 580.52 C 623.23 578.44 623.60 576.36 623.99 574.29 C 629.77 573.02 633.91 570.59 638.89 567.53 C 641.31 566.31 645.08 564.97 646.41 562.52 C 646.25 561.25 646.04 561.24 645.10 560.35 C 640.43 559.40 631.41 569.55 625.48 569.85 C 624.21 569.92 623.08 569.66 622.14 568.74 C 620.18 566.81 620.20 563.38 619.92 560.81 C 625.23 557.13 631.96 555.01 636.67 550.59 C 636.84 549.38 636.70 549.31 636.10 548.23 C 635.92 548.21 635.75 548.16 635.57 548.15 C 631.27 547.97 619.17 555.81 615.59 558.64 C 613.31 554.94 612.22 551.64 611.39 547.42 C 617.63 536.33 641.12 526.53 652.48 518.95 C 660.76 513.44 668.79 507.19 676.30 500.68 C 696.14 483.48 713.17 462.43 727.27 440.36 Z" fill="#fefdfe" fill-rule="nonzero" node-id="82" stroke="none" target-height="140.581" target-width="157.17389" target-x="611.395" target-y="440.359"></path><path d="M 678.79 584.74 L 831.65 584.55 C 835.03 596.92 838.43 609.38 841.19 621.89 C 828.78 622.21 816.37 622.32 803.96 622.23 L 647.10 622.33 C 644.76 619.98 642.58 617.44 640.34 614.98 C 642.83 613.25 645.24 611.48 647.41 609.35 C 654.32 602.61 656.58 594.65 656.63 585.16 C 664.00 584.84 671.41 584.87 678.79 584.74 Z" fill="#fefdfe" fill-rule="nonzero" node-id="84" stroke="none" target-height="37.77997" target-width="200.84705" target-x="640.344" target-y="584.552"></path><path d="M 712.85 535.76 C 725.59 535.29 738.41 535.55 751.17 535.57 C 773.83 535.66 796.48 535.63 819.14 535.47 C 823.98 550.10 827.42 565.52 830.92 580.52 C 811.37 580.72 791.80 580.51 772.25 580.49 C 733.48 580.41 694.71 580.54 655.94 580.88 L 654.92 572.59 C 666.47 565.47 678.19 558.71 689.52 551.22 C 694.03 548.24 708.95 536.11 712.85 535.76 Z" fill="#fefdfe" fill-rule="nonzero" node-id="86" stroke="none" target-height="45.59497" target-width="176.005" target-x="654.916" target-y="535.286"></path><path d="M 788.63 493.25 C 794.53 493.08 800.45 493.05 806.35 492.96 C 810.94 503.04 815.68 520.67 818.12 531.66 C 794.09 532.46 769.92 531.86 745.87 531.78 C 736.04 531.85 726.22 531.97 716.39 531.62 C 721.61 526.72 727.39 522.41 732.61 517.48 C 740.56 509.98 747.59 501.74 754.74 493.49 C 766.04 493.56 777.33 493.49 788.63 493.25 Z" fill="#fefdfe" fill-rule="nonzero" node-id="88" stroke="none" target-height="39.498016" target-width="101.724" target-x="716.393" target-y="492.957"></path><path d="M 642.60 424.03 C 643.49 423.90 643.05 423.84 643.90 424.26 C 642.75 431.93 640.46 439.65 638.67 447.22 L 631.11 480.29 C 624.10 482.72 616.88 484.69 609.78 486.81 L 608.56 480.39 C 605.71 466.73 602.66 453.10 599.44 439.52 C 612.01 433.93 629.43 428.03 642.60 424.03 Z" fill="#fefdfe" fill-rule="nonzero" node-id="90" stroke="none" target-height="62.967987" target-width="44.463013" target-x="599.436" target-y="423.83902"></path><path d="M 561.37 515.18 C 565.07 514.62 569.47 514.75 573.19 515.27 C 589.34 517.51 599.21 530.24 608.38 542.39 C 608.01 544.48 607.58 546.65 607.57 548.77 C 607.54 555.00 611.26 558.79 615.41 562.86 C 616.21 567.15 616.89 569.14 620.09 572.34 L 619.27 579.29 L 613.64 579.79 L 609.44 579.94 C 597.34 564.18 582.96 549.83 569.49 535.22 C 564.09 529.35 558.00 523.57 553.41 517.05 C 556.09 516.07 558.55 515.53 561.37 515.18 Z" fill="#fefdfe" fill-rule="nonzero" node-id="92" stroke="none" target-height="65.31604" target-width="66.68097" target-x="553.408" target-y="514.623"></path><path d="M 717.42 363.23 C 722.48 365.53 727.85 370.17 731.85 374.04 C 727.26 377.19 723.18 381.29 718.73 384.67 C 703.27 396.45 685.46 405.75 666.03 408.32 C 661.38 408.83 656.78 409.01 652.12 409.14 C 653.60 403.07 655.00 396.97 656.29 390.85 C 658.03 390.75 659.76 390.62 661.50 390.46 C 682.03 388.42 704.07 379.56 717.42 363.23 Z" fill="#fefdfe" fill-rule="nonzero" node-id="94" stroke="none" target-height="45.908966" target-width="79.731995" target-x="652.116" target-y="363.22903"></path><path d="M 787.59 445.30 C 793.39 453.93 801.71 478.21 805.47 489.11 C 795.75 489.24 786.03 489.30 776.31 489.30 L 758.11 489.44 C 764.64 481.18 771.11 472.84 776.72 463.92 C 780.54 457.83 783.69 451.33 787.59 445.30 Z" fill="#fefdfe" fill-rule="nonzero" node-id="96" stroke="none" target-height="44.14099" target-width="47.361023" target-x="758.112" target-y="445.295"></path><path d="M 627.99 485.56 C 628.45 485.46 628.87 485.52 629.34 485.55 C 629.76 488.15 621.16 528.19 619.61 532.76 C 614.12 524.10 608.29 516.98 600.29 510.56 C 593.14 505.15 585.34 502.28 576.66 500.27 C 593.92 496.11 610.97 490.64 627.99 485.56 Z" fill="#fefdfe" fill-rule="nonzero" node-id="98" stroke="none" target-height="47.294983" target-width="53.104004" target-x="576.66" target-y="485.461"></path><path d="M 632.26 492.95 C 647.69 493.36 663.24 493.07 678.67 492.96 C 671.20 500.61 662.17 506.78 653.52 512.99 C 644.22 519.40 634.37 524.92 624.60 530.59 C 626.90 517.98 629.32 505.44 632.26 492.95 Z" fill="#fefdfe" fill-rule="nonzero" node-id="100" stroke="none" target-height="37.643036" target-width="54.066956" target-x="624.603" target-y="492.94998"></path><path d="M 729.47 657.09 C 729.97 657.26 730.50 657.32 730.86 657.74 C 731.71 658.74 731.97 660.66 732.20 661.95 C 735.95 683.40 738.91 705.13 742.11 726.68 L 752.63 795.33 L 757.15 823.39 C 758.11 829.33 759.93 836.39 759.37 842.37 C 758.89 842.38 758.39 842.27 757.91 842.21 C 756.98 840.75 756.74 839.17 756.44 837.50 C 755.34 831.38 754.70 825.16 753.72 819.02 L 741.99 743.02 C 738.83 724.22 735.90 705.38 733.19 686.51 C 731.76 676.96 729.43 666.73 729.47 657.09 Z" fill="#fefdfe" fill-rule="nonzero" node-id="102" stroke="none" target-height="185.29303" target-width="30.494019" target-x="729.432" target-y="657.086"></path><path d="M 622.13 584.48 L 641.85 584.50 C 642.04 591.31 641.02 595.59 636.30 600.64 C 634.08 602.36 631.88 603.50 629.27 604.50 C 626.86 600.60 623.55 597.15 620.55 593.70 C 621.25 590.66 621.66 587.56 622.13 584.48 Z" fill="#fefdfe" fill-rule="nonzero" node-id="104" stroke="none" target-height="20.013977" target-width="21.488037" target-x="620.548" target-y="584.482"></path><path d="M 665.85 668.59 C 666.34 668.79 666.87 668.88 667.19 669.33 C 668.73 671.43 674.74 727.92 674.37 733.93 C 673.70 733.74 673.04 733.47 672.38 733.23 C 670.98 729.91 665.12 672.20 665.85 668.59 Z" fill="#fefdfe" fill-rule="nonzero" node-id="106" stroke="none" target-height="65.341" target-width="9.625" target-x="665.117" target-y="668.589"></path><path d="M 816.40 681.38 C 816.98 681.60 817.58 681.96 818.14 682.25 C 820.38 685.69 821.91 695.73 821.16 699.82 L 819.32 699.47 C 819.23 699.31 819.11 699.17 819.03 699.01 C 817.44 695.97 815.57 684.78 816.40 681.38 Z" fill="#fefdfe" fill-rule="nonzero" node-id="108" stroke="none" target-height="18.432068" target-width="6.340027" target-x="815.573" target-y="681.384"></path><path d="M 673.86 741.63 L 675.48 742.32 C 677.49 746.26 677.99 755.51 677.17 759.86 C 676.62 759.61 676.17 759.26 675.67 758.91 C 673.76 754.70 673.49 746.28 673.86 741.63 Z" fill="#fefdfe" fill-rule="nonzero" node-id="110" stroke="none" target-height="18.230042" target-width="4.5" target-x="673.49" target-y="741.63"></path><path d="M 812.87 655.75 C 813.55 656.08 814.19 656.21 814.58 656.90 C 816.49 660.24 817.32 668.23 816.66 671.90 C 816.06 671.70 815.39 671.66 815.02 671.10 C 812.91 667.82 812.06 659.53 812.87 655.75 Z" fill="#fefdfe" fill-rule="nonzero" node-id="112" stroke="none" target-height="16.152039" target-width="5.26001" target-x="812.061" target-y="655.746"></path><path d="M 612.78 583.93 C 614.45 583.94 616.02 583.84 617.61 584.45 C 618.11 586.09 617.57 587.11 617.14 588.75 L 616.30 588.70 L 612.78 583.93 Z" fill="#fefdfe" fill-rule="nonzero" node-id="114" stroke="none" target-height="4.9110107" target-width="5.3359985" target-x="612.778" target-y="583.836"></path><path d="M 362.34 877.01 C 376.23 876.97 496.00 879.12 500.56 880.98 L 500.91 881.99 L 500.38 883.02 C 463.07 883.09 425.56 881.97 388.25 880.84 C 382.60 880.67 367.53 881.18 363.38 879.81 C 362.31 878.79 362.49 878.52 362.34 877.01 Z" fill="#000000" fill-rule="nonzero" node-id="116" stroke="none" target-height="6.1220703" target-width="138.59598" target-x="362.31104" target-y="876.968"></path><path d="M 379.32 762.26 C 379.64 762.30 379.97 762.31 380.29 762.36 C 381.18 762.50 381.52 762.54 382.05 763.28 C 384.10 766.16 385.84 775.14 385.30 778.63 C 384.96 778.62 384.59 778.61 384.25 778.56 C 383.39 778.42 383.00 778.44 382.46 777.74 C 380.31 774.91 378.77 765.75 379.32 762.26 Z" fill="#000000" fill-rule="nonzero" node-id="118" stroke="none" target-height="16.36499" target-width="7.063019" target-x="378.774" target-y="762.265"></path><path d="M 381.45 829.18 C 381.69 829.29 381.94 829.39 382.17 829.53 C 383.58 830.35 384.19 833.12 384.49 834.62 C 384.94 836.86 385.18 838.19 383.92 840.12 C 382.07 838.79 381.28 837.35 380.71 835.12 C 380.10 832.76 380.15 831.24 381.45 829.18 Z" fill="#000000" fill-rule="nonzero" node-id="120" stroke="none" target-height="10.937927" target-width="5.078003" target-x="380.1" target-y="829.17706"></path></svg>