<?xml version="1.0" standalone="no"?><!DOCTYPE svg PUBLIC "-//W3C//DTD SVG 1.1//EN" "http://www.w3.org/Graphics/SVG/1.1/DTD/svg11.dtd"><svg height="1024" node-id="1" sillyvg="true" template-height="1024" template-width="1024" version="1.1" viewBox="0 0 1024 1024" width="1024" xmlns="http://www.w3.org/2000/svg" xmlns:xlink="http://www.w3.org/1999/xlink"><defs node-id="34"></defs><path d="M 514.34 468.72 C 525.30 468.72 536.32 469.42 546.92 472.40 C 558.65 475.71 571.18 482.73 577.16 493.77 C 584.94 508.13 577.24 516.35 573.43 529.40 L 573.23 530.08 C 585.92 539.16 605.81 544.40 614.27 558.38 C 621.59 570.44 612.80 578.67 610.17 589.83 C 610.13 589.99 610.10 590.16 610.06 590.33 C 615.95 596.14 622.35 601.34 627.39 607.96 C 634.20 616.89 637.37 627.36 635.78 638.57 C 633.63 653.82 623.84 666.76 611.76 675.72 L 610.44 682.10 C 615.41 695.50 622.27 708.43 628.64 721.22 C 634.89 733.71 640.86 746.33 646.54 759.08 C 651.74 770.63 657.54 782.63 659.10 795.32 C 660.42 805.99 658.60 817.15 651.76 825.72 C 642.14 837.79 627.30 840.87 612.81 842.59 C 613.54 853.36 616.07 874.24 614.32 884.01 C 612.82 892.36 614.06 901.68 614.45 910.17 C 615.09 923.28 615.66 936.39 616.16 949.51 C 566.75 950.28 517.18 949.52 467.75 949.52 L 397.89 949.51 C 400.06 930.90 402.44 912.25 403.88 893.56 C 404.15 890.18 402.82 887.07 402.90 883.65 C 403.09 874.85 404.55 865.92 405.82 857.22 C 404.79 857.42 403.77 857.61 402.74 857.78 C 390.71 859.81 378.62 857.72 368.62 850.54 C 358.39 843.18 352.28 830.49 350.42 818.24 C 344.85 781.66 370.65 745.82 391.05 717.89 C 381.34 715.29 372.14 710.16 366.17 701.86 C 359.31 692.31 359.57 681.42 361.45 670.30 C 354.85 665.31 348.88 659.85 344.26 652.91 C 338.40 644.11 334.98 633.43 335.72 622.81 C 338.24 586.52 370.59 584.35 381.06 561.51 C 385.29 552.29 379.01 539.89 381.42 528.78 C 385.20 511.32 397.21 497.18 412.01 487.74 C 433.11 474.27 460.34 470.07 484.69 475.39 C 494.47 471.27 503.76 469.34 514.34 468.72 Z" fill="#010101" fill-rule="nonzero" node-id="36" stroke="none" target-height="481.567" target-width="325.44" target-x="334.979" target-y="468.718"></path><path d="M 552.00 678.96 C 557.17 678.94 570.27 685.41 574.01 689.06 C 584.64 699.43 601.69 799.10 604.48 820.02 C 607.32 840.15 609.14 860.38 609.93 880.70 C 598.73 883.21 586.98 884.45 575.60 885.98 C 537.76 891.06 500.20 893.83 462.03 891.08 C 443.73 890.17 425.51 888.40 407.38 885.79 C 407.79 875.81 409.53 865.53 410.63 855.57 C 416.63 852.75 422.12 849.24 426.78 844.50 C 430.29 840.93 432.76 837.07 434.56 832.40 C 436.70 826.82 437.82 820.76 439.47 815.02 C 444.41 797.78 448.79 780.50 453.34 763.16 C 458.88 742.07 466.26 720.36 470.33 699.02 C 471.37 693.54 471.52 688.06 471.49 682.49 C 495.64 689.76 529.10 690.74 552.00 678.96 Z" fill="#fefcfe" fill-rule="nonzero" node-id="38" stroke="none" target-height="214.88904" target-width="202.55798" target-x="407.377" target-y="678.936"></path><path d="M 501.02 503.09 C 504.79 502.79 508.62 503.01 512.41 503.12 C 515.68 507.62 518.23 512.82 520.87 517.71 C 527.49 529.99 533.44 543.06 540.77 554.90 C 537.32 555.70 533.53 556.50 530.41 558.25 C 528.18 559.50 526.03 561.32 525.42 563.91 C 525.07 565.44 525.47 566.75 526.36 568.00 C 528.08 570.45 531.94 571.32 534.70 571.63 C 540.98 572.33 549.51 571.55 554.46 567.36 C 556.25 565.85 557.58 563.80 557.75 561.42 C 557.76 561.21 557.76 561.01 557.76 560.80 C 557.75 560.60 557.74 560.39 557.71 560.19 C 557.68 559.98 557.64 559.78 557.60 559.58 C 557.55 559.38 557.49 559.18 557.42 558.99 C 557.36 558.79 557.28 558.60 557.19 558.42 C 557.10 558.23 557.00 558.05 556.90 557.87 C 556.79 557.69 556.68 557.52 556.55 557.36 C 556.43 557.19 556.30 557.04 556.16 556.88 C 553.30 553.81 549.31 554.05 545.47 554.04 C 543.14 547.77 539.41 541.78 536.25 535.87 C 530.48 524.94 524.56 514.08 518.51 503.30 C 528.79 505.54 539.60 510.05 547.61 516.98 C 545.93 518.31 544.13 519.43 542.40 520.67 C 541.01 521.66 540.33 522.62 540.02 524.33 C 540.41 525.64 540.38 525.69 541.50 526.48 C 545.92 527.08 550.23 524.32 554.42 523.10 L 555.00 522.93 C 559.36 526.64 563.31 531.12 566.92 535.56 C 577.58 548.67 591.30 573.57 589.26 591.10 C 587.75 604.16 577.42 614.91 567.53 622.62 C 559.20 628.96 549.60 632.81 540.44 637.68 C 538.38 645.14 536.15 661.20 537.73 668.45 C 538.67 672.75 542.20 674.51 545.68 676.58 C 544.56 677.12 543.42 677.62 542.26 678.08 C 523.23 685.35 488.58 684.65 470.15 676.31 C 472.81 668.43 474.45 646.72 473.06 638.73 C 472.90 637.82 472.63 636.73 472.08 635.97 C 469.87 632.92 459.20 627.74 455.45 625.16 C 455.12 621.58 454.70 618.05 454.14 614.49 C 452.98 613.14 451.84 611.66 450.24 610.80 C 445.29 608.13 436.95 608.85 429.14 604.30 C 423.80 601.18 418.40 595.42 417.00 589.26 C 416.48 586.97 416.57 584.66 417.57 582.51 C 422.20 572.62 432.96 575.84 439.96 569.31 C 459.27 551.29 478.22 528.39 492.20 505.98 C 495.09 504.86 498.05 503.98 501.02 503.09 Z" fill="#fefcfe" fill-rule="nonzero" node-id="40" stroke="none" target-height="182.556" target-width="174.81601" target-x="416.48" target-y="502.79"></path><path d="M 492.14 523.09 C 493.03 522.96 493.92 522.87 494.82 522.90 C 496.80 522.98 498.09 523.58 499.41 525.03 C 499.76 526.54 499.85 527.30 498.93 528.70 C 497.10 531.45 494.52 531.62 491.53 532.28 C 490.56 532.64 489.56 533.02 488.55 533.25 C 487.28 533.54 486.18 533.51 485.05 532.85 C 484.69 532.00 484.47 531.85 484.68 530.90 C 485.51 527.09 489.04 524.91 492.14 523.09 Z" fill="#010101" fill-rule="nonzero" node-id="42" stroke="none" target-height="10.671997" target-width="15.378998" target-x="484.473" target-y="522.868"></path><path d="M 545.89 530.50 C 546.34 530.47 546.78 530.45 547.22 530.44 C 549.54 530.38 550.97 531.26 552.58 532.87 C 553.85 534.13 554.57 535.99 554.38 537.79 C 554.16 539.92 552.70 540.88 551.09 541.97 C 550.28 542.15 549.31 542.42 548.49 542.41 C 547.18 542.39 545.90 541.68 544.98 540.78 C 543.63 539.46 543.12 537.55 543.22 535.71 C 543.34 533.39 544.26 532.07 545.89 530.50 Z" fill="#010101" fill-rule="nonzero" node-id="44" stroke="none" target-height="12.049011" target-width="11.447998" target-x="543.125" target-y="530.376"></path><path d="M 492.84 543.00 C 493.08 542.97 493.31 542.94 493.55 542.93 C 495.75 542.79 497.32 543.15 498.97 544.66 C 500.15 545.74 500.85 547.05 500.82 548.70 C 500.78 550.89 499.63 551.90 498.07 553.16 C 497.92 553.19 497.77 553.23 497.62 553.25 C 495.74 553.51 493.85 553.08 492.37 551.85 C 492.22 551.73 492.08 551.59 491.94 551.46 C 491.80 551.32 491.67 551.17 491.55 551.01 C 491.43 550.86 491.32 550.70 491.22 550.54 C 491.11 550.37 491.02 550.20 490.93 550.02 C 490.85 549.85 490.77 549.67 490.71 549.48 C 490.64 549.30 490.58 549.11 490.54 548.92 C 490.49 548.73 490.46 548.54 490.43 548.35 C 490.41 548.15 490.39 547.96 490.39 547.76 C 490.35 545.52 491.32 544.44 492.84 543.00 Z" fill="#010101" fill-rule="nonzero" node-id="46" stroke="none" target-height="10.723022" target-width="10.507996" target-x="490.346" target-y="542.792"></path><path d="M 426.97 580.31 C 427.52 580.46 428.07 580.60 428.61 580.79 C 432.54 582.14 439.33 585.00 441.27 588.80 C 441.26 590.39 440.93 590.67 440.08 591.97 C 435.51 590.47 431.55 587.25 427.07 585.38 C 425.97 584.92 425.78 584.92 424.98 583.98 C 425.07 582.52 426.13 581.45 426.97 580.31 Z" fill="#010101" fill-rule="nonzero" node-id="48" stroke="none" target-height="11.656006" target-width="16.297974" target-x="424.976" target-y="580.313"></path><path d="M 441.70 617.40 C 444.22 620.49 439.78 651.13 442.93 659.95 C 444.98 665.67 449.07 669.12 452.41 673.91 C 454.04 676.26 455.38 679.09 457.22 681.25 C 458.00 682.16 458.07 682.37 459.30 682.46 C 460.34 681.79 461.01 681.46 461.51 680.28 C 461.26 676.66 458.04 673.27 455.95 670.49 C 456.34 667.96 456.44 665.40 456.60 662.85 C 459.67 666.18 462.46 669.72 464.22 673.93 C 466.72 679.93 466.87 686.48 466.08 692.85 C 465.06 701.06 462.67 709.14 460.60 717.14 L 449.51 758.49 L 436.88 805.98 C 434.53 814.62 432.64 823.79 429.20 832.07 C 424.90 842.41 415.36 847.63 405.51 851.63 C 399.01 853.49 392.62 854.38 385.93 852.91 C 375.85 850.71 367.68 844.30 362.13 835.78 C 364.43 824.57 368.81 813.97 373.64 803.64 C 385.70 777.83 401.54 753.29 416.16 728.83 C 421.08 720.60 432.20 704.43 434.68 696.18 C 436.55 689.94 432.16 682.41 430.66 676.37 C 429.80 672.90 429.33 669.10 429.43 665.53 C 429.86 648.68 436.53 633.14 441.70 617.40 Z" fill="#fefcfe" fill-rule="nonzero" node-id="50" stroke="none" target-height="236.979" target-width="104.73599" target-x="362.134" target-y="617.396"></path><path d="M 586.52 613.74 C 587.43 613.82 588.27 614.00 589.16 614.21 C 591.39 616.20 592.74 619.49 593.76 622.25 C 597.55 632.49 610.26 672.42 606.23 680.98 C 605.76 681.97 605.34 682.53 605.60 683.67 C 606.92 689.39 611.21 696.70 613.68 702.16 C 621.88 720.28 631.14 737.95 639.49 756.02 C 645.27 768.54 652.27 782.19 654.11 795.94 C 655.33 805.11 653.74 815.04 647.87 822.45 C 639.09 833.52 625.32 835.68 612.17 837.17 C 610.99 828.43 609.91 819.71 608.62 810.99 C 603.67 781.64 598.49 752.24 591.31 723.34 C 588.96 713.91 586.83 703.86 583.17 694.83 C 577.45 680.73 568.05 679.70 555.63 674.42 L 555.07 674.18 C 553.27 669.85 552.09 665.35 551.08 660.78 C 549.96 655.77 546.49 643.13 549.65 638.79 C 550.47 637.67 551.43 637.25 552.75 636.97 C 560.05 638.42 563.56 656.90 570.54 662.22 C 573.91 664.79 578.26 666.20 582.50 665.49 C 585.72 664.94 590.12 662.53 591.86 659.68 C 596.27 652.46 588.03 629.03 586.16 620.45 C 585.58 617.80 584.98 616.16 586.52 613.74 Z" fill="#fefcfe" fill-rule="nonzero" node-id="52" stroke="none" target-height="223.422" target-width="108.84204" target-x="546.488" target-y="613.744"></path><path d="M 426.79 684.35 C 429.02 685.87 429.79 691.36 430.41 693.84 C 426.24 704.65 416.20 719.07 409.98 729.48 C 390.18 762.58 371.58 790.99 358.45 827.70 C 355.08 821.88 354.59 813.35 354.87 806.79 C 356.51 768.26 399.00 710.11 426.79 684.35 Z" fill="#fefcfe" fill-rule="nonzero" node-id="54" stroke="none" target-height="143.34796" target-width="75.81702" target-x="354.59" target-y="684.348"></path><path d="M 581.37 618.03 C 582.84 620.87 589.36 653.56 588.28 656.23 C 587.04 659.31 583.20 660.21 580.37 661.05 C 576.96 660.19 574.05 658.74 571.06 656.96 C 565.81 649.98 566.19 643.17 558.88 635.00 C 566.93 629.95 574.09 624.10 581.37 618.03 Z" fill="#fefcfe" fill-rule="nonzero" node-id="56" stroke="none" target-height="43.02002" target-width="30.480042" target-x="558.881" target-y="618.029"></path><path d="M 457.07 478.20 C 465.63 477.32 473.89 477.98 482.14 480.41 C 482.28 482.09 482.80 484.05 481.71 485.38 C 478.40 485.54 474.80 484.38 471.42 484.19 C 445.74 482.76 420.63 490.98 401.47 508.15 C 396.17 512.93 392.22 518.32 388.14 524.12 C 390.82 517.00 394.27 510.72 399.25 504.93 C 414.00 487.80 435.05 479.87 457.07 478.20 Z" fill="#fefcfe" fill-rule="nonzero" node-id="58" stroke="none" target-height="46.79898" target-width="94.65399" target-x="388.144" target-y="477.324"></path><path d="M 445.45 613.54 C 446.98 613.94 447.87 614.18 448.87 615.52 C 450.11 617.17 450.35 619.71 450.53 621.69 C 451.07 627.76 451.11 657.68 450.17 662.66 C 440.81 646.46 451.51 629.57 445.45 613.54 Z" fill="#fefcfe" fill-rule="nonzero" node-id="60" stroke="none" target-height="49.123962" target-width="10.709015" target-x="440.805" target-y="613.538"></path><path d="M 548.48 558.70 C 549.80 558.79 551.21 558.82 552.28 559.71 C 552.83 560.17 552.91 560.55 553.00 561.22 C 552.74 562.10 552.52 562.60 551.87 563.30 C 548.14 567.32 540.10 567.11 535.05 567.16 C 534.16 566.94 533.10 566.77 532.27 566.39 C 531.04 565.83 530.92 565.63 530.57 564.44 C 530.66 564.28 530.73 564.10 530.85 563.95 C 533.59 560.34 544.18 559.01 548.48 558.70 Z" fill="#fefcfe" fill-rule="nonzero" node-id="62" stroke="none" target-height="8.619995" target-width="22.432007" target-x="530.566" target-y="558.7"></path><path d="M 510.51 73.76 C 546.83 71.97 589.58 84.63 619.00 105.86 C 638.43 119.89 655.78 140.82 659.64 165.09 C 662.82 185.10 657.22 204.32 645.44 220.59 C 626.48 246.77 594.25 264.00 563.37 272.03 C 552.72 274.80 541.81 276.32 530.95 278.05 C 528.54 288.42 521.44 341.93 518.65 346.57 C 517.67 348.21 515.16 348.53 513.48 348.88 C 512.46 348.50 511.47 348.13 510.58 347.48 C 509.71 346.83 509.35 346.26 509.02 345.21 C 507.04 338.94 506.78 331.05 505.91 324.50 L 500.07 278.69 C 491.55 276.77 482.49 276.41 473.86 274.71 C 445.52 269.11 414.19 256.87 392.95 236.85 C 376.83 221.66 364.46 201.12 363.91 178.49 C 363.35 155.84 373.68 135.52 389.15 119.44 C 420.73 86.62 466.36 74.48 510.51 73.76 Z M 503.79 274.76 C 506.89 291.04 508.36 307.70 510.45 324.14 C 511.01 328.51 511.78 339.59 513.32 343.07 C 513.47 343.40 513.83 343.60 514.08 343.87 L 514.59 343.96 C 517.99 337.34 522.73 298.58 524.30 288.77 C 524.90 285.02 525.16 279.28 526.87 275.90 C 527.60 274.46 528.16 274.45 529.64 273.98 C 534.53 272.41 539.95 272.01 545.02 271.21 C 549.87 270.42 554.68 269.41 559.44 268.17 C 592.42 259.89 631.52 239.73 647.67 208.51 C 656.40 191.64 658.68 175.51 652.87 157.32 C 644.47 131.02 622.20 110.81 598.13 98.55 C 596.42 97.68 594.70 96.83 592.97 96.01 C 591.24 95.20 589.49 94.41 587.73 93.64 C 585.98 92.88 584.21 92.14 582.43 91.43 C 580.65 90.72 578.86 90.04 577.06 89.39 C 575.26 88.73 573.44 88.11 571.62 87.51 C 569.80 86.91 567.98 86.34 566.14 85.80 C 564.30 85.26 562.45 84.74 560.60 84.26 C 558.75 83.77 556.88 83.32 555.02 82.89 C 553.15 82.46 551.27 82.06 549.39 81.69 C 547.51 81.32 545.63 80.98 543.74 80.67 C 541.85 80.36 539.95 80.08 538.05 79.82 C 536.15 79.57 534.25 79.35 532.35 79.15 C 530.44 78.96 528.53 78.79 526.62 78.66 C 524.71 78.52 522.79 78.42 520.88 78.34 C 518.97 78.26 517.05 78.22 515.13 78.20 C 513.22 78.18 511.30 78.19 509.39 78.24 C 466.29 79.97 421.36 91.46 391.00 124.32 C 377.72 138.70 367.30 158.76 368.17 178.80 C 369.11 200.20 382.01 220.34 397.48 234.37 C 419.56 254.40 450.28 265.84 479.27 271.21 C 487.36 272.71 495.80 273.05 503.79 274.76 Z" fill="#010101" fill-rule="nonzero" node-id="64" stroke="none" target-height="276.91568" target-width="299.467" target-x="363.35" target-y="71.9693"></path><path d="M 497.78 102.64 C 508.60 101.75 517.09 109.38 527.57 109.53 C 534.14 109.63 542.30 105.38 548.45 108.90 C 549.65 109.59 550.78 110.35 551.15 111.74 C 551.88 114.49 552.00 117.53 551.88 120.36 C 551.44 130.17 544.91 198.06 542.03 203.36 C 531.71 203.63 521.03 202.61 510.69 202.19 C 503.33 201.89 494.27 202.49 487.12 200.81 C 486.74 200.24 486.50 199.72 486.35 199.04 C 484.57 190.81 485.40 170.25 485.30 161.06 C 485.14 146.47 484.08 127.88 485.07 113.71 C 485.21 111.73 485.37 109.60 486.51 107.92 C 488.94 104.33 493.78 103.25 497.78 102.64 Z" fill="#010101" fill-rule="nonzero" node-id="66" stroke="none" target-height="101.888016" target-width="67.92099" target-x="484.079" target-y="101.746"></path><path d="M 498.61 107.62 C 507.52 107.49 516.00 113.93 525.03 114.66 C 529.83 115.05 534.85 113.50 539.54 112.73 C 541.67 112.38 543.69 111.88 545.54 113.21 C 546.73 115.64 547.00 118.02 547.01 120.72 C 547.07 128.34 545.58 136.45 544.78 144.05 C 543.49 156.26 542.60 168.70 540.66 180.82 C 539.68 174.69 539.13 137.14 536.78 135.02 C 534.74 133.17 530.10 133.40 527.47 133.20 C 517.96 132.19 507.98 130.88 498.43 130.92 C 495.83 138.65 495.66 148.02 494.84 156.13 C 493.69 167.83 492.48 179.51 491.20 191.19 C 489.92 183.13 488.80 117.53 490.46 111.08 C 492.28 108.60 495.78 108.26 498.61 107.62 Z" fill="#fefcfe" fill-rule="nonzero" node-id="68" stroke="none" target-height="83.70202" target-width="58.267" target-x="488.803" target-y="107.492"></path><path d="M 241.65 238.70 C 244.81 238.22 248.30 238.38 251.50 238.35 C 252.85 238.33 254.20 238.33 255.55 238.36 C 256.90 238.39 258.25 238.44 259.60 238.52 C 260.95 238.60 262.29 238.71 263.63 238.85 C 264.98 238.98 266.32 239.14 267.66 239.32 C 268.99 239.51 270.33 239.72 271.66 239.96 C 272.98 240.20 274.31 240.47 275.63 240.76 C 276.95 241.05 278.26 241.36 279.56 241.71 C 280.87 242.05 282.17 242.41 283.46 242.81 C 284.75 243.20 286.04 243.62 287.31 244.06 C 288.59 244.50 289.85 244.97 291.11 245.46 C 292.37 245.96 293.62 246.47 294.85 247.02 C 296.09 247.56 297.32 248.12 298.53 248.71 C 299.74 249.30 300.95 249.92 302.14 250.55 C 303.33 251.19 304.51 251.85 305.67 252.53 C 306.84 253.21 307.99 253.92 309.12 254.65 C 310.26 255.37 311.38 256.12 312.49 256.90 C 332.35 271.00 346.22 293.78 350.17 317.78 C 355.03 347.28 346.99 377.06 331.53 402.24 C 328.67 406.90 325.25 411.06 322.08 415.49 C 331.52 422.33 340.96 432.62 349.61 440.74 C 358.02 448.64 367.03 456.12 375.07 464.37 C 376.59 465.93 378.38 467.66 379.11 469.75 C 379.19 469.98 379.25 470.21 379.31 470.45 C 379.36 470.69 379.41 470.93 379.44 471.17 C 379.47 471.41 379.49 471.65 379.49 471.89 C 379.50 472.13 379.49 472.37 379.47 472.62 C 379.45 472.86 379.41 473.10 379.37 473.33 C 379.32 473.57 379.26 473.81 379.19 474.04 C 379.12 474.27 379.04 474.50 378.95 474.72 C 378.85 474.95 378.75 475.17 378.63 475.38 C 377.83 476.80 376.43 477.81 374.86 478.22 C 372.83 478.74 371.19 478.04 369.36 477.24 C 360.77 473.47 352.44 467.68 344.33 462.89 C 329.42 454.02 314.42 445.32 299.30 436.80 C 293.21 441.15 286.87 444.88 280.27 448.38 C 261.12 460.19 233.25 467.74 211.00 470.49 C 180.35 474.29 146.73 471.30 121.68 451.62 C 105.20 438.67 96.24 419.94 93.93 399.33 C 90.00 364.22 105.43 327.04 127.24 300.09 C 128.12 299.01 129.02 297.95 129.92 296.90 C 130.83 295.85 131.75 294.81 132.68 293.78 C 133.61 292.75 134.55 291.73 135.51 290.72 C 136.46 289.72 137.43 288.72 138.41 287.74 C 139.39 286.76 140.38 285.79 141.39 284.83 C 142.39 283.87 143.41 282.93 144.44 281.99 C 145.46 281.06 146.50 280.14 147.55 279.23 C 148.60 278.33 149.66 277.43 150.73 276.55 C 151.81 275.67 152.89 274.80 153.98 273.94 C 155.07 273.09 156.18 272.25 157.29 271.42 C 158.40 270.59 159.53 269.78 160.66 268.98 C 161.79 268.18 162.94 267.39 164.09 266.62 C 165.24 265.84 166.41 265.08 167.58 264.34 C 168.75 263.60 169.93 262.87 171.12 262.15 C 172.31 261.44 173.51 260.74 174.71 260.05 C 175.92 259.36 177.13 258.69 178.36 258.04 C 179.58 257.38 180.81 256.74 182.05 256.11 C 183.29 255.49 184.53 254.88 185.79 254.28 C 187.04 253.69 188.30 253.11 189.57 252.54 C 190.84 251.98 192.11 251.43 193.39 250.90 C 194.67 250.36 195.96 249.84 197.25 249.34 C 198.55 248.84 199.85 248.35 201.15 247.88 C 202.46 247.41 203.77 246.96 205.09 246.52 C 206.41 246.09 207.73 245.66 209.05 245.26 C 210.38 244.85 211.71 244.46 213.05 244.09 C 214.39 243.72 215.73 243.36 217.07 243.02 C 218.42 242.68 219.77 242.36 221.12 242.05 C 222.48 241.74 223.83 241.45 225.19 241.18 C 226.55 240.91 227.92 240.65 229.28 240.41 C 230.65 240.17 232.02 239.95 233.39 239.74 C 234.77 239.53 236.14 239.34 237.52 239.17 C 238.89 239.00 240.27 238.84 241.65 238.70 Z M 277.75 444.56 C 285.16 440.44 292.20 435.82 299.47 431.50 L 300.17 431.83 C 307.19 435.17 313.88 439.55 320.59 443.49 L 355.56 464.04 C 360.61 467.00 365.73 470.58 371.00 473.06 C 372.32 473.68 373.03 473.67 374.41 473.34 C 374.82 472.71 375.22 472.48 375.04 471.68 C 374.43 468.87 334.63 433.14 329.67 428.56 C 325.96 425.14 320.44 421.30 317.74 417.09 C 316.83 415.68 316.90 414.95 317.65 413.47 C 319.99 408.82 324.60 405.30 327.25 400.74 C 343.79 372.26 352.73 341.45 343.56 308.73 C 343.37 308.03 343.16 307.32 342.95 306.62 C 342.73 305.92 342.51 305.22 342.28 304.53 C 342.05 303.83 341.81 303.14 341.56 302.45 C 341.31 301.76 341.05 301.07 340.78 300.39 C 340.52 299.71 340.24 299.03 339.96 298.35 C 339.67 297.68 339.38 297.00 339.08 296.33 C 338.78 295.67 338.47 295.00 338.16 294.34 C 337.84 293.68 337.51 293.02 337.18 292.37 C 336.85 291.72 336.51 291.07 336.16 290.42 C 335.81 289.78 335.45 289.14 335.09 288.50 C 334.72 287.87 334.35 287.24 333.97 286.61 C 333.58 285.98 333.20 285.36 332.80 284.75 C 332.40 284.13 332.00 283.52 331.59 282.91 C 331.17 282.31 330.76 281.70 330.33 281.11 C 329.90 280.51 329.47 279.92 329.02 279.34 C 328.58 278.75 328.13 278.17 327.68 277.60 C 327.22 277.02 326.76 276.46 326.29 275.89 C 325.82 275.33 325.34 274.77 324.86 274.22 C 324.37 273.67 323.88 273.13 323.38 272.59 C 322.89 272.05 322.38 271.52 321.87 271.00 C 321.36 270.47 320.84 269.95 320.32 269.44 C 319.80 268.93 319.26 268.42 318.73 267.92 C 318.19 267.42 317.65 266.93 317.10 266.44 C 316.55 265.96 316.00 265.48 315.44 265.01 C 314.87 264.53 314.31 264.07 313.74 263.61 C 313.16 263.15 312.58 262.70 312.00 262.26 C 311.42 261.82 310.83 261.38 310.23 260.95 C 309.64 260.52 309.04 260.10 308.43 259.69 C 307.83 259.27 307.22 258.87 306.60 258.47 C 305.99 258.07 305.37 257.68 304.74 257.30 C 304.12 256.91 303.49 256.54 302.85 256.17 C 302.22 255.80 301.58 255.44 300.94 255.09 C 284.58 245.99 263.01 240.86 244.31 243.22 C 204.06 245.76 162.68 266.76 135.95 296.98 C 112.61 323.37 95.81 359.08 98.17 394.92 C 99.45 414.57 107.35 433.00 122.33 446.07 C 143.27 464.35 172.46 469.20 199.42 467.19 C 202.84 466.95 206.25 466.63 209.65 466.22 C 213.04 465.80 216.43 465.30 219.80 464.70 C 223.17 464.11 226.53 463.43 229.86 462.65 C 233.20 461.88 236.51 461.02 239.80 460.07 C 243.09 459.12 246.35 458.08 249.59 456.96 C 252.82 455.83 256.02 454.62 259.19 453.33 C 262.36 452.03 265.49 450.65 268.59 449.19 C 271.69 447.73 274.74 446.18 277.75 444.56 Z" fill="#010101" fill-rule="nonzero" node-id="70" stroke="none" target-height="240.51898" target-width="289.49466" target-x="90.001" target-y="238.22202"></path><path d="M 175.97 297.52 C 178.17 297.34 179.97 297.59 182.05 298.36 C 188.96 300.91 206.49 313.77 213.46 318.41 C 226.74 327.27 240.91 335.66 253.42 345.54 C 255.24 346.98 257.56 348.78 258.50 350.92 C 257.19 354.72 228.84 391.80 224.75 396.24 C 224.03 396.27 224.14 396.29 223.32 396.16 C 221.17 395.80 154.38 359.86 148.67 356.42 C 146.84 355.31 145.04 354.03 143.87 352.22 C 142.55 350.18 142.63 347.08 143.12 344.80 C 145.91 331.71 162.67 326.94 168.07 315.75 C 170.89 309.93 170.09 301.13 175.97 297.52 Z M 224.80 391.77 C 210.66 379.22 191.69 369.79 174.79 361.18 C 171.33 359.21 167.00 357.28 164.67 353.96 C 164.50 351.79 166.46 349.74 167.83 348.12 C 171.90 343.32 190.38 323.60 194.82 322.01 C 200.24 323.54 205.58 326.70 210.61 329.22 C 216.46 332.15 222.56 334.77 228.34 337.81 C 235.45 341.55 242.32 345.76 249.77 348.82 C 241.01 342.17 185.69 304.19 177.88 302.11 L 177.37 301.96 C 174.09 307.98 174.70 315.03 170.57 321.00 C 166.21 327.32 145.13 341.22 147.94 349.24 C 148.42 350.62 149.86 351.66 151.05 352.40 C 155.62 355.25 160.69 357.58 165.47 360.10 L 196.11 376.27 C 204.10 380.58 216.25 389.10 224.29 391.62 C 224.46 391.68 224.63 391.72 224.80 391.77 Z" fill="#010101" fill-rule="nonzero" node-id="72" stroke="none" target-height="98.957" target-width="115.959" target-x="142.546" target-y="297.337"></path><path d="M 151.79 427.84 C 152.39 427.80 152.62 427.77 153.26 427.80 C 156.40 427.96 166.68 432.40 168.62 435.15 C 169.48 436.36 169.25 436.82 169.06 438.21 C 168.38 438.37 167.71 438.54 167.00 438.53 C 163.92 438.51 154.14 434.17 152.23 431.58 C 151.27 430.27 151.64 429.34 151.79 427.84 Z" fill="#010101" fill-rule="nonzero" node-id="74" stroke="none" target-height="10.768005" target-width="18.210007" target-x="151.271" target-y="427.77"></path><path d="M 274.35 268.19 C 278.90 269.40 287.34 276.38 289.90 280.32 C 289.99 281.63 289.76 281.90 289.14 283.08 L 288.22 282.85 C 284.92 281.96 274.95 274.73 273.69 271.64 C 273.06 270.11 273.69 269.55 274.35 268.19 Z" fill="#010101" fill-rule="nonzero" node-id="76" stroke="none" target-height="14.889984" target-width="16.926025" target-x="273.063" target-y="268.195"></path><path d="M 763.59 238.70 C 778.08 236.16 804.63 241.64 818.83 246.53 C 859.30 260.48 897.60 291.86 916.35 330.71 C 929.34 357.62 935.53 389.60 925.30 418.42 C 918.23 438.33 903.68 452.87 884.77 461.86 C 848.69 479.01 798.59 470.40 762.34 457.52 C 759.00 456.25 755.70 454.88 752.44 453.41 C 749.18 451.94 745.97 450.37 742.81 448.71 C 739.65 447.04 736.54 445.28 733.49 443.42 C 730.44 441.56 727.45 439.61 724.51 437.56 C 710.81 446.01 695.87 453.06 681.58 460.50 C 673.66 464.63 661.12 472.44 652.95 474.52 C 650.83 475.06 649.08 475.17 647.17 473.99 C 646.38 472.98 645.75 471.80 645.68 470.49 C 645.59 468.70 646.25 467.15 647.27 465.71 C 650.61 460.95 655.93 456.64 660.10 452.59 C 667.05 445.80 674.05 439.08 681.11 432.41 C 687.45 426.48 694.00 420.71 699.83 414.27 C 685.23 392.69 675.13 371.91 672.79 345.50 C 670.47 319.21 677.59 291.54 694.74 271.15 C 712.35 250.21 736.94 241.10 763.59 238.70 Z" fill="#010101" fill-rule="nonzero" node-id="78" stroke="none" target-height="242.85098" target-width="289.94104" target-x="645.589" target-y="236.16"></path><path d="M 762.32 243.70 C 780.74 241.00 802.84 246.03 820.17 252.22 C 860.23 266.52 895.70 297.45 913.79 336.06 C 925.36 360.75 930.24 391.13 920.68 417.27 C 913.90 435.81 900.39 449.44 882.52 457.58 C 844.75 474.77 798.68 465.96 761.36 451.85 C 747.86 446.84 735.96 439.67 723.87 431.95 C 717.02 435.33 710.50 439.83 703.79 443.55 C 692.26 449.94 680.44 455.86 668.76 461.95 C 663.32 464.79 656.99 469.02 651.11 470.63 L 650.30 470.09 C 650.34 469.54 650.31 469.49 650.56 468.90 C 650.82 468.30 696.87 423.51 699.90 420.86 C 701.29 419.66 703.13 419.25 704.86 418.76 L 705.59 418.56 C 706.94 415.73 705.52 414.05 703.75 411.79 C 689.81 394.01 679.90 370.25 677.45 347.71 C 674.72 322.63 681.38 295.22 697.47 275.47 C 713.77 255.47 737.20 246.22 762.32 243.70 Z" fill="#fefcfe" fill-rule="nonzero" node-id="80" stroke="none" target-height="233.775" target-width="279.94104" target-x="650.298" target-y="240.996"></path><path d="M 842.49 298.06 C 843.45 298.05 844.40 298.02 845.35 298.22 C 846.49 298.46 847.52 298.92 848.41 299.68 C 853.55 304.06 852.80 312.04 856.61 317.41 C 862.86 326.22 873.19 331.55 878.82 341.02 C 880.67 344.13 881.55 347.43 880.58 351.00 C 879.71 354.22 877.03 355.99 874.41 357.79 C 866.41 363.25 856.64 367.13 848.08 371.73 C 832.66 380.02 817.54 388.84 802.17 397.23 C 801.39 397.51 800.77 397.60 799.95 397.71 C 797.02 396.28 766.46 355.23 764.18 350.08 C 770.89 343.85 779.56 338.63 787.04 333.32 C 802.26 322.51 819.59 309.30 835.88 300.50 C 838.02 299.34 840.13 298.64 842.49 298.06 Z" fill="#010101" fill-rule="nonzero" node-id="82" stroke="none" target-height="99.69302" target-width="117.36493" target-x="764.18304" target-y="298.017"></path><path d="M 842.43 302.42 C 843.01 302.51 843.29 302.54 843.81 302.68 C 847.64 303.70 850.59 317.67 853.28 321.40 C 859.31 329.77 869.52 334.03 874.57 343.49 C 875.63 345.49 876.47 347.94 875.66 350.18 C 875.07 351.81 873.87 352.73 872.47 353.65 C 869.40 355.68 865.88 357.18 862.61 358.89 L 842.16 369.68 C 828.34 377.05 814.95 385.27 800.75 391.93 C 812.32 380.38 836.35 368.52 851.22 360.40 C 853.36 359.23 855.69 358.09 857.69 356.70 C 858.74 355.96 859.53 355.42 859.75 354.12 C 856.70 347.14 836.77 327.14 830.65 320.45 C 826.09 321.94 821.61 324.29 817.28 326.36 C 809.26 330.23 801.33 334.28 793.50 338.53 C 786.62 342.32 779.88 346.48 772.75 349.77 C 782.11 341.50 793.23 334.53 803.48 327.41 C 814.40 319.81 830.68 307.43 842.43 302.42 Z" fill="#fefcfe" fill-rule="nonzero" node-id="84" stroke="none" target-height="89.505005" target-width="103.71704" target-x="772.75494" target-y="302.422"></path><path d="M 747.96 270.89 L 749.79 271.04 C 750.93 271.83 750.92 271.77 751.24 273.11 C 750.45 275.25 740.17 283.25 737.85 285.53 C 736.51 285.60 735.79 285.26 734.59 284.76 C 734.25 284.16 733.96 284.00 734.17 283.28 C 735.59 278.35 743.90 273.51 747.96 270.89 Z" fill="#010101" fill-rule="nonzero" node-id="86" stroke="none" target-height="14.7039795" target-width="17.272095" target-x="733.964" target-y="270.893"></path><path d="M 871.37 427.40 L 873.23 428.34 C 874.01 429.56 874.02 429.45 873.73 430.87 C 870.27 434.97 863.06 437.79 858.06 439.49 C 857.67 439.35 857.10 439.17 856.77 438.94 C 855.73 438.18 855.76 437.71 855.72 436.56 C 858.13 432.63 867.20 429.50 871.37 427.40 Z" fill="#010101" fill-rule="nonzero" node-id="88" stroke="none" target-height="12.085999" target-width="18.294922" target-x="855.72406" target-y="427.401"></path><path d="M 299.10 556.88 C 299.36 556.86 299.62 556.82 299.88 556.81 C 301.07 556.78 301.88 556.93 302.79 557.68 C 302.86 558.21 302.92 558.15 302.67 558.68 C 300.65 562.84 279.28 571.60 274.23 573.76 C 273.19 574.02 272.32 574.02 271.25 573.98 L 270.35 572.69 L 270.26 572.86 L 270.24 572.80 C 272.00 568.54 294.35 559.18 299.10 556.88 Z" fill="#010101" fill-rule="nonzero" node-id="90" stroke="none" target-height="17.245972" target-width="32.68701" target-x="270.235" target-y="556.776"></path><path d="M 710.20 556.91 C 710.98 556.94 710.81 556.91 711.74 557.06 C 715.48 557.65 736.63 568.31 738.33 570.99 C 738.78 571.70 738.39 572.77 738.27 573.57 C 738.03 573.59 737.78 573.61 737.53 573.61 C 733.04 573.67 713.81 563.76 710.23 560.54 C 709.66 559.22 709.93 558.26 710.20 556.91 Z" fill="#010101" fill-rule="nonzero" node-id="92" stroke="none" target-height="16.76001" target-width="29.12799" target-x="709.657" target-y="556.91"></path><path d="M 606.56 380.77 C 607.49 381.05 607.92 381.30 608.71 381.83 L 608.87 383.02 C 606.82 389.38 598.34 402.45 594.03 407.96 C 593.57 407.64 592.70 407.14 592.31 406.68 C 591.64 405.88 591.44 405.35 591.67 404.34 C 592.51 400.67 603.66 382.80 606.56 380.77 Z" fill="#010101" fill-rule="nonzero" node-id="94" stroke="none" target-height="27.190002" target-width="17.428955" target-x="591.442" target-y="380.77"></path><path d="M 422.01 377.43 C 422.15 377.47 422.29 377.51 422.42 377.57 C 426.02 379.20 433.02 394.64 434.24 398.64 C 434.77 400.42 434.33 401.15 433.47 402.74 C 432.80 402.47 432.08 402.19 431.54 401.70 C 429.07 399.42 420.31 381.81 420.67 379.06 C 420.78 378.21 421.40 377.96 422.01 377.43 Z" fill="#010101" fill-rule="nonzero" node-id="96" stroke="none" target-height="25.306976" target-width="14.458984" target-x="420.314" target-y="377.428"></path></svg>